<svg width="20" height="20" viewBox="0 0 20 20" fill="none" xmlns="http://www.w3.org/2000/svg">
<path d="M12.8584 18.7598C12.5774 18.8539 12.2917 18.9339 12.002 19H7.99805C7.70831 18.9339 7.4226 18.8539 7.1416 18.7598H12.8584Z" fill="#141414"/>
<path d="M15.8398 17.0732C15.6405 17.2434 15.4348 17.4044 15.2227 17.5557H4.77734C4.56517 17.4044 4.35953 17.2434 4.16016 17.0732H15.8398Z" fill="#141414"/>
<path d="M17.5361 15.1465C17.3168 15.4826 17.0732 15.804 16.8086 16.1104H3.19141C2.92677 15.804 2.68323 15.4826 2.46387 15.1465H17.5361Z" fill="#141414"/>
<path d="M6.44043 12.9785C6.55688 13.1292 6.68223 13.274 6.81836 13.4102C7.26579 13.8576 7.79801 14.1998 8.37695 14.4238H2.03906C1.79497 13.9606 1.59262 13.4769 1.43262 12.9785H6.44043Z" fill="#141414"/>
<path d="M18.5674 12.9785C18.4074 13.4769 18.205 13.9606 17.9609 14.4238H11.623C12.202 14.1998 12.7342 13.8576 13.1816 13.4102C13.3178 13.274 13.4431 13.1292 13.5596 12.9785H18.5674Z" fill="#141414"/>
<path d="M5.51465 10.5703C5.56667 11.2534 5.77327 11.9114 6.11523 12.4971H1.29199C1.12888 11.871 1.03269 11.2254 1.00781 10.5703H5.51465Z" fill="#141414"/>
<path d="M18.9922 10.5703C18.9673 11.2254 18.8711 11.871 18.708 12.4971H13.8848C14.2267 11.9114 14.4333 11.2534 14.4854 10.5703H18.9922Z" fill="#141414"/>
<path d="M19 10C19 7.61305 18.0518 5.32387 16.364 3.63604C14.6761 1.94821 12.3869 1 10 1C7.61305 1 5.32387 1.94821 3.63604 3.63604C1.94821 5.32387 1 7.61305 1 10L5.5 10C5.5 8.80653 5.97411 7.66193 6.81802 6.81802C7.66193 5.97411 8.80653 5.5 10 5.5C11.1935 5.5 12.3381 5.97411 13.182 6.81802C14.0259 7.66193 14.5 8.80653 14.5 10H19Z" fill="#141414"/>
</svg>
