<svg preserveAspectRatio="none" width="100%" height="100%" overflow="visible" style="display: block;" viewBox="0 0 278 240" fill="none" xmlns="http://www.w3.org/2000/svg">
<g id="Vector">
<path d="M278 45.7019C262.063 67.5409 241.16 85.3151 217.002 97.5703C192.843 109.826 166.114 116.215 139 116.215C111.886 116.215 85.1569 109.826 60.9983 97.5703C36.84 85.315 15.9371 67.5409 0.000155523 45.7019L63.1824 5.04886e-06C71.8754 11.9122 83.2775 21.6066 96.4548 28.2912C109.632 34.9758 124.211 38.4617 139 38.4617C153.789 38.4617 168.368 34.9758 181.545 28.2912C194.723 21.6066 206.125 11.9122 214.818 0L278 45.7019Z" fill="var(--fill-0, black)"/>
<path d="M0 194.298C15.9369 172.459 36.8399 154.685 60.9982 142.43C85.1567 130.174 111.886 123.785 139 123.785C166.114 123.785 192.843 130.174 217.002 142.43C241.16 154.685 262.063 172.459 278 194.298L214.818 240C206.125 228.088 194.723 218.393 181.545 211.709C168.368 205.024 153.789 201.538 139 201.538C124.211 201.538 109.632 205.024 96.4546 211.709C83.2773 218.393 71.8752 228.088 63.1823 240L0 194.298Z" fill="var(--fill-0, black)"/>
</g>
</svg>
