<svg preserveAspectRatio="none" width="100%" height="100%" overflow="visible" style="display: block;" viewBox="0 0 27.7646 24" fill="none" xmlns="http://www.w3.org/2000/svg">
<path id="Union" d="M13.8828 12.3779C16.5906 12.378 19.2602 13.0177 21.6729 14.2432C24.0855 15.4687 26.173 17.2459 27.7646 19.4297L21.4551 24C20.5869 22.8089 19.4478 21.8394 18.1318 21.1709C16.8159 20.5025 15.3597 20.1534 13.8828 20.1533C12.4058 20.1533 10.9489 20.5025 9.63281 21.1709C8.31695 21.8394 7.17864 22.8089 6.31055 24L0 19.4297C1.5916 17.2459 3.67918 15.4687 6.0918 14.2432C8.5046 13.0176 11.1749 12.3779 13.8828 12.3779ZM27.7646 4.57031C26.173 6.75405 24.0855 8.53137 21.6729 9.75684C19.2601 10.9823 16.5906 11.621 13.8828 11.6211C11.1749 11.6211 8.5046 10.9823 6.0918 9.75684C3.67918 8.53135 1.59161 6.75404 0 4.57031L6.31055 0C7.17873 1.19114 8.31777 2.16067 9.63379 2.8291C10.9497 3.49742 12.4059 3.8457 13.8828 3.8457C15.3597 3.84565 16.8159 3.4975 18.1318 2.8291C19.4478 2.16064 20.5869 1.19116 21.4551 0L27.7646 4.57031Z" fill="var(--fill-0, black)" fill-opacity="0.8"/>
</svg>
