<svg width="36" height="36" viewBox="0 0 36 36" fill="none" xmlns="http://www.w3.org/2000/svg">
<path fill-rule="evenodd" clip-rule="evenodd" d="M34.1998 9.11022C30.5865 13.917 24.6745 17.0519 17.9998 17.0519C11.325 17.0519 5.41303 13.917 1.7998 9.11022L9.89984 3.60001C11.7064 6.00341 14.6624 7.57086 17.9998 7.57086C21.3372 7.57086 24.2932 6.00341 26.0997 3.60001L34.1998 9.11022Z" fill="#141414"/>
<path fill-rule="evenodd" clip-rule="evenodd" d="M1.79985 26.8898C5.41307 22.083 11.3251 18.9481 17.9998 18.9481C24.6746 18.9481 30.5866 22.083 34.1998 26.8898L26.0998 32.4C24.2932 29.9966 21.3372 28.4292 17.9998 28.4292C14.6624 28.4292 11.7064 29.9966 9.89988 32.4L1.79985 26.8898Z" fill="#141414"/>
</svg>
