<svg width="32" height="40" viewBox="0 0 32 40" fill="none" xmlns="http://www.w3.org/2000/svg">
<path d="M9 30V21H12V31H10C9.44775 31 9 30.5522 9 30Z" fill="#3B9C3F"/>
<path d="M9 19H12V16H10C9.44775 16 9 16.4478 9 17V19Z" fill="#3B9C3F"/>
<path d="M14 31V21H23V30C23 30.5522 22.5522 31 22 31H14Z" fill="#3B9C3F"/>
<path d="M14 19H23V17C23 16.4478 22.5522 16 22 16H14V19Z" fill="#3B9C3F"/>
<path fill-rule="evenodd" clip-rule="evenodd" d="M4 0C1.79089 0 0 1.79077 0 4V36C0 38.2092 1.79089 40 4 40H28C30.2091 40 32 38.2092 32 36V12.9958C32 12.0312 31.6514 11.0991 31.0184 10.3711L23.1959 1.37524C22.4362 0.501709 21.3352 0 20.1775 0H4ZM10 14C8.34314 14 7 15.3433 7 17V30C7 31.6567 8.34314 33 10 33H22C23.6569 33 25 31.6567 25 30V17C25 15.3433 23.6569 14 22 14H10Z" fill="#3B9C3F"/>
</svg>
