<svg width="32" height="40" viewBox="0 0 32 40" fill="none" xmlns="http://www.w3.org/2000/svg">
<path d="M7.21428 34.8689C7.80634 35.6977 9.19359 35.6977 9.76876 34.8689C10.0732 34.463 10.141 33.9217 9.98869 33.4482L9.59959 32.3319H7.38345L7.01124 33.4482C6.84207 33.9217 6.92669 34.463 7.21428 34.8689Z" fill="#6046CC"/>
<path fill-rule="evenodd" clip-rule="evenodd" d="M4 0C1.79086 0 0 1.79086 0 4V36C0 38.2091 1.79086 40 4 40H28C30.2091 40 32 38.2091 32 36V12.9959C32 12.0313 31.6514 11.0991 31.0184 10.3712L23.1959 1.37529C22.4362 0.501634 21.3352 0 20.1775 0H4ZM10.2424 25.9048V29.6596L11.3759 32.9747C11.6973 33.9049 11.545 34.9366 10.9699 35.7315C10.3947 36.5265 9.48117 37 8.49993 37C7.51869 37 6.58827 36.5265 6.03 35.7315C5.45483 34.9366 5.30255 33.9049 5.624 32.9747L6.75745 29.6596V25.9048C6.75745 25.4989 7.0789 25.1776 7.4849 25.1776H9.51496C9.92096 25.1776 10.2424 25.4989 10.2424 25.9048ZM4 7.08035V5.01689L9.49814 5V7.8077H12.2726C12.6617 7.8077 13 8.14596 13 8.55187V10.1417C13 10.5476 12.6617 10.8859 12.2726 10.8859H9.49814V13.9472H12.2726C12.6617 13.9472 13 14.2686 13 14.6745V16.2812C13 16.6871 12.6617 17.0085 12.2726 17.0085H9.49814V20.0698H12.2726C12.6617 20.0698 13 20.408 13 20.797V22.4038C13 22.8097 12.6617 23.1311 12.2726 23.1311H8.22931C7.82331 23.1311 7.48497 22.8097 7.48497 22.4038V20.0698H4.72745C4.32145 20.0698 4 19.7484 4 19.3425V17.7358C4 17.3298 4.32145 17.0085 4.72745 17.0085H7.48497V13.9472H4.72745C4.32145 13.9472 4 13.6089 4 13.203V11.6132C4 11.2073 4.32145 10.8859 4.72745 10.8859H7.48497V7.80763H4.72745C4.32145 7.80763 4 7.48625 4 7.08035Z" fill="#6046CC"/>
</svg>
