<svg width="32" height="40" viewBox="0 0 32 40" fill="none" xmlns="http://www.w3.org/2000/svg">
<path fill-rule="evenodd" clip-rule="evenodd" d="M4 0C1.79089 0 0 1.79077 0 4V36C0 38.2092 1.79089 40 4 40H28C30.2091 40 32 38.2092 32 36V12.9958C32 12.0312 31.6514 11.0991 31.0184 10.3711L23.1959 1.37524C22.4362 0.501709 21.3352 0 20.1775 0H4ZM9 14C8.44775 14 8 14.4478 8 15C8 15.5522 8.44775 16 9 16H16.5C17.0522 16 17.5 15.5522 17.5 15C17.5 14.4478 17.0522 14 16.5 14H9ZM9 19C8.44775 19 8 19.4478 8 20C8 20.5522 8.44775 21 9 21H23.5C24.0522 21 24.5 20.5522 24.5 20C24.5 19.4478 24.0522 19 23.5 19H9ZM9 24C8.44775 24 8 24.4478 8 25C8 25.5522 8.44775 26 9 26H23.5C24.0522 26 24.5 25.5522 24.5 25C24.5 24.4478 24.0522 24 23.5 24H9ZM9 29C8.44775 29 8 29.4478 8 30C8 30.5522 8.44775 31 9 31H23.5C24.0522 31 24.5 30.5522 24.5 30C24.5 29.4478 24.0522 29 23.5 29H9Z" fill="#007AF1"/>
</svg>
