<svg width="32" height="40" viewBox="0 0 32 40" fill="none" xmlns="http://www.w3.org/2000/svg">
<path d="M0 4C0 1.79086 1.79086 0 4 0H20.1775C21.3352 0 22.4362 0.501634 23.1959 1.37529L31.0184 10.3712C31.6514 11.0991 32 12.0313 32 12.9959V36C32 38.2091 30.2091 40 28 40H4C1.79086 40 0 38.2091 0 36V4Z" fill="#E4E6EE"/>
<path d="M16.028 21.7065C16.028 19.5051 17.8126 17.7205 20.014 17.7205C22.2154 17.7205 24 19.5051 24 21.7065C24 23.9079 22.2153 25.6925 20.014 25.6925C17.8125 25.6925 16.028 23.9079 16.028 21.7065Z" fill="#00BCFF"/>
<path d="M8.05591 29.732C8.05591 27.5306 9.84051 25.746 12.0419 25.746L14.1661 24.6245L16.0279 25.746V29.732C16.0279 31.9335 14.2433 33.718 12.0419 33.718C9.84051 33.718 8.05591 31.9334 8.05591 29.732Z" fill="#00CF7F"/>
<path d="M16.0606 10L13.8916 13.7682L16.0606 17.972H19.9907C22.1922 17.972 23.9767 16.1874 23.9767 13.986C23.9767 11.7846 22.1921 10 19.9907 10H16.0606Z" fill="#FF7361"/>
<path d="M8 13.986C8 16.1874 9.78461 17.972 11.986 17.972L14.1005 18.7887L16.0279 17.972V10H11.986C9.78461 10 8 11.7846 8 13.986Z" fill="#FF4D12"/>
<path d="M8.05591 21.7065C8.05591 23.908 9.84051 25.6925 12.0419 25.6925H16.0279V17.7205H12.0419C9.84051 17.7205 8.05591 19.5051 8.05591 21.7065Z" fill="#B659FF"/>
</svg>
