<svg width="32" height="40" viewBox="0 0 32 40" fill="none" xmlns="http://www.w3.org/2000/svg">
<path d="M20.3779 0C21.6576 0 22.8703 0.578966 23.6807 1.57715L31.0352 10.6367C31.6588 11.405 32 12.3677 32 13.3604V35.7002C31.9999 38.0749 30.0897 40 27.7334 40H4.2666C1.91028 40 0.000104323 38.0749 0 35.7002V4.2998C0.000105346 1.92509 1.91028 3.55801e-05 4.2666 0H20.3779ZM10.75 16.125C9.09315 16.125 7.75 17.4681 7.75 19.125V25.875C7.75 27.5319 9.09315 28.875 10.75 28.875H17.5C19.1569 28.875 20.5 27.5319 20.5 25.875V19.125C20.5 17.4681 19.1569 16.125 17.5 16.125H10.75ZM24.25 20.3516C24.2498 19.7158 23.508 19.3684 23.0195 19.7754L22 20.625V24.375L23.0195 25.2246C23.5079 25.6315 24.2495 25.2849 24.25 24.6494V20.3516Z" fill="black" fill-opacity="0.2667"/>
</svg>
