<svg width="32" height="40" viewBox="0 0 32 40" fill="none" xmlns="http://www.w3.org/2000/svg">
<path fill-rule="evenodd" clip-rule="evenodd" d="M4.26667 0C1.91025 0 0 1.92518 0 4.3V35.7C0 38.0748 1.91025 40 4.26667 40H27.7333C30.0898 40 32 38.0748 32 35.7V13.3599C32 12.3673 31.6592 11.4053 31.0356 10.637L23.6803 1.57708C22.87 0.578895 21.6578 0 20.3781 0H4.26667ZM16 13.9917C14.4291 13.9917 13.1556 15.2751 13.1556 16.8583V21.875C13.1556 23.4582 14.4291 24.7417 16 24.7417C17.5709 24.7417 18.8444 23.4582 18.8444 21.875V16.8583C18.8444 15.2751 17.5709 13.9917 16 13.9917ZM11.7333 20.4417C11.7333 20.0459 11.415 19.725 11.0222 19.725C10.6295 19.725 10.3111 20.0459 10.3111 20.4417V21.875C10.3111 24.7987 12.4826 27.2113 15.2889 27.564V28.325H13.1556C12.7628 28.325 12.4444 28.6459 12.4444 29.0417C12.4444 29.4375 12.7628 29.7583 13.1556 29.7583H18.8444C19.2372 29.7583 19.5556 29.4375 19.5556 29.0417C19.5556 28.6459 19.2372 28.325 18.8444 28.325H16.7111V27.564C19.5174 27.2113 21.6889 24.7987 21.6889 21.875V20.4417C21.6889 20.0459 21.3705 19.725 20.9778 19.725C20.585 19.725 20.2667 20.0459 20.2667 20.4417V21.875C20.2667 24.2498 18.3564 26.175 16 26.175C13.6436 26.175 11.7333 24.2498 11.7333 21.875V20.4417Z" fill="black" fill-opacity="0.2667"/>
</svg>
