<svg width="32" height="40" viewBox="0 0 32 40" fill="none" xmlns="http://www.w3.org/2000/svg">
<path d="M20.3779 0C21.6576 0 22.8703 0.578966 23.6807 1.57715L31.0352 10.6367C31.6588 11.405 32 12.3677 32 13.3604V35.7002C31.9999 38.0749 30.0897 40 27.7334 40H4.2666C1.91028 40 0.000104323 38.0749 0 35.7002V4.2998C0.000105346 1.92509 1.91028 3.55801e-05 4.2666 0H20.3779ZM11.5 14.5C9.84315 14.5 8.5 15.8431 8.5 17.5V26.5C8.5 28.1569 9.84315 29.5 11.5 29.5H20.5C20.707 29.5 20.9093 29.4794 21.1045 29.4395C21.2023 29.4194 21.2985 29.3945 21.3926 29.3652C22.5196 29.0145 23.3615 28.0167 23.4844 26.8066C23.4946 26.7058 23.5 26.6035 23.5 26.5V17.5C23.5 15.8431 22.1569 14.5 20.5 14.5H11.5ZM20.5 16C21.3284 16 22 16.6716 22 17.5V22.8086L19.96 21.3809C19.3511 20.9548 18.5218 21.0397 18.0107 21.5791L11.9277 28H11.5C10.6716 28 10 27.3284 10 26.5V17.5C10 16.6716 10.6716 16 11.5 16H20.5ZM13.375 17.5C12.3395 17.5 11.5 18.3395 11.5 19.375C11.5 20.4105 12.3395 21.25 13.375 21.25C14.4105 21.25 15.25 20.4105 15.25 19.375C15.25 18.3395 14.4105 17.5 13.375 17.5Z" fill="black" fill-opacity="0.2667"/>
</svg>
