<svg width="24" height="24" viewBox="0 0 24 24" fill="none" xmlns="http://www.w3.org/2000/svg">
<path d="M12.0008 5.66575C11.2898 5.66575 10.7119 5.08783 10.7119 4.37689V2.96878C10.7119 2.25785 11.2898 1.67993 12.0008 1.67993C12.7117 1.67993 13.2897 2.25785 13.2897 2.96878V4.37689C13.2897 5.08783 12.7117 5.66575 12.0008 5.66575Z" fill="#141414"/>
<path d="M12.0008 18.3341C11.2898 18.3341 10.7119 18.912 10.7119 19.623V21.0311C10.7119 21.742 11.2898 22.3199 12.0008 22.3199C12.7117 22.3199 13.2897 21.742 13.2897 21.0311V19.623C13.2897 18.912 12.7117 18.3341 12.0008 18.3341Z" fill="#141414"/>
<path d="M8.71561 16.9261V15.518C8.71561 14.8071 8.13766 14.2291 7.42669 14.2291C6.71572 14.2291 6.13777 14.8071 6.13777 15.518V16.9261C6.13777 17.637 6.71572 18.215 7.42669 18.215C8.13766 18.215 8.71561 17.637 8.71561 16.9261Z" fill="#141414"/>
<path d="M8.71561 11.679V7.07394C8.71561 6.36301 8.13766 5.78509 7.42669 5.78509C6.71572 5.78509 6.13777 6.36301 6.13777 7.07394V11.679C6.15153 12.3807 6.7249 12.9403 7.42669 12.9403C8.12849 12.9403 8.70185 12.3761 8.71561 11.679Z" fill="#141414"/>
<path d="M4.25802 11.2983V12.7064C4.25802 13.4173 3.68007 13.9952 2.9691 13.9952C2.25813 13.9952 1.68018 13.4173 1.68018 12.7018V11.2937C1.68018 10.5827 2.25813 10.0048 2.9691 10.0048C3.68007 10.0048 4.25802 10.5827 4.25802 11.2983Z" fill="#141414"/>
<path d="M19.7423 11.2984C19.7423 10.5875 20.3203 10.0096 21.0312 10.0096C21.7422 10.0096 22.3202 10.5875 22.3202 11.2984V12.7432C22.3018 13.4404 21.733 13.9954 21.0312 13.9954C20.3294 13.9954 19.7607 13.4358 19.7423 12.7432V11.2984Z" fill="#141414"/>
<path d="M15.286 8.48205C15.286 9.19298 15.8639 9.7709 16.5749 9.7709C17.2859 9.7709 17.8638 9.19298 17.8638 8.48205V7.07394C17.8638 6.36301 17.2859 5.78509 16.5749 5.78509C15.8639 5.78509 15.286 6.36301 15.286 7.07394V8.48205Z" fill="#141414"/>
<path d="M15.286 12.3533C15.286 11.6423 15.8639 11.0644 16.5749 11.0644C17.2859 11.0644 17.8638 11.6423 17.8638 12.3533V16.9262C17.8638 17.6371 17.2859 18.215 16.5749 18.215C15.8639 18.215 15.286 17.6371 15.286 16.9262V12.3533Z" fill="#141414"/>
<path d="M13.2897 15.7522V8.24844C13.2897 7.53292 12.7117 6.95958 12.0008 6.95958C11.2898 6.95958 10.7119 7.5375 10.7119 8.24844V15.7522C10.7119 16.4632 11.2898 17.0411 12.0008 17.0411C12.7117 17.0411 13.2897 16.4632 13.2897 15.7522Z" fill="#141414"/>
</svg>
