<svg width="24" height="24" viewBox="0 0 24 24" fill="none" xmlns="http://www.w3.org/2000/svg">
<path d="M13.0207 17.9225C12.377 16.6616 11.6218 15.388 10.1487 15.388C9.86707 15.388 9.5858 15.4344 9.3277 15.5516L8.82727 14.5549C9.43712 14.0342 10.4225 13.6213 11.6892 13.6213C13.6598 13.6213 14.671 14.5659 15.4739 15.7718C15.9505 14.7423 16.177 13.3521 16.177 11.6289C16.177 7.32573 14.8247 5.11619 11.6661 5.11619C8.55339 5.11619 7.2085 7.32573 7.2085 11.6289C7.2085 15.9094 8.55339 18.0962 11.6661 18.0962C12.1608 18.0962 12.6089 18.0421 13.0207 17.9225ZM13.7923 19.4243C13.0989 19.6099 12.3841 19.7049 11.6661 19.7068C7.52131 19.7068 3.46313 16.4154 3.46313 11.6289C3.46313 6.79698 7.52131 3.50488 11.6661 3.50488C15.8803 3.50488 19.8996 6.77327 19.8996 11.6289C19.8996 14.3298 18.6332 16.5246 16.7926 17.9432C17.3873 18.83 17.9995 19.4189 18.852 19.4189C19.7824 19.4189 20.1577 18.7035 20.2204 18.1423H21.4321C21.5029 18.8895 21.1273 21.9949 17.7411 21.9949C15.69 21.9949 14.6056 20.8118 13.7923 19.4243Z" fill="#B92B27"/>
</svg>
