<svg width="24" height="24" viewBox="0 0 24 24" fill="none" xmlns="http://www.w3.org/2000/svg">
<path fill-rule="evenodd" clip-rule="evenodd" d="M12.0001 7.07448C14.7091 7.07448 16.9255 9.2792 16.9255 11.9999C16.9255 14.7207 14.7208 16.9254 12.0001 16.9254C9.27935 16.9254 7.07462 14.7207 7.07462 11.9999C7.07462 9.2792 9.29107 7.07448 12.0001 7.07448ZM10.1237 14.6972L14.6973 11.8827L10.1237 9.30266V14.6972Z" fill="#141414"/>
<path fill-rule="evenodd" clip-rule="evenodd" d="M22.3201 11.9999C22.3201 17.6995 17.6996 22.3199 12.0001 22.3199C6.30047 22.3199 1.68005 17.6995 1.68005 11.9999C1.68005 6.30035 6.30047 1.67993 12.0001 1.67993C17.6996 1.67993 22.3201 6.30035 22.3201 11.9999ZM12.0001 6.60539C9.02135 6.60539 6.60553 9.0212 6.60553 11.9999C6.60553 14.9787 9.02135 17.3945 12.0001 17.3945C14.9788 17.3945 17.3946 14.9787 17.3946 11.9999C17.3946 9.0212 14.9788 6.60539 12.0001 6.60539Z" fill="#141414"/>
</svg>
