<svg width="24" height="24" viewBox="0 0 24 24" fill="none" xmlns="http://www.w3.org/2000/svg">
<path d="M3.08733 19.7442H6.37096V11.7696L1.68005 8.25146V18.3369C1.68005 19.1156 2.31098 19.7442 3.08733 19.7442Z" fill="#4285F4"/>
<path d="M17.629 19.7442H20.9127C21.6914 19.7442 22.3199 19.1133 22.3199 18.3369V8.25146L17.629 11.7696" fill="#34A853"/>
<path d="M17.629 5.67152V11.7697L22.3199 8.25152V6.37516C22.3199 4.63483 20.3333 3.6427 18.9425 4.68643" fill="#FBBC04"/>
<path d="M6.37097 11.7696V5.67139L12.0001 9.89321L17.6292 5.67139V11.7696L12.0001 15.9914" fill="#EA4335"/>
<path d="M1.68005 6.37516V8.25152L6.37096 11.7697V5.67152L5.05751 4.68643C3.66431 3.6427 1.68005 4.63483 1.68005 6.37516Z" fill="#C5221F"/>
</svg>
