<svg width="24" height="24" viewBox="0 0 24 24" fill="none" xmlns="http://www.w3.org/2000/svg">
<path d="M6.071 2.00897L15.3727 7.33832L11.2588 11.3917L2.74451 3.00838C2.90587 2.67373 3.14525 2.3803 3.44485 2.15411C3.85369 1.84544 4.35225 1.67892 4.86453 1.67994C5.28869 1.68108 5.70498 1.79461 6.071 2.00897Z" fill="#141414"/>
<path d="M2.52258 3.99677V19.9994L10.6461 11.9953L2.52258 3.99677Z" fill="#141414"/>
<path d="M11.259 12.5988L2.74362 20.989C2.83921 21.1879 2.96266 21.3729 3.11078 21.5383C3.34964 21.805 3.64632 22.0135 3.97813 22.148C4.30995 22.2825 4.66812 22.3393 5.02526 22.3141C5.3824 22.2889 5.72906 22.1825 6.03874 22.0028L15.3969 16.673L11.259 12.5988Z" fill="#141414"/>
<path d="M16.179 16.2362L20.0003 14.0543C20.3706 13.8604 20.6809 13.5688 20.8973 13.2111C21.1138 12.8534 21.2282 12.4433 21.2282 12.0252C21.2282 11.6072 21.1138 11.197 20.8973 10.8394C20.6809 10.4817 20.3706 10.1901 20.0003 9.99617H20.0132L16.1475 7.78218L11.8717 11.9951L16.179 16.2362Z" fill="#141414"/>
</svg>
