<svg width="24" height="24" viewBox="0 0 24 24" fill="none" xmlns="http://www.w3.org/2000/svg">
<path d="M9.52237 1.98121L9.754 2.91946C8.84108 3.14508 7.96732 3.50684 7.16209 3.99258L6.66657 3.16281C7.5529 2.62606 8.51591 2.22761 9.52237 1.98121ZM14.4775 1.98121L14.2459 2.91946C15.1588 3.14508 16.0325 3.50684 16.8378 3.99258L17.3392 3.16281C16.4505 2.62653 15.4856 2.22814 14.4775 1.98121ZM3.1628 6.66365C2.62655 7.55128 2.22814 8.51517 1.9812 9.52238L2.91944 9.75401C3.14507 8.84109 3.50683 7.96733 3.99257 7.1621L3.1628 6.66365ZM2.64677 11.9999C2.64669 11.5308 2.68198 11.0623 2.75232 10.5984L1.79648 10.4518C1.64108 11.4771 1.64108 12.5199 1.79648 13.5451L2.75232 13.4015C2.68209 12.9376 2.64681 12.4691 2.64677 11.9999ZM17.3333 20.8341L16.8378 20.0073C16.0338 20.4935 15.161 20.8553 14.2488 21.0804L14.4804 22.0187C15.4857 21.7699 16.4475 21.3705 17.3333 20.8341ZM21.3531 11.9999C21.3531 12.4691 21.3178 12.9376 21.2475 13.4015L22.2034 13.5451C22.3588 12.5199 22.3588 11.4771 22.2034 10.4518L21.2475 10.5984C21.3179 11.0623 21.3532 11.5308 21.3531 11.9999ZM22.0187 14.4746L21.0804 14.2429C20.8553 15.157 20.4935 16.0318 20.0073 16.8378L20.8371 17.3362C21.3738 16.4478 21.7723 15.4829 22.0187 14.4746ZM13.4014 21.2476C12.4724 21.3883 11.5275 21.3883 10.5984 21.2476L10.4548 22.2034C11.479 22.3588 12.5209 22.3588 13.5451 22.2034L13.4014 21.2476ZM19.5294 17.5473C18.9721 18.3031 18.3039 18.9703 17.5473 19.5265L18.122 20.3064C18.9553 19.6929 19.6925 18.9587 20.3093 18.1279L19.5294 17.5473ZM17.5473 4.4705C18.3039 5.02773 18.9721 5.69594 19.5294 6.45255L20.3093 5.87201C19.6947 5.04043 18.9594 4.3052 18.1279 3.69058L17.5473 4.4705ZM4.47049 6.45255C5.02772 5.69594 5.69593 5.02773 6.45254 4.4705L5.872 3.69058C5.04042 4.3052 4.30518 5.04043 3.69057 5.87201L4.47049 6.45255ZM20.8371 6.66365L20.0073 7.1621C20.4935 7.96606 20.8553 8.83892 21.0804 9.75108L22.0187 9.51945C21.7717 8.51317 21.3733 7.55025 20.8371 6.66365ZM10.5984 2.75233C11.5275 2.61158 12.4724 2.61158 13.4014 2.75233L13.5451 1.79649C12.5209 1.64108 11.479 1.64108 10.4548 1.79649L10.5984 2.75233ZM4.966 20.5644L2.96929 21.0277L3.43548 19.0309L2.4943 18.811L2.02811 20.8078C1.99894 20.9315 1.99446 21.0599 2.01494 21.1854C2.03541 21.3109 2.08043 21.4312 2.14742 21.5393C2.21441 21.6474 2.30206 21.7412 2.40535 21.8155C2.50864 21.8897 2.62555 21.9428 2.74939 21.9718C2.89421 22.004 3.04436 22.004 3.18919 21.9718L5.1859 21.5114L4.966 20.5644ZM2.69368 17.949L3.63779 18.166L3.96031 16.7821C3.48932 15.992 3.13852 15.1363 2.91944 14.2429L1.9812 14.4746C2.19224 15.3297 2.51147 16.1544 2.93117 16.9287L2.69368 17.949ZM7.209 20.0425L5.82508 20.365L6.04498 21.3091L7.0624 21.0716C7.83614 21.4926 8.66099 21.8119 9.5165 22.0216L9.74814 21.0834C8.85759 20.8614 8.00488 20.5087 7.2178 20.0366L7.209 20.0425ZM11.9999 3.61435C7.36733 3.61728 3.61727 7.3732 3.61727 12.0029C3.61982 13.5798 4.06586 15.1241 4.90443 16.4596L4.09812 19.9018L7.53739 19.0954C11.4575 21.5613 16.6355 20.3855 19.1013 16.4684C21.5671 12.5512 20.3943 7.3732 16.4771 4.90444C15.1361 4.06113 13.5841 3.61392 11.9999 3.61435Z" fill="#141414"/>
</svg>
