<svg width="24" height="24" viewBox="0 0 24 24" fill="none" xmlns="http://www.w3.org/2000/svg">
<path d="M8.87058 14.7028L9.83896 14.483C9.85918 14.4784 9.89341 14.4707 9.93386 14.4578C10.2013 14.3874 10.4305 14.2178 10.5732 13.9848C10.7158 13.7519 10.7607 13.4737 10.6985 13.2088L10.6946 13.192C10.6625 13.0651 10.6066 12.9452 10.5297 12.8386C10.4212 12.7035 10.287 12.5904 10.1345 12.5057C9.95501 12.4053 9.76714 12.32 9.57295 12.2507L8.51123 11.8698C7.91542 11.6522 7.31961 11.4407 6.71758 11.2339C6.32789 11.098 5.99732 10.9781 5.7103 10.8903C5.65567 10.8755 5.60147 10.8592 5.54774 10.8415C5.20083 10.7376 4.9566 10.6941 4.75047 10.6926C4.61271 10.6876 4.47549 10.712 4.34834 10.7644C4.21551 10.8208 4.09625 10.904 3.99833 11.0086C3.94974 11.0628 3.90405 11.1194 3.86143 11.1781C3.77856 11.3031 3.71021 11.4367 3.65764 11.5766C3.46038 12.1484 3.36206 12.7486 3.36674 13.3523C3.37063 13.8974 3.3854 14.5975 3.69109 15.0723C3.76498 15.1945 3.86376 15.2998 3.98121 15.3815C4.199 15.5288 4.41835 15.5487 4.6478 15.5647C4.99004 15.5884 5.32062 15.5067 5.65119 15.4311L8.86824 14.7021L8.87058 14.7028ZM19.6745 9.6574C19.4101 9.11282 19.0547 8.61556 18.6229 8.1863C18.5671 8.13171 18.5073 8.08119 18.444 8.03514C18.3855 7.99209 18.3247 7.95208 18.262 7.91529C18.1973 7.88054 18.1309 7.84919 18.0628 7.82139C17.9285 7.76957 17.7846 7.74615 17.6405 7.75268C17.5028 7.76031 17.3682 7.79849 17.2461 7.86185C17.0618 7.95193 16.8619 8.09698 16.5959 8.33898C16.5593 8.37486 16.5134 8.41533 16.4714 8.4535C16.2529 8.6558 16.0086 8.90544 15.7185 9.19554C15.2697 9.64061 14.8287 10.088 14.3892 10.5391L13.6036 11.3392C13.4602 11.4851 13.3295 11.6427 13.2131 11.8102C13.1135 11.952 13.0429 12.1115 13.0055 12.2797C12.9844 12.409 12.9876 12.5409 13.0148 12.6691L13.0187 12.6859C13.0808 12.9504 13.245 13.181 13.4769 13.3291C13.7087 13.4772 13.99 13.5312 14.2616 13.4798C14.2943 13.4753 14.3268 13.4692 14.3589 13.4615L18.5451 12.5118C18.8757 12.437 19.2101 12.3683 19.5065 12.1988C19.7056 12.0866 19.8946 11.9744 20.0245 11.7484C20.0937 11.6239 20.1355 11.4866 20.1474 11.3453C20.2119 10.785 19.914 10.149 19.6745 9.6574ZM12.1802 11.385C12.4835 11.0109 12.4835 10.4536 12.51 9.99712C12.6018 8.47411 12.6974 6.95109 12.7744 5.42732C12.8032 4.85017 12.8662 4.28067 12.8312 3.69894C12.8024 3.21952 12.7993 2.66833 12.4905 2.27441C11.9461 1.5797 10.784 1.63696 9.99141 1.74536C9.74691 1.77851 9.5042 1.82335 9.26416 1.87973C9.02303 1.93622 8.78346 1.99806 8.55012 2.07211C7.78941 2.3164 6.71991 2.76529 6.53946 3.62566C6.43678 4.11195 6.67947 4.60894 6.86614 5.05324C7.09404 5.59069 7.40439 6.07546 7.68752 6.5816C8.43656 7.91834 9.19882 9.24745 9.95875 10.5773C10.1866 10.9743 10.4332 11.4766 10.8727 11.6827C10.9022 11.695 10.9318 11.7056 10.9621 11.7156C11.1589 11.7889 11.3744 11.8026 11.5789 11.756L11.6155 11.7484C11.8053 11.6972 11.9764 11.5957 12.111 11.456C12.1359 11.4331 12.1576 11.4102 12.1802 11.385ZM11.817 15.4624C11.6986 15.299 11.5305 15.1764 11.3369 15.1124C11.1432 15.0484 10.9339 15.0461 10.7389 15.1059C10.693 15.1207 10.6483 15.1388 10.6051 15.1601C10.5383 15.1936 10.4745 15.2326 10.4145 15.2769C10.2433 15.4093 10.0904 15.563 9.95952 15.7342C9.92608 15.7762 9.89496 15.8319 9.85452 15.8685L9.18093 16.777C8.7998 17.287 8.42255 17.7977 8.04998 18.3161C7.80575 18.6512 7.59573 18.9344 7.4285 19.1841C7.39739 19.2314 7.36472 19.2833 7.33517 19.3261C7.13527 19.6284 7.02248 19.8498 6.96415 20.0467C6.92057 20.1776 6.90676 20.3162 6.9237 20.4529C6.94237 20.5949 6.99137 20.7315 7.06682 20.8544C7.10726 20.9155 7.15082 20.975 7.19749 21.0323C7.29829 21.1462 7.41179 21.2486 7.53584 21.3377C8.00098 21.6552 8.50967 21.8835 9.04481 22.0598C9.4905 22.2049 9.9533 22.2919 10.4215 22.3179C10.5017 22.3217 10.5818 22.3202 10.6611 22.3133C10.7347 22.3066 10.8079 22.2964 10.8805 22.2828C10.9531 22.2662 11.0247 22.2458 11.0951 22.2217C11.232 22.1714 11.3566 22.0933 11.4607 21.9927C11.5595 21.8957 11.6357 21.7789 11.6832 21.6499C11.761 21.459 11.8123 21.2178 11.8465 20.859C11.8488 20.8078 11.8566 20.7468 11.8621 20.691C11.8885 20.3933 11.901 20.0421 11.9196 19.6314C11.9531 18.9986 11.9787 18.3687 11.999 17.7374L12.0425 16.6136C12.0526 16.3556 12.0441 16.0686 11.971 15.8113C11.9388 15.6877 11.8868 15.5699 11.817 15.4624ZM19.4186 17.2206C19.2786 17.0686 19.0794 16.9182 18.7652 16.732C18.7201 16.7068 18.6664 16.674 18.6174 16.6449C18.3561 16.49 18.0411 16.3281 17.6731 16.1319C17.1077 15.8266 16.5422 15.5304 15.9705 15.2357L14.9617 14.7104C14.9096 14.6952 14.8567 14.6585 14.8069 14.6349C14.6129 14.5376 14.4069 14.4655 14.194 14.4204C14.1206 14.4065 14.0462 14.3988 13.9715 14.3974C13.9232 14.3972 13.8748 14.4 13.8268 14.4058C13.6249 14.4365 13.4379 14.5289 13.2927 14.67C13.1474 14.811 13.0512 14.9935 13.0179 15.1914C13.0031 15.3174 13.0078 15.4449 13.0327 15.5685C13.0817 15.8327 13.2015 16.093 13.3259 16.3213L13.8642 17.3129C14.1644 17.8718 14.4678 18.4275 14.7789 18.9818C14.9796 19.3429 15.1468 19.652 15.3031 19.9085C15.3327 19.9566 15.3661 20.0086 15.3918 20.0536C15.5824 20.3612 15.7348 20.5552 15.8896 20.6949C15.9927 20.7922 16.1165 20.8659 16.252 20.9108C16.3876 20.9557 16.5315 20.9706 16.6737 20.9544C16.7477 20.9456 16.8211 20.9328 16.8938 20.9163C17.0426 20.8772 17.1864 20.8216 17.3224 20.7506C17.7318 20.5254 18.1091 20.2481 18.4447 19.9261C18.8477 19.5368 19.2039 19.1123 19.4808 18.6268C19.5197 18.5581 19.5524 18.4871 19.5804 18.413C19.6064 18.3452 19.629 18.2762 19.648 18.2061C19.6644 18.1344 19.6768 18.0626 19.6854 17.9901C19.6993 17.8475 19.6826 17.7037 19.6364 17.5679C19.5907 17.4376 19.5163 17.3195 19.4186 17.2206Z" fill="#FF1A1A"/>
</svg>
