<svg width="24" height="24" viewBox="0 0 24 24" fill="none" xmlns="http://www.w3.org/2000/svg">
<path fill-rule="evenodd" clip-rule="evenodd" d="M7.65443 5.1926C8.21213 5.18224 8.76903 5.23942 9.31299 5.36288C9.77098 5.46287 10.2058 5.64894 10.5944 5.91119C10.9532 6.17197 11.2372 6.52257 11.4177 6.92778C11.6252 7.42606 11.7252 7.96248 11.7114 8.50205C11.735 9.09451 11.5837 9.6808 11.2764 10.1879C10.953 10.6668 10.5061 11.0492 9.98305 11.2947C10.6929 11.4861 11.3112 11.9244 11.7268 12.531C12.1257 13.1736 12.3262 13.9196 12.3032 14.6757C12.3163 15.2785 12.1917 15.8763 11.9388 16.4236C11.705 16.9011 11.3626 17.3172 10.9392 17.6386C10.5032 17.9565 10.0126 18.1917 9.49179 18.3325C8.95165 18.4819 8.39366 18.557 7.83323 18.5556H1.68005V5.1926H7.65443ZM7.29939 10.5974C7.73758 10.6155 8.16893 10.4843 8.52288 10.2253C8.69239 10.0744 8.82425 9.88595 8.90793 9.67499C8.9916 9.46403 9.02477 9.23642 9.00478 9.01035C9.01612 8.74631 8.96355 8.48344 8.85152 8.24407C8.75649 8.05349 8.60874 7.89421 8.42582 7.78516C8.24054 7.66512 8.03239 7.58482 7.8145 7.54932C7.57809 7.50352 7.33752 7.48269 7.09676 7.48716H4.46759V10.6093H7.29939V10.5974ZM7.45265 16.2866C7.71765 16.2901 7.9821 16.2615 8.24021 16.2014C8.47608 16.1493 8.69978 16.0525 8.8992 15.9162C9.09457 15.78 9.25241 15.5966 9.35812 15.3832C9.48068 15.1111 9.537 14.8137 9.52244 14.5156C9.54901 14.2439 9.51303 13.9698 9.41725 13.7142C9.32147 13.4586 9.16843 13.2283 8.96987 13.041C8.54902 12.731 8.03326 12.5774 7.5114 12.6067H4.46759V16.2866H7.45265Z" fill="#141414"/>
<path fill-rule="evenodd" clip-rule="evenodd" d="M16.2733 16.2371C16.4921 16.4399 16.7498 16.5961 17.0308 16.6962C17.3118 16.7963 17.6103 16.8383 17.908 16.8195C18.38 16.8314 18.8428 16.6878 19.2251 16.4108C19.5362 16.2085 19.7717 15.9092 19.8952 15.5594H22.1183C21.8814 16.5554 21.303 17.4369 20.4835 18.0506C19.6974 18.5724 18.7684 18.8366 17.8254 18.8067C17.1524 18.8155 16.4844 18.689 15.8612 18.4346C15.2975 18.1995 14.7919 17.8441 14.3797 17.3933C13.9692 16.9209 13.6537 16.3737 13.4508 15.7816C13.2231 15.1198 13.1116 14.4236 13.1213 13.7237C13.1172 13.0356 13.2324 12.352 13.4619 11.7033C13.7702 10.7907 14.3597 9.99919 15.1458 9.44241C15.9319 8.88562 16.8741 8.59217 17.8373 8.60415C18.5485 8.58929 19.2517 8.75572 19.8807 9.08776C20.4493 9.39955 20.9398 9.8362 21.3154 10.3649C21.6995 10.9196 21.9748 11.5423 22.1268 12.1997C22.2934 12.9057 22.3528 13.6327 22.303 14.3563H15.6816C15.6279 15.0362 15.84 15.7104 16.2733 16.2371ZM19.1783 11.155C18.993 10.9697 18.7702 10.8262 18.5247 10.7343C18.2793 10.6423 18.0171 10.604 17.7556 10.622C17.4087 10.6088 17.0644 10.6856 16.756 10.8451C16.5116 10.9796 16.2958 11.1607 16.1209 11.3781C15.9658 11.5819 15.8503 11.8129 15.7803 12.0592C15.7172 12.2646 15.6778 12.4766 15.6628 12.691H19.7641C19.7284 12.1321 19.5248 11.5971 19.18 11.1558L19.1783 11.155Z" fill="#141414"/>
<path d="M15.1341 6.08483H20.2733V7.39857H15.1341V6.08483Z" fill="#141414"/>
</svg>
