<svg width="24" height="24" viewBox="0 0 24 24" fill="none" xmlns="http://www.w3.org/2000/svg">
<path d="M7.50125 17.6993C10.716 17.6993 13.3223 15.0705 13.3223 11.8276C13.3223 8.58482 10.7162 5.95581 7.50125 5.95581C4.28628 5.95581 1.68005 8.58541 1.68005 11.8276C1.68005 15.0699 4.28648 17.6993 7.50125 17.6993Z" fill="#141414"/>
<path d="M19.7081 11.8276C19.7081 14.8801 18.405 17.3555 16.7975 17.3555C15.19 17.3555 13.8869 14.8801 13.8869 11.8276C13.8869 8.77523 15.1898 6.29978 16.7973 6.29978C18.4048 6.29978 19.7081 8.77444 19.7081 11.8276Z" fill="#141414"/>
<path d="M22.32 11.8276C22.32 14.5619 21.8618 16.7797 21.2964 16.7797C20.7309 16.7797 20.2729 14.5624 20.2729 11.8276C20.2729 9.09283 20.7311 6.87554 21.2964 6.87554C21.8616 6.87554 22.32 9.09264 22.32 11.8276Z" fill="#141414"/>
</svg>
