<svg width="24" height="24" viewBox="0 0 24 24" fill="none" xmlns="http://www.w3.org/2000/svg">
<path fill-rule="evenodd" clip-rule="evenodd" d="M21.2454 5.83725C21.5656 6.15955 21.7956 6.5603 21.9123 6.9994C22.3439 8.62011 22.3439 11.9999 22.3439 11.9999C22.3439 11.9999 22.3439 15.3797 21.9123 17.0004C21.7956 17.4395 21.5656 17.8403 21.2454 18.1626C20.9251 18.4849 20.5259 18.7174 20.0875 18.8369C18.4739 19.2708 12.0239 19.2708 12.0239 19.2708C12.0239 19.2708 5.57386 19.2708 3.96018 18.8369C3.52184 18.7174 3.12256 18.4849 2.80232 18.1626C2.48209 17.8403 2.25211 17.4395 2.13542 17.0004C1.70386 15.3797 1.70386 11.9999 1.70386 11.9999C1.70386 11.9999 1.70386 8.62011 2.13542 6.9994C2.25211 6.5603 2.48209 6.15955 2.80232 5.83725C3.12256 5.51495 3.52184 5.28241 3.96018 5.16291C5.57386 4.729 12.0239 4.729 12.0239 4.729C12.0239 4.729 18.4739 4.729 20.0875 5.16291C20.5259 5.28241 20.9251 5.51495 21.2454 5.83725ZM15.3075 11.9999L9.91296 8.93091V15.069L15.3075 11.9999Z" fill="#141414"/>
</svg>
