<svg width="24" height="24" viewBox="0 0 24 24" fill="none" xmlns="http://www.w3.org/2000/svg">
<path d="M12.0001 22.3199C17.6996 22.3199 22.3201 17.6995 22.3201 11.9999C22.3201 6.30035 17.6996 1.67993 12.0001 1.67993C6.30048 1.67993 1.68005 6.30035 1.68005 11.9999C1.68005 17.6995 6.30048 22.3199 12.0001 22.3199Z" fill="url(#paint0_linear_1314_35733)"/>
<path fill-rule="evenodd" clip-rule="evenodd" d="M6.35139 11.8912C9.35988 10.5805 11.366 9.71637 12.3698 9.29886C15.2358 8.10681 15.8313 7.89973 16.2194 7.8929C16.3048 7.89139 16.4957 7.91255 16.6193 8.01288C16.7237 8.0976 16.7525 8.21204 16.7662 8.29236C16.78 8.37268 16.7971 8.55565 16.7835 8.69862C16.6282 10.3305 15.9561 14.2905 15.6143 16.1182C15.4696 16.8915 15.1848 17.1508 14.909 17.1762C14.3097 17.2314 13.8546 16.7802 13.2741 16.3997C12.3659 15.8043 11.8527 15.4336 10.9711 14.8526C9.95216 14.1812 10.6127 13.8121 11.1933 13.209C11.3453 13.0512 13.9859 10.6494 14.037 10.4315C14.0434 10.4043 14.0493 10.3027 13.9889 10.2491C13.9286 10.1955 13.8395 10.2138 13.7753 10.2284C13.6842 10.2491 12.2332 11.2081 9.42223 13.1056C9.01037 13.3884 8.63731 13.5262 8.30307 13.519C7.93459 13.511 7.22579 13.3106 6.69887 13.1394C6.05258 12.9293 5.53892 12.8182 5.58365 12.4614C5.60694 12.2756 5.86286 12.0855 6.35139 11.8912Z" fill="white"/>
<defs>
<linearGradient id="paint0_linear_1314_35733" x1="1033.68" y1="1.67993" x2="1033.68" y2="2050.37" gradientUnits="userSpaceOnUse">
<stop stop-color="#2AABEE"/>
<stop offset="1" stop-color="#229ED9"/>
</linearGradient>
</defs>
</svg>
