<svg width="24" height="24" viewBox="0 0 24 24" fill="none" xmlns="http://www.w3.org/2000/svg">
<path d="M11.1207 1.82373C9.25026 1.99274 7.45556 2.67292 5.9371 3.79809C4.17021 5.10733 2.87088 6.94974 2.23072 9.05359C1.59057 11.1574 1.6435 13.4113 2.38169 15.4828C3.11989 17.5543 4.50428 19.3337 6.33066 20.5585C8.15705 21.7834 10.3287 22.3888 12.5254 22.2856C14.7221 22.1824 16.8273 21.3759 18.5308 19.9853C20.2343 18.5945 21.4457 16.6932 21.9865 14.5616C22.493 12.5648 22.3857 10.4652 21.6841 8.53515L21.6859 8.552L19.0867 10.6415C19.2935 11.6834 19.2677 12.7642 19.0037 13.805C18.6251 15.297 17.7772 16.628 16.5848 17.6016C15.3923 18.575 13.9186 19.1396 12.3809 19.2119C10.8433 19.284 9.32311 18.8602 8.04464 18.0029C6.76616 17.1455 5.7971 15.8998 5.28036 14.4498C4.76362 12.9998 4.72657 11.4221 5.17468 9.94937C5.62278 8.47667 6.53233 7.18699 7.76914 6.27052C8.7569 5.5386 9.91164 5.07568 11.1207 4.91893V1.82373Z" fill="#141414"/>
<path d="M19.7369 5.26999L19.7261 5.24272C18.2564 3.58292 16.257 2.4029 13.9928 1.96739V9.14731C13.4364 8.77169 12.7657 8.55237 12.0439 8.55237C10.1178 8.55237 8.55637 10.1138 8.55637 12.0399C8.55637 13.966 10.1178 15.5274 12.0439 15.5274C13.97 15.5274 15.5314 13.966 15.5314 12.0399V5.76206C16.522 6.31353 17.3684 7.09263 18.0001 8.02865L19.7369 5.26999Z" fill="#141414"/>
</svg>
