<svg width="24" height="24" viewBox="0 0 24 24" fill="none" xmlns="http://www.w3.org/2000/svg">
<path d="M1.68005 11.5871C1.68005 6.91684 1.68005 4.58169 3.13093 3.13081C4.58181 1.67993 6.91696 1.67993 11.5873 1.67993H12.4129C17.0831 1.67993 19.4183 1.67993 20.8692 3.13081C22.3201 4.58169 22.3201 6.91684 22.3201 11.5871V12.4127C22.3201 17.083 22.3201 19.4182 20.8692 20.8691C19.4183 22.3199 17.0831 22.3199 12.4129 22.3199H11.5873C6.91696 22.3199 4.58181 22.3199 3.13093 20.8691C1.68005 19.4182 1.68005 17.083 1.68005 12.4127V11.5871Z" fill="#0077FF"/>
<path d="M12.6623 16.5494C7.95807 16.5494 5.27489 13.3244 5.16309 7.95801H7.51949C7.59689 11.8968 9.33406 13.5652 10.71 13.9092V7.95801H12.9289V11.355C14.2877 11.2088 15.7151 9.66081 16.1968 7.95801H18.4156C18.0458 10.0564 16.4978 11.6044 15.397 12.2408C16.4978 12.7568 18.2609 14.107 18.9317 16.5494H16.4892C15.9646 14.9154 14.6575 13.6512 12.9289 13.4792V16.5494H12.6623Z" fill="white"/>
</svg>
