<svg width="24" height="24" viewBox="0 0 24 24" fill="none" xmlns="http://www.w3.org/2000/svg">
<path d="M12 1.67383C17.6996 1.67383 22.32 6.29425 22.32 11.9938C22.32 17.2701 18.3602 21.621 13.2503 22.2382V15.1474L16.0421 15.1474L16.6212 11.9938H13.2503V10.8785C13.2503 10.0452 13.4138 9.46834 13.7887 9.09978C14.1637 8.73122 14.7502 8.57097 15.5963 8.57097C15.8105 8.57097 16.0076 8.5731 16.1825 8.57736C16.4368 8.58355 16.6442 8.59425 16.7886 8.60944V5.75064C16.7309 5.73461 16.6628 5.71859 16.5865 5.70281C16.4136 5.66707 16.1988 5.63262 15.9678 5.60236C15.4851 5.53913 14.932 5.49421 14.5451 5.49421C12.9825 5.49421 11.8016 5.82851 10.9773 6.52095C9.98239 7.35663 9.50698 8.71397 9.50698 10.6349V11.9938H7.37892V15.1474H9.50698V22.0099C5.01197 20.8947 1.68005 16.8337 1.68005 11.9938C1.68005 6.29425 6.30048 1.67383 12 1.67383Z" fill="#141414"/>
</svg>
