<svg width="24" height="24" viewBox="0 0 24 24" fill="none" xmlns="http://www.w3.org/2000/svg">
<path d="M5.93722 3.79833C7.45569 2.67316 9.25038 1.99299 11.1209 1.82397V4.91917C9.91176 5.07592 8.75702 5.53885 7.76926 6.27077C6.53245 7.18723 5.6229 8.47692 5.1748 9.94961C4.72669 11.4223 4.76374 13 5.28048 14.45C5.79722 15.9001 6.76629 17.1457 8.04476 18.0031C9.32323 18.8605 10.8434 19.2843 12.3811 19.2121C13.9187 19.1398 15.3924 18.5753 16.5849 17.6018C17.7773 16.6282 18.6253 15.2973 19.0038 13.8052C19.2679 12.7644 19.2936 11.6837 19.0869 10.6418L21.686 8.55225L21.6842 8.5354C22.3859 10.4654 22.4931 12.5651 21.9866 14.5619C21.4458 16.6934 20.2344 18.5948 18.5309 19.9855C16.8275 21.3762 14.7222 22.1826 12.5255 22.2858C10.3288 22.389 8.15717 21.7836 6.33078 20.5587C4.5044 19.3339 3.12001 17.5545 2.38182 15.483C1.64362 13.4116 1.59069 11.1577 2.23084 9.05384C2.871 6.94998 4.17034 5.10757 5.93722 3.79833Z" fill="#FCCA00"/>
<path d="M19.7262 5.24286L19.7371 5.27013L18.0002 8.02879C17.3685 7.09277 16.5221 6.31367 15.5315 5.7622V12.04C15.5315 13.9661 13.9701 15.5276 12.044 15.5276C10.1179 15.5276 8.55652 13.9661 8.55652 12.04C8.55652 10.1139 10.1179 8.55251 12.044 8.55251C12.7659 8.55251 13.4365 8.77183 13.9929 9.14745V1.96753C16.2572 2.40304 18.2565 3.58306 19.7262 5.24286Z" fill="#FC3F1D"/>
</svg>
