<svg width="24" height="24" viewBox="0 0 24 24" fill="none" xmlns="http://www.w3.org/2000/svg">
<path d="M1.91359 13.0919C1.87069 13.0919 1.83647 13.125 1.83104 13.1728L1.68005 14.3193L1.83104 15.4457C1.83158 15.493 1.87069 15.5261 1.91359 15.5261C1.95541 15.5261 1.98909 15.4935 1.99615 15.4457L2.17483 14.3188L1.99615 13.1722C1.98963 13.125 1.95541 13.0919 1.91359 13.0919ZM2.76248 12.4656C2.75542 12.4162 2.72012 12.3825 2.67667 12.3825C2.63322 12.3825 2.59683 12.4179 2.59086 12.4656C2.59086 12.4657 2.38773 14.3193 2.38773 14.3193L2.59086 16.1317C2.59683 16.1806 2.63268 16.2153 2.67667 16.2153C2.72012 16.2153 2.75542 16.1811 2.76248 16.1322L2.99331 14.3193L2.76248 12.4656ZM5.95926 10.7559C5.87616 10.7559 5.80718 10.8238 5.80338 10.9107L5.64153 14.3209L5.80338 16.5249C5.80773 16.6112 5.87616 16.6791 5.95926 16.6791C6.04181 16.6791 6.11079 16.6112 6.11567 16.5249V16.5249L6.29816 14.321L6.11567 10.9108C6.11079 10.8244 6.04235 10.756 5.95926 10.756V10.7559ZM4.30439 11.941C4.2403 11.941 4.18816 11.9921 4.18327 12.06L4.00133 14.3194L4.18327 16.5027C4.18816 16.5706 4.2403 16.6216 4.30439 16.6216C4.36739 16.6216 4.42007 16.5706 4.4255 16.5027L4.63243 14.3194L4.4255 12.0594C4.42496 11.9916 4.36793 11.9405 4.30439 11.9405V11.941ZM7.64074 16.6776C7.74393 16.6776 7.82812 16.5945 7.83192 16.488L7.99051 14.3215L7.83246 9.78162C7.82812 9.67517 7.74448 9.59208 7.64128 9.59208C7.53701 9.59208 7.45282 9.67572 7.44956 9.78217L7.3089 14.3215L7.44956 16.4891C7.45282 16.595 7.53701 16.6781 7.64074 16.6781V16.6776ZM11.083 16.6879C11.2253 16.6879 11.3421 16.5711 11.3448 16.4272V16.4288V16.4272L11.4556 14.3226L11.3448 9.07938C11.3421 8.93599 11.2248 8.81868 11.083 8.81868C10.9407 8.81868 10.8234 8.93545 10.8212 9.07992L10.7224 14.3215C10.7224 14.3248 10.8212 16.4294 10.8212 16.4294C10.8234 16.5716 10.9413 16.689 11.083 16.689V16.6879ZM9.34884 16.6808C9.47267 16.6808 9.57206 16.5814 9.57532 16.4549V16.4565L9.71001 14.3226L9.57532 9.74958C9.57206 9.62303 9.47213 9.52419 9.34884 9.52419C9.22446 9.52419 9.12453 9.62303 9.12182 9.74958L9.00233 14.3226L9.12236 16.456C9.12507 16.5809 9.22446 16.6803 9.34938 16.6803L9.34884 16.6808ZM5.12938 16.6602C5.2027 16.6602 5.26244 16.6015 5.26787 16.5239L5.46285 14.3199L5.26787 12.2229C5.26733 12.1453 5.20324 12.0871 5.12938 12.0871C5.05497 12.0871 4.99523 12.1458 4.99088 12.224L4.81926 14.3199L4.99088 16.5239C4.99577 16.6015 5.05497 16.6602 5.12938 16.6602ZM3.48917 16.5396C3.54294 16.5396 3.58639 16.4972 3.59236 16.4386L3.81124 14.3194L3.59236 12.1203C3.58584 12.0616 3.5424 12.0193 3.48863 12.0193C3.43432 12.0193 3.39087 12.0616 3.38544 12.1203L3.19263 14.3194L3.38544 16.438C3.38598 16.4967 3.43432 16.5396 3.48863 16.5396H3.48917ZM10.214 9.673C10.0799 9.673 9.97233 9.78 9.96962 9.91632L9.86045 14.3221L9.96962 16.4424C9.97233 16.5771 10.0799 16.6841 10.214 16.6841C10.3482 16.6841 10.4552 16.5776 10.4584 16.4408V16.4424L10.5812 14.3221L10.4584 9.91523C10.4552 9.77891 10.3482 9.67246 10.214 9.67246V9.673ZM6.79837 16.6819C6.89124 16.6819 6.96782 16.6064 6.97217 16.5097L7.1427 14.321L6.97217 10.1308C6.96728 10.0342 6.89124 9.95868 6.79837 9.95868C6.70495 9.95868 6.62837 10.0342 6.62457 10.1308L6.47359 14.321L6.62457 16.5097C6.62837 16.6053 6.70495 16.6808 6.79837 16.6808V16.6819ZM8.70199 16.4744V16.4733L8.84863 14.3204L8.70199 9.62738C8.69873 9.51061 8.6064 9.41937 8.49289 9.41937C8.37883 9.41937 8.28705 9.51061 8.28379 9.62738L8.15399 14.3199L8.28433 16.4739C8.28759 16.5896 8.37938 16.6803 8.49343 16.6803C8.60694 16.6803 8.69873 16.589 8.70253 16.4728L8.70199 16.4744ZM19.7815 11.6152C19.4339 11.6152 19.1021 11.6858 18.7996 11.8123C18.5975 9.52419 16.6793 7.72974 14.339 7.72974C13.7665 7.72974 13.2082 7.8427 12.7151 8.03334C12.5233 8.1072 12.4723 8.18378 12.4707 8.33205V16.3892C12.4728 16.5445 12.5934 16.6738 12.7449 16.6895C12.7515 16.6896 19.7365 16.6938 19.7815 16.6938C21.1833 16.6938 22.3201 15.5571 22.3201 14.1553C22.3201 12.753 21.1839 11.6163 19.7815 11.6163V11.6152ZM11.9514 8.32499C11.7988 8.32499 11.6739 8.44991 11.6717 8.60415L11.5571 14.3226L11.6717 16.3979C11.6739 16.5494 11.7988 16.6743 11.9514 16.6743C12.1035 16.6743 12.2284 16.5494 12.2311 16.3957V16.3984L12.3555 14.3226L12.2311 8.60361C12.229 8.45045 12.1035 8.32499 11.9514 8.32499Z" fill="#141414"/>
</svg>
