<svg width="24" height="24" viewBox="0 0 24 24" fill="none" xmlns="http://www.w3.org/2000/svg">
<path fill-rule="evenodd" clip-rule="evenodd" d="M12 2.57227C17.6996 2.57227 22.3201 6.2721 22.3201 10.8361C22.3201 12.4303 21.7559 13.9187 20.7793 15.1811C20.731 15.2529 20.6679 15.3323 20.5883 15.42L20.5822 15.4266C20.2486 15.8257 19.873 16.2004 19.4599 16.5463C16.6061 19.1841 11.9087 22.3247 11.2887 21.8401C10.7497 21.419 12.1763 19.359 10.5304 19.0161C10.4156 19.0029 10.3011 18.9888 10.1875 18.9727L10.1854 18.9726V18.9724C5.35115 18.2856 1.68005 14.9042 1.68005 10.8361C1.6799 6.2721 6.3004 2.57227 12 2.57227Z" fill="#3ACE01"/>
<path fill-rule="evenodd" clip-rule="evenodd" d="M6.01258 13.4718H8.09397C8.39003 13.4718 8.63219 13.2296 8.63219 12.9335V12.8886C8.63219 12.5925 8.39003 12.3504 8.09397 12.3504H6.5957V8.94154C6.5957 8.64547 6.35355 8.40332 6.05748 8.40332H6.01258C5.71652 8.40332 5.47437 8.64547 5.47437 8.94154V12.9334C5.47437 13.2296 5.71652 13.4718 6.01258 13.4718ZM18.9099 10.9696V10.9247C18.9099 10.6286 18.6677 10.3865 18.3716 10.3865H16.8734V9.53426H18.3716C18.6677 9.53426 18.9099 9.29211 18.9099 8.99605V8.95114C18.9099 8.65508 18.6677 8.41293 18.3716 8.41293H16.2902C15.9942 8.41293 15.752 8.65508 15.752 8.95114V12.943C15.752 13.2391 15.9942 13.4813 16.2902 13.4813H18.3716C18.6677 13.4813 18.9099 13.2391 18.9099 12.943V12.8981C18.9099 12.6021 18.6677 12.3599 18.3716 12.3599H16.8734V11.5077H18.3716C18.6677 11.5078 18.9099 11.2656 18.9099 10.9696ZM14.9072 13.3113L14.9073 13.3111C15.0069 13.2107 15.0629 13.075 15.063 12.9336V8.94169C15.063 8.64562 14.8208 8.40347 14.5247 8.40347H14.4798C14.1837 8.40347 13.9415 8.64562 13.9415 8.94169V11.285L11.9961 8.67563C11.9032 8.51338 11.7282 8.40347 11.5288 8.40347H11.4839C11.1878 8.40347 10.9456 8.64562 10.9456 8.94169V12.9336C10.9456 13.2296 11.1878 13.4719 11.4839 13.4719H11.5288C11.8249 13.4719 12.067 13.2296 12.067 12.9336V10.5464L14.0264 13.2227C14.0385 13.2415 14.0517 13.2595 14.0659 13.2766L14.066 13.2768C14.1198 13.3502 14.1934 13.4005 14.2755 13.4313C14.3386 13.4573 14.4075 13.4718 14.4797 13.4718H14.5246C14.6123 13.4718 14.6987 13.4502 14.776 13.4089C14.8299 13.3833 14.8752 13.3503 14.9072 13.3113ZM9.60482 13.4718H9.64972C9.94579 13.4718 10.1879 13.2296 10.1879 12.9335V8.94161C10.1879 8.64555 9.94579 8.4034 9.64972 8.4034H9.60482C9.30876 8.4034 9.06653 8.64555 9.06653 8.94161V12.9335C9.06653 13.2296 9.30876 13.4718 9.60482 13.4718Z" fill="white"/>
</svg>
