<svg width="24" height="24" viewBox="0 0 24 24" fill="none" xmlns="http://www.w3.org/2000/svg">
<path fill-rule="evenodd" clip-rule="evenodd" d="M3.13093 3.13081C1.68005 4.58169 1.68005 6.91684 1.68005 11.5871V12.4127C1.68005 17.083 1.68005 19.4182 3.13093 20.8691C4.58181 22.3199 6.91696 22.3199 11.5873 22.3199H12.4129C17.0831 22.3199 19.4183 22.3199 20.8692 20.8691C22.3201 19.4182 22.3201 17.083 22.3201 12.4127V11.5871C22.3201 6.91684 22.3201 4.58169 20.8692 3.13081C19.4183 1.67993 17.0831 1.67993 12.4129 1.67993H11.5873C6.91696 1.67993 4.58181 1.67993 3.13093 3.13081ZM5.1631 7.95797C5.2749 13.3244 7.95808 16.5494 12.6623 16.5494H12.9289V13.4792C14.6575 13.6512 15.9646 14.9154 16.4892 16.5494H18.9317C18.2609 14.107 16.4978 12.7568 15.397 12.2408C16.4978 11.6044 18.0458 10.0564 18.4156 7.95797H16.1968C15.7152 9.66077 14.2877 11.2088 12.9289 11.3549V7.95797H10.7101V13.9092C9.33407 13.5652 7.5969 11.8968 7.5195 7.95797H5.1631Z" fill="#141414"/>
</svg>
