<svg width="24" height="24" viewBox="0 0 24 24" fill="none" xmlns="http://www.w3.org/2000/svg">
<path d="M17.4999 7.71896C16.8165 7.72029 16.2608 7.16691 16.2594 6.48345C16.2581 5.79998 16.8115 5.24426 17.4952 5.24293C18.179 5.24159 18.7347 5.7953 18.7361 6.47876C18.7371 7.16222 18.1837 7.71762 17.4999 7.71896Z" fill="#141414"/>
<path fill-rule="evenodd" clip-rule="evenodd" d="M12.0099 17.2984C9.08387 17.3041 6.70684 14.9367 6.70117 12.01C6.69547 9.08387 9.06346 6.70647 11.9895 6.70079C14.9163 6.6951 17.2936 9.0638 17.2993 11.9896C17.305 14.9163 14.9363 17.2927 12.0099 17.2984ZM11.9932 8.56023C10.094 8.56358 8.55656 10.1067 8.55991 12.0063C8.56358 13.9062 10.107 15.4433 12.0062 15.4396C13.9061 15.4359 15.4436 13.8932 15.4399 11.9932C15.4362 10.0933 13.8928 8.55656 11.9932 8.56023Z" fill="#141414"/>
<path fill-rule="evenodd" clip-rule="evenodd" d="M5.22257 2.2359C5.87794 1.9791 6.62792 1.80322 7.72599 1.7514C8.82675 1.69857 9.17816 1.68653 11.9802 1.68118C14.7828 1.67583 15.1343 1.68653 16.235 1.73534C17.3334 1.78282 18.0837 1.95603 18.7404 2.21016C19.4199 2.47197 19.9963 2.8244 20.5708 3.39652C21.1452 3.96929 21.499 4.54375 21.7641 5.22219C22.0206 5.87823 22.1965 6.62756 22.2486 7.72631C22.3008 8.82673 22.3135 9.17782 22.3188 11.9802C22.3242 14.7822 22.3128 15.134 22.2647 16.2354C22.2169 17.3332 22.044 18.0838 21.7899 18.7402C21.5274 19.4197 21.1756 19.9961 20.6035 20.5706C20.0314 21.1454 19.4563 21.4988 18.7779 21.7643C18.1218 22.0204 17.3725 22.1963 16.2745 22.2488C15.1737 22.301 14.8223 22.3133 12.0193 22.3187C9.2176 22.324 8.86619 22.3133 7.76546 22.2648C6.66704 22.2167 5.91639 22.0438 5.26002 21.79C4.58059 21.5272 4.00414 21.1758 3.42968 20.6033C2.85491 20.0309 2.50083 19.4561 2.23601 18.7777C1.97921 18.122 1.80399 17.3723 1.7515 16.2745C1.699 15.1735 1.68664 14.8217 1.68129 12.0197C1.67592 9.21728 1.68697 8.86619 1.73511 7.76543C1.7836 6.66668 1.9558 5.91634 2.20993 5.2593C2.4724 4.58019 2.82415 4.00407 3.39693 3.42928C3.96903 2.85483 4.54414 2.50039 5.22257 2.2359ZM5.92978 20.0563C6.2939 20.1964 6.84025 20.3636 7.84637 20.4074C8.93507 20.4545 9.26107 20.4649 12.0159 20.4596C14.7718 20.4545 15.0978 20.4428 16.1862 20.3917C17.1913 20.3439 17.7377 20.1747 18.1008 20.0329C18.5826 19.8446 18.9257 19.6196 19.2861 19.2588C19.6466 18.8967 19.8696 18.5526 20.0562 18.0708C20.1966 17.7063 20.3635 17.1596 20.4073 16.1535C20.4551 15.0655 20.4651 14.7391 20.4597 11.9835C20.4547 9.22864 20.443 8.9023 20.3912 7.81391C20.3437 6.80845 20.1749 6.26208 20.0328 5.89929C19.8445 5.41679 19.6201 5.0744 19.2584 4.71361C18.8966 4.35282 18.5525 4.13046 18.07 3.94388C17.7065 3.80311 17.1595 3.63659 16.1541 3.59279C15.0654 3.54497 14.739 3.53527 11.9835 3.54063C9.22864 3.54598 8.90264 3.55701 7.81427 3.60851C6.80849 3.65631 6.26279 3.82517 5.899 3.96729C5.4175 4.15553 5.07444 4.37923 4.71367 4.74136C4.35354 5.10348 4.13052 5.44688 3.94395 5.92972C3.80419 6.29352 3.63599 6.84055 3.59287 7.84602C3.54538 8.93473 3.53536 9.26108 3.5407 12.016C3.54572 14.7715 3.55742 15.0979 3.60858 16.1856C3.65573 17.1917 3.82591 17.7374 3.96736 18.1016C4.1556 18.5827 4.37997 18.9258 4.74142 19.2866C5.10355 19.646 5.44761 19.8697 5.92978 20.0563Z" fill="#141414"/>
</svg>
