<svg width="24" height="24" viewBox="0 0 24 24" fill="none" xmlns="http://www.w3.org/2000/svg">
<path d="M22.3201 17.516H1.68005C2.01035 14.0176 4.01009 11.0292 6.96251 9.42941L5.25037 6.4635C5.15376 6.29723 5.20993 6.08602 5.3762 5.98941C5.54247 5.89279 5.75368 5.94896 5.8503 6.11523L7.5849 9.11934C8.90832 8.51492 10.398 8.17789 12.0001 8.17789C13.6021 8.17789 15.0918 8.51492 16.4152 9.11934L18.1498 6.11523C18.2442 5.94896 18.4576 5.89279 18.6217 5.98941C18.7857 6.08602 18.8441 6.29723 18.7475 6.4635L17.0354 9.42941C19.99 11.0292 21.9898 14.0176 22.3201 17.516ZM16.7365 14.6175C17.2151 14.6175 17.6038 14.2288 17.6016 13.7524C17.6016 13.2761 17.2151 12.8874 16.7365 12.8874C16.2602 12.8874 15.8715 13.2738 15.8715 13.7524C15.8715 14.2288 16.2579 14.6175 16.7365 14.6175ZM7.26135 14.6175C7.73994 14.6175 8.12865 14.2288 8.1264 13.7524C8.1264 13.2761 7.73994 12.8874 7.26135 12.8874C6.785 12.8874 6.39629 13.2738 6.39629 13.7524C6.39629 14.2288 6.78276 14.6175 7.26135 14.6175Z" fill="#141414"/>
</svg>
