<svg width="24" height="24" viewBox="0 0 24 24" fill="none" xmlns="http://www.w3.org/2000/svg">
<path fill-rule="evenodd" clip-rule="evenodd" d="M15.3117 10.5605C14.468 11.4041 13.2962 11.9353 11.9995 11.9353C10.7183 11.9353 9.53096 11.4041 8.68729 10.5605C7.84362 9.71681 7.31242 8.54506 7.31242 7.24831C7.31242 5.95157 7.84362 4.77981 8.68729 3.93614C9.53096 3.09248 10.7027 2.56128 11.9995 2.56128C13.2962 2.56128 14.468 3.09248 15.3117 3.93614C16.1553 4.77981 16.6865 5.95157 16.6865 7.24831C16.6865 8.54506 16.1553 9.71681 15.3117 10.5605ZM11.9995 5.1079C11.4214 5.1079 10.8902 5.34225 10.4996 5.73284C10.1246 6.12342 9.87466 6.65462 9.87466 7.23269C9.87466 7.81075 10.109 8.34195 10.4996 8.73254C10.8746 9.12312 11.4058 9.35747 11.9995 9.35747C12.5775 9.35747 13.1087 9.12312 13.4993 8.73254C13.8899 8.35757 14.1243 7.82638 14.1243 7.23269C14.1243 6.65462 13.8899 6.12342 13.4993 5.73284C13.1244 5.34225 12.5931 5.1079 11.9995 5.1079Z" fill="#FF7700"/>
<path d="M16.9365 11.951L18.3114 13.8258C18.3895 13.9195 18.3739 14.0445 18.2489 14.1226C17.0928 15.0757 15.7491 15.7006 14.343 16.0287L17.249 21.1532C17.3271 21.3094 17.2334 21.4813 17.0615 21.4813H14.218C14.1243 21.4813 14.0462 21.4188 14.0149 21.3407L11.9839 16.8099L9.95282 21.3407C9.92158 21.4344 9.84346 21.4813 9.74972 21.4813H6.90624C6.75001 21.4813 6.64064 21.2938 6.71876 21.1532L9.62473 16.0287C8.21862 15.7006 6.875 15.06 5.71886 14.1226C5.64074 14.0445 5.62512 13.9195 5.68761 13.8258L7.06248 11.951C7.14059 11.8572 7.29683 11.8416 7.39057 11.9197C8.68732 13.029 10.2809 13.7477 11.9995 13.7477C13.7181 13.7477 15.3117 13.029 16.6084 11.9197C16.7022 11.826 16.8584 11.8416 16.9365 11.951Z" fill="#FF7700"/>
</svg>
