<svg width="24" height="24" viewBox="0 0 24 24" fill="none" xmlns="http://www.w3.org/2000/svg">
<path d="M10.4521 11.9999H13.3758C13.5791 11.9999 13.7804 11.9599 13.9682 11.8821C14.156 11.8043 14.3267 11.6903 14.4704 11.5465C14.6142 11.4028 14.7282 11.2321 14.806 11.0443C14.8838 10.8565 14.9238 10.6552 14.9238 10.4519C14.9238 10.2486 14.8838 10.0473 14.806 9.85954C14.7282 9.67173 14.6142 9.50108 14.4704 9.35733C14.3267 9.21358 14.156 9.09956 13.9682 9.02177C13.7804 8.94397 13.5791 8.90393 13.3758 8.90393H10.4521V11.9999Z" fill="#141414"/>
<path fill-rule="evenodd" clip-rule="evenodd" d="M12.0001 22.3199C17.6993 22.3199 22.3201 17.6992 22.3201 11.9999C22.3201 6.30028 17.6993 1.67993 12.0001 1.67993C6.30041 1.67993 1.68005 6.29993 1.68005 11.9999C1.68005 17.6992 6.30005 22.3199 12.0001 22.3199ZM8.38806 6.83993H13.3758C15.3706 6.83993 16.9878 8.45711 16.9878 10.4519C16.9878 12.4468 15.3706 14.0639 13.3758 14.0639H10.4521V17.1599H8.38806V6.83993Z" fill="#141414"/>
</svg>
