<svg width="24" height="24" viewBox="0 0 24 24" fill="none" xmlns="http://www.w3.org/2000/svg">
<path d="M11.9224 18.1341C8.50837 18.1341 6.94853 16.3949 6.94853 15.1193C6.94807 14.815 7.07296 14.5239 7.29383 14.3146C7.51469 14.1053 7.81203 13.9961 8.11587 14.0129C9.57759 14.0129 9.19524 16.2055 11.9224 16.2055C13.3165 16.2055 14.1353 15.3663 14.1353 14.5779C14.1353 14.1042 13.8646 13.5629 12.9443 13.3463L9.89903 12.5782C7.45269 11.9556 7.02635 10.5954 7.02635 9.33335C7.02635 6.71444 9.42195 5.76703 11.7025 5.76703C13.8037 5.76703 16.3008 6.92761 16.3008 8.4976C16.3008 9.17432 15.7358 9.53637 15.0793 9.53637C13.8308 9.53637 14.0406 7.78366 11.5299 7.78366C10.2814 7.78366 9.62496 8.36902 9.62496 9.18786C9.62496 10.0067 10.5961 10.2841 11.4487 10.4702L13.6954 10.9778C16.1587 11.5327 16.8151 12.9775 16.8151 14.3614C16.8151 16.4897 15.1673 18.1341 11.919 18.1341M21.3492 13.6305C21.4467 13.0719 21.4954 12.5058 21.4947 11.9387C21.5066 9.09011 20.2549 6.3828 18.0771 4.54658C15.8992 2.71036 13.0193 1.93423 10.2137 2.42741C9.35136 1.93091 8.37331 1.67064 7.37825 1.67287C5.33577 1.68534 3.45309 2.78001 2.43185 4.54889C1.41062 6.31778 1.40401 8.49556 2.4145 10.2706C1.85065 13.3688 2.83834 16.5468 5.05896 18.7795C7.27959 21.0123 10.4522 22.0173 13.5533 21.4703C14.4146 21.9664 15.3915 22.2267 16.3854 22.2249C18.4268 22.2117 20.3084 21.1175 21.3294 19.3497C22.3504 17.5819 22.3579 15.4054 21.3492 13.6305Z" fill="#141414"/>
</svg>
