<svg width="24" height="24" viewBox="0 0 24 24" fill="none" xmlns="http://www.w3.org/2000/svg">
<path d="M5.51479 5.2986C6.15635 5.81976 6.39715 5.7802 7.60287 5.69936L18.9678 5.01738C19.2086 5.01738 19.0082 4.77658 18.9282 4.73702L17.0396 3.3722C16.6784 3.09184 16.196 2.7702 15.2723 2.85018L4.26865 3.65342C3.86789 3.69298 3.78705 3.89422 3.94701 4.05418L5.51479 5.2986ZM6.19677 7.9474V19.9048C6.19677 20.5473 6.51755 20.7881 7.24081 20.7476L19.7306 20.0252C20.4538 19.9857 20.5347 19.5436 20.5347 19.0216V7.14416C20.5347 6.623 20.3343 6.34178 19.8914 6.38134L6.83919 7.14416C6.35759 7.18458 6.19677 7.42538 6.19677 7.94654V7.9474ZM18.5266 8.5881C18.6066 8.9493 18.5266 9.3105 18.1654 9.35178L17.5634 9.47218V18.2992C17.0405 18.5804 16.5589 18.7413 16.1573 18.7413C15.514 18.7413 15.3532 18.54 14.8716 17.9389L10.9354 11.7589V17.7376L12.1806 18.0197C12.1806 18.0197 12.1806 18.7421 11.1762 18.7421L8.40525 18.9021C8.32527 18.7421 8.40525 18.3405 8.68647 18.2605L9.40887 18.0601V10.1542L8.40697 10.0733C8.32613 9.71212 8.52736 9.19096 9.08894 9.15054L12.0611 8.95016L16.1581 15.2101V9.6717L15.1132 9.55216C15.0333 9.11012 15.354 8.78934 15.7557 8.74978L18.5266 8.5881ZM3.34501 2.56982L14.7916 1.72702C16.1968 1.60662 16.5589 1.6866 17.4421 2.32902L21.0963 4.89698C21.6983 5.33816 21.8995 5.45856 21.8995 5.94016V20.0252C21.8995 20.9076 21.5787 21.4305 20.4547 21.5096L7.16083 22.3128C6.31803 22.3533 5.91555 22.2329 5.47351 21.6704L2.78257 18.1788C2.30097 17.5364 2.10059 17.0557 2.10059 16.4932V3.97334C2.10059 3.2518 2.42223 2.64894 3.34501 2.56982Z" fill="#141414"/>
</svg>
