<svg width="24" height="24" viewBox="0 0 24 24" fill="none" xmlns="http://www.w3.org/2000/svg">
<path d="M20.5917 8.39821C20.5152 9.98078 19.3457 12.1478 17.0839 14.8982C14.7454 17.7713 12.7669 19.2077 11.1483 19.2077C10.1461 19.2077 9.29726 18.3331 8.60443 16.5832C8.14141 14.9792 7.6789 13.3754 7.21604 11.7714C6.70124 10.0225 6.14929 9.1469 5.55915 9.1469C5.4305 9.1469 4.9802 9.40279 4.20929 9.91263L3.40002 8.92719C4.24885 8.22215 5.08632 7.51727 5.91021 6.81142C7.04232 5.88667 7.89218 5.40036 8.45858 5.35119C9.79726 5.22966 10.6211 6.09453 10.9304 7.94597C11.2646 9.94346 11.4958 11.1859 11.6258 11.6722C12.0116 13.3294 12.4361 14.157 12.9 14.157C13.26 14.157 13.8008 13.6196 14.5218 12.5447C15.2421 11.4696 15.6279 10.6516 15.68 10.0897C15.7826 9.16183 15.3966 8.69678 14.5218 8.69678C14.11 8.69678 13.6855 8.78635 13.2488 8.96338C14.094 6.3462 15.7091 5.07518 18.093 5.14771C19.8604 5.19672 20.6935 6.28016 20.5917 8.39821Z" fill="#17D5FF"/>
</svg>
