<svg width="24" height="24" viewBox="0 0 24 24" fill="none" xmlns="http://www.w3.org/2000/svg">
<path d="M3.19775 14.859C3.19775 17.2625 6.32695 19.2116 10.1878 19.2116C14.0487 19.2116 17.1779 17.2623 17.1779 14.859C17.1779 12.4557 14.0484 10.5066 10.1878 10.5066C6.32722 10.5066 3.19775 12.4554 3.19775 14.859Z" fill="white"/>
<path d="M10.3505 18.8572C6.93371 19.1942 3.98427 17.6502 3.76197 15.4066C3.54023 13.1636 6.13124 11.0718 9.5475 10.7339C12.9646 10.3958 15.9143 11.9404 16.136 14.1829C16.3575 16.4267 13.7676 18.519 10.3505 18.8572ZM17.185 11.4102C16.8943 11.3234 16.6951 11.2639 16.8471 10.8821C17.1767 10.0528 17.2108 9.33757 16.8534 8.82711C16.1835 7.87013 14.3502 7.92145 12.2488 8.80159C12.2488 8.80021 11.5891 9.0903 11.7576 8.56694C12.0809 7.52763 12.032 6.65737 11.529 6.15486C10.3892 5.01401 7.35745 6.19795 4.75738 8.79692C2.81048 10.7441 1.68005 12.8076 1.68005 14.592C1.68005 18.0053 6.05714 20.0803 10.3393 20.0803C15.9524 20.0803 19.6865 16.8189 19.6865 14.2298C19.6865 12.6652 18.3689 11.7774 17.185 11.4102Z" fill="#E6162D"/>
<path d="M20.9125 5.16411C19.557 3.66126 17.5574 3.0885 15.7118 3.48068H15.7112C15.6098 3.50236 15.5135 3.54381 15.4281 3.60268C15.3426 3.66154 15.2696 3.73667 15.2131 3.82376C15.1567 3.91085 15.118 4.00821 15.0991 4.11027C15.0803 4.21233 15.0818 4.3171 15.1035 4.41859C15.1252 4.52007 15.1666 4.6163 15.2255 4.70177C15.2844 4.78724 15.3595 4.86027 15.4466 4.91671C15.5337 4.97314 15.631 5.01187 15.7331 5.03068C15.8351 5.04949 15.9399 5.04802 16.0414 5.02634C17.3543 4.7475 18.7751 5.15588 19.7395 6.22291C20.1965 6.72934 20.5121 7.34717 20.6545 8.01426C20.797 8.68135 20.7613 9.37419 20.551 10.0231L20.5513 10.0234C20.5193 10.1221 20.507 10.2263 20.5152 10.3298C20.5235 10.4333 20.5521 10.5342 20.5994 10.6266C20.6466 10.719 20.7117 10.8012 20.7908 10.8685C20.8699 10.9357 20.9616 10.9867 21.0604 11.0185C21.2597 11.0829 21.4763 11.0657 21.6629 10.9705C21.8494 10.8753 21.9905 10.71 22.0553 10.5108L22.0555 10.5075C22.6341 8.7121 22.2685 6.66531 20.9125 5.16411Z" fill="#FF9933"/>
<path d="M18.8305 7.0428C18.1708 6.31086 17.1968 6.03285 16.2974 6.22413C16.2079 6.24051 16.1226 6.27467 16.0466 6.32459C15.9705 6.37452 15.9053 6.4392 15.8547 6.5148C15.8041 6.5904 15.7691 6.67538 15.752 6.76472C15.7348 6.85406 15.7357 6.94594 15.7547 7.03491C15.7737 7.12388 15.8103 7.20815 15.8624 7.28271C15.9145 7.35728 15.9811 7.42063 16.0581 7.46901C16.1352 7.5174 16.2211 7.54983 16.3109 7.5644C16.4007 7.57896 16.4925 7.57536 16.5809 7.55381V7.55436C16.8044 7.50658 17.0364 7.51834 17.2539 7.58847C17.4714 7.6586 17.6666 7.78463 17.82 7.95395C17.9732 8.12368 18.0789 8.33081 18.1264 8.55443C18.174 8.77805 18.1617 9.01026 18.0909 9.22763H18.0915C18.036 9.3993 18.0509 9.58598 18.133 9.74664C18.2151 9.90731 18.3576 10.0288 18.5292 10.0844C18.7009 10.1398 18.8876 10.1247 19.0483 10.0425C19.2089 9.96025 19.3303 9.8176 19.3857 9.64588C19.6684 8.77124 19.4917 7.77446 18.8305 7.0428Z" fill="#FF9933"/>
<path d="M10.539 14.7942C10.4193 14.9989 10.1553 15.0972 9.94838 15.0118C9.74475 14.9279 9.6808 14.6995 9.79662 14.4986C9.91572 14.2988 10.1699 14.2014 10.3727 14.2818C10.5791 14.3573 10.6532 14.5887 10.539 14.7942ZM9.45027 16.192C9.11984 16.7192 8.41205 16.9502 7.87881 16.7068C7.35353 16.4678 7.19847 15.8549 7.52945 15.3409C7.85576 14.8291 8.53967 14.6007 9.06879 14.8225C9.60396 15.0508 9.77521 15.6593 9.45027 16.192ZM10.6921 12.4601C9.06605 12.0369 7.22811 12.8473 6.52197 14.2802C5.80265 15.7413 6.49837 17.3633 8.14063 17.8938C9.84245 18.4424 11.8481 17.6018 12.5454 16.0243C13.2335 14.4824 12.3747 12.8951 10.6921 12.4601Z" fill="#141414"/>
</svg>
