<svg width="24" height="24" viewBox="0 0 24 24" fill="none" xmlns="http://www.w3.org/2000/svg">
<path d="M11.9999 22.3214C17.6995 22.3214 22.3199 17.701 22.3199 12.0014C22.3199 6.30182 17.6995 1.6814 11.9999 1.6814C6.30035 1.6814 1.67993 6.30182 1.67993 12.0014C1.67993 17.701 6.30035 22.3214 11.9999 22.3214Z" fill="white"/>
<path d="M11.9999 1.6814C6.30057 1.6814 1.67993 6.30204 1.67993 12.0014C1.67993 16.3757 4.39796 20.113 8.23717 21.6164C8.14373 20.801 8.06729 19.5439 8.27114 18.6521C8.45801 17.8451 9.47726 13.5218 9.47726 13.5218C9.47726 13.5218 9.17149 12.9017 9.17149 11.9929C9.17149 10.5574 10.0039 9.48722 11.0401 9.48722C11.9235 9.48722 12.3482 10.1497 12.3482 10.9397C12.3482 11.823 11.7876 13.1481 11.4903 14.3797C11.244 15.4074 12.0084 16.2483 13.0192 16.2483C14.8539 16.2483 16.2638 14.3117 16.2638 11.5257C16.2638 9.05404 14.4886 7.32979 11.949 7.32979C9.0101 7.32979 7.28586 9.52969 7.28586 11.806C7.28586 12.6894 7.62561 13.6407 8.0503 14.1588C8.13524 14.2608 8.14373 14.3542 8.11825 14.4561C8.04181 14.7789 7.86344 15.4839 7.82946 15.6283C7.78699 15.8151 7.67657 15.8576 7.48122 15.7642C6.19015 15.1611 5.38324 13.284 5.38324 11.7636C5.38324 8.51043 7.74452 5.52061 12.2038 5.52061C15.7797 5.52061 18.5657 8.06875 18.5657 11.4833C18.5657 15.0422 16.3233 17.9046 13.2145 17.9046C12.1698 17.9046 11.1845 17.361 10.8533 16.7155C10.8533 16.7155 10.3351 18.686 10.2077 19.1702C9.9784 20.0705 9.34986 21.1917 8.92517 21.8797C9.89346 22.177 10.9127 22.3384 11.9829 22.3384C17.6823 22.3384 22.3029 17.7177 22.3029 12.0184C22.3199 6.30204 17.6993 1.6814 11.9999 1.6814Z" fill="#E60019"/>
</svg>
