<svg width="24" height="24" viewBox="0 0 24 24" fill="none" xmlns="http://www.w3.org/2000/svg">
<path d="M14.1998 10.5195C14.1351 10.5195 14.0729 10.4947 14.026 10.4501C13.9791 10.4055 13.9512 10.3446 13.948 10.28C13.9052 9.42352 13.5016 9.0041 12.678 8.95979C12.6124 8.95457 12.5514 8.92392 12.5081 8.87438C12.4648 8.82483 12.4425 8.76032 12.4461 8.69459C12.4496 8.62886 12.4787 8.56712 12.5271 8.52254C12.5756 8.47795 12.6395 8.45406 12.7053 8.45595C13.792 8.51582 14.3961 9.13642 14.4518 10.2549C14.4535 10.288 14.4486 10.3211 14.4375 10.3523C14.4263 10.3835 14.4091 10.4122 14.3869 10.4368C14.3647 10.4614 14.3378 10.4813 14.3078 10.4955C14.2779 10.5097 14.2454 10.5179 14.2123 10.5195H14.1998Z" fill="#141414"/>
<path d="M15.4888 10.9536H15.4948C15.5608 10.9535 15.6242 10.9275 15.6713 10.8812C15.7184 10.8349 15.7455 10.7721 15.7469 10.706C15.769 9.7208 15.4676 8.88196 14.8613 8.21885C14.2551 7.55574 13.4025 7.17943 12.3268 7.10069C12.26 7.09581 12.1939 7.11768 12.1432 7.1615C12.0925 7.20532 12.0612 7.2675 12.0564 7.33435C12.0515 7.40121 12.0733 7.46726 12.1172 7.51799C12.161 7.56871 12.2232 7.59995 12.29 7.60483C13.2459 7.67489 13.9629 7.98624 14.4892 8.56043C15.0155 9.13463 15.2619 9.83306 15.2424 10.6956C15.2409 10.7624 15.266 10.8272 15.3122 10.8756C15.3584 10.924 15.4219 10.952 15.4888 10.9536Z" fill="#141414"/>
<path d="M16.8201 11.4715C16.7535 11.4714 16.6896 11.4451 16.6424 11.3982C16.5951 11.3512 16.5683 11.2875 16.5678 11.2209C16.5561 9.67828 16.1118 8.49995 15.2095 7.6192C14.318 6.75102 13.1917 6.30555 11.8616 6.29597C11.8285 6.29585 11.7957 6.28921 11.7651 6.27642C11.7345 6.26363 11.7068 6.24494 11.6834 6.22142C11.6363 6.17392 11.6099 6.10964 11.6101 6.0427C11.6104 5.97577 11.6372 5.91167 11.6847 5.86451C11.7322 5.81735 11.7965 5.79099 11.8634 5.79123H11.8655C13.33 5.80201 14.5736 6.29537 15.5619 7.25815C16.5501 8.22094 17.0596 9.55554 17.0728 11.218C17.0733 11.2848 17.0472 11.3492 17.0003 11.3968C16.9533 11.4445 16.8894 11.4716 16.8225 11.4721L16.8201 11.4715Z" fill="#141414"/>
<path d="M13.2873 13.442C13.0963 13.6773 12.7415 13.6474 12.7415 13.6474C10.1486 12.9855 9.45469 10.3591 9.45469 10.3591C9.45469 10.3591 9.42355 10.0043 9.66006 9.8133L10.1286 9.44088C10.3609 9.26186 10.5091 8.82747 10.2726 8.40326C10.0912 8.08483 9.89394 7.77569 9.68161 7.477C9.47535 7.19529 8.99485 6.6184 8.99306 6.6166C8.76134 6.34328 8.42066 6.27981 8.06141 6.46692C8.06032 6.46692 8.05883 6.4674 8.05739 6.46787C8.05607 6.4683 8.05479 6.46871 8.05392 6.46871C7.69662 6.67458 7.37444 6.93613 7.09953 7.24349C7.09859 7.24536 7.09765 7.24626 7.09671 7.24716C7.09585 7.24798 7.095 7.2488 7.09414 7.25037C6.8722 7.51821 6.74517 7.78076 6.71304 8.03802C6.70636 8.07595 6.70405 8.11452 6.70615 8.15298C6.70496 8.26658 6.72225 8.37963 6.75734 8.48768L6.76962 8.49606C6.88158 8.89363 7.1618 9.55584 7.77072 10.6599C8.11901 11.2985 8.52071 11.9065 8.9715 12.4774C9.19736 12.7636 9.43945 13.0366 9.69658 13.295C9.69968 13.2981 9.70274 13.3012 9.70579 13.3043C9.71189 13.3104 9.71794 13.3166 9.72412 13.3225L9.80675 13.4052C10.0652 13.6623 10.3382 13.9044 10.6243 14.1303C11.1953 14.5811 11.8034 14.9828 12.4421 15.331C13.5459 15.94 14.2087 16.2202 14.6057 16.3321L14.6141 16.3444C14.7221 16.3796 14.8352 16.397 14.9488 16.3959C14.9872 16.3978 15.0258 16.3954 15.0637 16.3887C15.3214 16.3582 15.5837 16.2313 15.8508 16.0082C15.8524 16.0074 15.8532 16.0065 15.854 16.0056C15.8549 16.0047 15.8558 16.0038 15.8577 16.0028C16.165 15.7278 16.4267 15.4057 16.6327 15.0484C16.6327 15.0476 16.6331 15.0463 16.6334 15.045C16.6338 15.0435 16.6342 15.042 16.6342 15.0409C16.8213 14.6817 16.7579 14.341 16.4831 14.109C16.4827 14.109 16.4603 14.0905 16.4223 14.0593C16.2666 13.9309 15.8492 13.587 15.6227 13.4204C15.3243 13.2081 15.0154 13.0109 14.6973 12.8295C14.2728 12.593 13.8393 12.7412 13.6597 12.9735L13.2873 13.442Z" fill="#141414"/>
<path fill-rule="evenodd" clip-rule="evenodd" d="M19.3244 4.16682C18.8286 3.70938 16.8252 2.25503 12.3628 2.23527C12.3628 2.23527 7.10042 1.91793 4.53509 4.271C3.10709 5.69931 2.60474 7.78922 2.55175 10.3803C2.49876 12.9714 2.4302 17.8272 7.11089 19.1438H7.11538L7.11239 21.1529C7.11239 21.1529 7.08245 21.9663 7.61803 22.1322C8.15869 22.3001 8.51295 21.8973 8.97488 21.372C9.06645 21.2679 9.16225 21.159 9.26458 21.0487C9.60407 20.6829 10.0729 20.1455 10.4261 19.7348C13.6273 20.0042 16.0894 19.3884 16.369 19.2974C16.4267 19.2787 16.5084 19.2579 16.6098 19.2321C17.644 18.9692 20.7259 18.1855 21.2676 13.7638C21.8816 8.75919 20.9706 5.59363 19.3244 4.16682ZM19.8669 13.4049C19.4148 17.0552 16.9647 17.6253 16.082 17.8307C15.9844 17.8534 15.9058 17.8717 15.8514 17.8891C15.6188 17.964 13.4564 18.502 10.7372 18.3244C10.7372 18.3244 8.71104 20.7688 8.07817 21.4044C7.97937 21.5038 7.86322 21.5439 7.78568 21.5241C7.67671 21.4975 7.64677 21.3685 7.64797 21.1799C7.64976 20.9104 7.66533 17.8413 7.66533 17.8413C3.83667 16.7783 3.92597 12.8789 3.97665 10.6658C3.97838 10.5901 3.98007 10.5165 3.98155 10.445C4.02646 8.28079 4.43301 6.50791 5.64068 5.31551C7.81053 3.35013 12.2805 3.64381 12.2805 3.64381C16.0552 3.66028 17.8641 4.797 18.2835 5.1778C19.6762 6.3702 20.3857 9.22352 19.8669 13.4037V13.4049Z" fill="#141414"/>
</svg>
