<svg width="24" height="24" viewBox="0 0 24 24" fill="none" xmlns="http://www.w3.org/2000/svg">
<path d="M11.258 11.5381L2.59985 20.6092C2.69707 20.9537 2.87179 21.2715 3.11065 21.5382C3.34951 21.8049 3.64619 22.0135 3.97801 22.148C4.30982 22.2824 4.66799 22.3393 5.02513 22.3141C5.38227 22.2889 5.72893 22.1824 6.03861 22.0027L15.7807 16.4543L11.258 11.5381Z" fill="#EA4335"/>
<path d="M20.0131 9.99619L15.8001 7.58325L11.0581 11.7446L15.8195 16.4414L20.0002 14.0543C20.3705 13.8604 20.6808 13.5688 20.8972 13.2111C21.1137 12.8534 21.2281 12.4433 21.2281 12.0252C21.2281 11.6072 21.1137 11.1971 20.8972 10.8394C20.6808 10.4817 20.3705 10.1901 20.0002 9.99619H20.0131Z" fill="#FBBC04"/>
<path d="M2.59991 3.39624C2.54757 3.58972 2.52153 3.78937 2.52249 3.9898V20.0158C2.52301 20.2161 2.54903 20.4156 2.59991 20.6094L11.5549 11.7705L2.59991 3.39624Z" fill="#4285F4"/>
<path d="M11.3226 12.0026L15.8 7.58324L6.07087 2.00897C5.70485 1.79461 5.28857 1.68108 4.8644 1.67994C4.35212 1.67892 3.85356 1.84544 3.44472 2.15411C3.03588 2.46278 2.73918 2.89667 2.59985 3.38964L11.3226 12.0026Z" fill="#34A853"/>
</svg>
