<svg width="24" height="24" viewBox="0 0 24 24" fill="none" xmlns="http://www.w3.org/2000/svg">
<path fill-rule="evenodd" clip-rule="evenodd" d="M22.3205 8.13639C22.3205 7.88985 22.3205 7.64331 22.3194 7.39677C22.3182 7.18922 22.3159 6.98167 22.3102 6.77412C22.2982 6.32175 22.2712 5.86594 22.191 5.41873C22.1095 4.96463 21.976 4.54208 21.7661 4.12927C21.5597 3.72391 21.2902 3.35353 20.9686 3.03188C20.6469 2.71024 20.276 2.44076 19.8706 2.23436C19.4584 2.02451 19.0358 1.8915 18.5823 1.80951C18.1351 1.72924 17.6787 1.70229 17.2263 1.69025C17.0188 1.68452 16.8112 1.68223 16.6037 1.68108C16.3572 1.67993 16.1106 1.67993 15.8641 1.67993H8.13651C7.88997 1.67993 7.64343 1.67993 7.39689 1.68108C7.18934 1.68223 6.98179 1.68452 6.77424 1.69025C6.32187 1.70287 5.86548 1.72924 5.41827 1.81008C4.96418 1.8915 4.5422 2.02509 4.12996 2.23493C3.72461 2.44134 3.35365 2.71081 3.03201 3.03246C2.71036 3.3541 2.44088 3.72449 2.23448 4.12984C2.02464 4.54265 1.89105 4.96521 1.80963 5.4193C1.72936 5.86651 1.70241 6.32289 1.69037 6.77469C1.68464 6.98224 1.68235 7.18979 1.6812 7.39735C1.68005 7.64331 1.68005 7.88985 1.68005 8.13639V15.8634C1.68005 16.1099 1.68005 16.3565 1.6812 16.603C1.68235 16.8106 1.68464 17.0181 1.69037 17.2257C1.70241 17.678 1.72936 18.1338 1.80963 18.581C1.89105 19.0351 2.02464 19.4577 2.23448 19.8705C2.44088 20.2759 2.71036 20.6462 3.03201 20.9679C3.35365 21.2895 3.72461 21.559 4.12996 21.7654C4.5422 21.9753 4.96476 22.1083 5.41827 22.1903C5.86548 22.2705 6.32187 22.2975 6.77424 22.3095C6.98179 22.3153 7.18934 22.3175 7.39689 22.3187C7.64343 22.3204 7.88997 22.3198 8.13651 22.3198H15.8635C16.11 22.3198 16.3566 22.3198 16.6031 22.3187C16.8107 22.3175 17.0182 22.3153 17.2258 22.3095C17.6781 22.2975 18.1345 22.2705 18.5817 22.1903C19.0358 22.1088 19.4578 21.9753 19.8701 21.7654C20.2754 21.559 20.6464 21.2895 20.968 20.9679C21.2897 20.6462 21.5591 20.2759 21.7655 19.8705C21.9754 19.4577 22.109 19.0351 22.1904 18.581C22.2707 18.1338 22.2976 17.6775 22.3096 17.2257C22.3154 17.0181 22.3177 16.8106 22.3188 16.603C22.3205 16.3565 22.32 16.1099 22.32 15.8634V8.13639H22.3205Z" fill="url(#paint0_linear_1314_35613)"/>
<path fill-rule="evenodd" clip-rule="evenodd" d="M16.231 4.82454C16.1813 4.82911 15.7393 4.90744 15.6862 4.9183L9.56849 6.1527L9.5662 6.15327C9.40669 6.18701 9.28148 6.24361 9.18485 6.3248C9.06822 6.42256 9.00361 6.56093 8.97902 6.72216C8.97388 6.75646 8.9653 6.82622 8.9653 6.92913C8.9653 6.92913 8.9653 13.1794 8.9653 14.5859C8.9653 14.7649 8.95101 14.9387 8.8298 15.0868C8.70859 15.2349 8.55879 15.2795 8.38326 15.3149C8.25005 15.3418 8.11683 15.3687 7.98361 15.3955C7.47819 15.4973 7.14944 15.5665 6.85156 15.682C6.56683 15.7923 6.35357 15.933 6.18376 16.1114C5.847 16.4641 5.71036 16.9427 5.75724 17.3909C5.79726 17.7734 5.96936 18.1393 6.26495 18.4098C6.46449 18.5927 6.71377 18.7317 7.00765 18.7906C7.31239 18.8517 7.63714 18.8306 8.11169 18.7345C8.3644 18.6836 8.6011 18.6042 8.82637 18.4709C9.04935 18.3394 9.24031 18.1639 9.38954 17.9501C9.53933 17.7357 9.63596 17.4973 9.68913 17.244C9.74402 16.9827 9.75717 16.7466 9.75717 16.4859V9.84503C9.75717 9.48941 9.8578 9.39564 10.1448 9.32589C10.1448 9.32589 15.2299 8.30018 15.4672 8.25386C15.7982 8.1904 15.9543 8.28474 15.9543 8.63179V13.1652C15.9543 13.3447 15.9526 13.5265 15.8302 13.6752C15.709 13.8232 15.5592 13.8678 15.3837 13.9033C15.2505 13.9301 15.1173 13.957 14.9841 13.9839C14.4786 14.0857 14.1499 14.1548 13.852 14.2703C13.5673 14.3807 13.354 14.5213 13.1842 14.6997C12.8475 15.0525 12.6988 15.531 12.7457 15.9793C12.7857 16.3618 12.9698 16.7277 13.2654 16.9981C13.4649 17.1811 13.7142 17.316 14.0081 17.3755C14.3128 17.4367 14.6376 17.4149 15.1121 17.3195C15.3648 17.2686 15.6015 17.1925 15.8268 17.0593C16.0498 16.9278 16.2408 16.7523 16.39 16.5385C16.5398 16.324 16.6364 16.0856 16.6896 15.8323C16.7445 15.5711 16.7468 15.3349 16.7468 15.0742V5.36541C16.7479 5.01321 16.5621 4.79595 16.231 4.82454Z" fill="white"/>
<defs>
<linearGradient id="paint0_linear_1314_35613" x1="12.0003" y1="22.2404" x2="12.0003" y2="2.12477" gradientUnits="userSpaceOnUse">
<stop stop-color="#FA233B"/>
<stop offset="1" stop-color="#FB5C74"/>
</linearGradient>
</defs>
</svg>
