<svg width="24" height="24" viewBox="0 0 24 24" fill="none" xmlns="http://www.w3.org/2000/svg">
<path fill-rule="evenodd" clip-rule="evenodd" d="M9.0536 10.3366C12.3328 9.20483 12.891 6.25657 12.4724 3.54584C12.4724 3.44803 12.5561 3.37817 12.6398 3.40611C15.7795 4.94312 19.3099 8.2966 19.3099 13.3268C19.3099 17.1833 16.3237 20.5927 11.984 20.5927C10.4354 20.6632 8.90753 20.2153 7.64142 19.3197C6.37532 18.4241 5.44313 17.1318 4.99197 15.6468C4.54082 14.1618 4.5964 12.5686 5.14994 11.1187C5.70349 9.66883 6.72347 8.44482 8.0489 7.63988C8.13262 7.58399 8.24425 7.63988 8.24425 7.73769C8.28612 8.25468 8.42566 9.55415 8.99778 10.3366H9.0536Z" fill="url(#paint0_radial_1314_35565)"/>
<defs>
<radialGradient id="paint0_radial_1314_35565" cx="0" cy="0" r="1" gradientUnits="userSpaceOnUse" gradientTransform="translate(11.9999 20.5999) scale(14.62 17.2)">
<stop stop-color="#FF7854"/>
<stop offset="1" stop-color="#FD267D"/>
</radialGradient>
</defs>
</svg>
