<svg width="24" height="24" viewBox="0 0 24 24" fill="none" xmlns="http://www.w3.org/2000/svg">
<path d="M21.7771 10.4095L21.673 9.96772H12.0699V14.0321H17.8076C17.2119 16.8609 14.4476 18.35 12.1897 18.35C10.5468 18.35 8.81494 17.6589 7.66869 16.5481C7.06392 15.9527 6.58253 15.2438 6.25208 14.4621C5.92162 13.6804 5.7486 12.8412 5.7429 11.9926C5.7429 10.2805 6.51229 8.56807 7.63183 7.44162C8.75137 6.31518 10.4422 5.68492 12.1233 5.68492C14.0487 5.68492 15.4285 6.70725 15.9445 7.17349L18.8327 4.30047C17.9855 3.55596 15.6579 1.67993 12.0303 1.67993C9.23143 1.67993 6.54777 2.75201 4.58605 4.70729C2.65012 6.63261 1.64807 9.41671 1.64807 11.9999C1.64807 14.5832 2.59622 17.2281 4.47225 19.1686C6.47682 21.2382 9.31574 22.3199 12.239 22.3199C14.8987 22.3199 17.4197 21.2778 19.2165 19.387C20.9829 17.5257 21.8965 14.9503 21.8965 12.2506C21.8965 11.114 21.7822 10.439 21.7771 10.4095Z" fill="#141414"/>
</svg>
