<svg width="24" height="24" viewBox="0 0 24 24" fill="none" xmlns="http://www.w3.org/2000/svg">
<path d="M12.0001 1.67993C6.30067 1.67993 1.68005 6.30055 1.68005 11.9999C1.68005 14.85 2.83541 17.43 4.70269 19.2973L2.73705 21.2629C2.34682 21.6532 2.62337 22.3199 3.17484 22.3199H12.0001C17.6994 22.3199 22.3201 17.6993 22.3201 11.9999C22.3201 6.30055 17.6994 1.67993 12.0001 1.67993Z" fill="#FF4500"/>
<path d="M14.0994 6.54651C14.2784 7.30519 14.9597 7.87037 15.7732 7.87037C16.723 7.87037 17.493 7.1004 17.493 6.15064C17.493 5.20088 16.723 4.43091 15.7732 4.43091C14.9428 4.43091 14.2502 5.01947 14.089 5.80234C12.6982 5.9515 11.6122 7.13104 11.6122 8.56052C11.6122 8.56375 11.6122 8.56616 11.6122 8.56939C10.0996 8.63308 8.71854 9.06362 7.62204 9.74329C7.21488 9.42805 6.70372 9.24019 6.14902 9.24019C4.8179 9.24019 3.73914 10.319 3.73914 11.6501C3.73914 12.616 4.30674 13.448 5.12669 13.8326C5.20651 16.6303 8.25494 18.8805 12.0048 18.8805C15.7547 18.8805 18.8071 16.6279 18.8829 13.8278C19.6964 13.4408 20.2592 12.6111 20.2592 11.6509C20.2592 10.3198 19.1804 9.241 17.8493 9.241C17.297 9.241 16.7883 9.42724 16.3819 9.74007C15.2758 9.05556 13.8793 8.62502 12.3515 8.56778C12.3515 8.56536 12.3515 8.56375 12.3515 8.56133C12.3515 7.53739 13.1126 6.6876 14.0994 6.54812V6.54651ZM7.52529 13.1795C7.5656 12.3056 8.1461 11.6348 8.82093 11.6348C9.49576 11.6348 10.0118 12.3434 9.97145 13.2174C9.93114 14.0914 9.42723 14.4091 8.75159 14.4091C8.07595 14.4091 7.48497 14.0535 7.52529 13.1795ZM15.1895 11.6348C15.8651 11.6348 16.4456 12.3056 16.4851 13.1795C16.5255 14.0535 15.9337 14.4091 15.2588 14.4091C14.584 14.4091 14.0793 14.0922 14.039 13.2174C13.9987 12.3434 14.5139 11.6348 15.1895 11.6348ZM14.3865 15.2016C14.5131 15.2145 14.5937 15.3459 14.5445 15.4636C14.1293 16.4561 13.1489 17.1535 12.0048 17.1535C10.8607 17.1535 9.88115 16.4561 9.46512 15.4636C9.41594 15.3459 9.49657 15.2145 9.62315 15.2016C10.3649 15.1266 11.1671 15.0855 12.0048 15.0855C12.8425 15.0855 13.6439 15.1266 14.3865 15.2016Z" fill="white"/>
</svg>
