<svg width="24" height="24" viewBox="0 0 24 24" fill="none" xmlns="http://www.w3.org/2000/svg">
<path fill-rule="evenodd" clip-rule="evenodd" d="M1.68005 11.6901C1.68005 5.93939 6.18731 1.67993 12.0001 1.67993C17.8128 1.67993 22.3201 5.94197 22.3201 11.6926C22.3201 17.4433 17.8128 21.7028 12.0001 21.7028C10.9552 21.7028 9.95411 21.5634 9.01241 21.3055C8.82923 21.2564 8.63315 21.2693 8.46029 21.3467L6.41177 22.2497C6.28805 22.3043 6.15282 22.3276 6.01796 22.3177C5.8831 22.3078 5.75274 22.2649 5.63835 22.1928C5.52395 22.1207 5.42902 22.0216 5.36189 21.9042C5.29476 21.7868 5.25749 21.6547 5.25335 21.5196L5.19659 19.6827C5.19143 19.4556 5.08823 19.2441 4.92053 19.0945C2.91329 17.2988 1.68005 14.6983 1.68005 11.6901ZM8.8344 9.80929L5.8029 14.6183C5.51136 15.0801 6.07896 15.5987 6.5124 15.2684L9.76836 12.7968C9.87549 12.7155 10.0062 12.6712 10.1407 12.6707C10.2753 12.6703 10.4063 12.7136 10.514 12.7943L12.9263 14.6028C13.0974 14.7313 13.2933 14.8229 13.5016 14.8719C13.7099 14.9209 13.9261 14.9261 14.1365 14.8873C14.3469 14.8486 14.547 14.7666 14.7242 14.6465C14.9013 14.5265 15.0517 14.3711 15.1657 14.19L18.1998 9.3836C18.4888 8.92179 17.9212 8.40065 17.4877 8.73088L14.2318 11.2025C14.1246 11.2838 13.9939 11.3281 13.8594 11.3285C13.7249 11.329 13.5938 11.2857 13.4861 11.205L11.0738 9.3965C10.9027 9.26801 10.7069 9.17638 10.4986 9.1274C10.2903 9.07843 10.0741 9.07317 9.86363 9.11196C9.65319 9.15074 9.45308 9.23274 9.27593 9.35276C9.09878 9.47279 8.94844 9.62823 8.8344 9.80929Z" fill="#141414"/>
</svg>
