<svg width="24" height="24" viewBox="0 0 24 24" fill="none" xmlns="http://www.w3.org/2000/svg">
<path fill-rule="evenodd" clip-rule="evenodd" d="M12.0001 22.3199C17.6996 22.3199 22.3201 17.6995 22.3201 11.9999C22.3201 6.30035 17.6996 1.67993 12.0001 1.67993C6.30048 1.67993 1.68005 6.30035 1.68005 11.9999C1.68005 17.6995 6.30048 22.3199 12.0001 22.3199ZM14.2383 20.4171C13.5241 20.6065 12.7739 20.7074 12.0001 20.7074C10.829 20.7074 9.71194 20.4763 8.69202 20.0571C9.65985 16.4847 12.3362 13.926 15.4022 12.7865C15.9339 15.3635 15.5378 18.1272 14.2383 20.4171ZM16.5301 19.4377C17.3617 17.1729 17.5255 14.6781 17.0159 12.3258C18.2463 12.0774 19.5013 12.0546 20.7031 12.2812C20.6069 15.3134 18.9604 17.9544 16.5301 19.4377ZM20.5899 10.5654C19.2594 10.3702 17.8894 10.4273 16.5516 10.7131C16.2924 9.98584 15.9652 9.28527 15.5754 8.62005C16.675 7.98497 17.6776 7.18287 18.536 6.24635C19.5882 7.44067 20.3181 8.92567 20.5899 10.5654ZM17.3143 5.10163C16.5401 5.94932 15.6292 6.67019 14.6301 7.23206C13.9557 6.37491 13.1755 5.60319 12.3056 4.94057L12.2846 4.92457L12.2628 4.91003C12.2627 4.90996 12.2608 4.90871 12.2569 4.9059C12.2522 4.90262 12.246 4.89819 12.2381 4.89243C12.222 4.88076 12.2021 4.86603 12.1783 4.84816C12.1512 4.82788 12.124 4.80737 12.0948 4.78533L12.0888 4.78085C12.0652 4.76299 12.0402 4.7441 12.0128 4.72351C11.9535 4.67894 11.8885 4.63046 11.8287 4.58766C11.787 4.55775 11.727 4.51544 11.6658 4.47814L11.6269 4.45125C11.5472 4.39606 11.4274 4.31308 11.3186 4.2463C11.217 4.17506 11.0797 4.09391 10.9897 4.04122C10.9027 3.99025 10.809 3.93675 10.7507 3.90351L10.706 3.87795C10.6953 3.87169 10.686 3.8665 10.6821 3.86435L10.6814 3.86393C10.6746 3.86013 10.667 3.85599 10.6602 3.85225L10.6511 3.84721C10.6381 3.84006 10.6251 3.8329 10.6116 3.82538C10.5961 3.81677 10.5836 3.80967 10.5745 3.80435L10.5682 3.79995L10.546 3.78638C10.4656 3.73724 10.3818 3.69237 10.3363 3.66802L10.3195 3.65902L10.3001 3.64855L10.2801 3.63912C10.2369 3.61875 10.1715 3.58757 10.0978 3.55242L10.0961 3.55159C10.0729 3.54057 10.0488 3.52909 10.0245 3.5175C10.6592 3.37027 11.3205 3.29243 12.0001 3.29243C14.0008 3.29243 15.844 3.96722 17.3143 5.10163ZM7.73122 4.40885C6.4397 5.1367 5.35259 6.18461 4.5775 7.44498C5.4995 7.91259 6.48981 8.24298 7.50998 8.4246L7.51218 8.42499L7.51437 8.42541C8.77506 8.65677 10.0747 8.65058 11.3471 8.42118C11.9308 8.31579 12.5041 8.15912 13.0602 7.9556C12.5375 7.33725 11.9503 6.77625 11.3079 6.28494C11.2639 6.25443 11.2151 6.21822 11.1752 6.18839C11.145 6.16581 11.1096 6.13904 11.0746 6.11263L11.0737 6.11193C11.0505 6.09443 11.0275 6.07714 11.0065 6.06135C10.9491 6.01814 10.8968 5.97928 10.8536 5.94832C10.8255 5.92819 10.8094 5.91732 10.8027 5.91284C10.8003 5.91118 10.7991 5.9104 10.7991 5.91036L10.7744 5.89643L10.7454 5.87672C10.7026 5.8477 10.6645 5.82135 10.6296 5.79719L10.6293 5.79696C10.5528 5.74406 10.4915 5.70164 10.4294 5.66474L10.3886 5.64052L10.3519 5.61271C10.353 5.61354 10.3523 5.61312 10.3497 5.61134L10.3493 5.6111C10.3428 5.60678 10.3256 5.59539 10.294 5.57573C10.2515 5.54938 10.1993 5.51826 10.1437 5.48563C10.0646 5.43938 9.99269 5.39833 9.93577 5.36585L9.92903 5.362C9.90527 5.34843 9.8843 5.33646 9.86675 5.32634L9.86501 5.32534L9.85124 5.31773L9.84472 5.31415C9.83179 5.30706 9.81454 5.29754 9.79696 5.28777C9.77639 5.27632 9.75143 5.26226 9.72714 5.24804C9.71385 5.24027 9.68909 5.22569 9.66135 5.2077C9.62726 5.18738 9.59069 5.16774 9.54715 5.14436L9.54522 5.14329C9.49314 5.11865 9.42831 5.08776 9.35952 5.05493C9.23007 4.9932 9.08643 4.92473 8.98675 4.87837L8.97601 4.87338L8.93095 4.85086C8.77308 4.77766 8.58409 4.70601 8.37244 4.62576L8.37171 4.62548C8.32562 4.60801 8.27847 4.59014 8.23032 4.57175C8.09978 4.52489 7.96422 4.48223 7.82221 4.43754L7.82188 4.43744C7.79195 4.42802 7.76173 4.41851 7.73122 4.40885ZM3.84206 8.94889C4.90458 9.48508 6.04294 9.86343 7.21419 10.0722C8.68034 10.341 10.1825 10.3321 11.6444 10.0685C12.4765 9.91825 13.2889 9.67897 14.0678 9.36011C14.4145 9.93647 14.7061 10.5438 14.9381 11.1744C11.4404 12.4341 8.38814 15.2806 7.18097 19.2534C4.83706 17.6931 3.29255 15.0269 3.29255 11.9999C3.29255 10.9265 3.4868 9.89838 3.84206 8.94889Z" fill="#060318"/>
</svg>
