<svg width="24" height="24" viewBox="0 0 24 24" fill="none" xmlns="http://www.w3.org/2000/svg">
<path d="M12.6447 8.5778C14.3072 8.5778 15.655 7.23008 15.655 5.56759C15.655 3.90509 14.3072 2.55737 12.6447 2.55737C10.9822 2.55737 9.63452 3.90509 9.63452 5.56759C9.63452 7.23008 10.9822 8.5778 12.6447 8.5778Z" fill="#7B83EB"/>
<path opacity="0.1" d="M12.4303 6.21265H9.70386L9.7174 6.27263L9.71869 6.27779L9.73288 6.33326C9.93099 7.0845 10.4116 7.73017 11.0745 8.13544C11.7373 8.54071 12.5311 8.67426 13.2901 8.5082V7.07243C13.2894 6.84461 13.1986 6.62632 13.0375 6.46522C12.8764 6.30413 12.6581 6.21333 12.4303 6.21265Z" fill="#141414"/>
<path opacity="0.2" d="M11.7856 6.85767H9.92542C10.1695 7.37239 10.5547 7.80727 11.0362 8.11178C11.5177 8.41629 12.0757 8.57791 12.6454 8.57788V7.71745C12.6447 7.48963 12.5539 7.27134 12.3928 7.11024C12.2317 6.94915 12.0134 6.85835 11.7856 6.85767Z" fill="#141414"/>
<path d="M19.4179 8.79259C20.6647 8.79259 21.6754 7.78187 21.6754 6.53509C21.6754 5.28831 20.6647 4.27759 19.4179 4.27759C18.1711 4.27759 17.1604 5.28831 17.1604 6.53509C17.1604 7.78187 18.1711 8.79259 19.4179 8.79259Z" fill="#5059C9"/>
<path d="M21.3525 9.43774H16.2821C16.1727 9.43774 16.0677 9.48124 15.9902 9.55865C15.9128 9.63607 15.8693 9.74106 15.8693 9.85054V15.0815C15.8554 15.8386 16.1019 16.5774 16.5677 17.1744C17.0335 17.7714 17.6903 18.1902 18.4281 18.3607C18.8979 18.4593 19.3839 18.4518 19.8505 18.3389C20.3172 18.226 20.7527 18.0104 21.1256 17.7079C21.4984 17.4054 21.799 17.0236 22.0057 16.5902C22.2123 16.1569 22.3197 15.6829 22.32 15.2028V10.4052C22.32 10.1486 22.218 9.90256 22.0366 9.72112C21.8552 9.53968 21.6091 9.43774 21.3525 9.43774Z" fill="#5059C9"/>
<path d="M17.8047 10.4052V16.5327C17.8054 17.6683 17.4312 18.7723 16.7402 19.6734C16.0492 20.5746 15.0801 21.2224 13.9833 21.5165C12.8865 21.8106 11.7233 21.7343 10.6742 21.2997C9.62513 20.8651 8.74884 20.0963 8.18134 19.1127C8.05722 18.9065 7.9494 18.6908 7.85884 18.4677C7.77442 18.2574 7.70333 18.042 7.64599 17.8227C7.53966 17.401 7.4855 16.9677 7.48474 16.5327V10.4052C7.48457 10.2781 7.50948 10.1523 7.55804 10.0348C7.6066 9.91734 7.67786 9.81062 7.76774 9.72074C7.85761 9.63087 7.96434 9.55961 8.0818 9.51105C8.19925 9.46248 8.32514 9.43758 8.45224 9.43775H16.8372C16.9643 9.43758 17.0902 9.46248 17.2077 9.51105C17.3251 9.55961 17.4319 9.63087 17.5217 9.72074C17.6116 9.81062 17.6829 9.91734 17.7314 10.0348C17.78 10.1523 17.8049 10.2781 17.8047 10.4052Z" fill="#7B83EB"/>
<path opacity="0.2" d="M11.7856 6.85767H9.92542C10.1695 7.37239 10.5547 7.80727 11.0362 8.11178C11.5177 8.41629 12.0757 8.57791 12.6454 8.57788V7.71745C12.6447 7.48963 12.5539 7.27134 12.3928 7.11024C12.2317 6.94915 12.0134 6.85835 11.7856 6.85767Z" fill="#141414"/>
<path opacity="0.1" d="M13.2897 9.43775V17.6099C13.2897 17.8043 13.2232 17.9929 13.1012 18.1443C12.9791 18.2957 12.809 18.4007 12.6189 18.4419C12.5583 18.46 12.4952 18.4687 12.4319 18.4677H7.85884C7.77442 18.2574 7.70333 18.042 7.64599 17.8227C7.53966 17.401 7.4855 16.9677 7.48474 16.5327V10.4052C7.48457 10.2781 7.50948 10.1523 7.55804 10.0348C7.6066 9.91734 7.67786 9.81062 7.76774 9.72074C7.85761 9.63087 7.96434 9.55961 8.0818 9.51105C8.19925 9.46248 8.32514 9.43758 8.45224 9.43775H13.2897Z" fill="#141414"/>
<path opacity="0.2" d="M12.6447 9.43775V18.2549C12.6457 18.3182 12.637 18.3813 12.6189 18.4419C12.5777 18.632 12.4727 18.8021 12.3213 18.9242C12.1699 19.0462 11.9813 19.1128 11.7869 19.1127H8.18134C8.05722 18.9065 7.9494 18.6908 7.85884 18.4677C7.77442 18.2574 7.70333 18.042 7.64599 17.8227C7.53966 17.401 7.4855 16.9677 7.48474 16.5327V10.4052C7.48457 10.2781 7.50948 10.1523 7.55804 10.0348C7.6066 9.91734 7.67786 9.81062 7.76774 9.72074C7.85761 9.63087 7.96434 9.55961 8.0818 9.51105C8.19925 9.46248 8.32514 9.43758 8.45224 9.43775H12.6447Z" fill="#141414"/>
<path opacity="0.2" d="M12.6447 9.43775V16.9649C12.6437 17.1921 12.553 17.4097 12.3924 17.5704C12.2317 17.731 12.0141 17.8217 11.7869 17.8227H7.64599C7.53966 17.401 7.4855 16.9677 7.48474 16.5327V10.4052C7.48457 10.2781 7.50948 10.1523 7.55804 10.0348C7.6066 9.91734 7.67786 9.81062 7.76774 9.72074C7.85761 9.63087 7.96434 9.55961 8.0818 9.51105C8.19925 9.46248 8.32514 9.43758 8.45224 9.43775H12.6447Z" fill="#141414"/>
<path opacity="0.2" d="M8.45224 9.43775C8.32514 9.43758 8.19925 9.46248 8.0818 9.51105C7.96434 9.55961 7.85761 9.63087 7.76774 9.72074C7.67786 9.81062 7.6066 9.91734 7.55804 10.0348C7.50948 10.1523 7.48457 10.2781 7.48474 10.4052V16.5327C7.4855 16.9677 7.53966 17.401 7.64599 17.8227H11.1419C11.3691 17.8217 11.5867 17.731 11.7474 17.5704C11.908 17.4097 11.9987 17.1921 11.9997 16.9649V9.43775H8.45224Z" fill="#141414"/>
<path d="M2.53984 6.85767H11.1403C11.3683 6.85767 11.587 6.94825 11.7482 7.10949C11.9095 7.27073 12.0001 7.48942 12.0001 7.71745V16.3179C12.0001 16.5459 11.9095 16.7646 11.7482 16.9258C11.587 17.0871 11.3683 17.1777 11.1403 17.1777H2.53984C2.31181 17.1777 2.09312 17.0871 1.93188 16.9258C1.77064 16.7646 1.68005 16.5459 1.68005 16.3179L1.68005 7.71745C1.68005 7.48942 1.77064 7.27073 1.93188 7.10949C2.09312 6.94825 2.31181 6.85767 2.53984 6.85767Z" fill="#4B53BC"/>
<path d="M9.40715 10.0665H7.4786V15.2394H6.21311V10.0665H4.27295V8.7959H9.40715V10.0665Z" fill="white"/>
</svg>
