<svg width="24" height="24" viewBox="0 0 24 24" fill="none" xmlns="http://www.w3.org/2000/svg">
<path d="M16.8026 2.24688C16.9623 1.96003 17.1551 1.67993 17.5996 1.67993H20.6068C20.7861 1.67993 20.9268 1.74759 21.0026 1.87004C21.0811 1.99723 21.079 2.16502 20.9965 2.32942L14.4056 13.9829C14.4015 13.989 14.4015 13.9964 14.4056 14.0025L18.6022 21.6698C18.6854 21.8348 18.6874 22.0026 18.6083 22.1298C18.5325 22.2523 18.3925 22.3199 18.2132 22.3199H15.2398C14.7838 22.3199 14.5558 22.0168 14.4083 21.753C14.4083 21.753 10.1894 14.0133 10.1786 13.993C10.3896 13.6196 16.8026 2.24688 16.8026 2.24688Z" fill="#141414"/>
<path d="M4.68738 5.94206C4.76315 5.81893 4.91402 5.75601 5.0933 5.75601H8.07009C8.52676 5.75601 8.75069 6.0503 8.89886 6.31416C8.89886 6.31416 10.9332 9.8633 10.9454 9.88292C10.825 10.0954 7.73182 15.5659 7.73182 15.5659C7.5796 15.8406 7.36513 16.141 6.91997 16.141H3.94318C3.7639 16.141 3.62994 16.0604 3.55417 15.938C3.47569 15.8108 3.47163 15.6457 3.55417 15.4813L6.71701 9.89984C6.72039 9.89375 6.72039 9.88969 6.71701 9.88292L4.70429 6.39872C4.62107 6.23297 4.6089 6.06925 4.68738 5.94206Z" fill="#141414"/>
</svg>
