<svg width="24" height="24" viewBox="0 0 24 24" fill="none" xmlns="http://www.w3.org/2000/svg">
<path fill-rule="evenodd" clip-rule="evenodd" d="M22.0619 15.2408C22.2313 14.1857 22.3201 13.1035 22.3201 11.9999C22.3201 10.8964 22.2313 9.81422 22.0619 8.75908C21.5008 5.26604 18.7339 2.49913 15.2409 1.93812C14.1857 1.76865 13.1036 1.67993 12.0001 1.67993C10.8965 1.67993 9.81441 1.76865 8.75924 1.93812C5.26619 2.49913 2.49928 5.26604 1.93824 8.75909C1.76877 9.81422 1.68005 10.8964 1.68005 11.9999C1.68005 13.1035 1.76877 14.1857 1.93824 15.2408C2.49927 18.7338 5.26619 21.5007 8.75923 22.0618C9.8144 22.2312 10.8965 22.3199 12.0001 22.3199C13.1036 22.3199 14.1857 22.2312 15.2409 22.0618C18.7339 21.5008 21.5008 18.7338 22.0619 15.2408ZM13.1058 15.6857C13.7164 15.6857 14.2115 15.1906 14.2115 14.5799V10.5257C14.2115 9.30431 13.2214 8.31423 12 8.31423H7.20862C6.59795 8.31423 6.10291 8.80931 6.10291 9.41994V13.4742C6.10291 14.6956 7.09299 15.6857 8.31434 15.6857H13.1058ZM15.3909 10.1939L17.0126 8.97759C17.3771 8.70424 17.8972 8.9643 17.8972 9.41988V14.5799C17.8972 15.0355 17.3771 15.2955 17.0126 15.0222L15.3909 13.8059C15.1125 13.5971 14.9487 13.2694 14.9487 12.9213L14.9486 11.0785C14.9486 10.7304 15.1125 10.4027 15.3909 10.1939Z" fill="#141414"/>
</svg>
