<svg width="24" height="24" viewBox="0 0 24 24" fill="none" xmlns="http://www.w3.org/2000/svg">
<path d="M1.672 22.3199L3.12282 17.0198C2.22756 15.4683 1.75714 13.7096 1.758 11.9062C1.76058 6.26803 6.34868 1.67993 11.986 1.67993C14.7216 1.68079 17.2896 2.74633 19.2212 4.67961C21.1519 6.61289 22.2148 9.18257 22.214 11.9157C22.2114 17.5547 17.6233 22.1428 11.986 22.1428C10.2746 22.1419 8.58812 21.7128 7.0943 20.8975L1.672 22.3199ZM7.34542 19.0459C8.78678 19.9016 10.1628 20.4142 11.9825 20.415C16.6678 20.415 20.4845 16.6018 20.4871 11.9139C20.4888 7.21661 16.6902 3.40853 11.9894 3.40681C7.3007 3.40681 3.4866 7.22005 3.48488 11.9071C3.48402 13.8206 4.04474 15.2533 4.98644 16.7523L4.1273 19.8896L7.34542 19.0459ZM17.1382 14.3469C17.0746 14.2402 16.9043 14.1766 16.648 14.0485C16.3926 13.9203 15.1362 13.302 14.9014 13.2168C14.6675 13.1317 14.4972 13.0887 14.326 13.345C14.1558 13.6004 13.6656 14.1766 13.5168 14.3469C13.368 14.5172 13.2184 14.5387 12.9629 14.4105C12.7075 14.2824 11.8836 14.0132 10.9075 13.142C10.1482 12.4643 9.63474 11.6276 9.48596 11.3713C9.33718 11.1159 9.47048 10.9774 9.59776 10.8501C9.713 10.7357 9.85318 10.5517 9.98132 10.4021C10.1112 10.2541 10.1533 10.1475 10.2393 9.97635C10.3245 9.80607 10.2823 9.65643 10.2178 9.52829C10.1533 9.40101 9.64248 8.14283 9.43006 7.63113C9.22194 7.13319 9.01124 7.20027 8.85472 7.19253L8.36452 7.18393C8.19424 7.18393 7.91732 7.24757 7.6834 7.50385C7.44948 7.76013 6.789 8.37761 6.789 9.63579C6.789 10.894 7.7049 12.1092 7.83218 12.2794C7.96032 12.4497 9.63388 15.0314 12.1975 16.1383C12.8073 16.4014 13.2837 16.5588 13.6544 16.6766C14.2667 16.871 14.824 16.8435 15.2643 16.7781C15.7554 16.705 16.7762 16.1598 16.9895 15.5629C17.2027 14.9652 17.2027 14.4535 17.1382 14.3469Z" fill="#25D366"/>
</svg>
