<svg width="24" height="24" viewBox="0 0 24 24" fill="none" xmlns="http://www.w3.org/2000/svg">
<path d="M8.56036 5.09985C9.46345 5.09985 10.3588 5.27815 11.1934 5.62569C12.028 5.97194 12.7864 6.48098 13.4247 7.1218C14.0629 7.76262 14.5706 8.5236 14.9156 9.3608C15.2616 10.1982 15.4394 11.0955 15.4389 12.0016C15.4389 14.7923 13.7632 17.309 11.1921 18.3762C8.62108 19.4447 5.66245 18.8543 3.69477 16.8801C1.72709 14.9073 1.13924 11.9383 2.20383 9.3608C3.26842 6.78201 5.77744 5.10115 8.55907 5.10115L8.56036 5.09985ZM8.56036 14.0701C8.83176 14.0706 9.10059 14.0175 9.35138 13.9137C9.60216 13.8099 9.82993 13.6576 10.0216 13.4654C10.213 13.2728 10.3649 13.0446 10.4686 12.7936C10.572 12.5416 10.6249 12.2729 10.6249 12.0016C10.6249 11.1644 10.1224 10.4099 9.35105 10.0895C8.57974 9.76906 7.69215 9.94606 7.10172 10.5378C6.51128 11.1295 6.33428 12.0197 6.65469 12.7936C6.81028 13.1715 7.07458 13.4947 7.41408 13.7221C7.75358 13.9496 8.15298 14.0712 8.56165 14.0713L8.56036 14.0701Z" fill="#00AEEF"/>
<path d="M16.293 10.2756C18.041 10.7808 20.1043 10.2756 20.1043 10.2756C19.5061 12.8983 17.6069 14.5404 14.8692 14.7394C14.6056 15.3544 14.2529 15.9267 13.824 16.4396C13.3951 16.9525 12.8938 17.3996 12.3369 17.7678C11.7788 18.136 11.1716 18.4202 10.532 18.6114C9.89251 18.8026 9.22843 18.9008 8.56177 18.8995L10.6251 12.3195C12.7465 5.55599 13.8343 5.09863 18.8653 5.09863H22.32C21.7425 7.65158 19.7503 9.60247 16.293 10.2743V10.2756Z" fill="#008CCF"/>
</svg>
