<svg width="24" height="24" viewBox="0 0 24 24" fill="none" xmlns="http://www.w3.org/2000/svg">
<path d="M13.3557 12L15.3676 14.1922L18.0729 15.8403L18.5446 12.0135L18.0729 8.27222L15.3157 9.72017L13.3557 12Z" fill="#00832D"/>
<path d="M1.68005 15.4848V18.745C1.68005 19.4903 2.31333 20.094 3.0952 20.094H6.51515L7.22273 17.6298L6.51515 15.4848L4.16836 14.8103L1.68005 15.4848Z" fill="#0066DA"/>
<path d="M6.51515 3.90576L1.68005 8.51494L4.16836 9.18946L6.51515 8.51494L7.21094 6.39922L6.51515 3.90576Z" fill="#E94235"/>
<path d="M6.51515 8.51538H1.68005V15.4854H6.51515V8.51538Z" fill="#2684FC"/>
<path d="M21.1619 5.85761L18.0722 8.27237V15.8404L21.1761 18.2664C21.6407 18.6127 22.32 18.2968 22.32 17.7336V6.37923C22.32 5.80927 21.6254 5.49674 21.1619 5.85761ZM13.355 12.0002V15.4852H6.51514V20.0944H16.6571C17.4389 20.0944 18.0722 19.4907 18.0722 18.7453V15.8404L13.355 12.0002Z" fill="#00AC47"/>
<path d="M16.6571 3.90576H6.51514V8.51494H13.355V11.9999L18.0722 8.27437V5.25479C18.0722 4.50945 17.4389 3.90576 16.6571 3.90576Z" fill="#FFBA00"/>
</svg>
