<svg width="24" height="24" viewBox="0 0 24 24" fill="none" xmlns="http://www.w3.org/2000/svg">
<g clip-path="url(#clip0_1314_35497)">
<path d="M5.51479 5.29884C6.15635 5.82 6.39715 5.78044 7.60287 5.6996L18.9678 5.01762C19.2086 5.01762 19.0082 4.77682 18.9282 4.73726L17.0396 3.37244C16.6784 3.09208 16.196 2.77044 15.2723 2.85042L4.26865 3.65366C3.86789 3.69322 3.78705 3.89446 3.94701 4.05442L5.51479 5.29884ZM6.19677 7.94764V19.9051C6.19677 20.5475 6.51755 20.7883 7.24081 20.7479L19.7306 20.0255C20.4538 19.9859 20.5347 19.5439 20.5347 19.0219V7.1444C20.5347 6.62324 20.3343 6.34202 19.8914 6.38158L6.83919 7.1444C6.35759 7.18482 6.19677 7.42562 6.19677 7.94678V7.94764ZM18.5266 8.58834C18.6066 8.94954 18.5266 9.31074 18.1654 9.35202L17.5634 9.47242V18.2995C17.0405 18.5807 16.5589 18.7415 16.1573 18.7415C15.514 18.7415 15.3532 18.5403 14.8716 17.9391L10.9354 11.7592V17.7379L12.1806 18.02C12.1806 18.02 12.1806 18.7424 11.1762 18.7424L8.40525 18.9023C8.32527 18.7424 8.40525 18.3407 8.68647 18.2608L9.40887 18.0604V10.1544L8.40697 10.0736C8.32613 9.71236 8.52736 9.1912 9.08894 9.15078L12.0611 8.9504L16.1581 15.2103V9.67194L15.1132 9.5524C15.0333 9.11036 15.354 8.78958 15.7557 8.75002L18.5266 8.58834ZM3.34501 2.57006L14.7916 1.72726C16.1968 1.60686 16.5589 1.68684 17.4421 2.32926L21.0963 4.89722C21.6983 5.3384 21.8995 5.4588 21.8995 5.9404V20.0255C21.8995 20.9078 21.5787 21.4307 20.4547 21.5098L7.16083 22.3131C6.31803 22.3535 5.91555 22.2331 5.47351 21.6707L2.78257 18.1791C2.30097 17.5366 2.10059 17.0559 2.10059 16.4935V3.97358C2.10059 3.25204 2.42223 2.64918 3.34501 2.57006Z" fill="#2F3437"/>
<path d="M5.51479 5.29884C6.15635 5.82 6.39715 5.78044 7.60287 5.6996L18.9678 5.01762C19.2086 5.01762 19.0082 4.77682 18.9282 4.73726L17.0396 3.37244C16.6784 3.09208 16.196 2.77044 15.2723 2.85042L4.26865 3.65366C3.86789 3.69322 3.78705 3.89446 3.94701 4.05442L5.51479 5.29884Z" fill="white"/>
<path fill-rule="evenodd" clip-rule="evenodd" d="M6.19677 7.94764V19.9051C6.19677 20.5475 6.51755 20.7883 7.24081 20.7479L19.7306 20.0255C20.4538 19.9859 20.5347 19.5439 20.5347 19.0219V7.1444C20.5347 6.62324 20.3343 6.34202 19.8914 6.38158L6.83919 7.1444C6.35759 7.18482 6.19677 7.42562 6.19677 7.94678V7.94764ZM18.1654 9.35202C18.5266 9.31074 18.6066 8.94954 18.5266 8.58834L15.7557 8.75002C15.354 8.78958 15.0333 9.11036 15.1132 9.5524L16.1581 9.67194V15.2103L12.0611 8.9504L9.08894 9.15078C8.52736 9.1912 8.32613 9.71236 8.40697 10.0736L9.40887 10.1544V18.0604L8.68647 18.2608C8.40525 18.3407 8.32527 18.7424 8.40525 18.9023L11.1762 18.7424C12.1806 18.7424 12.1806 18.02 12.1806 18.02L10.9354 17.7379V11.7592L14.8716 17.9391L14.8725 17.9403C15.3534 18.5405 15.5144 18.7415 16.1573 18.7415C16.5589 18.7415 17.0405 18.5807 17.5634 18.2995V9.47242L18.1654 9.35202Z" fill="white"/>
</g>
<defs>
<clipPath id="clip0_1314_35497">
<rect width="20.64" height="20.64" fill="white" transform="translate(1.68005 1.67993)"/>
</clipPath>
</defs>
</svg>
