<svg width="24" height="24" viewBox="0 0 24 24" fill="none" xmlns="http://www.w3.org/2000/svg">
<path d="M4.25776 11.2983V12.7064C4.25776 13.4174 3.67984 13.9953 2.96891 13.9953C2.25797 13.9953 1.68005 13.4174 1.68005 12.7018V11.2937C1.68005 10.5828 2.25797 10.0049 2.96891 10.0049C3.67984 10.0049 4.25776 10.5828 4.25776 11.2983Z" fill="#0066D9"/>
<path d="M19.7422 11.3351C19.7422 11.3213 19.7422 11.3121 19.7422 11.2984C19.7422 10.5874 20.3201 10.0095 21.031 10.0095C21.742 10.0095 22.3199 10.5874 22.3199 11.2984C22.3199 11.3121 22.3199 11.3213 22.3199 11.3351V12.7432C22.3015 13.4403 21.7328 13.9953 21.031 13.9953C20.3293 13.9953 19.7605 13.4358 19.7422 12.7432V11.3351Z" fill="#4285F4"/>
<path d="M8.7154 15.5181V16.9262C8.7154 17.6371 8.13748 18.215 7.42655 18.215C6.71562 18.215 6.1377 17.6371 6.1377 16.9262V15.5181C6.1377 14.8071 6.71562 14.2292 7.42655 14.2292C8.13748 14.2292 8.7154 14.8071 8.7154 15.5181ZM8.7154 7.07401V11.679C8.70164 12.3762 8.12831 12.9404 7.42655 12.9404C6.72479 12.9404 6.15146 12.3808 6.1377 11.679V7.07401C6.1377 6.36308 6.71562 5.78516 7.42655 5.78516C8.13748 5.78516 8.7154 6.36308 8.7154 7.07401Z" fill="#EA4335"/>
<path d="M15.2859 8.48212C15.2859 9.19305 15.8638 9.77097 16.5747 9.77097C17.2857 9.77097 17.8636 9.19305 17.8636 8.48212V7.07401C17.8636 6.36308 17.2857 5.78516 16.5747 5.78516C15.8638 5.78516 15.2859 6.36308 15.2859 7.07401V8.48212Z" fill="#34A853"/>
<path d="M10.7118 4.37689C10.7118 5.08783 11.2897 5.66574 12.0006 5.66574C12.7116 5.66574 13.2895 5.08783 13.2895 4.37689V2.96878C13.2895 2.25785 12.7116 1.67993 12.0006 1.67993C11.2897 1.67993 10.7118 2.25785 10.7118 2.96878V4.37689ZM10.7118 19.623C10.7118 18.912 11.2897 18.3341 12.0006 18.3341C12.7116 18.3341 13.2895 18.912 13.2895 19.623V21.0311C13.2895 21.742 12.7116 22.3199 12.0006 22.3199C11.2897 22.3199 10.7118 21.742 10.7118 21.0311V19.623Z" fill="#FAB908"/>
<path d="M15.2859 12.3533C15.2859 11.6424 15.8638 11.0645 16.5747 11.0645C17.2857 11.0645 17.8636 11.6424 17.8636 12.3533V16.9262C17.8636 17.6371 17.2857 18.2151 16.5747 18.2151C15.8638 18.2151 15.2859 17.6371 15.2859 16.9262V12.3533Z" fill="#34A853"/>
<path d="M13.2895 8.24857V15.7524C13.2895 16.4633 12.7116 17.0412 12.0006 17.0412C11.2897 17.0412 10.7118 16.4633 10.7118 15.7524V8.24857C10.7118 7.53764 11.2897 6.95972 12.0006 6.95972C12.7116 6.95972 13.2895 7.53305 13.2895 8.24857Z" fill="#FAB908"/>
</svg>
