<svg width="24" height="24" viewBox="0 0 24 24" fill="none" xmlns="http://www.w3.org/2000/svg">
<path fill-rule="evenodd" clip-rule="evenodd" d="M20.1042 10.2756C20.1042 10.2756 18.0409 10.7808 16.2929 10.2756V10.2743C19.7502 9.60247 21.7424 7.65158 22.3199 5.09863H18.8652C15.8967 5.09863 14.3011 5.25786 13.0558 6.77775C12.5013 6.29709 11.8726 5.90752 11.1934 5.62575C10.3588 5.27821 9.46345 5.09992 8.56036 5.09992L8.55907 5.10121C5.77744 5.10121 3.26842 6.78207 2.20383 9.36086C1.13924 11.9384 1.72709 14.9073 3.69477 16.8802C5.63383 18.8256 8.53522 19.4273 11.0797 18.4219C11.1559 18.3918 11.2315 18.3604 11.3065 18.3276C12.9367 17.6162 14.1945 16.3169 14.8747 14.739C17.6094 14.5382 19.5064 12.8965 20.1042 10.2756ZM10.5403 12.5895L10.5179 12.661C10.503 12.7057 10.4866 12.7499 10.4686 12.7936C10.3649 13.0446 10.213 13.2729 10.0216 13.4655C9.82993 13.6576 9.60216 13.81 9.35138 13.9138C9.10059 14.0175 8.83176 14.0707 8.56036 14.0701L8.56165 14.0714C8.15298 14.0712 7.75358 13.9497 7.41408 13.7222C7.07458 13.4947 6.81028 13.1715 6.65469 12.7936C6.33428 12.0198 6.51128 11.1296 7.10172 10.5379C7.69215 9.94613 8.57974 9.76913 9.35105 10.0895C10.1224 10.4099 10.6249 11.1645 10.6249 12.0017C10.6249 12.2009 10.5964 12.3987 10.5403 12.5895Z" fill="#141414"/>
</svg>
