<svg width="24" height="24" viewBox="0 0 24 24" fill="none" xmlns="http://www.w3.org/2000/svg">
<path fill-rule="evenodd" clip-rule="evenodd" d="M4.82532 5.54156C4.82532 3.40884 6.55423 1.67993 8.68695 1.67993H15.3131C17.4458 1.67993 19.1747 3.40884 19.1747 5.54156C19.1747 6.89201 18.4815 8.08055 17.4315 8.77077C18.4815 9.46098 19.1747 10.6495 19.1747 12C19.1747 14.1327 17.4458 15.8616 15.3131 15.8616H15.2292C14.2294 15.8616 13.3183 15.4816 12.6325 14.8582V18.4163C12.6325 20.5775 10.8584 22.3199 8.70779 22.3199C6.58037 22.3199 4.82532 20.5963 4.82532 18.4583C4.82532 17.1079 5.51848 15.9193 6.56842 15.2291C5.51848 14.5389 4.82532 13.3504 4.82532 12C4.82532 10.6495 5.51851 9.46098 6.5685 8.77077C5.51851 8.08055 4.82532 6.89201 4.82532 5.54156ZM11.3676 11.9915C11.3675 11.9943 11.3675 11.9971 11.3675 12C11.3675 12.0028 11.3675 12.0056 11.3676 12.0084V14.5966H8.68695L8.67289 14.5966C7.24523 14.5891 6.09023 13.4294 6.09023 12C6.09023 10.5658 7.25282 9.40325 8.68695 9.40325H11.3676V11.9915ZM12.6325 12.0066C12.636 13.4377 13.7972 14.5967 15.2292 14.5967H15.3131C16.7472 14.5967 17.9098 13.4341 17.9098 12C17.9098 10.5658 16.7472 9.40325 15.3131 9.40325H15.2292C13.7972 9.40325 12.636 10.5623 12.6325 11.9934V12.0066ZM8.68695 15.8616L8.67289 15.8616C7.24523 15.8691 6.09023 17.0288 6.09023 18.4583C6.09023 19.8871 7.26835 21.055 8.70779 21.055C10.1704 21.055 11.3676 19.8683 11.3676 18.4163V15.8616H8.68695ZM8.68695 2.94485H11.3675V8.13829H8.68695C7.25282 8.13829 6.09023 6.9757 6.09023 5.54156C6.09023 4.10744 7.25282 2.94485 8.68695 2.94485ZM12.6325 2.94485V8.13829H15.3131C16.7472 8.13829 17.9098 6.9757 17.9098 5.54156C17.9098 4.10744 16.7472 2.94485 15.3131 2.94485H12.6325Z" fill="#141414"/>
</svg>
