<svg width="24" height="24" viewBox="0 0 24 24" fill="none" xmlns="http://www.w3.org/2000/svg">
<path d="M22.3194 12.1104C17.7495 12.2505 15.6635 12.3685 13.9902 13.9901C12.3686 15.6634 12.258 17.7494 12.1106 22.3193C17.7224 22.2603 22.2605 17.7222 22.3194 12.1104Z" fill="#141414"/>
<path d="M11.8894 22.3193C11.7493 17.7494 11.6313 15.6634 10.0097 13.9901C8.33643 12.3685 6.25042 12.2578 1.68054 12.1104C1.73946 17.7222 6.27755 22.2603 11.8894 22.3193Z" fill="#141414"/>
<path d="M22.3194 11.8892C22.2605 6.27743 17.7224 1.73934 12.1105 1.68042C12.2506 6.2503 12.3686 8.33631 13.9902 10.0096C15.6635 11.6312 17.7495 11.7418 22.3194 11.8892Z" fill="#141414"/>
<path d="M11.8894 1.68042C6.27755 1.73934 1.73946 6.27743 1.68054 11.8892C6.25042 11.7492 8.33643 11.6312 10.0097 10.0096C11.6313 8.33631 11.742 6.2503 11.8894 1.68042Z" fill="#141414"/>
</svg>
