<svg width="24" height="24" viewBox="0 0 24 24" fill="none" xmlns="http://www.w3.org/2000/svg">
<path d="M9.74998 7.29048C7.60171 8.76769 5.33427 10.3138 1.68132 10.3142C1.69324 6.47977 1.81834 4.44341 3.13094 3.13081C4.58182 1.67993 6.91696 1.67993 11.5873 1.67993H12.4129C17.0832 1.67993 19.4183 1.67993 20.8692 3.13081C21.9013 4.16291 22.1993 5.64249 22.2853 8.09182C21.6402 7.56987 20.6898 6.81154 19.5498 6.17605C18.357 5.51109 16.9004 4.9478 15.3024 4.9478C13.155 4.9478 11.4573 6.11585 9.84895 7.2224L9.74998 7.29048Z" fill="#141414"/>
<path fill-rule="evenodd" clip-rule="evenodd" d="M22.3201 11.5798C22.3201 11.0478 22.3201 10.5461 22.3179 10.0726C22.1336 10.0743 21.9473 10.017 21.7893 9.89654C21.6448 9.78639 21.4774 9.65081 21.3015 9.50838L21.2925 9.5011C20.6432 8.9753 19.7614 8.26319 18.7124 7.67838C17.6621 7.09291 16.5002 6.6678 15.3024 6.6678C13.7372 6.6678 12.4579 7.51583 10.7245 8.70775L10.6958 8.72754C8.53427 10.2139 5.88719 12.0342 1.68006 12.0342L1.68005 12.4127C1.68005 17.083 1.68005 19.4182 3.13093 20.8691C4.51758 22.2557 6.71194 22.3171 10.9806 22.3198C11.1784 22.3199 11.3805 22.3199 11.5873 22.3199H12.4129C12.6197 22.3199 12.8217 22.3199 13.0195 22.3198C17.2882 22.3171 19.4825 22.2557 20.8692 20.8691C22.3201 19.4182 22.3201 17.083 22.3201 12.4127V11.5798ZM14.3739 9.82759C14.3739 9.31747 14.7926 8.90395 15.3027 8.90395C15.8128 8.90395 16.2315 9.31747 16.2315 9.82759V18.3003C16.2315 18.8104 15.8128 19.224 15.3027 19.224C14.7926 19.224 14.3739 18.8104 14.3739 18.3003V9.82759ZM17.6762 12.2012C17.6762 11.6911 18.0949 11.2776 18.605 11.2776C19.1151 11.2776 19.5338 11.6911 19.5338 12.2012V15.9267C19.5338 16.4368 19.1151 16.8504 18.605 16.8504C18.0949 16.8504 17.6762 16.4368 17.6762 15.9267V12.2012ZM11.0715 12.2012C11.0715 11.6911 11.4902 11.2776 12.0003 11.2776C12.5104 11.2776 12.9291 11.6911 12.9291 12.2012V15.9267C12.9291 16.4368 12.5104 16.8504 12.0003 16.8504C11.4902 16.8504 11.0715 16.4368 11.0715 15.9267V12.2012ZM7.76866 13.5427C7.76866 13.0326 8.18736 12.6191 8.69746 12.6191C9.20758 12.6191 9.62626 13.0326 9.62626 13.5427V14.5851C9.62626 15.0952 9.20758 15.5087 8.69746 15.5087C8.18736 15.5087 7.76866 15.0952 7.76866 14.5851V13.5427ZM4.46626 13.5427C4.46626 13.0326 4.88496 12.6191 5.39506 12.6191C5.90518 12.6191 6.32386 13.0326 6.32386 13.5427V14.5851C6.32386 15.0952 5.90518 15.5087 5.39506 15.5087C4.88496 15.5087 4.46626 15.0952 4.46626 14.5851V13.5427Z" fill="#141414"/>
</svg>
