<svg width="24" height="24" viewBox="0 0 24 24" fill="none" xmlns="http://www.w3.org/2000/svg">
<path d="M8.56005 22.32C10.4589 22.32 12.0001 20.7789 12.0001 18.88V15.4399H8.56005C6.66115 15.4399 5.12 16.9811 5.12 18.88C5.12 20.7789 6.66115 22.32 8.56005 22.32Z" fill="#0ACF83"/>
<path d="M5.12 12.0001C5.12 10.1012 6.66115 8.56006 8.56005 8.56006H12.0001V15.44H8.56005C6.66115 15.4401 5.12 13.899 5.12 12.0001Z" fill="#A259FF"/>
<path d="M5.12 5.11996C5.12 3.22108 6.66115 1.67993 8.56005 1.67993H12.0001V8.5599H8.56005C6.66115 8.5599 5.12 7.01884 5.12 5.11996Z" fill="#F24E1E"/>
<path d="M11.9999 1.67993H15.4399C17.3388 1.67993 18.88 3.22108 18.88 5.11996C18.88 7.01884 17.3388 8.5599 15.4399 8.5599H11.9999V1.67993Z" fill="#FF7262"/>
<path d="M18.88 12.0001C18.88 13.899 17.3388 15.4401 15.4399 15.4401C13.541 15.4401 11.9999 13.899 11.9999 12.0001C11.9999 10.1012 13.541 8.56006 15.4399 8.56006C17.3388 8.56006 18.88 10.1012 18.88 12.0001Z" fill="#1ABCFE"/>
</svg>
