<svg width="24" height="24" viewBox="0 0 24 24" fill="none" xmlns="http://www.w3.org/2000/svg">
<path fill-rule="evenodd" clip-rule="evenodd" d="M14.3569 2.13515C16.3037 1.12062 18.714 1.85968 19.7386 3.78628C20.7632 5.71289 20.0158 8.09636 18.069 9.11089L16.4683 9.95242C17.8473 10.0028 19.1625 10.7603 19.8512 12.0554C20.8758 13.982 20.13 16.3655 18.1815 17.38L9.64538 21.8648C7.69862 22.8793 5.28827 22.1402 4.26367 20.2136C3.23906 18.287 3.98652 15.9035 5.93327 14.889L7.53402 14.0475C6.15499 13.9971 4.8398 13.2396 4.15113 11.9445C3.12652 10.0179 3.87398 7.63445 5.82074 6.61992L14.3569 2.13515ZM9.74952 8.82367L14.9162 12.0134L9.74952 15.188V8.82367Z" fill="#F40407"/>
<path fill-rule="evenodd" clip-rule="evenodd" d="M9.74951 8.82373L14.9162 12.0135L9.74951 15.1881V8.82373Z" fill="white"/>
</svg>
