<svg width="24" height="24" viewBox="0 0 24 24" fill="none" xmlns="http://www.w3.org/2000/svg">
<path fill-rule="evenodd" clip-rule="evenodd" d="M22.3201 11.9999C22.3201 17.6995 17.6996 22.3199 12.0001 22.3199C6.30048 22.3199 1.68005 17.6995 1.68005 11.9999C1.68005 6.30035 6.30048 1.67993 12.0001 1.67993C17.6996 1.67993 22.3201 6.30035 22.3201 11.9999ZM12.3699 9.29861C11.3661 9.71612 9.35997 10.5802 6.35148 11.891C5.86295 12.0853 5.60703 12.2753 5.58374 12.4612C5.54437 12.7752 5.93767 12.8989 6.47324 13.0673C6.54609 13.0902 6.62158 13.1139 6.69896 13.1391C7.22588 13.3104 7.93468 13.5108 8.30316 13.5187C8.6374 13.5259 9.01046 13.3881 9.42232 13.1053C12.2332 11.2079 13.6843 10.2488 13.7754 10.2281C13.8396 10.2135 13.9287 10.1952 13.989 10.2488C14.0494 10.3025 14.0434 10.404 14.037 10.4313C13.9981 10.5974 12.4542 12.0327 11.6553 12.7755C11.4062 13.007 11.2296 13.1713 11.1934 13.2088C11.1125 13.2928 11.0301 13.3723 10.9508 13.4487C10.4613 13.9206 10.0942 14.2745 10.9712 14.8524C11.3926 15.1301 11.7298 15.3597 12.0662 15.5888C12.4336 15.839 12.8001 16.0886 13.2742 16.3994C13.395 16.4786 13.5104 16.5608 13.6228 16.641C14.0504 16.9458 14.4345 17.2196 14.9091 17.176C15.1848 17.1506 15.4697 16.8913 15.6144 16.1179C15.9562 14.2902 16.6283 10.3302 16.7836 8.69837C16.7972 8.5554 16.78 8.37243 16.7663 8.29211C16.7526 8.21178 16.7238 8.09734 16.6194 8.01263C16.4958 7.9123 16.3049 7.89114 16.2195 7.89264C15.8314 7.89948 15.2358 8.10655 12.3699 9.29861Z" fill="#141414"/>
</svg>
