<svg width="24" height="24" viewBox="0 0 24 24" fill="none" xmlns="http://www.w3.org/2000/svg">
<path d="M6.1018 14.679C6.1018 15.8653 5.14293 16.8242 3.95654 16.8242C2.77015 16.8242 1.81128 15.8653 1.81128 14.679C1.81128 13.4926 2.77015 12.5337 3.95654 12.5337H6.1018V14.679ZM7.17443 14.679C7.17443 13.4926 8.1333 12.5337 9.31969 12.5337C10.5061 12.5337 11.4649 13.4926 11.4649 14.679V20.0421C11.4649 21.2285 10.5061 22.1874 9.31969 22.1874C8.1333 22.1874 7.17443 21.2285 7.17443 20.0421V14.679Z" fill="#E01E5A"/>
<path d="M9.31983 6.06518C8.13343 6.06518 7.17457 5.10631 7.17457 3.91992C7.17457 2.73352 8.13343 1.77466 9.31983 1.77466C10.5062 1.77466 11.4651 2.73352 11.4651 3.91992V6.06518H9.31983ZM9.31983 7.15406C10.5062 7.15406 11.4651 8.11293 11.4651 9.29932C11.4651 10.4857 10.5062 11.4446 9.31983 11.4446H3.94043C2.75403 11.4446 1.79517 10.4857 1.79517 9.29932C1.79517 8.11293 2.75403 7.15406 3.94043 7.15406H9.31983Z" fill="#36C5F0"/>
<path d="M17.9171 9.29932C17.9171 8.11293 18.876 7.15406 20.0624 7.15406C21.2488 7.15406 22.2076 8.11293 22.2076 9.29932C22.2076 10.4857 21.2488 11.4446 20.0624 11.4446H17.9171V9.29932ZM16.8445 9.29932C16.8445 10.4857 15.8856 11.4446 14.6992 11.4446C13.5128 11.4446 12.554 10.4857 12.554 9.29932V3.91992C12.554 2.73352 13.5128 1.77466 14.6992 1.77466C15.8856 1.77466 16.8445 2.73352 16.8445 3.91992V9.29932Z" fill="#2EB67D"/>
<path d="M14.6992 17.8968C15.8856 17.8968 16.8445 18.8557 16.8445 20.0421C16.8445 21.2285 15.8856 22.1874 14.6992 22.1874C13.5128 22.1874 12.554 21.2285 12.554 20.0421V17.8968H14.6992ZM14.6992 16.8242C13.5128 16.8242 12.554 15.8653 12.554 14.679C12.554 13.4926 13.5128 12.5337 14.6992 12.5337H20.0786C21.265 12.5337 22.2239 13.4926 22.2239 14.679C22.2239 15.8653 21.265 16.8242 20.0786 16.8242H14.6992Z" fill="#ECB22E"/>
</svg>
