<svg width="24" height="24" viewBox="0 0 24 24" fill="none" xmlns="http://www.w3.org/2000/svg">
<circle cx="12.0015" cy="11.9999" r="10.32" fill="#FFABE7"/>
<path fill-rule="evenodd" clip-rule="evenodd" d="M12.0012 20.5999C16.7509 20.5999 20.6012 16.7496 20.6012 11.9999C20.6012 7.25025 16.7509 3.3999 12.0012 3.3999C7.2516 3.3999 3.40125 7.25025 3.40125 11.9999C3.40125 16.7496 7.2516 20.5999 12.0012 20.5999ZM13.8665 19.0142C13.2713 19.172 12.6461 19.2562 12.0012 19.2562C11.0254 19.2562 10.0945 19.0635 9.24455 18.7142C10.0511 15.7372 12.2814 13.605 14.8363 12.6554C15.2794 14.8029 14.9494 17.1059 13.8665 19.0142ZM15.7763 18.1981C16.4693 16.3107 16.6058 14.2317 16.1811 12.2714C17.2064 12.0644 18.2523 12.0454 19.2538 12.2343C19.1736 14.7611 17.8015 16.962 15.7763 18.1981ZM19.1595 10.8045C18.0507 10.6418 16.909 10.6894 15.7942 10.9275C15.5782 10.3215 15.3055 9.73769 14.9807 9.18334C15.897 8.6541 16.7325 7.98568 17.4479 7.20525C18.3247 8.20052 18.933 9.43802 19.1595 10.8045ZM16.4298 6.25132C15.7846 6.95772 15.0255 7.55845 14.1929 8.02668C13.6309 7.31239 12.9808 6.66929 12.2559 6.1171L12.2384 6.10377L12.2202 6.09165C12.2201 6.0916 12.2186 6.09055 12.2153 6.08821C12.2114 6.08548 12.2062 6.08179 12.1996 6.07698C12.1862 6.06726 12.1696 6.05498 12.1498 6.04009C12.1272 6.02319 12.1045 6.0061 12.0802 5.98774L12.0752 5.984C12.0555 5.96912 12.0347 5.95338 12.0118 5.93622C11.9624 5.89907 11.9083 5.85867 11.8585 5.82301C11.8237 5.79808 11.7737 5.76283 11.7227 5.73174L11.6903 5.70934C11.6239 5.66334 11.524 5.5942 11.4334 5.53854C11.3487 5.47918 11.2343 5.41155 11.1593 5.36765C11.0868 5.32517 11.0087 5.28059 10.9601 5.25288L10.9229 5.23158C10.9139 5.22637 10.9062 5.22204 10.903 5.22025L10.9023 5.2199C10.8967 5.21674 10.8904 5.21328 10.8847 5.21017L10.8771 5.20597C10.8663 5.20001 10.8555 5.19405 10.8442 5.18777C10.8313 5.1806 10.8209 5.17468 10.8133 5.17025L10.808 5.16659L10.7895 5.15527C10.7225 5.11433 10.6527 5.07694 10.6148 5.05664L10.6008 5.04914L10.5846 5.04042L10.568 5.03256C10.532 5.01559 10.4775 4.9896 10.416 4.96031L10.4146 4.95962C10.3953 4.95043 10.3752 4.94087 10.355 4.93121C10.8839 4.80851 11.435 4.74365 12.0012 4.74365C13.6685 4.74365 15.2045 5.30598 16.4298 6.25132ZM8.44388 5.674C7.36762 6.28054 6.46169 7.1538 5.81578 8.20411C6.58412 8.59378 7.40938 8.86911 8.25952 9.02046L8.26135 9.02078L8.26318 9.02113C9.31375 9.21393 10.3968 9.20877 11.4571 9.01761C11.9435 8.92979 12.4212 8.79922 12.8847 8.62963C12.4491 8.11434 11.9598 7.64684 11.4244 7.23741C11.3877 7.21199 11.3471 7.18181 11.3139 7.15695C11.2887 7.13814 11.2592 7.11583 11.23 7.09382L11.2292 7.09324C11.2099 7.07865 11.1908 7.06424 11.1733 7.05109C11.1254 7.01507 11.0819 6.98269 11.0459 6.95689C11.0225 6.94012 11.009 6.93106 11.0035 6.92733C11.0014 6.92594 11.0005 6.92529 11.0005 6.92526L10.9799 6.91365L10.9557 6.89723C10.92 6.87304 10.8883 6.85108 10.8592 6.83095L10.8589 6.83076C10.7952 6.78667 10.7441 6.75133 10.6923 6.72058L10.6584 6.7004L10.6278 6.67722C10.6287 6.67791 10.6281 6.67756 10.6259 6.67607L10.6256 6.67587C10.6202 6.67227 10.6059 6.66278 10.5795 6.6464C10.5441 6.62445 10.5007 6.59851 10.4542 6.57131C10.3884 6.53278 10.3284 6.49856 10.281 6.4715L10.2754 6.46829C10.2556 6.45699 10.2381 6.44701 10.2235 6.43858L10.222 6.43775L10.2106 6.4314L10.2051 6.42842C10.1944 6.42251 10.18 6.41458 10.1653 6.40644C10.1482 6.3969 10.1274 6.38518 10.1072 6.37333C10.0961 6.36685 10.0754 6.3547 10.0523 6.33971C10.0239 6.32277 9.99344 6.30641 9.95716 6.28692L9.95555 6.28604C9.91215 6.2655 9.85813 6.23976 9.8008 6.2124C9.69293 6.16096 9.57323 6.1039 9.49016 6.06527L9.48121 6.06111L9.44366 6.04234C9.3121 5.98135 9.15461 5.92163 8.97823 5.85476L8.97762 5.85453C8.93922 5.83997 8.89993 5.82507 8.8598 5.80975C8.75102 5.7707 8.63805 5.73515 8.51971 5.69791L8.51943 5.69782C8.49449 5.68997 8.46931 5.68205 8.44388 5.674ZM5.20292 9.45737C6.08835 9.90419 7.03698 10.2195 8.01302 10.3934C9.23482 10.6175 10.4866 10.61 11.7049 10.3904C12.3983 10.2652 13.0753 10.0658 13.7244 9.80005C14.0133 10.2804 14.2563 10.7865 14.4496 11.3119C11.5349 12.3617 8.99132 14.7338 7.98535 18.0445C6.03208 16.7442 4.745 14.5224 4.745 11.9999C4.745 11.1054 4.90687 10.2486 5.20292 9.45737Z" fill="#B8509A"/>
</svg>
