<svg width="24" height="24" viewBox="0 0 24 24" fill="none" xmlns="http://www.w3.org/2000/svg">
<path d="M22.32 12C22.32 6.30041 17.6996 1.67998 12 1.67998C6.30048 1.67998 1.68005 6.30041 1.68005 12C1.68005 16.8398 5.01197 20.9008 9.50698 22.0161V15.1536H7.37892V12H9.50698V10.6411C9.50698 7.12848 11.0966 5.5004 14.5451 5.5004C15.1989 5.5004 16.3271 5.62858 16.7886 5.75679V8.6156C16.545 8.58996 16.1219 8.57712 15.5963 8.57712C13.9041 8.57712 13.2503 9.21812 13.2503 10.8847V12H16.6212L16.0421 15.1536H13.2503V22.2444C18.3602 21.6272 22.32 17.2763 22.32 12Z" fill="#0866FF"/>
<path d="M16.0421 15.1537L16.6212 12.0001H13.2503V10.8847C13.2503 9.21818 13.9041 8.57722 15.5963 8.57722C16.1219 8.57722 16.545 8.59002 16.7886 8.61566V5.7569C16.327 5.62868 15.1989 5.50046 14.5451 5.50046C11.0966 5.50046 9.50697 7.12859 9.50697 10.6412V12.0001H7.37891V15.1537H9.50697V22.0162C10.3054 22.2142 11.1403 22.3201 12 22.3201C12.4233 22.3201 12.8404 22.294 13.2503 22.2445V15.1537H16.0421Z" fill="white"/>
</svg>
