<svg width="24" height="24" viewBox="0 0 24 24" fill="none" xmlns="http://www.w3.org/2000/svg">
<path d="M15.87 8.14767C16.2609 8.14767 16.6427 8.18016 17.0194 8.2266C16.3384 5.23599 13.1973 2.97388 9.42018 2.97388C5.14499 2.97388 1.68005 5.86982 1.68005 9.44113C1.68005 11.5002 2.83855 13.3269 4.63545 14.5089L3.61502 16.5552L6.39483 15.3613C6.99093 15.5736 7.61035 15.7484 8.27196 15.8298C8.18155 15.4351 8.13017 15.0305 8.13017 14.6152C8.13017 11.049 11.6014 8.14767 15.87 8.14767ZM12.0002 5.88395C12.5344 5.88395 12.9676 6.31851 12.9676 6.85417C12.9676 7.39 12.5344 7.82425 12.0002 7.82425C11.4657 7.82425 11.0327 7.39 11.0327 6.85417C11.0327 6.31847 11.4657 5.88395 12.0002 5.88395ZM6.84008 7.82425C6.30581 7.82425 5.87259 7.39 5.87259 6.85417C5.87259 6.31851 6.30586 5.88395 6.84008 5.88395C7.3743 5.88395 7.8076 6.31851 7.8076 6.85417C7.80756 7.39 7.37425 7.82425 6.84008 7.82425Z" fill="#51C332"/>
<path d="M22.3201 14.6152C22.3201 11.7577 19.4315 9.44113 15.87 9.44113C12.3083 9.44113 9.42018 11.7577 9.42018 14.6152C9.42018 17.4724 12.3083 19.789 15.87 19.789C16.4557 19.789 17.0129 19.7062 17.5534 19.5887L21.0301 21.0824L19.8277 18.6729C21.3345 17.7258 22.3201 16.2695 22.3201 14.6152ZM13.9351 14.2917C13.4008 14.2917 12.9675 13.8574 12.9675 13.3214C12.9675 12.7858 13.4008 12.3515 13.9351 12.3515C14.4695 12.3515 14.9025 12.786 14.9025 13.3214C14.9025 13.8574 14.4694 14.2917 13.9351 14.2917ZM17.805 14.2917C17.2705 14.2917 16.8376 13.8574 16.8376 13.3214C16.8376 12.7858 17.2705 12.3515 17.805 12.3515C18.3394 12.3515 18.7725 12.786 18.7725 13.3214C18.7725 13.8574 18.3394 14.2917 17.805 14.2917Z" fill="#51C332"/>
</svg>
