<svg width="24" height="24" viewBox="0 0 24 24" fill="none" xmlns="http://www.w3.org/2000/svg">
<path d="M12.0001 22.3199C17.6996 22.3199 22.3201 17.6995 22.3201 11.9999C22.3201 6.30035 17.6996 1.67993 12.0001 1.67993C6.30048 1.67993 1.68005 6.30035 1.68005 11.9999C1.68005 17.6995 6.30048 22.3199 12.0001 22.3199Z" fill="#FF0000"/>
<path d="M12 7.07456C14.709 7.07456 16.9255 9.27929 16.9255 12C16.9255 14.7207 14.7207 16.9255 12 16.9255C9.27929 16.9255 7.07456 14.7207 7.07456 12C7.07456 9.27929 9.29101 7.07456 12 7.07456ZM12 6.60547C9.02129 6.60547 6.60547 9.02129 6.60547 12C6.60547 14.9787 9.02129 17.3946 12 17.3946C14.9787 17.3946 17.3946 14.9787 17.3946 12C17.3946 9.02129 14.9787 6.60547 12 6.60547Z" fill="white"/>
<path d="M10.1237 14.6973L14.6973 11.8827L10.1237 9.30273V14.6973Z" fill="white"/>
</svg>
