<svg width="24" height="24" viewBox="0 0 24 24" fill="none" xmlns="http://www.w3.org/2000/svg">
<path d="M10.8331 7.12558C11.137 6.82169 11.5503 6.63936 12 6.63936C12.4619 6.63936 12.8752 6.82169 13.167 7.12558C13.4709 7.42947 13.6532 7.84275 13.6532 8.29251C13.6532 8.75441 13.4709 9.1677 13.167 9.45943C12.8631 9.76332 12.4498 9.94565 12 9.94565C11.5381 9.94565 11.1248 9.76332 10.8331 9.45943C10.5292 9.15555 10.3469 8.74226 10.3469 8.29251C10.3469 7.84275 10.5414 7.42947 10.8331 7.12558Z" fill="#141414"/>
<path fill-rule="evenodd" clip-rule="evenodd" d="M3.12655 3.12643C1.68005 4.57294 1.68005 6.91894 1.68005 11.5866V12.4132C1.68005 17.0931 1.68005 19.4269 3.12655 20.8734C4.57305 22.3199 6.91906 22.3199 11.5868 22.3199H12.4133C17.081 22.3199 19.427 22.3199 20.8736 20.8734C22.3201 19.4269 22.3201 17.0809 22.3201 12.4132V11.5866C22.3201 6.91894 22.3201 4.57294 20.8736 3.12643C19.427 1.67993 17.081 1.67993 12.4133 1.67993H11.5868C6.91906 1.67993 4.58521 1.67993 3.12655 3.12643ZM12 11.9513C13.0089 11.9513 13.9206 11.538 14.577 10.8816C15.2334 10.2252 15.6467 9.31357 15.6467 8.30466C15.6467 7.29576 15.2334 6.3841 14.577 5.7277C13.9206 5.0713 13.0089 4.65802 12 4.65802C10.9911 4.65802 10.0795 5.0713 9.42308 5.7277C8.76669 6.3841 8.3534 7.29576 8.3534 8.30466C8.3534 9.31357 8.76669 10.2252 9.42308 10.8816C10.0795 11.538 11.0033 11.9513 12 11.9513ZM16.6917 13.5308L15.622 12.0721C15.5612 11.987 15.4397 11.9749 15.3667 12.0478C14.3578 12.9109 13.118 13.47 11.7809 13.47C10.4438 13.47 9.20391 12.9109 8.195 12.0478C8.12207 11.987 8.00051 11.9992 7.93974 12.0721L6.87006 13.5308C6.82143 13.6037 6.83359 13.701 6.89437 13.7617C7.79387 14.4911 8.83924 14.9894 9.93324 15.2447L7.67232 19.2317C7.61154 19.3411 7.69663 19.487 7.81818 19.487H10.0305C10.1034 19.487 10.1642 19.4505 10.1885 19.3776L11.7687 15.8525L13.3489 19.3776C13.3732 19.4384 13.434 19.487 13.5069 19.487H15.7192C15.853 19.487 15.9259 19.3533 15.8651 19.2317L13.6042 15.2447C14.6982 14.9894 15.7436 14.5032 16.6431 13.7617C16.7403 13.701 16.7525 13.6037 16.6917 13.5308Z" fill="#141414"/>
</svg>
