<svg width="24" height="24" viewBox="0 0 24 24" fill="none" xmlns="http://www.w3.org/2000/svg">
<path fill-rule="evenodd" clip-rule="evenodd" d="M12.0086 1.6521C6.29718 1.6521 1.68005 6.30326 1.68005 12.0574C1.68005 16.657 4.6384 20.5504 8.74242 21.9284C9.25553 22.032 9.44348 21.7045 9.44348 21.4291C9.44348 21.1878 9.42656 20.361 9.42656 19.4995C6.55341 20.1197 5.95511 18.2591 5.95511 18.2591C5.49337 17.0532 4.80923 16.7432 4.80923 16.7432C3.86885 16.1058 4.87773 16.1058 4.87773 16.1058C5.92086 16.1747 6.46821 17.1739 6.46821 17.1739C7.39147 18.7586 8.87921 18.3109 9.47773 18.0352C9.56314 17.3633 9.83692 16.8982 10.1276 16.6398C7.83608 16.3986 5.42508 15.5028 5.42508 11.506C5.42508 10.369 5.83523 9.43878 6.48513 8.71531C6.38259 8.45696 6.02339 7.38867 6.58787 5.95886C6.58787 5.95886 7.45997 5.68318 9.42635 7.02694C10.2682 6.79917 11.1364 6.68331 12.0086 6.68233C12.8807 6.68233 13.7697 6.80305 14.5906 7.02694C16.5572 5.68318 17.4293 5.95886 17.4293 5.95886C17.9938 7.38867 17.6344 8.45696 17.5318 8.71531C18.1989 9.43878 18.5921 10.369 18.5921 11.506C18.5921 15.5028 16.1811 16.3813 13.8724 16.6398C14.2488 16.9671 14.5735 17.5872 14.5735 18.5692C14.5735 19.9646 14.5566 21.0844 14.5566 21.4288C14.5566 21.7045 14.7447 22.032 15.2576 21.9286C19.3617 20.5502 22.32 16.657 22.32 12.0574C22.3369 6.30326 17.7029 1.6521 12.0086 1.6521Z" fill="#141414"/>
</svg>
