<svg width="24" height="24" viewBox="0 0 24 24" fill="none" xmlns="http://www.w3.org/2000/svg">
<path d="M20.7922 1.67993H3.20387C2.36133 1.67993 1.68005 2.34509 1.68005 3.16746V20.8284C1.68005 21.6507 2.36133 22.3199 3.20387 22.3199H20.7922C21.6347 22.3199 22.3201 21.6507 22.3201 20.8324V3.16746C22.3201 2.34509 21.6347 1.67993 20.7922 1.67993ZM7.80352 19.2683H4.73977V9.4159H7.80352V19.2683ZM6.27165 8.07349C5.28802 8.07349 4.49387 7.27934 4.49387 6.29974C4.49387 5.32015 5.28802 4.52599 6.27165 4.52599C7.25124 4.52599 8.0454 5.32015 8.0454 6.29974C8.0454 7.27531 7.25124 8.07349 6.27165 8.07349ZM19.2684 19.2683H16.2087V14.4791C16.2087 13.3383 16.1885 11.8669 14.6163 11.8669C13.024 11.8669 12.7821 13.1126 12.7821 14.3985V19.2683H9.72643V9.4159H12.6612V10.7623H12.7015C13.1086 9.98834 14.1084 9.16999 15.5959 9.16999C18.696 9.16999 19.2684 11.2098 19.2684 13.8624V19.2683Z" fill="#141414"/>
</svg>
