<svg width="24" height="24" viewBox="0 0 24 24" fill="none" xmlns="http://www.w3.org/2000/svg">
<path fill-rule="evenodd" clip-rule="evenodd" d="M3.84069 11.0264C8.91948 8.8136 12.3061 7.35481 14.0007 6.65C18.8389 4.63761 19.8442 4.28803 20.4995 4.27649C20.6436 4.27395 20.9658 4.30967 21.1745 4.47904C21.3508 4.62206 21.3993 4.81525 21.4225 4.95085C21.4457 5.08644 21.4746 5.39533 21.4516 5.63669C21.1894 8.3915 20.055 15.0767 19.4778 18.1621C19.2336 19.4677 18.7527 19.9054 18.2872 19.9483C17.2755 20.0414 16.5073 19.2797 15.5274 18.6373C13.994 17.6322 13.1278 17.0065 11.6394 16.0257C9.91934 14.8922 11.0344 14.2692 12.0147 13.251C12.2712 12.9846 16.7288 8.92997 16.8151 8.56216C16.8259 8.51616 16.8359 8.34468 16.734 8.25414C16.6322 8.1636 16.4818 8.19456 16.3733 8.21918C16.2195 8.25409 13.77 9.87315 9.02474 13.0764C8.32945 13.5538 7.69968 13.7864 7.13542 13.7742C6.51338 13.7608 5.31681 13.4225 4.42729 13.1334C3.33625 12.7787 2.46911 12.5912 2.54462 11.9889C2.58395 11.6752 3.01597 11.3543 3.84069 11.0264Z" fill="#141414"/>
</svg>
