<svg width="24" height="24" viewBox="0 0 24 24" fill="none" xmlns="http://www.w3.org/2000/svg">
<path d="M15.7117 3.48068C17.5574 3.0885 19.557 3.66126 20.9124 5.16411C22.2684 6.66531 22.634 8.7121 22.0555 10.5075L22.0552 10.5108C21.9905 10.71 21.8493 10.8753 21.6628 10.9705C21.4763 11.0657 21.2596 11.0829 21.0604 11.0185C20.9615 10.9867 20.8699 10.9357 20.7908 10.8685C20.7117 10.8012 20.6466 10.719 20.5993 10.6266C20.552 10.5342 20.5234 10.4333 20.5152 10.3298C20.5069 10.2263 20.5192 10.1221 20.5513 10.0234C20.7615 9.37447 20.7969 8.68135 20.6545 8.01426C20.512 7.34716 20.1964 6.72934 19.7395 6.22291C18.7751 5.15587 17.3543 4.7475 16.0413 5.02634C15.9399 5.04802 15.8351 5.04949 15.733 5.03068C15.631 5.01187 15.5336 4.97314 15.4465 4.91671C15.3594 4.86027 15.2843 4.78724 15.2254 4.70177C15.1666 4.6163 15.1251 4.52007 15.1034 4.41859C15.0818 4.3171 15.0803 4.21233 15.0991 4.11027C15.1179 4.00821 15.1566 3.91085 15.2131 3.82376C15.2695 3.73667 15.3425 3.66154 15.428 3.60268C15.5135 3.54381 15.6103 3.50236 15.7117 3.48068Z" fill="#141414"/>
<path fill-rule="evenodd" clip-rule="evenodd" d="M6.52203 14.28C7.22817 12.8471 9.06611 12.0367 10.6922 12.4599C12.3748 12.8949 13.2335 14.4822 12.5455 16.0241C11.8481 17.6016 9.84251 18.4422 8.14069 17.8936C6.49843 17.3631 5.80272 15.7411 6.52203 14.28ZM9.94845 15.0116C10.1554 15.097 10.4194 14.9987 10.539 14.794C10.6532 14.5884 10.5791 14.3571 10.3727 14.2816C10.1699 14.2012 9.91579 14.2986 9.79668 14.4984C9.68086 14.6993 9.74481 14.9277 9.94845 15.0116ZM7.87887 16.7066C8.41212 16.95 9.1199 16.7189 9.45033 16.1917C9.77527 15.659 9.60402 15.0506 9.06886 14.8223C8.53973 14.6005 7.85582 14.8289 7.52951 15.3407C7.19853 15.8547 7.35359 16.4676 7.87887 16.7066Z" fill="#141414"/>
<path fill-rule="evenodd" clip-rule="evenodd" d="M16.8471 10.8821C16.6951 11.2639 16.8943 11.3234 17.185 11.4101C18.3689 11.7773 19.6865 12.6652 19.6865 14.2298C19.6865 16.8188 15.9524 20.0803 10.3393 20.0803C6.05714 20.0803 1.68005 18.0053 1.68005 14.592C1.68005 12.8076 2.81048 10.7441 4.75738 8.7969C7.35745 6.19793 10.3892 5.01398 11.529 6.15484C12.032 6.65734 12.0809 7.5276 11.7576 8.56691C11.5978 9.06305 12.1824 8.82817 12.2437 8.80356C12.2471 8.80221 12.2488 8.80149 12.2488 8.80156C14.3502 7.92142 16.1835 7.8701 16.8534 8.82708C17.2108 9.33755 17.1767 10.0527 16.8471 10.8821ZM3.76197 15.4066C3.98427 17.6501 6.93371 19.1941 10.3505 18.8571C13.7676 18.519 16.3575 16.4267 16.136 14.1828C15.9143 11.9404 12.9646 10.3958 9.5475 10.7339C6.13124 11.0717 3.54023 13.1635 3.76197 15.4066Z" fill="#141414"/>
<path d="M18.8305 7.04266C18.1707 6.31072 17.1968 6.03271 16.2974 6.224C16.2079 6.24037 16.1226 6.27453 16.0466 6.32446C15.9705 6.37439 15.9053 6.43906 15.8547 6.51466C15.804 6.59026 15.7691 6.67525 15.7519 6.76459C15.7348 6.85392 15.7357 6.9458 15.7547 7.03478C15.7736 7.12375 15.8103 7.20801 15.8624 7.28258C15.9145 7.35714 15.9811 7.42049 16.0581 7.46888C16.1351 7.51726 16.2211 7.5497 16.3109 7.56426C16.4007 7.57883 16.4925 7.57523 16.5809 7.55367C16.8043 7.50589 17.0364 7.5182 17.2539 7.58833C17.4714 7.65846 17.6666 7.78449 17.82 7.95381C17.9732 8.12355 18.0789 8.33067 18.1264 8.5543C18.174 8.77792 18.1617 9.01013 18.0909 9.2275C18.0354 9.39917 18.0509 9.58585 18.133 9.74651C18.215 9.90717 18.3575 10.0287 18.5292 10.0843C18.7009 10.1397 18.8876 10.1246 19.0482 10.0424C19.2089 9.96012 19.3302 9.81746 19.3857 9.64575C19.6684 8.7711 19.4916 7.77433 18.8305 7.04266Z" fill="#141414"/>
</svg>
