<svg width="24" height="24" viewBox="0 0 24 24" fill="none" xmlns="http://www.w3.org/2000/svg">
<path d="M12.0001 1.67993C6.18731 1.67993 1.68005 5.93939 1.68005 11.6901C1.68005 14.6983 2.91329 17.2988 4.92053 19.0945C5.08823 19.2441 5.19143 19.4556 5.19659 19.6827L5.25335 21.5196C5.25749 21.6547 5.29476 21.7868 5.36189 21.9042C5.42902 22.0216 5.52395 22.1207 5.63835 22.1928C5.75274 22.2649 5.8831 22.3078 6.01796 22.3177C6.15282 22.3276 6.28805 22.3043 6.41177 22.2497L8.46029 21.3467C8.63315 21.2693 8.82923 21.2564 9.01241 21.3055C9.95411 21.5634 10.9552 21.7028 12.0001 21.7028C17.8128 21.7028 22.3201 17.4433 22.3201 11.6926C22.3201 5.94197 17.8128 1.67993 12.0001 1.67993Z" fill="url(#paint0_radial_1314_35710)"/>
<path d="M5.80285 14.6184L8.83435 9.80939C8.94839 9.62834 9.09873 9.47289 9.27588 9.35287C9.45302 9.23284 9.65313 9.15085 9.86357 9.11206C10.074 9.07327 10.2902 9.07853 10.4985 9.12751C10.7068 9.17648 10.9027 9.26811 11.0738 9.39661L13.4861 11.2051C13.5938 11.2858 13.7248 11.3291 13.8593 11.3287C13.9939 11.3282 14.1246 11.2839 14.2317 11.2026L17.4877 8.73098C17.9211 8.40075 18.4887 8.9219 18.1997 9.38371L15.1657 14.1901C15.0516 14.3712 14.9013 14.5266 14.7241 14.6466C14.547 14.7667 14.3469 14.8487 14.1364 14.8874C13.926 14.9262 13.7098 14.921 13.5015 14.872C13.2932 14.823 13.0973 14.7314 12.9262 14.6029L10.5139 12.7944C10.4062 12.7137 10.2752 12.6704 10.1407 12.6709C10.0062 12.6713 9.87544 12.7156 9.76831 12.797L6.51235 15.2685C6.07891 15.5988 5.51131 15.0802 5.80285 14.6184Z" fill="white"/>
<defs>
<radialGradient id="paint0_radial_1314_35710" cx="0" cy="0" r="1" gradientUnits="userSpaceOnUse" gradientTransform="translate(5.13725 22.3194) scale(22.704 22.7034)">
<stop stop-color="#0099FF"/>
<stop offset="0.6" stop-color="#A033FF"/>
<stop offset="0.9" stop-color="#FF5280"/>
<stop offset="1" stop-color="#FF7061"/>
</radialGradient>
</defs>
</svg>
