<svg width="24" height="24" viewBox="0 0 24 24" fill="none" xmlns="http://www.w3.org/2000/svg">
<path d="M9.63459 5.56734C9.63459 5.78879 9.6585 6.00466 9.70388 6.2125H12.4303C12.6581 6.21318 12.8764 6.30398 13.0375 6.46507C13.1986 6.62617 13.2894 6.84446 13.2901 7.07228V8.50805C13.1969 8.52845 13.1031 8.54432 13.0091 8.55573C14.4998 8.37588 15.655 7.10652 15.655 5.56734C15.655 3.90485 14.3073 2.55713 12.6448 2.55713C10.9823 2.55713 9.63459 3.90485 9.63459 5.56734Z" fill="#141414"/>
<path d="M21.6754 6.53494C21.6754 7.78173 20.6647 8.79244 19.4179 8.79244C18.1711 8.79244 17.1604 7.78173 17.1604 6.53494C17.1604 5.28816 18.1711 4.27744 19.4179 4.27744C20.6647 4.27744 21.6754 5.28816 21.6754 6.53494Z" fill="#141414"/>
<path d="M21.3525 9.4376C21.6091 9.4376 21.8552 9.53953 22.0366 9.72098C22.2181 9.90242 22.32 10.1485 22.32 10.4051V15.2026C22.3197 15.6827 22.2123 16.1567 22.0057 16.5901C21.7991 17.0234 21.4984 17.4053 21.1256 17.7078C20.7528 18.0103 20.3172 18.2259 19.8505 18.3388C19.3839 18.4517 18.898 18.4591 18.4281 18.3605C18.1302 18.2917 17.8455 18.1824 17.5813 18.0372C17.4025 18.6247 17.1189 19.1795 16.7403 19.6733C16.0493 20.5744 15.0802 21.2223 13.9834 21.5164C12.8866 21.8104 11.7233 21.7342 10.6743 21.2996C9.62518 20.8649 8.74889 20.0962 8.18139 19.1126C8.05728 18.9063 7.94945 18.6907 7.85889 18.4676H12.4319C12.4952 18.4686 12.5583 18.4599 12.619 18.4418C12.809 18.4006 12.9792 18.2955 13.1012 18.1441C13.2233 17.9928 13.2898 17.8042 13.2898 17.6098V9.4376L21.3525 9.4376Z" fill="#141414"/>
<path fill-rule="evenodd" clip-rule="evenodd" d="M2.53984 6.8575H11.1403C11.3683 6.8575 11.587 6.94808 11.7482 7.10932C11.9095 7.27056 12.0001 7.48925 12.0001 7.71728V16.3177C12.0001 16.5457 11.9095 16.7644 11.7482 16.9257C11.587 17.0869 11.3683 17.1775 11.1403 17.1775H2.53984C2.31181 17.1775 2.09312 17.0869 1.93188 16.9257C1.77064 16.7644 1.68005 16.5457 1.68005 16.3177V7.71728C1.68005 7.48925 1.77064 7.27056 1.93188 7.10932C2.09312 6.94808 2.31181 6.8575 2.53984 6.8575ZM9.40722 10.0665H7.47867V15.2394H6.21318V10.0665H4.27302V8.7958H9.40722V10.0665Z" fill="#141414"/>
</svg>
