<svg width="24" height="24" viewBox="0 0 24 24" fill="none" xmlns="http://www.w3.org/2000/svg">
<path d="M1.68005 11.5866C1.68005 6.91894 1.68005 4.57294 3.12655 3.12643C4.58521 1.67993 6.91906 1.67993 11.5868 1.67993H12.4133C17.081 1.67993 19.427 1.67993 20.8736 3.12643C22.3201 4.57294 22.3201 6.91894 22.3201 11.5866V12.4132C22.3201 17.0809 22.3201 19.4269 20.8736 20.8734C19.427 22.3199 17.081 22.3199 12.4133 22.3199H11.5868C6.91906 22.3199 4.57305 22.3199 3.12655 20.8734C1.68005 19.4269 1.68005 17.0931 1.68005 12.4132V11.5866Z" fill="#FF7700"/>
<path fill-rule="evenodd" clip-rule="evenodd" d="M14.5769 10.8818C13.9205 11.5382 13.0088 11.9515 11.9999 11.9515C11.0032 11.9515 10.0794 11.5382 9.42299 10.8818C8.7666 10.2254 8.35331 9.31375 8.35331 8.30485C8.35331 7.29594 8.7666 6.38428 9.42299 5.72789C10.0794 5.07149 10.991 4.6582 11.9999 4.6582C13.0088 4.6582 13.9205 5.07149 14.5769 5.72789C15.2333 6.38428 15.6466 7.29594 15.6466 8.30485C15.6466 9.31375 15.2333 10.2254 14.5769 10.8818ZM11.9999 6.63955C11.5502 6.63955 11.1369 6.82188 10.833 7.12577C10.5413 7.42965 10.3468 7.84294 10.3468 8.29269C10.3468 8.74244 10.5291 9.15573 10.833 9.45962C11.1247 9.76351 11.538 9.94584 11.9999 9.94584C12.4497 9.94584 12.863 9.76351 13.1669 9.45962C13.4708 9.16789 13.6531 8.7546 13.6531 8.29269C13.6531 7.84294 13.4708 7.42965 13.1669 7.12577C12.8751 6.82188 12.4619 6.63955 11.9999 6.63955Z" fill="white"/>
<path d="M15.6219 12.0723L16.6916 13.531C16.7524 13.6039 16.7402 13.7012 16.643 13.7619C15.7435 14.5034 14.6981 14.9896 13.6041 15.2449L15.865 19.2319C15.9258 19.3535 15.8529 19.4872 15.7192 19.4872H13.5069C13.4339 19.4872 13.3731 19.4385 13.3488 19.3778L11.7686 15.8527L10.1884 19.3778C10.1641 19.4507 10.1033 19.4872 10.0304 19.4872H7.81809C7.69654 19.4872 7.61145 19.3413 7.67223 19.2319L9.93315 15.2449C8.83916 14.9896 7.79378 14.4913 6.89428 13.7619C6.8335 13.7012 6.82135 13.6039 6.86997 13.531L7.93965 12.0723C8.00043 11.9994 8.12198 11.9872 8.19492 12.048C9.20382 12.911 10.4437 13.4702 11.7808 13.4702C13.1179 13.4702 14.3577 12.911 15.3666 12.048C15.4396 11.9751 15.5611 11.9872 15.6219 12.0723Z" fill="white"/>
</svg>
