<svg width="24" height="24" viewBox="0 0 24 24" fill="none" xmlns="http://www.w3.org/2000/svg">
<path d="M19.1527 5.22379C17.8372 4.62017 16.4265 4.17546 14.9515 3.92075C14.9246 3.91583 14.8978 3.92812 14.884 3.95269C14.7025 4.27537 14.5016 4.69634 14.3608 5.02722C12.7744 4.78971 11.1961 4.78971 9.64221 5.02722C9.50145 4.68898 9.29319 4.27537 9.11095 3.95269C9.09711 3.92894 9.07028 3.91665 9.04342 3.92075C7.56926 4.17464 6.15856 4.61936 4.84222 5.22379C4.83082 5.22871 4.82105 5.2369 4.81457 5.24754C2.13877 9.24513 1.40576 13.1445 1.76535 16.9955C1.76698 17.0143 1.77755 17.0323 1.7922 17.0438C3.55761 18.3403 5.26772 19.1273 6.94607 19.649C6.97293 19.6572 7.00139 19.6474 7.01849 19.6253C7.4155 19.0831 7.76941 18.5114 8.07284 17.9103C8.09075 17.8751 8.07366 17.8333 8.03706 17.8194C7.47571 17.6064 6.94119 17.3468 6.42702 17.052C6.38635 17.0282 6.3831 16.97 6.42051 16.9422C6.52871 16.8611 6.63694 16.7768 6.74025 16.6916C6.75895 16.676 6.78499 16.6727 6.80697 16.6826C10.1848 18.2248 13.8418 18.2248 17.1798 16.6826C17.2018 16.6719 17.2278 16.6752 17.2473 16.6908C17.3507 16.7759 17.4589 16.8611 17.5679 16.9422C17.6053 16.97 17.6029 17.0282 17.5622 17.052C17.048 17.3525 16.5135 17.6064 15.9513 17.8186C15.9147 17.8325 15.8985 17.8751 15.9164 17.9103C16.2263 18.5106 16.5802 19.0823 16.9699 19.6245C16.9862 19.6474 17.0155 19.6572 17.0423 19.649C18.7288 19.1273 20.4389 18.3403 22.2043 17.0438C22.2198 17.0323 22.2296 17.0151 22.2312 16.9963C22.6615 12.5441 21.5104 8.67675 19.1795 5.24836C19.1738 5.2369 19.1641 5.22871 19.1527 5.22379ZM8.57727 14.6506C7.5603 14.6506 6.72235 13.717 6.72235 12.5703C6.72235 11.4237 7.54405 10.49 8.57727 10.49C9.6186 10.49 10.4484 11.4319 10.4322 12.5703C10.4322 13.717 9.61046 14.6506 8.57727 14.6506ZM15.4355 14.6506C14.4186 14.6506 13.5806 13.717 13.5806 12.5703C13.5806 11.4237 14.4023 10.49 15.4355 10.49C16.4769 10.49 17.3067 11.4319 17.2905 12.5703C17.2905 13.717 16.4769 14.6506 15.4355 14.6506Z" fill="#5865F2"/>
</svg>
