<svg width="24" height="24" viewBox="0 0 24 24" fill="none" xmlns="http://www.w3.org/2000/svg">
<path fill-rule="evenodd" clip-rule="evenodd" d="M3.13089 3.13081C1.72342 4.53828 1.68131 6.77791 1.68005 11.1742C5.61981 11.1742 8.0796 9.48278 10.2372 7.99912C11.9229 6.84008 13.424 5.80781 15.3024 5.80781C18.0982 5.80781 20.5393 7.78458 21.8337 8.83277C22.0162 8.98057 22.176 9.10992 22.3107 9.21264C22.2698 6.07819 22.05 4.31164 20.8691 3.13081C19.4183 1.67993 17.0831 1.67993 12.4128 1.67993L11.5872 1.67993C6.91691 1.67993 4.58176 1.67993 3.13089 3.13081ZM10.9804 22.3198C11.1782 22.3199 11.3804 22.3199 11.5872 22.3199H12.4128C12.6196 22.3199 12.8218 22.3199 13.0196 22.3198H10.9804Z" fill="#0077FF"/>
<path fill-rule="evenodd" clip-rule="evenodd" d="M1.68009 11.1743C5.61985 11.1742 8.07965 9.48283 10.2373 7.99917C11.9229 6.84013 13.4241 5.80786 15.3024 5.80786C18.0982 5.80786 20.5394 7.78464 21.8337 8.83282C22.0163 8.98062 22.176 9.10997 22.3107 9.2127C22.32 9.92953 22.32 10.7179 22.32 11.5872V12.4128C22.32 17.0831 22.32 19.4182 20.8692 20.8691C19.4825 22.2558 17.2882 22.3171 13.0195 22.3199H10.9806C6.71194 22.3171 4.51757 22.2558 3.13093 20.8691C1.68005 19.4182 1.68005 17.0831 1.68005 12.4128L1.68005 11.5872C1.68005 11.4475 1.68005 11.3098 1.68009 11.1743Z" fill="#F45FFF"/>
<path d="M17.676 12.2012C17.676 11.6911 18.0947 11.2776 18.6048 11.2776C19.1149 11.2776 19.5336 11.6911 19.5336 12.2012V15.9267C19.5336 16.4368 19.1149 16.8504 18.6048 16.8504C18.0947 16.8504 17.676 16.4368 17.676 15.9267V12.2012Z" fill="white"/>
<path d="M14.3738 9.82769C14.3738 9.31758 14.7925 8.90405 15.3026 8.90405C15.8127 8.90405 16.2314 9.31758 16.2314 9.82769V18.3004C16.2314 18.8105 15.8127 19.2241 15.3026 19.2241C14.7925 19.2241 14.3738 18.8105 14.3738 18.3004V9.82769Z" fill="white"/>
<path d="M11.0714 12.2012C11.0714 11.6911 11.4901 11.2776 12.0002 11.2776C12.5103 11.2776 12.929 11.6911 12.929 12.2012V15.9267C12.929 16.4368 12.5103 16.8504 12.0002 16.8504C11.4901 16.8504 11.0714 16.4368 11.0714 15.9267V12.2012Z" fill="white"/>
<path d="M7.76855 13.5428C7.76855 13.0327 8.18726 12.6191 8.69735 12.6191C9.20747 12.6191 9.62615 13.0327 9.62615 13.5428V14.5851C9.62615 15.0952 9.20747 15.5087 8.69735 15.5087C8.18726 15.5087 7.76855 15.0952 7.76855 14.5851V13.5428Z" fill="white"/>
<path d="M4.46619 13.5428C4.46619 13.0327 4.88489 12.6191 5.39499 12.6191C5.9051 12.6191 6.32379 13.0327 6.32379 13.5428V14.5851C6.32379 15.0952 5.9051 15.5087 5.39499 15.5087C4.88489 15.5087 4.46619 15.0952 4.46619 14.5851V13.5428Z" fill="white"/>
</svg>
