<svg width="24" height="24" viewBox="0 0 24 24" fill="none" xmlns="http://www.w3.org/2000/svg">
<path fill-rule="evenodd" clip-rule="evenodd" d="M17.7498 12.1393L19.6085 10.293C21.5339 8.38048 21.5339 5.26549 19.6085 3.35296C17.6831 1.44042 14.5472 1.44042 12.6218 3.35296L11.9451 4.02519C11.0491 2.747 9.57173 1.91382 7.88464 1.91382C5.1586 1.91382 2.94727 4.1104 2.94727 6.81824V17.4508C2.94727 20.1587 5.1586 22.3552 7.88464 22.3552C9.57173 22.3552 11.0491 21.5221 11.9451 20.2439L12.6218 20.9161C14.5472 22.8287 17.6831 22.8287 19.6085 20.9161C21.5339 19.0036 21.5339 15.8886 19.6085 13.9761L17.7498 12.1393Z" fill="#141414"/>
</svg>
