<svg width="24" height="24" viewBox="0 0 24 24" fill="none" xmlns="http://www.w3.org/2000/svg">
<path fill-rule="evenodd" clip-rule="evenodd" d="M20.5933 21.3017C21.2538 20.7926 21.7147 20.0771 21.9143 19.5679C22.3133 18.5428 22.3202 17.3801 22.3202 16.6439V7.35593C22.3202 6.62665 22.3202 5.45705 21.9143 4.43193C21.7147 3.92281 21.2469 3.20041 20.5933 2.69817C20.2149 2.40233 19.7608 2.12713 19.1416 1.94137C18.4743 1.74873 17.6624 1.67993 16.6442 1.67993H7.35618C6.33794 1.67993 5.5261 1.74873 4.85874 1.94137C4.23954 2.12713 3.78546 2.40921 3.40706 2.69817C2.74658 3.20729 2.28562 3.92281 2.0861 4.43193C1.68706 5.45705 1.68018 6.61977 1.68018 7.35593V16.6439C1.68018 17.3801 1.68706 18.5428 2.0861 19.5679C2.28562 20.0771 2.75346 20.7995 3.40706 21.3017C3.78546 21.5975 4.23954 21.8727 4.85874 22.0585C5.5261 22.2511 6.33794 22.3199 7.35618 22.3199H16.6442C17.6624 22.3199 18.4811 22.258 19.1416 22.0585C19.7608 21.8727 20.2149 21.5907 20.5933 21.3017ZM4.74176 11.133C4.7968 7.18393 8.0304 3.97785 11.9795 3.96409C15.9906 3.95721 19.2586 7.21833 19.2723 11.2225C19.2723 14.3873 17.2427 17.0842 14.415 18.075C14.3462 18.1025 14.2706 18.0475 14.2843 17.9718L14.3875 17.2287C14.3944 17.1393 14.4494 17.0636 14.532 17.0292C16.768 16.0454 18.3366 13.8162 18.3366 11.2225C18.3366 7.71369 15.4677 4.86537 11.952 4.89289C8.51888 4.92041 5.71184 7.72057 5.67744 11.1606C5.64992 13.7819 7.22544 16.0454 9.48208 17.0292C9.55776 17.0705 9.6128 17.1393 9.62656 17.2287C9.6449 17.3938 9.66938 17.559 9.69384 17.7241C9.70606 17.8066 9.7183 17.8893 9.72976 17.9718C9.73664 18.0406 9.66784 18.1025 9.59904 18.075C6.74384 17.0705 4.70048 14.3322 4.74176 11.133ZM13.6926 10.6308C13.6926 11.5665 12.9358 12.3233 12.0002 12.3233C11.0645 12.3233 10.3077 11.5665 10.3077 10.6308C10.3077 9.69513 11.0645 8.93833 12.0002 8.93833C12.9358 8.93833 13.6926 9.70201 13.6926 10.6308ZM13.4931 13.5479C13.6582 13.713 13.7408 13.8919 13.7683 14.1396C13.8234 14.6212 13.7958 15.034 13.7339 15.7014C13.6789 16.3343 13.5757 17.1737 13.445 18.0337C13.3486 18.646 13.273 18.9762 13.2042 19.2102C13.0941 19.5886 12.6675 19.9257 12.0002 19.9257C11.3328 19.9257 10.9131 19.5954 10.7962 19.2102C10.7274 18.9762 10.6517 18.646 10.5554 18.0337C10.4246 17.1806 10.3214 16.3343 10.2664 15.7014L10.2658 15.6939C10.2111 15.0309 10.1772 14.6194 10.232 14.1396C10.2595 13.8919 10.349 13.7199 10.5072 13.5479C10.8168 13.2177 11.3603 13.0113 12.0002 13.0113C12.64 13.0113 13.1835 13.2246 13.4931 13.5479ZM11.8144 6.37209C9.24129 6.46841 7.17729 8.59433 7.14289 11.1674C7.12225 12.8599 7.96849 14.3598 9.26881 15.2473C9.33073 15.2886 9.42017 15.2404 9.42017 15.1647C9.39953 14.8689 9.39953 14.6074 9.41329 14.3322C9.42017 14.2428 9.38577 14.1602 9.31697 14.0983C8.52577 13.3553 8.04417 12.2958 8.07169 11.1262C8.12673 9.06217 9.78481 7.38345 11.8488 7.30089C14.0917 7.21145 15.9355 9.01401 15.9355 11.2294C15.9355 12.3577 15.4539 13.3759 14.6902 14.0983C14.6283 14.1602 14.5939 14.2428 14.5939 14.3322C14.6077 14.6006 14.6008 14.862 14.587 15.1578C14.5802 15.2335 14.6696 15.2886 14.7384 15.2404C16.0181 14.3666 16.8643 12.8874 16.8643 11.2225C16.8712 8.48425 14.5802 6.26201 11.8144 6.37209Z" fill="#141414"/>
</svg>
