<svg width="24" height="24" viewBox="0 0 24 24" fill="none" xmlns="http://www.w3.org/2000/svg">
<path fill-rule="evenodd" clip-rule="evenodd" d="M21.9141 19.5679C21.7146 20.0771 21.2537 20.7926 20.5932 21.3017C20.2148 21.5907 19.7607 21.8727 19.1415 22.0585C18.481 22.258 17.6623 22.3199 16.6441 22.3199H7.35605C6.33781 22.3199 5.52597 22.2511 4.85861 22.0585C4.23941 21.8727 3.78533 21.5975 3.40693 21.3017C2.75333 20.7995 2.28549 20.0771 2.08597 19.5679C1.68693 18.5428 1.68005 17.3801 1.68005 16.6439V7.35593C1.68005 6.61977 1.68693 5.45705 2.08597 4.43193C2.28549 3.92281 2.74645 3.20729 3.40693 2.69817C3.78533 2.40921 4.23941 2.12713 4.85861 1.94137C5.52597 1.74873 6.33781 1.67993 7.35605 1.67993H16.6441C17.6623 1.67993 18.4741 1.74873 19.1415 1.94137C19.7607 2.12713 20.2148 2.40233 20.5932 2.69817C21.2468 3.20041 21.7146 3.92281 21.9141 4.43193C22.3201 5.45705 22.3201 6.62665 22.3201 7.35593V16.6439C22.3201 17.3801 22.3132 18.5428 21.9141 19.5679Z" fill="url(#paint0_linear_1314_35605)"/>
<path d="M13.7682 14.1398C13.7407 13.8921 13.6581 13.7132 13.493 13.5481C13.1834 13.2248 12.6399 13.0115 12 13.0115C11.3602 13.0115 10.8167 13.2179 10.5071 13.5481C10.3488 13.7201 10.2594 13.8921 10.2319 14.1398C10.1768 14.6214 10.2112 15.0342 10.2663 15.7016C10.3213 16.3345 10.4245 17.1808 10.5552 18.0339C10.6515 18.6462 10.7272 18.9764 10.796 19.2104C10.913 19.5956 11.3327 19.9259 12 19.9259C12.6674 19.9259 13.0939 19.5888 13.204 19.2104C13.2728 18.9764 13.3485 18.6462 13.4448 18.0339C13.5755 17.1739 13.6787 16.3345 13.7338 15.7016C13.7957 15.0342 13.8232 14.6214 13.7682 14.1398Z" fill="white"/>
<path d="M13.6925 10.6307C13.6925 11.5664 12.9357 12.3232 12 12.3232C11.0643 12.3232 10.3075 11.5664 10.3075 10.6307C10.3075 9.69503 11.0643 8.93823 12 8.93823C12.9357 8.93823 13.6925 9.70191 13.6925 10.6307Z" fill="white"/>
<path d="M11.9793 3.96412C8.03022 3.97788 4.79662 7.18396 4.74158 11.1331C4.7003 14.3323 6.74366 17.0705 9.59886 18.075C9.66766 18.1025 9.73646 18.0406 9.72958 17.9718C9.69518 17.7241 9.6539 17.4764 9.62638 17.2288C9.61262 17.1393 9.55758 17.0705 9.4819 17.0292C7.22526 16.0454 5.64974 13.7819 5.67726 11.1606C5.71166 7.7206 8.5187 4.92044 11.9518 4.89292C15.4675 4.8654 18.3365 7.71372 18.3365 11.2225C18.3365 13.8163 16.7678 16.0454 14.5318 17.0292C14.4493 17.0636 14.3942 17.1393 14.3873 17.2288C14.3529 17.4764 14.3185 17.7241 14.2841 17.9718C14.2704 18.0475 14.3461 18.1025 14.4149 18.075C17.2425 17.0843 19.2721 14.3873 19.2721 11.2225C19.2584 7.21836 15.9904 3.95724 11.9793 3.96412Z" fill="white"/>
<path d="M11.8142 6.37208C9.2411 6.4684 7.1771 8.59432 7.1427 11.1674C7.12206 12.8599 7.9683 14.3598 9.26862 15.2473C9.33054 15.2886 9.41998 15.2404 9.41998 15.1647C9.39934 14.8689 9.39934 14.6074 9.4131 14.3322C9.41998 14.2428 9.38558 14.1602 9.31678 14.0983C8.52558 13.3553 8.04398 12.2958 8.0715 11.1262C8.12654 9.06217 9.78462 7.38344 11.8486 7.30088C14.0915 7.21144 15.9353 9.01401 15.9353 11.2294C15.9353 12.3577 15.4537 13.3759 14.6901 14.0983C14.6281 14.1602 14.5937 14.2428 14.5937 14.3322C14.6075 14.6006 14.6006 14.862 14.5869 15.1578C14.58 15.2335 14.6694 15.2886 14.7382 15.2404C16.0179 14.3666 16.8641 12.8874 16.8641 11.2225C16.871 8.48425 14.58 6.262 11.8142 6.37208Z" fill="white"/>
<defs>
<linearGradient id="paint0_linear_1314_35605" x1="12.0001" y1="1.67993" x2="12.0001" y2="22.3199" gradientUnits="userSpaceOnUse">
<stop stop-color="#F452FF"/>
<stop offset="1" stop-color="#832BC1"/>
</linearGradient>
</defs>
</svg>
