<svg width="24" height="24" viewBox="0 0 24 24" fill="none" xmlns="http://www.w3.org/2000/svg">
<path fill-rule="evenodd" clip-rule="evenodd" d="M22.3201 10.8361C22.3201 6.2721 17.6996 2.57227 12 2.57227C6.3004 2.57227 1.6799 6.2721 1.68005 10.8361C1.68005 14.9042 5.35115 18.2856 10.1854 18.9724L10.1875 18.9727C10.3011 18.9888 10.4156 19.0029 10.5304 19.0161C11.558 19.2302 11.388 20.1134 11.2464 20.8494C11.1611 21.2923 11.0862 21.6819 11.2887 21.8401C11.9086 22.3247 16.6061 19.1841 19.4599 16.5463C19.873 16.2004 20.2486 15.8257 20.5822 15.4266L20.5883 15.42C20.6679 15.3323 20.731 15.2529 20.7793 15.1811C21.7559 13.9187 22.3201 12.4303 22.3201 10.8361ZM8.09402 13.4715H6.01263C5.71657 13.4715 5.47442 13.2293 5.47442 12.9332V8.9413C5.47442 8.64523 5.71657 8.40308 6.01263 8.40308H6.05753C6.3536 8.40308 6.59575 8.64523 6.59575 8.9413V12.3501H8.09402C8.39008 12.3501 8.63224 12.5923 8.63224 12.8883V12.9333C8.63224 13.2293 8.39008 13.4715 8.09402 13.4715ZM18.91 10.9245V10.9694C18.91 11.2654 18.6678 11.5076 18.3717 11.5074H16.8735V12.3597H18.3717C18.6678 12.3597 18.91 12.6018 18.91 12.8979V12.9428C18.91 13.2388 18.6678 13.4811 18.3717 13.4811H16.2903C15.9942 13.4811 15.7521 13.2388 15.7521 12.9428V8.9509C15.7521 8.65484 15.9942 8.41268 16.2903 8.41268H18.3717C18.6678 8.41268 18.91 8.65484 18.91 8.9509V8.9958C18.91 9.29187 18.6678 9.53402 18.3717 9.53402H16.8735V10.3862H18.3717C18.6678 10.3862 18.91 10.6284 18.91 10.9245ZM14.9072 13.3111C14.8753 13.35 14.8299 13.3831 14.7761 13.4087C14.6987 13.45 14.6123 13.4716 14.5246 13.4715H14.4797C14.4076 13.4715 14.3386 13.4571 14.2756 13.431C14.1935 13.4003 14.1199 13.3499 14.066 13.2765C14.0518 13.2594 14.0385 13.2412 14.0265 13.2225L12.0671 10.5462V12.9333C12.0671 13.2294 11.8249 13.4716 11.5288 13.4716H11.4839C11.1878 13.4716 10.9457 13.2294 10.9457 12.9333V8.94144C10.9457 8.64538 11.1879 8.40323 11.4839 8.40323H11.5288C11.7283 8.40323 11.9032 8.51313 11.9962 8.67539L13.9416 11.2847V8.94144C13.9416 8.64538 14.1837 8.40323 14.4798 8.40323H14.5247C14.8208 8.40323 15.063 8.64538 15.063 8.94144V12.9333C15.0629 13.0748 15.0068 13.2107 14.9072 13.3111ZM9.64977 13.4715H9.60487C9.30881 13.4715 9.06658 13.2293 9.06658 12.9333V8.94137C9.06658 8.64531 9.30881 8.40315 9.60487 8.40315H9.64977C9.94584 8.40315 10.188 8.64531 10.188 8.94137V12.9333C10.188 13.2293 9.94584 13.4715 9.64977 13.4715Z" fill="#141414"/>
</svg>
