<svg width="24" height="24" viewBox="0 0 24 24" fill="none" xmlns="http://www.w3.org/2000/svg">
<path d="M22.3201 11.9999C22.3201 17.6992 17.6993 22.3199 12.0001 22.3199C6.30005 22.3199 1.68005 17.6992 1.68005 11.9999C1.68005 6.29993 6.30041 1.67993 12.0001 1.67993C17.6993 1.67993 22.3201 6.30028 22.3201 11.9999Z" fill="#DA552F"/>
<path d="M13.3758 12.0001H10.4521V8.90409H13.3758C13.5791 8.90409 13.7804 8.94413 13.9682 9.02192C14.156 9.09972 14.3267 9.21374 14.4704 9.35749C14.6142 9.50123 14.7282 9.67188 14.806 9.85969C14.8838 10.0475 14.9238 10.2488 14.9238 10.4521C14.9238 10.6554 14.8838 10.8567 14.806 11.0445C14.7282 11.2323 14.6142 11.4029 14.4704 11.5467C14.3267 11.6904 14.156 11.8045 13.9682 11.8823C13.7804 11.96 13.5791 12.0001 13.3758 12.0001ZM13.3758 6.84009H8.38806V17.1601H10.4521V14.0641H13.3758C15.3707 14.0641 16.9878 12.4469 16.9878 10.4521C16.9878 8.45726 15.3707 6.84009 13.3758 6.84009Z" fill="white"/>
</svg>
