<svg width="24" height="24" viewBox="0 0 24 24" fill="none" xmlns="http://www.w3.org/2000/svg">
<path d="M22.3201 11.9999C22.3201 13.1035 22.2313 14.1857 22.0619 15.2408C21.5008 18.7338 18.7339 21.5008 15.2409 22.0618C14.1857 22.2312 13.1036 22.3199 12.0001 22.3199C10.8965 22.3199 9.8144 22.2312 8.75923 22.0618C5.26619 21.5007 2.49927 18.7338 1.93824 15.2408C1.76877 14.1857 1.68005 13.1035 1.68005 11.9999C1.68005 10.8964 1.76877 9.81422 1.93824 8.75909C2.49928 5.26604 5.26619 2.49913 8.75924 1.93812C9.81441 1.76865 10.8965 1.67993 12.0001 1.67993C13.1036 1.67993 14.1857 1.76865 15.2409 1.93812C18.7339 2.49913 21.5008 5.26604 22.0619 8.75908C22.2313 9.81422 22.3201 10.8964 22.3201 11.9999Z" fill="#0B5CFF"/>
<path d="M14.2114 14.5802C14.2114 15.1908 13.7163 15.6859 13.1056 15.6859H8.31421C7.09287 15.6859 6.10278 14.6958 6.10278 13.4745V9.42017C6.10278 8.80954 6.59783 8.31445 7.2085 8.31445H11.9999C13.2213 8.31445 14.2114 9.30454 14.2114 10.5259V14.5802ZM17.0125 8.97782L15.3908 10.1941C15.1123 10.4029 14.9485 10.7307 14.9485 11.0787L14.9485 12.9216C14.9485 13.2696 15.1124 13.5973 15.3908 13.8061L17.0125 15.0224C17.377 15.2957 17.8971 15.0357 17.8971 14.5801V9.42011C17.8971 8.96453 17.377 8.70447 17.0125 8.97782Z" fill="white"/>
</svg>
