<svg width="24" height="24" viewBox="0 0 24 24" fill="none" xmlns="http://www.w3.org/2000/svg">
<path d="M11.9987 1.6814C6.29935 1.6814 1.67871 6.30204 1.67871 12.0014C1.67871 16.3757 4.39674 20.113 8.23594 21.6164C8.14251 20.801 8.06607 19.5439 8.26992 18.6521C8.45678 17.8451 9.47604 13.5218 9.47604 13.5218C9.47604 13.5218 9.17027 12.9017 9.17027 11.9929C9.17027 10.5574 10.0027 9.48722 11.0389 9.48722C11.9223 9.48722 12.347 10.1497 12.347 10.9397C12.347 11.823 11.7864 13.1481 11.4891 14.3797C11.2428 15.4074 12.0072 16.2483 13.018 16.2483C14.8526 16.2483 16.2626 14.3117 16.2626 11.5257C16.2626 9.05404 14.4874 7.32979 11.9477 7.32979C9.00888 7.32979 7.28464 9.52969 7.28464 11.806C7.28464 12.6894 7.62439 13.6407 8.04908 14.1588C8.13402 14.2608 8.14251 14.3542 8.11703 14.4561C8.04059 14.7789 7.86222 15.4839 7.82824 15.6283C7.78577 15.8151 7.67535 15.8576 7.47999 15.7642C6.18893 15.1611 5.38202 13.284 5.38202 11.7636C5.38202 8.51043 7.7433 5.52061 12.2026 5.52061C15.7785 5.52061 18.5644 8.06875 18.5644 11.4833C18.5644 15.0422 16.3221 17.9046 13.2133 17.9046C12.1686 17.9046 11.1833 17.361 10.852 16.7155C10.852 16.7155 10.3339 18.686 10.2065 19.1702C9.97718 20.0705 9.34864 21.1917 8.92395 21.8797C9.89224 22.177 10.9115 22.3384 11.9817 22.3384C17.6811 22.3384 22.3017 17.7177 22.3017 12.0184C22.3187 6.30204 17.6981 1.6814 11.9987 1.6814Z" fill="#141414"/>
</svg>
