<svg width="24" height="24" viewBox="0 0 24 24" fill="none" xmlns="http://www.w3.org/2000/svg">
<path d="M16.4625 9.13063C17.7897 10.0828 19.4157 10.643 21.1719 10.643V7.25165C20.8395 7.25172 20.508 7.21694 20.1829 7.14781V9.81731C18.4269 9.81731 16.8011 9.25707 15.4735 8.30497V15.2258C15.4735 18.6879 12.6768 21.4944 9.22717 21.4944C7.94003 21.4944 6.74368 21.1039 5.74988 20.4341C6.88414 21.598 8.46596 22.32 10.216 22.32C13.6658 22.32 16.4626 19.5136 16.4626 16.0513V9.13063H16.4625ZM17.6825 5.70914C17.0042 4.96544 16.5588 4.00435 16.4625 2.94182V2.50562H15.5252C15.7611 3.85609 16.5658 5.00986 17.6825 5.70914ZM7.93177 17.7774C7.55279 17.2787 7.34799 16.6686 7.34891 16.0414C7.34891 14.4579 8.62808 13.1741 10.2062 13.1741C10.5003 13.174 10.7927 13.2192 11.073 13.3084V9.84125C10.7454 9.7962 10.4148 9.77707 10.0844 9.78409V12.4828C9.8039 12.3935 9.51141 12.3482 9.21722 12.3485C7.63907 12.3485 6.35997 13.6322 6.35997 15.2159C6.35997 16.3356 6.99935 17.3051 7.93177 17.7774Z" fill="#FF004F"/>
<path d="M15.4734 8.3049C16.8011 9.257 18.4269 9.81724 20.1828 9.81724V7.14774C19.2027 6.93821 18.3349 6.42416 17.6825 5.70914C16.5657 5.00979 15.7611 3.85602 15.5252 2.50562H13.0634V16.0512C13.0578 17.6303 11.7808 18.909 10.2061 18.909C9.2781 18.909 8.45368 18.465 7.93156 17.7774C6.9992 17.3051 6.35983 16.3356 6.35983 15.216C6.35983 13.6324 7.63893 12.3485 9.21708 12.3485C9.51944 12.3485 9.81087 12.3958 10.0842 12.4828V9.78416C6.69521 9.85443 3.9696 12.6334 3.9696 16.0512C3.9696 17.7574 4.64834 19.3041 5.74994 20.4342C6.74375 21.1039 7.94009 21.4944 9.22723 21.4944C12.6769 21.4944 15.4735 18.6879 15.4735 15.2258V8.3049H15.4734Z" fill="#141414"/>
<path d="M20.1829 7.14764V6.42583C19.299 6.42717 18.4325 6.17875 17.6825 5.70897C18.3464 6.43837 19.2206 6.9413 20.1829 7.14764ZM15.5253 2.50552C15.5028 2.37646 15.4855 2.24654 15.4735 2.11614V1.67993H12.0744V15.2256C12.0689 16.8046 10.792 18.0832 9.21712 18.0832C8.75475 18.0832 8.3182 17.9731 7.9316 17.7773C8.45372 18.4649 9.27814 18.9088 10.2061 18.9088C11.7807 18.9088 13.0579 17.6303 13.0634 16.0511V2.50552H15.5253ZM10.0844 9.78406V9.01564C9.80041 8.97668 9.51405 8.95713 9.22735 8.95727C5.77736 8.9572 2.98071 11.7638 2.98071 15.2256C2.98071 17.396 4.07984 19.3088 5.75006 20.4339C4.64846 19.3039 3.96972 17.7571 3.96972 16.0511C3.96972 12.6333 6.69525 9.85433 10.0844 9.78406Z" fill="#00F2EA"/>
</svg>
