<svg width="24" height="24" viewBox="0 0 24 24" fill="none" xmlns="http://www.w3.org/2000/svg">
<path fill-rule="evenodd" clip-rule="evenodd" d="M22.3207 8.13534V8.13639H22.3201V15.8634C22.3201 15.9127 22.3201 15.9621 22.3201 16.0115C22.3202 16.2086 22.3203 16.4058 22.3189 16.603C22.3178 16.8105 22.3155 17.0181 22.3098 17.2257C22.2977 17.6775 22.2708 18.1338 22.1905 18.581C22.1091 19.0351 21.9755 19.4577 21.7657 19.8705C21.5593 20.2759 21.2898 20.6462 20.9681 20.9679C20.6465 21.2895 20.2755 21.559 19.8702 21.7654C19.4579 21.9753 19.036 22.1088 18.5819 22.1903C18.1347 22.2705 17.6783 22.2975 17.2259 22.3095C17.0183 22.3153 16.8108 22.3175 16.6032 22.3187C16.3571 22.3198 16.1109 22.3198 15.8647 22.3198H8.13663C8.08727 22.3198 8.0379 22.3199 7.98854 22.3199C7.79137 22.32 7.59419 22.3201 7.39702 22.3187C7.18946 22.3175 6.98191 22.3153 6.77436 22.3095C6.32199 22.2975 5.86561 22.2705 5.4184 22.1903C4.96488 22.1083 4.54232 21.9753 4.13009 21.7654C3.72473 21.559 3.35377 21.2895 3.03213 20.9679C2.71048 20.6462 2.44101 20.2759 2.2346 19.8705C2.02476 19.4577 1.89117 19.0351 1.80975 18.581C1.72948 18.1338 1.70254 17.678 1.6905 17.2257C1.68476 17.0181 1.68247 16.8105 1.68132 16.603C1.68018 16.3565 1.68018 16.1099 1.68018 15.8634V8.13639C1.68018 7.88985 1.68018 7.64331 1.68132 7.39734C1.68247 7.18979 1.68476 6.98224 1.6905 6.77469C1.70254 6.32289 1.72948 5.86651 1.80975 5.4193C1.89117 4.96521 2.02476 4.54265 2.2346 4.12984C2.44101 3.72449 2.71048 3.3541 3.03213 3.03246C3.35377 2.71081 3.72473 2.44134 4.13009 2.23493C4.54232 2.02509 4.96431 1.8915 5.4184 1.81008C5.86561 1.72924 6.32199 1.70287 6.77436 1.69025C6.98191 1.68452 7.18946 1.68223 7.39702 1.68108C7.64355 1.67993 7.89009 1.67993 8.13663 1.67993H15.8642C16.1107 1.67993 16.3573 1.67993 16.6038 1.68108C16.8114 1.68223 17.0189 1.68452 17.2265 1.69025C17.6788 1.70229 18.1352 1.72924 18.5824 1.80951C19.036 1.8915 19.4585 2.02451 19.8707 2.23436C20.2761 2.44076 20.6471 2.71024 20.9687 3.03188C21.2904 3.35353 21.5598 3.72391 21.7662 4.12927C21.9761 4.54208 22.1097 4.96463 22.1911 5.41873C22.2713 5.86594 22.2983 6.32175 22.3103 6.77412C22.3161 6.98167 22.3184 7.18922 22.3195 7.39677C22.3207 7.64296 22.3207 7.88915 22.3207 8.13534ZM15.6862 4.9183C15.7394 4.90743 16.1813 4.82911 16.2311 4.82453C16.5621 4.79594 16.7479 5.01321 16.7468 5.3654V15.0742C16.7468 15.3349 16.7445 15.5711 16.6896 15.8323C16.6364 16.0856 16.5398 16.324 16.39 16.5384C16.2408 16.7523 16.0498 16.9278 15.8268 17.0593C15.6016 17.1925 15.3649 17.2686 15.1122 17.3195C14.6376 17.4149 14.3129 17.4367 14.0081 17.3755C13.7143 17.316 13.465 17.1811 13.2654 16.9981C12.9698 16.7277 12.7857 16.3618 12.7457 15.9793C12.6988 15.531 12.8475 15.0525 13.1842 14.6997C13.3541 14.5213 13.5673 14.3807 13.852 14.2703C14.1499 14.1548 14.4787 14.0857 14.9841 13.9839L15.3837 13.9033C15.5593 13.8678 15.7091 13.8232 15.8303 13.6751C15.9526 13.5265 15.9543 13.3447 15.9543 13.1651V8.63178C15.9543 8.28473 15.7983 8.1904 15.4672 8.25386C15.2299 8.30017 10.1448 9.32588 10.1448 9.32588C9.85783 9.39563 9.7572 9.4894 9.7572 9.84503V16.4858C9.7572 16.7466 9.74405 16.9827 9.68917 17.244C9.63599 17.4973 9.53937 17.7357 9.38957 17.9501C9.24035 18.1639 9.04938 18.3394 8.8264 18.4709C8.60113 18.6042 8.36443 18.6836 8.11172 18.7345C7.63717 18.8306 7.31242 18.8517 7.00768 18.7905C6.7138 18.7317 6.46452 18.5927 6.26498 18.4098C5.96939 18.1393 5.7973 17.7734 5.75727 17.3909C5.71039 16.9427 5.84704 16.4641 6.1838 16.1114C6.3536 15.933 6.56687 15.7923 6.85159 15.682C7.14947 15.5665 7.47823 15.4973 7.98365 15.3955L8.3833 15.3149C8.55883 15.2795 8.70862 15.2349 8.82983 15.0868C8.95104 14.9387 8.96534 14.7649 8.96534 14.5859V6.92913C8.96534 6.82621 8.97391 6.75646 8.97906 6.72215C9.00364 6.56092 9.06825 6.42256 9.18489 6.32479C9.28151 6.2436 9.40672 6.187 9.56624 6.15327L9.56853 6.1527L15.6862 4.9183Z" fill="#141414"/>
</svg>
