<svg width="24" height="24" viewBox="0 0 24 24" fill="none" xmlns="http://www.w3.org/2000/svg">
<path fill-rule="evenodd" clip-rule="evenodd" d="M14.3569 2.1354C16.3037 1.12086 18.714 1.85993 19.7386 3.78653C20.7632 5.71313 20.0158 8.09661 18.069 9.11114L16.4683 9.95266C17.8473 10.0031 19.1625 10.7606 19.8512 12.0556C20.8758 13.9822 20.13 16.3657 18.1815 17.3802L9.64538 21.865C7.69862 22.8795 5.28827 22.1405 4.26367 20.2139C3.23906 18.2873 3.98652 15.9038 5.93327 14.8893L7.53402 14.0477C6.15499 13.9973 4.8398 13.2398 4.15113 11.9448C3.12652 10.0182 3.87398 7.63469 5.82074 6.62016L14.3569 2.1354ZM9.74952 8.82391L14.9162 12.0136L9.74952 15.1882V8.82391Z" fill="#141414"/>
</svg>
