<svg width="24" height="24" viewBox="0 0 24 24" fill="none" xmlns="http://www.w3.org/2000/svg">
<path d="M7.17457 3.91992C7.17457 5.10631 8.13343 6.06518 9.31983 6.06518H11.4651V3.91992C11.4651 2.73352 10.5062 1.77466 9.31983 1.77466C8.13343 1.77466 7.17457 2.73352 7.17457 3.91992Z" fill="#141414"/>
<path d="M11.4651 9.29932C11.4651 8.11293 10.5062 7.15406 9.31983 7.15406H3.94043C2.75403 7.15406 1.79517 8.11293 1.79517 9.29932C1.79517 10.4857 2.75403 11.4446 3.94043 11.4446H9.31983C10.5062 11.4446 11.4651 10.4857 11.4651 9.29932Z" fill="#141414"/>
<path d="M3.9567 16.824C5.14309 16.824 6.10196 15.8651 6.10196 14.6787V12.5335H3.9567C2.7703 12.5335 1.81144 13.4923 1.81144 14.6787C1.81144 15.8651 2.7703 16.824 3.9567 16.824Z" fill="#141414"/>
<path d="M9.31985 12.5335C8.13345 12.5335 7.17459 13.4923 7.17459 14.6787V20.0419C7.17459 21.2283 8.13345 22.1871 9.31985 22.1871C10.5062 22.1871 11.4651 21.2283 11.4651 20.0419V14.6787C11.4651 13.4923 10.5062 12.5335 9.31985 12.5335Z" fill="#141414"/>
<path d="M17.9171 9.29932C17.9171 8.11293 18.876 7.15406 20.0624 7.15406C21.2488 7.15406 22.2077 8.11293 22.2077 9.29932C22.2077 10.4857 21.2488 11.4446 20.0624 11.4446H17.9171V9.29932Z" fill="#141414"/>
<path d="M16.8445 9.29932C16.8445 10.4857 15.8856 11.4446 14.6992 11.4446C13.5128 11.4446 12.554 10.4857 12.554 9.29932V3.91992C12.554 2.73352 13.5128 1.77466 14.6992 1.77466C15.8856 1.77466 16.8445 2.73352 16.8445 3.91992V9.29932Z" fill="#141414"/>
<path d="M16.8445 20.0419C16.8445 18.8555 15.8856 17.8966 14.6992 17.8966H12.554V20.0419C12.554 21.2283 13.5128 22.1871 14.6992 22.1871C15.8856 22.1871 16.8445 21.2283 16.8445 20.0419Z" fill="#141414"/>
<path d="M12.554 14.6787C12.554 15.8651 13.5128 16.824 14.6992 16.824H20.0786C21.265 16.824 22.2239 15.8651 22.2239 14.6787C22.2239 13.4923 21.265 12.5335 20.0786 12.5335H14.6992C13.5128 12.5335 12.554 13.4923 12.554 14.6787Z" fill="#141414"/>
</svg>
