<svg width="24" height="24" viewBox="0 0 24 24" fill="none" xmlns="http://www.w3.org/2000/svg">
<path d="M16.888 11.2462C16.7991 11.2036 16.7088 11.1625 16.6174 11.1233C16.458 8.18779 14.854 6.50722 12.1607 6.49002C12.1485 6.48994 12.1364 6.48994 12.1242 6.48994C10.5132 6.48994 9.17342 7.17758 8.34878 8.42886L9.83002 9.44496C10.4461 8.5103 11.4129 8.31105 12.1249 8.31105C12.1331 8.31105 12.1414 8.31105 12.1495 8.31112C13.0363 8.31678 13.7055 8.57462 14.1386 9.07744C14.4538 9.44351 14.6646 9.94937 14.769 10.5878C13.9827 10.4542 13.1324 10.4131 12.2234 10.4652C9.66272 10.6127 8.01651 12.1061 8.12707 14.1813C8.18317 15.234 8.70758 16.1395 9.60363 16.7311C10.3612 17.2312 11.337 17.4758 12.351 17.4204C13.6902 17.347 14.7408 16.836 15.4738 15.9018C16.0304 15.1923 16.3825 14.2728 16.5379 13.1143C17.1761 13.4994 17.6491 14.0063 17.9104 14.6156C18.3546 15.6514 18.3805 17.3534 16.9917 18.741C15.7749 19.9566 14.3122 20.4825 12.1018 20.4988C9.64976 20.4806 7.79535 19.6942 6.58966 18.1615C5.46063 16.7263 4.87714 14.6532 4.85537 11.9999C4.87714 9.34659 5.46063 7.27354 6.58966 5.83832C7.79535 4.30561 9.64973 3.51926 12.1017 3.50104C14.5715 3.5194 16.4583 4.30953 17.7101 5.84964C18.3239 6.60489 18.7867 7.55468 19.0918 8.66209L20.8276 8.19897C20.4578 6.83587 19.8759 5.66127 19.084 4.68714C17.4792 2.71265 15.132 1.70091 12.1078 1.67993H12.0957C9.07758 1.70084 6.75671 2.71643 5.19755 4.69846C3.81012 6.46222 3.09444 8.91637 3.07039 11.9927L3.07031 11.9999L3.07039 12.0072C3.09444 15.0835 3.81012 17.5377 5.19755 19.3014C6.75671 21.2834 9.07758 22.2991 12.0957 22.3199H12.1078C14.791 22.3013 16.6824 21.5988 18.2405 20.0421C20.279 18.0055 20.2176 15.4527 19.5458 13.8856C19.0637 12.7618 18.1447 11.849 16.888 11.2462ZM12.2552 15.6019C11.1329 15.6651 9.96691 15.1614 9.90942 14.0824C9.86681 13.2824 10.4788 12.3897 12.324 12.2834C12.5354 12.2712 12.7427 12.2652 12.9464 12.2652C13.6167 12.2652 14.2438 12.3304 14.8138 12.455C14.6012 15.1104 13.354 15.5416 12.2552 15.6019Z" fill="#141414"/>
</svg>
