<svg width="24" height="24" viewBox="0 0 24 24" fill="none" xmlns="http://www.w3.org/2000/svg">
<path d="M18.3394 5.17771C17.9203 4.7969 16.1112 3.66019 12.3364 3.64372C12.3364 3.64372 7.86677 3.35004 5.69692 5.31542C4.48895 6.50782 4.0821 8.281 4.0369 10.4452C3.99169 12.6093 3.76117 16.7425 7.71918 17.8421C7.71918 17.8421 7.70391 20.9109 7.70181 21.1807C7.70181 21.3693 7.73175 21.4983 7.83953 21.5249C7.91736 21.5438 8.03322 21.5037 8.13231 21.4052C8.76489 20.7696 10.791 18.3252 10.791 18.3252C13.5099 18.5028 15.6726 17.966 15.9052 17.89C16.4525 17.7145 19.4175 17.4586 19.9207 13.4045C20.4425 9.22342 19.7321 6.37011 18.3394 5.17771Z" fill="white"/>
<path d="M19.3244 4.16682C18.8286 3.70938 16.8252 2.25503 12.3628 2.23527C12.3628 2.23527 7.10042 1.91793 4.53509 4.271C3.10709 5.6993 2.60474 7.78922 2.55175 10.3803C2.49876 12.9714 2.43021 17.8272 7.11089 19.1438H7.11538L7.11239 21.1529C7.11239 21.1529 7.08245 21.9663 7.61803 22.1322C8.26587 22.3333 8.64608 21.7151 9.26458 21.0487C9.60407 20.6829 10.0729 20.1455 10.4261 19.7348C13.6273 20.0042 16.0894 19.3884 16.369 19.2974C17.0153 19.0878 20.6728 18.619 21.2676 13.7638C21.8816 8.75919 20.9706 5.59363 19.3244 4.16682ZM19.8669 13.4049C19.3648 17.459 16.3983 17.7137 15.8514 17.8891C15.6188 17.964 13.4564 18.502 10.7372 18.3244C10.7372 18.3244 8.71104 20.7688 8.07817 21.4044C7.97937 21.5038 7.86322 21.5439 7.78568 21.5241C7.67671 21.4975 7.64677 21.3685 7.64797 21.1799C7.64976 20.9104 7.66533 17.8413 7.66533 17.8413C3.70583 16.742 3.93665 12.6091 3.98155 10.445C4.02646 8.28079 4.43301 6.50791 5.64068 5.31551C7.81053 3.35013 12.2805 3.64381 12.2805 3.64381C16.0552 3.66028 17.8641 4.797 18.2835 5.1778C19.6762 6.3702 20.3857 9.22352 19.8669 13.4037V13.4049Z" fill="#7360F2"/>
<path d="M14.1998 10.5195C14.1351 10.5195 14.0729 10.4946 14.026 10.4501C13.9791 10.4055 13.9512 10.3446 13.948 10.28C13.9052 9.42349 13.5016 9.00407 12.678 8.95976C12.6124 8.95454 12.5514 8.92389 12.5081 8.87435C12.4648 8.8248 12.4425 8.76029 12.446 8.69456C12.4496 8.62883 12.4787 8.56709 12.5271 8.5225C12.5756 8.47792 12.6395 8.45403 12.7053 8.45591C13.792 8.51579 14.3961 9.13639 14.4518 10.2548C14.4535 10.2879 14.4486 10.3211 14.4375 10.3523C14.4263 10.3835 14.4091 10.4122 14.3869 10.4368C14.3646 10.4613 14.3378 10.4813 14.3078 10.4955C14.2779 10.5097 14.2454 10.5178 14.2123 10.5195H14.1998Z" fill="#7360F2"/>
<path d="M15.4948 10.9537H15.4888C15.4219 10.9521 15.3584 10.9241 15.3122 10.8757C15.266 10.8273 15.2409 10.7625 15.2424 10.6956C15.2619 9.83314 15.0155 9.13471 14.4892 8.56051C13.9629 7.98631 13.2459 7.67497 12.29 7.60491C12.2231 7.60003 12.161 7.56879 12.1171 7.51806C12.0733 7.46734 12.0515 7.40128 12.0563 7.33443C12.0612 7.26758 12.0925 7.2054 12.1432 7.16158C12.1939 7.11776 12.26 7.09589 12.3268 7.10077C13.4025 7.1795 14.2551 7.55582 14.8613 8.21893C15.4675 8.88204 15.769 9.72088 15.7468 10.7061C15.7455 10.7721 15.7184 10.835 15.6713 10.8813C15.6242 10.9276 15.5608 10.9535 15.4948 10.9537Z" fill="#7360F2"/>
<path d="M16.8201 11.4716C16.7535 11.4715 16.6896 11.4451 16.6424 11.3982C16.5951 11.3513 16.5683 11.2876 16.5677 11.221C16.556 9.67831 16.1118 8.49998 15.2095 7.61923C14.3179 6.75105 13.1917 6.30558 11.8616 6.296C11.8284 6.29589 11.7956 6.28924 11.7651 6.27645C11.7345 6.26366 11.7067 6.24497 11.6834 6.22145C11.6362 6.17395 11.6099 6.10967 11.6101 6.04273C11.6103 5.9758 11.6372 5.9117 11.6847 5.86454C11.7322 5.81738 11.7964 5.79102 11.8634 5.79126H11.8655C13.33 5.80204 14.5736 6.2954 15.5618 7.25819C16.5501 8.22097 17.0596 9.55557 17.0728 11.218C17.0732 11.2849 17.0471 11.3492 17.0002 11.3969C16.9533 11.4445 16.8894 11.4716 16.8225 11.4722L16.8201 11.4716Z" fill="#7360F2"/>
<path d="M12.7414 13.6473C12.7414 13.6473 13.0962 13.6773 13.2872 13.4419L13.6596 12.9734C13.8392 12.7411 14.2727 12.5929 14.6972 12.8294C15.0153 13.0109 15.3242 13.2081 15.6226 13.4204C15.9043 13.6276 16.4812 14.109 16.483 14.109C16.7578 14.341 16.8213 14.6817 16.6342 15.0409C16.6342 15.043 16.6327 15.0466 16.6327 15.0484C16.4266 15.4056 16.165 15.7278 15.8576 16.0028C15.854 16.0046 15.854 16.0064 15.8507 16.0082C15.5837 16.2313 15.3213 16.3581 15.0637 16.3887C15.0257 16.3953 14.9872 16.3977 14.9487 16.3959C14.8351 16.397 14.722 16.3796 14.614 16.3444L14.6056 16.3321C14.2086 16.2201 13.5458 15.9399 12.442 15.331C11.8033 14.9828 11.1952 14.5811 10.6243 14.1302C10.3381 13.9044 10.0651 13.6623 9.80667 13.4051L9.77913 13.3776L9.75159 13.35L9.72404 13.3225C9.71476 13.3135 9.70578 13.3042 9.6965 13.295C9.43937 13.0365 9.19728 12.7635 8.97142 12.4774C8.52063 11.9065 8.11893 11.2985 7.77064 10.6599C7.16172 9.5558 6.8815 8.89358 6.76954 8.49602L6.75726 8.48764C6.72217 8.37958 6.70488 8.26654 6.70607 8.15294C6.70397 8.11448 6.70628 8.07591 6.71296 8.03798C6.74509 7.78072 6.87212 7.51817 7.09406 7.25033C7.09585 7.24704 7.09765 7.24704 7.09945 7.24344C7.37436 6.93608 7.69654 6.67454 8.05384 6.46867C8.05564 6.46867 8.05923 6.46687 8.06133 6.46687C8.42058 6.27976 8.76126 6.34323 8.99298 6.61656C8.99477 6.61835 9.47527 7.19525 9.68153 7.47695C9.89386 7.77565 10.0911 8.08479 10.2725 8.40321C10.509 8.82742 10.3608 9.26181 10.1285 9.44084L9.65998 9.81326C9.42347 10.0043 9.45461 10.359 9.45461 10.359C9.45461 10.359 10.1486 12.9854 12.7414 13.6473Z" fill="#7360F2"/>
</svg>
