<svg width="24" height="24" viewBox="0 0 24 24" fill="none" xmlns="http://www.w3.org/2000/svg">
<path fill-rule="evenodd" clip-rule="evenodd" d="M7.65443 5.19235C8.21213 5.182 8.76903 5.23918 9.31299 5.36264C9.77098 5.46263 10.2058 5.6487 10.5944 5.91095C10.9532 6.17173 11.2372 6.52233 11.4177 6.92754C11.6252 7.42582 11.7252 7.96224 11.7114 8.50181C11.735 9.09426 11.5837 9.68055 11.2764 10.1876C10.953 10.6665 10.5061 11.049 9.98305 11.2945C10.6929 11.4858 11.3112 11.9242 11.7268 12.5307C12.1257 13.1734 12.3262 13.9194 12.3032 14.6754C12.3163 15.2782 12.1917 15.8761 11.9388 16.4234C11.705 16.9008 11.3626 17.3169 10.9392 17.6384C10.5032 17.9562 10.0126 18.1914 9.49179 18.3323C8.95165 18.4817 8.39366 18.5567 7.83323 18.5553H1.68005V5.19235H7.65443ZM7.29939 10.5971C7.73758 10.6152 8.16893 10.484 8.52288 10.2251C8.69239 10.0742 8.82425 9.88571 8.90793 9.67474C8.9916 9.46378 9.02477 9.23617 9.00478 9.0101C9.01612 8.74607 8.96355 8.48319 8.85152 8.24383C8.75649 8.05325 8.60874 7.89397 8.42582 7.78492C8.24054 7.66488 8.03239 7.58457 7.8145 7.54907C7.57809 7.50328 7.33752 7.48245 7.09676 7.48692H4.46759V10.6091H7.29939V10.5971ZM7.45265 16.2863C7.71765 16.2899 7.9821 16.2613 8.24021 16.2012C8.47608 16.1491 8.69978 16.0523 8.8992 15.9159C9.09457 15.7797 9.25241 15.5964 9.35812 15.383C9.48068 15.1108 9.537 14.8135 9.52244 14.5154C9.54901 14.2437 9.51303 13.9695 9.41725 13.7139C9.32147 13.4583 9.16843 13.228 8.96987 13.0407C8.54902 12.7307 8.03326 12.5772 7.5114 12.6065H4.46759V16.2863H7.45265Z" fill="#0057FF"/>
<path fill-rule="evenodd" clip-rule="evenodd" d="M16.2733 16.2369C16.4921 16.4396 16.7498 16.5958 17.0308 16.696C17.3118 16.7961 17.6103 16.838 17.908 16.8192C18.38 16.8312 18.8428 16.6875 19.2251 16.4105C19.5362 16.2083 19.7717 15.909 19.8952 15.5591H22.1183C21.8814 16.5551 21.303 17.4366 20.4835 18.0504C19.6974 18.5721 18.7684 18.8364 17.8254 18.8064C17.1524 18.8153 16.4844 18.6887 15.8612 18.4344C15.2975 18.1993 14.7919 17.8439 14.3797 17.3931C13.9692 16.9207 13.6537 16.3734 13.4508 15.7814C13.2231 15.1195 13.1116 14.4233 13.1213 13.7235C13.1172 13.0354 13.2324 12.3518 13.4619 11.7031C13.7702 10.7904 14.3597 9.99895 15.1458 9.44216C15.9319 8.88538 16.8741 8.59192 17.8373 8.60391C18.5485 8.58905 19.2517 8.75547 19.8807 9.08751C20.4493 9.3993 20.9398 9.83596 21.3154 10.3646C21.6995 10.9194 21.9748 11.542 22.1268 12.1994C22.2934 12.9054 22.3528 13.6324 22.303 14.3561H15.6816C15.6279 15.036 15.84 15.7102 16.2733 16.2369ZM19.1783 11.1548C18.993 10.9694 18.7702 10.8259 18.5247 10.734C18.2793 10.6421 18.0171 10.6038 17.7556 10.6218C17.4087 10.6085 17.0644 10.6854 16.756 10.8448C16.5116 10.9794 16.2958 11.1605 16.1209 11.3778C15.9658 11.5816 15.8503 11.8126 15.7803 12.059C15.7172 12.2644 15.6778 12.4763 15.6628 12.6907H19.7641C19.7284 12.1319 19.5248 11.5969 19.18 11.1556L19.1783 11.1548Z" fill="#0057FF"/>
<path d="M15.1341 6.08459H20.2733V7.39833H15.1341V6.08459Z" fill="#0057FF"/>
</svg>
