<svg width="24" height="24" viewBox="0 0 24 24" fill="none" xmlns="http://www.w3.org/2000/svg">
<path d="M20.7964 1.67993H3.20369C2.79959 1.67993 2.41205 1.84046 2.12632 2.12619C1.84058 2.41193 1.68005 2.79947 1.68005 3.20357V20.7963C1.68005 21.2004 1.84058 21.5879 2.12632 21.8737C2.41205 22.1594 2.79959 22.3199 3.20369 22.3199H20.7964C21.2005 22.3199 21.5881 22.1594 21.8738 21.8737C22.1595 21.5879 22.3201 21.2004 22.3201 20.7963V3.20357C22.3201 2.79947 22.1595 2.41193 21.8738 2.12619C21.5881 1.84046 21.2005 1.67993 20.7964 1.67993ZM7.83192 19.2626H4.72875V9.4056H7.83192V19.2626ZM6.27819 8.03963C5.92619 8.03765 5.58266 7.93144 5.29097 7.73441C4.99927 7.53737 4.77248 7.25835 4.63921 6.93254C4.50594 6.60674 4.47217 6.24876 4.54216 5.90378C4.61215 5.5588 4.78276 5.24229 5.03247 4.99418C5.28217 4.74608 5.59977 4.5775 5.94519 4.50973C6.29062 4.44195 6.64837 4.47802 6.97331 4.61338C7.29825 4.74874 7.57582 4.97732 7.77097 5.27027C7.96613 5.56323 8.07013 5.90743 8.06985 6.25943C8.07317 6.4951 8.02901 6.72902 7.94 6.94726C7.85099 7.1655 7.71896 7.36359 7.55176 7.52971C7.38457 7.69583 7.18564 7.82659 6.96684 7.9142C6.74803 8.00181 6.51383 8.04447 6.27819 8.03963ZM19.2699 19.2712H16.1682V13.8862C16.1682 12.2981 15.4931 11.8079 14.6216 11.8079C13.7014 11.8079 12.7984 12.5016 12.7984 13.9263V19.2712H9.69525V9.41277H12.6795V10.7787H12.7196C13.0192 10.1724 14.0684 9.13613 15.6694 9.13613C17.4009 9.13613 19.2714 10.1638 19.2714 13.1738L19.2699 19.2712Z" fill="#0A66C2"/>
</svg>
