<svg width="24" height="24" viewBox="0 0 24 24" fill="none" xmlns="http://www.w3.org/2000/svg">
<path d="M5.40556 12.5567C7.64664 12.0748 7.34098 9.39088 7.27534 8.80444C7.16488 7.89987 6.10275 6.32028 4.66123 6.44649C2.84697 6.60859 2.58209 9.23197 2.58209 9.23197C2.33629 10.4468 3.16853 13.0401 5.40556 12.5567ZM9.56732 8.05763C10.8044 8.05763 11.8043 6.63058 11.8043 4.86777C11.8043 3.10495 10.8044 1.67993 9.56732 1.67993C8.32966 1.67993 7.3271 3.10466 7.3271 4.86777C7.3271 6.63058 8.32937 8.05763 9.56732 8.05763ZM14.9008 8.26749C16.5569 8.48458 17.6179 6.71626 17.8301 5.37635C18.047 4.03817 16.977 2.48174 15.8074 2.21457C14.6324 1.94421 13.1658 3.82686 13.0336 5.05505C12.8725 6.55735 13.2464 8.05531 14.9008 8.26749ZM21.4589 10.5186C21.4589 9.87776 20.9289 7.94589 18.9547 7.94589C16.9768 7.94589 16.7156 9.76892 16.7156 11.057C16.7156 12.2864 16.818 14.0011 19.2742 13.9479C21.7278 13.8935 21.4589 11.1638 21.4589 10.5186ZM18.9547 16.1446C18.9547 16.1446 16.3949 14.1624 14.9005 12.0192C12.872 8.85914 9.99326 10.1464 9.03119 11.7509C8.07172 13.3597 6.58017 14.3757 6.36676 14.6455C6.15133 14.9097 3.27494 16.4656 3.91314 19.3067C4.55279 22.1454 6.7959 22.0916 6.7959 22.0916C6.7959 22.0916 8.44909 22.2537 10.3663 21.8241C12.2876 21.396 13.9405 21.9292 13.9405 21.9292C13.9405 21.9292 18.422 23.4335 19.6467 20.5389C20.8728 17.6466 18.955 16.1449 18.955 16.1449" fill="#2319DC"/>
<path d="M9.96568 13.3809V15.2878H8.4134C8.4134 15.2878 6.862 15.4166 6.31893 17.1769C6.12953 18.3521 6.48607 19.0442 6.54825 19.1921C6.611 19.3397 7.11213 20.1994 8.37147 20.4518H11.2843V13.4017L9.96568 13.3809ZM9.94225 19.2945H8.7688C8.7688 19.2945 7.95131 19.252 7.70233 18.3098C7.57394 17.8924 7.72141 17.4102 7.78619 17.2206C7.84547 17.0307 8.11989 16.5919 8.68551 16.4228H9.94196L9.94225 19.2945ZM11.9983 15.4589V19.1709C11.9983 19.1709 12.059 20.0946 13.3603 20.4313H16.7123V15.4583H15.2656V19.1915H13.8851C13.8851 19.1915 13.4438 19.1272 13.3608 18.7724V15.4369L11.9983 15.4589Z" fill="white"/>
</svg>
