<svg width="24" height="24" viewBox="0 0 24 24" fill="none" xmlns="http://www.w3.org/2000/svg">
<path d="M3.86241 20.4314C3.06564 20.4314 2.40511 20.1714 1.87256 19.6514C1.61248 19.3833 1.61661 18.9729 1.88082 18.7251C2.31429 18.3148 2.6074 18.0182 2.76428 17.8354C2.92115 17.6526 3.13582 17.2626 3.40416 16.6613C2.5785 15.2191 2.10375 13.5534 2.10375 11.778C2.10375 6.28533 6.62837 1.82861 12.214 1.82861C17.7954 1.83268 22.3201 6.28939 22.3201 11.7821C22.3201 17.2748 17.7954 21.7315 12.2098 21.7315C10.0507 21.7315 8.04851 21.0652 6.40544 19.9277C5.61281 20.2649 4.7665 20.4314 3.86241 20.4314ZM4.16377 18.9648C4.86558 18.9648 5.5096 18.8348 6.11233 18.5789L6.53755 18.396C6.67791 18.3351 6.83891 18.3514 6.96689 18.4407L7.34669 18.7048C8.7627 19.6839 10.4429 20.2161 12.214 20.2161C16.8955 20.2161 20.6852 16.4825 20.6852 11.8796C20.6852 7.27661 16.8913 3.53898 12.214 3.53898C7.5366 3.53898 3.73856 7.27255 3.73856 11.8755C3.73856 13.3299 4.11836 14.7275 4.82843 15.9666L5.03072 16.3241C5.09677 16.4419 5.10503 16.5882 5.05136 16.7101L4.8821 17.0838C4.5766 17.7704 4.3289 18.2254 4.07295 18.5261C3.98213 18.6317 3.86241 18.7576 3.70966 18.912C3.84589 18.9445 3.99451 18.9648 4.16377 18.9648ZM7.25174 13.6671C7.25174 14.0937 7.05359 14.309 6.65727 14.309C6.26921 14.309 6.07105 14.0937 6.07105 13.659V10.6689C6.07105 10.478 6.12884 10.3317 6.23618 10.222C6.34765 10.1123 6.48801 10.0555 6.6614 10.0555C7.04946 10.0555 7.24761 10.2626 7.24761 10.677V13.6671H7.25174ZM14.0056 13.724C14.0056 14.114 13.8075 14.309 13.4112 14.309C13.0149 14.309 12.8167 14.114 12.8167 13.724V11.4814C12.8167 11.1564 12.6351 10.998 12.2759 10.998C12.152 10.998 12.0364 11.0467 11.925 11.1442C11.8176 11.2417 11.7681 11.3555 11.7681 11.4814V13.72C11.7681 14.11 11.5741 14.305 11.1819 14.305C10.7814 14.305 10.5792 14.11 10.5792 13.72V11.4368C10.5792 11.1402 10.4388 10.9939 10.1622 10.9939C10.0218 10.9939 9.8856 11.0508 9.74524 11.1564C9.60488 11.2621 9.5347 11.3758 9.5347 11.5018V13.7159C9.5347 14.1059 9.34067 14.3009 8.95673 14.3009C8.55216 14.3009 8.34574 14.1059 8.34574 13.7159V10.6039C8.34574 10.2383 8.53977 10.0514 8.92371 10.0514C9.2292 10.0514 9.42323 10.1733 9.50993 10.4211C9.76588 10.1733 10.0838 10.0514 10.4636 10.0514C10.9053 10.0514 11.2521 10.218 11.5163 10.5511C11.7764 10.218 12.1686 10.0514 12.6846 10.0514C13.1346 10.0514 13.4731 10.1895 13.7043 10.4617C13.9066 10.6974 14.0056 11.0183 14.0056 11.4246V13.724ZM16.6189 14.3781C15.5249 14.3781 14.6414 13.4112 14.6414 12.2168C14.6414 11.0224 15.5249 10.0555 16.6189 10.0555C17.7129 10.0555 18.5963 11.0224 18.5963 12.2168C18.5963 13.4112 17.7129 14.3781 16.6189 14.3781ZM16.6189 13.2974C17.106 13.2974 17.4982 12.7652 17.4982 12.1071C17.4982 11.4489 17.106 10.9167 16.6189 10.9167C16.1317 10.9167 15.7395 11.4489 15.7395 12.1071C15.7395 12.7652 16.1359 13.2974 16.6189 13.2974ZM6.73158 9.83607C6.36829 9.83607 6.07105 9.54763 6.07105 9.18605C6.07105 8.82854 6.36416 8.53603 6.73158 8.53603C7.09487 8.53603 7.39211 8.82854 7.39211 9.18605C7.39211 9.54356 7.09487 9.83607 6.73158 9.83607Z" fill="#009DFF"/>
</svg>
