<svg width="24" height="24" viewBox="0 0 24 24" fill="none" xmlns="http://www.w3.org/2000/svg">
<path d="M8.82104 11.6347C8.14621 11.6347 7.56571 12.3055 7.52539 13.1795C7.48508 14.0534 8.07606 14.409 8.7517 14.409C9.42734 14.409 9.93124 14.0913 9.97156 13.2174C10.0119 12.3434 9.49587 11.6347 8.82104 11.6347Z" fill="#141414"/>
<path d="M16.4852 13.1795C16.4457 12.3055 15.8652 11.6347 15.1896 11.6347C14.514 11.6347 13.9988 12.3434 14.0391 13.2174C14.0794 14.0921 14.5841 14.409 15.2589 14.409C15.9338 14.409 16.5256 14.0534 16.4852 13.1795Z" fill="#141414"/>
<path d="M14.5446 15.4636C14.5938 15.3459 14.5132 15.2144 14.3866 15.2015C13.644 15.1266 12.8426 15.0854 12.0049 15.0854C11.1672 15.0854 10.365 15.1266 9.62326 15.2015C9.49668 15.2144 9.41605 15.3459 9.46523 15.4636C9.88126 16.4561 10.8609 17.1535 12.0049 17.1535C13.149 17.1535 14.1294 16.4561 14.5446 15.4636Z" fill="#141414"/>
<path fill-rule="evenodd" clip-rule="evenodd" d="M1.68005 11.9999C1.68005 6.30055 6.30067 1.67993 12.0001 1.67993C17.6994 1.67993 22.3201 6.30055 22.3201 11.9999C22.3201 17.6993 17.6994 22.3199 12.0001 22.3199H3.17484C2.62337 22.3199 2.34682 21.6532 2.73705 21.2629L4.70268 19.2973C2.83541 17.43 1.68005 14.85 1.68005 11.9999ZM15.7733 7.8703C14.9598 7.8703 14.2785 7.30512 14.0996 6.54644V6.54805C13.1127 6.68753 12.3516 7.53732 12.3516 8.56126V8.56771C13.8795 8.62495 15.2759 9.05549 16.382 9.74C16.7884 9.42717 17.2971 9.24093 17.8494 9.24093C19.1805 9.24093 20.2593 10.3197 20.2593 11.6508C20.2593 12.6111 19.6965 13.4407 18.883 13.8277C18.8072 16.6278 15.7548 18.8805 12.0049 18.8805C8.25505 18.8805 5.20662 16.6302 5.1268 13.8325C4.30685 13.4479 3.73925 12.6159 3.73925 11.65C3.73925 10.3189 4.81801 9.24012 6.14913 9.24012C6.70383 9.24012 7.21499 9.42798 7.62214 9.74322C8.71864 9.06355 10.0998 8.63301 11.6123 8.56932V8.56045C11.6123 7.13097 12.6983 5.95143 14.0891 5.80227C14.2503 5.0194 14.9429 4.43084 15.7733 4.43084C16.7231 4.43084 17.4931 5.20081 17.4931 6.15057C17.4931 7.10033 16.7231 7.8703 15.7733 7.8703Z" fill="#141414"/>
</svg>
