<svg width="24" height="24" viewBox="0 0 24 24" fill="none" xmlns="http://www.w3.org/2000/svg">
<path d="M7.27579 8.80844C7.34235 9.40298 7.64158 12.0759 5.40556 12.5567C3.16853 13.0401 2.33629 10.4468 2.58209 9.23197C2.58209 9.23197 2.84697 6.60858 4.66123 6.44649C6.10275 6.32028 7.16488 7.89987 7.27534 8.80444L7.27579 8.80844Z" fill="#141414"/>
<path d="M11.8043 4.86777C11.8043 6.63058 10.8044 8.05763 9.56732 8.05763C8.32937 8.05763 7.3271 6.63058 7.3271 4.86777C7.3271 3.10466 8.32966 1.67993 9.56732 1.67993C10.8044 1.67993 11.8043 3.10495 11.8043 4.86777Z" fill="#141414"/>
<path d="M17.8301 5.37635C17.6179 6.71626 16.5569 8.48458 14.9008 8.26749C13.2464 8.05531 12.8725 6.55735 13.0336 5.05505C13.1658 3.82686 14.6324 1.94421 15.8074 2.21457C16.977 2.48174 18.047 4.03817 17.8301 5.37635Z" fill="#141414"/>
<path d="M18.9547 7.94589C20.9289 7.94589 21.4589 9.87776 21.4589 10.5186C21.4589 10.5672 21.4604 10.6277 21.4622 10.6979C21.484 11.5599 21.543 13.8975 19.2742 13.9479C16.818 14.0011 16.7156 12.2864 16.7156 11.057C16.7156 9.76892 16.9768 7.94589 18.9547 7.94589Z" fill="#141414"/>
<path d="M8.76873 19.2945H9.94219L9.9419 16.4228H8.68545C8.11983 16.5918 7.84541 17.0307 7.78613 17.2205C7.72135 17.4101 7.57387 17.8924 7.70227 18.3098C7.95124 19.252 8.76873 19.2945 8.76873 19.2945Z" fill="#141414"/>
<path fill-rule="evenodd" clip-rule="evenodd" d="M14.9005 12.0192C16.3949 14.1624 18.9547 16.1446 18.9547 16.1446C18.9547 16.1446 20.8728 17.6466 19.6467 20.5389C18.422 23.4335 13.9405 21.9292 13.9405 21.9292C13.9405 21.9292 12.2876 21.396 10.3663 21.8241C8.44909 22.2537 6.7959 22.0916 6.7959 22.0916C6.7959 22.0916 4.55279 22.1454 3.91314 19.3067C3.37088 16.8927 5.36598 15.4066 6.1102 14.8522C6.24187 14.7541 6.33438 14.6852 6.36676 14.6455C6.42001 14.5782 6.55282 14.4644 6.73708 14.3066C7.29134 13.8318 8.31111 12.9583 9.03119 11.7509C9.99326 10.1464 12.872 8.85914 14.9005 12.0192ZM9.96561 15.2878V13.3808L11.2842 13.4017V20.4518H8.37141C7.11207 20.1994 6.61093 19.3397 6.54818 19.1921C6.54413 19.1824 6.53884 19.1705 6.53253 19.1563C6.44189 18.952 6.1418 18.2755 6.31887 17.1768C6.86193 15.4166 8.41334 15.2878 8.41334 15.2878H9.96561ZM11.9982 19.1709V15.4589L13.3608 15.4369V18.7723C13.4438 19.1272 13.885 19.1915 13.885 19.1915H15.2656V15.4583H16.7123V20.4312H13.3602C12.0589 20.0946 11.9982 19.1709 11.9982 19.1709Z" fill="#141414"/>
</svg>
