<svg width="24" height="24" viewBox="0 0 24 24" fill="none" xmlns="http://www.w3.org/2000/svg">
<path fill-rule="evenodd" clip-rule="evenodd" d="M15.3117 10.5607C14.468 11.4044 13.2962 11.9356 11.9995 11.9356C10.7183 11.9356 9.53096 11.4044 8.68729 10.5607C7.84362 9.71706 7.31242 8.5453 7.31242 7.24855C7.31242 5.95181 7.84362 4.78005 8.68729 3.93639C9.53096 3.09272 10.7027 2.56152 11.9995 2.56152C13.2962 2.56152 14.468 3.09272 15.3117 3.93639C16.1553 4.78005 16.6865 5.95181 16.6865 7.24855C16.6865 8.5453 16.1553 9.71706 15.3117 10.5607ZM11.9995 5.10814C11.4214 5.10814 10.8902 5.34249 10.4996 5.73308C10.1246 6.12367 9.87466 6.65486 9.87466 7.23293C9.87466 7.811 10.109 8.34219 10.4996 8.73278C10.8746 9.12337 11.4058 9.35772 11.9995 9.35772C12.5775 9.35772 13.1087 9.12337 13.4993 8.73278C13.8899 8.35782 14.1243 7.82662 14.1243 7.23293C14.1243 6.65486 13.8899 6.12367 13.4993 5.73308C13.1244 5.34249 12.5931 5.10814 11.9995 5.10814Z" fill="#141414"/>
<path d="M16.9365 11.9512L18.3114 13.826C18.3895 13.9198 18.3739 14.0448 18.2489 14.1229C17.0928 15.0759 15.7491 15.7009 14.343 16.0289L17.249 21.1534C17.3271 21.3097 17.2334 21.4815 17.0615 21.4815H14.218C14.1243 21.4815 14.0462 21.419 14.0149 21.3409L11.9839 16.8101L9.95282 21.3409C9.92158 21.4347 9.84346 21.4815 9.74972 21.4815H6.90624C6.75001 21.4815 6.64064 21.294 6.71876 21.1534L9.62473 16.0289C8.21862 15.7009 6.875 15.0603 5.71886 14.1229C5.64074 14.0448 5.62512 13.9198 5.68761 13.826L7.06248 11.9512C7.14059 11.8575 7.29683 11.8419 7.39057 11.92C8.68732 13.0292 10.2809 13.7479 11.9995 13.7479C13.7181 13.7479 15.3117 13.0292 16.6084 11.92C16.7022 11.8262 16.8584 11.8419 16.9365 11.9512Z" fill="#141414"/>
</svg>
