<svg width="24" height="24" viewBox="0 0 24 24" fill="none" xmlns="http://www.w3.org/2000/svg">
<path d="M20.8556 16.8841C17.6593 15.3364 17.1499 12.9468 17.1272 12.7696C17.0998 12.5549 17.0687 12.3861 17.3055 12.1677C17.5338 11.9567 18.5468 11.3295 18.8279 11.1333C19.2925 10.8083 19.4971 10.4839 19.3463 10.0851C19.2408 9.80924 18.984 9.70533 18.7135 9.70533C18.6281 9.70559 18.5431 9.71514 18.4598 9.73381C17.9494 9.84459 17.4537 10.1004 17.1668 10.1695C17.1323 10.1784 17.0969 10.1832 17.0613 10.1838C16.9084 10.1838 16.8504 10.1157 16.8651 9.93162C16.901 9.37353 16.9769 8.28423 16.8889 7.26668C16.7681 5.86669 16.3167 5.17302 15.7814 4.55954C15.5225 4.26203 14.3202 2.98389 11.9999 2.98389C9.67953 2.98389 8.47877 4.26203 8.22142 4.55584C7.68459 5.16933 7.23371 5.863 7.114 7.26299C7.02593 8.28054 7.10503 9.36931 7.13773 9.92793C7.14828 10.1031 7.09449 10.1801 6.94156 10.1801C6.90597 10.1795 6.87057 10.1747 6.83609 10.1658C6.54974 10.0967 6.05404 9.84089 5.54357 9.73012C5.4603 9.71145 5.37525 9.7019 5.28991 9.70163C5.01833 9.70163 4.76257 9.80713 4.6571 10.0814C4.50628 10.4802 4.70983 10.8046 5.17601 11.1296C5.45708 11.3258 6.47011 11.9525 6.69845 12.164C6.9347 12.3824 6.90412 12.5512 6.87669 12.7659C6.85402 12.9458 6.34408 15.3354 3.14836 16.8804C2.96116 16.9711 2.64264 17.1632 3.20426 17.4733C4.08598 17.9607 4.67292 17.9085 5.12907 18.2023C5.51614 18.4518 5.28728 18.9899 5.56888 19.184C5.91482 19.423 6.93734 19.1671 8.25834 19.6034C9.36576 19.9684 10.0387 20.9997 12.0025 20.9997C13.9663 20.9997 14.6587 19.9637 15.7466 19.6034C17.065 19.1671 18.0896 19.423 18.4361 19.184C18.7172 18.9899 18.4888 18.4518 18.8759 18.2023C19.3321 17.9085 19.9185 17.9607 20.8007 17.4733C21.3613 17.1669 21.0428 16.9748 20.8556 16.8841Z" fill="white"/>
<path d="M22.2463 16.7025C22.1028 16.3121 21.8297 16.1032 21.5185 15.9302C21.46 15.8959 21.4062 15.8685 21.3603 15.8474C21.2675 15.7994 21.1726 15.753 21.0782 15.7039C20.1084 15.1896 19.3511 14.5408 18.8259 13.7717C18.6767 13.5552 18.5474 13.3257 18.4394 13.0859C18.3945 12.9577 18.3966 12.885 18.4288 12.8185C18.4607 12.7673 18.5029 12.7233 18.5527 12.6892C18.7194 12.579 18.8913 12.4672 19.0078 12.3917C19.2156 12.2572 19.3801 12.1507 19.4861 12.0752C19.8843 11.7967 20.1627 11.5008 20.3367 11.17C20.4582 10.9415 20.529 10.6895 20.5443 10.4312C20.5597 10.1729 20.5193 9.9143 20.4259 9.67299C20.1622 8.97879 19.5067 8.54782 18.7125 8.54782C18.545 8.54767 18.378 8.56535 18.2142 8.60058C18.1704 8.61007 18.1266 8.62009 18.0839 8.63117C18.0913 8.15642 18.0808 7.65529 18.0386 7.16208C17.8888 5.42817 17.2818 4.51929 16.649 3.7945C16.2438 3.34031 15.7665 2.95606 15.2363 2.6572C14.276 2.1086 13.187 1.83008 11.9999 1.83008C10.8129 1.83008 9.7292 2.1086 8.76785 2.6572C8.23635 2.95615 7.75807 3.34118 7.35246 3.79661C6.71964 4.5214 6.11267 5.43187 5.9629 7.16419C5.92072 7.6574 5.91017 8.16117 5.91703 8.63328C5.87431 8.6222 5.83107 8.61218 5.7873 8.60269C5.62353 8.56746 5.45647 8.54978 5.28896 8.54994C4.49425 8.54994 3.8377 8.98091 3.57509 9.6751C3.48122 9.91651 3.4404 10.1753 3.45541 10.4339C3.47043 10.6925 3.54092 10.9448 3.6621 11.1737C3.83665 11.5045 4.11509 11.8004 4.51323 12.0789C4.6187 12.1528 4.78376 12.2593 4.99153 12.3954C5.10386 12.4682 5.26786 12.5748 5.4287 12.6813C5.48498 12.7177 5.53281 12.7658 5.56898 12.8222C5.60273 12.8913 5.60378 12.9657 5.55368 13.1028C5.44713 13.3375 5.31989 13.5622 5.17347 13.7743C4.65983 14.526 3.92472 15.1632 2.98604 15.6733C2.48875 15.9371 1.97196 16.1133 1.75364 16.7067C1.5891 17.1546 1.69668 17.6641 2.11487 18.0935C2.26834 18.2538 2.44636 18.3886 2.64221 18.4928C3.04974 18.7169 3.48308 18.8903 3.93263 19.0093C4.0254 19.0332 4.11347 19.0726 4.19313 19.1258C4.34554 19.2593 4.32392 19.4603 4.52694 19.7546C4.62886 19.9067 4.75836 20.0384 4.90874 20.1429C5.33484 20.4372 5.81367 20.4557 6.32097 20.4752C6.77923 20.4926 7.29867 20.5126 7.89193 20.7083C8.13768 20.7896 8.39291 20.9468 8.68875 21.1303C9.39908 21.5671 10.3715 22.1648 11.9989 22.1648C13.6263 22.1648 14.6056 21.564 15.3212 21.1256C15.6149 20.9452 15.8686 20.7896 16.1074 20.7105C16.7007 20.5142 17.2201 20.4947 17.6784 20.4773C18.1857 20.4578 18.6645 20.4393 19.0906 20.145C19.2687 20.0207 19.4171 19.8586 19.5252 19.6702C19.6712 19.4218 19.6675 19.2482 19.8047 19.1269C19.8794 19.0762 19.9621 19.0384 20.0493 19.0151C20.505 18.8957 20.9443 18.7207 21.3572 18.4939C21.5652 18.3822 21.7526 18.2355 21.9109 18.0603L21.9161 18.054C22.3085 17.6341 22.4071 17.1393 22.2463 16.7025ZM20.7998 17.48C19.9175 17.9674 19.3311 17.9152 18.8749 18.209C18.4873 18.4585 18.7167 18.9966 18.4351 19.1907C18.0892 19.4297 17.0667 19.1738 15.7457 19.6101C14.6562 19.9704 13.9611 21.0064 12.0015 21.0064C10.0419 21.0064 9.36322 19.9725 8.2558 19.6074C6.93744 19.1712 5.91281 19.427 5.56634 19.1881C5.28527 18.994 5.51361 18.4559 5.12654 18.2064C4.66985 17.9126 4.08345 17.9648 3.20173 17.48C2.6401 17.1699 2.95862 16.9778 3.14583 16.8871C6.34154 15.3394 6.85148 12.9498 6.87416 12.7726C6.90158 12.5579 6.93216 12.3891 6.69591 12.1707C6.46757 11.9597 5.45454 11.3325 5.17347 11.1363C4.70835 10.8113 4.50374 10.4869 4.65456 10.0881C4.76003 9.81225 5.01737 9.70833 5.28737 9.70833C5.37271 9.70859 5.45776 9.71814 5.54103 9.73682C6.0515 9.84759 6.5472 10.1034 6.83355 10.1725C6.86803 10.1814 6.90343 10.1862 6.93902 10.1868C7.09195 10.1868 7.14574 10.1098 7.13519 9.93463C7.1025 9.37601 7.0234 8.28724 7.11146 7.26969C7.23222 5.86969 7.6831 5.17603 8.21889 4.56254C8.47623 4.26767 9.68543 2.98953 11.9978 2.98953C14.3102 2.98953 15.5226 4.26239 15.78 4.55621C16.3163 5.1697 16.7677 5.86336 16.8874 7.26336C16.9755 8.28091 16.8995 9.3702 16.8637 9.9283C16.8515 10.1124 16.9069 10.1804 17.0598 10.1804C17.0954 10.1799 17.1308 10.1751 17.1653 10.1662C17.4522 10.0971 17.9479 9.84126 18.4583 9.73049C18.5416 9.71181 18.6267 9.70226 18.712 9.702C18.9836 9.702 19.2393 9.8075 19.3448 10.0818C19.4956 10.4806 19.2921 10.805 18.8264 11.1299C18.5454 11.3262 17.5323 11.9529 17.304 12.1644C17.0672 12.3828 17.0983 12.5516 17.1257 12.7663C17.1484 12.9461 17.6578 15.3357 20.8541 16.8808C21.0429 16.9752 21.3614 17.1672 20.7998 17.48Z" fill="#141414"/>
</svg>
