<svg width="24" height="24" viewBox="0 0 24 24" fill="none" xmlns="http://www.w3.org/2000/svg">
<path d="M22.2463 16.7022C22.1028 16.3119 21.8297 16.103 21.5185 15.93C21.46 15.8957 21.4062 15.8683 21.3603 15.8472C21.2675 15.7992 21.1726 15.7527 21.0782 15.7037C20.1084 15.1894 19.3511 14.5405 18.8259 13.7714C18.6767 13.5549 18.5474 13.3254 18.4394 13.0857C18.3945 12.9575 18.3966 12.8847 18.4288 12.8182C18.4607 12.767 18.5029 12.723 18.5527 12.689C18.7194 12.5788 18.8913 12.4669 19.0078 12.3915C19.2156 12.257 19.3801 12.1504 19.4861 12.075C19.8843 11.7965 20.1627 11.5005 20.3367 11.1698C20.4582 10.9413 20.529 10.6893 20.5443 10.431C20.5597 10.1727 20.5193 9.91405 20.4259 9.67274C20.1622 8.97855 19.5067 8.54758 18.7125 8.54758C18.545 8.54742 18.378 8.5651 18.2142 8.60033C18.1704 8.60983 18.1266 8.61985 18.0839 8.63093C18.0913 8.15617 18.0808 7.65505 18.0386 7.16183C17.8888 5.42793 17.2818 4.51904 16.649 3.79425C16.2438 3.34007 15.7665 2.95582 15.2363 2.65696C14.276 2.10836 13.187 1.82983 11.9999 1.82983C10.8129 1.82983 9.7292 2.10836 8.76785 2.65696C8.23635 2.95591 7.75807 3.34093 7.35246 3.79636C6.71964 4.52115 6.11267 5.43162 5.9629 7.16394C5.92072 7.65716 5.91017 8.16092 5.91703 8.63304C5.87431 8.62196 5.83107 8.61194 5.7873 8.60244C5.62353 8.56722 5.45647 8.54953 5.28896 8.54969C4.49425 8.54969 3.8377 8.98066 3.57509 9.67485C3.48122 9.91626 3.4404 10.1751 3.45541 10.4337C3.47043 10.6922 3.54092 10.9446 3.6621 11.1735C3.83665 11.5042 4.11509 11.8002 4.51323 12.0787C4.6187 12.1525 4.78376 12.2591 4.99153 12.3952C5.10386 12.468 5.26786 12.5745 5.4287 12.6811C5.48498 12.7175 5.53281 12.7655 5.56898 12.8219C5.60273 12.891 5.60378 12.9654 5.55368 13.1026C5.44713 13.3373 5.31989 13.562 5.17347 13.7741C4.65983 14.5258 3.92472 15.163 2.98604 15.6731C2.48875 15.9368 1.97196 16.113 1.75364 16.7065C1.5891 17.1543 1.69668 17.6639 2.11487 18.0933C2.26834 18.2535 2.44636 18.3883 2.64221 18.4926C3.04974 18.7166 3.48308 18.89 3.93263 19.009C4.0254 19.0329 4.11347 19.0724 4.19313 19.1256C4.34554 19.2591 4.32392 19.46 4.52694 19.7544C4.62886 19.9065 4.75836 20.0382 4.90874 20.1426C5.33484 20.437 5.81367 20.4554 6.32097 20.4749C6.77923 20.4924 7.29867 20.5124 7.89193 20.7081C8.13768 20.7893 8.39291 20.9465 8.68875 21.1301C9.39908 21.5669 10.3715 22.1645 11.9989 22.1645C13.6263 22.1645 14.6056 21.5637 15.3212 21.1254C15.6149 20.9449 15.8686 20.7893 16.1074 20.7102C16.7007 20.514 17.2201 20.4945 17.6784 20.4771C18.1857 20.4575 18.6645 20.4391 19.0906 20.1447C19.2687 20.0205 19.4171 19.8584 19.5252 19.67C19.6712 19.4215 19.6675 19.248 19.8047 19.1266C19.8794 19.076 19.9621 19.0382 20.0493 19.0148C20.505 18.8955 20.9443 18.7204 21.3572 18.4936C21.5652 18.382 21.7526 18.2353 21.9109 18.06L21.9161 18.0537C22.3085 17.6338 22.4071 17.139 22.2463 16.7022ZM20.7998 17.4798C19.9175 17.9672 19.3311 17.915 18.8749 18.2088C18.4873 18.4583 18.7167 18.9964 18.4351 19.1905C18.0892 19.4294 17.0667 19.1736 15.7457 19.6098C14.6562 19.9701 13.9611 21.0061 12.0015 21.0061C10.0419 21.0061 9.36322 19.9722 8.2558 19.6072C6.93744 19.171 5.91281 19.4268 5.56634 19.1878C5.28527 18.9937 5.51361 18.4557 5.12654 18.2062C4.66985 17.9123 4.08345 17.9646 3.20173 17.4798C2.6401 17.1696 2.95862 16.9776 3.14583 16.8869C6.34154 15.3392 6.85148 12.9496 6.87416 12.7723C6.90158 12.5577 6.93216 12.3889 6.69591 12.1705C6.46757 11.9595 5.45454 11.3323 5.17347 11.136C4.70835 10.8111 4.50374 10.4867 4.65456 10.0879C4.76003 9.812 5.01737 9.70809 5.28737 9.70809C5.37271 9.70835 5.45776 9.7179 5.54103 9.73657C6.0515 9.84735 6.5472 10.1032 6.83355 10.1723C6.86803 10.1811 6.90343 10.1859 6.93902 10.1865C7.09195 10.1865 7.14574 10.1095 7.13519 9.93439C7.1025 9.37576 7.0234 8.28699 7.11146 7.26944C7.23222 5.86945 7.6831 5.17578 8.21889 4.5623C8.47623 4.26742 9.68543 2.98929 11.9978 2.98929C14.3102 2.98929 15.5226 4.26215 15.78 4.55597C16.3163 5.16945 16.7677 5.86312 16.8874 7.26311C16.9755 8.28066 16.8995 9.36996 16.8637 9.92805C16.8515 10.1122 16.9069 10.1802 17.0598 10.1802C17.0954 10.1796 17.1308 10.1748 17.1653 10.166C17.4522 10.0969 17.9479 9.84102 18.4583 9.73024C18.5416 9.71157 18.6267 9.70202 18.712 9.70176C18.9836 9.70176 19.2393 9.80726 19.3448 10.0816C19.4956 10.4803 19.2921 10.8048 18.8264 11.1297C18.5454 11.3259 17.5323 11.9526 17.304 12.1641C17.0672 12.3825 17.0983 12.5513 17.1257 12.766C17.1484 12.9459 17.6578 15.3355 20.8541 16.8805C21.0429 16.975 21.3614 17.167 20.7998 17.4798Z" fill="#141414"/>
</svg>
