<svg width="24" height="24" viewBox="0 0 24 24" fill="none" xmlns="http://www.w3.org/2000/svg">
<path d="M11.9634 1.6748C6.28133 1.6748 1.67493 6.28109 1.67493 11.9631C1.67493 17.6454 6.28133 22.2513 11.9634 22.2513C17.646 22.2513 22.2519 17.6454 22.2519 11.9631C22.2519 6.28146 17.646 1.6753 11.9632 1.6753L11.9634 1.6748ZM16.6816 16.5135C16.4973 16.8157 16.1017 16.9115 15.7994 16.726C13.3838 15.2505 10.3429 14.9163 6.76158 15.7346C6.41648 15.8132 6.07248 15.597 5.99385 15.2517C5.91485 14.9065 6.13022 14.5625 6.47618 14.4839C10.3953 13.5881 13.7571 13.974 16.469 15.6314C16.7712 15.8169 16.8671 16.2113 16.6816 16.5135ZM17.9408 13.7117C17.7086 14.0895 17.2148 14.2087 16.8376 13.9765C14.0721 12.2763 9.85648 11.784 6.5854 12.7769C6.16118 12.9051 5.71312 12.666 5.58436 12.2425C5.45659 11.8183 5.6958 11.3711 6.11928 11.2421C9.85574 10.1083 14.5008 10.6575 17.6767 12.6091C18.0539 12.8413 18.173 13.3351 17.9408 13.7117ZM18.049 10.7946C14.733 8.82509 9.26222 8.644 6.09631 9.60486C5.58793 9.75905 5.0503 9.47206 4.89624 8.96367C4.74218 8.45504 5.02893 7.91779 5.53768 7.76324C9.17192 6.65998 15.2134 6.87314 19.0311 9.13948C19.4893 9.41087 19.6392 10.0014 19.3677 10.4581C19.0974 10.9154 18.5052 11.0661 18.0494 10.7946H18.049Z" fill="#141414"/>
</svg>
