<svg width="24" height="24" viewBox="0 0 24 24" fill="none" xmlns="http://www.w3.org/2000/svg">
<path fill-rule="evenodd" clip-rule="evenodd" d="M20.5583 1.67993H3.44465C2.97662 1.67993 2.52776 1.86586 2.19681 2.19681C1.86586 2.52776 1.67993 2.97662 1.67993 3.44465L1.67993 20.5552C1.67993 21.0232 1.86586 21.4721 2.19681 21.8031C2.52776 22.134 2.97662 22.3199 3.44465 22.3199H20.5583C21.0258 22.3191 21.4739 22.1328 21.8042 21.802C22.1344 21.4711 22.3199 21.0227 22.3199 20.5552V3.44465C22.3199 2.97715 22.1344 2.52876 21.8042 2.1979C21.4739 1.86704 21.0258 1.68075 20.5583 1.67993ZM20.9505 14.9545C20.9494 16.5434 20.3174 18.0668 19.1934 19.1898C18.0694 20.3128 16.5455 20.9435 14.9566 20.9432H9.05667C7.46809 20.9432 5.94455 20.3123 4.82111 19.1891C3.69767 18.066 3.06632 16.5426 3.06591 14.954V9.04222C3.06584 8.25553 3.22076 7.47654 3.52181 6.74973C3.82286 6.02293 4.26415 5.36255 4.82047 4.80633C5.37679 4.2501 6.03724 3.80893 6.7641 3.508C7.49096 3.20707 8.26998 3.05229 9.05667 3.05249H14.9695C16.5583 3.05276 18.0821 3.6838 19.2059 4.80692C20.3297 5.93005 20.9616 7.4534 20.9629 9.04222L20.9494 14.954L20.9505 14.9545Z" fill="#141414"/>
</svg>
