<svg width="24" height="24" viewBox="0 0 24 24" fill="none" xmlns="http://www.w3.org/2000/svg">
<path d="M5.0933 5.75586C4.91402 5.75586 4.76315 5.81878 4.68737 5.94191C4.6089 6.0691 4.62107 6.23282 4.70429 6.39858L6.71701 9.88278C6.72039 9.88954 6.72039 9.8936 6.71701 9.89969L3.55417 15.4812C3.47163 15.6456 3.47569 15.8107 3.55417 15.9378C3.62994 16.0603 3.7639 16.1408 3.94318 16.1408H6.91997C7.36513 16.1408 7.5796 15.8404 7.73182 15.5657C7.73182 15.5657 10.825 10.0952 10.9454 9.88278C10.9332 9.86316 8.89886 6.31401 8.89886 6.31401C8.75069 6.05016 8.52676 5.75586 8.07009 5.75586H5.0933Z" fill="#005A5F"/>
<path d="M17.5995 1.67993C17.155 1.67993 16.9622 1.96003 16.8025 2.24688C16.8025 2.24688 10.3895 13.6196 10.1785 13.993C10.1893 14.0133 14.4082 21.753 14.4082 21.753C14.5557 22.0168 14.7837 22.3199 15.2397 22.3199H18.2131C18.3924 22.3199 18.5324 22.2523 18.6082 22.1298C18.6873 22.0026 18.6853 21.8348 18.6021 21.6698L14.4055 14.0025C14.4015 13.9964 14.4015 13.989 14.4055 13.9829L20.9964 2.32942C21.0789 2.16502 21.081 1.99723 21.0025 1.87004C20.9267 1.74759 20.786 1.67993 20.6067 1.67993H17.5995Z" fill="#D4D600"/>
</svg>
