<svg width="36" height="36" viewBox="0 0 36 36" fill="none" xmlns="http://www.w3.org/2000/svg">
<path fill-rule="evenodd" clip-rule="evenodd" d="M34.2 9.11022C30.5868 13.917 24.6748 17.0519 18 17.0519C11.3253 17.0519 5.41328 13.917 1.80005 9.11022L9.90008 3.60001C11.7066 6.00341 14.6626 7.57086 18 7.57086C21.3375 7.57086 24.2935 6.00341 26.1 3.60001L34.2 9.11022Z" fill="#141414"/>
<path fill-rule="evenodd" clip-rule="evenodd" d="M1.80009 26.8898C5.41332 22.083 11.3253 18.9481 18.0001 18.9481C24.6748 18.9481 30.5868 22.083 34.2 26.8898L26.1 32.4C24.2935 29.9966 21.3375 28.4292 18.0001 28.4292C14.6626 28.4292 11.7066 29.9966 9.90013 32.4L1.80009 26.8898Z" fill="#141414"/>
</svg>
