<svg width="24" height="24" viewBox="0 0 24 24" fill="none" xmlns="http://www.w3.org/2000/svg">
<path d="M19 1C20.6569 1 22 2.34315 22 4V6C22 7.65685 20.6569 9 19 9H13V12H17C19.2091 12 21 13.7909 21 16V17.1738C22.1647 17.5859 23 18.6941 23 20C23 21.6569 21.6569 23 20 23C18.3431 23 17 21.6569 17 20C17 18.6941 17.8353 17.5859 19 17.1738V16C19 14.8954 18.1046 14 17 14H13V17.1738C14.1647 17.5859 15 18.6941 15 20C15 21.6569 13.6569 23 12 23C10.3431 23 9 21.6569 9 20C9 18.6941 9.83532 17.5859 11 17.1738V14H7C5.89543 14 5 14.8954 5 16V17.1738C6.16468 17.5859 7 18.6941 7 20C7 21.6569 5.65685 23 4 23C2.34315 23 1 21.6569 1 20C1 18.6941 1.83532 17.5859 3 17.1738V16C3 13.7909 4.79086 12 7 12H11V9H5C3.34315 9 2 7.65685 2 6V4C2 2.34315 3.34315 1 5 1H19ZM4 19C3.44772 19 3 19.4477 3 20C3 20.5523 3.44772 21 4 21C4.55228 21 5 20.5523 5 20C5 19.4477 4.55228 19 4 19ZM12 19C11.4477 19 11 19.4477 11 20C11 20.5523 11.4477 21 12 21C12.5523 21 13 20.5523 13 20C13 19.4477 12.5523 19 12 19ZM20 19C19.4477 19 19 19.4477 19 20C19 20.5523 19.4477 21 20 21C20.5523 21 21 20.5523 21 20C21 19.4477 20.5523 19 20 19ZM5 3C4.44772 3 4 3.44772 4 4V6C4 6.55228 4.44772 7 5 7H19C19.5523 7 20 6.55228 20 6V4C20 3.44772 19.5523 3 19 3H5Z" fill="#141414"/>
</svg>
