<svg width="24" height="24" viewBox="0 0 24 24" fill="none" xmlns="http://www.w3.org/2000/svg">
<path d="M15.5 1C17.9853 1 20 2.92746 20 5.30469C19.9999 6.65664 19.3484 7.8633 18.3291 8.65234C19.3484 9.44146 20 10.648 20 12C20 14.3772 17.9853 16.3047 15.5 16.3047C14.5749 16.3047 13.715 16.0369 13 15.5791V18.6953C13 21.0725 10.9853 23 8.5 23C6.01472 23 4 21.0725 4 18.6953C4.00011 17.3434 4.65159 16.1367 5.6709 15.3477C4.6516 14.5585 4 13.352 4 12C4 10.648 4.6516 9.44146 5.6709 8.65234C4.65159 7.8633 4.00011 6.65664 4 5.30469C4 2.92746 6.01472 1 8.5 1H15.5ZM8.5 16.3047C7.11941 16.3047 6.00019 17.3748 6 18.6953C6 20.016 7.11929 21.0869 8.5 21.0869C9.88071 21.0869 11 20.016 11 18.6953V16.3047H8.5ZM8.5 9.6084C7.11929 9.6084 6 10.6793 6 12C6 13.3207 7.11929 14.3916 8.5 14.3916H11V9.6084H8.5ZM15.5 9.6084C14.1193 9.6084 13 10.6793 13 12C13 13.3207 14.1193 14.3916 15.5 14.3916C16.8807 14.3916 18 13.3207 18 12C18 10.6793 16.8807 9.6084 15.5 9.6084ZM8.5 2.91309C7.11929 2.91309 6 3.98401 6 5.30469C6.00019 6.62521 7.11941 7.69531 8.5 7.69531H11V2.91309H8.5ZM13 7.69531H15.5C16.8806 7.69531 17.9998 6.62521 18 5.30469C18 3.98401 16.8807 2.91309 15.5 2.91309H13V7.69531Z" fill="#141414"/>
</svg>
