<svg width="24" height="24" viewBox="0 0 24 24" fill="none" xmlns="http://www.w3.org/2000/svg">
<path d="M17 11C17.4589 11 17.8584 11.3126 17.9697 11.7578L18.0967 12.2646C18.5445 14.0561 19.9439 15.4555 21.7354 15.9033L22.2422 16.0303C22.6874 16.1416 23 16.5411 23 17C23 17.4589 22.6874 17.8584 22.2422 17.9697L21.7354 18.0967C19.9439 18.5445 18.5445 19.9439 18.0967 21.7354L17.9697 22.2422C17.8584 22.6874 17.4589 23 17 23C16.5411 23 16.1416 22.6874 16.0303 22.2422L15.9033 21.7354C15.4555 19.9439 14.0561 18.5445 12.2646 18.0967L11.7578 17.9697C11.3126 17.8584 11 17.4589 11 17C11 16.5411 11.3126 16.1416 11.7578 16.0303L12.2646 15.9033C14.0561 15.4555 15.4555 14.0561 15.9033 12.2646L16.0303 11.7578C16.1416 11.3126 16.5411 11 17 11ZM7 18H9V20H7V22H5V20H3V18H5V16H7V18ZM17 14.7441C16.4318 15.6592 15.6592 16.4319 14.7441 17C15.6592 17.5681 16.4319 18.3408 17 19.2559C17.5681 18.3408 18.3408 17.5681 19.2559 17C18.3408 16.4319 17.5681 15.6592 17 14.7441ZM7 1C7.45887 1 7.85843 1.31265 7.96973 1.75781L8.09668 2.26465C8.54454 4.05607 9.94393 5.45546 11.7354 5.90332L12.2422 6.03027C12.6874 6.14156 13 6.54113 13 7C13 7.45887 12.6874 7.85844 12.2422 7.96973L11.7354 8.09668C9.94393 8.54454 8.54454 9.94393 8.09668 11.7354L7.96973 12.2422C7.85844 12.6874 7.45887 13 7 13C6.54113 13 6.14156 12.6874 6.03027 12.2422L5.90332 11.7354C5.45546 9.94393 4.05607 8.54454 2.26465 8.09668L1.75781 7.96973C1.31265 7.85844 1 7.45887 1 7C1 6.54113 1.31265 6.14156 1.75781 6.03027L2.26465 5.90332C4.05607 5.45546 5.45546 4.05607 5.90332 2.26465L6.03027 1.75781C6.14157 1.31265 6.54113 1 7 1ZM7 4.74414C6.43185 5.65922 5.65922 6.43185 4.74414 7C5.65922 7.56815 6.43185 8.34078 7 9.25586C7.56815 8.34078 8.34078 7.56815 9.25586 7C8.34078 6.43185 7.56815 5.65922 7 4.74414ZM20 5H22V7H20V9H18V7H16V5H18V3H20V5Z" fill="#141414"/>
</svg>
