<svg width="24" height="24" viewBox="0 0 24 24" fill="none" xmlns="http://www.w3.org/2000/svg">
<path d="M13 2C14.6569 2 16 3.34315 16 5V8H19C20.6569 8 22 9.34315 22 11V19C22 20.6569 20.6569 22 19 22H11C9.34315 22 8 20.6569 8 19V16H5C3.34315 16 2 14.6569 2 13V5C2 3.34315 3.34315 2 5 2H13ZM16 13C16 14.6569 14.6569 16 13 16H10V19C10 19.5523 10.4477 20 11 20H19C19.5523 20 20 19.5523 20 19V11C20 10.4477 19.5523 10 19 10H16V13ZM11 10C10.4477 10 10 10.4477 10 11V14H13C13.5523 14 14 13.5523 14 13V10H11ZM5 4C4.44772 4 4 4.44772 4 5V13C4 13.5523 4.44772 14 5 14H8V11C8 9.34315 9.34315 8 11 8H14V5C14 4.44772 13.5523 4 13 4H5Z" fill="#141414"/>
</svg>
