<svg width="24" height="24" viewBox="0 0 24 24" fill="none" xmlns="http://www.w3.org/2000/svg">
<path d="M21 4.41406L4.40039 21L3 19.5859L19.5996 3L21 4.41406ZM16.9336 14C18.5826 14 19.9189 15.3432 19.9189 17C19.9189 18.6568 18.5826 20 16.9336 20C15.2846 20 13.9482 18.6569 13.9482 17C13.9483 15.3432 15.2846 14 16.9336 14ZM16.9336 16C16.3839 16 15.9385 16.4477 15.9385 17C15.9385 17.5523 16.3839 18 16.9336 18C17.4832 18 17.9287 17.5523 17.9287 17C17.9287 16.4477 17.4832 16 16.9336 16ZM6.98145 4C8.63023 4.00024 9.96678 5.34331 9.9668 7C9.9668 8.65671 8.63024 9.99976 6.98145 10C5.33245 10 3.99512 8.65685 3.99512 7C3.99513 5.34316 5.33246 4 6.98145 4ZM6.98145 6C6.43179 6 5.98537 6.44773 5.98535 7C5.98535 7.55228 6.43178 8 6.98145 8C7.53091 7.99976 7.97656 7.55214 7.97656 7C7.97655 6.44788 7.5309 6.00024 6.98145 6Z" fill="#141414"/>
</svg>
