<svg width="24" height="24" viewBox="0 0 24 24" fill="none" xmlns="http://www.w3.org/2000/svg">
<path d="M12 1C18.0751 1 23 5.92487 23 12C23 18.0751 18.0751 23 12 23C5.92487 23 1 18.0751 1 12C1 5.92487 5.92487 1 12 1ZM12 3C7.02944 3 3 7.02944 3 12C3 16.9706 7.02944 21 12 21C16.9706 21 21 16.9706 21 12C21 7.02944 16.9706 3 12 3ZM17.9141 16.4102L12.4141 18.9102C12.1511 19.0297 11.8489 19.0297 11.5859 18.9102L6.08594 16.4102L6.91406 14.5898L12 16.9014L17.0859 14.5898L17.9141 16.4102ZM12 4C12.2942 4.00001 12.5737 4.12994 12.7637 4.35449L18.2637 10.8545C18.4657 11.0935 18.5441 11.4133 18.4756 11.7188C18.4069 12.0243 18.1991 12.2805 17.9141 12.4102L12.4141 14.9102C12.1511 15.0297 11.8489 15.0297 11.5859 14.9102L6.08594 12.4102C5.80085 12.2805 5.59306 12.0244 5.52441 11.7188C5.45593 11.4133 5.53427 11.0935 5.73633 10.8545L11.2373 4.35449C11.4273 4.13 11.7059 4.00006 12 4ZM8.11719 11.1367L12 12.9014L15.8828 11.1367L12 6.54785L8.11719 11.1367Z" fill="#141414"/>
</svg>
