<svg width="24" height="24" viewBox="0 0 24 24" fill="none" xmlns="http://www.w3.org/2000/svg">
<path d="M12 1C18.0751 1 23 5.93278 23 12.0176C23 15.0504 21.8937 17.6894 19.7793 19.8076C15.7207 23.8733 9.02495 24.0827 4.72363 20.2803C2.4417 18.263 1.00002 15.3083 1 12.0176C1 8.97514 2.23279 6.21929 4.22266 4.22656C6.21212 2.23426 8.96304 1 12 1ZM11.0146 19.0283C9.74763 19.0285 8.49588 19.2625 7.32129 19.7139C10.2791 21.4965 14.1021 21.4125 16.9824 19.5176C15.6444 19.1925 14.2705 19.0281 12.8896 19.0283H11.0146ZM13 5.50684H11V3.05859C9.26436 3.2506 7.67785 3.93602 6.38281 4.97363L8.20703 6.80078L6.79297 8.21777L4.96875 6.39062C3.93232 7.68789 3.24648 9.27679 3.05469 11.0156H5.38574V13.0195H3.05469C3.2805 15.0661 4.19053 16.9057 5.55176 18.3057C7.24674 17.4651 9.11557 17.0257 11.0137 17.0254L12.8887 17.0244C14.8903 17.0241 16.8795 17.3355 18.7842 17.9453C20.0319 16.5341 20.7607 14.8892 20.9502 13.0195H18.5V11.0156H20.9453C20.7526 9.27035 20.062 7.6755 19.0195 6.37598L15.3994 10.002C15.7489 10.5922 15.9502 11.2818 15.9502 12.0176C15.9502 13.0952 15.5184 14.0736 14.8213 14.7861C14.1055 15.5178 13.1051 15.9736 12 15.9736C9.8185 15.9736 8.0498 14.2026 8.0498 12.0176C8.04982 10.9108 8.50487 9.90836 9.23535 9.19141C9.9468 8.49316 10.9241 8.06154 12 8.06152C12.7572 8.06152 13.4653 8.27539 14.0664 8.64551L17.6807 5.02539C16.3745 3.95957 14.7641 3.25392 13 3.05859V5.50684ZM12 9.96484C11.4412 9.96486 10.9361 10.187 10.5654 10.5508C10.1846 10.9246 9.95021 11.4429 9.9502 12.0176C9.9502 13.1515 10.8678 14.0713 12 14.0713C12.5738 14.0713 13.0917 13.8355 13.4648 13.4541C13.8278 13.0828 14.0498 12.5771 14.0498 12.0176C14.0498 11.458 13.8279 10.9523 13.4648 10.5811C13.0917 10.1996 12.5738 9.96484 12 9.96484Z" fill="#141414"/>
</svg>
