<svg width="24" height="24" viewBox="0 0 24 24" fill="none" xmlns="http://www.w3.org/2000/svg">
<path d="M17 3H15V5.5127C18.4951 6.74824 21 10.0804 21 14C21 18.9706 16.9706 23 12 23C7.02944 23 3 18.9706 3 14C3.00002 10.0804 5.50494 6.74824 9 5.5127V3H7V1H17V3ZM5.29102 12C5.10231 12.6339 5 13.305 5 14C5 17.866 8.13401 21 12 21C15.866 21 19 17.866 19 14C19 13.305 18.8977 12.6339 18.709 12H5.29102ZM14.5 14C15.3284 14 16 14.6716 16 15.5C16 16.3284 15.3284 17 14.5 17C13.6716 17 13 16.3284 13 15.5C13 14.6716 13.6716 14 14.5 14ZM9 14C9.55228 14 10 14.4477 10 15C10 15.5523 9.55228 16 9 16C8.44772 16 8 15.5523 8 15C8 14.4477 8.44772 14 9 14ZM11 6.25195C11 6.70824 10.6909 7.10697 10.249 7.2207C8.60717 7.64336 7.20017 8.64796 6.25684 10H17.7432C16.7998 8.64796 15.3928 7.64336 13.751 7.2207C13.3091 7.10697 13 6.70824 13 6.25195V3H11V6.25195Z" fill="#141414"/>
</svg>
