<svg width="24" height="24" viewBox="0 0 24 24" fill="none" xmlns="http://www.w3.org/2000/svg">
<path d="M16 23H8V21H16V23ZM12 1C16.9706 1 21 5.02944 21 10C21 14.9706 16.9706 19 12 19C7.02944 19 3 14.9706 3 10C3 5.02944 7.02944 1 12 1ZM12 2.89453C8.07587 2.89453 4.89453 6.07587 4.89453 10C4.89453 13.9241 8.07587 17.1055 12 17.1055C15.9241 17.1055 19.1055 13.9241 19.1055 10C19.1055 6.07587 15.9241 2.89453 12 2.89453ZM12 6.0332C14.191 6.0332 15.9668 7.80903 15.9668 10C15.9668 12.191 14.191 13.9668 12 13.9668C9.80903 13.9668 8.0332 12.191 8.0332 10C8.0332 7.80903 9.80903 6.0332 12 6.0332ZM12 7.92773C10.8555 7.92773 9.92773 8.85546 9.92773 10C9.92773 11.1445 10.8555 12.0723 12 12.0723C13.1445 12.0723 14.0723 11.1445 14.0723 10C14.0723 8.85546 13.1445 7.92773 12 7.92773Z" fill="#141414"/>
</svg>
