<svg width="24" height="24" viewBox="0 0 24 24" fill="none" xmlns="http://www.w3.org/2000/svg">
<path d="M19 4C21.2091 4 23 5.79087 23 8V16C23 18.2091 21.2091 20 19 20H12.4141L14 21.5859L12.5859 23L9.29297 19.707C8.90246 19.3165 8.90245 18.6835 9.29297 18.293L12.5859 15L14 16.4141L12.4141 18H19C20.1046 18 21 17.1046 21 16V8C21 6.89544 20.1046 6 19 6H18V4H19ZM14.707 4.29297C15.0976 4.68349 15.0975 5.31651 14.707 5.70703L11.4141 9L10 7.58594L11.5859 6H5C3.89544 6 3.00002 6.89544 3 8V16C3 17.1046 3.89543 18 5 18H6V20H5C2.79086 20 1 18.2091 1 16V8C1.00002 5.79087 2.79087 4 5 4H11.5859L10 2.41406L11.4141 1L14.707 4.29297Z" fill="#141414"/>
</svg>
