<svg width="24" height="24" viewBox="0 0 24 24" fill="none" xmlns="http://www.w3.org/2000/svg">
<path d="M6.72461 2.50082C8.34393 1.62106 9.98838 1.97759 11.1602 2.97054C12.2948 3.9321 13 5.48224 13 7.12093V14.6493L15.793 11.8778L17.207 13.2811L12.707 17.7469C12.3165 18.1345 11.6835 18.1345 11.293 17.7469L6.79297 13.2811L8.20703 11.8778L11 14.6493V7.12093C11 6.01911 10.5185 5.0362 9.86133 4.47933C9.24133 3.9541 8.48827 3.806 7.68555 4.24203C4.8914 5.76006 3.00003 8.70299 3 12.0828C3 17.0159 7.02944 21.0155 12 21.0155C16.9706 21.0155 21 17.0159 21 12.0828C21 8.59711 18.9884 5.57557 16.0498 4.10336L16.9502 2.33187C20.5366 4.12846 23 7.81918 23 12.0828C23 18.1121 18.0751 22.9998 12 22.9998C5.92487 22.9998 1 18.1121 1 12.0828C1.00003 7.94903 3.31537 4.35312 6.72461 2.50082Z" fill="#141414"/>
</svg>
