<svg width="24" height="24" viewBox="0 0 24 24" fill="none" xmlns="http://www.w3.org/2000/svg">
<path d="M9.5 2C10.759 2 11.9448 2.59248 12.7002 3.59961L13.9004 5.2002C14.2781 5.70362 14.8706 6 15.5 6H19C21.2091 6 23 7.79086 23 10V18C23 20.2091 21.2091 22 19 22H5C2.79086 22 1 20.2091 1 18V6C1 3.79086 2.79086 2 5 2H9.5ZM3 8V18C3 19.1046 3.89543 20 5 20H19C20.1046 20 21 19.1046 21 18V10C21 8.89543 20.1046 8 19 8H3ZM11.6602 10.0596C11.9161 9.96705 12.2008 9.98224 12.4473 10.1055L15.4473 11.6055C15.786 11.7749 16 12.1212 16 12.5V14.3945C16 15.7319 15.3315 16.9808 14.2188 17.7227L13.1094 18.4619C12.4376 18.9098 11.5624 18.9098 10.8906 18.4619L9.78125 17.7227C8.66848 16.9808 8.00003 15.7319 8 14.3945V12.5C8 12.1212 8.21395 11.7749 8.55273 11.6055L11.5527 10.1055L11.6602 10.0596ZM10 13.1182V14.3945C10 15.0632 10.3343 15.6877 10.8906 16.0586L12 16.7979L13.1094 16.0586C13.6657 15.6877 14 15.0632 14 14.3945V13.1182L12 12.1182L10 13.1182ZM5 4C3.89543 4 3 4.89543 3 6H12L11.0996 4.7998C10.7219 4.29638 10.1294 4 9.5 4H5Z" fill="#141414"/>
</svg>
