<svg width="24" height="24" viewBox="0 0 24 24" fill="none" xmlns="http://www.w3.org/2000/svg">
<path fill-rule="evenodd" clip-rule="evenodd" d="M20 2C21.1046 2 22 2.89543 22 4V5.68652C22 6.80291 21.5332 7.86875 20.7129 8.62598L15.5 13.4375V18.3994C15.5 19.1382 15.0924 19.8175 14.4404 20.165L11.4404 21.7637C10.1083 22.4735 8.50014 21.5085 8.5 19.999V13.4375L3.28711 8.62598C2.46678 7.86875 2 6.80291 2 5.68652V4C2 2.89543 2.89543 2 4 2H20ZM4 5.68652C4 6.24471 4.23339 6.77764 4.64355 7.15625L10.1787 12.2656C10.3835 12.4549 10.5 12.7211 10.5 13V19.999L13.5 18.3994V13C13.5 12.7211 13.6165 12.4549 13.8213 12.2656L19.3564 7.15625C19.7666 6.77764 20 6.24471 20 5.68652V4H4V5.68652Z" fill="#141414"/>
</svg>
