<svg width="24" height="24" viewBox="0 0 24 24" fill="none" xmlns="http://www.w3.org/2000/svg">
<path d="M18 2C20.2091 2 22 3.79086 22 6V18C22 20.2091 20.2091 22 18 22H6C3.79086 22 2 20.2091 2 18V6C2 3.79086 3.79086 2 6 2H18ZM6 4C4.89543 4 4 4.89543 4 6V18C4 19.1046 4.89543 20 6 20H18C19.1046 20 20 19.1046 20 18V6C20 4.89543 19.1046 4 18 4H6ZM12.207 8.20703L9.41406 11H17V13H9.41406L12.207 15.793L10.793 17.207L6.29297 12.707C5.90248 12.3165 5.90246 11.6835 6.29297 11.293L10.793 6.79297L12.207 8.20703Z" fill="#141414"/>
</svg>
