<svg width="24" height="24" viewBox="0 0 24 24" fill="none" xmlns="http://www.w3.org/2000/svg">
<path d="M6.65625 3.04888C10.1836 2.34341 13.8164 2.34341 17.3438 3.04888C20.6326 3.70683 23 6.59518 23 9.94927V14.0508C22.9999 17.4049 20.6326 20.2933 17.3438 20.9512C13.8164 21.6567 10.1836 21.6567 6.65625 20.9512C3.36741 20.2933 1.00009 17.4049 1 14.0508V9.94927C1 6.59518 3.36737 3.70683 6.65625 3.04888ZM16.9512 5.00981C13.6828 4.35614 10.3172 4.35614 7.04883 5.00981C4.69462 5.48068 3 7.54843 3 9.94927V14.0508C3.00009 16.4516 4.69467 18.5195 7.04883 18.9903C10.3172 19.6439 13.6828 19.6439 16.9512 18.9903C19.3053 18.5195 20.9999 16.4516 21 14.0508V9.94927C21 7.54843 19.3054 5.48067 16.9512 5.00981ZM8.5 9.79009C8.5 8.2256 10.2154 7.26639 11.5479 8.08599L15.1406 10.2969C16.409 11.078 16.4091 12.9222 15.1406 13.7032L11.5479 15.9141C10.2154 16.7336 8.50014 15.7744 8.5 14.21V9.79009ZM10.5 14.21L14.0918 12.0001L10.5 9.79009V14.21Z" fill="#141414"/>
</svg>
