<svg width="24" height="24" viewBox="0 0 24 24" fill="none" xmlns="http://www.w3.org/2000/svg">
<path d="M11.4639 1.15484C11.7528 0.971566 12.1162 0.948721 12.4258 1.09429L20.9258 5.0943C21.2762 5.25919 21.4999 5.61237 21.5 5.99958C21.5 6.38689 21.2762 6.73989 20.9258 6.90486L13 10.6344V11.0279C15.2349 11.1571 17.2779 11.7164 18.8496 12.5895C20.619 13.5725 21.9998 15.091 22 16.9996C22 18.9084 20.6191 20.4267 18.8496 21.4098C17.0462 22.4116 14.6224 22.9996 12 22.9996C9.37759 22.9996 6.9538 22.4116 5.15039 21.4098C3.38091 20.4267 2 18.9084 2 16.9996C2.00018 15.091 3.38095 13.5725 5.15039 12.5895C6.7221 11.7164 8.7651 11.1571 11 11.0279V1.99957C11.0001 1.65738 11.1749 1.33821 11.4639 1.15484ZM13 15.2691C13.5973 15.615 13.9999 16.2598 14 16.9996C14 18.1042 13.1046 18.9996 12 18.9996C10.8954 18.9996 10 18.1042 10 16.9996C10.0001 16.2598 10.4027 15.615 11 15.2691V13.0328C9.065 13.1596 7.36583 13.6476 6.12207 14.3385C4.63449 15.1649 4.00019 16.1471 4 16.9996C4 17.8522 4.63438 18.8342 6.12207 19.6608C7.57599 20.4684 9.65205 20.9996 12 20.9996C14.3479 20.9996 16.424 20.4684 17.8779 19.6608C19.3656 18.8342 20 17.8522 20 16.9996C19.9998 16.1471 19.3655 15.1649 17.8779 14.3385C16.6342 13.6476 14.935 13.1596 13 13.0328V15.2691ZM13 8.42244L18.1504 5.99958L13 3.57574V8.42244Z" fill="#141414"/>
</svg>
