<svg width="24" height="24" viewBox="0 0 24 24" fill="none" xmlns="http://www.w3.org/2000/svg">
<path d="M14 2C14.5523 2 15 2.44772 15 3V7C15 7.3127 14.8566 7.59202 14.6318 7.77539L19.5664 16H22C22.5523 16 23 16.4477 23 17V21C23 21.5523 22.5523 22 22 22H18C17.4477 22 17 21.5523 17 21V20H7V21C7 21.5523 6.55228 22 6 22H2C1.44772 22 1 21.5523 1 21V17C1 16.4477 1.44772 16 2 16H4.43359L9.36816 7.77539C9.1434 7.59202 9 7.3127 9 7V3C9 2.44772 9.44772 2 10 2H14ZM3 20H5V18H3V20ZM19 20H21V18H19V20ZM6.63184 16.2246C6.8566 16.408 7 16.6873 7 17V18H17V17C17 16.6873 17.1434 16.408 17.3682 16.2246L12.4336 8H11.5664L6.63184 16.2246ZM11 6H13V4H11V6Z" fill="#141414"/>
</svg>
