<svg width="24" height="24" viewBox="0 0 24 24" fill="none" xmlns="http://www.w3.org/2000/svg">
<path d="M4.22152 4.22152C8.51725 -0.0742137 15.4824 -0.0741169 19.7782 4.22152C24.074 8.5173 24.074 15.4824 19.7782 19.7782C15.4824 24.074 8.5173 24.074 4.22152 19.7782C-0.0741169 15.4824 -0.0742137 8.51725 4.22152 4.22152ZM18.3641 5.63559C14.8494 2.121 9.15027 2.1209 5.63559 5.63559C2.1209 9.15027 2.121 14.8494 5.63559 18.3641C9.15032 21.8789 14.8494 21.8789 18.3641 18.3641C21.8789 14.8494 21.8789 9.15032 18.3641 5.63559ZM15.536 7.46469C16.0881 7.46494 16.536 7.91256 16.536 8.4647V14.828H14.536V10.8788L9.17173 16.243L7.75766 14.828L13.121 9.4647H9.17173V7.46469H15.536Z" fill="#141414"/>
</svg>
