<svg width="24" height="24" viewBox="0 0 24 24" fill="none" xmlns="http://www.w3.org/2000/svg">
<path d="M12 1C16.9706 1 21 5.02944 21 10C21 15.4009 16.2047 19.2093 12.707 22.707C12.3165 23.0976 11.6835 23.0976 11.293 22.707C7.79527 19.2093 3 15.4009 3 10C3 5.02944 7.02944 1 12 1ZM12 3C8.13401 3 5 6.13401 5 10C5 14.4761 9.10902 17.7195 12 20.5889C14.891 17.7195 19 14.4761 19 10C19 6.13401 15.866 3 12 3ZM12 6C14.2091 6 16 7.79086 16 10C16 12.2091 14.2091 14 12 14C9.79086 14 8 12.2091 8 10C8 7.79086 9.79086 6 12 6ZM12 8C10.8954 8 10 8.89543 10 10C10 11.1046 10.8954 12 12 12C13.1046 12 14 11.1046 14 10C14 8.89543 13.1046 8 12 8Z" fill="#141414"/>
</svg>
