<svg width="24" height="24" viewBox="0 0 24 24" fill="none" xmlns="http://www.w3.org/2000/svg">
<path d="M9 3H15V1H17V3H18C20.2091 3 22 4.79086 22 7V18C22 20.2091 20.2091 22 18 22H6C3.79086 22 2 20.2091 2 18V7C2 4.79086 3.79086 3 6 3H7V1H9V3ZM4 18C4 19.1046 4.89543 20 6 20H18C19.1046 20 20 19.1046 20 18V10H4V18ZM16.3896 13.2246L12.5342 16.8955C11.9549 17.4472 11.0451 17.4471 10.4658 16.8955L8.01074 14.5576L9.38965 13.1094L11.5 15.1191L15.0107 11.7764L16.3896 13.2246ZM6 5C4.89543 5 4 5.89543 4 7V8H20V7C20 5.89543 19.1046 5 18 5H6Z" fill="#141414"/>
</svg>
