<svg width="24" height="24" viewBox="0 0 24 24" fill="none" xmlns="http://www.w3.org/2000/svg">
<path d="M12 1C18.0751 1 23 5.92487 23 12C23 18.0751 18.0751 23 12 23C5.92487 23 1 18.0751 1 12C1 5.92487 5.92487 1 12 1ZM7.42578 15.5137C6.53984 16.1251 5.69779 16.8005 4.90527 17.5342C6.55243 19.6428 9.11692 21 12 21C12.6487 21 13.2809 20.9292 13.8906 20.7988C11.4191 19.4617 9.226 17.6678 7.42578 15.5137ZM11.8301 13.1445C10.9032 13.5177 10.0045 13.9516 9.13867 14.4414C10.8833 16.4723 13.0163 18.1404 15.4189 19.3418L16.417 19.8398C17.3352 19.3214 18.1523 18.6469 18.834 17.8516C17.0146 16.9894 15.2995 15.9202 13.7256 14.6611L11.833 13.1475C11.8319 13.1466 11.8311 13.1454 11.8301 13.1445ZM18.2646 5.54004C18.5098 8.61833 18.1414 11.7188 17.1738 14.6602C18.0717 15.2261 19.0065 15.7321 19.9727 16.1748C20.6275 14.9268 21 13.5072 21 12C21 9.46504 19.9511 7.17578 18.2646 5.54004ZM11.5664 7.74609C8.90533 8.46547 6.44727 9.80824 4.39941 11.6699L3.04492 12.9004C3.14694 13.9274 3.42294 14.9028 3.84082 15.7988C5.97846 13.8833 8.43644 12.3531 11.1064 11.2812L11.3359 9.90234C11.4551 9.1872 11.5304 8.46717 11.5664 7.74609ZM13.2549 3.08887C13.6829 5.44574 13.7035 7.86192 13.3086 10.2314L13.083 11.5859L14.9746 13.0986C15.1316 13.2242 15.2921 13.3452 15.4521 13.4668C16.3689 10.3925 16.5808 7.14605 16.0635 3.96973C15.1982 3.531 14.2531 3.22815 13.2549 3.08887ZM11.209 3.03613C7.26397 3.37972 4.04975 6.26703 3.21387 10.0498C5.59691 7.93054 8.46208 6.43155 11.5566 5.68457C11.5036 4.79597 11.3879 3.91103 11.209 3.03613Z" fill="#141414"/>
</svg>
