<svg width="24" height="24" viewBox="0 0 24 24" fill="none" xmlns="http://www.w3.org/2000/svg">
<path d="M9.5 2C10.759 2 11.9448 2.59248 12.7002 3.59961L13.9004 5.2002C14.2781 5.70362 14.8706 6 15.5 6H19C21.2091 6 23 7.79086 23 10V18C23 20.2091 21.2091 22 19 22H5C2.79086 22 1 20.2091 1 18V6C1 3.79086 2.79086 2 5 2H9.5ZM3 18C3 19.1046 3.89543 20 5 20H19C20.1046 20 21 19.1046 21 18V10C21 8.89543 20.1046 8 19 8H3V18ZM16.707 12.4141L12.207 16.9141C11.8165 17.3046 11.1835 17.3046 10.793 16.9141L7.79297 13.9141L9.20703 12.5L11.5 14.793L15.293 11L16.707 12.4141ZM5 4C3.89543 4 3 4.89543 3 6H12L11.0996 4.7998C10.7219 4.29638 10.1294 4 9.5 4H5Z" fill="#141414"/>
</svg>
