<svg width="24" height="24" viewBox="0 0 24 24" fill="none" xmlns="http://www.w3.org/2000/svg">
<path d="M1.79306 5.01464C6.47937 0.328514 14.0776 0.328396 18.7638 5.01464C23.4499 9.70089 23.4499 17.2991 18.7638 21.9854C18.3734 22.3758 17.7403 22.3756 17.3497 21.9854H17.3488V21.9844L17.3468 21.9824C17.3451 21.9808 17.3421 21.9787 17.339 21.9756C17.3323 21.9689 17.3228 21.9584 17.3097 21.9453L1.8331 6.46874C1.82006 6.45569 1.80951 6.44611 1.80283 6.43944C1.79973 6.43634 1.79764 6.43334 1.79599 6.43163L1.79404 6.42968H1.79306V6.4287C1.40269 6.03816 1.40259 5.40511 1.79306 5.01464ZM4.0001 22H2.0001V19H4.0001V22ZM12.2618 14.0693L16.4855 18.293C17.1145 18.922 17.6359 19.4444 18.0206 19.8291C19.7151 17.7612 20.4539 15.173 20.2404 12.6504L12.2618 14.0693ZM9.00011 19H7.0001V16H9.00011V19ZM4.0001 15H2.0001V12H4.0001V15ZM12.2599 12.0391L19.8732 10.6846C19.4178 9.12679 18.5783 7.65731 17.3497 6.4287C16.3077 5.38665 15.0924 4.62351 13.797 4.13768L12.2599 12.0391ZM11.8585 3.62792C9.11142 3.19085 6.21761 3.89907 3.94932 5.7578C4.33408 6.14257 4.85648 6.66399 5.48545 7.29296L10.2237 12.0312L11.8585 3.62792Z" fill="#141414"/>
</svg>
