<svg width="24" height="24" viewBox="0 0 24 24" fill="none" xmlns="http://www.w3.org/2000/svg">
<path d="M18 2C20.2091 2 22 3.79086 22 6V18C22 20.2091 20.2091 22 18 22H6C3.79086 22 2 20.2091 2 18V6C2 3.79086 3.79086 2 6 2H18ZM6 4C4.89543 4 4 4.89543 4 6V18C4 19.1046 4.89543 20 6 20H18C19.1046 20 20 19.1046 20 18V6C20 4.89543 19.1046 4 18 4H6ZM14.5352 13.1211V9.17188H16.5352V15.5352C16.5352 16.0874 16.0874 16.5352 15.5352 16.5352H9.17188V14.5352H13.1211L7.75781 9.17188L9.17188 7.75781L14.5352 13.1211Z" fill="#141414"/>
</svg>
