<svg width="24" height="24" viewBox="0 0 24 24" fill="none" xmlns="http://www.w3.org/2000/svg">
<path d="M12 1C18.0751 1 23 5.92487 23 12C23 18.0751 18.0751 23 12 23C5.92487 23 1 18.0751 1 12C1 5.92487 5.92487 1 12 1ZM12 3C7.02944 3 3 7.02944 3 12C3 16.9706 7.02944 21 12 21C16.9706 21 21 16.9706 21 12C21 7.02944 16.9706 3 12 3ZM13 7H14C15.6569 7 17 8.34315 17 10H15C15 9.44772 14.5523 9 14 9H13V11H14C15.6569 11 17 12.3431 17 14C17 15.6569 15.6569 17 14 17H13V19H11V17H10C8.34315 17 7 15.6569 7 14H9C9 14.5523 9.44772 15 10 15H11V13H10C8.34315 13 7 11.6569 7 10C7 8.34315 8.34315 7 10 7H11V5H13V7ZM13 15H14C14.5523 15 15 14.5523 15 14C15 13.4477 14.5523 13 14 13H13V15ZM10 9C9.44772 9 9 9.44772 9 10C9 10.5523 9.44772 11 10 11H11V9H10Z" fill="#141414"/>
</svg>
