<svg width="24" height="24" viewBox="0 0 24 24" fill="none" xmlns="http://www.w3.org/2000/svg">
<path d="M18 2C20.14 2 21.8879 3.68056 21.9951 5.79395L22 6V18C22 20.14 20.3194 21.8879 18.2061 21.9951L18 22H6L5.79395 21.9951C3.68056 21.8879 2 20.14 2 18V6C2 3.79086 3.79086 2 6 2H18ZM4 18C4 19.0357 4.78722 19.887 5.7959 19.9893L6 20V17H4V18ZM18 20C19.1046 20 20 19.1046 20 18V17H18V20ZM8 20H16V13H8V20ZM18 15H20V13H18V15ZM4 15H6V13H4V15ZM4 11H6V9H4V11ZM18 11H20V9H18V11ZM8 11H16V4H8V11ZM18 7H20V6L19.9893 5.7959C19.887 4.78722 19.0357 4 18 4V7ZM5.7959 4.01074C4.78722 4.11301 4 4.96435 4 6V7H6V4L5.7959 4.01074Z" fill="#141414"/>
</svg>
