<svg width="24" height="24" viewBox="0 0 24 24" fill="none" xmlns="http://www.w3.org/2000/svg">
<path d="M12 1C18.0751 1 23 5.92487 23 12C23 18.0751 18.0751 23 12 23C5.92487 23 1 18.0751 1 12C1 5.92487 5.92487 1 12 1ZM12 3C7.02944 3 3 7.02944 3 12C3 16.9706 7.02944 21 12 21C16.9706 21 21 16.9706 21 12C21 7.02944 16.9706 3 12 3ZM18.207 13.293C18.5976 13.6835 18.5976 14.3165 18.207 14.707L15.207 17.707L13.793 16.293L16.0859 14L13.793 11.707L15.207 10.293L18.207 13.293ZM10.207 7.70703L7.91406 10L10.207 12.293L8.79297 13.707L5.79297 10.707C5.40244 10.3165 5.40244 9.68349 5.79297 9.29297L8.79297 6.29297L10.207 7.70703Z" fill="#141414"/>
</svg>
