<svg width="24" height="24" viewBox="0 0 24 24" fill="none" xmlns="http://www.w3.org/2000/svg">
<path d="M4.05859 10.5781C4.05274 10.582 4.04686 10.5859 4.04102 10.5898C4.01519 10.3248 4.00001 10.0562 4 9.78418C4 4.85199 8.33797 1 13.5 1C18.662 1 23 4.85199 23 9.78418C22.9999 11.2431 22.6136 12.6171 21.9365 13.8242L22.4668 15.8428C22.8828 17.4249 21.327 18.8101 19.8037 18.2139L18.0146 17.5127C17.2579 17.8911 16.4402 18.1754 15.5801 18.3535C14.543 21.0596 11.7041 22.9258 8.5 22.9258C7.28457 22.9258 6.13201 22.6608 5.11035 22.1885L4.22461 22.667C2.62249 23.5308 0.792321 21.9795 1.38281 20.2578L1.77441 19.1162C1.28115 18.2063 1.00001 17.1781 1 16.0879C1 13.7866 2.22084 11.8065 4.05859 10.5781ZM8.5 11.25C5.35867 11.25 3 13.5144 3 16.0879C3.00001 16.948 3.25498 17.7583 3.70996 18.4648C3.87568 18.7221 3.91469 19.0416 3.81543 19.3311L3.27539 20.9072L4.62109 20.1816L4.73535 20.1289C5.0093 20.0232 5.31841 20.0424 5.5791 20.1865C6.42103 20.6524 7.42091 20.9258 8.5 20.9258C11.6413 20.9258 14 18.6614 14 16.0879C14 13.5144 11.6413 11.25 8.5 11.25ZM6.00391 9.64062C6.79017 9.38707 7.63174 9.25 8.5 9.25C12.5384 9.25 16 12.2131 16 16.0879C16 16.1186 15.9975 16.1491 15.9971 16.1797C16.5137 16.0146 17.0044 15.8025 17.4609 15.5449C17.6901 15.4156 17.9596 15.382 18.2109 15.4492L18.3174 15.4844L20.5322 16.3516L19.8955 13.9297C19.8251 13.6615 19.8695 13.376 20.0176 13.1416C20.645 12.1483 20.9999 11.003 21 9.78418C21 6.11863 17.7268 3 13.5 3C9.3285 3 6.08805 6.0376 6.00391 9.64062ZM4.59375 10.252C4.52797 10.2884 4.46291 10.326 4.39844 10.3643C4.46289 10.3259 4.528 10.2885 4.59375 10.252ZM4.90137 10.0908C4.837 10.1228 4.77322 10.1558 4.70996 10.1895C4.77319 10.1557 4.83703 10.1229 4.90137 10.0908ZM5.26074 9.92188C5.16961 9.9616 5.0794 10.0029 4.99023 10.0459C5.07937 10.0029 5.16964 9.96169 5.26074 9.92188ZM5.5332 9.80957C5.48407 9.82885 5.43534 9.84894 5.38672 9.86914C5.43532 9.84889 5.48408 9.82889 5.5332 9.80957ZM5.82324 9.70312C5.78607 9.71609 5.74882 9.72871 5.71191 9.74219C5.74882 9.72869 5.78607 9.7161 5.82324 9.70312Z" fill="#141414"/>
</svg>
