<svg width="24" height="24" viewBox="0 0 24 24" fill="none" xmlns="http://www.w3.org/2000/svg">
<path d="M18 2C20.2091 2 22 3.79086 22 6V18C22 20.2091 20.2091 22 18 22H6C3.79086 22 2 20.2091 2 18V6C2 3.79086 3.79086 2 6 2H18ZM15 10.6436C14.267 11.4747 13.1953 12 12 12C10.8047 12 9.73297 11.4747 9 10.6436C8.26703 11.4747 7.1953 12 6 12C5.27107 12 4.58854 11.8035 4 11.4629V18C4 19.1046 4.89543 20 6 20H8V17C8 15.3431 9.34315 14 11 14H13C14.6569 14 16 15.3431 16 17V20H18C19.1046 20 20 19.1046 20 18V11.4629C19.4115 11.8035 18.7289 12 18 12C16.8047 12 15.733 11.4747 15 10.6436ZM11 16C10.4477 16 10 16.4477 10 17V20H14V17C14 16.4477 13.5523 16 13 16H11ZM6 4C4.89543 4 4 4.89543 4 6V8C4 9.10457 4.89543 10 6 10C7.10457 10 8 9.10457 8 8H10C10 9.10457 10.8954 10 12 10C13.1046 10 14 9.10457 14 8H16C16 9.10457 16.8954 10 18 10C19.1046 10 20 9.10457 20 8V6C20 4.89543 19.1046 4 18 4H6Z" fill="#141414"/>
</svg>
