<svg width="24" height="24" viewBox="0 0 24 24" fill="none" xmlns="http://www.w3.org/2000/svg">
<path d="M17.2061 3.00488C19.3194 3.11211 21 4.85996 21 7V8.83594C22.1827 9.3976 23 10.6037 23 12C23 13.3962 22.1825 14.6013 21 15.1631V17C21 19.2091 19.2091 21 17 21H5C2.79086 21 1 19.2091 1 17V7C1 4.79086 2.79086 3 5 3H17L17.2061 3.00488ZM5 5C3.89543 5 3 5.89543 3 7V17C3 18.1046 3.89543 19 5 19H17L17.2041 18.9893C18.2128 18.887 19 18.0357 19 17V15.5H16.5C14.567 15.5 13 13.933 13 12C13 10.067 14.567 8.5 16.5 8.5H19V7C19 5.96435 18.2128 5.113 17.2041 5.01074L17 5H5ZM16.5 10.5C15.6716 10.5 15 11.1716 15 12C15 12.8284 15.6716 13.5 16.5 13.5H19.5C19.6011 13.5 19.7014 13.4889 19.8008 13.4688L19.8271 13.4629C20.4981 13.3135 21 12.716 21 12C21 11.2776 20.4895 10.6738 19.8096 10.5312L19.8008 10.5303C19.7688 10.5238 19.7362 10.5191 19.7031 10.5146C19.6367 10.5056 19.5689 10.5 19.5 10.5H16.5Z" fill="#141414"/>
</svg>
