<svg width="24" height="24" viewBox="0 0 24 24" fill="none" xmlns="http://www.w3.org/2000/svg">
<path d="M12 1C18.0751 1 23 5.92487 23 12C23 18.0751 18.0751 23 12 23C5.92487 23 1 18.0751 1 12C1 5.92487 5.92487 1 12 1ZM12 3C7.02944 3 3 7.02944 3 12C3 16.9706 7.02944 21 12 21C16.9706 21 21 16.9706 21 12C21 7.02944 16.9706 3 12 3ZM12 6C14.4853 6 16.5 8.01472 16.5 10.5C16.5 11.9837 15.78 13.2952 14.6748 14.1143L15.8945 16.5527C16.0495 16.8626 16.0327 17.2306 15.8506 17.5254C15.6684 17.8202 15.3466 18 15 18H9C8.65342 18 8.33162 17.8202 8.14941 17.5254C7.96733 17.2306 7.95051 16.8626 8.10547 16.5527L9.32422 14.1143C8.21936 13.2951 7.5 11.9834 7.5 10.5C7.5 8.01472 9.51472 6 12 6ZM12 8C10.6193 8 9.5 9.11929 9.5 10.5C9.5 11.5338 10.1279 12.4233 11.0273 12.8037C11.2817 12.9113 11.4806 13.1198 11.5762 13.3789C11.6716 13.6379 11.6557 13.925 11.5322 14.1719L10.6182 16H13.3818L12.4678 14.1719C12.3443 13.925 12.3284 13.6379 12.4238 13.3789C12.5194 13.1198 12.7183 12.9113 12.9727 12.8037C13.8721 12.4233 14.5 11.5338 14.5 10.5C14.5 9.11929 13.3807 8 12 8Z" fill="#141414"/>
</svg>
