<svg width="24" height="24" viewBox="0 0 24 24" fill="none" xmlns="http://www.w3.org/2000/svg">
<path d="M12 3.08984C13.5168 3.22908 14.8947 3.52499 16.0078 3.94238C16.7973 4.23843 17.5062 4.61502 18.0352 5.08398C18.5628 5.5519 19 6.19722 19 7V8H20C21.6569 8 23 9.34315 23 11V14C23 15.6569 21.6569 17 20 17H19V18C19 18.8028 18.5628 19.4481 18.0352 19.916C17.5062 20.385 16.7973 20.7616 16.0078 21.0576C14.4215 21.6525 12.2972 22 10 22C7.70276 22 5.57848 21.6525 3.99219 21.0576C3.20273 20.7616 2.49379 20.385 1.96484 19.916C1.43717 19.4481 1 18.8028 1 18V7C1 6.19722 1.43717 5.5519 1.96484 5.08398C2.49379 4.61502 3.20273 4.23843 3.99219 3.94238C4.59132 3.71772 5.26705 3.52762 6 3.37891V2H8V3.08984C8.64481 3.03065 9.31472 3 10 3V1H12V3.08984ZM17 9.61426C16.6906 9.77802 16.3575 9.92649 16.0078 10.0576C14.4215 10.6525 12.2972 11 10 11C7.70276 11 5.57848 10.6525 3.99219 10.0576C3.64251 9.92649 3.30944 9.77802 3 9.61426V18C3 18.0255 3.01013 18.17 3.29199 18.4199C3.5727 18.6687 4.03626 18.9378 4.69434 19.1846C6.00346 19.6755 7.87903 20 10 20C12.121 20 13.9965 19.6755 15.3057 19.1846C15.9637 18.9378 16.4273 18.6687 16.708 18.4199C16.9899 18.17 17 18.0255 17 18V9.61426ZM19 15H20C20.5523 15 21 14.5523 21 14V11C21 10.4477 20.5523 10 20 10H19V15ZM10 5C9.30293 5 8.63266 5.03805 8 5.10254V7H6V5.42969C5.52081 5.54184 5.08236 5.66992 4.69434 5.81543C4.03626 6.06222 3.5727 6.33126 3.29199 6.58008C3.01013 6.82998 3 6.97447 3 7C3 7.02553 3.01013 7.17002 3.29199 7.41992C3.5727 7.66874 4.03626 7.93778 4.69434 8.18457C6.00346 8.67549 7.87903 9 10 9C12.121 9 13.9965 8.67549 15.3057 8.18457C15.9637 7.93778 16.4273 7.66874 16.708 7.41992C16.9899 7.17002 17 7.02553 17 7C17 6.97447 16.9899 6.82998 16.708 6.58008C16.4273 6.33126 15.9637 6.06222 15.3057 5.81543C14.4268 5.48585 13.2923 5.23427 12 5.10254V6H10V5Z" fill="#141414"/>
</svg>
