<svg width="24" height="24" viewBox="0 0 24 24" fill="none" xmlns="http://www.w3.org/2000/svg">
<path d="M13 16H8C5.94968 16 4.18757 17.2341 3.41602 19C3.14842 19.6125 3 20.2889 3 21H13V23H3C1.89543 23 1 22.1046 1 21C1 17.134 4.13401 14 8 14H13V16ZM22.707 17.293C23.0976 17.6835 23.0976 18.3165 22.707 18.707L19.207 22.207L17.793 20.793L19.5859 19H15V17H19.5859L17.793 15.207L19.207 13.793L22.707 17.293ZM11 2C13.7614 2 16 4.23858 16 7C16 9.76142 13.7614 12 11 12C8.23858 12 6 9.76142 6 7C6 4.23858 8.23858 2 11 2ZM11 4C9.34315 4 8 5.34315 8 7C8 8.65685 9.34315 10 11 10C12.6569 10 14 8.65685 14 7C14 5.34315 12.6569 4 11 4Z" fill="#141414"/>
</svg>
