<svg width="24" height="24" viewBox="0 0 24 24" fill="none" xmlns="http://www.w3.org/2000/svg">
<path d="M12 1C18.0751 1 23 5.92487 23 12C23 18.0751 18.0751 23 12 23C5.92487 23 1 18.0751 1 12C1 5.92487 5.92487 1 12 1ZM12 3C7.02944 3 3 7.02944 3 12C3 16.9706 7.02944 21 12 21C16.9706 21 21 16.9706 21 12C21 7.02944 16.9706 3 12 3ZM14.4648 6.7627L11.4648 17.7627L9.53516 17.2373L12.5352 6.2373L14.4648 6.7627ZM9.20703 9.70703L6.91406 12L9.20703 14.293L7.79297 15.707L4.79297 12.707C4.40244 12.3165 4.40244 11.6835 4.79297 11.293L7.79297 8.29297L9.20703 9.70703ZM19.207 11.293C19.5976 11.6835 19.5976 12.3165 19.207 12.707L16.207 15.707L14.793 14.293L17.0859 12L14.793 9.70703L16.207 8.29297L19.207 11.293Z" fill="#141414"/>
</svg>
