<svg width="24" height="24" viewBox="0 0 24 24" fill="none" xmlns="http://www.w3.org/2000/svg">
<path d="M13.5 2C15.1569 2 16.5 3.34315 16.5 5.00001V11H17.9805C19.6355 11 20.5749 12.8955 19.5723 14.212L14.3867 21.0176C13.186 22.5933 10.8138 22.5934 9.61324 21.0176L4.42765 14.212C3.42525 12.8955 4.36475 11.0003 6.01946 11H7.49994V5.00001C7.49994 3.34325 8.84323 2.00016 10.5 2H13.5ZM10.5 4.00001C9.94781 4.00017 9.49996 4.44782 9.49996 5.00001V12C9.49996 12.5523 9.05224 13 8.49995 13H6.01946L11.2041 19.8057C11.6043 20.331 12.3956 20.3309 12.7959 19.8057L17.9805 13H15.5C14.9479 12.9999 14.5 12.5522 14.5 12V5.00001C14.5 4.44772 14.0523 4.00001 13.5 4.00001H10.5Z" fill="#141414"/>
</svg>
