<svg width="24" height="24" viewBox="0 0 24 24" fill="none" xmlns="http://www.w3.org/2000/svg">
<path d="M14.0817 1.35803C15.6562 0.650998 17.5014 1.41469 18.1149 3.02795L18.9156 5.1344L21.0221 5.93616C22.6356 6.54958 23.3992 8.39468 22.692 9.96936L21.7692 12.025L22.693 14.0817C23.4 15.6562 22.6362 17.5013 21.0231 18.1149L18.9156 18.9147L18.1149 21.0221C17.5015 22.6355 15.6563 23.3999 14.0817 22.693L12.025 21.7692L9.96936 22.693C8.39488 23.4 6.54973 22.6362 5.93615 21.0231L5.13537 18.9147L3.02893 18.1149C1.41546 17.5015 0.651095 15.6563 1.35803 14.0817L2.28088 12.025L1.35803 9.96936C0.650997 8.39483 1.41471 6.54967 3.02795 5.93616L5.13537 5.1344L5.93615 3.02893C6.54949 1.41542 8.3947 0.651002 9.96936 1.35803L12.025 2.28088L14.0817 1.35803ZM16.2457 3.73889C16.0412 3.20111 15.4259 2.94659 14.901 3.18225L12.4352 4.28967C12.1746 4.40664 11.8764 4.40665 11.6158 4.28967L9.15002 3.18225C8.62531 2.94676 8.01086 3.2014 7.80627 3.73889L6.84533 6.26526C6.74387 6.53215 6.53307 6.74377 6.26623 6.84534L3.73889 7.8053C3.20109 8.00978 2.94656 8.62516 3.18225 9.15002L4.28967 11.6158C4.40665 11.8764 4.40669 12.1746 4.28967 12.4352L3.18225 14.901C2.94675 15.4257 3.20134 16.0402 3.73889 16.2448L6.26525 17.2057L6.36291 17.2487C6.5835 17.3606 6.75648 17.5512 6.84533 17.7848L7.80529 20.3121C8.00983 20.8498 8.6252 21.1044 9.15002 20.8688L11.6158 19.7614L11.7154 19.7233C11.9506 19.6465 12.2072 19.659 12.4352 19.7614L14.901 20.8688C15.4257 21.1043 16.0401 20.8496 16.2447 20.3121L17.2057 17.7848C17.3072 17.518 17.518 17.3072 17.7848 17.2057L20.3121 16.2457C20.8498 16.0412 21.1044 15.4258 20.8688 14.901L19.7613 12.4352C19.6444 12.1746 19.6443 11.8764 19.7613 11.6158L20.8688 9.15002C21.1042 8.62536 20.8495 8.01091 20.3121 7.80627L17.7848 6.84534C17.518 6.74385 17.3072 6.53298 17.2057 6.26624L16.2457 3.73889ZM12.9869 6.9303L16.3863 15.9303L16.4889 16.2008H14.5074L13.7076 13.901H10.3414L9.54162 16.2008H7.51037L7.61193 15.9303L11.0123 6.9303L11.0612 6.80042H12.9381L12.9869 6.9303ZM10.9303 12.2008H13.069L11.9987 9.11682L10.9303 12.2008Z" fill="#141414"/>
</svg>
