<svg width="24" height="24" viewBox="0 0 24 24" fill="none" xmlns="http://www.w3.org/2000/svg">
<path d="M18 1C19.6569 1 21 2.34315 21 4V14C22.2131 14.9112 23 16.3632 23 18C23 20.7615 20.7612 23 18 23C15.2388 23 13 20.7615 13 18C13 16.3632 13.7869 14.9112 15 14V4C15 2.34315 16.3431 1 18 1ZM7.20703 19.707L4.70703 22.207L3.29297 20.793L5.79297 18.293L7.20703 19.707ZM18 3C17.4477 3 17 3.44772 17 4V15.1123L16.501 15.4004C15.6016 15.9206 15 16.8908 15 18C15 19.6569 16.3433 21 18 21C19.6567 21 21 19.6569 21 18C21 16.8908 20.3984 15.9206 19.499 15.4004L19 15.1123V4C19 3.44772 18.5523 3 18 3ZM18 16.5C18.8284 16.5 19.5 17.1716 19.5 18C19.5 18.8284 18.8284 19.5 18 19.5C17.1716 19.5 16.5 18.8284 16.5 18C16.5 17.1716 17.1716 16.5 18 16.5ZM12.2676 10.2676C10.6107 10.2676 9.26758 11.6109 9.26758 13.2676C9.26758 14.5904 10.1245 15.7162 11.3164 16.1143L10.6836 18.0107C8.69992 17.3484 7.26758 15.4766 7.26758 13.2676C7.26758 10.5063 9.5061 8.26758 12.2676 8.26758V10.2676ZM4.5 15H1V13H4.5V15ZM7.20703 7.79297L5.79297 9.20703L3.29297 6.70703L4.70703 5.29297L7.20703 7.79297ZM12.5 6H10.5V3H12.5V6Z" fill="#141414"/>
</svg>
