<svg width="24" height="24" viewBox="0 0 24 24" fill="none" xmlns="http://www.w3.org/2000/svg">
<path d="M12 21H10V23H8V21H4V19H6V5H4V3H8V1H10V3H12V1H14V3H14.25C16.8734 3 19 5.12665 19 7.75C19 9.13623 18.4051 10.3826 17.458 11.251C18.9815 12.1699 20 13.8411 20 15.75C20 18.6495 17.6495 21 14.75 21H14V23H12V21ZM8 19H14.75C16.5449 19 18 17.5449 18 15.75C18 13.9551 16.5449 12.5 14.75 12.5H8V19ZM8 10.5H14.25C15.7688 10.5 17 9.26878 17 7.75C17 6.23122 15.7688 5 14.25 5H8V10.5Z" fill="#141414"/>
</svg>
