<svg width="24" height="24" viewBox="0 0 24 24" fill="none" xmlns="http://www.w3.org/2000/svg">
<path d="M16.7832 1.01465C17.1739 1.08237 17.4943 1.37846 17.5859 1.77539L21.9746 20.7754C22.052 21.1113 21.9508 21.4633 21.707 21.707C21.5547 21.8594 21.3599 21.9561 21.1533 21.9883C21.0709 22.0011 20.9866 22.0034 20.9023 21.9951C20.8599 21.991 20.8175 21.9843 20.7754 21.9746L1.77539 17.5859C1.32187 17.4812 1.00018 17.0777 1 16.6123C1 7.99009 7.99009 1 16.6123 1L16.7832 1.01465ZM16.7471 7.03223C11.5572 7.41639 7.41639 11.5572 7.03223 16.7471L19.665 19.665L16.7471 7.03223ZM16.5 14C17.3284 14 18 14.6716 18 15.5C18 16.3284 17.3284 17 16.5 17C15.6716 17 15 16.3284 15 15.5C15 14.6716 15.6716 14 16.5 14ZM15.8213 3.02246C8.93321 3.41694 3.41694 8.93321 3.02246 15.8213L5.06055 16.292C5.64483 10.3619 10.3619 5.64483 16.292 5.06055L15.8213 3.02246ZM11.5 13C12.3284 13 13 13.6716 13 14.5C13 15.3284 12.3284 16 11.5 16C10.6716 16 10 15.3284 10 14.5C10 13.6716 10.6716 13 11.5 13ZM14.5 9C15.3284 9 16 9.67157 16 10.5C16 11.3284 15.3284 12 14.5 12C13.6716 12 13 11.3284 13 10.5C13 9.67157 13.6716 9 14.5 9Z" fill="#141414"/>
</svg>
