<svg width="24" height="24" viewBox="0 0 24 24" fill="none" xmlns="http://www.w3.org/2000/svg">
<path d="M21.7988 4.92871L13.0332 13.6934C13.295 13.8866 13.564 14.0708 13.8408 14.2441L14.8262 13.2588C15.3918 12.6931 16.2406 12.5194 16.9834 12.8164L20.7432 14.3203C21.5022 14.6241 21.9999 15.3592 22 16.1768V19C22 20.6569 20.6569 22 19 22C15.0002 22 11.3241 20.6176 8.4209 18.3057L4.82812 21.8994L3.41406 20.4854L20.3848 3.51465L21.7988 4.92871ZM14.8779 16.0361C14.4584 16.4557 13.8091 16.5434 13.2939 16.249C12.7034 15.9116 12.1388 15.5351 11.6035 15.123L9.8457 16.8809C12.3786 18.8358 15.5529 20 19 20C19.5523 20 20 19.5523 20 19V16.1768L16.2412 14.6738L14.8779 16.0361ZM7.82324 2C8.64079 2.00011 9.37589 2.49784 9.67969 3.25684L11.1836 7.0166C11.4806 7.75939 11.3069 8.60815 10.7412 9.17383L9.75488 10.1582C9.90263 10.3942 10.0585 10.6244 10.2207 10.8496L8.79004 12.2803C8.41241 11.7792 8.06427 11.2543 7.75098 10.7061C7.45658 10.1909 7.54429 9.54165 7.96387 9.12207L9.32617 7.75879L7.82324 4H5C4.44772 4 4 4.44772 4 5C4 8.39508 5.12869 11.5261 7.03027 14.04L5.60352 15.4668C3.34582 12.5812 2 8.94783 2 5C2 3.34315 3.34315 2 5 2H7.82324Z" fill="#141414"/>
</svg>
