<svg width="24" height="24" viewBox="0 0 24 24" fill="none" xmlns="http://www.w3.org/2000/svg">
<path d="M10.2207 4.19824C6.65846 5.0068 4 8.19417 4 12C4.00007 13.8645 4.84527 15.4917 6.13965 17.0225C6.98829 18.0261 7.98464 18.9382 9 19.8203V16H11V22C10.9999 22.5521 10.5522 22.9999 10 23H4V21H7.30957C6.37768 20.1764 5.43079 19.2814 4.6123 18.3135C3.15601 16.5912 2.00007 14.5197 2 12C2 7.23978 5.32504 3.25872 9.77832 2.24805L10.2207 4.19824ZM20 3H16.6895C17.6212 3.82351 18.5683 4.71773 19.3867 5.68555C20.8432 7.40798 22 9.48008 22 12C22 16.7603 18.6742 20.7414 14.2207 21.752L13.7783 19.8018C17.3408 18.9934 20 15.806 20 12C20 10.1355 19.1547 8.50828 17.8604 6.97754C17.0118 5.97401 16.0153 5.06171 15 4.17969V8H13V2C13 1.44772 13.4477 1 14 1H20V3Z" fill="#141414"/>
</svg>
