<svg width="24" height="24" viewBox="0 0 24 24" fill="none" xmlns="http://www.w3.org/2000/svg">
<path d="M12 4H6C4.89543 4 4 4.89543 4 6V18C4 19.1046 4.89543 20 6 20H6.57031L14.6807 11.4385C15.3622 10.7191 16.4685 10.6065 17.2803 11.1748L21.5732 14.1807C21.8406 14.3678 22 14.6737 22 15V18C22 20.2091 20.2091 22 18 22H6C3.79086 22 2 20.2091 2 18V6C2 3.79086 3.79086 2 6 2H12V4ZM9.32422 20H18C19.1046 20 20 19.1046 20 18V15.5205L16.1328 12.8135L9.32422 20ZM9 6C10.6569 6 12 7.34315 12 9C12 10.6569 10.6569 12 9 12C7.34315 12 6 10.6569 6 9C6 7.34315 7.34315 6 9 6ZM9 8C8.44772 8 8 8.44772 8 9C8 9.55228 8.44772 10 9 10C9.55228 10 10 9.55228 10 9C10 8.44772 9.55228 8 9 8ZM23 2.41406L20.4141 5L23 7.58594L21.5859 9L19 6.41406L16.4141 9L15 7.58594L17.5859 5L15 2.41406L16.4141 1L19 3.58594L21.5859 1L23 2.41406Z" fill="#141414"/>
</svg>
