<svg width="24" height="24" viewBox="0 0 24 24" fill="none" xmlns="http://www.w3.org/2000/svg">
<path d="M12 1C18.0751 1 23 5.92487 23 12C23 18.0751 18.0751 23 12 23C5.92487 23 1 18.0751 1 12C1 5.92487 5.92487 1 12 1ZM12 3C7.02944 3 3 7.02944 3 12C3 16.9706 7.02944 21 12 21C16.9706 21 21 16.9706 21 12C21 7.02944 16.9706 3 12 3ZM8.5 9.79004C8.5 8.22555 10.2154 7.26634 11.5479 8.08594L15.1406 10.2969C16.4091 11.0779 16.4091 12.9221 15.1406 13.7031L11.5479 15.9141C10.2154 16.7337 8.5 15.7744 8.5 14.21V9.79004ZM10.5 14.21L14.0918 12L10.5 9.79004V14.21Z" fill="#141414"/>
</svg>
