<svg width="24" height="24" viewBox="0 0 24 24" fill="none" xmlns="http://www.w3.org/2000/svg">
<path d="M12 1C18.0751 1 23 5.92487 23 12C23 18.0751 18.0751 23 12 23C5.92487 23 1 18.0751 1 12C1 5.92487 5.92487 1 12 1ZM12 3C7.02944 3 3 7.02944 3 12C3 16.9706 7.02944 21 12 21C16.9706 21 21 16.9706 21 12C21 7.02944 16.9706 3 12 3ZM16.0625 6.77344C16.3827 6.71474 16.7158 6.81544 16.9502 7.0498C17.2179 7.31757 17.311 7.71399 17.1914 8.07324L15.0703 14.4375C14.9708 14.7361 14.7361 14.9708 14.4375 15.0703L8.07324 17.1914C7.714 17.311 7.31755 17.217 7.0498 16.9492C6.78243 16.6815 6.68908 16.2858 6.80859 15.9268L8.92969 9.5625C9.02922 9.2639 9.2639 9.02922 9.5625 8.92969L15.9268 6.80859L16.0625 6.77344ZM10.6689 10.6689L9.33887 14.6611L13.3311 13.3311L14.6611 9.33887L10.6689 10.6689Z" fill="#141414"/>
</svg>
