<svg width="24" height="24" viewBox="0 0 24 24" fill="none" xmlns="http://www.w3.org/2000/svg">
<path d="M12.1904 1C15.768 1.00002 18.9525 2.65105 21 5.2168L19.4385 6.5C17.7629 4.36959 15.1388 3.00002 12.1904 3C7.13384 3 3.03418 7.02944 3.03418 12C3.03418 16.9706 7.13384 21 12.1904 21C15.1388 21 17.7629 19.6304 19.4385 17.5L20.8223 19C18.7707 21.4416 15.6663 23 12.1904 23C6.01016 23 1 18.0751 1 12C1 5.92487 6.01016 1 12.1904 1ZM19.0146 11.2939C19.4105 11.6842 19.4105 12.3158 19.0146 12.7061L14.1953 17.4561L12.7549 16.0439L15.8428 13H7.10352V11H15.8428L12.7549 7.95605L14.1953 6.54395L19.0146 11.2939Z" fill="#141414"/>
</svg>
