<svg width="24" height="24" viewBox="0 0 24 24" fill="none" xmlns="http://www.w3.org/2000/svg">
<path d="M20 12C21.6568 12 23 13.3432 23 15V15.0674C23 16.3459 22.2069 17.4905 21.0098 17.9395L19 18.6934V19H23V21H18C17.4477 21 17 20.5523 17 20V18C17 17.5833 17.2583 17.2099 17.6484 17.0635L20.3076 16.0664C20.724 15.9101 21 15.5122 21 15.0674V15C21 14.4477 20.5523 14 20 14C19.4477 14 19 14.4477 19 15V15.5H17V15C17 13.3431 18.3431 12 20 12ZM15 4.41406L9.41406 10L15 15.5859L13.5859 17L8 11.4141L2.41406 17L1 15.5859L6.58594 10L1 4.41406L2.41406 3L8 8.58594L13.5859 3L15 4.41406Z" fill="#141414"/>
</svg>
