<svg width="24" height="24" viewBox="0 0 24 24" fill="none" xmlns="http://www.w3.org/2000/svg">
<path fill-rule="evenodd" clip-rule="evenodd" d="M15.1426 2C19.482 2 23 5.51804 23 9.85742V14.1055C23 16.0984 21.3845 17.7137 19.3916 17.7139C18.0428 17.7139 16.8664 16.9741 16.2471 15.8779C15.1885 17.0086 13.6743 17.7139 12 17.7139C8.81997 17.7139 6.21777 15.1694 6.21777 12C6.21777 8.83057 8.81997 6.28613 12 6.28613C13.4426 6.28613 14.7663 6.80954 15.7822 7.67773V6H17.7822V14.1055C17.7822 14.9939 18.5031 15.7139 19.3916 15.7139C20.2799 15.7137 21 14.9938 21 14.1055V9.85742C21 6.62261 18.3774 4 15.1426 4H11C6.58172 4 3 7.58172 3 12C3 16.4183 6.58172 20 11 20H17.2178V22H11C5.47715 22 1 17.5228 1 12C1 6.47715 5.47715 2 11 2H15.1426ZM12 8.28613C9.89731 8.28613 8.21777 9.96217 8.21777 12C8.21777 14.0378 9.89731 15.7139 12 15.7139C14.1027 15.7139 15.7822 14.0378 15.7822 12C15.7822 9.96217 14.1027 8.28613 12 8.28613Z" fill="#141414"/>
</svg>
