<svg width="24" height="24" viewBox="0 0 24 24" fill="none" xmlns="http://www.w3.org/2000/svg">
<g clip-path="url(#clip0_1486_1951)">
<path d="M10.2369 0.545244C11.2883 -0.218575 12.7128 -0.218651 13.7642 0.545244L22.3502 6.78354C23.4012 7.54756 23.8416 8.90221 23.44 10.138L20.1598 20.2308C19.7582 21.4666 18.6066 22.3038 17.3072 22.3041H6.6939C5.39443 22.304 4.24307 21.4666 3.84135 20.2308L0.561068 10.138C0.159465 8.90204 0.599572 7.5475 1.65091 6.78354L10.2369 0.545244ZM12.5884 2.16341C12.238 1.90881 11.7631 1.90888 11.4127 2.16341L2.8267 8.40171C2.47628 8.65637 2.32955 9.10789 2.46342 9.51988L5.74272 19.6127C5.8767 20.0244 6.26089 20.304 6.6939 20.3041H17.3072C17.7401 20.3038 18.1245 20.0244 18.2584 19.6127L21.5377 9.51988C21.6715 9.10806 21.5245 8.65642 21.1744 8.40171L12.5884 2.16341Z" fill="#141414"/>
</g>
<defs>
<clipPath id="clip0_1486_1951">
<rect width="24" height="24" fill="white"/>
</clipPath>
</defs>
</svg>
