<svg width="24" height="24" viewBox="0 0 24 24" fill="none" xmlns="http://www.w3.org/2000/svg">
<path d="M13.1719 1C13.9674 1.00008 14.7304 1.31637 15.293 1.87891L20.1211 6.70703C20.6836 7.26957 20.9999 8.03258 21 8.82812V19C21 21.2091 19.2091 23 17 23H7C4.79086 23 3 21.2091 3 19V5C3 2.79086 4.79086 1 7 1H13.1719ZM7 3C5.89543 3 5 3.89543 5 5V19C5 20.1046 5.89543 21 7 21H17C18.1046 21 19 20.1046 19 19V8.82812C18.9999 8.56302 18.8945 8.30856 18.707 8.12109L13.8789 3.29297C13.6914 3.1055 13.437 3.00008 13.1719 3H7ZM16 12C16.5523 12 17 12.4477 17 13V18C17 18.5523 16.5523 19 16 19H8C7.44772 19 7 18.5523 7 18V13C7 12.4477 7.44772 12 8 12H16ZM9 17H15V14H9V17Z" fill="#141414"/>
</svg>
