<svg width="24" height="24" viewBox="0 0 24 24" fill="none" xmlns="http://www.w3.org/2000/svg">
<path d="M9.1334 1.3851C9.81266 1.02345 10.6672 1.21484 11.1237 1.85385C12.4237 3.67389 14.2675 5.03508 16.3893 5.74252L16.9509 5.93002C17.4905 6.10991 17.8963 6.55567 18.027 7.10385L18.0495 7.21518L19.3532 15.0433C21.4146 15.3363 22.9998 17.1081 22.9998 19.2503V21.5003C22.9995 22.3286 22.328 23.0003 21.4997 23.0003H1.49954V21.0003H11.5143L1.39309 11.2845C0.710407 10.6291 0.58122 9.58421 1.08254 8.78158L3.03764 5.65268C3.18786 5.41242 3.38791 5.20647 3.62358 5.04916L9.00059 1.4642L9.1334 1.3851ZM5.56891 6.15561L10.7067 11.2933L9.29258 12.7074L4.18023 7.59506L2.77787 9.84115L14.402 21.0003H20.9997V19.2503C20.9997 18.0078 19.9922 17.0003 18.7497 17.0003C18.117 17 17.5767 16.5423 17.4724 15.9183L17.2253 14.4388L15.2585 14.9662L14.7409 13.0345L16.8942 12.4574L16.6237 10.8314L14.2585 11.4662L13.7409 9.53451L16.2936 8.84994L16.112 7.75814L15.7575 7.63998C13.3717 6.84467 11.2828 5.35323 9.75548 3.36361L5.56891 6.15561Z" fill="#141414"/>
</svg>
