<svg width="24" height="24" viewBox="0 0 24 24" fill="none" xmlns="http://www.w3.org/2000/svg">
<path d="M9.82031 1.72481C11.1459 0.863214 12.8541 0.863213 14.1797 1.72481L21.1797 6.27462C22.3147 7.01247 23 8.27433 23 9.62813V19.0002C22.9998 21.2092 21.209 23.0002 19 23.0002H5C2.79096 23.0002 1.00015 21.2092 1 19.0002V9.62813C1.00004 8.27433 1.68525 7.01247 2.82031 6.27462L9.82031 1.72481ZM14.4785 15.3176C13.0254 16.4647 10.9746 16.4647 9.52148 15.3176L3 10.1691V19.0002C3.00015 20.1046 3.89553 21.0002 5 21.0002H19C20.1045 21.0002 20.9998 20.1046 21 19.0002V10.1691L14.4785 15.3176ZM13.0898 3.40157C12.4271 2.97076 11.573 2.97076 10.9102 3.40157L3.91016 7.95138C3.82147 8.00903 3.73838 8.07315 3.66113 8.14278L10.7607 13.7473C11.4873 14.3208 12.5127 14.3208 13.2393 13.7473L20.3379 8.14278C20.2608 8.07334 20.1783 8.0089 20.0898 7.95138L13.0898 3.40157Z" fill="#141414"/>
</svg>
