<svg width="24" height="24" viewBox="0 0 24 24" fill="none" xmlns="http://www.w3.org/2000/svg">
<path fill-rule="evenodd" clip-rule="evenodd" d="M10 6C10.6397 6 11.1478 6.32847 11.5049 6.70605C11.8599 7.08147 12.1339 7.57074 12.3428 8.09277C12.7627 9.14259 13 10.5246 13 12C13 13.4754 12.7627 14.8574 12.3428 15.9072C12.1339 16.4293 11.8599 16.9185 11.5049 17.2939C11.1478 17.6715 10.6397 18 10 18C9.36029 18 8.8522 17.6715 8.49512 17.2939C8.1401 16.9185 7.86606 16.4293 7.65723 15.9072C7.2373 14.8574 7 13.4754 7 12C7 10.5246 7.2373 9.14259 7.65723 8.09277C7.86606 7.57074 8.1401 7.08147 8.49512 6.70605C8.8522 6.32847 9.36029 6 10 6ZM9.94824 8.08008C9.82478 8.21063 9.66771 8.45329 9.51465 8.83594C9.21072 9.59576 9 10.7139 9 12C9 13.2861 9.21072 14.4042 9.51465 15.1641C9.66771 15.5467 9.82478 15.7894 9.94824 15.9199C9.96779 15.9406 9.98583 15.9553 10 15.9678C10.0142 15.9553 10.0322 15.9406 10.0518 15.9199C10.1752 15.7894 10.3323 15.5467 10.4854 15.1641C10.7893 14.4042 11 13.2861 11 12C11 10.7139 10.7893 9.59576 10.4854 8.83594C10.3323 8.45329 10.1752 8.21063 10.0518 8.08008C10.032 8.05917 10.0143 8.04375 10 8.03125C9.98573 8.04375 9.96802 8.05917 9.94824 8.08008Z" fill="black"/>
<path fill-rule="evenodd" clip-rule="evenodd" d="M14 1C16.1461 1 17.9187 2.44424 19.1006 4.41406C20.2944 6.40383 21 9.0885 21 12C21 14.9115 20.2944 17.5962 19.1006 19.5859C17.9187 21.5558 16.1461 23 14 23H10C7.85391 23 6.08133 21.5558 4.89941 19.5859C3.70555 17.5962 3 14.9115 3 12C3 9.0885 3.70555 6.40383 4.89941 4.41406C6.08133 2.44424 7.85391 1 10 1H14ZM10 3C8.83246 3 7.60487 3.79408 6.61523 5.44336C5.63752 7.07288 5 9.38866 5 12C5 14.6113 5.63752 16.9271 6.61523 18.5566C7.60487 20.2059 8.83246 21 10 21C11.1675 21 12.3951 20.2059 13.3848 18.5566C14.3625 16.9271 15 14.6113 15 12C15 9.38866 14.3625 7.07288 13.3848 5.44336C12.3951 3.79408 11.1675 3 10 3ZM15.6699 18.5C15.4947 18.8806 15.3058 19.244 15.1006 19.5859C14.7936 20.0976 14.4454 20.5725 14.0625 20.9971C15.2112 20.9692 16.4128 20.1765 17.3848 18.5566C17.3959 18.5381 17.4059 18.5188 17.417 18.5H15.6699ZM16.9717 13C16.9025 14.2317 16.7058 15.4107 16.4004 16.5H18.3096C18.6551 15.4538 18.8872 14.2708 18.9678 13H16.9717ZM16.4004 7.5C16.7058 8.58928 16.9025 9.76831 16.9717 11H18.9678C18.8872 9.72923 18.6551 8.5462 18.3096 7.5H16.4004ZM14.0625 3.00195C14.4456 3.4267 14.7935 3.90222 15.1006 4.41406C15.3058 4.75603 15.4947 5.11936 15.6699 5.5H17.417C17.4059 5.48124 17.3959 5.46194 17.3848 5.44336C16.4128 3.8235 15.2112 3.02979 14.0625 3.00195Z" fill="black"/>
</svg>
