<svg width="24" height="24" viewBox="0 0 24 24" fill="none" xmlns="http://www.w3.org/2000/svg">
<path d="M12.1699 1C17.1784 1 21.4153 4.29548 22.834 8.83398C22.8391 8.85032 22.8442 8.86762 22.8496 8.88477C22.9183 9.10208 23.007 9.38436 22.999 9.7207C22.9923 10.0015 22.9164 10.3117 22.792 10.5635C22.6424 10.8661 22.414 11.0931 22.2354 11.2705C22.2196 11.2862 22.2034 11.3015 22.1885 11.3164L21.9746 11.5312C21.9154 11.5924 21.8544 11.6525 21.7969 11.71C21.7885 11.7183 21.7807 11.7271 21.7725 11.7354L11.7354 21.7715C11.7271 21.7798 11.7184 21.7885 11.71 21.7969C11.6482 21.8587 11.5835 21.9238 11.5176 21.9873L11.3164 22.1885C11.3015 22.2034 11.2862 22.2196 11.2705 22.2354C11.093 22.4141 10.8654 22.6423 10.5625 22.792C10.3106 22.9164 10.0006 22.9924 9.71973 22.999C9.38338 23.0069 9.10109 22.9183 8.88379 22.8496C8.8668 22.8442 8.85018 22.839 8.83398 22.834C4.29554 21.4153 1 17.1784 1 12.1699C1.00025 6.00106 6.00106 1.00025 12.1699 1ZM12.1699 3.00977C7.11092 3.01002 3.01002 7.11092 3.00977 12.1699C3.00977 16.027 5.39425 19.3295 8.77148 20.6797C8.7544 20.4272 8.74513 20.1725 8.74512 19.916C8.74512 13.7468 13.7468 8.74512 19.916 8.74512C20.1725 8.74512 20.4272 8.75343 20.6797 8.77051C19.3293 5.39368 16.0267 3.00977 12.1699 3.00977Z" fill="#141414"/>
</svg>
