<svg width="24" height="24" viewBox="0 0 24 24" fill="none" xmlns="http://www.w3.org/2000/svg">
<path d="M10.4814 15.2354C11.2796 14.3041 12.7204 14.3041 13.5186 15.2354L17.3447 19.6982C18.4565 20.9955 17.5346 22.9997 15.8262 23H8.17383C6.46542 22.9997 5.5435 20.9955 6.65527 19.6982L10.4814 15.2354ZM8.17383 21H15.8262L12 16.5361L8.17383 21ZM22 13H2V11H22V13ZM15.8262 1C17.5346 1.00031 18.4565 3.00451 17.3447 4.30176L13.5186 8.76465C12.7204 9.69587 11.2796 9.69587 10.4814 8.76465L6.65527 4.30176C5.5435 3.00451 6.46542 1.00031 8.17383 1H15.8262ZM12 7.46387L15.8262 3H8.17383L12 7.46387Z" fill="#141414"/>
</svg>
