<svg width="24" height="24" viewBox="0 0 24 24" fill="none" xmlns="http://www.w3.org/2000/svg">
<path d="M21.9902 22H2V20H21.9902V22ZM3.00977 15.5C3.56165 15.5001 4.00879 15.9478 4.00879 16.5C4.00879 17.0522 3.56165 17.4999 3.00977 17.5H2.99902C2.44723 17.4997 2 17.0521 2 16.5C2 15.9479 2.44723 15.5003 2.99902 15.5H3.00977ZM21.001 15.5C21.5528 15.5003 22 15.9479 22 16.5C22 17.0521 21.5528 17.4997 21.001 17.5H20.9902C20.4384 17.4999 19.9912 17.0522 19.9912 16.5C19.9912 15.9478 20.4384 15.5001 20.9902 15.5H21.001ZM3.00977 11C3.56165 11.0001 4.00879 11.4478 4.00879 12C4.00879 12.5522 3.56165 12.9999 3.00977 13H2.99902C2.44723 12.9997 2 12.5521 2 12C2 11.4479 2.44723 11.0003 2.99902 11H3.00977ZM21.001 11C21.5528 11.0003 22 11.4479 22 12C22 12.5521 21.5528 12.9997 21.001 13H20.9902C20.4384 12.9999 19.9912 12.5522 19.9912 12C19.9912 11.4478 20.4384 11.0001 20.9902 11H21.001ZM3.00977 6.5C3.56165 6.50015 4.00879 6.94781 4.00879 7.5C4.00879 8.05219 3.56165 8.49985 3.00977 8.5H2.99902C2.44723 8.49974 2 8.05213 2 7.5C2 6.94787 2.44723 6.50026 2.99902 6.5H3.00977ZM21.001 6.5C21.5528 6.50026 22 6.94787 22 7.5C22 8.05213 21.5528 8.49974 21.001 8.5H20.9902C20.4384 8.49985 19.9912 8.05219 19.9912 7.5C19.9912 6.94781 20.4384 6.50015 20.9902 6.5H21.001ZM3.00977 2C3.56165 2.00015 4.00879 2.44781 4.00879 3C4.00879 3.55219 3.56165 3.99985 3.00977 4H2.99902C2.44723 3.99974 2 3.55213 2 3C2 2.44787 2.44723 2.00026 2.99902 2H3.00977ZM7.50684 2C8.05884 2 8.50684 2.44772 8.50684 3C8.50684 3.55228 8.05884 4 7.50684 4H7.49707C6.94515 3.9999 6.49805 3.55222 6.49805 3C6.49805 2.44778 6.94515 2.0001 7.49707 2H7.50684ZM12.0049 2C12.5569 2 13.0049 2.44772 13.0049 3C13.0049 3.55228 12.5569 4 12.0049 4H11.9951C11.4431 4 10.9951 3.55228 10.9951 3C10.9951 2.44772 11.4431 2 11.9951 2H12.0049ZM16.5029 2C17.0549 2.0001 17.502 2.44778 17.502 3C17.502 3.55222 17.0549 3.9999 16.5029 4H16.4932C15.9412 4 15.4932 3.55228 15.4932 3C15.4932 2.44772 15.9412 2 16.4932 2H16.5029ZM21.001 2C21.5528 2.00026 22 2.44787 22 3C22 3.55213 21.5528 3.99974 21.001 4H20.9902C20.4384 3.99985 19.9912 3.55219 19.9912 3C19.9912 2.44781 20.4384 2.00015 20.9902 2H21.001Z" fill="#141414"/>
</svg>
