<svg width="24" height="24" viewBox="0 0 24 24" fill="none" xmlns="http://www.w3.org/2000/svg">
<g clip-path="url(#clip0_1486_1975)">
<path d="M10.2767 0.956294C11.0502 -0.357177 12.9504 -0.357175 13.7239 0.956294L16.0892 4.97488L20.7796 4.99344C22.3157 4.99998 23.2719 6.66434 22.5032 7.99444L20.1868 12.0003L22.5032 16.0062C23.2716 17.3363 22.3156 19.0007 20.7796 19.0072L16.0892 19.0248L13.7239 23.0444C12.9505 24.3576 11.0502 24.3575 10.2767 23.0444L7.91044 19.0248L3.22098 19.0072C1.68482 19.0008 0.728725 17.3364 1.49735 16.0062L3.81278 12.0003L1.49735 7.99444C0.728622 6.66428 1.68478 4.99983 3.22098 4.99344L7.91044 4.97488L10.2767 0.956294ZM9.34599 6.47978C9.16708 6.7836 8.84112 6.97134 8.48857 6.97294L3.22977 6.99345L5.83427 11.5003C6.01271 11.8097 6.01282 12.191 5.83427 12.5003L3.22977 17.0072L8.48857 17.0277L8.61943 17.0375C8.92034 17.0786 9.18949 17.255 9.34599 17.5209L12.0003 22.0297L14.6546 17.5209L14.7288 17.4125C14.9159 17.173 15.2034 17.029 15.512 17.0277L20.7708 17.0072L18.1663 12.5003C17.9877 12.191 17.9878 11.8097 18.1663 11.5003L20.7708 6.99345L15.512 6.97294C15.1594 6.97141 14.8336 6.78355 14.6546 6.47978L12.0003 1.97095L9.34599 6.47978Z" fill="#141414"/>
</g>
<defs>
<clipPath id="clip0_1486_1975">
<rect width="24" height="24" fill="white"/>
</clipPath>
</defs>
</svg>
