<svg width="24" height="24" viewBox="0 0 24 24" fill="none" xmlns="http://www.w3.org/2000/svg">
<path d="M14 1C14.5523 1 15 1.44772 15 2V2.96973C17.8361 3.91439 20.0761 6.15965 21.0176 9H22C22.5523 9 23 9.44772 23 10V14C23 14.5523 22.5523 15 22 15H21.0371C20.5825 16.3947 19.7999 17.6433 18.7188 18.7266C17.6487 19.7987 16.3668 20.5597 15 21.0068V22C15 22.5523 14.5523 23 14 23H10C9.44772 23 9 22.5523 9 22V21.0117C7.81621 20.6253 6.69373 20.0012 5.71484 19.1357C4.47159 18.0365 3.51764 16.6146 2.98242 15H2C1.44772 15 1 14.5523 1 14V10C1 9.44772 1.44772 9 2 9H2.98242C3.45369 7.57828 4.25002 6.30641 5.28223 5.27246C6.31333 4.23972 7.58195 3.44209 9 2.96973V2C9 1.44772 9.44772 1 10 1H14ZM11 19V21H13V19H11ZM15 6C15 6.55228 14.5523 7 14 7H10C9.44772 7 9 6.55228 9 6V5.11035C8.13623 5.48857 7.35692 6.02582 6.69824 6.68555C6.03742 7.34741 5.49917 8.13101 5.12109 9H6C6.55228 9 7 9.44772 7 10V14C7 14.5523 6.55228 15 6 15H5.12109C5.56251 16.0145 6.22173 16.9132 7.04004 17.6367C7.63416 18.162 8.29688 18.5758 9 18.877V18C9 17.4477 9.44772 17 10 17H14C14.5523 17 15 17.4477 15 18V18.8721C15.8439 18.5107 16.6279 17.9904 17.3027 17.3145C18.004 16.6118 18.5368 15.8389 18.9014 15H18C17.4477 15 17 14.5523 17 14V10C17 9.44772 17.4477 9 18 9H18.8789C18.1235 7.26373 16.7315 5.86857 15 5.11035V6ZM3 11V13H5V11H3ZM19 11V13H21V11H19ZM11 3V5H13V3H11Z" fill="#141414"/>
</svg>
