<svg width="24" height="24" viewBox="0 0 24 24" fill="none" xmlns="http://www.w3.org/2000/svg">
<path d="M18 2C20.2091 2 22 3.79086 22 6V18C22 20.2091 20.2091 22 18 22H6C3.79086 22 2 20.2091 2 18V6C2 3.79086 3.79086 2 6 2H18ZM6 4C4.89543 4 4 4.89543 4 6V18C4 19.1046 4.89543 20 6 20H18C19.1046 20 20 19.1046 20 18V6C20 4.89543 19.1046 4 18 4H6ZM13 14.5859L15.793 11.793L17.207 13.207L12.707 17.707C12.3165 18.0975 11.6835 18.0975 11.293 17.707L6.79297 13.207L8.20703 11.793L11 14.5859V7H13V14.5859Z" fill="#141414"/>
</svg>
