<svg width="24" height="24" viewBox="0 0 24 24" fill="none" xmlns="http://www.w3.org/2000/svg">
<path d="M18 2C20.2091 2 22 3.79086 22 6V18C22 20.2091 20.2091 22 18 22H6C3.79086 22 2 20.2091 2 18V6C2 3.79086 3.79086 2 6 2H18ZM6 4C4.89543 4 4 4.89543 4 6V18C4 19.1046 4.89543 20 6 20H18C19.1046 20 20 19.1046 20 18V6C20 4.89543 19.1046 4 18 4H6ZM18.207 13.293C18.5975 13.6835 18.5975 14.3165 18.207 14.707L15.207 17.707L13.793 16.293L16.0859 14L13.793 11.707L15.207 10.293L18.207 13.293ZM10.207 7.70703L7.91406 10L10.207 12.293L8.79297 13.707L5.79297 10.707C5.40248 10.3165 5.40246 9.68348 5.79297 9.29297L8.79297 6.29297L10.207 7.70703Z" fill="#141414"/>
</svg>
