<svg width="24" height="24" viewBox="0 0 24 24" fill="none" xmlns="http://www.w3.org/2000/svg">
<path d="M5 20H7V22H5V24H3V22H1V20H3V18H5V20ZM17.6973 0.62793C17.9624 0.627946 18.2168 0.734425 18.4043 0.921875L23.1367 5.6543C23.527 6.04484 23.5272 6.67793 23.1367 7.06836L21.7021 8.50195C21.943 11.251 20.9597 13.9778 18.9961 15.9414L18.0352 16.9023C17.7206 17.2167 17.3021 17.4069 16.8584 17.4365L8.2998 18.0068C8.01221 18.026 7.72927 17.9195 7.52539 17.7158L6.34277 16.5332C6.13909 16.3295 6.03287 16.0472 6.05176 15.7598L6.62305 7.2002L6.6416 7.03516C6.70196 6.65353 6.88114 6.2987 7.15625 6.02344L8.11719 5.0625C10.0794 3.10045 12.8047 2.11593 15.5547 2.35645L16.9902 0.921875C17.1777 0.734393 17.4321 0.627991 17.6973 0.62793ZM16.6299 4.11035C16.4097 4.33036 16.0995 4.43554 15.791 4.39453L15.7129 4.38477C13.4388 4.08156 11.1535 4.85532 9.53125 6.47754L8.61328 7.39355L8.13965 14.5039L11.0811 11.5625C11.0288 11.384 11 11.1954 11 11C11 9.89543 11.8954 9 13 9C14.1046 9 15 9.89543 15 11C15 12.1046 14.1046 13 13 13C12.838 13 12.6811 12.9778 12.5303 12.9414L9.55371 15.918L16.6641 15.4443L17.582 14.5273C19.2212 12.8881 19.9927 10.5722 19.665 8.27734C19.6205 7.96585 19.7258 7.65127 19.9482 7.42871L21.0156 6.36133L17.6973 3.04297L16.6299 4.11035Z" fill="#141414"/>
</svg>
