<svg width="24" height="24" viewBox="0 0 24 24" fill="none" xmlns="http://www.w3.org/2000/svg">
<path d="M4.22168 4.22209C7.90762 0.536153 13.5572 0.0135502 17.8008 2.6508C18.5046 3.08822 19.1687 3.61246 19.7783 4.22209C23.5372 7.98096 24.0059 13.7814 21.1885 18.0512C20.8984 18.4903 20.3179 18.6295 19.8604 18.3696L12.0703 13.9418L8.19141 21.0004H21V23.0004H1V21.0004H5.90918L10.332 12.9535L2.50586 8.50432C2.04787 8.24386 1.87063 7.67273 2.10059 7.19866C2.62282 6.12202 3.3302 5.11364 4.22168 4.22209ZM18.8789 6.19573C18.9884 8.32672 18.5485 11.1701 16.8584 14.3627L19.9922 16.144C21.6392 12.9699 21.2675 9.02011 18.8789 6.19573ZM16.582 4.47307C14.806 4.52968 11.4342 5.59443 9.16895 9.99162L15.1191 13.3735C17.2957 9.23172 17.0402 5.95608 16.582 4.47307ZM13.5391 3.13127C10.7541 2.65073 7.78647 3.48655 5.63672 5.63616C5.13702 6.13586 4.70858 6.67934 4.35156 7.25334L7.42969 9.00237C9.13808 5.72604 11.4497 3.97193 13.5391 3.13127Z" fill="#141414"/>
</svg>
