<svg width="24" height="24" viewBox="0 0 24 24" fill="none" xmlns="http://www.w3.org/2000/svg">
<path d="M10.6846 1.5C15.7571 1.5 19.869 5.61205 19.8691 10.6846C19.8691 12.8456 19.123 14.8326 17.874 16.4014L22.5 21.0273L21.0273 22.5L16.4014 17.874C14.8326 19.123 12.8456 19.8691 10.6846 19.8691C5.61205 19.869 1.5 15.7571 1.5 10.6846C1.50013 5.61213 5.61213 1.50013 10.6846 1.5ZM10.6846 3.58301C6.76265 3.58314 3.58314 6.76265 3.58301 10.6846C3.58301 14.6066 6.76257 17.786 10.6846 17.7861C14.6067 17.7861 17.7861 14.6067 17.7861 10.6846C17.786 6.76257 14.6066 3.58301 10.6846 3.58301Z" fill="#141414"/>
</svg>
