<svg width="24" height="24" viewBox="0 0 24 24" fill="none" xmlns="http://www.w3.org/2000/svg">
<path d="M12 1C18.0751 1 23 5.92487 23 12C23 18.0751 18.0751 23 12 23C5.92487 23 1 18.0751 1 12C1 5.92487 5.92487 1 12 1ZM12 3C7.02944 3 3 7.02944 3 12C3 16.9706 7.02944 21 12 21C16.9706 21 21 16.9706 21 12C21 7.02944 16.9706 3 12 3ZM12 13C14.3312 13 16.2878 14.5947 16.8428 16.751L14.9053 17.249C14.5721 15.955 13.3964 15 12 15C10.6036 15 9.42791 15.955 9.09473 17.249L7.15723 16.751C7.71222 14.5947 9.66885 13 12 13ZM10.4971 9.73926L6.6084 10.8506L6.05859 8.92773L9.94727 7.81641L10.4971 9.73926ZM17.9414 8.92773L17.3916 10.8506L13.5029 9.73926L14.0527 7.81641L17.9414 8.92773Z" fill="#141414"/>
</svg>
