<svg width="24" height="24" viewBox="0 0 24 24" fill="none" xmlns="http://www.w3.org/2000/svg">
<path d="M13 2V4H6C4.89543 4 4 4.89543 4 6V18C4 19.1046 4.89543 20 6 20H18C19.1046 20 20 19.1046 20 18V11H22V18C22 20.2091 20.2091 22 18 22H6C3.79086 22 2 20.2091 2 18V6C2 3.79086 3.79086 2 6 2H13Z" fill="#141414"/>
<path fill-rule="evenodd" clip-rule="evenodd" d="M17.2129 2.82129C18.308 1.72625 20.0836 1.72633 21.1787 2.82129C22.2738 3.91641 22.2738 5.692 21.1787 6.78711L12.8066 15.1592C12.696 15.2698 12.5606 15.3529 12.4121 15.4023L8.60352 16.6719C8.24113 16.7927 7.8414 16.6988 7.57129 16.4287C7.30118 16.1586 7.20733 15.7589 7.32812 15.3965L8.59766 11.5869C8.64716 11.4387 8.73033 11.3039 8.84082 11.1934L17.2129 2.82129ZM19.7529 4.24805C19.4455 3.94064 18.9471 3.94064 18.6396 4.24805L10.4355 12.4512L9.87891 14.1211L11.5488 13.5645L19.7529 5.36035C20.0599 5.05303 20.0599 4.55536 19.7529 4.24805Z" fill="#141414"/>
</svg>
