<svg width="24" height="24" viewBox="0 0 24 24" fill="none" xmlns="http://www.w3.org/2000/svg">
<path fill-rule="evenodd" clip-rule="evenodd" d="M12 1C15.2855 1 18.2359 2.44163 20.25 4.72363C21.9609 6.66213 23 9.211 23 12C23 15.3176 21.5297 18.2933 19.209 20.3086C17.2789 21.9845 14.7568 23 12 23C8.94289 23 6.17509 21.7516 4.18262 19.7393C2.21598 17.7529 1 15.0174 1 12C1 9.00234 2.20046 6.28291 4.14453 4.2998C6.13978 2.26456 8.92313 1 12 1ZM6.34277 19C7.88892 20.2512 9.85654 21 12 21C13.8691 21 15.6036 20.4309 17.042 19.4561L14.8613 17.2754C14.0105 17.7377 13.035 18 12 18C10.6864 18 9.47042 17.5772 8.48242 16.8613L6.34277 19ZM16.9824 8.65723C17.6243 9.61241 18 10.7628 18 12C18 13.5516 17.4106 14.9659 16.4453 16.0303L18.5684 18.1533C20.0776 16.5431 21 14.3796 21 12C21 10.0572 20.3852 8.2597 19.3389 6.78906L16.9824 8.65723ZM4.91211 6.45312C3.71363 7.98207 3 9.90694 3 12C3 14.1073 3.72325 16.0442 4.93652 17.5781L7.08008 15.4346C6.39995 14.4618 6 13.277 6 12C6 10.7262 6.39817 9.5437 7.0752 8.57227L4.91211 6.45312ZM12 8C10.8808 8 9.87069 8.45847 9.14355 9.2002C8.43525 9.92272 8 10.9095 8 12C8 13.0905 8.43525 14.0773 9.14355 14.7998C9.87069 15.5415 10.8808 16 12 16C12.9018 16 13.7309 15.7024 14.3994 15.2002C15.373 14.4687 16 13.3078 16 12C16 10.9095 15.5647 9.92272 14.8564 9.2002C14.1293 8.45847 13.1192 8 12 8ZM12 3C9.84242 3 7.86325 3.75824 6.3125 5.02441L8.47461 7.14453C9.46398 6.42527 10.683 6 12 6C13.3507 6 14.598 6.44719 15.6006 7.2002L18.0039 5.29492C16.4105 3.8669 14.3069 3 12 3Z" fill="#141414"/>
</svg>
