<svg width="24" height="24" viewBox="0 0 24 24" fill="none" xmlns="http://www.w3.org/2000/svg">
<path d="M10.5 3.15615C10.5003 1.45373 12.4923 0.529375 13.792 1.6288L17.7442 4.97355C18.6878 5.77237 18.6877 7.22742 17.7442 8.0263L13.0479 12L17.7442 15.9736C18.6878 16.7724 18.6877 18.2275 17.7442 19.0264L13.792 22.3711C12.4922 23.4708 10.5 22.5464 10.5 20.8438V14.1553L5.64551 18.2637L4.35449 16.7363L9.9512 12L4.35449 7.2636L5.64551 5.73625L10.5 9.8437V3.15615ZM12.5 20.8438L16.4522 17.5L12.5 14.1553V20.8438ZM12.5 9.8437L16.4522 6.49993L12.5 3.15615V9.8437Z" fill="#141414"/>
</svg>
