<svg width="24" height="24" viewBox="0 0 24 24" fill="none" xmlns="http://www.w3.org/2000/svg">
<path d="M21.7197 12.7383C21.9052 12.9337 22.0065 13.1955 22 13.4658C21.9934 13.7362 21.8794 13.9927 21.6846 14.1787L14.9512 20.6064C12.9669 22.5005 9.84584 22.4581 7.91308 20.5107L4.47753 17.0498C2.50053 15.0579 2.50863 11.8251 4.49511 9.84277L10.4785 3.87207L9.05468 2.4375L10.4814 1L21.7197 12.7383ZM5.18554 14.458C5.33073 14.8792 5.57035 15.2748 5.90429 15.6113L9.34082 19.0732C10.5004 20.2415 12.372 20.267 13.5625 19.1309L18.459 14.458H5.18554ZM5.91503 11.2881C5.58299 11.6195 5.34297 12.0093 5.19531 12.4248H18.6299L11.8896 5.3252L5.91503 11.2881Z" fill="#141414"/>
</svg>
