<svg width="24" height="24" viewBox="0 0 24 24" fill="none" xmlns="http://www.w3.org/2000/svg">
<path d="M16.7783 17.0241C18.186 16.3323 19.8433 16.3323 21.251 17.0241L23 18.0544L22.1055 19.8122L20.3564 18.7819C19.5119 18.3668 18.5174 18.3669 17.6729 18.7819L16.251 19.4811C14.8433 20.1729 13.186 20.1729 11.7783 19.4811L10.3564 18.7819C9.51189 18.3668 8.51742 18.3669 7.67285 18.7819L6.42578 19.3952C4.89677 20.1466 3.08307 20.078 1.61719 19.2136L1 18.8493L2.0293 17.1637L2.64648 17.528C3.52596 18.0465 4.61395 18.0872 5.53125 17.6364L6.77832 17.0241C8.18596 16.3323 9.84334 16.3323 11.251 17.0241L12.6729 17.7223C13.5174 18.1374 14.5119 18.1374 15.3564 17.7223L16.7783 17.0241ZM16.7783 10.9372C18.186 10.2454 19.8433 10.2454 21.251 10.9372L23 11.8893L22.1055 13.6471L20.3564 12.695C19.5119 12.2799 18.5174 12.28 17.6729 12.695L16.251 13.3942C14.8433 14.086 13.186 14.086 11.7783 13.3942L10.3564 12.695C9.51192 12.2799 8.5174 12.28 7.67285 12.695L6.42578 13.3083C4.89676 14.0597 3.08307 13.9911 1.61719 13.1266L1 12.7624L2.0293 11.0768L2.64648 11.4411C3.52591 11.9596 4.61396 12.0012 5.53125 11.5505L6.77832 10.9372C8.18596 10.2454 9.84334 10.2454 11.251 10.9372L12.6729 11.6364C13.5174 12.0514 14.5119 12.0515 15.3564 11.6364L16.7783 10.9372ZM16.7783 4.51921C18.186 3.82742 19.8433 3.82742 21.251 4.51921L23 5.5075L22.1055 7.26531L20.3564 6.27703C19.5119 5.86195 18.5174 5.86197 17.6729 6.27703L16.251 6.97625C14.8433 7.66804 13.186 7.66804 11.7783 6.97625L10.3564 6.27703C9.51188 5.86195 8.51743 5.86197 7.67285 6.27703L6.42578 6.89031C4.89679 7.64174 3.08305 7.57312 1.61719 6.70867L1 6.34441L2.0293 4.65886L2.64648 5.02312C3.52595 5.54161 4.61397 5.58233 5.53125 5.13152L6.77832 4.51921C8.18596 3.82742 9.84334 3.82742 11.251 4.51921L12.6729 5.21746C13.5174 5.63254 14.5119 5.63254 15.3564 5.21746L16.7783 4.51921Z" fill="#141414"/>
</svg>
