<svg width="24" height="24" viewBox="0 0 24 24" fill="none" xmlns="http://www.w3.org/2000/svg">
<path d="M10.162 2.25078C10.8547 0.634771 13.145 0.63489 13.8378 2.25078L16.2109 7.78794L21.749 10.162C23.3652 10.8547 23.3652 13.1451 21.749 13.8378L16.2109 16.2109L13.8378 21.749C13.1451 23.3652 10.8547 23.3652 10.162 21.749L7.78794 16.2109L2.25078 13.8378C0.63489 13.145 0.634771 10.8547 2.25078 10.162L7.78794 7.78794L10.162 2.25078ZM9.46862 8.94421L9.3114 9.3114L8.94421 9.46862L3.03888 11.9999L8.94421 14.5312L9.3114 14.6884L9.46862 15.0556L11.9999 20.9609L14.5312 15.0556L14.6884 14.6884L15.0556 14.5312L20.9609 11.9999L15.0556 9.46862L14.6884 9.3114L14.5312 8.94421L11.9999 3.03888L9.46862 8.94421Z" fill="#141414"/>
</svg>
