<svg width="24" height="24" viewBox="0 0 24 24" fill="none" xmlns="http://www.w3.org/2000/svg">
<path d="M17 12.252C18.4991 12.252 19.7139 13.4677 19.7139 14.9668V15.5H20C20.5523 15.5 21 15.9477 21 16.5V20C21 20.5523 20.5523 21 20 21H14C13.4477 21 13 20.5523 13 20V16.5C13 15.9477 13.4477 15.5 14 15.5H14.2861V14.9668C14.2861 13.4677 15.5009 12.252 17 12.252ZM15 19H19V17.5H15V19ZM19 4C21.2091 4 23 5.79086 23 8V12H21V8C21 6.89543 20.1046 6 19 6H5C3.89543 6 3 6.89543 3 8V12C3 13.1046 3.89543 14 5 14H11V16H5C2.79086 16 1 14.2091 1 12V8C1 5.79086 2.79086 4 5 4H19ZM17 14.252C16.6055 14.252 16.2861 14.5723 16.2861 14.9668V15.5H17.7139V14.9668C17.7139 14.5723 17.3945 14.252 17 14.252ZM8 11H6V9H8V11ZM13 11H11V9H13V11ZM18 11H16V9H18V11Z" fill="#141414"/>
</svg>
