<svg width="24" height="24" viewBox="0 0 24 24" fill="none" xmlns="http://www.w3.org/2000/svg">
<path d="M3.51447 3.51447C5.35851 1.67043 7.9957 1.09248 10.6561 1.51251C12.2337 1.76165 13.8468 2.36443 15.3748 3.2879C15.3793 3.29055 15.384 3.293 15.3885 3.29572C15.3996 3.30244 15.4106 3.30947 15.4217 3.31622C15.8807 3.59592 16.3314 3.90489 16.7713 4.24201C16.8272 4.28481 16.8837 4.32718 16.9393 4.37091C17.0275 4.44046 17.1147 4.51196 17.202 4.5838C17.248 4.62161 17.2939 4.65961 17.3397 4.69806C17.4168 4.76302 17.4938 4.82856 17.5701 4.89533C17.6644 4.9777 17.7574 5.06211 17.8504 5.14728C17.885 5.17901 17.9205 5.2099 17.9549 5.24201C18.0612 5.34114 18.1659 5.44291 18.2703 5.54572C18.3011 5.57604 18.3334 5.60492 18.3641 5.63556C19.3619 6.63335 20.1951 7.72435 20.8524 8.85822C20.9464 9.02049 21.037 9.18356 21.1238 9.34747C21.4705 10.0021 21.759 10.6685 21.9871 11.3377C22.1011 11.6721 22.2005 12.007 22.284 12.3416C22.3258 12.5091 22.3632 12.6765 22.3973 12.8436C22.4067 12.8896 22.4129 12.9362 22.4217 12.9822C22.4264 13.007 22.4308 13.0317 22.4354 13.0565C22.4531 13.1525 22.473 13.2478 22.4881 13.3436C22.4986 13.4098 22.5053 13.4766 22.5145 13.5428C22.5169 13.5604 22.5189 13.578 22.5213 13.5955C22.5424 13.7527 22.56 13.9095 22.574 14.0662C22.5765 14.0933 22.5787 14.1203 22.5809 14.1473C22.5926 14.2915 22.6016 14.4354 22.6072 14.5789C22.6091 14.6268 22.6109 14.6747 22.6121 14.7225C22.6139 14.7919 22.6148 14.8612 22.6151 14.9305C22.6155 15.0337 22.6149 15.1365 22.6121 15.2391C22.6104 15.3004 22.6072 15.3616 22.6043 15.4227C22.5988 15.5403 22.5928 15.6576 22.5828 15.7742C22.58 15.8075 22.5763 15.8407 22.5731 15.8738C22.5616 15.993 22.5472 16.1114 22.5311 16.2293C22.5263 16.2639 22.5216 16.2984 22.5164 16.3328C22.4744 16.6142 22.4181 16.8914 22.3485 17.1639C22.3399 17.1972 22.331 17.2303 22.3221 17.2635C22.2867 17.3949 22.2489 17.5252 22.2069 17.6541C22.2028 17.6665 22.1983 17.6788 22.1942 17.6912C22.0347 18.1718 21.829 18.6338 21.574 19.0711C21.5469 19.1176 21.5193 19.1638 21.491 19.2098C21.4761 19.2341 21.4604 19.2579 21.4451 19.282C21.4164 19.3276 21.3871 19.3728 21.3572 19.4178C21.3435 19.4385 21.3302 19.4597 21.3162 19.4803C21.2825 19.5299 21.2478 19.5789 21.2127 19.6277C21.1941 19.6536 21.1751 19.6792 21.1561 19.7049C21.1267 19.7446 21.0965 19.7839 21.0662 19.8231C21.0444 19.8513 21.0231 19.8801 21.0008 19.908C20.9726 19.9434 20.9429 19.9776 20.9139 20.0125C20.8919 20.039 20.8709 20.0664 20.8485 20.0926C20.8376 20.1052 20.8271 20.1181 20.8162 20.1307C20.7108 20.2519 20.6004 20.37 20.4852 20.4852C20.37 20.6004 20.2519 20.7108 20.1307 20.8162C20.1221 20.8237 20.1129 20.8303 20.1043 20.8377C20.0741 20.8637 20.043 20.8885 20.0125 20.9139C19.9842 20.9374 19.9562 20.9612 19.9276 20.9842C19.8859 21.0177 19.8438 21.0504 19.8016 21.0828C19.7754 21.1029 19.7489 21.1227 19.7225 21.1424C19.6882 21.1679 19.6536 21.1928 19.619 21.2176C19.5809 21.2448 19.5432 21.2722 19.5047 21.2986C19.4759 21.3184 19.4469 21.3379 19.4178 21.3572C19.3728 21.3871 19.3276 21.4164 19.282 21.4451C19.2589 21.4597 19.236 21.4747 19.2127 21.4891C19.1635 21.5193 19.1141 21.549 19.0643 21.5779C19.0426 21.5906 19.0206 21.6027 18.9988 21.6151C18.9529 21.6411 18.9066 21.6662 18.8602 21.6912C18.631 21.8145 18.396 21.9254 18.1551 22.0233C18.1408 22.0291 18.1265 22.0351 18.1121 22.0408C17.9749 22.0956 17.8357 22.1455 17.6951 22.1922C17.6817 22.1967 17.6685 22.2015 17.6551 22.2059C17.5236 22.2488 17.3908 22.2881 17.2567 22.324C17.2287 22.3316 17.2008 22.3393 17.1727 22.3465C17.0471 22.3787 16.9204 22.4081 16.7928 22.4344C16.7526 22.4427 16.7121 22.4501 16.6717 22.4578C16.5823 22.4749 16.4924 22.4905 16.4022 22.5047C16.3195 22.5178 16.2365 22.5291 16.1531 22.5399C16.0785 22.5494 16.0037 22.5585 15.9285 22.5662C15.8555 22.5738 15.7823 22.581 15.7088 22.5867C15.6138 22.5941 15.5184 22.5998 15.4227 22.6043C15.3622 22.6072 15.3017 22.6104 15.241 22.6121C15.1382 22.615 15.035 22.6155 14.9315 22.6151C14.8483 22.6147 14.765 22.6136 14.6815 22.6111C14.674 22.6109 14.6665 22.6104 14.659 22.6102C14.5525 22.6068 14.4456 22.6052 14.3387 22.5985C14.1737 22.5881 14.0083 22.5729 13.8426 22.5545C13.7592 22.5453 13.6761 22.5325 13.5926 22.5213C13.5766 22.5192 13.5607 22.5167 13.5447 22.5145C13.4779 22.5052 13.4104 22.4987 13.3436 22.4881C11.8465 22.2517 10.3163 21.6984 8.85822 20.8533C8.53426 20.6656 8.21397 20.4632 7.89826 20.2469C7.1089 19.7062 6.34929 19.0768 5.63654 18.3641C5.50192 18.2295 5.37042 18.0927 5.24201 17.9549C5.2099 17.9205 5.17901 17.885 5.14728 17.8504C5.06026 17.7554 4.97356 17.6607 4.88947 17.5643C4.83496 17.5019 4.78165 17.4387 4.72833 17.3758C4.67358 17.311 4.61968 17.2458 4.56623 17.1805C2.90904 15.1597 1.86254 12.8726 1.51251 10.6561C1.09248 7.9957 1.67043 5.35851 3.51447 3.51447ZM20.5379 13.8485C18.9637 14.2181 17.4709 15.0151 16.243 16.243C15.0155 17.4705 14.2201 18.9631 13.8504 20.5369C15.1712 20.7175 16.3917 20.5848 17.4246 20.159C17.5398 20.1114 17.6521 20.0596 17.7625 20.0047C17.9473 19.913 18.1253 19.8119 18.2957 19.7C18.4803 19.5786 18.6566 19.4464 18.8231 19.3016C18.9081 19.2276 18.9911 19.1511 19.0711 19.0711C19.1511 18.9911 19.2276 18.9081 19.3016 18.8231C19.4447 18.6586 19.5759 18.4847 19.6961 18.3026C19.9234 17.9576 20.1088 17.582 20.2527 17.1805C20.2629 17.1522 20.2733 17.124 20.283 17.0955C20.3864 16.7921 20.4658 16.4745 20.5213 16.1443C20.5834 15.7754 20.615 15.3913 20.616 14.994C20.6166 14.7652 20.6067 14.5323 20.5867 14.2957C20.5743 14.148 20.5584 13.9989 20.5379 13.8485ZM14.5613 5.13556C12.1114 5.0163 9.62651 5.88877 7.75763 7.75763C5.88932 9.62594 5.01774 12.1099 5.13654 14.5594C5.43584 15.0335 5.77271 15.4996 6.14533 15.952C6.42647 16.2922 6.72737 16.6268 7.0506 16.95C8.43547 18.3348 9.99807 19.3346 11.5545 19.9373C11.6716 19.9827 11.7891 20.0244 11.9061 20.0652C12.3596 18.1466 13.3328 16.3251 14.8289 14.8289C16.325 13.3328 18.1465 12.3588 20.0652 11.9051C20.0245 11.7884 19.9826 11.6713 19.9373 11.5545C19.3346 9.99807 18.3348 8.43547 16.95 7.0506C16.5976 6.6982 16.2325 6.37151 15.8602 6.06915C15.7732 5.99863 15.6854 5.92994 15.5975 5.86212C15.4437 5.74333 15.2888 5.62874 15.1326 5.51837C14.9436 5.38493 14.7534 5.25685 14.5613 5.13556ZM14.1209 12.7068L12.7069 14.1219L8.46466 9.87872L9.87873 8.46466L14.1209 12.7068ZM10.3436 3.4881C8.1417 3.14059 6.20854 3.64852 4.92853 4.92853C3.64852 6.20854 3.14059 8.1417 3.4881 10.3436C3.51799 10.5329 3.55597 10.7231 3.59845 10.9149C4.10593 9.24214 5.02081 7.66633 6.34357 6.34357C7.66587 5.02127 9.24074 4.10527 10.9129 3.59747C10.7219 3.55519 10.5322 3.51788 10.3436 3.4881Z" fill="#141414"/>
</svg>
