<svg width="24" height="24" viewBox="0 0 24 24" fill="none" xmlns="http://www.w3.org/2000/svg">
<path d="M10 4.09266C10 1.87215 12.6789 0.754013 14.2578 2.31532L22.2539 10.2226C23.2435 11.2011 23.2435 12.7988 22.2539 13.7773L14.2578 21.6845C12.6789 23.2457 10.0001 22.1276 10 19.9072V16.9999H7.63868C5.70409 16.9999 3.89842 17.9727 2.83496 19.5888C2.59209 19.9577 2.136 20.1237 1.71289 19.997C1.28989 19.8702 1.00005 19.4806 1 19.039V14.9999C1 10.5817 4.58176 6.99994 9.00001 6.9999H10V4.09266ZM12.8516 3.7372C12.5358 3.42495 12 3.64857 12 4.09266V7.9999C12 8.55214 11.5523 8.99991 11 8.99991H9.00001C5.68633 8.99995 3 11.6862 3 14.9999V16.5449C4.32137 15.5572 5.94232 14.9999 7.63868 14.9999H11C11.5523 14.9999 12 15.4476 12 15.9999V19.9072C12.0001 20.3512 12.5358 20.5748 12.8516 20.2626L20.8477 12.3554C21.0456 12.1597 21.0455 11.8402 20.8477 11.6444L12.8516 3.7372Z" fill="#141414"/>
</svg>
