<svg width="24" height="24" viewBox="0 0 24 24" fill="none" xmlns="http://www.w3.org/2000/svg">
<path d="M7.30283 11.9347L4.98642 14.2511C3.67132 15.5662 3.67132 17.6987 4.98642 19.0138C6.30154 20.3287 8.43406 20.3288 9.74912 19.0138L12.0645 16.6974L13.4796 18.1114L11.1632 20.4278C9.06708 22.5239 5.66852 22.5238 3.57236 20.4278C1.47621 18.3317 1.47621 14.9332 3.57236 12.837L5.88876 10.5206L7.30283 11.9347Z" fill="#141414"/>
<path d="M16.1817 9.23251L9.61826 15.795L8.20419 14.381L14.7677 7.81845L16.1817 9.23251Z" fill="#141414"/>
<path d="M12.837 3.57236C14.9332 1.47621 18.3317 1.47621 20.4278 3.57236C22.5238 5.66852 22.5239 9.06708 20.4278 11.1632L18.1114 13.4796L16.6974 12.0645L19.0138 9.74912C20.3288 8.43406 20.3287 6.30154 19.0138 4.98642C17.6987 3.67132 15.5662 3.67132 14.2511 4.98642L11.9347 7.30283L10.5206 5.88876L12.837 3.57236Z" fill="#141414"/>
</svg>
