<svg width="24" height="24" viewBox="0 0 24 24" fill="none" xmlns="http://www.w3.org/2000/svg">
<path fill-rule="evenodd" clip-rule="evenodd" d="M19.0137 4.98636C17.6986 3.67126 15.5664 3.67126 14.2513 4.98636L11.9351 7.3026L10.5209 5.88838L12.8371 3.57215C14.9332 1.476 18.3318 1.476 20.4279 3.57215C22.5241 5.6683 22.5241 9.06684 20.4279 11.163L18.1117 13.4792L16.6975 12.065L19.0137 9.74877C20.3288 8.43367 20.3288 6.30147 19.0137 4.98636ZM16.1815 9.23279L9.61883 15.7955L8.20462 14.3812L14.7673 7.81858L16.1815 9.23279ZM7.3026 11.9351L4.98636 14.2513C3.67126 15.5664 3.67126 17.6986 4.98636 19.0137C6.30147 20.3288 8.43367 20.3288 9.74877 19.0137L12.065 16.6975L13.4792 18.1117L11.163 20.4279C9.06683 22.5241 5.6683 22.5241 3.57215 20.4279C1.476 18.3318 1.476 14.9332 3.57215 12.8371L5.88838 10.5209L7.3026 11.9351Z" fill="#141414"/>
<path fill-rule="evenodd" clip-rule="evenodd" d="M9 1V4H7V1H9ZM3.20711 1.79289L5.70711 4.29289L4.29289 5.70711L1.79289 3.20711L3.20711 1.79289ZM1 7H4V9H1V7Z" fill="#141414"/>
<path fill-rule="evenodd" clip-rule="evenodd" d="M15 23V20H17V23H15ZM20.7929 22.2071L18.2929 19.7071L19.7071 18.2929L22.2071 20.7929L20.7929 22.2071ZM23 17H20V15H23V17Z" fill="#141414"/>
</svg>
