<svg width="24" height="24" viewBox="0 0 24 24" fill="none" xmlns="http://www.w3.org/2000/svg">
<path d="M17 2C19.7614 2 22 4.23858 22 7C22 8.63674 21.2116 10.0855 20 10.9961V14C20 16.0502 18.7657 17.8114 17 18.583V22C17 22.5523 16.5523 23 16 23H6C5.44772 23 5 22.5523 5 22V18.582C3.30879 17.8427 2.10498 16.1963 2.00684 14.2568L2 14V7C2 4.23858 4.23858 2 7 2H17ZM7 21H15V19H7V21ZM7 4C5.34315 4 4 5.34315 4 7H8C9.30585 7 10.4141 7.83532 10.8262 9H16V11H11C11 12.6569 9.65685 14 8 14H6V12H8C8.55228 12 9 11.5523 9 11V10C9 9.44772 8.55228 9 8 9H4V14L4.00391 14.1543C4.08421 15.7394 5.39489 17 7 17H15C16.6569 17 18 15.6569 18 14V10.4629C18 10.1061 18.1902 9.77645 18.499 9.59766C19.3987 9.07692 20 8.10808 20 7C20 5.34315 18.6569 4 17 4H7Z" fill="#141414"/>
</svg>
