<svg width="24" height="24" viewBox="0 0 24 24" fill="none" xmlns="http://www.w3.org/2000/svg">
<path d="M12.0098 21C12.5621 21 13.0098 21.4477 13.0098 22C13.0098 22.5523 12.5621 23 12.0098 23H12C11.4477 23 11 22.5523 11 22C11 21.4477 11.4477 21 12 21H12.0098ZM8.00977 19C8.56205 19 9.00977 19.4477 9.00977 20C9.00977 20.5523 8.56205 21 8.00977 21H8C7.44772 21 7 20.5523 7 20C7 19.4477 7.44772 19 8 19H8.00977ZM16.0098 19C16.5621 19 17.0098 19.4477 17.0098 20C17.0098 20.5523 16.5621 21 16.0098 21H16C15.4477 21 15 20.5523 15 20C15 19.4477 15.4477 19 16 19H16.0098ZM12.0098 17C12.5621 17 13.0098 17.4477 13.0098 18C13.0098 18.5523 12.5621 19 12.0098 19H12C11.4477 19 11 18.5523 11 18C11 17.4477 11.4477 17 12 17H12.0098ZM8.00977 15C8.56205 15 9.00977 15.4477 9.00977 16C9.00977 16.5523 8.56205 17 8.00977 17H8C7.44772 17 7 16.5523 7 16C7 15.4477 7.44772 15 8 15H8.00977ZM16.0098 15C16.5621 15 17.0098 15.4477 17.0098 16C17.0098 16.5523 16.5621 17 16.0098 17H16C15.4477 17 15 16.5523 15 16C15 15.4477 15.4477 15 16 15H16.0098ZM12 1C14.7349 1 17.0787 2.78346 17.7842 5.26074C20.7004 5.63144 23 8.04048 23 11.0234C23 13.539 21.3426 15.8511 19 16.6953V14.4893C20.1885 13.7757 21 12.4459 21 11.0234C21 8.95414 19.2465 7.21195 17.002 7.21094H16.9648C16.461 7.21268 16.0346 6.83947 15.9697 6.33984C15.7298 4.48707 14.0704 3 12 3C9.92959 3 8.27023 4.48707 8.03027 6.33984C7.9654 6.83947 7.53897 7.21268 7.03516 7.21094H6.99805C4.75351 7.21195 3 8.95414 3 11.0234C3 12.4459 3.81146 13.7757 5 14.4893V16.6953C2.65742 15.8511 1 13.539 1 11.0234C1 8.04048 3.29958 5.63144 6.21582 5.26074C6.92126 2.78346 9.26514 1 12 1Z" fill="#141414"/>
</svg>
