<svg width="24" height="24" viewBox="0 0 24 24" fill="none" xmlns="http://www.w3.org/2000/svg">
<path d="M7 2C8.65685 2 10 3.34315 10 5V7.17383C10.3131 7.06306 10.649 7 11 7H13C14.6569 7 16 8.34315 16 10V12.1738C16.3131 12.0631 16.649 12 17 12H19C20.6569 12 22 13.3431 22 15V19C22 20.6569 20.6569 22 19 22H5C3.34315 22 2 20.6569 2 19V5C2 3.34315 3.34315 2 5 2H7ZM5 4C4.44772 4 4 4.44772 4 5V19C4 19.5523 4.44772 20 5 20H8V5C8 4.44772 7.55228 4 7 4H5ZM11 9C10.4477 9 10 9.44772 10 10V20H14V10C14 9.44772 13.5523 9 13 9H11ZM17 14C16.4477 14 16 14.4477 16 15V20H19C19.5523 20 20 19.5523 20 19V15C20 14.4477 19.5523 14 19 14H17Z" fill="#141414"/>
</svg>
