<svg width="24" height="24" viewBox="0 0 24 24" fill="none" xmlns="http://www.w3.org/2000/svg">
<path d="M12 2C13.1046 2 14 2.89543 14 4V20C14 21.1046 13.1046 22 12 22H10.9609C10.0497 21.9999 9.18742 21.5856 8.61816 20.874L5.51855 17H4C2.34315 17 1 15.6569 1 14V10C1 8.34315 2.34315 7 4 7H5.51855L8.61816 3.12598C9.18742 2.41441 10.0497 2.00009 10.9609 2H12ZM10.9609 4C10.6574 4.00009 10.3704 4.13806 10.1807 4.375L6.78125 8.625C6.59148 8.86222 6.30378 9 6 9H4C3.44772 9 3 9.44772 3 10V14C3 14.5523 3.44772 15 4 15H6C6.30378 15 6.59148 15.1378 6.78125 15.375L10.1807 19.625C10.3704 19.8619 10.6574 19.9999 10.9609 20H12V4H10.9609ZM19.5527 5.42285C21.6353 6.86715 23 9.27366 23 12C23 14.7261 21.6351 17.1318 19.5527 18.5762L18.4141 16.9316C19.9759 15.8484 21 14.0446 21 12C21 9.95515 19.9761 8.15059 18.4141 7.06738L19.5527 5.42285ZM17.2754 8.71191C18.3169 9.43403 19 10.6366 19 12C19 13.3632 18.3167 14.565 17.2754 15.2871L16.1377 13.6426C16.6581 13.2815 17 12.6814 17 12C17 11.3184 16.6583 10.7175 16.1377 10.3564L17.2754 8.71191Z" fill="#141414"/>
</svg>
