<svg width="24" height="24" viewBox="0 0 24 24" fill="none" xmlns="http://www.w3.org/2000/svg">
<path fill-rule="evenodd" clip-rule="evenodd" d="M8.42432 2.55436C9.40911 2.02011 10.6355 1.82395 11.7944 2.18131C13.487 2.70329 14.5099 3.82685 15.0112 5.21842C15.3962 6.2873 15.4656 7.48439 15.3687 8.65494C16.5564 9.15017 17.3907 10.1987 17.6714 11.446C19.903 10.7581 22.3381 11.9357 22.8677 14.2897C23.5261 17.2175 21.6764 19.3637 19.4272 20.5749C17.1767 21.7868 14.2251 22.2693 11.856 21.8532C11.6335 21.8141 11.4307 21.7009 11.2808 21.5319C9.93817 20.0174 8.97904 17.8195 8.70557 15.6589C7.03778 15.4101 5.15485 14.8084 3.66944 13.7975C1.89523 12.5901 0.553517 10.6754 1.13721 8.08073C1.66687 5.72671 4.10186 4.54983 6.3335 5.23795C6.59464 4.07697 7.38585 3.11784 8.42432 2.55436ZM15.7105 11.8454C15.4612 10.7375 14.3525 10.074 13.1333 10.4499C12.1783 10.7444 11.5597 11.2999 11.1714 12.0046C10.7708 12.7317 10.5901 13.6694 10.6323 14.7204C10.7069 16.5759 11.4684 18.5762 12.5513 19.9362C14.4092 20.1694 16.7215 19.7605 18.479 18.8141C20.35 17.8066 21.2918 16.3965 20.9165 14.7282C20.6672 13.6203 19.5576 12.9576 18.3384 13.3337L17.2271 13.6764C16.6701 13.8481 16.0845 13.5088 15.9565 12.9401L15.7105 11.8454ZM11.2056 4.09244C10.625 3.91339 9.95312 4.00041 9.37842 4.31217C8.80296 4.62436 8.41254 5.11179 8.29444 5.63639L8.04737 6.73112C7.91947 7.29977 7.33482 7.63903 6.77784 7.46744L5.66553 7.12467C4.44636 6.74883 3.3376 7.41235 3.08838 8.52018C2.74537 10.0456 3.43897 11.2217 4.79444 12.1442C5.88769 12.8882 7.32114 13.3851 8.6626 13.6256C8.74728 12.7174 8.98354 11.831 9.41944 11.0397C10.0545 9.88705 11.0863 8.98816 12.5435 8.53873C12.8239 8.45224 13.1061 8.39617 13.3853 8.36784C13.4514 7.43056 13.3773 6.58425 13.1294 5.89616C12.827 5.05682 12.2586 4.41728 11.2056 4.09244Z" fill="#141414"/>
</svg>
