<svg width="24" height="24" viewBox="0 0 24 24" fill="none" xmlns="http://www.w3.org/2000/svg">
<path d="M15.457 8.95703L13.4141 11L15.457 13.043L14.043 14.457L12 12.4141L9.95703 14.457L8.54297 13.043L10.5859 11L8.54297 8.95703L9.95703 7.54297L12 9.58594L14.043 7.54297L15.457 8.95703Z" fill="#141414"/>
<path fill-rule="evenodd" clip-rule="evenodd" d="M17 1C19.2091 1 21 2.79086 21 5V20.6602C21 22.5316 19.0193 23.7396 17.3555 22.8828L12 20.125L6.64453 22.8828C4.98072 23.7396 3 22.5316 3 20.6602V5C3 2.79086 4.79086 1 7 1H17ZM7 3C5.89543 3 5 3.89543 5 5V20.6602C5 21.0344 5.39579 21.2757 5.72852 21.1045L11.084 18.3467C11.6586 18.0508 12.3414 18.0508 12.916 18.3467L18.2715 21.1045C18.6042 21.2757 19 21.0344 19 20.6602V5C19 3.89543 18.1046 3 17 3H7Z" fill="#141414"/>
</svg>
