<svg width="24" height="24" viewBox="0 0 24 24" fill="none" xmlns="http://www.w3.org/2000/svg">
<path d="M22.3351 17.2179C23.138 18.5509 22.1783 20.2501 20.6222 20.2501H14.0304L15.2921 21.8907L14.5001 22.5001L13.7071 23.1095L11.2071 19.8595C10.9309 19.5002 10.931 19.0001 11.2071 18.6407L13.7071 15.3907L14.5001 16.0001L15.2921 16.6095L14.0304 18.2501H20.6222L18.9376 15.4532L20.6505 14.422L22.3351 17.2179ZM6.93563 9.63392C7.24079 9.67451 7.51362 9.85426 7.67001 10.1251L9.61825 13.5001L7.88583 14.5001L6.78426 12.5929L3.37703 18.2501H6.80379V20.2501H3.37703C1.82114 20.2498 0.861301 18.5507 1.66414 17.2179L5.03426 11.6251H3.00008V9.62513H6.80379L6.93563 9.63392ZM10.2862 2.90542C11.0637 1.61512 12.9354 1.61525 13.713 2.90542L17.1124 8.54798L18.1046 6.55482L19.8956 7.44545L18.0909 11.0704C17.9219 11.41 17.5756 11.625 17.1964 11.6251H13.0001V9.62513H15.4259L12.0001 3.93764L10.2579 6.82826L8.54501 5.79701L10.2862 2.90542Z" fill="#141414"/>
</svg>
