<svg width="24" height="24" viewBox="0 0 24 24" fill="none" xmlns="http://www.w3.org/2000/svg">
<path d="M6.16699 3C9.02013 3.00018 11.333 5.31361 11.333 8.16699V18.333C11.333 19.8057 10.1395 20.9998 8.66699 21C7.19432 21 6 19.8058 6 18.333V13.3311C3.22394 13.2431 1.00017 10.9646 1 8.16699C1 5.31351 3.31371 3 6.16699 3ZM17.833 3C20.6863 3 23 5.31351 23 8.16699C22.9998 10.9646 20.7761 13.2431 18 13.3311V18.333C18 19.8058 16.8057 21 15.333 21C13.8605 20.9998 12.667 19.8057 12.667 18.333V8.16699C12.667 5.31361 14.9799 3.00018 17.833 3ZM6.16699 5C4.41823 5 3 6.41812 3 8.16699C3.00018 9.91571 4.41834 11.333 6.16699 11.333C6.38485 11.333 6.59667 11.3109 6.80078 11.2695L8 11.0264V18.333C8 18.7012 8.29885 19 8.66699 19C9.03499 18.9998 9.33301 18.7011 9.33301 18.333V8.16699C9.33301 6.41823 7.91561 5.00018 6.16699 5ZM17.833 5C16.0844 5.00018 14.667 6.41823 14.667 8.16699V18.333C14.667 18.7011 14.965 18.9998 15.333 19C15.7012 19 16 18.7012 16 18.333V11.0264L17.1992 11.2695C17.4033 11.3109 17.6152 11.333 17.833 11.333C19.5817 11.333 20.9998 9.91571 21 8.16699C21 6.41812 19.5818 5 17.833 5Z" fill="#141414"/>
</svg>
