<svg width="24" height="24" viewBox="0 0 24 24" fill="none" xmlns="http://www.w3.org/2000/svg">
<path d="M15 14C18.866 14 22 17.134 22 21C22 22.1046 21.1046 23 20 23H4C2.89543 23 2 22.1046 2 21C2 17.134 5.13401 14 9 14H15ZM9 16C6.94968 16 5.18757 17.2341 4.41602 19C4.14842 19.6125 4 20.2889 4 21H20C20 20.2889 19.8516 19.6125 19.584 19C18.8124 17.2341 17.0503 16 15 16H9ZM12 2C14.7614 2 17 4.23858 17 7C17 9.76142 14.7614 12 12 12C9.23858 12 7 9.76142 7 7C7 4.23858 9.23858 2 12 2ZM12 4C10.3431 4 9 5.34315 9 7C9 8.65685 10.3431 10 12 10C13.6569 10 15 8.65685 15 7C15 5.34315 13.6569 4 12 4Z" fill="#141414"/>
</svg>
