<svg width="24" height="24" viewBox="0 0 24 24" fill="none" xmlns="http://www.w3.org/2000/svg">
<path d="M18 2C20.2091 2 22 3.79086 22 6V18C22 20.2091 20.2091 22 18 22H6C3.79086 22 2 20.2091 2 18V6C2 3.79086 3.79086 2 6 2H18ZM6 4C4.89543 4 4 4.89543 4 6V18C4 19.1046 4.89543 20 6 20H18C19.1046 20 20 19.1046 20 18V6C20 4.89543 19.1046 4 18 4H6ZM15.5352 7.46484C16.0873 7.46484 16.5349 7.91181 16.5352 8.46387V14.8281H14.5352V10.8789L9.17188 16.2422L7.75781 14.8281L13.1211 9.46387H9.17188V7.46484H15.5352Z" fill="#141414"/>
</svg>
