<svg width="24" height="24" viewBox="0 0 24 24" fill="none" xmlns="http://www.w3.org/2000/svg">
<path d="M6.86719 1C7.63997 1.00001 8.34389 1.44524 8.67481 2.14355L11.0039 7.06348C11.3303 7.02292 11.6626 7.00001 12 7C12.3367 7 12.6684 7.02213 12.9941 7.0625L15.3252 2.14355C15.656 1.44527 16.3601 1.00015 17.1328 1H20.3223C21.837 1 22.8023 2.61862 22.082 3.95117L18.5723 10.4414C19.4712 11.735 20 13.3053 20 15C20 19.4183 16.4183 23 12 23C7.58179 22.9999 4 19.4182 4 15C4 13.3061 4.52752 11.7357 5.42579 10.4424L1.91797 3.95117C1.19787 2.61874 2.16321 1.00024 3.67774 1H6.86719ZM12 9C8.68636 9.00007 6 11.6863 6 15C6 18.3137 8.68636 20.9999 12 21C15.3137 21 18 18.3137 18 15C18 11.6863 15.3137 9 12 9ZM11.791 12.2949C12.4216 11.6643 13.4996 12.1106 13.5 13.002V18H11.5V15.4141L10.207 16.707L8.79297 15.293L11.791 12.2949ZM6.85352 8.87598C7.50009 8.33203 8.23403 7.88917 9.03125 7.57031L6.86719 3H3.67774L6.85352 8.87598ZM14.9668 7.57031C15.7645 7.88911 16.4986 8.33188 17.1455 8.87598L20.3223 3H17.1328L14.9668 7.57031Z" fill="#141414"/>
</svg>
