<svg width="24" height="24" viewBox="0 0 24 24" fill="none" xmlns="http://www.w3.org/2000/svg">
<path d="M12 0.999878C13.0464 0.999878 14.0604 1.1468 15.0215 1.42078C16.8526 0.60631 19.0592 0.975129 20.5498 2.52821C21.7704 3.80018 22.221 5.56507 21.9004 7.20011C22.6052 8.65137 23 10.2807 23 12C23 18.0751 18.0751 23 12 23C10.2808 23 8.65114 22.6048 7.19922 21.8994C3.53181 20.1178 1 16.3555 1 12C1.00001 11.052 1.12026 10.1306 1.34668 9.25091C2.56774 4.50672 6.87307 0.999878 12 0.999878ZM12 2.99989C8.2195 2.99989 4.98172 5.33181 3.64941 8.63665L7.10645 9.00579C7.46117 9.04377 7.76912 9.26768 7.91406 9.59368L9.80859 13.8564L11.5996 15.2002C12.0255 15.5196 12.1272 16.1169 11.8301 16.5586L9.15039 20.54C10.045 20.8384 11.0031 21 12 21C16.9706 21 21 16.9705 21 12C21 11.188 20.8925 10.4016 20.6914 9.65423C20.6561 9.69413 20.6197 9.73339 20.583 9.7724L17.7822 13.29C17.5925 13.5282 17.3045 13.667 17 13.667C16.6955 13.667 16.4075 13.5282 16.2178 13.29L13.417 9.7724C11.6762 7.92402 11.5396 5.06262 13.0078 3.05556C12.6772 3.01878 12.3408 2.99989 12 2.99989ZM3.10938 10.5908C3.03731 11.0494 3.00001 11.5201 3 12C3 15.2528 4.72534 18.1047 7.31445 19.6865L9.63965 16.2304L8.40039 15.2998C8.2639 15.1974 8.15523 15.0621 8.08594 14.9062L6.32031 10.9335L3.10938 10.5908ZM19.1064 3.91298C17.938 2.6959 16.062 2.6959 14.8936 3.91298C13.7028 5.15384 13.7028 7.1829 14.8936 8.42375C14.9147 8.44579 14.9351 8.46921 14.9541 8.49309L17 11.0615L19.0459 8.49309C19.0649 8.46921 19.0853 8.44579 19.1064 8.42375C20.2972 7.1829 20.2972 5.15384 19.1064 3.91298ZM17 4.66689C17.7363 4.66689 18.3329 5.26363 18.333 5.99991C18.333 6.7363 17.7364 7.3339 17 7.3339C16.2637 7.33386 15.667 6.73627 15.667 5.99991C15.6671 5.26366 16.2637 4.66694 17 4.66689Z" fill="#141414"/>
</svg>
