<svg width="24" height="24" viewBox="0 0 24 24" fill="none" xmlns="http://www.w3.org/2000/svg">
<path d="M12 8.69922C13.1732 7.69895 14.9156 7.77228 16.0049 8.91992C16.7031 9.65563 17.0137 10.526 17 11.417C16.9866 12.2811 16.6712 13.1069 16.2275 13.8203C15.3507 15.2301 13.8295 16.4333 12.3223 16.9463C12.1134 17.0173 11.8866 17.0173 11.6777 16.9463C10.1705 16.4333 8.64933 15.2301 7.77246 13.8203C7.32883 13.1069 7.01343 12.2811 7 11.417C6.98625 10.526 7.29691 9.65565 7.99512 8.91992C9.08445 7.77227 10.8268 7.69891 12 8.69922ZM14.5537 10.2969C14.1783 9.90143 13.5922 9.90136 13.2168 10.2969L12 11.5791L10.7832 10.2969C10.4078 9.90136 9.82174 9.90143 9.44629 10.2969C9.11252 10.6486 8.99431 11.0115 9 11.3857C9.00628 11.7871 9.15796 12.2607 9.4707 12.7637C10.0431 13.6839 11.0329 14.507 12 14.9268C12.9671 14.5069 13.957 13.6839 14.5293 12.7637C14.842 12.2607 14.9937 11.7871 15 11.3857C15.0057 11.0115 14.8874 10.6485 14.5537 10.2969Z" fill="#141414"/>
<path d="M21 12C21 7.35329 17.0195 3.5 12 3.5C6.98048 3.5 3 7.35329 3 12C3 13.6318 3.48629 15.1561 4.33301 16.4531C4.47751 16.6745 4.52829 16.9443 4.47461 17.2031L3.80566 20.4297L7.2793 19.5322L7.36426 19.5137C7.56555 19.48 7.77342 19.5084 7.95898 19.5967C9.17179 20.1735 10.5435 20.5 12 20.5C17.0195 20.5 21 16.6467 21 12ZM23 12C23 17.8467 18.0262 22.5 12 22.5C10.3748 22.5 8.82885 22.1623 7.43652 21.5557L3.52832 22.5674C2.45279 22.8454 1.45829 21.8983 1.68359 20.8105L2.43457 17.1875C1.52303 15.6588 1 13.8877 1 12C1 6.1533 5.97382 1.5 12 1.5C18.0262 1.5 23 6.1533 23 12Z" fill="#141414"/>
</svg>
