<svg width="24" height="24" viewBox="0 0 24 24" fill="none" xmlns="http://www.w3.org/2000/svg">
<path d="M11.9521 2C17.4963 2 22 6.47218 22 12C22 17.5278 17.4963 22 11.9521 22C9.21593 21.9999 6.73254 20.9101 4.9209 19.1436C4.00696 18.2523 3.26286 17.1874 2.74219 16.002L4.57324 15.1982C4.98897 16.1446 5.58458 16.9963 6.31738 17.7109C7.76955 19.127 9.75686 19.9999 11.9521 20C16.4017 20 20 16.4133 20 12C20 7.58669 16.4017 4 11.9521 4C9.76178 4.00006 7.77846 4.86881 6.32715 6.2793L4.5 8H7V10H2C1.44772 10 1 9.55228 1 9V3.90039H3V6.83496L4.91113 4.86621L4.9209 4.85645C6.73254 3.08989 9.21593 2.00006 11.9521 2ZM10.4004 15H9.2627V10.2041H9.23145L8 11.0654V9.94043L9.33105 9H10.4004V15ZM13.5996 9C14.0968 9 14.5249 9.11673 14.8828 9.35059C15.2427 9.58444 15.5194 9.92407 15.7129 10.3691C15.9063 10.8123 16.0019 11.3498 16 11.9814C16 12.617 15.9034 13.1606 15.71 13.6113C15.5184 14.0619 15.2436 14.406 14.8857 14.6436C14.5278 14.8812 14.0988 15 13.5996 15C13.1006 14.9981 12.6713 14.8782 12.3115 14.6406C11.9537 14.403 11.6778 14.059 11.4844 13.6084C11.2928 13.1577 11.1983 12.6151 11.2002 11.9814C11.2002 11.3497 11.2958 10.8112 11.4873 10.3662C11.6808 9.92119 11.9566 9.58253 12.3145 9.35059C12.6742 9.11685 13.1026 9.00006 13.5996 9ZM13.5996 10.0039C13.2612 10.004 12.9902 10.1692 12.7871 10.499C12.584 10.829 12.4814 11.3233 12.4795 11.9814C12.4795 12.4263 12.5254 12.7978 12.6162 13.0957C12.709 13.3917 12.8396 13.6147 13.0078 13.7637C13.176 13.9107 13.3734 13.9843 13.5996 13.9844C13.9401 13.9844 14.2119 13.8172 14.415 13.4834C14.6182 13.1496 14.7187 12.649 14.7168 11.9814C14.7168 11.5421 14.671 11.1761 14.5781 10.8838C14.4872 10.5916 14.3577 10.3717 14.1895 10.2246C14.0231 10.0775 13.826 10.0039 13.5996 10.0039Z" fill="#141414"/>
</svg>
