<svg width="24" height="24" viewBox="0 0 24 24" fill="none" xmlns="http://www.w3.org/2000/svg">
<path d="M13.0645 11.0661C13.7003 12.5192 13.6547 14.5775 13.1094 16.528C12.5567 18.5046 11.44 20.5614 9.70312 21.9997L8.35449 20.5163C9.70392 19.3989 10.6449 17.7246 11.1211 16.0212C11.6046 14.2916 11.5589 12.7209 11.166 11.8229L13.0645 11.0661ZM16.7256 17.5251C16.3883 19.1337 15.5811 20.8126 14.3857 21.9528L12.9316 20.5632C13.8434 19.6934 14.4514 18.364 14.708 17.1403L16.7256 17.5251ZM7.28809 10.7419C7.92712 7.88973 10.4062 5.9597 13.4033 6.4831C17.4082 7.18281 18.3967 11.0655 17.2393 14.5808L15.2217 14.196C15.8222 11.8231 15.813 8.90035 13.0322 8.41474C11.0876 8.0753 9.70228 9.36063 9.30078 11.153C8.61907 14.1964 9.27346 18.0685 5.8877 19.6833L4.96777 17.9265C7.41147 16.761 6.78805 12.9742 7.28809 10.7419ZM7.44043 3.75067C9.80199 2.28886 12.1742 1.778 14.334 2.08661C16.4912 2.39499 18.3407 3.50787 19.6758 5.12665C22.3417 8.3592 22.9566 13.566 20.2373 18.7536L18.3975 17.8747C20.8224 13.2486 20.151 8.87851 18.0586 6.3415C17.0147 5.07584 15.6173 4.25601 14.0293 4.029C12.4434 3.80239 10.5706 4.1533 8.55957 5.39814L7.44043 3.75067ZM5.83398 7.95771C4.44578 10.606 5.49871 13.8494 3.71191 16.4059L2 15.3151C3.65198 12.9511 2.65669 9.63011 3.99316 7.07978L5.83398 7.95771Z" fill="#141414"/>
</svg>
