<svg width="24" height="24" viewBox="0 0 24 24" fill="none" xmlns="http://www.w3.org/2000/svg">
<path d="M16.0811 8.5C16.4606 8.5001 16.8076 8.71486 16.9766 9.05469L23 21L21.4541 22L19.1875 18H12.9736L10.707 22L8.91602 21.1104L15.1855 9.05469C15.3546 8.7149 15.7015 8.5 16.0811 8.5ZM8.24707 2V4H14V6H11.6699C11.3142 7.86108 10.5266 10.2117 9.1543 12.4053C9.11845 12.4626 9.08258 12.52 9.0459 12.5771C9.41542 12.8217 9.74976 12.964 10.0391 13.0146L9.69434 14.9854C9.03115 14.8693 8.41388 14.5675 7.86426 14.1924C6.32978 16.0354 4.27575 17.6256 1.58984 18.4551L1 16.5449C3.26655 15.845 5.02413 14.4923 6.36133 12.873C6.18719 12.6863 6.01944 12.4945 5.85938 12.3018C4.85796 11.0956 4.06574 9.73711 3.70703 8.88965L5.54883 8.11035C5.82501 8.76283 6.51011 9.95463 7.39746 11.0234C7.44715 11.0833 7.49745 11.1428 7.54785 11.2012C8.63213 9.42509 9.29327 7.53856 9.62891 6H1V4H6.24707V2H8.24707ZM13.9678 16H18.1943L16.0811 11.7471L13.9678 16Z" fill="#141414"/>
</svg>
