<svg width="24" height="24" viewBox="0 0 24 24" fill="none" xmlns="http://www.w3.org/2000/svg">
<path d="M18 1C19.6569 1 21 2.34315 21 4V14C22.2131 14.9112 23 16.3632 23 18C23 20.7615 20.7612 23 18 23C15.2388 23 13 20.7615 13 18C13 16.3632 13.7869 14.9112 15 14V4C15 2.34315 16.3431 1 18 1ZM18 3C17.4477 3 17 3.44772 17 4V15.1123L16.501 15.4004C15.6016 15.9206 15 16.8908 15 18C15 19.6569 16.3433 21 18 21C19.6567 21 21 19.6569 21 18C21 16.8908 20.3984 15.9206 19.499 15.4004L19 15.1123V4C19 3.44772 18.5523 3 18 3ZM10 6.58594L11.293 5.29297L12.707 6.70703L10 9.41406V11H13V13H10V20H8V17.4141L6.70703 18.707L5.29297 17.293L8 14.5859V13H5.91406L3.20703 15.707L1.79297 14.293L3.08594 13H1V11H3.08594L1.79297 9.70703L3.20703 8.29297L5.91406 11H8V9.41406L5.29297 6.70703L6.70703 5.29297L8 6.58594V4H10V6.58594ZM18 16.5C18.8284 16.5 19.5 17.1716 19.5 18C19.5 18.8284 18.8284 19.5 18 19.5C17.1716 19.5 16.5 18.8284 16.5 18C16.5 17.1716 17.1716 16.5 18 16.5Z" fill="#141414"/>
</svg>
