<svg width="24" height="24" viewBox="0 0 24 24" fill="none" xmlns="http://www.w3.org/2000/svg">
<path d="M18 2C20.2091 2 22 3.79086 22 6V18C22 20.2091 20.2091 22 18 22H6C3.79086 22 2 20.2091 2 18V6C2 3.79086 3.79086 2 6 2H18ZM6 4C4.89543 4 4 4.89543 4 6V18C4 19.1046 4.89543 20 6 20H18C19.1046 20 20 19.1046 20 18V6C20 4.89543 19.1046 4 18 4H6ZM16.707 8.70703L13.4141 12L16.707 15.293L15.293 16.707L12 13.4141L8.70703 16.707L7.29297 15.293L10.5859 12L7.29297 8.70703L8.70703 7.29297L12 10.5859L15.293 7.29297L16.707 8.70703Z" fill="#141414"/>
</svg>
