<svg width="24" height="24" viewBox="0 0 24 24" fill="none" xmlns="http://www.w3.org/2000/svg">
<path d="M13 17.4999H11V10.9999H13V17.4999Z" fill="#141414"/>
<path d="M12 6.49988C12.8284 6.49988 13.4999 7.17151 13.5 7.99988C13.5 8.82831 12.8284 9.49988 12 9.49988C11.1716 9.49988 10.5 8.82831 10.5 7.99988C10.5001 7.17151 11.1716 6.49988 12 6.49988Z" fill="#141414"/>
<path fill-rule="evenodd" clip-rule="evenodd" d="M9.99609 1.00476C11.2357 0.28715 12.7643 0.287148 14.0039 1.00476L20.5039 4.76746C21.7391 5.48258 22.4999 6.80209 22.5 8.22937V15.7704C22.4999 17.1977 21.7391 18.5172 20.5039 19.2323L14.0039 22.995C12.7643 23.7126 11.2357 23.7126 9.99609 22.995L3.49609 19.2323C2.26088 18.5172 1.50006 17.1977 1.5 15.7704V8.22937C1.50006 6.80209 2.26088 5.48258 3.49609 4.76746L9.99609 1.00476ZM13.002 2.73523C12.3822 2.37654 11.6178 2.37654 10.998 2.73523L4.49805 6.4989C3.88047 6.85645 3.50006 7.51577 3.5 8.22937V15.7704C3.50006 16.484 3.88047 17.1433 4.49805 17.5009L10.998 21.2645C11.6178 21.6232 12.3822 21.6232 13.002 21.2645L19.502 17.5009C20.1195 17.1433 20.4999 16.484 20.5 15.7704V8.22937C20.4999 7.51577 20.1195 6.85645 19.502 6.4989L13.002 2.73523Z" fill="#141414"/>
</svg>
