<svg width="24" height="24" viewBox="0 0 24 24" fill="none" xmlns="http://www.w3.org/2000/svg">
<path d="M9.00009 2C12.3963 2 15.2948 4.11584 16.4561 7.09961C16.7075 7.0512 16.9648 7.01972 17.2267 7.00684L17.5001 7C20.3691 7 22.724 9.1968 22.9767 12H23.0001V17.0332C23.0001 19.7615 20.7216 21.8647 18.1222 21.9912C18.0821 21.9961 18.0414 22 18.0001 22H8.00009C4.13414 22 1.0001 18.866 1.00009 15C1.00009 14.9316 1.00832 14.8647 1.02157 14.7998C1.01589 14.3619 1.00872 13.4852 1.00595 12.6689C1.00212 11.5446 1.00009 10.4184 1.00009 10.333H1.0079C1.00338 10.2226 1.00009 10.1116 1.00009 10C1.00009 9.99187 0.99989 9.98371 1.00009 9.97559L1.00888 9.61523C1.00909 9.60649 1.00941 9.59761 1.00985 9.58887C1.22429 5.36116 4.71977 2.00005 9.00009 2ZM5.8829 19.5303C6.52582 19.8313 7.24317 20 8.00009 20H8.58603L10.586 18H9.00009C8.86422 18 8.72689 17.9972 8.58896 17.9902C8.2349 17.9723 7.8874 17.9287 7.54696 17.8662L5.8829 19.5303ZM21.0001 16.7412C20.7026 16.9868 20.3784 17.2005 20.0333 17.3799L17.4142 20H17.9366C17.9475 19.9993 17.9588 19.9974 17.9698 19.9971C19.635 19.9457 21.0001 18.6074 21.0001 17.0332V16.7412ZM13.4142 18L11.4142 20H14.586L16.586 18H13.4142ZM3.01083 15.3018C3.07967 16.458 3.54186 17.5073 4.26474 18.3203L5.42782 17.1572C4.50679 16.6966 3.68691 16.065 3.01083 15.3018ZM8.70126 4.00781C5.63154 4.15845 3.1683 6.61591 3.00888 9.68262L3.00106 10.0117C3.00719 13.2162 5.52514 15.8316 8.69052 15.9922C8.79118 15.9973 8.89435 16 9.00009 16H17.7667C17.8068 15.9904 17.8478 15.9822 17.8897 15.9775C19.6389 15.7841 21.0001 14.3006 21.0001 12.5C21.0001 10.567 19.4331 9 17.5001 9C17.0304 9.00001 16.584 9.0924 16.1768 9.25879C15.9076 9.36868 15.6039 9.35574 15.3448 9.22363C15.0856 9.09142 14.8963 8.85298 14.8272 8.57031C14.186 5.9463 11.8196 4 9.00009 4L8.70126 4.00781ZM9.00009 7C10.1047 7 11.0001 7.89543 11.0001 9C11.0001 10.1046 10.1047 11 9.00009 11C7.89556 11 7.00009 10.1045 7.00009 9C7.00009 7.89546 7.89556 7.00005 9.00009 7Z" fill="#141414"/>
</svg>
