<svg width="24" height="24" viewBox="0 0 24 24" fill="none" xmlns="http://www.w3.org/2000/svg">
<path d="M9 22H6V20H9V22ZM20 2C21.6569 2 23 3.34315 23 5V19C23 20.6569 21.6569 22 20 22H14C12.3431 22 11 20.6569 11 19V5C11 3.34315 12.3431 2 14 2H20ZM14 4C13.4477 4 13 4.44772 13 5V19C13 19.5523 13.4477 20 14 20H20C20.5523 20 21 19.5523 21 19V5C21 4.44772 20.5523 4 20 4H14ZM9 6H5C3.89543 6 3 6.89543 3 8V12H9V14H3C3 15.1046 3.89543 16 5 16H9V18H5C2.79086 18 1 16.2091 1 14V8C1 5.79086 2.79086 4 5 4H9V6ZM17 14C18.1046 14 19 14.8954 19 16C19 17.1046 18.1046 18 17 18C15.8954 18 15 17.1046 15 16C15 14.8954 15.8954 14 17 14ZM17 7C17.5523 7 18 7.44772 18 8C18 8.55228 17.5523 9 17 9C16.4477 9 16 8.55228 16 8C16 7.44772 16.4477 7 17 7Z" fill="#141414"/>
</svg>
