<svg width="24" height="24" viewBox="0 0 24 24" fill="none" xmlns="http://www.w3.org/2000/svg">
<path d="M14 4C14.5523 4 15 4.44772 15 5V6H19.2676C19.6134 5.4022 20.2597 5 21 5C22.1046 5 23 5.89543 23 7C23 8.10457 22.1046 9 21 9C20.2597 9 19.6134 8.5978 19.2676 8H17.7383C19.2749 9.29598 20.6754 11.2389 20.9512 14H22C22.5523 14 23 14.4477 23 15V19C23 19.5523 22.5523 20 22 20H18C17.4477 20 17 19.5523 17 19V15C17 14.4477 17.4477 14 18 14H18.9365C18.5646 11.1534 16.6369 9.42714 15 8.53027V9C15 9.55228 14.5523 10 14 10H10C9.44772 10 9 9.55228 9 9V8.46875C8.09537 8.89271 7.27433 9.43987 6.61816 10.1689C5.82131 11.0544 5.21491 12.2668 5.04688 14H6C6.55228 14 7 14.4477 7 15V19C7 19.5523 6.55228 20 6 20H2C1.44772 20 1 19.5523 1 19V15C1 14.4477 1.44772 14 2 14H3.03906C3.21672 11.7832 3.98972 10.1001 5.13184 8.83105C5.40478 8.52779 5.69524 8.25158 5.99902 8H4.73242C4.38661 8.5978 3.74028 9 3 9C1.89543 9 1 8.10457 1 7C1 5.89543 1.89543 5 3 5C3.74028 5 4.38661 5.4022 4.73242 6H9V5C9 4.44772 9.44772 4 10 4H14ZM3 16V18H5V16H3ZM19 16V18H21V16H19ZM11 6V8H13V6H11Z" fill="#141414"/>
</svg>
