<svg width="24" height="24" viewBox="0 0 24 24" fill="none" xmlns="http://www.w3.org/2000/svg">
<path d="M18 2C20.2091 2 22 3.79086 22 6V18C22 20.2091 20.2091 22 18 22H6C4.12386 22 2.54921 20.7084 2.11719 18.9658L7.73535 13.3486L9.94434 15.5576C10.3348 15.9479 10.9679 15.948 11.3584 15.5576L15.9971 10.9189V12.6357H17.9971V8.50488C17.9971 7.9526 17.5494 7.50488 16.9971 7.50488H12.623V9.50488H14.583L10.6514 13.4365L8.44238 11.2275C8.25485 11.04 8.00057 10.9346 7.73535 10.9346C7.47017 10.9346 7.21583 11.04 7.02832 11.2275L2 16.2559V6C2 3.79086 3.79086 2 6 2H18Z" fill="#141414"/>
</svg>
