<svg width="24" height="24" viewBox="0 0 24 24" fill="none" xmlns="http://www.w3.org/2000/svg">
<path d="M7.92871 1.27638C8.60556 0.870274 9.45882 0.899902 10.1055 1.35255L14.9941 4.7754L19.0469 1.88087C20.7015 0.698979 23 1.88164 23 3.91505V16.3018C22.9999 17.7067 22.2623 19.0086 21.0576 19.7315L16.0771 22.7197C15.3941 23.1296 14.5328 23.0951 13.8848 22.6319L9.00488 19.1436L4.96973 22.0772C3.31729 23.2782 1 22.0976 1 20.0547V7.69826C1.00012 6.29334 1.73766 4.9914 2.94238 4.26857L7.92871 1.27638ZM3.9707 5.98341C3.36848 6.34482 3.00012 6.99592 3 7.69826V20.0547C3 20.4633 3.46345 20.6993 3.79395 20.459L7.8291 17.5254C7.88445 17.4852 7.9418 17.4489 8 17.4151V3.56544L3.9707 5.98341ZM21 3.91505C21 3.50838 20.5399 3.27146 20.209 3.50783L16.1562 6.40236C16.1056 6.43855 16.053 6.47105 16 6.50197V20.4336L20.0293 18.0166C20.6315 17.6552 20.9999 17.0041 21 16.3018V3.91505ZM10 17.4092C10.0572 17.4421 10.1134 17.4776 10.168 17.5166L14 20.2549V6.5088C13.9485 6.47922 13.897 6.44863 13.8477 6.41408L10 3.71974V17.4092Z" fill="#141414"/>
</svg>
