<svg width="24" height="24" viewBox="0 0 24 24" fill="none" xmlns="http://www.w3.org/2000/svg">
<path d="M5 10C6.65685 10 8 11.3431 8 13C8 14.3062 7.16516 15.4172 6 15.8291V22H4V15.8291C2.83484 15.4172 2 14.3062 2 13C2 11.3431 3.34315 10 5 10ZM13 22H11V14H13V22ZM19 12C20.6569 12 22 13.3431 22 15C22 16.3062 21.1652 17.4172 20 17.8291V22H18V17.8291C16.8348 17.4172 16 16.3062 16 15C16 13.3431 17.3431 12 19 12ZM19 14C18.4477 14 18 14.4477 18 15C18 15.5523 18.4477 16 19 16C19.5523 16 20 15.5523 20 15C20 14.4477 19.5523 14 19 14ZM5 12C4.44772 12 4 12.4477 4 13C4 13.5523 4.44772 14 5 14C5.55228 14 6 13.5523 6 13C6 12.4477 5.55228 12 5 12ZM13 6.1709C14.1652 6.58275 15 7.6938 15 9C15 10.6569 13.6569 12 12 12C10.3431 12 9 10.6569 9 9C9 7.6938 9.83484 6.58275 11 6.1709V2H13V6.1709ZM12 8C11.4477 8 11 8.44772 11 9C11 9.55228 11.4477 10 12 10C12.5523 10 13 9.55228 13 9C13 8.44772 12.5523 8 12 8ZM20 10H18V2H20V10ZM6 8H4V2H6V8Z" fill="#141414"/>
</svg>
