<svg width="24" height="24" viewBox="0 0 24 24" fill="none" xmlns="http://www.w3.org/2000/svg">
<path d="M10.9707 1.00435C11.4406 0.95998 11.8781 1.24965 12.0205 1.69966C12.1629 2.1498 11.9715 2.63857 11.5615 2.87251C9.44104 4.08113 8.0148 6.36031 8.01465 8.97115C8.01465 12.8449 11.1546 15.9856 15.0283 15.9858C17.639 15.9858 19.9181 14.56 21.127 12.4399C21.3608 12.0297 21.8496 11.8386 22.2998 11.9809C22.7501 12.1233 23.0397 12.5606 22.9951 13.0307C22.4642 18.6247 17.755 23.0004 12.0225 23.0004C5.93491 23.0004 1 18.0646 1 11.977C1.00024 6.24438 5.37634 1.53478 10.9707 1.00435ZM7.32812 4.27583C4.73533 5.85981 3.00407 8.71642 3.00391 11.977C3.00391 16.9577 7.04175 20.9955 12.0225 20.9956C15.283 20.9956 18.1405 19.265 19.7246 16.6723C18.3572 17.5078 16.7488 17.9897 15.0283 17.9897C10.0477 17.9895 6.01074 13.9518 6.01074 8.97115C6.01082 7.25067 6.49251 5.6432 7.32812 4.27583Z" fill="#141414"/>
</svg>
