<svg width="24" height="24" viewBox="0 0 24 24" fill="none" xmlns="http://www.w3.org/2000/svg">
<path d="M10 9.86382V9.86187L12.5635 11.9986H12.5625L20.6406 18.731L19.3594 20.2681L16.9717 18.2788C16.8957 18.3696 16.8134 18.4577 16.7188 18.5366L13.2803 21.4019C11.9778 22.4868 10.0007 21.5607 10 19.8657V14.1353L5.64062 17.7691L4.35938 16.232L9.43652 12.0005L4.35938 7.76812L1.35938 5.26813L2.64062 3.73103L10 9.86382ZM12 19.8657L15.4375 17.0005L12 14.1353V19.8657ZM10 4.13532C10.0002 2.43985 11.9777 1.51376 13.2803 2.5992L16.7188 5.46442C17.6774 6.26403 17.6776 7.7372 16.7188 8.53667L14.126 10.6958L12.5645 9.39409L15.4375 7.00055L12 4.13532V8.92339L10 7.25641V4.13532Z" fill="#141414"/>
</svg>
