<svg width="24" height="24" viewBox="0 0 24 24" fill="none" xmlns="http://www.w3.org/2000/svg">
<path d="M16.5859 3C19.6119 3 22.1647 5.2533 22.54 8.25586L23.7109 17.6279C23.9347 19.4185 22.5389 21 20.7344 21H20C19.0558 20.9999 18.1661 20.5552 17.5996 19.7998L15.7998 17.4004C15.6109 17.1486 15.3147 17 15 17H8.99999C8.6853 17.0001 8.389 17.1486 8.20018 17.4004L6.40038 19.7998C5.83381 20.5552 4.94422 21 3.99999 21H3.26561C1.46121 20.9999 0.0652501 19.4184 0.289049 17.6279L1.45995 8.25586C1.83526 5.25334 4.38819 3.00009 7.41405 3H16.5859ZM7.41405 5C5.39683 5.00009 3.69453 6.50225 3.44432 8.50391L2.27342 17.876C2.19884 18.4728 2.66421 18.9999 3.26561 19H3.99999C4.31471 19 4.61093 18.8514 4.79979 18.5996L6.5996 16.2002C7.16612 15.4448 8.05578 15.0001 8.99999 15H15C15.9442 15 16.8338 15.4448 17.4004 16.2002L19.2002 18.5996C19.389 18.8514 19.6853 18.9999 20 19H20.7344C21.3359 19 21.8012 18.4728 21.7266 17.876L20.5557 8.50391C20.3054 6.5022 18.6032 5 16.5859 5H7.41405ZM8.99999 9H11V11H8.99999V13H6.99999V11H4.99999V9H6.99999V7H8.99999V9ZM17.5 10C18.3284 10 19 10.6716 19 11.5C19 12.3284 18.3284 13 17.5 13C16.6716 12.9999 16 12.3284 16 11.5C16 10.6716 16.6716 10.0001 17.5 10ZM14.5 7C15.3284 7 16 7.67157 16 8.5C16 9.32843 15.3284 10 14.5 10C13.6716 9.99991 13 9.32837 13 8.5C13 7.67163 13.6716 7.00009 14.5 7Z" fill="#141414"/>
</svg>
