<svg width="24" height="24" viewBox="0 0 24 24" fill="none" xmlns="http://www.w3.org/2000/svg">
<path d="M12 1C18.0751 1 23 5.92487 23 12C23 18.0751 18.0751 23 12 23C5.92487 23 1 18.0751 1 12C1 5.92487 5.92487 1 12 1ZM13.9863 3.22168C13.876 4.22185 13.0296 5 12 5C10.9704 5 10.123 4.2219 10.0127 3.22168C7.64821 3.75469 5.63718 5.21773 4.38281 7.20703C5.04418 7.53329 5.5 8.21265 5.5 9C5.5 10.1046 4.60457 11 3.5 11C3.3495 11 3.20331 10.9819 3.0625 10.9502C3.02248 11.2946 3 11.6448 3 12C3 14.0263 3.66975 15.8961 4.7998 17.4004C5.13411 17.1491 5.54957 17 6 17C7.10457 17 8 17.8954 8 19C8 19.3407 7.91325 19.6602 7.7627 19.9404C9.02562 20.6158 10.4677 21 12 21C13.532 21 14.9736 20.6155 16.2363 19.9404C16.086 19.6603 16 19.3405 16 19C16 17.8954 16.8954 17 18 17C18.45 17 18.8643 17.1495 19.1982 17.4004C20.3287 15.896 21 14.0267 21 12C21 11.6448 20.9766 11.2947 20.9365 10.9502C20.796 10.9818 20.6502 11 20.5 11C19.3954 11 18.5 10.1046 18.5 9C18.5 8.21297 18.9553 7.53345 19.6162 7.20703C18.3617 5.21769 16.351 3.75447 13.9863 3.22168ZM12 9.5C13.3807 9.5 14.5 10.6193 14.5 12C14.5 13.3807 13.3807 14.5 12 14.5C10.6193 14.5 9.5 13.3807 9.5 12C9.5 10.6193 10.6193 9.5 12 9.5Z" fill="#141414"/>
</svg>
