<svg width="24" height="24" viewBox="0 0 24 24" fill="none" xmlns="http://www.w3.org/2000/svg">
<path fill-rule="evenodd" clip-rule="evenodd" d="M11 13.5858V8C11 7.44772 11.4477 7 12 7C12.5523 7 13 7.44772 13 8V13.5858L15.0858 11.5C15.4763 11.1095 16.1095 11.1095 16.5 11.5C16.8905 11.8905 16.8905 12.5237 16.5 12.9142L12.7071 16.7071C12.3166 17.0976 11.6834 17.0976 11.2929 16.7071L7.5 12.9142C7.10948 12.5237 7.10948 11.8905 7.5 11.5C7.89052 11.1095 8.52369 11.1095 8.91421 11.5L11 13.5858Z" fill="#141414"/>
<path fill-rule="evenodd" clip-rule="evenodd" d="M12 3C7.02944 3 3 7.02944 3 12C3 16.9706 7.02944 21 12 21C16.9706 21 21 16.9706 21 12C21 7.02944 16.9706 3 12 3ZM1 12C1 5.92487 5.92487 1 12 1C18.0751 1 23 5.92487 23 12C23 18.0751 18.0751 23 12 23C5.92487 23 1 18.0751 1 12Z" fill="#141414"/>
</svg>
