<svg width="24" height="24" viewBox="0 0 24 24" fill="none" xmlns="http://www.w3.org/2000/svg">
<path d="M8 2C8.55228 2 9 2.44772 9 3V4H17V3C17 2.44772 17.4477 2 18 2H22C22.5523 2 23 2.44772 23 3V7C23 7.55228 22.5523 8 22 8H20.8193L19.2197 16H20C20.5523 16 21 16.4477 21 17V21C21 21.5523 20.5523 22 20 22H16C15.4477 22 15 21.5523 15 21V20H7V21C7 21.5523 6.55228 22 6 22H2C1.44772 22 1 21.5523 1 21V17C1 16.4477 1.44772 16 2 16H3.18066L4.78027 8H4C3.44772 8 3 7.55228 3 7V3C3 2.44772 3.44772 2 4 2H8ZM3 20H5V18H3V20ZM17 20H19V18H17V20ZM9 7C9 7.55228 8.55228 8 8 8H6.81934L5.21973 16H6C6.55228 16 7 16.4477 7 17V18H15V17C15 16.4477 15.4477 16 16 16H17.1807L18.7803 8H18C17.4477 8 17 7.55228 17 7V6H9V7ZM5 6H7V4H5V6ZM19 6H21V4H19V6Z" fill="#141414"/>
</svg>
