<svg width="24" height="24" viewBox="0 0 24 24" fill="none" xmlns="http://www.w3.org/2000/svg">
<path d="M15.4873 2.26753C16.5388 2.19979 17.5037 2.84994 17.8369 3.84956L21.8486 15.8837C21.8831 15.9872 21.8974 16.0941 21.8975 16.2001H21.8994V18.8349C21.8992 20.6906 20.2314 22.1021 18.4014 21.7939L4.58691 19.4668C3.14284 19.2235 2.08512 17.9731 2.08496 16.5087V12.5283C2.08496 12.4468 2.08811 12.3651 2.09473 12.2841C2.0938 12.0439 2.13278 11.7985 2.21777 11.5566C2.29393 11.3399 2.37581 11.126 2.46191 10.915L2.47461 10.8808H2.47656C4.47718 6.01467 9.08381 2.68171 14.376 2.33979L15.4873 2.26753ZM4.08496 16.5087C4.08512 16.9967 4.43772 17.4139 4.91895 17.4951L18.7334 19.8212C19.3433 19.9239 19.8992 19.4534 19.8994 18.8349V17.0478L4.08496 14.4414V16.5087ZM14.5049 4.33589C9.98576 4.62788 6.05107 7.46932 4.33496 11.6201L4.1377 12.2089C4.12397 12.2497 4.11486 12.2918 4.10645 12.3339C4.12678 12.3868 4.17325 12.4292 4.23438 12.4394L19.4268 14.9433L15.9395 4.4814C15.8935 4.3439 15.7609 4.25444 15.6162 4.26362L14.5049 4.33589ZM16 11C16.5523 11 17 11.4477 17 12C16.9999 12.5522 16.5522 13 16 13C15.4478 13 15.0001 12.5522 15 12C15 11.4477 15.4477 11 16 11ZM10.5 8.99995C11.3284 8.99995 12 9.67153 12 10.5C11.9999 11.3283 11.3284 12 10.5 12C9.67162 12 9.00008 11.3283 9 10.5C9 9.67153 9.67157 8.99995 10.5 8.99995ZM14 5.99995C14.5523 5.99995 15 6.44767 15 6.99995C14.9999 7.55217 14.5522 7.99995 14 7.99995C13.4478 7.99995 13.0001 7.55217 13 6.99995C13 6.44767 13.4477 5.99995 14 5.99995Z" fill="#141414"/>
</svg>
