<svg width="24" height="24" viewBox="0 0 24 24" fill="none" xmlns="http://www.w3.org/2000/svg">
<path d="M18 2C20.2091 2 22 3.79086 22 6V18C22 20.14 20.3194 21.8879 18.2061 21.9951L18 22H6C3.79086 22 2 20.2091 2 18V6L2.00488 5.79395C2.11211 3.68056 3.85996 2 6 2H18ZM4 18C4 19.1046 4.89543 20 6 20H18L18.2041 19.9893C19.2128 19.887 20 19.0357 20 18V8H4V18ZM8.5 11.79C8.5 10.2255 10.2154 9.26634 11.5479 10.0859L15.1406 12.2969C16.4091 13.0779 16.4091 14.9221 15.1406 15.7031L11.5479 17.9141C10.2154 18.7337 8.5 17.7744 8.5 16.21V11.79ZM10.5 16.21L14.0918 14L10.5 11.79V16.21ZM10 6H14V4H10V6ZM16 6H20C20 4.89543 19.1046 4 18 4H16V6ZM6 4C4.96435 4 4.113 4.78722 4.01074 5.7959L4 6H8V4H6Z" fill="#141414"/>
</svg>
