<svg width="24" height="24" viewBox="0 0 24 24" fill="none" xmlns="http://www.w3.org/2000/svg">
<path d="M11.0479 2C13.7841 2.00006 16.2675 3.08989 18.0791 4.85645L18.0889 4.86621L20 6.83496V3.5H22V9C22 9.55228 21.5523 10 21 10H15.5V8H18.5L16.6729 6.2793C15.2215 4.86881 13.2382 4.00006 11.0479 4C6.59829 4 3 7.58669 3 12C3 16.4133 6.59829 20 11.0479 20C13.2431 19.9999 15.2304 19.127 16.6826 17.7109C17.4154 16.9963 18.011 16.1446 18.4268 15.1982L20.2578 16.002C19.7371 17.1874 18.993 18.2523 18.0791 19.1436C16.2675 20.9101 13.7841 21.9999 11.0479 22C5.50369 22 1 17.5278 1 12C1 6.47218 5.50369 2 11.0479 2Z" fill="#141414"/>
</svg>
