<svg width="24" height="24" viewBox="0 0 24 24" fill="none" xmlns="http://www.w3.org/2000/svg">
<path d="M12 2C12.1012 2 12.2018 2.00188 12.3018 2.00684C12.321 2.00779 12.3402 2.01058 12.3594 2.01172C12.4333 2.01609 12.5069 2.0213 12.5801 2.02832C12.617 2.03186 12.6537 2.03681 12.6904 2.04102C12.7529 2.04817 12.8151 2.05539 12.877 2.06445C12.9136 2.06981 12.9499 2.07601 12.9863 2.08203C13.0435 2.0915 13.1006 2.10123 13.1572 2.1123C13.1925 2.1192 13.2277 2.12628 13.2627 2.13379C13.318 2.14565 13.373 2.1585 13.4277 2.17188C13.4751 2.18345 13.5224 2.19532 13.5693 2.20801C13.6043 2.21746 13.6391 2.22724 13.6738 2.2373C13.7272 2.25279 13.7802 2.26922 13.833 2.28613C13.8802 2.30128 13.9269 2.31771 13.9736 2.33398C14.0097 2.34656 14.0462 2.35785 14.082 2.37109C14.0918 2.37471 14.1016 2.37817 14.1113 2.38184L14.3359 2.47168C14.3421 2.47429 14.3483 2.47686 14.3545 2.47949C14.5223 2.55121 14.6861 2.63062 14.8457 2.7168C14.8849 2.73793 14.9233 2.76026 14.9619 2.78223C14.9965 2.80193 15.0312 2.82142 15.0654 2.8418C15.1185 2.87339 15.1707 2.90628 15.2227 2.93945C15.2471 2.95506 15.2717 2.97038 15.2959 2.98633C15.3446 3.01844 15.3927 3.05148 15.4404 3.08496C15.4679 3.10427 15.4953 3.1238 15.5225 3.14355C15.5689 3.17733 15.6147 3.21201 15.6602 3.24707C15.6838 3.26534 15.7071 3.28412 15.7305 3.30273C15.7765 3.33934 15.8223 3.37615 15.8672 3.41406C15.8952 3.43774 15.9226 3.46215 15.9502 3.48633C15.9877 3.51916 16.0258 3.55121 16.0625 3.58496C16.0977 3.61741 16.1316 3.6513 16.166 3.68457C16.3678 3.87941 16.5556 4.08827 16.7285 4.30957C16.7482 4.33477 16.7688 4.35925 16.7881 4.38477C17.3576 5.13784 17.7521 6.02935 17.915 7H18C20.7614 7 23 9.23858 23 12C23 14.5251 21.128 16.6113 18.6963 16.9502L16.9287 21.3711C16.7768 21.7508 16.4089 22 16 22H8C7.5911 22 7.22315 21.7508 7.07129 21.3711L5.30273 16.9502C2.87148 16.6109 1 14.5247 1 12C1 9.23858 3.23858 7 6 7H6.08496C6.56117 4.16245 9.02712 2 12 2ZM8.67676 20H15.3232L16.5225 17H7.47754L8.67676 20ZM12 4C9.79086 4 8 5.79086 8 8C8 8.55228 7.55228 9 7 9H6C4.34315 9 3 10.3431 3 12C3 13.6569 4.34315 15 6 15H18L18.1543 14.9961C19.7394 14.9158 21 13.6051 21 12C21 10.3431 19.6569 9 18 9H17.915C17.4388 11.8376 14.9729 14 12 14V12C14.2091 12 16 10.2091 16 8C16 5.79086 14.2091 4 12 4Z" fill="#141414"/>
</svg>
