<svg width="24" height="24" viewBox="0 0 24 24" fill="none" xmlns="http://www.w3.org/2000/svg">
<path d="M11.9529 1.39527C12.2345 1.03405 12.7297 0.903027 13.1599 1.07593C13.5902 1.24896 13.8474 1.68278 13.7859 2.13257L12.9148 8.49976H20.9744C21.3686 8.49978 21.7284 8.7207 21.8992 9.06714C22.0698 9.41353 22.0214 9.8247 21.7752 10.1248L11.5183 22.6248C11.2306 22.9753 10.7387 23.096 10.3152 22.9197C9.89158 22.7433 9.6401 22.3131 9.70095 21.8679L10.572 15.4998H3.02517C2.63569 15.4996 2.28028 15.2843 2.1072 14.9441C1.93417 14.6039 1.97323 14.1977 2.20876 13.8953L11.9529 1.39527ZM5.09353 13.4998H12.9148L12.2224 18.5662L18.8406 10.4998H10.572L11.24 5.61402L5.09353 13.4998Z" fill="#141414"/>
</svg>
