<svg width="24" height="24" viewBox="0 0 24 24" fill="none" xmlns="http://www.w3.org/2000/svg">
<path d="M8.96133 1C10.2167 1.00016 11.3489 1.64829 11.9994 2.66113C12.6499 1.64787 13.7837 1.00004 15.0395 1H15.1928C17.3914 1.00037 18.9638 2.96141 18.6703 5H19.3823C20.8688 5.00025 21.836 6.56486 21.1713 7.89453L20.1401 9.95605L22.1879 13.3691C22.7574 14.3184 22.908 15.4619 22.6039 16.5264L21.3764 20.8242C21.0084 22.112 19.8309 22.9998 18.4916 23H5.50918C4.16978 23 2.99243 22.112 2.62441 20.8242L1.39687 16.5264C1.09271 15.4618 1.24327 14.3185 1.81288 13.3691L3.85976 9.95605L2.82949 7.89453C2.16458 6.56473 3.13179 5 4.61855 5H5.32949C5.03608 2.96131 6.60924 1.00016 8.80801 1H8.96133ZM5.5668 11L3.52773 14.3984C3.24295 14.8731 3.16771 15.4443 3.31972 15.9766L4.54726 20.2744C4.66995 20.7037 5.06273 21 5.50918 21H18.4916C18.938 20.9998 19.3309 20.7036 19.4535 20.2744L20.6811 15.9766C20.833 15.4444 20.7578 14.873 20.4731 14.3984L18.434 11H5.5668ZM5.61855 9H18.3823L19.3823 7H4.61855L5.61855 9ZM8.80801 3C7.76155 3.00018 7.04657 4.03193 7.38125 5H10.7201L10.5248 4.2207C10.3454 3.50343 9.70067 3.00022 8.96133 3H8.80801ZM15.0395 3C14.3 3.00006 13.6554 3.50336 13.476 4.2207L13.2807 5H16.6196C16.954 4.0321 16.239 3.00041 15.1928 3H15.0395Z" fill="#141414"/>
</svg>
