<svg width="24" height="24" viewBox="0 0 24 24" fill="none" xmlns="http://www.w3.org/2000/svg">
<path d="M19 4C21.2091 4 23 5.79086 23 8V16C23 18.2091 21.2091 20 19 20H5C2.79086 20 1 18.2091 1 16V8C1 5.79086 2.79086 4 5 4H19ZM5 6C3.89543 6 3 6.89543 3 8V16C3 17.1046 3.89543 18 5 18H19C20.1046 18 21 17.1046 21 16V8C21 6.89543 20.1046 6 19 6H5ZM17 16H7V14H17V16ZM6 9C6.55228 9 7 9.44772 7 10C7 10.5523 6.55228 11 6 11C5.44772 11 5 10.5523 5 10C5 9.44772 5.44772 9 6 9ZM10 9C10.5523 9 11 9.44772 11 10C11 10.5523 10.5523 11 10 11C9.44772 11 9 10.5523 9 10C9 9.44772 9.44772 9 10 9ZM14 9C14.5523 9 15 9.44772 15 10C15 10.5523 14.5523 11 14 11C13.4477 11 13 10.5523 13 10C13 9.44772 13.4477 9 14 9ZM18 9C18.5523 9 19 9.44772 19 10C19 10.5523 18.5523 11 18 11C17.4477 11 17 10.5523 17 10C17 9.44772 17.4477 9 18 9Z" fill="#141414"/>
</svg>
