<svg width="24" height="24" viewBox="0 0 24 24" fill="none" xmlns="http://www.w3.org/2000/svg">
<path d="M16.7047 10.2096L11.6725 15.2096C11.2825 15.5967 10.6532 15.5967 10.2633 15.2096L7.29552 12.2604L8.7047 10.8414L10.9684 13.0905L15.2955 8.79065L16.7047 10.2096Z" fill="#141414"/>
<path fill-rule="evenodd" clip-rule="evenodd" d="M14.0817 1.35803C15.6562 0.650998 17.5013 1.4147 18.1149 3.02795L18.9156 5.1344L21.0221 5.93615C22.6355 6.54952 23.3999 8.39475 22.693 9.96936L21.7692 12.025L22.693 14.0817C23.4 15.6562 22.6362 17.5013 21.0231 18.1149L18.9156 18.9147L18.1149 21.0221C17.5015 22.6355 15.6563 23.3999 14.0817 22.693L12.025 21.7692L9.96935 22.693C8.39486 23.4 6.54972 22.6362 5.93615 21.0231L5.13537 18.9147L3.02892 18.1149C1.41546 17.5015 0.6511 15.6563 1.35802 14.0817L2.28087 12.025L1.35802 9.96936C0.650997 8.39484 1.41473 6.54969 3.02794 5.93615L5.13537 5.1344L5.93615 3.02893C6.54948 1.41543 8.3947 0.651025 9.96935 1.35803L12.025 2.28088L14.0817 1.35803ZM16.2457 3.73889C16.0412 3.2011 15.4259 2.94656 14.901 3.18225L12.4352 4.28967C12.1746 4.40664 11.8764 4.40666 11.6158 4.28967L9.15001 3.18225C8.6253 2.94676 8.01085 3.20139 7.80626 3.73889L6.84533 6.26526C6.74387 6.53216 6.53308 6.74377 6.26622 6.84533L3.73888 7.8053C3.2011 8.00978 2.94655 8.62516 3.18224 9.15002L4.28966 11.6158C4.40665 11.8764 4.40669 12.1746 4.28966 12.4352L3.18224 14.901C2.94675 15.4257 3.20136 16.0402 3.73888 16.2447L6.26525 17.2057L6.3629 17.2487C6.58349 17.3606 6.75647 17.5512 6.84533 17.7848L7.80529 20.3121C8.00982 20.8498 8.62519 21.1044 9.15001 20.8688L11.6158 19.7614L11.7154 19.7233C11.9506 19.6465 12.2072 19.659 12.4352 19.7614L14.901 20.8688C15.4257 21.1042 16.0401 20.8496 16.2447 20.3121L17.2057 17.7848C17.3072 17.518 17.518 17.3072 17.7848 17.2057L20.3121 16.2457C20.8498 16.0412 21.1044 15.4258 20.8688 14.901L19.7613 12.4352C19.6444 12.1746 19.6443 11.8764 19.7613 11.6158L20.8688 9.15002C21.1042 8.62534 20.8495 8.0109 20.3121 7.80627L17.7848 6.84533C17.518 6.74384 17.3072 6.53297 17.2057 6.26623L16.2457 3.73889Z" fill="#141414"/>
</svg>
