<svg width="24" height="24" viewBox="0 0 24 24" fill="none" xmlns="http://www.w3.org/2000/svg">
<path d="M14.5996 15C16.8087 15 18.5996 16.7909 18.5996 19C18.5996 21.2091 16.8087 23 14.5996 23C13.1436 22.9999 11.8702 22.2213 11.1719 21.0625L12.8848 20.0303C13.2363 20.6136 13.8735 20.9999 14.5996 21C15.7042 21 16.5996 20.1046 16.5996 19C16.5996 17.8954 15.7042 17 14.5996 17H1V15H14.5996ZM19.3076 6.11523C21.3468 6.11523 23 7.76845 23 9.80762C23 11.8468 21.3468 13.5 19.3076 13.5H11V11.5H19.3076C20.2423 11.5 21 10.7423 21 9.80762C21 8.87302 20.2422 8.11523 19.3076 8.11523C18.6932 8.11526 18.1541 8.44248 17.8564 8.93652L16.1436 7.9043C16.7881 6.83467 17.9634 6.11526 19.3076 6.11523ZM10.7695 1C13.1059 1.00016 14.9998 2.89412 15 5.23047C15 7.56696 13.106 9.46175 10.7695 9.46191H1V7.46191H10.7695C12.0014 7.46175 13 6.46239 13 5.23047C12.9998 3.99869 12.0013 3.00016 10.7695 3C9.95925 3 9.24837 3.43159 8.85645 4.08203L7.14355 3.0498C7.8823 1.82378 9.22936 1 10.7695 1Z" fill="#141414"/>
</svg>
