<svg width="24" height="24" viewBox="0 0 24 24" fill="none" xmlns="http://www.w3.org/2000/svg">
<path d="M11.9999 1C16.4182 1 20 4.58172 20 9V13.1963L21.7959 15.8906C22.6817 17.2196 21.729 18.9998 20.1318 19H16C16 21.2091 14.2091 23 11.9999 23C9.79091 22.9999 7.99993 21.2091 7.99993 19H3.86807C2.27115 18.9995 1.31836 17.2195 2.204 15.8906L3.99991 13.1963V9C3.99991 4.58182 7.58178 1.00016 11.9999 1ZM9.99994 19C9.99994 20.1045 10.8955 20.9999 11.9999 21C13.1045 21 14 20.1046 14 19H9.99994ZM11.9999 3C8.68636 3.00016 5.99992 5.68639 5.99992 9V13.5C5.99992 13.6974 5.94146 13.8904 5.83195 14.0547L3.86807 17H20.1318L18.1679 14.0547C18.0585 13.8904 18 13.6974 18 13.5V9C18 5.68629 15.3137 3 11.9999 3Z" fill="#141414"/>
</svg>
