<svg width="24" height="24" viewBox="0 0 24 24" fill="none" xmlns="http://www.w3.org/2000/svg">
<path d="M16.0312 2.41406L13.0078 5.41406V10.2676L17.2441 7.84082L18.2422 4.14355L20.1895 4.66113L19.3438 7.79297L22.5 8.63184L21.9785 10.5645L18.252 9.57324L14.0156 12L18.252 14.4268L21.9785 13.4355L22.5 15.3682L19.3438 16.207L20.1895 19.3389L18.2422 19.8564L17.2441 16.1592L13.0078 13.7324V18.5859L16.0312 21.5859L14.6064 23L12 20.4141L9.39355 23L7.96875 21.5859L10.9922 18.5859V13.7324L6.75586 16.1592L5.75781 19.8564L3.81055 19.3389L4.65625 16.207L1.5 15.3682L2.02148 13.4355L5.74805 14.4268L9.98438 12L5.74805 9.57324L2.02148 10.5635L1.5 8.63184L4.65625 7.79297L3.81055 4.66113L5.75781 4.14258L6.75586 7.84082L10.9922 10.2676V5.41406L7.96875 2.41406L9.39453 1L12 3.58594L14.6055 1L16.0312 2.41406Z" fill="#141414"/>
</svg>
