<svg width="24" height="24" viewBox="0 0 24 24" fill="none" xmlns="http://www.w3.org/2000/svg">
<path d="M11 3C12.8638 3 14.43 4.27477 14.874 6H17.5C18.759 6 19.9448 6.59336 20.7002 7.60059L22 9.33398C22.6488 10.1993 22.9999 11.2515 23 12.333V16.5C23 17.6046 22.1046 18.5 21 18.5H20.8545C20.4242 19.9457 19.0855 21 17.5 21C15.9145 21 14.5758 19.9457 14.1455 18.5H10.8545C10.4242 19.9457 9.08545 21 7.5 21C5.91455 21 4.57583 19.9457 4.14551 18.5H2.75C1.7835 18.5 1 17.7165 1 16.75V7C1 4.79086 2.79086 3 5 3H11ZM7.5 16C6.67157 16 6 16.6716 6 17.5C6 18.3284 6.67157 19 7.5 19C8.32843 19 9 18.3284 9 17.5C9 16.6716 8.32843 16 7.5 16ZM17.5 16C16.6716 16 16 16.6716 16 17.5C16 18.3284 16.6716 19 17.5 19C18.3284 19 19 18.3284 19 17.5C19 16.6716 18.3284 16 17.5 16ZM5 5C3.89543 5 3 5.89543 3 7V16.5H4.13379C4.53328 15.1049 5.78821 14.0745 7.29492 14.0068C7.32058 14.0054 7.34627 14.0039 7.37207 14.0029C7.3987 14.0023 7.42537 14 7.45215 14H7.54785L7.67969 14.0049C7.68817 14.0053 7.69661 14.0063 7.70508 14.0068C9.21179 14.0745 10.4667 15.1049 10.8662 16.5H13V7C13 5.89543 12.1046 5 11 5H5ZM15 15.0518C15.2212 14.8259 15.4727 14.6303 15.748 14.4707C15.8178 14.4302 15.8882 14.3902 15.9609 14.3545C15.9988 14.3359 16.0375 14.319 16.0762 14.3018C16.0947 14.2935 16.1132 14.2853 16.1318 14.2773C16.3196 14.1975 16.5159 14.1341 16.7188 14.0879C16.7428 14.0824 16.7668 14.0763 16.791 14.0713C16.8121 14.067 16.8333 14.0635 16.8545 14.0596C16.8908 14.0528 16.9272 14.0457 16.9639 14.04C16.9736 14.0385 16.9834 14.0375 16.9932 14.0361C17.1586 14.0121 17.3279 14 17.5 14C17.5811 14 17.6615 14.0034 17.7412 14.0088C17.7723 14.0109 17.8032 14.0137 17.834 14.0166C17.9109 14.0239 17.9871 14.0327 18.0625 14.0449C18.0818 14.048 18.1009 14.0522 18.1201 14.0557C18.1885 14.0679 18.2563 14.0815 18.3232 14.0977C18.3395 14.1016 18.3559 14.1052 18.3721 14.1094C18.4541 14.1304 18.5347 14.1549 18.6143 14.1816C18.6247 14.1851 18.6351 14.1888 18.6455 14.1924C18.7278 14.2209 18.8084 14.2528 18.8877 14.2871C18.8921 14.289 18.8969 14.2901 18.9014 14.292C18.9792 14.3261 19.0551 14.3639 19.1299 14.4033C19.1372 14.4072 19.145 14.4101 19.1523 14.4141C19.2236 14.4523 19.2931 14.4932 19.3613 14.5361C19.3753 14.5449 19.3895 14.5535 19.4033 14.5625C19.6197 14.703 19.8191 14.8673 19.999 15.0508C20.0145 15.0666 20.0298 15.0826 20.0449 15.0986C20.1562 15.2165 20.2593 15.3421 20.3535 15.4746C20.3626 15.4873 20.372 15.4998 20.3809 15.5127C20.4284 15.5815 20.473 15.6524 20.5156 15.7246C20.5194 15.731 20.5226 15.7377 20.5264 15.7441C20.613 15.8932 20.6887 16.049 20.7529 16.2109C20.7579 16.2234 20.7638 16.2355 20.7686 16.248C20.8002 16.3306 20.8291 16.4146 20.8545 16.5H21V12.333C21 12.2213 20.9918 12.1102 20.9795 12H15V15.0518ZM15 10H20.001L19.1006 8.7998C18.7229 8.29629 18.1294 8 17.5 8H15V10Z" fill="#141414"/>
</svg>
