<svg width="24" height="24" viewBox="0 0 24 24" fill="none" xmlns="http://www.w3.org/2000/svg">
<path d="M10.333 5.0898C13.0019 2.30316 17.3292 2.30331 19.9981 5.0898C22.6669 7.87655 22.6669 12.3948 19.9981 15.1816L14.8516 20.5556L13.4717 19.1142L18.6172 13.7402C20.5236 11.7496 20.5236 8.52276 18.6172 6.53218C16.7109 4.54162 13.6203 4.54161 11.7139 6.53218L4.81057 13.7402C3.66675 14.9345 3.66675 16.8711 4.81057 18.0654C5.95434 19.2597 7.80835 19.2596 8.95217 18.0654L15.5108 11.2177C15.892 10.8196 15.892 10.1735 15.5108 9.77535C15.1295 9.37751 14.5111 9.37734 14.1299 9.77535L7.57229 16.624L6.19143 15.1816L12.7491 8.33394C13.8929 7.13962 15.7478 7.13965 16.8916 8.33394C18.0355 9.52829 18.0355 11.4648 16.8916 12.6591L10.333 19.5068C8.42667 21.4974 5.33608 21.4974 3.42971 19.5068C1.52355 17.5162 1.52347 14.2893 3.42971 12.2988L10.333 5.0898Z" fill="#141414"/>
</svg>
