<svg width="24" height="24" viewBox="0 0 24 24" fill="none" xmlns="http://www.w3.org/2000/svg">
<path d="M12 1C18.0751 1 23 5.92487 23 12H21C21 7.02944 16.9706 3 12 3C7.02944 3 3 7.02944 3 12C3 16.9706 7.02944 21 12 21C14.9594 21 17.5865 19.5717 19.2275 17.3643H15.4141V15.3643H21C21.5523 15.3643 22 15.812 22 16.3643V22H20V19.5498C17.9951 21.6735 15.1529 23 12 23C5.92487 23 1 18.0751 1 12C1 5.92487 5.92487 1 12 1ZM12 12.5361L13.9639 14.5L12.5498 15.9141L10.293 13.6572C10.1055 13.4698 10.0001 13.2153 10 12.9502V7.08594H12V12.5361Z" fill="#141414"/>
</svg>
