<svg width="24" height="24" viewBox="0 0 24 24" fill="none" xmlns="http://www.w3.org/2000/svg">
<path d="M4 2H9C10.6569 2 12 3.34315 12 5V7C12 7.351 11.9369 7.68694 11.8262 8H14C15.6569 8 17 9.34315 17 11V13C17 13.351 16.9369 13.6869 16.8262 14H19C20.6569 14 22 15.3431 22 17V19C22 20.6569 20.6569 22 19 22H4V23H2V1H4V2ZM4 20H19C19.5523 20 20 19.5523 20 19V17C20 16.4477 19.5523 16 19 16H4V20ZM4 14H14C14.5523 14 15 13.5523 15 13V11C15 10.4477 14.5523 10 14 10H4V14ZM4 4V8H9C9.55228 8 10 7.55228 10 7V5C10 4.44772 9.55228 4 9 4H4Z" fill="#141414"/>
</svg>
