<svg width="24" height="24" viewBox="0 0 24 24" fill="none" xmlns="http://www.w3.org/2000/svg">
<path d="M7.82324 2C8.64079 2.00011 9.37589 2.49784 9.67969 3.25684L11.1836 7.0166C11.4806 7.75939 11.3069 8.60815 10.7412 9.17383L9.75488 10.1582C10.7902 11.8118 12.1873 13.2087 13.8408 14.2441L14.8262 13.2588C15.3918 12.6931 16.2406 12.5194 16.9834 12.8164L20.7432 14.3203C21.5022 14.6241 21.9999 15.3592 22 16.1768V19C22 20.6569 20.6569 22 19 22C9.61116 22 2 14.3888 2 5C2 3.34315 3.34315 2 5 2H7.82324ZM5 4C4.44772 4 4 4.44772 4 5C4 13.2843 10.7157 20 19 20C19.5523 20 20 19.5523 20 19V16.1768L16.2412 14.6738L14.8779 16.0361C14.4584 16.4557 13.8091 16.5434 13.2939 16.249C10.9847 14.9294 9.0706 13.0153 7.75098 10.7061C7.45658 10.1909 7.54429 9.54165 7.96387 9.12207L9.32617 7.75879L7.82324 4H5ZM20.999 2C21.5513 2 21.999 2.44772 21.999 3V8.5H19.999V5.41406L15.9746 9.43945L14.5596 8.02539L18.585 4H15.499V2H20.999Z" fill="#141414"/>
</svg>
