<svg width="24" height="24" viewBox="0 0 24 24" fill="none" xmlns="http://www.w3.org/2000/svg">
<path d="M12 1C15.4328 1 18.4974 2.5732 20.5146 5.03711C20.5195 5.04301 20.5245 5.04878 20.5293 5.05469C21.077 5.72644 21.5464 6.46406 21.9248 7.25391C21.9373 7.28004 21.9486 7.30676 21.9609 7.33301C22.3558 8.1743 22.6457 9.07337 22.8174 10.0146C22.8178 10.017 22.8189 10.0192 22.8193 10.0215C22.8201 10.026 22.8205 10.0307 22.8213 10.0352C22.8379 10.127 22.8558 10.2189 22.8701 10.3115C22.9389 10.7577 22.9778 11.2127 22.9912 11.6748C22.9945 11.7828 23 11.8911 23 12C23 12.3111 22.9843 12.6193 22.959 12.9238C22.9291 13.2827 22.8809 13.6361 22.8174 13.9844C22.8053 14.0508 22.7955 14.1176 22.7822 14.1836C22.7713 14.2379 22.7578 14.2917 22.7461 14.3457C22.7194 14.4687 22.6929 14.5915 22.6621 14.7129C22.6346 14.8212 22.6029 14.9281 22.5723 15.0352C22.5552 15.0948 22.5395 15.1547 22.5215 15.2139C22.4816 15.3446 22.4381 15.4739 22.3936 15.6025C22.3801 15.6413 22.3674 15.6802 22.3535 15.7188C22.3134 15.8305 22.2702 15.9408 22.2266 16.0508C22.2031 16.1101 22.1808 16.1697 22.1562 16.2285C22.1214 16.312 22.0837 16.3941 22.0469 16.4766C22.0125 16.5537 21.9785 16.6309 21.9424 16.707C21.9024 16.7913 21.8594 16.8739 21.8174 16.957C21.7772 17.0363 21.7383 17.1161 21.6963 17.1943C21.6496 17.2814 21.5998 17.3665 21.5508 17.4521C21.5172 17.5108 21.4848 17.57 21.4502 17.6279C21.3937 17.7226 21.3346 17.8154 21.2754 17.9082C21.239 17.9652 21.2035 18.0228 21.166 18.0791C21.1078 18.1666 21.0469 18.2521 20.9863 18.3379C20.9463 18.3946 20.9073 18.4519 20.8662 18.5078C20.8055 18.5904 20.7426 18.6712 20.6797 18.752C20.6369 18.8068 20.5946 18.862 20.5508 18.916C20.4744 19.0103 20.3958 19.1026 20.3164 19.1943C20.2871 19.2282 20.2582 19.2624 20.2285 19.2959C20.1355 19.4007 20.0402 19.5033 19.9434 19.6045C19.9238 19.6249 19.9045 19.6457 19.8848 19.666C19.7893 19.7642 19.6919 19.8605 19.5928 19.9551C19.5668 19.9799 19.5409 20.0048 19.5146 20.0293C19.4108 20.1265 19.3048 20.2213 19.1973 20.3145C19.173 20.3355 19.1485 20.3562 19.124 20.377C19.0145 20.4702 18.9032 20.5614 18.79 20.6504C18.774 20.663 18.7583 20.676 18.7422 20.6885C18.627 20.778 18.5094 20.8642 18.3906 20.9492C18.3593 20.9716 18.3284 20.9945 18.2969 21.0166C18.1833 21.0961 18.0678 21.1728 17.9512 21.248C17.9245 21.2653 17.898 21.2828 17.8711 21.2998C17.7493 21.3768 17.6259 21.4511 17.501 21.5234C17.476 21.5379 17.4509 21.5521 17.4258 21.5664C17.3064 21.6342 17.1855 21.6993 17.0635 21.7627C17.0232 21.7836 16.983 21.8048 16.9424 21.8252C16.9361 21.8283 16.9301 21.8318 16.9238 21.835C16.9063 21.8438 16.8887 21.8526 16.8711 21.8613C16.7791 21.9068 16.6862 21.9502 16.5928 21.9932C16.5638 22.0065 16.535 22.0201 16.5059 22.0332C16.4837 22.0432 16.4617 22.0536 16.4395 22.0635C16.3271 22.1131 16.2139 22.1611 16.0996 22.207C16.0707 22.2187 16.0417 22.2298 16.0127 22.2412C15.8912 22.2889 15.7691 22.3355 15.6455 22.3789C15.6352 22.3825 15.6246 22.3851 15.6143 22.3887C15.6016 22.3931 15.5888 22.397 15.5762 22.4014C15.5638 22.4056 15.5514 22.4099 15.5391 22.4141C15.2217 22.5219 14.898 22.6145 14.5684 22.6934C14.5459 22.6987 14.5235 22.7047 14.501 22.71C14.4311 22.7263 14.3614 22.7438 14.291 22.7588C14.2081 22.7764 14.1246 22.791 14.041 22.8066C14.0287 22.809 14.0163 22.8112 14.0039 22.8135C13.9276 22.8276 13.8513 22.842 13.7744 22.8545C13.702 22.8662 13.6295 22.8774 13.5566 22.8877C13.4539 22.9023 13.3507 22.915 13.2471 22.9268C13.1798 22.9344 13.1126 22.9428 13.0449 22.9492C12.9153 22.9615 12.7851 22.9708 12.6543 22.9785C12.6166 22.9807 12.5788 22.9835 12.541 22.9854C12.3617 22.9941 12.1814 23 12 23C11.6215 23 11.2475 22.9807 10.8789 22.9434C10.7906 22.9344 10.7029 22.9212 10.6152 22.9102C10.5215 22.8984 10.4279 22.8882 10.335 22.874C9.97971 22.8201 9.63035 22.7482 9.28711 22.6611C9.28129 22.6597 9.27534 22.6587 9.26953 22.6572C8.60457 22.4874 7.96475 22.2555 7.35449 21.9707C7.32241 21.9557 7.28973 21.942 7.25781 21.9268C6.63717 21.6297 6.0496 21.2754 5.5 20.8721C5.48514 20.8612 5.46988 20.8508 5.45508 20.8398C5.33423 20.7502 5.21561 20.6579 5.09863 20.5635C5.07933 20.5479 5.05924 20.5333 5.04004 20.5176C2.5743 18.5004 1 15.4343 1 12C1 11.6346 1.01786 11.2733 1.05273 10.917C1.05493 10.8945 1.05724 10.8721 1.05957 10.8496C1.07632 10.6887 1.09747 10.5289 1.12109 10.3701C1.12545 10.3408 1.13017 10.3115 1.13477 10.2822C1.16041 10.1189 1.18893 9.95673 1.22168 9.7959C1.22474 9.78088 1.22833 9.76598 1.23145 9.75098C1.26469 9.59119 1.30072 9.43255 1.34082 9.27539C1.34948 9.24139 1.35918 9.2077 1.36816 9.17383C1.40461 9.03653 1.44183 8.89978 1.4834 8.76465C1.49596 8.72378 1.50944 8.68324 1.52246 8.64258C1.55755 8.53308 1.59441 8.42437 1.63281 8.31641C1.65653 8.24967 1.68109 8.18333 1.70605 8.11719C1.744 8.01672 1.78442 7.9174 1.8252 7.81836C1.85015 7.7577 1.87439 7.69683 1.90039 7.63672C1.94861 7.52533 1.99902 7.4151 2.05078 7.30566C2.06971 7.26562 2.08803 7.22532 2.10742 7.18555C2.16092 7.0759 2.21742 6.96792 2.27441 6.86035C2.34004 6.73643 2.40835 6.61422 2.47852 6.49316C2.5018 6.45301 2.52505 6.41288 2.54883 6.37305C2.6346 6.22929 2.72338 6.08766 2.81543 5.94824C2.82464 5.9343 2.83351 5.92015 2.84277 5.90625C2.9339 5.76959 3.02801 5.63519 3.125 5.50293C3.13771 5.4856 3.1493 5.46745 3.16211 5.4502C3.22063 5.37137 3.28222 5.29496 3.34277 5.21777C3.36038 5.19533 3.37774 5.1727 3.39551 5.15039C3.47599 5.04943 3.55769 4.94959 3.6416 4.85156C3.6542 4.83683 3.66701 4.82228 3.67969 4.80762C4.03849 4.39292 4.42748 4.00546 4.84375 3.64844C4.87178 3.62439 4.89946 3.59994 4.92773 3.57617C5.00569 3.51066 5.08527 3.44716 5.16504 3.38379C5.21332 3.34543 5.26162 3.30709 5.31055 3.26953C5.3862 3.21147 5.46285 3.15475 5.54004 3.09863C5.59175 3.06103 5.6439 3.02402 5.69629 2.9873C5.77428 2.93265 5.85218 2.87786 5.93164 2.8252C5.98408 2.79043 6.03775 2.75752 6.09082 2.72363C6.37086 2.54487 6.65951 2.37892 6.95605 2.22559C7.02326 2.19083 7.0902 2.15547 7.1582 2.12207C7.23697 2.08339 7.31667 2.0466 7.39648 2.00977C7.46681 1.97731 7.53728 1.94507 7.6084 1.91406C7.69096 1.87806 7.77382 1.84261 7.85742 1.80859C7.91925 1.78344 7.98157 1.75941 8.04395 1.73535C8.13946 1.69852 8.23525 1.66215 8.33203 1.62793C8.3748 1.6128 8.41792 1.59859 8.46094 1.58398C8.80765 1.46622 9.16216 1.36635 9.52344 1.2832C9.58293 1.26951 9.64229 1.25491 9.70215 1.24219C9.79833 1.22174 9.89509 1.20346 9.99219 1.18555C10.0597 1.17309 10.1273 1.16063 10.1953 1.14941C10.2968 1.13267 10.3986 1.11747 10.501 1.10352C10.5588 1.09564 10.6167 1.08901 10.6748 1.08203C10.7828 1.06906 10.8911 1.05669 11 1.04688C11.0656 1.04096 11.1314 1.03698 11.1973 1.03223C11.2969 1.02504 11.3967 1.01721 11.4971 1.0127C11.5039 1.01239 11.5107 1.01201 11.5176 1.01172C11.5234 1.01147 11.5293 1.01187 11.5352 1.01172C11.6893 1.00531 11.8442 1 12 1ZM11.5664 11.5664C9.23842 13.8944 7.42751 16.4193 6.19629 18.875C6.48751 19.1212 6.79429 19.3495 7.11523 19.5576C7.12236 19.5622 7.12958 19.5667 7.13672 19.5713C7.76545 19.9765 8.44808 20.3042 9.1709 20.5439C9.82463 20.7603 10.5112 20.902 11.2217 20.9629C11.0338 18.2756 11.8285 15.5308 13.6084 13.3145C13.0839 12.5544 12.5374 11.8368 11.9756 11.1631C11.8383 11.2955 11.7024 11.4304 11.5664 11.5664ZM14.7637 15.1123C13.5765 16.8446 13.0626 18.8991 13.2236 20.9131C14.1708 20.7844 15.0708 20.5077 15.9004 20.1084C16.2317 19.9483 16.552 19.7692 16.8594 19.5713C16.8853 19.5546 16.9108 19.5374 16.9365 19.5205C16.4025 18.1738 15.7481 16.8111 14.9697 15.4629C14.9017 15.3451 14.8327 15.2285 14.7637 15.1123ZM20.9678 11.2783C19.2211 11.5165 17.5322 12.2658 16.1426 13.5293C16.3328 13.8357 16.5196 14.1468 16.7021 14.4629C17.4114 15.6913 18.0253 16.9339 18.5459 18.1709C18.7034 18.004 18.8555 17.8319 19 17.6533C19.0185 17.6304 19.0364 17.6071 19.0547 17.584C19.5132 17.0059 19.9013 16.3703 20.208 15.6895C20.6334 14.7446 20.8996 13.7142 20.9746 12.6299C20.989 12.4218 21 12.2117 21 12L20.999 11.9551C20.9984 11.8291 20.995 11.7038 20.9893 11.5791C20.9843 11.4785 20.976 11.3782 20.9678 11.2783ZM9.00098 8.12598C7.28371 9.61369 5.21605 10.4803 3.08984 10.7285C3.06421 10.9097 3.04592 11.0928 3.03125 11.2773C3.01227 11.5158 3 11.7566 3 12C3 13.9939 3.64962 15.8355 4.74707 17.3271C6.06378 14.8781 7.88679 12.4179 10.1523 10.1523C10.3141 9.99057 10.476 9.8301 10.6396 9.67285C10.1013 9.11613 9.55342 8.60009 9.00098 8.12598ZM18.875 6.19629C17.0729 7.0998 15.2334 8.31524 13.4619 9.81836C14.0008 10.4611 14.5239 11.139 15.0273 11.8496C16.6521 10.4516 18.5878 9.60671 20.5889 9.31348C20.5738 9.26517 20.5589 9.2169 20.543 9.16895C20.1779 8.06904 19.6075 7.06285 18.875 6.19629ZM5.54004 5.73828C4.88959 6.40896 4.34457 7.18072 3.92676 8.02637C3.88206 8.11704 3.83858 8.20841 3.79688 8.30078C3.77633 8.34617 3.75613 8.39171 3.73633 8.4375C3.71127 8.49557 3.68597 8.55361 3.66211 8.6123C4.99274 8.33385 6.27094 7.75228 7.38867 6.86719C6.7704 6.43476 6.15212 6.05728 5.54004 5.73828ZM12.3301 3.00781C11.9336 4.31677 11.2891 5.56696 10.3945 6.68262C10.9817 7.19146 11.5599 7.74185 12.126 8.33008C13.8153 6.89148 15.5746 5.68974 17.3281 4.74707C15.919 3.71018 14.1973 3.07514 12.3301 3.00781ZM10.0713 3.20898C9.86209 3.25467 9.65563 3.30723 9.45215 3.36719C9.36766 3.39209 9.28363 3.41802 9.2002 3.44531C8.98827 3.51463 8.77986 3.59148 8.5752 3.67578C8.50865 3.7032 8.44268 3.73179 8.37695 3.76074C8.07111 3.89543 7.77418 4.04628 7.4873 4.21289C7.39502 4.26651 7.30404 4.32214 7.21387 4.37891C7.75388 4.69504 8.29197 5.04955 8.82715 5.4375C9.38433 4.74312 9.82423 3.98666 10.1455 3.19238C10.1207 3.19758 10.096 3.20358 10.0713 3.20898Z" fill="#141414"/>
</svg>
