<svg width="24" height="24" viewBox="0 0 24 24" fill="none" xmlns="http://www.w3.org/2000/svg">
<path d="M14 1C15.1046 1 16 1.89543 16 3V5.85742L20.0576 9.67969C20.6592 10.2465 20.9999 11.0367 21 11.8633V20C21 21.6569 19.6569 23 18 23H6C4.34315 23 3 21.6569 3 20V11.8848C3 11.0395 3.357 10.2336 3.98242 9.66504L8.5 5.55664V3C8.5 1.89543 9.39543 1 10.5 1H14ZM5.32715 11.1445C5.11867 11.3341 5 11.603 5 11.8848V20C5 20.5523 5.44772 21 6 21H13C13.5523 21 14 20.5523 14 20V11.8848C14 11.603 13.8813 11.3341 13.6729 11.1445L9.5 7.35156L5.32715 11.1445ZM16 20C16 20.2509 15.9653 20.4936 15.9072 20.7266C15.9024 20.7455 15.8977 20.7644 15.8926 20.7832C15.8728 20.8566 15.8513 20.9289 15.8262 21H18C18.5523 21 19 20.5523 19 20V12H16V20ZM8.75684 13.3643C9.13395 12.8785 9.86605 12.8785 10.2432 13.3643L11.4717 14.9473C12.2472 15.9464 12.1598 17.3689 11.2676 18.2646C10.2912 19.2448 8.70878 19.2448 7.73242 18.2646C6.89584 17.4247 6.76698 16.1216 7.39355 15.1387L7.52832 14.9473L8.75684 13.3643ZM15.0176 9.66504C15.0957 9.73604 15.1697 9.81065 15.2393 9.88867C15.2716 9.92495 15.3026 9.96232 15.333 10H17.4805L14.2969 7H12.0869L15.0176 9.66504ZM10.5 5H14V3H10.5V5Z" fill="#141414"/>
</svg>
