<svg width="24" height="24" viewBox="0 0 24 24" fill="none" xmlns="http://www.w3.org/2000/svg">
<path d="M7.5 2C8.82987 2 10.0483 2.47437 10.998 3.25879C11.4682 3.09204 11.9737 3 12.5 3C14.4818 3 16.1623 4.28086 16.7627 6.05957C17.0031 6.02008 17.2495 6 17.5 6C19.9853 6 22 8.01472 22 10.5C22 11.8287 21.4218 13.0186 20.5088 13.8408C20.8227 14.4944 21 15.2267 21 16C21 17.0191 20.6944 17.9664 20.1709 18.7568L22.707 21.293L21.293 22.707L18.7568 20.1709C17.9664 20.6944 17.0191 21 16 21C15.2267 21 14.4944 20.8227 13.8408 20.5088C13.0186 21.4218 11.8287 22 10.5 22C8.01472 22 6 19.9853 6 17.5C6 17.2495 6.02008 17.0031 6.05957 16.7627C4.28086 16.1623 3 14.4818 3 12.5C3 11.9737 3.09204 11.4682 3.25879 10.998C2.47437 10.0483 2 8.82987 2 7.5C2 4.46243 4.46243 2 7.5 2ZM7.5 4C5.567 4 4 5.567 4 7.5C4 8.51313 4.43017 9.42436 5.12109 10.0654C5.45905 10.3789 5.53888 10.8835 5.31445 11.2861C5.11427 11.6455 5 12.0582 5 12.5C5 13.8412 6.05717 14.9356 7.38379 14.9961C7.71832 15.0115 8.02297 15.1933 8.19531 15.4805C8.36768 15.7679 8.38447 16.1233 8.24023 16.4258C8.08642 16.7485 8 17.1122 8 17.5C8 18.8807 9.11929 20 10.5 20C11.4444 20 12.2681 19.4762 12.6943 18.6973L12.751 18.6045C12.8955 18.3972 13.1144 18.2511 13.3643 18.1982C13.6497 18.1379 13.948 18.2054 14.1797 18.3828C14.6856 18.7701 15.3147 19 16 19C16.4626 19 16.8988 18.8911 17.29 18.7041L11.6924 13.1064L8.24219 13.9697L7.75781 12.0303L10.0439 11.458L7.29297 8.70703L8.70703 7.29297L14.6689 13.2549L15.0049 9.90039L16.9951 10.0996L16.4961 15.082L18.7041 17.29C18.8911 16.8988 19 16.4626 19 16C19 15.3147 18.7701 14.6856 18.3828 14.1797C18.2054 13.948 18.1379 13.6497 18.1982 13.3643C18.2586 13.0788 18.4413 12.8344 18.6973 12.6943C19.4762 12.2681 20 11.4444 20 10.5C20 9.11929 18.8807 8 17.5 8C17.1122 8 16.7485 8.08642 16.4258 8.24023C16.1233 8.38447 15.7679 8.36768 15.4805 8.19531C15.1933 8.02297 15.0115 7.71832 14.9961 7.38379C14.9356 6.05717 13.8412 5 12.5 5C12.0582 5 11.6455 5.11427 11.2861 5.31445C10.8835 5.53888 10.3789 5.45905 10.0654 5.12109C9.42436 4.43017 8.51313 4 7.5 4Z" fill="#141414"/>
</svg>
