<svg width="24" height="24" viewBox="0 0 24 24" fill="none" xmlns="http://www.w3.org/2000/svg">
<path d="M18.293 15.293C18.6834 14.9025 19.3165 14.9026 19.707 15.293L23 18.5859L21.5859 20L20 18.4141V23H18V18.4141L16.415 20L15.001 18.5859L18.293 15.293ZM18 2C20.2091 2 22 3.79086 22 6V12H20V6C20 4.89543 19.1046 4 18 4H6C4.89543 4 4 4.89543 4 6V18C4 18.3967 4.11724 18.7652 4.31641 19.0762C5.11831 16.7063 7.35934 15 10 15H12V17H10C8.13616 17 6.57002 18.2748 6.12598 20H12V22H6C3.79086 22 2 20.2091 2 18V6C2 3.79086 3.79086 2 6 2H18ZM12 5.5C14.2091 5.5 16 7.29086 16 9.5C16 11.7091 14.2091 13.5 12 13.5C9.79086 13.5 8 11.7091 8 9.5C8 7.29086 9.79086 5.5 12 5.5ZM12 7.5C10.8954 7.5 10 8.39543 10 9.5C10 10.6046 10.8954 11.5 12 11.5C13.1046 11.5 14 10.6046 14 9.5C14 8.39543 13.1046 7.5 12 7.5Z" fill="#141414"/>
</svg>
