<svg width="24" height="24" viewBox="0 0 24 24" fill="none" xmlns="http://www.w3.org/2000/svg">
<path d="M14 1C15.6569 1 17 2.34315 17 4V5H22.5V7H20.9395L20.1738 19.25C20.0418 21.3579 18.2937 23 16.1816 23H7.81836C5.70627 23 3.95817 21.3579 3.82617 19.25L3.06055 7H1.5V5H7V4C7 2.34315 8.34315 1 10 1H14ZM5.82227 19.125C5.88826 20.179 6.76231 21 7.81836 21H16.1816C17.2377 21 18.1117 20.179 18.1777 19.125L18.9355 7H5.06445L5.82227 19.125ZM11 18H9V10H11V18ZM15 18H13V10H15V18ZM10 3C9.44772 3 9 3.44772 9 4V5H15V4C15 3.44772 14.5523 3 14 3H10Z" fill="#141414"/>
</svg>
