<svg width="24" height="24" viewBox="0 0 24 24" fill="none" xmlns="http://www.w3.org/2000/svg">
<path d="M17.5306 1.86509C18.8148 0.678544 20.8089 0.716809 22.0463 1.952C23.2836 3.18722 23.3218 5.17789 22.1332 6.45981L13.723 15.5282C13.7193 15.5322 13.7151 15.5359 13.7113 15.5399L12.8461 16.4725C12.8168 16.504 12.7878 16.5353 12.7592 16.5663C12.3673 16.9898 12.0298 17.3551 11.642 17.5838C11.1763 17.8584 10.6545 17.9998 10.1312 18.0067C10.2416 19.3013 9.80032 20.6342 8.80798 21.6249C7.85244 22.5788 6.53765 22.8664 5.37439 22.9588C4.58558 23.0215 3.71029 22.9992 2.94666 22.9793C2.60903 22.9706 2.29285 22.9618 2.01599 22.9618C1.66208 22.9616 1.33337 22.7779 1.1488 22.4764C0.964325 22.1749 0.950247 21.7987 1.11169 21.4842C1.474 20.7783 1.44119 19.9457 1.39587 18.8182C1.39452 18.7845 1.39333 18.7499 1.39197 18.7157L1.39002 18.6903C1.34991 17.6867 1.29137 16.2141 2.33923 15.1678C3.33168 14.1771 4.66729 13.7373 5.96423 13.8475C5.97106 13.325 6.112 12.8037 6.38709 12.3387C6.61621 11.9514 6.98224 11.6139 7.40662 11.2225C7.43747 11.1941 7.46892 11.1656 7.50037 11.1366L17.5306 1.86509ZM7.37048 16.6024C6.37819 15.6119 4.769 15.6119 3.77673 16.6024C3.44469 16.9339 3.37549 17.4619 3.42224 18.6346C3.4253 18.7114 3.42929 18.7917 3.43298 18.8739C3.45989 19.4724 3.49315 20.2058 3.37634 20.9588C3.99876 20.975 4.60276 20.9849 5.21326 20.9364C6.23074 20.8555 6.93681 20.6231 7.37048 20.1903C8.36278 19.1997 8.36278 17.593 7.37048 16.6024ZM8.88123 12.6249C8.30886 13.1539 8.19448 13.2756 8.13806 13.3709C7.95685 13.6772 7.94925 14.056 8.11853 14.369C8.17127 14.4664 8.28205 14.5921 8.83337 15.1424C9.38409 15.6922 9.51024 15.8026 9.60779 15.8553C9.92132 16.0243 10.301 16.0176 10.6078 15.8368C10.7033 15.7804 10.8248 15.6651 11.3549 15.0936L11.5599 14.8719L9.10388 12.4198L8.88123 12.6249ZM20.6088 3.38755C20.1437 2.92327 19.3942 2.90837 18.9115 3.35434L10.5961 11.0399L12.9427 13.3817L20.641 5.08188C21.0878 4.60013 21.0737 3.8519 20.6088 3.38755Z" fill="#141414"/>
</svg>
