<svg width="24" height="24" viewBox="0 0 24 24" fill="none" xmlns="http://www.w3.org/2000/svg">
<path d="M21.4922 19.8418L20.0781 21.2559L15.8223 17H13V23H11V17H4.72363C3.18857 16.9995 2.22508 15.3408 2.98633 14.0078L5.62109 9.39746C5.84165 9.01137 5.92713 8.56225 5.86426 8.12207L5.68359 6.8623L2.40039 3.5791L3.81445 2.16406L21.4922 19.8418ZM14.541 1C16.9749 1.00021 18.845 3.15595 18.501 5.56543L18.1357 8.12207C18.0729 8.56218 18.1584 9.01142 18.3789 9.39746L21.0137 14.0078C21.466 14.7998 21.3094 15.7067 20.7861 16.3125L19.0127 14.5391L16.6426 10.3896C16.2015 9.61754 16.0296 8.72014 16.1553 7.83984L16.5205 5.2832C16.6926 4.07847 15.7579 3.00021 14.541 3H9.45898C8.9063 3.00019 8.41264 3.22431 8.05371 3.58008L6.63867 2.16504C7.35743 1.44922 8.34952 1.00019 9.45898 1H14.541ZM7.83496 9.01367C7.76075 9.49447 7.60201 9.96156 7.35742 10.3896L4.72363 15H13.8223L7.83496 9.01367Z" fill="#141414"/>
</svg>
