<svg width="24" height="24" viewBox="0 0 24 24" fill="none" xmlns="http://www.w3.org/2000/svg">
<path d="M17 2C18.6569 2 20 3.34315 20 5V6.53613C21.1954 7.22781 22 8.51962 22 10V18C22 20.2091 20.2091 22 18 22H6C3.79086 22 2 20.2091 2 18V5C2 3.34315 3.34315 2 5 2H17ZM4 18C4 19.1046 4.89543 20 6 20H18C19.1046 20 20 19.1046 20 18V10C20 8.89543 19.1046 8 18 8H4V18ZM16.5 10C17.3284 10 18 10.6716 18 11.5C18 12.3284 17.3284 13 16.5 13C15.6716 13 15 12.3284 15 11.5C15 10.6716 15.6716 10 16.5 10ZM5 4C4.44772 4 4 4.44772 4 5V6H18V5C18 4.44772 17.5523 4 17 4H5Z" fill="#141414"/>
</svg>
