<svg width="24" height="24" viewBox="0 0 24 24" fill="none" xmlns="http://www.w3.org/2000/svg">
<path d="M16.1415 2C16.9636 2.00013 17.75 2.33755 18.3163 2.93359L22.1874 7.00878C23.243 8.12009 23.2908 9.84826 22.2987 11.0166L13.5243 21.3496C12.7256 22.29 11.2742 22.29 10.4755 21.3496L1.70013 11.0166C0.708254 9.84823 0.756865 8.11998 1.81243 7.00878L5.68352 2.93359C6.24986 2.33755 7.03612 2.00003 7.85832 2H16.1415ZM11.9999 18.4004L15.5009 9.99999H8.49894L11.9999 18.4004ZM9.1005 16.6416L6.33391 9.99999H3.45989L9.1005 16.6416ZM14.8983 16.6406L20.539 9.99999H17.6659L14.8983 16.6406ZM17.6181 7.99999H20.371L16.8661 4.31152C16.6774 4.11294 16.4154 4.00013 16.1415 4H15.6181L17.6181 7.99999ZM8.61808 7.99999H15.3817L13.3817 4H10.6181L8.61808 7.99999ZM7.85832 4C7.58428 4.00003 7.32247 4.11286 7.13371 4.31152L3.62884 7.99999H6.38176L8.38175 4H7.85832Z" fill="#141414"/>
</svg>
