<svg width="24" height="24" viewBox="0 0 24 24" fill="none" xmlns="http://www.w3.org/2000/svg">
<path d="M11.5 14.0273V16.0166H8.07617C6.00364 16.0166 4.22231 17.2482 3.44238 19.0098C3.17189 19.6207 3.02148 20.2955 3.02148 21.0049H8.75V23H3.02148C1.90503 22.9999 1 22.1067 1 21.0049C1 17.1483 4.16826 14.0215 8.07617 14.0215C10.1883 14.0215 11.4983 14.0273 11.5 14.0273ZM18.6504 12C19.6454 11.0181 21.2589 11.0181 22.2539 12C23.2488 12.9819 23.2487 14.5738 22.2539 15.5557L16.0947 21.6357C15.9838 21.7452 15.8481 21.827 15.6992 21.876L12.4385 22.9492C12.0754 23.0684 11.6749 22.975 11.4043 22.708C11.1336 22.4408 11.0391 22.045 11.1602 21.6865L12.2471 18.4697C12.2967 18.3228 12.3802 18.1886 12.4912 18.0791L18.6504 12ZM20.8242 13.4111C20.6188 13.2084 20.2855 13.2084 20.0801 13.4111L14.0898 19.3232L13.7178 20.4248L14.834 20.0576L20.8242 14.1455C21.0296 13.9428 21.0295 13.6139 20.8242 13.4111ZM11.1084 2C13.8998 2 16.1631 4.23359 16.1631 6.98828C16.1628 9.74275 13.8996 11.9756 11.1084 11.9756C8.31721 11.9756 6.05495 9.74274 6.05469 6.98828C6.05469 4.2336 8.31705 2.00001 11.1084 2ZM11.1084 3.99512C9.43359 3.99513 8.07617 5.33548 8.07617 6.98828C8.07643 8.64087 9.43375 9.98046 11.1084 9.98047C12.7831 9.98047 14.1404 8.64087 14.1406 6.98828C14.1406 5.33547 12.7832 3.99512 11.1084 3.99512Z" fill="#141414"/>
</svg>
