<svg width="24" height="24" viewBox="0 0 24 24" fill="none" xmlns="http://www.w3.org/2000/svg">
<path d="M6 2C8.20914 2 10 3.79086 10 6C10 7.86384 8.72523 9.42998 7 9.87402V22H5V9.87402C3.27477 9.42998 2 7.86384 2 6C2 3.79086 3.79086 2 6 2ZM15 5C17.2091 5 19 6.79086 19 9V14.126C20.7252 14.57 22 16.1362 22 18C22 20.2091 20.2091 22 18 22C15.7909 22 14 20.2091 14 18C14 16.1362 15.2748 14.57 17 14.126V9C17 7.89543 16.1046 7 15 7H12V5H15ZM18 16C16.8954 16 16 16.8954 16 18C16 19.1046 16.8954 20 18 20C19.1046 20 20 19.1046 20 18C20 16.8954 19.1046 16 18 16ZM6 4C4.89543 4 4 4.89543 4 6C4 7.10457 4.89543 8 6 8C7.10457 8 8 7.10457 8 6C8 4.89543 7.10457 4 6 4Z" fill="#141414"/>
</svg>
