<svg width="24" height="24" viewBox="0 0 24 24" fill="none" xmlns="http://www.w3.org/2000/svg">
<path d="M12 1C12.1569 1 12.3111 1.00456 12.4619 1.01172C12.5718 1.01626 12.681 1.02351 12.79 1.03125C12.7943 1.03155 12.7985 1.03192 12.8027 1.03223H12.8057C17.8229 1.39552 21.9044 5.12138 22.8096 9.96875C22.8203 10.0255 22.83 10.0826 22.8398 10.1396C22.8549 10.2282 22.8699 10.317 22.8828 10.4062C22.8937 10.4802 22.9027 10.5545 22.9121 10.6289C22.9276 10.7537 22.9418 10.8789 22.9531 11.0049C22.9642 11.1261 22.9734 11.2478 22.9805 11.3701C22.9825 11.4065 22.9846 11.443 22.9863 11.4795C22.9945 11.6522 23 11.8263 23 12.001C23 12.5704 22.9565 13.1297 22.873 13.6758C22.6783 14.9501 22.2645 16.1523 21.6719 17.2432C21.4178 17.7109 21.1313 18.1584 20.8145 18.582C20.2977 19.2729 19.701 19.9003 19.0391 20.4521C18.8895 20.5769 18.7372 20.6986 18.5811 20.8154C18.2988 21.0264 18.0063 21.2246 17.7041 21.4082C17.4016 21.592 17.0893 21.7615 16.7686 21.916C16.6083 21.9932 16.4457 22.0662 16.2812 22.1357C16.1169 22.2053 15.9506 22.2714 15.7822 22.333C15.5764 22.4084 15.3667 22.4749 15.1553 22.5381C14.8476 22.6301 14.5352 22.7122 14.2168 22.7773C14.0377 22.814 13.857 22.8462 13.6748 22.874C13.3109 22.9296 12.9411 22.9673 12.5664 22.9863C12.3788 22.9958 12.19 23.001 12 23.001C11.8401 23.001 11.6847 22.9946 11.5508 22.9893C11.5475 22.9891 11.5443 22.9875 11.541 22.9873C5.6788 22.7466 1 17.9213 1 12C1 11.5483 1.03012 11.1034 1.08301 10.666C1.08337 10.6628 1.08359 10.6595 1.08398 10.6562C1.08538 10.6448 1.08744 10.6335 1.08887 10.6221C1.29764 8.952 1.88008 7.39955 2.75098 6.04883C2.76746 6.02324 2.78311 5.99712 2.7998 5.97168C2.86363 5.87446 2.9293 5.77863 2.99609 5.68359C3.03031 5.63487 3.06462 5.58623 3.09961 5.53809C3.16678 5.44572 3.23572 5.35481 3.30566 5.26465C3.3328 5.22964 3.36015 5.19482 3.3877 5.16016C3.46188 5.06687 3.53714 4.97457 3.61426 4.88379C3.64877 4.84314 3.68367 4.80284 3.71875 4.7627C3.79693 4.67331 3.87604 4.58484 3.95703 4.49805C3.98419 4.46892 4.01257 4.44094 4.04004 4.41211C4.12934 4.31846 4.219 4.22522 4.31152 4.13477C4.33111 4.1156 4.35137 4.09714 4.37109 4.07812C4.46914 3.98368 4.56843 3.89059 4.66992 3.7998C4.70517 3.76825 4.74168 3.73813 4.77734 3.70703C4.86679 3.62906 4.95589 3.55067 5.04785 3.47559C5.12453 3.41294 5.20384 3.35357 5.28223 3.29297C5.51401 3.11388 5.7521 2.9427 5.99805 2.78223C6.08979 2.72233 6.18177 2.66267 6.27539 2.60547C6.32531 2.57499 6.37632 2.54631 6.42676 2.5166C6.52367 2.45949 6.62093 2.40282 6.71973 2.34863C6.77614 2.31771 6.83362 2.28875 6.89062 2.25879C6.98642 2.20842 7.08225 2.15795 7.17969 2.11035C7.24064 2.08059 7.30268 2.05308 7.36426 2.02441C7.45715 1.98116 7.55025 1.93818 7.64453 1.89746C7.71347 1.8677 7.78288 1.83893 7.85254 1.81055C7.93933 1.77517 8.02638 1.74023 8.11426 1.70703C8.19961 1.67479 8.28572 1.64442 8.37207 1.61426C8.44236 1.5897 8.51305 1.56613 8.58398 1.54297C8.67177 1.51431 8.7599 1.48645 8.84863 1.45996C8.94416 1.43143 9.04012 1.40391 9.13672 1.37793C9.19834 1.36136 9.26022 1.3456 9.32227 1.33008C9.43648 1.3015 9.55139 1.27497 9.66699 1.25C9.72584 1.23729 9.78456 1.22368 9.84375 1.21191C9.96345 1.18812 10.084 1.16734 10.2051 1.14746C10.259 1.1386 10.313 1.12916 10.3672 1.12109C10.4802 1.10428 10.5939 1.0905 10.708 1.07715C10.7785 1.0689 10.849 1.05964 10.9199 1.05273C11.0297 1.04203 11.1402 1.03577 11.251 1.02832C11.3189 1.02375 11.3868 1.017 11.4551 1.01367C11.6356 1.00487 11.8173 1 12 1ZM20.8174 10.2041C18.6391 10.294 16.4899 11.1673 14.8281 12.8291C12.6125 15.0451 11.7934 18.1294 12.374 20.9902C17.1711 20.7941 21 16.8452 21 12C21 11.6098 20.972 11.2258 20.9238 10.8486C20.8955 10.6314 20.8606 10.4164 20.8174 10.2041ZM13.5547 3.13574C13.1246 5.13217 12.1375 7.0344 10.5859 8.58594C8.48756 10.6843 5.75188 11.7524 3.00488 11.8008C3.00344 11.867 3 11.9334 3 12C3 16.3954 6.1512 20.0527 10.3174 20.8408C9.81436 17.5069 10.8448 13.9835 13.4141 11.4141C15.3036 9.52463 17.711 8.47005 20.1777 8.24316C18.9621 5.60127 16.5064 3.64985 13.5547 3.13574ZM11.5303 3.01172C10.1986 3.08019 8.94413 3.43971 7.82715 4.02539C7.74101 4.07059 7.65575 4.11716 7.57129 4.16504C7.17337 4.39045 6.79473 4.64544 6.4375 4.92676C6.21701 5.10052 6.0049 5.28429 5.80176 5.47754C5.68393 5.58954 5.56866 5.70408 5.45703 5.82227C4.42084 6.92014 3.65772 8.27864 3.27637 9.78906C5.42283 9.67884 7.53426 8.80949 9.17188 7.17188C10.3642 5.97957 11.1476 4.53623 11.5303 3.01172Z" fill="#141414"/>
</svg>
