<svg width="24" height="24" viewBox="0 0 24 24" fill="none" xmlns="http://www.w3.org/2000/svg">
<path d="M19.6797 1.97374C19.8108 1.98022 19.9153 1.98793 19.9893 1.99425C20.0262 1.9974 20.0557 2.00085 20.0771 2.00304C20.0878 2.00412 20.0969 2.00426 20.1035 2.00499C20.1066 2.00532 20.1092 2.00572 20.1113 2.00597C20.1123 2.00609 20.1134 2.00685 20.1143 2.00694H20.1162C20.1162 2.0111 20.1091 2.07302 20 3.00011L20.1172 2.00694C20.4976 2.05183 20.8186 2.31017 20.9443 2.67198C21.07 3.03399 20.978 3.43618 20.707 3.70714L20.7041 3.71007C20.6999 3.71435 20.6927 3.72199 20.6826 3.73253C20.662 3.75401 20.6293 3.78875 20.5869 3.83507C20.5019 3.92787 20.3763 4.06883 20.2246 4.25304C19.9202 4.62266 19.5124 5.16213 19.1045 5.83214C18.3922 7.00228 17.713 8.51977 17.542 10.2003C20.1085 10.8809 22 13.2195 22 16.0001C21.9999 19.3138 19.3137 22.0001 16 22.0001C13.8747 22.0001 12.0083 20.8945 10.9424 19.2276C10.0732 19.7182 9.06946 20.0001 8 20.0001C4.68634 20.0001 2.00007 17.3138 2 14.0001C2 10.6864 4.68629 8.00011 8 8.00011C8.23555 8.00011 8.46787 8.01374 8.69629 8.04015C10.2429 4.80622 12.8338 3.25476 15.1436 2.54405C16.4668 2.13693 17.6981 2.00339 18.5957 1.96983C19.046 1.95301 19.4174 1.96078 19.6797 1.97374ZM16 12.0001C14.9859 12.0001 14.0605 12.3781 13.3555 13.0001L13.3496 13.005C13.0945 13.231 12.8682 13.4884 12.6777 13.7716C12.6643 13.7915 12.6517 13.812 12.6387 13.8321C12.5775 13.9267 12.519 14.0233 12.4658 14.1232C12.2642 14.502 12.1228 14.9175 12.0518 15.3566C12.0179 15.566 12 15.781 12 16.0001L12.001 16.0626C12.0031 16.199 12.012 16.3335 12.0273 16.4659C12.2582 18.4555 13.9485 20.0001 16 20.0001C18.2091 20.0001 19.9999 18.2092 20 16.0001C20 13.791 18.2091 12.0001 16 12.0001ZM8 10.0001C5.79086 10.0001 4 11.791 4 14.0001C4.00007 16.2092 5.79091 18.0001 8 18.0001C8.79494 18.0001 9.53353 17.7668 10.1562 17.3663C10.151 17.3437 10.1466 17.3207 10.1416 17.298C10.1278 17.2352 10.1154 17.172 10.1035 17.1085C10.0944 17.0596 10.0861 17.0104 10.0781 16.961C10.0684 16.9005 10.0597 16.8396 10.0518 16.7784C10.0465 16.7378 10.0406 16.6972 10.0361 16.6564C10.029 16.5909 10.0236 16.5251 10.0186 16.4591C10.0152 16.4143 10.0112 16.3694 10.0088 16.3243C10.0031 16.217 10 16.1089 10 16.0001C10 15.9312 10.0026 15.8624 10.0049 15.7941C10.0058 15.766 10.0055 15.738 10.0068 15.7101C10.0102 15.6394 10.0167 15.5692 10.0225 15.4991C10.0248 15.4711 10.0256 15.443 10.0283 15.4151C10.035 15.346 10.0447 15.2775 10.0537 15.2091C10.0571 15.1834 10.0597 15.1576 10.0635 15.1319C10.0657 15.1167 10.067 15.1013 10.0693 15.086L10.1025 14.8907C10.1058 14.8734 10.1099 14.8562 10.1133 14.839C10.1233 14.7879 10.1342 14.7372 10.1455 14.6866C10.1525 14.6553 10.1595 14.624 10.167 14.5929C10.1841 14.5218 10.2021 14.4511 10.2217 14.381C10.2257 14.3666 10.2302 14.3523 10.2344 14.338C10.2541 14.2695 10.2748 14.2014 10.2969 14.1339C10.3057 14.1071 10.3151 14.0805 10.3242 14.0538C10.3454 13.992 10.3665 13.9302 10.3896 13.8692C10.3993 13.8439 10.4109 13.8193 10.4209 13.7941C10.6763 13.1487 11.0391 12.5581 11.4893 12.045C10.8037 10.8238 9.49745 10.0001 8 10.0001ZM17.8984 4.02257C17.2553 4.08838 16.5089 4.21695 15.7314 4.45616C13.9089 5.017 11.9168 6.17701 10.6445 8.61339C11.6326 9.09964 12.4661 9.85015 13.0557 10.7716C13.8024 10.3502 14.6483 10.0856 15.5498 10.0187C15.7579 7.92828 16.5926 6.11234 17.3955 4.79308C17.5643 4.51577 17.7351 4.25873 17.8984 4.02257Z" fill="#141414"/>
</svg>
