<svg width="24" height="24" viewBox="0 0 24 24" fill="none" xmlns="http://www.w3.org/2000/svg">
<path d="M13 19.5859L15 17.5859L16.4141 19L12.707 22.707C12.3165 23.0976 11.6835 23.0976 11.293 22.707L7.58594 19L9 17.5859L11 19.5859V13H13V19.5859Z" fill="#141414"/>
<path d="M9 1C11.9637 1 14.5479 2.61473 15.9297 5.00879H17C20.3157 5.00879 22.9999 7.70191 23 11.0195C23 14.1123 20.6685 16.6613 17.666 16.9941L17.4453 15.0059C19.4426 14.7846 21 13.0852 21 11.0195C20.9999 8.80236 19.207 7.00879 17 7.00879H15.3262C14.94 7.00871 14.5884 6.78633 14.4229 6.4375C13.4582 4.40249 11.3908 3 9 3C5.68835 3 3 5.69141 3 9.01562C3.00013 11.4146 4.40094 13.4861 6.42969 14.4521L5.57031 16.2588C2.86952 14.973 1.00013 12.2132 1 9.01562C1 4.59096 4.57967 1 9 1Z" fill="#141414"/>
</svg>
