<svg width="24" height="24" viewBox="0 0 24 24" fill="none" xmlns="http://www.w3.org/2000/svg">
<path d="M22.7129 21.2129L21.2988 22.627L17.6719 19H16C16 21.2091 14.2091 23 12 23C9.79086 23 8 21.2091 8 19H3.86816C2.27126 18.9995 1.31847 17.2195 2.2041 15.8906L4 13.1963V9C4 7.91477 4.21738 6.88079 4.60938 5.9375L1.5 2.82812L2.91406 1.41406L22.7129 21.2129ZM10 19C10 20.1046 10.8954 21 12 21C13.1046 21 14 20.1046 14 19H10ZM12 1C16.4182 1.00013 20 4.5818 20 9V13.1963L21.7959 15.8906C22.1786 16.4648 22.2171 17.1229 22.0098 17.6855L18.0215 13.6973C18.0084 13.6325 18 13.5667 18 13.5V9C18 5.68637 15.3136 3.00013 12 3C10.6812 3.00006 9.46193 3.4262 8.47168 4.14746L7.04492 2.7207C8.4076 1.64393 10.1284 1.00007 12 1ZM6.18555 7.51367C6.06413 7.9889 6 8.4869 6 9V13.5C6 13.6974 5.9415 13.8904 5.83203 14.0547L3.86816 17H15.6719L6.18555 7.51367Z" fill="#141414"/>
</svg>
