<svg width="24" height="24" viewBox="0 0 24 24" fill="none" xmlns="http://www.w3.org/2000/svg">
<path d="M19.0004 3C21.2094 3.00021 23.0004 4.79099 23.0004 7V17C23.0004 19.209 21.2094 20.9998 19.0004 21H9.5004C8.24152 21 7.05564 20.4074 6.30021 19.4004L1.65079 13.2002C1.11746 12.4891 1.11746 11.5109 1.65079 10.7998L6.30021 4.59961C7.05564 3.59259 8.24152 3 9.5004 3H19.0004ZM9.5004 5C8.8711 5 8.27852 5.2965 7.90079 5.7998L3.2504 12L7.90079 18.2002C8.27852 18.7035 8.8711 19 9.5004 19H19.0004C20.1048 18.9998 21.0004 18.1044 21.0004 17V7C21.0004 5.89556 20.1048 5.00021 19.0004 5H9.5004ZM17.4145 9.70703L15.1215 12L17.4145 14.293L16.0004 15.707L13.7074 13.4141L11.4145 15.707L10.0004 14.293L12.2934 12L10.0004 9.70703L11.4145 8.29297L13.7074 10.5859L16.0004 8.29297L17.4145 9.70703Z" fill="#141414"/>
</svg>
