<svg width="24" height="24" viewBox="0 0 24 24" fill="none" xmlns="http://www.w3.org/2000/svg">
<path d="M13 22H11V16.9414H13V22ZM9.21387 16.2012L5.63672 19.7783L4.22168 18.3643L7.79883 14.7871L9.21387 16.2012ZM19.7783 18.3643L18.3643 19.7783L15.5273 16.9414L16.9414 15.5273L19.7783 18.3643ZM7.05859 13H2V11H7.05859V13ZM22 13H18.9414V11H22V13ZM9.21289 7.79883L7.79883 9.21289L4.22168 5.63574L5.63574 4.22168L9.21289 7.79883ZM19.7783 5.63574L16.9141 8.5L15.5 7.08594L18.3643 4.22168L19.7783 5.63574ZM13 7.05859H11V2H13V7.05859Z" fill="#141414"/>
</svg>
