<svg width="24" height="24" viewBox="0 0 24 24" fill="none" xmlns="http://www.w3.org/2000/svg">
<path d="M12 1C15.1529 1 17.9951 2.32648 20 4.4502V2H22V7.63574C22 8.18803 21.5523 8.63574 21 8.63574H15.4141V6.63574H19.2275C17.5865 4.42831 14.9594 3 12 3C7.02944 3 3 7.02944 3 12C3 16.9706 7.02944 21 12 21C16.9706 21 21 16.9706 21 12H23C23 18.0751 18.0751 23 12 23C5.92487 23 1 18.0751 1 12C1 5.92487 5.92487 1 12 1ZM12 12.9502L14.5498 15.5L13.1357 16.9141L10.293 14.0713C10.1055 13.8838 10 13.6294 10 13.3643V7.5H12V12.9502Z" fill="#141414"/>
</svg>
