<svg width="24" height="24" viewBox="0 0 24 24" fill="none" xmlns="http://www.w3.org/2000/svg">
<path d="M21 4.5L4.40723 21L3 19.5859L19.5928 3.08594L21 4.5ZM17.0234 12.6797C19.1723 12.6799 20.9139 14.4307 20.9141 16.5898C20.9141 18.7491 19.1724 20.4997 17.0234 20.5C14.8743 20.5 13.1318 18.7492 13.1318 16.5898C13.132 14.4306 14.8744 12.6797 17.0234 12.6797ZM17.0234 14.6797C15.9737 14.6797 15.1222 15.5351 15.1221 16.5898C15.1221 17.6447 15.9736 18.5 17.0234 18.5C18.073 18.4997 18.9238 17.6445 18.9238 16.5898C18.9237 15.5353 18.073 14.6799 17.0234 14.6797ZM7.42871 3C9.57787 3 11.3203 4.75077 11.3203 6.91016C11.3202 9.06944 9.5778 10.8203 7.42871 10.8203C5.27973 10.8202 3.53724 9.06936 3.53711 6.91016C3.53711 4.75084 5.27965 3.00012 7.42871 3ZM7.42871 5C6.37899 5.00012 5.52832 5.85541 5.52832 6.91016C5.52845 7.96479 6.37907 8.82019 7.42871 8.82031C8.47846 8.82031 9.32995 7.96487 9.33008 6.91016C9.33008 5.85534 8.47853 5 7.42871 5Z" fill="#141414"/>
</svg>
