<svg width="24" height="24" viewBox="0 0 24 24" fill="none" xmlns="http://www.w3.org/2000/svg">
<path d="M16.5 2C19.5376 2 22 4.46243 22 7.5C22 9.20812 21.2187 10.731 20 11.7383V19C20 20.6569 18.6569 22 17 22H7C5.34315 22 4 20.6569 4 19V11.7383C2.78135 10.731 2 9.20812 2 7.5C2 4.46243 4.46243 2 7.5 2H16.5ZM12.5 4C10.567 4 9 5.567 9 7.5C9 8.712 9.61601 9.78035 10.5566 10.4102C10.8338 10.5958 11 10.9076 11 11.2412V19C11 19.5523 11.4477 20 12 20H17L17.1025 19.9951C17.6067 19.9438 18 19.5177 18 19V11.2412C18 10.9076 18.1662 10.5958 18.4434 10.4102C19.384 9.78035 20 8.712 20 7.5C20 5.567 18.433 4 16.5 4H12.5ZM7.5 4C5.567 4 4 5.567 4 7.5C4 8.712 4.61601 9.78035 5.55664 10.4102C5.8338 10.5958 6 10.9076 6 11.2412V19C6 19.5523 6.44772 20 7 20H9.17383C9.06306 19.6869 9 19.351 9 19V11.7383C7.78135 10.731 7 9.20812 7 7.5C7 6.17022 7.47231 4.95099 8.25781 4H7.5Z" fill="#141414"/>
</svg>
