<svg width="24" height="24" viewBox="0 0 24 24" fill="none" xmlns="http://www.w3.org/2000/svg">
<g clip-path="url(#clip0_1487_5600)">
<path d="M18.1582 1.80176C18.8736 0.716471 20.1029 3.72529e-08 21.5 0H23.5V2H21.5C20.7601 2 20.1155 2.40267 19.7695 3H22V5H20.4854C22.0561 6.9019 23 9.34067 23 12C23 18.0751 18.0751 23 12 23C5.92487 23 1 18.0751 1 12C1 5.92487 5.92487 1 12 1C13.2416 1 14.4345 1.20771 15.5479 1.58691L15.1865 1.08105L16.8135 -0.0810547L18.1582 1.80176ZM12 3C7.02944 3 3 7.02944 3 12C3 16.9706 7.02944 21 12 21C16.9706 21 21 16.9706 21 12C21 10.3852 20.5728 8.8708 19.8281 7.56055L19.9961 9.40918L18.0039 9.59082L17.7324 6.61426L15.7891 9.11426L14.2109 7.88574L16.1035 5.45117L13.1787 5.9834L12.8213 4.0166L15.1924 3.58398C14.2001 3.20738 13.1243 3 12 3Z" fill="#141414"/>
</g>
<defs>
<clipPath id="clip0_1487_5600">
<rect width="24" height="24" fill="white"/>
</clipPath>
</defs>
</svg>
