<svg width="24" height="24" viewBox="0 0 24 24" fill="none" xmlns="http://www.w3.org/2000/svg">
<path d="M13.4404 14.0059L10.2725 23L8.39062 22.3223L11.5596 13.3281L13.4404 14.0059ZM18.4404 12.3389L15.4404 20.6719L13.5596 19.9941L16.5596 11.6611L18.4404 12.3389ZM9.94043 12.3389L7.60059 18.8389L5.71875 18.1611L8.05957 11.6611L9.94043 12.3389ZM12 1C14.7349 1 17.0787 2.78346 17.7842 5.26074C20.7004 5.63144 23 8.04048 23 11.0234C23 13.677 21.5809 15.9999 18.7002 16L19.5 14C20.7106 14.0146 21 11.8844 21 11.0234C21 8.95414 19.2465 7.21195 17.002 7.21094H16.9648C16.461 7.21268 16.0346 6.83947 15.9697 6.33984C15.7298 4.48707 14.0704 3 12 3C9.92958 3 8.27023 4.48707 8.03027 6.33984C7.9654 6.83947 7.53897 7.21268 7.03516 7.21094H6.99805C4.75351 7.21195 3 8.95414 3 11.0234C3 12.0332 3.22481 12.794 3.56543 13.2734C3.8764 13.7111 5.04009 13.9755 5.71875 13.9756L5 15.9756C2.26547 15.9756 1 13.4561 1 11.0234C1 8.04048 3.29958 5.63144 6.21582 5.26074C6.92126 2.78346 9.26514 1 12 1Z" fill="#141414"/>
</svg>
