<svg width="24" height="24" viewBox="0 0 24 24" fill="none" xmlns="http://www.w3.org/2000/svg">
<path d="M11.4258 2.12791C11.8003 2.0157 12.1997 2.0157 12.5742 2.12791L21.5742 4.82811C22.4201 5.08188 22.9999 5.86099 23 6.74413V8.99999C23 10.1046 22.1046 11 21 11H20.5V16H21C22.1045 16 22.9999 16.8955 23 18V20C23 21.1046 22.1046 22 21 22H3C1.89543 22 1 21.1046 1 20V18C1.00011 16.8955 1.8955 16 3 16H3.5V11H3C1.89543 11 1 10.1046 1 8.99999V6.74413C1.00009 5.86099 1.57988 5.08188 2.42578 4.82811L11.4258 2.12791ZM3 20H21V18H3V20ZM15.5 11V16H18.5V11H15.5ZM5.5 16H8.5V11H5.5V16ZM10.5 16H13.5V11H10.5V16ZM3 6.74413V8.99999H21V6.74413L12 4.04393L3 6.74413Z" fill="#141414"/>
</svg>
