<svg width="24" height="24" viewBox="0 0 24 24" fill="none" xmlns="http://www.w3.org/2000/svg">
<path d="M13.4141 2.10059C14.5856 0.929026 16.4847 0.929045 17.6563 2.10059L21.8994 6.34278C23.071 7.51436 23.071 9.41438 21.8994 10.5859L10.5859 21.8994C9.41436 23.071 7.51434 23.071 6.34277 21.8994L2.10057 17.6563C0.92903 16.4847 0.92901 14.5856 2.10057 13.4141L13.4141 2.10059ZM16.2422 3.51465C15.8517 3.12416 15.2186 3.12414 14.8281 3.51465L13.4141 4.92872L16.2422 7.75684L14.8281 9.17188L12 6.34278L9.8789 8.46388L12.707 11.293L11.293 12.707L8.46386 9.87892L6.34277 12L9.17089 14.8281L7.75683 16.2422L4.9287 13.4141L3.51464 14.8281C3.12412 15.2187 3.12414 15.8517 3.51464 16.2422L7.75683 20.4854C8.14723 20.8758 8.78034 20.8755 9.17089 20.4854L20.4854 9.17091C20.8755 8.78036 20.8758 8.14725 20.4854 7.75684L16.2422 3.51465Z" fill="#141414"/>
</svg>
