<svg width="24" height="24" viewBox="0 0 24 24" fill="none" xmlns="http://www.w3.org/2000/svg">
<path d="M12 4.00003H6C4.89543 4.00003 4 4.89546 4 6.00003V18C4.00006 19.1045 4.89547 20 6 20H6.57031L14.6807 11.4385C15.3622 10.7191 16.4685 10.6066 17.2803 11.1748L21.5732 14.1807C21.8405 14.3678 22 14.6737 22 15V18C21.9999 20.2091 20.2091 22 18 22H6C3.7909 22 2.00006 20.2091 2 18V6.00003C2 3.79089 3.79086 2.00003 6 2.00003H12V4.00003ZM9.32422 20H18C19.1045 20 19.9999 19.1045 20 18V15.5205L16.1328 12.8135L9.32422 20ZM9 6.00003C10.6569 6.00003 12 7.34317 12 9.00003C11.9999 10.6568 10.6568 12 9 12C7.34318 12 6.00006 10.6568 6 9.00003C6 7.34317 7.34315 6.00003 9 6.00003ZM9 8.00003C8.44772 8.00003 8 8.44774 8 9.00003C8.00006 9.55226 8.44775 10 9 10C9.55225 10 9.99994 9.55226 10 9.00003C10 8.44774 9.55228 8.00003 9 8.00003ZM17.793 1.293C18.1835 0.902489 18.8165 0.902501 19.207 1.293L23 5.08597L21.5859 6.50003L19.5 4.41409V9.00003H17.5V4.41409L15.4141 6.50003L14 5.08597L17.793 1.293Z" fill="#141414"/>
</svg>
