<svg width="24" height="24" viewBox="0 0 24 24" fill="none" xmlns="http://www.w3.org/2000/svg">
<path d="M12 1C12.948 1 13.8693 1.12027 14.749 1.34668C19.4932 2.56774 23 6.87307 23 12C23 18.0751 18.0751 23 12 23C5.92487 23 1 18.0751 1 12C1 10.2808 1.39529 8.65113 2.10059 7.19922C3.88222 3.53181 7.64449 1 12 1ZM14.9941 7.10645C14.9562 7.46121 14.7323 7.76915 14.4062 7.91406L10.1436 9.80859L8.7998 11.5996C8.48038 12.0255 7.88311 12.1273 7.44141 11.8301L3.45996 9.15039C3.16163 10.045 3 11.0031 3 12C3 16.9706 7.02944 21 12 21C16.9706 21 21 16.9706 21 12C21 8.21945 18.6682 4.98169 15.3633 3.64941L14.9941 7.10645ZM11.1055 12.5527C11.338 12.0877 11.8883 11.8784 12.3711 12.0713L17.3711 14.0713C17.6508 14.1832 17.8657 14.4154 17.9551 14.7031C18.0445 14.9909 17.9992 15.3039 17.832 15.5547L15.832 18.5547C15.6466 18.8329 15.3344 19 15 19H12C11.5697 19 11.188 18.7246 11.0518 18.3164L10.0518 15.3164C9.96789 15.0648 9.98686 14.79 10.1055 14.5527L11.1055 12.5527ZM12.0801 15.0771L12.7207 17H14.4648L15.4844 15.4707L12.4834 14.2705L12.0801 15.0771ZM12 3C8.74733 3 5.89628 4.72554 4.31445 7.31445L7.76953 9.63965L8.7002 8.40039C8.80256 8.2639 8.93784 8.15523 9.09375 8.08594L13.0664 6.32031L13.4092 3.10938C12.9505 3.03732 12.4799 3 12 3Z" fill="#141414"/>
</svg>
