<svg width="24" height="24" viewBox="0 0 24 24" fill="none" xmlns="http://www.w3.org/2000/svg">
<path d="M18.5 12C20.1569 12 21.5 13.3431 21.5 15V16.2061H22C22.5523 16.2061 23 16.6538 23 17.2061V21C23 21.5523 22.5523 22 22 22H15C14.7348 22 14.4805 21.8946 14.293 21.707C14.1054 21.5195 14 21.2652 14 21V17.2061C14 16.6538 14.4477 16.2061 15 16.2061H15.5V15C15.5 13.3431 16.8431 12 18.5 12ZM19 3C21.2091 3 23 4.79086 23 7V11H21V10H3V17C3 18.1046 3.89543 19 5 19H12V21H5C2.79086 21 1 19.2091 1 17V7C1 4.79086 2.79086 3 5 3H19ZM16 20H21V18.2061H16V20ZM9 17H5V15H9V17ZM18.5 14C17.9477 14 17.5 14.4477 17.5 15V16.2061H19.5V15C19.5 14.4477 19.0523 14 18.5 14ZM5 5C3.89543 5 3 5.89543 3 7V8H21V7C21 5.89543 20.1046 5 19 5H5Z" fill="#141414"/>
</svg>
