<svg width="24" height="24" viewBox="0 0 24 24" fill="none" xmlns="http://www.w3.org/2000/svg">
<path d="M20 3C21.6569 3 23 4.34315 23 6V9C23 9.55228 22.5523 10 22 10H21C19.8954 10 19 10.8954 19 12C19 13.1046 19.8954 14 21 14H22C22.5523 14 23 14.4477 23 15V18C23 19.6569 21.6569 21 20 21H4C2.34315 21 1 19.6569 1 18V15C1 14.4477 1.44772 14 2 14H3C4.10457 14 5 13.1046 5 12C5 10.8954 4.10457 10 3 10H2C1.44772 10 1 9.55228 1 9V6C1 4.34315 2.34315 3 4 3H20ZM4 5C3.44772 5 3 5.44772 3 6V8C5.20914 8 7 9.79086 7 12C7 14.2091 5.20914 16 3 16V18C3 18.5523 3.44772 19 4 19H9V17H11V19H20C20.5523 19 21 18.5523 21 18V16C18.7909 16 17 14.2091 17 12C17 9.79086 18.7909 8 21 8V6C21 5.44772 20.5523 5 20 5H11V7H9V5H4ZM11 15H9V13H11V15ZM11 11H9V9H11V11Z" fill="#141414"/>
</svg>
