<svg width="24" height="24" viewBox="0 0 24 24" fill="none" xmlns="http://www.w3.org/2000/svg">
<path d="M13.6663 4.49243C15.5726 2.50196 18.6642 2.50195 20.5706 4.49243C22.4769 6.48294 22.4767 9.71083 20.5706 11.7014L13.6663 18.9094C10.9973 21.6962 6.67013 21.6962 4.00122 18.9094C1.33274 16.1226 1.33246 11.6043 4.00122 8.81763L9.1477 3.44458L10.5286 4.88599L5.38208 10.26C3.47607 12.2505 3.47602 15.4775 5.38208 17.468C7.28844 19.4586 10.38 19.4586 12.2864 17.468L19.1897 10.26C20.3334 9.06574 20.3333 7.12917 19.1897 5.93481C18.0459 4.74047 16.1909 4.74047 15.0471 5.93481L8.48852 12.7825C8.10735 13.1806 8.10729 13.8268 8.48852 14.2249C8.86967 14.6228 9.48809 14.6226 9.86938 14.2249L16.428 7.37622L17.8088 8.81763L11.2502 15.6663C10.1065 16.8603 8.25243 16.8602 7.10864 15.6663C5.96482 14.4719 5.96482 12.5354 7.10864 11.3411L13.6663 4.49243Z" fill="#141414"/>
</svg>
