<svg width="24" height="24" viewBox="0 0 24 24" fill="none" xmlns="http://www.w3.org/2000/svg">
<path d="M4.22152 4.22152C8.51725 -0.0742137 15.4824 -0.0741169 19.7782 4.22152C24.074 8.5173 24.074 15.4824 19.7782 19.7782C15.4824 24.074 8.5173 24.074 4.22152 19.7782C-0.0741169 15.4824 -0.0742137 8.51725 4.22152 4.22152ZM18.3641 5.63559C14.8494 2.121 9.15027 2.1209 5.63559 5.63559C2.1209 9.15027 2.121 14.8494 5.63559 18.3641C9.15032 21.8789 14.8494 21.8789 18.3641 18.3641C21.8789 14.8494 21.8789 9.15032 18.3641 5.63559ZM14.536 13.121V9.17173H16.536V15.536C16.5358 16.0879 16.0879 16.5358 15.536 16.536H9.17173V14.536H13.121L7.75766 9.17173L9.17173 7.75766L14.536 13.121Z" fill="#141414"/>
</svg>
