<svg width="24" height="24" viewBox="0 0 24 24" fill="none" xmlns="http://www.w3.org/2000/svg">
<g clip-path="url(#clip0_1487_5602)">
<path d="M2.80761 1.39354C3.97298 0.228168 5.96808 0.893851 6.20116 2.52538L6.37889 3.77147C9.98895 1.50808 15.0174 2.28886 18.3642 5.63573C21.711 8.98252 22.4907 14.0101 20.2275 17.6201L21.4746 17.7988C23.1061 18.0319 23.7718 20.027 22.6064 21.1924L21.1924 22.6064C20.027 23.7718 18.0319 23.1061 17.7988 21.4746L17.6201 20.2275C14.0101 22.4907 8.98251 21.711 5.63573 18.3642C2.28887 15.0174 1.5081 9.98895 3.77147 6.37889L2.52538 6.20116C0.893853 5.96809 0.228167 3.97298 1.39354 2.80761L2.80761 1.39354ZM19.7783 21.1924L21.1924 19.7783L19.543 19.543L19.7783 21.1924ZM10.3584 19.0547C12.9902 19.9826 15.8214 19.493 17.6572 17.6572C19.493 15.8214 19.9826 12.9902 19.0547 10.3584L10.3584 19.0547ZM5.88768 15.5254C6.21707 16.023 6.60228 16.5027 7.04979 16.9502C7.49697 17.3974 7.97636 17.7821 8.47362 18.1113L18.1113 8.47362C17.7821 7.97636 17.3974 7.49697 16.9502 7.04979C16.5027 6.60235 16.0239 6.21606 15.5264 5.88671L5.88768 15.5254ZM13.6406 4.94432C11.0091 4.01699 8.17828 4.50724 6.34276 6.34276C4.50725 8.17829 4.01698 11.0091 4.94432 13.6406L13.6406 4.94432ZM2.80761 4.22167L4.45702 4.45702L4.22167 2.80761L2.80761 4.22167Z" fill="#141414"/>
</g>
<defs>
<clipPath id="clip0_1487_5602">
<rect width="24" height="24" fill="white"/>
</clipPath>
</defs>
</svg>
