<svg width="24" height="24" viewBox="0 0 24 24" fill="none" xmlns="http://www.w3.org/2000/svg">
<path d="M17.3881 2C19.3845 2.00016 21.0754 3.47275 21.35 5.4502L23.017 17.4502C23.3507 19.8547 21.4827 21.9997 19.0551 22H4.94573C2.51787 21.9999 0.649799 19.854 0.983815 17.4492L2.65081 5.44922C2.92571 3.47197 4.6164 2 6.61272 2H17.3881ZM6.61272 4C5.61455 4 4.76871 4.73596 4.63128 5.72461L2.96526 17.7246C2.79826 18.927 3.73184 19.9999 4.94573 20H19.0551C20.2688 19.9997 21.2025 18.9269 21.0356 17.7246L19.3696 5.72461C19.2322 4.73606 18.3862 4.00016 17.3881 4H6.61272ZM9.00042 7C9.00042 8.65685 10.3436 10 12.0004 10C13.6571 9.99983 15.0004 8.65675 15.0004 7H17.0004C17.0004 9.76132 14.7617 11.9998 12.0004 12C9.239 12 7.00042 9.76142 7.00042 7H9.00042Z" fill="#141414"/>
</svg>
