<svg width="24" height="24" viewBox="0 0 24 24" fill="none" xmlns="http://www.w3.org/2000/svg">
<path d="M13.8789 3C15.5738 3.00004 17.0842 4.06852 17.6494 5.66602L18.8291 9H20C22.2091 9 24 10.7909 24 13V17C24 18.1046 23.1046 19 22 19H20.9639C20.7212 20.6961 19.2632 22 17.5 22C15.7368 22 14.2788 20.6961 14.0361 19H9.96387C9.72121 20.6961 8.2632 22 6.5 22C4.7368 22 3.27879 20.6961 3.03613 19H3C1.34315 19 0 17.6569 0 16V7C0 4.79086 1.79086 3 4 3H13.8789ZM6.5 17C5.82411 17 5.25116 17.4481 5.06445 18.0635C5.02251 18.2016 5 18.3482 5 18.5C5 19.3284 5.67157 20 6.5 20C7.32843 20 8 19.3284 8 18.5C8 18.3481 7.97657 18.2017 7.93457 18.0635C7.74777 17.4482 7.17579 17 6.5 17ZM17.5 17C16.8241 17 16.2512 17.4481 16.0645 18.0635C16.0225 18.2016 16 18.3482 16 18.5C16 19.3284 16.6716 20 17.5 20C18.3284 20 19 19.3284 19 18.5C19 18.3481 18.9766 18.2017 18.9346 18.0635C18.7478 17.4482 18.1758 17 17.5 17ZM2 16C2 16.5523 2.44772 17 3 17H3.33691C3.61606 16.4124 4.05429 15.9153 4.5957 15.5635C4.60418 15.558 4.61257 15.5523 4.62109 15.5469C4.6747 15.5127 4.72961 15.4805 4.78516 15.4492C4.79862 15.4416 4.81163 15.4332 4.8252 15.4258C4.89164 15.3895 4.95936 15.3552 5.02832 15.3232C5.0344 15.3204 5.04078 15.3182 5.04688 15.3154C5.10685 15.288 5.16775 15.2623 5.22949 15.2383C5.24389 15.2327 5.25797 15.2261 5.27246 15.2207C5.34394 15.1939 5.41662 15.1696 5.49023 15.1475C5.49635 15.1456 5.50266 15.1444 5.50879 15.1426C5.57091 15.1243 5.63376 15.1077 5.69727 15.0928C5.71094 15.0896 5.72455 15.0861 5.73828 15.083L5.79492 15.0713C5.85529 15.0589 5.91608 15.0473 5.97754 15.0381C5.99277 15.0358 6.00814 15.0343 6.02344 15.0322C6.08125 15.0244 6.13957 15.0187 6.19824 15.0137C6.22292 15.0116 6.24764 15.0094 6.27246 15.0078C6.3477 15.003 6.42354 15 6.5 15C6.57613 15 6.65165 15.003 6.72656 15.0078C6.75139 15.0094 6.7761 15.0116 6.80078 15.0137C6.85946 15.0187 6.91777 15.0244 6.97559 15.0322C6.99088 15.0343 7.00625 15.0358 7.02148 15.0381C7.09257 15.0487 7.1628 15.0623 7.23242 15.0771C7.25563 15.0821 7.27872 15.0874 7.30176 15.0928C7.36528 15.1077 7.4281 15.1243 7.49023 15.1426C7.49637 15.1444 7.50267 15.1456 7.50879 15.1475C7.58241 15.1696 7.65507 15.1939 7.72656 15.2207C7.74106 15.2261 7.75513 15.2327 7.76953 15.2383C7.83128 15.2623 7.89216 15.288 7.95215 15.3154C7.95825 15.3182 7.96462 15.3204 7.9707 15.3232C8.03968 15.3552 8.10737 15.3895 8.17383 15.4258C8.1874 15.4332 8.2004 15.4416 8.21387 15.4492C8.26943 15.4805 8.3243 15.5127 8.37793 15.5469C8.38646 15.5523 8.39485 15.558 8.40332 15.5635C8.94505 15.9153 9.38382 16.4122 9.66309 17H14.3369C14.6161 16.4124 15.0543 15.9153 15.5957 15.5635C15.6042 15.558 15.6126 15.5523 15.6211 15.5469C15.6747 15.5127 15.7296 15.4805 15.7852 15.4492C15.7986 15.4416 15.8116 15.4332 15.8252 15.4258C15.8916 15.3895 15.9594 15.3552 16.0283 15.3232C16.0344 15.3204 16.0408 15.3182 16.0469 15.3154C16.1069 15.288 16.1678 15.2623 16.2295 15.2383C16.2439 15.2327 16.258 15.2261 16.2725 15.2207C16.3439 15.1939 16.4166 15.1696 16.4902 15.1475C16.4964 15.1456 16.5027 15.1444 16.5088 15.1426C16.5709 15.1243 16.6338 15.1077 16.6973 15.0928C16.7109 15.0896 16.7246 15.0861 16.7383 15.083L16.7949 15.0713C16.8553 15.0589 16.9161 15.0473 16.9775 15.0381C16.9928 15.0358 17.0081 15.0343 17.0234 15.0322C17.0812 15.0244 17.1396 15.0187 17.1982 15.0137C17.2229 15.0116 17.2476 15.0094 17.2725 15.0078C17.3477 15.003 17.4235 15 17.5 15C17.5761 15 17.6516 15.003 17.7266 15.0078C17.7514 15.0094 17.7761 15.0116 17.8008 15.0137C17.8595 15.0187 17.9178 15.0244 17.9756 15.0322C17.9909 15.0343 18.0063 15.0358 18.0215 15.0381C18.0926 15.0487 18.1628 15.0623 18.2324 15.0771C18.2556 15.0821 18.2787 15.0874 18.3018 15.0928C18.3653 15.1077 18.4281 15.1243 18.4902 15.1426C18.4964 15.1444 18.5027 15.1456 18.5088 15.1475C18.5824 15.1696 18.6551 15.1939 18.7266 15.2207C18.7411 15.2261 18.7551 15.2327 18.7695 15.2383C18.8313 15.2623 18.8922 15.288 18.9521 15.3154C18.9583 15.3182 18.9646 15.3204 18.9707 15.3232C19.0397 15.3552 19.1074 15.3895 19.1738 15.4258C19.1874 15.4332 19.2004 15.4416 19.2139 15.4492C19.2694 15.4805 19.3243 15.5127 19.3779 15.5469C19.3865 15.5523 19.3948 15.558 19.4033 15.5635C19.9451 15.9153 20.3838 16.4122 20.6631 17H22V13C22 11.8954 21.1046 11 20 11H2V16ZM7 9H16.708L15.7646 6.33398V6.33301C15.4996 5.58375 14.8185 5.06731 14.0361 5.00586L13.8789 5H7V9ZM4 5C2.89543 5 2 5.89543 2 7V9H5V5H4Z" fill="#141414"/>
</svg>
