<svg width="24" height="24" viewBox="0 0 24 24" fill="none" xmlns="http://www.w3.org/2000/svg">
<path d="M21.9999 3H18.9999C18.4477 3.00009 17.9999 3.44777 17.9999 4V4.20801C20.3084 4.86097 21.9999 6.98248 21.9999 9.5V11.0576C21.9999 20.3537 11.8208 26.0623 3.8886 21.2148L2.47845 20.3535C2.16139 20.1597 1.97769 19.8054 2.00188 19.4346C2.02618 19.0639 2.25421 18.7369 2.59368 18.5859L7.81438 16.2656C9.75141 15.4047 10.9999 13.484 10.9999 11.3643V9.5C10.9999 6.63107 13.1968 4.27618 15.9999 4.02344V4C15.9999 2.3432 17.3432 1.00009 18.9999 1H21.9999V3ZM13.0361 9C13.0127 9.16332 12.9999 9.33021 12.9999 9.5V11.3643C12.9999 14.2744 11.2862 16.9118 8.62688 18.0938L5.15227 19.6377C11.7184 23.4346 19.9999 18.7063 19.9999 11.0576V9.5C19.9999 9.3302 19.9872 9.16334 19.9638 9H13.0361ZM16.4999 6C15.5466 6.00005 14.6829 6.38176 14.0517 7H18.9482C18.317 6.38183 17.4532 6 16.4999 6Z" fill="#141414"/>
</svg>
