<svg width="24" height="24" viewBox="0 0 24 24" fill="none" xmlns="http://www.w3.org/2000/svg">
<path d="M18.6016 3.2002C21.2705 5.2054 23 8.40102 23 12C23 18.0751 18.0751 23 12 23C5.92487 23 1 18.0751 1 12C1 8.40102 2.72949 5.2054 5.39844 3.2002L6.59961 4.7998C4.41197 6.44352 3 9.05666 3 12C3 16.9706 7.02944 21 12 21C16.9706 21 21 16.9706 21 12C21 9.05666 19.588 6.44352 17.4004 4.7998L18.6016 3.2002ZM13 13.5859L15.793 10.793L17.207 12.207L12.707 16.707C12.3165 17.0976 11.6835 17.0976 11.293 16.707L6.79297 12.207L8.20703 10.793L11 13.5859V1H13V13.5859Z" fill="#141414"/>
</svg>
