<svg width="24" height="24" viewBox="0 0 24 24" fill="none" xmlns="http://www.w3.org/2000/svg">
<path d="M19 2.5C21.2091 2.5 23 4.29086 23 6.5V16.5C23 18.7091 21.2091 20.5 19 20.5H6.77148L4.01074 22.1162C2.67745 22.8966 1 21.9346 1 20.3896V6.5C1 4.29086 2.79086 2.5 5 2.5H19ZM5 4.5C3.89543 4.5 3 5.39543 3 6.5V20.3896L5.99512 18.6367L6.11328 18.5781C6.23537 18.5269 6.36673 18.5 6.5 18.5H19C20.1046 18.5 21 17.6046 21 16.5V6.5C21 5.39543 20.1046 4.5 19 4.5H5ZM16.707 9.91406L12.207 14.4141C11.8165 14.8046 11.1835 14.8046 10.793 14.4141L7.79297 11.4141L9.20703 10L11.5 12.293L15.293 8.5L16.707 9.91406Z" fill="#141414"/>
</svg>
