<svg width="24" height="24" viewBox="0 0 24 24" fill="none" xmlns="http://www.w3.org/2000/svg">
<path d="M13.7578 2C14.8185 2.00012 15.8359 2.42184 16.5859 3.17188L20.8281 7.41406C21.5782 8.1641 21.9999 9.18149 22 10.2422V18C22 20.2091 20.2091 22 18 22H6C3.79086 22 2 20.2091 2 18V6C2 3.79086 3.79086 2 6 2H13.7578ZM6 4C4.89543 4 4 4.89543 4 6V18C4 19.1046 4.89543 20 6 20H18C19.1046 20 20 19.1046 20 18V11H17C14.7909 11 13 9.20914 13 7V4H6ZM15 7C15 8.10457 15.8954 9 17 9H19.5654C19.5181 8.94042 19.4684 8.88243 19.4141 8.82812L15.1719 4.58594C15.1174 4.53148 15.0598 4.48098 15 4.43359V7Z" fill="#141414"/>
</svg>
