<svg width="24" height="24" viewBox="0 0 24 24" fill="none" xmlns="http://www.w3.org/2000/svg">
<path d="M12 0.999023C18.0671 0.999023 22.9997 5.87911 23 11.916C23 16.0542 20.6798 19.6497 17.2715 21.5C15.6551 22.3773 14.0144 22.0234 12.8428 21.0312C11.7073 20.0697 11 18.5177 11 16.875V9.3584L8.2041 12.1309L6.7959 10.7109L11.2959 6.24805C11.6857 5.86144 12.3143 5.86144 12.7041 6.24805L17.2041 10.7109L15.7959 12.1309L13 9.3584V16.875C13 17.9707 13.4794 18.9491 14.1357 19.5049C14.7558 20.0298 15.5118 20.1794 16.3174 19.7422C19.1126 18.2248 21 15.2859 21 11.916C20.9997 6.99936 16.9783 3 12 3C7.02172 3 3.00026 6.99936 3 11.916C3 15.3914 5.00726 18.4091 7.94727 19.8809L7.05273 21.6689C3.46772 19.8744 1 16.1841 1 11.916C1.00026 5.87911 5.9329 0.999023 12 0.999023Z" fill="#141414"/>
</svg>
