<svg width="24" height="24" viewBox="0 0 24 24" fill="none" xmlns="http://www.w3.org/2000/svg">
<path d="M18 1C20.2091 1 22 2.79086 22 5C22 7.20914 20.2091 9 18 9C16.8885 9 15.8831 8.54628 15.1582 7.81445L9.85059 10.9121C9.94808 11.2579 10 11.623 10 12C10 12.3767 9.94794 12.7413 9.85059 13.0869L15.1611 16.1816C15.8858 15.4517 16.8902 15 18 15C20.2091 15 22 16.7909 22 19C22 21.2091 20.2091 23 18 23C15.7909 23 14 21.2091 14 19C14 18.6214 14.0531 18.2553 14.1514 17.9082L8.84277 14.8145C8.11784 15.5465 7.11167 16 6 16C3.79086 16 2 14.2091 2 12C2 9.79086 3.79086 8 6 8C7.11146 8 8.1169 8.45372 8.8418 9.18555L14.1494 6.08789C14.0519 5.74206 14 5.37702 14 5C14 2.79086 15.7909 1 18 1ZM18 17C17.3072 17 16.6968 17.3525 16.3379 17.8877C16.3223 17.9235 16.3043 17.9586 16.2842 17.9932C16.2631 18.0293 16.2395 18.0642 16.2148 18.0967C16.0773 18.368 16 18.675 16 19C16 20.1046 16.8954 21 18 21C19.1046 21 20 20.1046 20 19C20 17.8954 19.1046 17 18 17ZM6 10C4.89543 10 4 10.8954 4 12C4 13.1046 4.89543 14 6 14C6.7174 14 7.34628 13.6221 7.69922 13.0547C7.70743 13.0387 7.71643 13.0226 7.72559 13.0068C7.73507 12.9906 7.74562 12.9745 7.75586 12.959C7.91157 12.6744 8 12.3473 8 12C8 11.6527 7.91158 11.3256 7.75586 11.041C7.74577 11.0257 7.73591 11.0102 7.72656 10.9941C7.7172 10.9781 7.7076 10.9617 7.69922 10.9453C7.34628 10.3779 6.7174 10 6 10ZM18 3C16.8954 3 16 3.89543 16 5C16 5.3473 16.0884 5.67437 16.2441 5.95898C16.2542 5.97428 16.2641 5.98984 16.2734 6.00586C16.2828 6.02191 16.2924 6.03835 16.3008 6.05469C16.6537 6.6221 17.2826 7 18 7C19.1046 7 20 6.10457 20 5C20 3.89543 19.1046 3 18 3Z" fill="#141414"/>
</svg>
