<svg width="24" height="24" viewBox="0 0 24 24" fill="none" xmlns="http://www.w3.org/2000/svg">
<path d="M12 1C18.0751 1 23 5.92487 23 12C23 16.2961 20.5366 20.0149 16.9502 21.8252C15.4611 22.5768 13.7786 23 12 23C5.92487 23 1 18.0751 1 12C1 5.92487 5.92487 1 12 1ZM11 3.05469C6.50005 3.55213 3 7.36745 3 12C3 16.9706 7.02944 21 12 21C13.1026 21 14.1574 20.8022 15.1318 20.4404L11 12.2373V3.05469ZM16.918 19.5391C19.1139 18.1036 20.6429 15.736 20.9453 13H13.623L16.918 19.5391ZM13 11H20.9453C20.4842 6.82838 17.1716 3.51584 13 3.05469V11Z" fill="#141414"/>
</svg>
