<svg width="24" height="24" viewBox="0 0 24 24" fill="none" xmlns="http://www.w3.org/2000/svg">
<path d="M21.5 22H11.5001V20H21.5V22ZM15.4083 3.13082C16.9163 1.62307 19.3612 1.62288 20.8692 3.13082C22.3771 4.63876 22.3769 7.08371 20.8692 8.59176L9.7735 19.6875C9.66294 19.7979 9.52821 19.8811 9.37995 19.9306L3.32723 21.9482C2.9649 22.0688 2.56506 21.9751 2.29501 21.705C2.02496 21.435 1.93123 21.0352 2.05185 20.6728L4.06942 14.6201C4.11892 14.4718 4.2021 14.3371 4.31258 14.2265L15.4083 3.13082ZM4.6036 19.3964L7.50007 18.5L5.50008 16.5L4.6036 19.3964Z" fill="#141414"/>
</svg>
