<svg width="24" height="24" viewBox="0 0 24 24" fill="none" xmlns="http://www.w3.org/2000/svg">
<path d="M7.9999 15C8.55213 15.0001 8.9999 15.4478 8.9999 16V18.459C8.99972 20.4142 7.5857 22.0828 5.65712 22.4043L2.16396 22.9863C1.84553 23.0393 1.52115 22.9353 1.29287 22.707C1.06458 22.4787 0.960598 22.1544 1.01357 21.8359L1.5956 18.3428C1.91705 16.4142 3.58572 15.0002 5.54091 15H7.9999ZM21.9999 1C22.5521 1.00006 22.9999 1.44775 22.9999 2V4.55957C22.9999 8.34836 21.0606 11.786 17.9999 13.7783V18C17.9999 18.3787 17.7859 18.7251 17.4472 18.8945L12.4472 21.3945C12.1373 21.5495 11.7693 21.5326 11.4745 21.3506C11.1797 21.1684 10.9999 20.8466 10.9999 20.5V15.4141L8.58583 13H3.4999C3.15334 13 2.83152 12.8202 2.64931 12.5254C2.46723 12.2306 2.45041 11.8626 2.60537 11.5527L5.10537 6.55273L5.17666 6.43164C5.36159 6.1637 5.66846 6 5.9999 6H10.2196C12.2118 2.93879 15.6512 1 19.4403 1H21.9999ZM5.54091 17C4.56349 17.0002 3.72908 17.7068 3.56826 18.6709L3.21572 20.7832L5.329 20.4316C6.29307 20.2708 6.99972 19.4364 6.9999 18.459V17H5.54091ZM15.1688 15.0928C15.1662 15.0936 15.1637 15.0949 15.161 15.0957L13.2509 15.668L12.9999 15.7441V18.8818L15.9999 17.3818V14.8438L15.1688 15.0928ZM19.4403 3C15.4659 3 11.9623 5.60722 10.8202 9.41406L10.1288 11.7148L12.2841 13.8701L14.5858 13.1797C18.3926 12.0376 20.9999 8.53401 20.9999 4.55957V3H19.4403ZM5.11806 11H8.25576L8.90419 8.83887C8.90505 8.836 8.90528 8.83294 8.90615 8.83008L9.15615 8H6.61806L5.11806 11Z" fill="#141414"/>
</svg>
