<svg width="24" height="24" viewBox="0 0 24 24" fill="none" xmlns="http://www.w3.org/2000/svg">
<path d="M14.2207 2.24805C18.6742 3.25859 22 7.23965 22 12C21.9999 14.5198 20.8431 16.5911 19.3867 18.3135C18.5682 19.2815 17.6214 20.1764 16.6895 21H20V23H14C13.4478 23 13.0001 22.5522 13 22V16H15V19.8203C16.0153 18.9383 17.0118 18.026 17.8604 17.0225C19.1547 15.4917 19.9999 13.8644 20 12C20 8.194 17.3408 5.00662 13.7783 4.19824L14.2207 2.24805ZM10 1C10.5522 1.00007 11 1.44776 11 2V8H9V4.17969C7.98468 5.06175 6.98826 5.97396 6.13965 6.97754C4.84528 8.50832 4 10.1355 4 12C4 15.8058 6.65843 18.9932 10.2207 19.8018L9.77832 21.752C5.32502 20.7413 2 16.7602 2 12C2 9.48008 3.15584 7.40798 4.6123 5.68555C5.43073 4.71768 6.37775 3.82354 7.30957 3H4V1H10Z" fill="#141414"/>
</svg>
