<svg width="24" height="24" viewBox="0 0 24 24" fill="none" xmlns="http://www.w3.org/2000/svg">
<path d="M10.707 14.707L5.41406 20H9V22H3C2.44772 22 2 21.5523 2 21V15H4V18.5859L9.29297 13.293L10.707 14.707ZM20 18.5859V15H22V21C22 21.5523 21.5523 22 21 22H15V20H18.5859L13.293 14.707L14.707 13.293L20 18.5859ZM9 4H5.41406L10.707 9.29297L9.29297 10.707L4 5.41406V9H2V3C2 2.44772 2.44772 2 3 2H9V4ZM21 2C21.5523 2 22 2.44772 22 3V9H20V5.41406L14.707 10.707L13.293 9.29297L18.5859 4H15V2H21Z" fill="#141414"/>
</svg>
