<svg width="24" height="24" viewBox="0 0 24 24" fill="none" xmlns="http://www.w3.org/2000/svg">
<path d="M5.47656 17.4368C7.07261 18.1352 8.87625 18.2208 10.5332 17.677L13.6465 16.6556C15.7767 15.9566 18.0955 16.0673 20.1475 16.9651L22 17.8577L21.1875 19.6575L19.335 18.764C17.739 18.0657 15.9352 17.98 14.2783 18.5237L11.166 19.5452C9.03565 20.2443 6.71612 20.1345 4.66406 19.2366L2 17.9309L2.8125 16.1321L5.47656 17.4368ZM13.6465 10.3431C15.7768 9.64406 18.0955 9.75479 20.1475 10.6526L22 11.5657L21.1875 13.3655L19.335 12.4515C17.739 11.7532 15.9352 11.6675 14.2783 12.2112L11.166 13.2327C9.03565 13.9318 6.71612 13.822 4.66406 12.9241L2 11.7884L2.8125 9.98856L5.47656 11.1243C7.0726 11.8227 8.87626 11.9083 10.5332 11.3645L13.6465 10.3431ZM13.6465 4.45438C15.7767 3.75541 18.0955 3.86612 20.1475 4.76395L22 5.67704L21.1875 7.47587L19.335 6.56278C17.739 5.86453 15.9352 5.77882 14.2783 6.32255L11.166 7.34403C9.03565 8.04315 6.71612 7.93333 4.66406 7.03544L2 5.8997L2.8125 4.09989L5.47656 5.23563C7.07261 5.93399 8.87625 6.01962 10.5332 5.47587L13.6465 4.45438Z" fill="#141414"/>
</svg>
