<svg width="24" height="24" viewBox="0 0 24 24" fill="none" xmlns="http://www.w3.org/2000/svg">
<path d="M3 19.9912C3.55219 19.9912 3.99985 20.4384 4 20.9902V21.001C3.99974 21.5528 3.55213 22 3 22C2.44787 22 2.00026 21.5528 2 21.001V20.9902C2.00015 20.4384 2.44781 19.9912 3 19.9912ZM7.5 19.9912C8.05219 19.9912 8.49985 20.4384 8.5 20.9902V21.001C8.49974 21.5528 8.05213 22 7.5 22C6.94787 22 6.50026 21.5528 6.5 21.001V20.9902C6.50015 20.4384 6.94781 19.9912 7.5 19.9912ZM12 19.9912C12.5522 19.9912 12.9999 20.4384 13 20.9902V21.001C12.9997 21.5528 12.5521 22 12 22C11.4479 22 11.0003 21.5528 11 21.001V20.9902C11.0001 20.4384 11.4478 19.9912 12 19.9912ZM16.5 19.9912C17.0522 19.9912 17.4999 20.4384 17.5 20.9902V21.001C17.4997 21.5528 17.0521 22 16.5 22C15.9479 22 15.5003 21.5528 15.5 21.001V20.9902C15.5001 20.4384 15.9478 19.9912 16.5 19.9912ZM22 2V21.9902H20V2H22ZM3 15.4932C3.55228 15.4932 4 15.9412 4 16.4932V16.5029C3.9999 17.0549 3.55222 17.502 3 17.502C2.44778 17.502 2.0001 17.0549 2 16.5029V16.4932C2 15.9412 2.44772 15.4932 3 15.4932ZM3 10.9951C3.55228 10.9951 4 11.4431 4 11.9951V12.0049C4 12.5569 3.55228 13.0049 3 13.0049C2.44772 13.0049 2 12.5569 2 12.0049V11.9951C2 11.4431 2.44772 10.9951 3 10.9951ZM3 6.49805C3.55222 6.49805 3.9999 6.94515 4 7.49707V7.50684C4 8.05884 3.55228 8.50684 3 8.50684C2.44772 8.50684 2 8.05884 2 7.50684V7.49707C2.0001 6.94515 2.44778 6.49805 3 6.49805ZM3 2C3.55213 2 3.99974 2.44723 4 2.99902V3.00977C3.99985 3.56165 3.55219 4.00879 3 4.00879C2.44781 4.00879 2.00015 3.56165 2 3.00977V2.99902C2.00026 2.44723 2.44787 2 3 2ZM7.5 2C8.05213 2 8.49974 2.44723 8.5 2.99902V3.00977C8.49985 3.56165 8.05219 4.00879 7.5 4.00879C6.94781 4.00879 6.50015 3.56165 6.5 3.00977V2.99902C6.50026 2.44723 6.94787 2 7.5 2ZM12 2C12.5521 2 12.9997 2.44723 13 2.99902V3.00977C12.9999 3.56165 12.5522 4.00879 12 4.00879C11.4478 4.00879 11.0001 3.56165 11 3.00977V2.99902C11.0003 2.44723 11.4479 2 12 2ZM16.5 2C17.0521 2 17.4997 2.44723 17.5 2.99902V3.00977C17.4999 3.56165 17.0522 4.00879 16.5 4.00879C15.9478 4.00879 15.5001 3.56165 15.5 3.00977V2.99902C15.5003 2.44723 15.9479 2 16.5 2Z" fill="#141414"/>
</svg>
