<svg width="24" height="24" viewBox="0 0 24 24" fill="none" xmlns="http://www.w3.org/2000/svg">
<path d="M12 1C16.1919 1 19.5 4.56911 19.5 8.85742C19.4999 11.0174 18.5235 12.9806 17.2354 14.6201C17.7682 14.7581 18.2681 14.9145 18.7266 15.0928C19.6088 15.4359 20.391 15.8693 20.9697 16.4014C21.5493 16.9342 22 17.6424 22 18.5C22 19.3576 21.5493 20.0658 20.9697 20.5986C20.391 21.1307 19.6088 21.5641 18.7266 21.9072C16.9557 22.5959 14.577 23 12 23C9.42296 23 7.04432 22.5959 5.27344 21.9072C4.39118 21.5641 3.60897 21.1307 3.03027 20.5986C2.45073 20.0658 2 19.3576 2 18.5C2 17.6424 2.45073 16.9342 3.03027 16.4014C3.60897 15.8693 4.39118 15.4359 5.27344 15.0928C5.73163 14.9146 6.2312 14.7581 6.76367 14.6201C5.47576 12.9807 4.50008 11.0172 4.5 8.85742C4.5 4.56911 7.80814 1 12 1ZM15.6875 16.3242C14.6776 17.2996 13.5829 18.1466 12.5547 18.832C12.2188 19.056 11.7812 19.056 11.4453 18.832C10.417 18.1465 9.32154 17.2998 8.31152 16.3242C7.43715 16.4862 6.65535 16.7014 5.99805 16.957C5.25181 17.2473 4.71589 17.5687 4.38379 17.874C4.05275 18.1785 4 18.3912 4 18.5C4 18.6088 4.05275 18.8215 4.38379 19.126C4.71589 19.4313 5.25181 19.7527 5.99805 20.043C7.48452 20.621 9.60648 21 12 21C14.3935 21 16.5155 20.621 18.002 20.043C18.7482 19.7527 19.2841 19.4313 19.6162 19.126C19.9473 18.8215 20 18.6088 20 18.5C20 18.3912 19.9473 18.1785 19.6162 17.874C19.2841 17.5687 18.7482 17.2473 18.002 16.957C17.3444 16.7013 16.5623 16.4862 15.6875 16.3242ZM12 3C9.01216 3 6.5 5.57154 6.5 8.85742C6.50009 10.4393 7.23441 12.009 8.40625 13.4736C9.42468 14.7465 10.7258 15.878 12 16.7852C13.2742 15.878 14.5753 14.7465 15.5938 13.4736C16.7656 12.009 17.4999 10.4393 17.5 8.85742C17.5 5.57154 14.9878 3 12 3ZM12 5.5C13.6569 5.5 15 6.84315 15 8.5C15 10.1569 13.6569 11.5 12 11.5C10.3431 11.5 9 10.1569 9 8.5C9 6.84315 10.3431 5.5 12 5.5ZM12 7.5C11.4477 7.5 11 7.94772 11 8.5C11 9.05228 11.4477 9.5 12 9.5C12.5523 9.5 13 9.05228 13 8.5C13 7.94772 12.5523 7.5 12 7.5Z" fill="#141414"/>
</svg>
