<svg width="24" height="24" viewBox="0 0 24 24" fill="none" xmlns="http://www.w3.org/2000/svg">
<path d="M16 1C17.1046 1 18 1.89543 18 3V5C18 6.10457 17.1046 7 16 7V9.53027L20.5605 13.332C21.4725 14.092 22 15.2182 22 16.4053V19C22 21.2091 20.2091 23 18 23H6C3.79086 23 2 21.2091 2 19V16.4053C2 15.2182 2.52748 14.092 3.43945 13.332L8 9.53027V7C6.89543 7 6 6.10457 6 5V3C6 1.89543 6.89543 1 8 1H16ZM8.16309 12L4.71973 14.8691C4.26385 15.2491 4 15.8118 4 16.4053V19C4 20.1046 4.89543 21 6 21H18C19.1046 21 20 20.1046 20 19V16.4053C20 15.8118 19.7362 15.2491 19.2803 14.8691L15.8369 12H8.16309ZM14.5 16C15.3284 16 16 16.6716 16 17.5C16 18.3284 15.3284 19 14.5 19C13.6716 19 13 18.3284 13 17.5C13 16.6716 13.6716 16 14.5 16ZM9 16C9.55228 16 10 16.4477 10 17C10 17.5523 9.55228 18 9 18C8.44772 18 8 17.5523 8 17C8 16.4477 8.44772 16 9 16ZM10 10H14V7H10V10ZM8 5H16V3H8V5Z" fill="#141414"/>
</svg>
