<svg width="24" height="24" viewBox="0 0 24 24" fill="none" xmlns="http://www.w3.org/2000/svg">
<path d="M9.99609 3.50483C11.2357 2.78729 12.7643 2.78729 14.0039 3.50483L20.5039 7.26753C21.7391 7.98263 22.4999 9.30225 22.5 10.7295V13.2705C22.4999 14.6977 21.7391 16.0172 20.5039 16.7324L14.0039 20.4951C12.7643 21.2127 11.2357 21.2127 9.99609 20.4951L3.49609 16.7324C2.26093 16.0172 1.50006 14.6977 1.5 13.2705V10.7295C1.50014 9.30225 2.26094 7.98263 3.49609 7.26753L9.99609 3.50483ZM4.92676 15.25L10.998 18.7646L11 18.7666V14.9052C10.6529 14.8156 10.3148 14.6796 9.99609 14.4951L8.11328 13.4062L4.92676 15.25ZM14.0039 14.4951C13.6852 14.6796 13.3471 14.8156 13 14.9052V18.7666L13.002 18.7646L19.0723 15.25L15.8857 13.4062L14.0039 14.4951ZM3.5 13.2705C3.50001 13.4286 3.51888 13.5842 3.55469 13.7343L6.11719 12.2509L3.5 10.7343V13.2705ZM17.8818 12.2509L20.4443 13.7343C20.4802 13.5842 20.5 13.4287 20.5 13.2705V10.7343L17.8818 12.2509ZM13.002 11.7353C12.3823 11.3767 11.6177 11.3767 10.998 11.7353L10.1084 12.2509L10.998 12.7646C11.6178 13.1233 12.3822 13.1233 13.002 12.7646L13.8906 12.2509L13.002 11.7353ZM10.998 5.2353L4.49805 8.99898C4.49707 8.99955 4.49609 9.00035 4.49512 9.00093L8.1123 11.0957L9.99609 10.0048C10.3148 9.82037 10.653 9.68431 11 9.59468V5.23433L10.998 5.2353ZM13 9.59468C13.347 9.68431 13.6852 9.82037 14.0039 10.0048L15.8857 11.0957L19.5039 9.00093L19.502 8.99898L13.002 5.2353L13 5.23433V9.59468Z" fill="#141414"/>
</svg>
