<svg width="24" height="24" viewBox="0 0 24 24" fill="none" xmlns="http://www.w3.org/2000/svg">
<path d="M11.293 1.29297C11.6835 0.902475 12.3165 0.902453 12.707 1.29297L16 4.58594L14.586 6.00001L13 4.41407V11H19.586L18 9.41408L19.4141 8.00001L22.7071 11.293C23.0975 11.6835 23.0975 12.3166 22.7071 12.7071L19.4141 16L18 14.586L19.586 13H13V19.586L14.586 18L16 19.4141L12.707 22.7071C12.3166 23.0976 11.6835 23.0975 11.293 22.7071L8.00001 19.4141L9.41407 18L11 19.586V13H4.41406L6 14.586L4.58594 16L1.29296 12.7071C0.902453 12.3165 0.902483 11.6835 1.29296 11.293L4.58594 8.00001L6 9.41408L4.41406 11H11V4.41407L9.41407 6.00001L8.00001 4.58594L11.293 1.29297Z" fill="#141414"/>
</svg>
