<svg width="24" height="24" viewBox="0 0 24 24" fill="none" xmlns="http://www.w3.org/2000/svg">
<path d="M8 3C8.55229 3 9 3.44772 9 4V7H15.5859L17.5859 5H14V3H20C20.4044 3 20.769 3.24359 20.9238 3.61719C21.0786 3.99086 20.993 4.42103 20.707 4.70703L17.1436 8.26953L17.7383 10.0537C17.9873 10.0192 18.2415 10 18.5 10C21.5376 10 24 12.4624 24 15.5C24 18.5376 21.5376 21 18.5 21C15.4624 21 13 18.5376 13 15.5C13 13.427 14.1469 11.622 15.8408 10.6846L15.2793 9H8.7207L8.1582 10.6846C9.85248 11.6218 11 13.4267 11 15.5C11 18.5376 8.53757 21 5.5 21C2.46243 21 0 18.5376 0 15.5C0 12.4624 2.46243 10 5.5 10C5.75819 10 6.01202 10.0193 6.26074 10.0537L7 7.83789V5H4V3H8ZM5.5 12C3.567 12 2 13.567 2 15.5C2 17.433 3.567 19 5.5 19C7.433 19 9 17.433 9 15.5C9 14.3145 8.4105 13.2669 7.50879 12.6338L6.44824 15.8164C6.27348 16.3402 5.70744 16.6229 5.18359 16.4482C4.65984 16.2735 4.37714 15.7074 4.55176 15.1836L5.61133 12.0029C5.57435 12.0018 5.53726 12 5.5 12ZM18.3877 12.0029L19.4482 15.1836C19.6229 15.7074 19.3402 16.2735 18.8164 16.4482C18.2926 16.6229 17.7265 16.3402 17.5518 15.8164L16.4902 12.6338C15.5889 13.267 15 14.3148 15 15.5C15 17.433 16.567 19 18.5 19C20.433 19 22 17.433 22 15.5C22 13.567 20.433 12 18.5 12C18.4624 12 18.425 12.0018 18.3877 12.0029Z" fill="#141414"/>
</svg>
