<svg width="24" height="24" viewBox="0 0 24 24" fill="none" xmlns="http://www.w3.org/2000/svg">
<path d="M10.5 15H7.5V12H10.5V15Z" fill="#141414"/>
<path d="M16.5 15H13.5V12H16.5V15Z" fill="#141414"/>
<path d="M10.5 9H7.5V6H10.5V9Z" fill="#141414"/>
<path d="M16.5 9H13.5V6H16.5V9Z" fill="#141414"/>
<path fill-rule="evenodd" clip-rule="evenodd" d="M17 1C19.2091 1 21 2.79086 21 5V21H23V23H1V21H3V5C3 2.79086 4.79086 1 7 1H17ZM7 3C5.89543 3 5 3.89543 5 5V21H7.5V18H10.5V21H13.5V18H16.5V21H19V5C19 3.89543 18.1046 3 17 3H7Z" fill="#141414"/>
</svg>
