<svg width="24" height="24" viewBox="0 0 24 24" fill="none" xmlns="http://www.w3.org/2000/svg">
<path d="M4 18C4 19.1046 4.89543 20 6 20H8V22H6C3.79086 22 2 20.2091 2 18V16H4V18ZM22 18C22 20.2091 20.2091 22 18 22H16V20H18C19.1046 20 20 19.1046 20 18V16H22V18ZM16.832 16.0146C14.1916 18.6549 9.62096 18.6548 6.98047 16.0146L8.39453 14.5996C10.254 16.4591 13.5585 16.4591 15.418 14.5996L16.832 16.0146ZM13.1875 11.5C13.1875 11.8409 13.0136 12.158 12.7266 12.3418L11.1641 13.3418L10.0859 11.6582L11.1875 10.9531V8H13.1875V11.5ZM7.40039 8.125C8.17341 8.12521 8.7998 8.75232 8.7998 9.52539C8.79959 10.2983 8.17328 10.9246 7.40039 10.9248C6.62732 10.9248 6.00021 10.2984 6 9.52539C6 8.75219 6.62719 8.125 7.40039 8.125ZM16.4004 8.125C17.1734 8.12521 17.7998 8.75232 17.7998 9.52539C17.7996 10.2983 17.1733 10.9246 16.4004 10.9248C15.6273 10.9248 15.0002 10.2984 15 9.52539C15 8.75219 15.6272 8.125 16.4004 8.125ZM8 4H6C4.89543 4 4 4.89543 4 6V8H2V6C2 3.79086 3.79086 2 6 2H8V4ZM18 2C20.2091 2 22 3.79086 22 6V8H20V6C20 4.89543 19.1046 4 18 4H16V2H18Z" fill="#141414"/>
</svg>
