<svg width="24" height="24" viewBox="0 0 24 24" fill="none" xmlns="http://www.w3.org/2000/svg">
<path d="M18 2C20.2091 2 22 3.79086 22 6V18C22 20.14 20.3194 21.8879 18.2061 21.9951L18 22H6C3.79086 22 2 20.2091 2 18V6L2.00488 5.79395C2.11211 3.68056 3.85996 2 6 2H18ZM6 4C4.96435 4 4.113 4.78722 4.01074 5.7959L4 6V18C4 19.1046 4.89543 20 6 20H18L18.2041 19.9893C19.2128 19.887 20 19.0357 20 18V6C20 4.89543 19.1046 4 18 4H6ZM8.5 9.79004C8.5 8.22555 10.2154 7.26634 11.5479 8.08594L15.1406 10.2969C16.4091 11.0779 16.4091 12.9221 15.1406 13.7031L11.5479 15.9141C10.2154 16.7337 8.5 15.7744 8.5 14.21V9.79004ZM10.5 14.21L14.0918 12L10.5 9.79004V14.21Z" fill="#141414"/>
</svg>
