<svg width="24" height="24" viewBox="0 0 24 24" fill="none" xmlns="http://www.w3.org/2000/svg">
<path d="M12 1C18.0751 1 23 5.92487 23 12C23 18.0751 18.0751 23 12 23C5.92487 23 1 18.0751 1 12C1 5.92487 5.92487 1 12 1ZM12 3C7.02944 3 3 7.02944 3 12C3 16.9706 7.02944 21 12 21C16.9706 21 21 16.9706 21 12C21 7.02944 16.9706 3 12 3ZM11 7H12V5H14V7C15.6569 7 17 8.34315 17 10C17 10.7695 16.7077 11.469 16.2314 12C16.7077 12.531 17 13.2305 17 14C17 15.6569 15.6569 17 14 17V19H12V17H11V19H9V17H7V15H9V9H7V7H9V5H11V7ZM11 15H14C14.5523 15 15 14.5523 15 14C15 13.4477 14.5523 13 14 13H11V15ZM11 11H14C14.5523 11 15 10.5523 15 10C15 9.44771 14.5523 9 14 9H11V11Z" fill="#141414"/>
</svg>
