<svg width="24" height="24" viewBox="0 0 24 24" fill="none" xmlns="http://www.w3.org/2000/svg">
<path d="M13 9H7V7H13V9Z" fill="#141414"/>
<path fill-rule="evenodd" clip-rule="evenodd" d="M14 2C16.2091 2 18 3.79086 18 6V9H20C21.1046 9 22 9.89543 22 11V20H23V22H1V20H2V6C2 3.79086 3.79086 2 6 2H14ZM6 4C4.89543 4 4 4.89543 4 6V20H6.5V15C6.5 13.3431 7.84315 12 9.5 12H10.5C12.1569 12 13.5 13.3431 13.5 15V20H16V6C16 4.89543 15.1046 4 14 4H6ZM9.5 14C8.94772 14 8.5 14.4477 8.5 15V20H11.5V15C11.5 14.4477 11.0523 14 10.5 14H9.5ZM18 20H20V11H18V20Z" fill="#141414"/>
</svg>
