<svg width="24" height="24" viewBox="0 0 24 24" fill="none" xmlns="http://www.w3.org/2000/svg">
<path d="M18 2C20.2091 2 22 3.79086 22 6V18C22 20.2091 20.2091 22 18 22H6C3.79086 22 2 20.2091 2 18V6C2 3.79086 3.79086 2 6 2H18ZM6 4C4.89543 4 4 4.89543 4 6V18C4 19.1046 4.89543 20 6 20H18C19.1046 20 20 19.1046 20 18V6C20 4.89543 19.1046 4 18 4H6ZM10.707 9.70703L8.41406 12L10.707 14.293L9.29297 15.707L6.29297 12.707C5.90244 12.3165 5.90244 11.6835 6.29297 11.293L9.29297 8.29297L10.707 9.70703ZM17.707 11.293C18.0976 11.6835 18.0976 12.3165 17.707 12.707L14.707 15.707L13.293 14.293L15.5859 12L13.293 9.70703L14.707 8.29297L17.707 11.293Z" fill="#141414"/>
</svg>
