<svg width="24" height="24" viewBox="0 0 24 24" fill="none" xmlns="http://www.w3.org/2000/svg">
<path d="M21.8994 21.2129L20.4854 22.627L18.6318 20.7734C18.1131 20.9204 17.5659 21 17 21H7C3.6864 20.9999 1 18.3136 1 15C1 12.3749 2.68516 10.1448 5.03223 9.33008C5.09031 8.71839 5.22729 8.12977 5.43262 7.57422L2.68652 4.82812L4.10059 3.41406L21.8994 21.2129ZM7.06348 9.20508C7.02207 9.464 7 9.72942 7 10C7 10.0291 7.00074 10.0085 7.00195 10.083C7.00979 10.5647 6.67236 10.9843 6.2002 11.0801C4.37435 11.4502 3 13.0656 3 15C3 17.2091 4.79097 18.9999 7 19H16.8584L7.06348 9.20508ZM12 3C15.6399 3.00012 18.6295 5.77851 18.9668 9.33008C21.3143 10.1445 23 12.3745 23 15C23 16.2696 22.6045 17.4464 21.9316 18.416L20.4824 16.9668C20.8112 16.3859 21 15.7152 21 15C21 13.0654 19.6252 11.4499 17.7988 11.0801C17.3266 10.9844 16.9892 10.5648 16.9971 10.083C16.9973 10.0661 16.9976 10.0509 16.998 10.0391C16.9984 10.0282 16.9998 10.0153 17 10.0098C17.0002 10.0053 17 10.0021 17 10C17 7.23866 14.7613 5.00013 12 5C11.007 5.00005 10.0817 5.28989 9.30371 5.78906L7.86621 4.35156C9.02453 3.50227 10.4535 3.00005 12 3Z" fill="#141414"/>
</svg>
