<svg width="24" height="24" viewBox="0 0 24 24" fill="none" xmlns="http://www.w3.org/2000/svg">
<path d="M4.22152 4.22161C8.51726 -0.0741183 15.4824 -0.0740315 19.7782 4.22161C24.074 8.51739 24.074 15.4825 19.7782 19.7783C15.4824 24.0741 8.51728 24.0741 4.22152 19.7783C-0.0741185 15.4825 -0.0742148 8.51733 4.22152 4.22161ZM7.04282 12.6562C5.87679 14.1799 5.25626 16.1017 5.37094 18.0879C5.45689 18.1813 5.54497 18.2736 5.63559 18.3642C7.05379 19.7824 8.82838 20.6286 10.6708 20.9023C8.80997 19.1519 7.65328 16.7395 7.48716 14.1552C7.25905 13.6775 7.1106 13.1712 7.04282 12.6562ZM10.0887 16.622C10.8253 18.3936 12.1794 19.892 13.9569 20.7861C15.5719 20.428 17.1078 19.6206 18.3641 18.3642C18.6085 18.1199 18.8354 17.8645 19.0458 17.6006C16.5985 18.338 13.9297 18.1338 11.6073 16.9843C11.0894 16.9438 10.5762 16.8234 10.0887 16.622ZM20.3739 8.69624C19.7894 11.1842 18.2786 13.3931 16.1229 14.83C15.9521 15.0783 15.7568 15.3154 15.536 15.5361C15.3804 15.6917 15.2166 15.835 15.0468 15.9658C16.9501 16.2136 18.9253 15.7889 20.5888 14.6953C21.201 12.7384 21.1294 10.6138 20.3739 8.69624ZM8.95298 8.0351C7.04964 7.78731 5.07439 8.21103 3.41097 9.30464C2.79875 11.2614 2.87049 13.3862 3.62582 15.3037C4.21048 12.8156 5.72192 10.6068 7.87778 9.16987C8.04857 8.92174 8.24405 8.68544 8.4647 8.46479C8.62025 8.30925 8.78327 8.16587 8.95298 8.0351ZM11.9921 8.99995C11.227 9.00199 10.4625 9.29512 9.87877 9.87886C8.70724 11.0504 8.70734 12.9495 9.87877 14.1211C11.0503 15.2926 12.9494 15.2926 14.121 14.1211C14.2474 13.9946 14.3607 13.8602 14.4598 13.7187C14.4987 13.631 14.5504 13.548 14.6141 13.4736C15.0929 12.6252 15.126 11.5935 14.7137 10.7197C14.6614 10.6467 14.6182 10.5665 14.5868 10.4804C14.4605 10.2658 14.3053 10.0632 14.121 9.87886C13.5926 9.35055 12.9164 9.06049 12.2255 9.00874C12.1484 9.01501 12.0698 9.01197 11.9921 8.99995ZM13.329 3.09856C15.1897 4.84887 16.3474 7.2605 16.5136 9.84468C16.7416 10.3223 16.8891 10.8288 16.9569 11.3437C18.1229 9.81994 18.7435 7.89829 18.6288 5.91205C18.5429 5.81865 18.4547 5.72626 18.3641 5.63568C16.9459 4.21751 15.1714 3.37223 13.329 3.09856ZM10.0428 3.21478C8.4279 3.57295 6.89195 4.37932 5.63559 5.63568C5.39126 5.88001 5.16431 6.13539 4.95395 6.39936C7.40125 5.66191 10.07 5.86612 12.3924 7.01557C12.9104 7.05611 13.4235 7.17658 13.911 7.37787C13.1744 5.60651 11.8202 4.10889 10.0428 3.21478Z" fill="#141414"/>
</svg>
