<svg width="24" height="24" viewBox="0 0 24 24" fill="none" xmlns="http://www.w3.org/2000/svg">
<path d="M14.5415 1C16.9754 1.00024 18.8455 3.15596 18.5015 5.56543L18.1362 8.12207C18.0733 8.56232 18.1588 9.01133 18.3794 9.39746L21.0142 14.0078C21.7756 15.341 20.8122 16.9997 19.2769 17H13.0004V23H11.0004V17H4.72402C3.18845 17 2.22504 15.3411 2.9867 14.0078L5.62148 9.39746C5.84203 9.01138 5.92752 8.56224 5.86465 8.12207L5.49941 5.56543C5.15535 3.15582 7.0253 1.00003 9.4594 1H14.5415ZM9.4594 3C8.24231 3.00003 7.30777 4.07835 7.4799 5.2832L7.84513 7.83984C7.97082 8.72021 7.79899 9.6175 7.35782 10.3896L4.72402 15H19.2769L16.643 10.3896C16.2018 9.61745 16.03 8.72028 16.1557 7.83984L16.521 5.2832C16.693 4.07849 15.7584 3.00024 14.5415 3H9.4594Z" fill="#141414"/>
</svg>
