<svg width="24" height="24" viewBox="0 0 24 24" fill="none" xmlns="http://www.w3.org/2000/svg">
<path d="M18 16C20.2091 16 22 17.7909 22 20V22H20V20C20 18.8954 19.1046 18 18 18H6C4.89543 18 4 18.8954 4 20V22H2V20C2 17.7909 3.79086 16 6 16H18ZM3.00977 11C3.56165 11.0001 4.00879 11.4478 4.00879 12C4.00879 12.5522 3.56165 12.9999 3.00977 13H2.99902C2.44723 12.9997 2 12.5521 2 12C2 11.4479 2.44723 11.0003 2.99902 11H3.00977ZM7.50684 11C8.05884 11 8.50684 11.4477 8.50684 12C8.50684 12.5523 8.05884 13 7.50684 13H7.49707C6.94514 12.9999 6.49805 12.5522 6.49805 12C6.49805 11.4478 6.94514 11.0001 7.49707 11H7.50684ZM12.0049 11C12.5569 11 13.0049 11.4477 13.0049 12C13.0049 12.5523 12.5569 13 12.0049 13H11.9951C11.4431 13 10.9951 12.5523 10.9951 12C10.9951 11.4477 11.4431 11 11.9951 11H12.0049ZM16.5029 11C17.0549 11.0001 17.502 11.4478 17.502 12C17.502 12.5522 17.0549 12.9999 16.5029 13H16.4932C15.9412 13 15.4932 12.5523 15.4932 12C15.4932 11.4477 15.9412 11 16.4932 11H16.5029ZM21.001 11C21.5528 11.0003 22 11.4479 22 12C22 12.5521 21.5528 12.9997 21.001 13H20.9902C20.4384 12.9999 19.9912 12.5522 19.9912 12C19.9912 11.4478 20.4384 11.0001 20.9902 11H21.001ZM4 4C4 5.10457 4.89543 6 6 6H18C19.1046 6 20 5.10457 20 4V2H22V4C22 6.20914 20.2091 8 18 8H6C3.79086 8 2 6.20914 2 4V2H4V4Z" fill="#141414"/>
</svg>
