<svg width="24" height="24" viewBox="0 0 24 24" fill="none" xmlns="http://www.w3.org/2000/svg">
<path d="M18 2C20.2091 2 22 3.79086 22 6V18C22 20.2091 20.2091 22 18 22H6C3.79086 22 2 20.2091 2 18V6C2 3.79086 3.79086 2 6 2H18ZM4 18C4 19.1046 4.89543 20 6 20H18C19.1046 20 20 19.1046 20 18V9H4V18ZM10.707 12.207L8.41406 14.5L10.707 16.793L9.29297 18.207L6.29297 15.207C5.90244 14.8165 5.90244 14.1835 6.29297 13.793L9.29297 10.793L10.707 12.207ZM17.707 13.793C18.0976 14.1835 18.0976 14.8165 17.707 15.207L14.707 18.207L13.293 16.793L15.5859 14.5L13.293 12.207L14.707 10.793L17.707 13.793ZM6 4C4.89543 4 4 4.89543 4 6V7H20V6C20 4.89543 19.1046 4 18 4H6Z" fill="#141414"/>
</svg>
