<svg width="24" height="24" viewBox="0 0 24 24" fill="none" xmlns="http://www.w3.org/2000/svg">
<path fill-rule="evenodd" clip-rule="evenodd" d="M19.6607 8.92463C20.3538 8.23145 21.4513 8.18805 22.1948 8.79475L22.3384 8.92463L22.4253 9.01741C22.8425 9.49486 22.9949 10.153 22.8237 10.7694L21.48 15.6053C20.7586 18.2022 18.394 19.9998 15.6987 19.9998H9.41359L7.41359 21.9998C6.63255 22.7807 5.36647 22.7808 4.58546 21.9998L1.94679 19.3621C1.20806 18.6232 1.16332 17.4397 1.84328 16.6463L6.0425 11.7459C6.99235 10.6378 8.37985 9.99991 9.83937 9.99983H14.9995C15.9772 9.99983 16.8434 10.4694 17.3911 11.1932L19.6607 8.92463ZM17.9663 13.4461C17.7508 14.8913 16.5047 15.9998 14.9995 15.9998H10.9995V13.9998H14.9995C15.5518 13.9998 15.9995 13.5521 15.9995 12.9998C15.9995 12.4476 15.5518 11.9998 14.9995 11.9998H9.83937C8.9637 11.9999 8.13094 12.3828 7.56105 13.0477L3.36183 17.9471L5.99953 20.5858L7.99953 18.5858C8.3745 18.2108 8.88331 17.9999 9.41359 17.9998H15.6987C17.4956 17.9998 19.0723 16.8014 19.5532 15.0701L20.7876 10.6248L17.9663 13.4461Z" fill="#141414"/>
<path fill-rule="evenodd" clip-rule="evenodd" d="M13.4995 1.57014C14.5714 0.733975 16.1114 0.81621 17.0874 1.82307C17.7237 2.47974 18.0121 3.26491 17.9995 4.07209C17.9872 4.85078 17.697 5.58618 17.2993 6.21272C16.5141 7.44947 15.1589 8.49834 13.8159 8.94612C13.6107 9.0145 13.3884 9.01453 13.1831 8.94612C11.8403 8.49826 10.4849 7.44935 9.69972 6.21272C9.3021 5.58623 9.01182 4.85067 8.99953 4.07209C8.98691 3.2649 9.27534 2.47975 9.91164 1.82307C10.8875 0.816019 12.4275 0.734176 13.4995 1.57014ZM15.6509 3.21467C15.3703 2.92568 14.9284 2.92545 14.648 3.21467L13.4995 4.40022L12.3511 3.21467C12.0705 2.92563 11.6286 2.92546 11.3482 3.21467C11.0813 3.49005 10.9952 3.76347 10.9995 4.04084C11.0044 4.34684 11.1242 4.72444 11.3882 5.14045C11.8646 5.89086 12.6885 6.56945 13.4995 6.92561C14.3107 6.5695 15.1344 5.89099 15.6109 5.14045C15.875 4.72432 15.9947 4.34691 15.9995 4.04084C16.0038 3.76347 15.9177 3.49005 15.6509 3.21467Z" fill="#141414"/>
</svg>
