<svg width="24" height="24" viewBox="0 0 24 24" fill="none" xmlns="http://www.w3.org/2000/svg">
<path d="M12 1C18.0751 1 23 5.92487 23 12C23 18.0751 18.0751 23 12 23C5.92487 23 1 18.0751 1 12C1 5.92487 5.92487 1 12 1ZM12 3C7.02944 3 3 7.02944 3 12C3 16.9706 7.02944 21 12 21C16.9706 21 21 16.9706 21 12C21 7.02944 16.9706 3 12 3ZM16.707 8.70703L13.4141 12L16.707 15.293L15.293 16.707L12 13.4141L8.70703 16.707L7.29297 15.293L10.5859 12L7.29297 8.70703L8.70703 7.29297L12 10.5859L15.293 7.29297L16.707 8.70703Z" fill="#141414"/>
</svg>
