<svg width="24" height="24" viewBox="0 0 24 24" fill="none" xmlns="http://www.w3.org/2000/svg">
<path d="M14.7578 1.5C15.8185 1.50012 16.8359 1.92184 17.5859 2.67188L21.3281 6.41406C22.0782 7.1641 22.4999 8.18149 22.5 9.24219V14.7578C22.4999 15.8185 22.0782 16.8359 21.3281 17.5859L17.5859 21.3281C16.8359 22.0782 15.8185 22.4999 14.7578 22.5H9.66699C8.66623 22.5 7.70159 22.1245 6.96387 21.4482L2.79688 17.6289C1.97053 16.8714 1.5001 15.8017 1.5 14.6807V9.24219C1.50012 8.18149 1.92184 7.1641 2.67188 6.41406L6.41406 2.67188C7.1641 1.92184 8.18149 1.50012 9.24219 1.5H14.7578ZM9.24219 3.5C8.71192 3.50012 8.20309 3.71097 7.82812 4.08594L4.08594 7.82812C3.71097 8.20309 3.50012 8.71192 3.5 9.24219V14.6807C3.5001 15.241 3.7354 15.7756 4.14844 16.1543L8.31543 19.9746C8.68428 20.3127 9.16666 20.5 9.66699 20.5H14.7578C15.2881 20.4999 15.7969 20.289 16.1719 19.9141L19.9141 16.1719C20.289 15.7969 20.4999 15.2881 20.5 14.7578V9.24219C20.4999 8.71192 20.289 8.20309 19.9141 7.82812L16.1719 4.08594C15.7969 3.71097 15.2881 3.50012 14.7578 3.5H9.24219Z" fill="#141414"/>
</svg>
