<svg width="24" height="24" viewBox="0 0 24 24" fill="none" xmlns="http://www.w3.org/2000/svg">
<path d="M11.0521 1.26125C11.6675 1.05635 12.3333 1.05626 12.9486 1.26125L19.8256 3.55423C21.1379 3.99187 21.9813 5.27035 21.8666 6.64897L21.3295 13.0875C21.0938 15.9158 19.5378 18.4678 17.1312 19.9723L12.5306 22.8473C12.2064 23.0499 11.7944 23.0499 11.4701 22.8473L6.86949 19.9723C4.46266 18.4679 2.90694 15.916 2.67123 13.0875L2.13412 6.64897C2.01945 5.27028 2.86271 3.99183 4.17514 3.55423L11.0521 1.26125ZM12.3168 3.15872C12.1116 3.09034 11.8891 3.09043 11.684 3.15872L4.80796 5.45072C4.37052 5.59653 4.0892 6.02346 4.12729 6.48295L4.6644 12.9214C4.84774 15.1215 6.05796 17.1059 7.93004 18.276L12.0004 20.8199L16.0707 18.276C17.9425 17.1059 19.153 15.1213 19.3363 12.9214L19.8734 6.48295C19.9115 6.02353 19.6301 5.59657 19.1928 5.45072L12.3168 3.15872ZM14.4213 9.47905C14.6302 9.68808 14.7361 9.97857 14.7103 10.273C14.6845 10.5675 14.5296 10.8349 14.2875 11.0044L11.5502 12.9214L14.4213 15.7926L13.0072 17.2066L9.29333 13.4927C9.08436 13.2838 8.97857 12.9932 9.00426 12.6988C9.03004 12.4044 9.18411 12.1359 9.42614 11.9664L12.1644 10.0503L9.29333 7.17826L10.7074 5.7642L14.4213 9.47905Z" fill="#141414"/>
</svg>
