<svg width="24" height="24" viewBox="0 0 24 24" fill="none" xmlns="http://www.w3.org/2000/svg">
<path d="M23 2V22H21V2H23ZM16 13C17.6569 13 19 14.3431 19 16V18C19 19.6569 17.6569 21 16 21H10C8.34315 21 7 19.6569 7 18V16C7 14.3431 8.34315 13 10 13H16ZM10 15C9.44772 15 9 15.4477 9 16V18C9 18.5523 9.44772 19 10 19H16C16.5523 19 17 18.5523 17 18V16C17 15.4477 16.5523 15 16 15H10ZM16 3C17.6569 3 19 4.34315 19 6V8C19 9.65685 17.6569 11 16 11H4C2.34315 11 1 9.65685 1 8V6C1 4.34315 2.34315 3 4 3H16ZM4 5C3.44772 5 3 5.44772 3 6V8C3 8.55228 3.44772 9 4 9H16C16.5523 9 17 8.55228 17 8V6C17 5.44772 16.5523 5 16 5H4Z" fill="#141414"/>
</svg>
