<svg width="24" height="24" viewBox="0 0 24 24" fill="none" xmlns="http://www.w3.org/2000/svg">
<path d="M7.74413 1.08888C8.12324 0.917587 8.56909 0.998802 8.86327 1.29298C9.15728 1.58723 9.23876 2.03308 9.06737 2.41212C8.5308 3.5986 8.23143 4.91636 8.23143 6.30665C8.23154 11.5324 12.4676 15.7685 17.6933 15.7686C19.0836 15.7686 20.4014 15.4692 21.5879 14.9326C21.9669 14.7612 22.4128 14.8426 22.707 15.1367C23.0012 15.4309 23.0824 15.8767 22.9111 16.2559C21.1136 20.2306 17.112 23 12.4619 23C6.13163 22.9998 1 17.8674 1 11.5371C1.00019 6.88725 3.76949 2.88636 7.74413 1.08888ZM6.41308 4.26075C4.32683 5.997 3.00014 8.61278 3 11.5371C3 16.7629 7.2362 20.9998 12.4619 21C15.3864 21 18.0029 19.6733 19.7392 17.5869C19.0751 17.7066 18.3912 17.7686 17.6933 17.7686C11.363 17.7685 6.23155 12.637 6.23144 6.30665C6.23144 5.60883 6.29336 4.92488 6.41308 4.26075Z" fill="#141414"/>
</svg>
