<svg width="24" height="24" viewBox="0 0 24 24" fill="none" xmlns="http://www.w3.org/2000/svg">
<path d="M12 1C14.273 1 16.3676 1.25493 17.9248 1.6875C18.6962 1.90179 19.3927 2.17531 19.9199 2.52148C20.4065 2.84103 21 3.39501 21 4.22266V19.7783C20.9997 20.6057 20.4064 21.1601 19.9199 21.4795C19.3927 21.8256 18.6952 22.0983 17.9238 22.3125C16.3667 22.7449 14.2727 23 12 23C9.72733 23 7.63335 22.7449 6.07617 22.3125C5.30482 22.0983 4.60731 21.8256 4.08008 21.4795C3.59359 21.1601 3.00035 20.6057 3 19.7783V4.22266L3.00684 4.07031C3.07376 3.32632 3.62391 2.82107 4.08008 2.52148C4.60726 2.17531 5.30382 1.90179 6.0752 1.6875C7.63244 1.25493 9.72702 1 12 1ZM19 16.8389C18.6672 16.975 18.3053 17.0964 17.9248 17.2021C16.3676 17.6347 14.2729 17.8896 12 17.8896C9.72706 17.8896 7.63244 17.6347 6.0752 17.2021C5.69469 17.0964 5.33277 16.975 5 16.8389V19.668C5.02971 19.6974 5.08332 19.7456 5.17773 19.8076C5.46011 19.9929 5.93482 20.1981 6.61035 20.3857C7.94854 20.7573 9.85479 21 12 21C14.1452 21 16.0515 20.7573 17.3896 20.3857C18.0652 20.1981 18.5399 19.9929 18.8223 19.8076C18.9167 19.7456 18.9703 19.6974 19 19.668V16.8389ZM19 11.6172C18.6673 11.7533 18.3052 11.8738 17.9248 11.9795C16.3676 12.4121 14.273 12.667 12 12.667C9.72702 12.667 7.63244 12.4121 6.0752 11.9795C5.69478 11.8738 5.33271 11.7533 5 11.6172V14.5566C5.02967 14.5861 5.08306 14.6341 5.17773 14.6963C5.46007 14.8816 5.93474 15.0867 6.61035 15.2744C7.94853 15.6461 9.85474 15.8896 12 15.8896C14.1453 15.8896 16.0515 15.6461 17.3896 15.2744C18.0653 15.0867 18.5399 14.8816 18.8223 14.6963C18.9169 14.6341 18.9703 14.5861 19 14.5566V11.6172ZM19 6.39453C18.7563 6.49424 18.4966 6.58482 18.2256 6.66797C18.1267 6.69848 18.0266 6.72953 17.9248 6.75781C17.1461 6.97417 16.233 7.14589 15.2305 7.26367C14.7295 7.32254 14.2061 7.36779 13.666 7.39844C13.1256 7.4291 12.5684 7.44531 12 7.44531C11.4316 7.44531 10.8744 7.4291 10.334 7.39844C9.79391 7.36779 9.27052 7.32254 8.76953 7.26367C7.76702 7.14589 6.8539 6.97417 6.0752 6.75781C5.9731 6.72944 5.87264 6.69858 5.77344 6.66797C5.50278 6.58489 5.24346 6.49413 5 6.39453V9.33398C5.02963 9.36344 5.08288 9.41134 5.17773 9.47363C5.46005 9.659 5.93463 9.86402 6.61035 10.0518C7.94853 10.4235 9.8547 10.667 12 10.667C14.1453 10.667 16.0515 10.4235 17.3896 10.0518C18.0654 9.86402 18.5399 9.659 18.8223 9.47363C18.9171 9.41134 18.9704 9.36344 19 9.33398V6.39453ZM12 3C9.8547 3 7.94853 3.24254 6.61035 3.61426C5.93443 3.80204 5.46005 4.00795 5.17773 4.19336C5.16275 4.2032 5.14877 4.21263 5.13574 4.22168C5.1489 4.23083 5.16258 4.24102 5.17773 4.25098C5.23916 4.29132 5.30994 4.33214 5.38965 4.37402C5.61429 4.492 5.91251 4.61229 6.28516 4.73047C6.38811 4.76312 6.49589 4.79828 6.61035 4.83008C7.94853 5.2018 9.8547 5.44434 12 5.44434C14.1453 5.44434 16.0515 5.2018 17.3896 4.83008C17.5041 4.79828 17.6119 4.76312 17.7148 4.73047C18.0875 4.61229 18.3857 4.492 18.6104 4.37402C18.6901 4.33214 18.7608 4.29132 18.8223 4.25098C18.8372 4.24119 18.8503 4.23069 18.8633 4.22168C18.8504 4.21276 18.837 4.20303 18.8223 4.19336C18.5399 4.00795 18.0656 3.80204 17.3896 3.61426C16.0515 3.24254 14.1453 3 12 3Z" fill="#141414"/>
</svg>
