<svg width="24" height="24" viewBox="0 0 24 24" fill="none" xmlns="http://www.w3.org/2000/svg">
<path d="M18.3115 1.99997C19.3189 1.99241 20.2962 2.26311 21.0166 2.98337C21.737 3.70381 22.0075 4.68089 22 5.68845C21.9925 6.69106 21.7136 7.80256 21.2451 8.9404C20.842 9.91926 20.2841 10.9525 19.5918 12C20.2842 13.0475 20.842 14.0806 21.2451 15.0595C21.7136 16.1973 21.9924 17.3089 22 18.3115C22.0075 19.3191 21.737 20.2961 21.0166 21.0166C20.2961 21.737 19.3191 22.0075 18.3115 22C17.3089 21.9924 16.1973 21.7136 15.0595 21.2451C14.0807 20.842 13.0475 20.2841 12 19.5918C10.9524 20.2842 9.91931 20.842 8.9404 21.2451C7.80255 21.7136 6.69108 21.9924 5.68845 22C4.68089 22.0075 3.70381 21.737 2.98337 21.0166C2.2632 20.2962 1.99248 19.3198 1.99997 18.3125C2.00749 17.3098 2.28726 16.1975 2.75583 15.0595C3.15892 14.0807 3.7168 13.0475 4.40915 12C3.7167 10.9523 3.15894 9.91936 2.75583 8.9404C2.28729 7.80251 2.00752 6.69111 1.99997 5.68845C1.99241 4.68089 2.26292 3.70381 2.98337 2.98337C3.70381 2.26292 4.68089 1.99241 5.68845 1.99997C6.69111 2.00752 7.80251 2.28729 8.9404 2.75583C9.91937 3.15894 10.9523 3.71669 12 4.40915C13.0475 3.71682 14.0807 3.1589 15.0595 2.75583C16.1973 2.28733 17.3089 2.00757 18.3115 1.99997ZM5.64841 13.708C5.20495 14.437 4.84272 15.1426 4.56931 15.8066C4.15926 16.8024 3.96691 17.6577 3.96188 18.3271C3.95696 18.9915 4.13389 19.3927 4.37106 19.6299C4.60831 19.8669 5.00943 20.043 5.6738 20.0381C6.34319 20.033 7.19765 19.8406 8.19333 19.4306C8.85738 19.1572 9.56385 18.796 10.2929 18.3525C9.46416 17.6964 8.63964 16.9629 7.83884 16.1621C7.03812 15.3614 6.30449 14.5367 5.64841 13.708ZM18.3525 13.708C17.6964 14.5368 16.9629 15.3612 16.1621 16.1621C15.3613 16.9629 14.5368 17.6964 13.708 18.3525C14.4368 18.7959 15.1428 19.1573 15.8066 19.4306C16.8024 19.8407 17.6577 20.033 18.3271 20.0381C18.9914 20.043 19.3927 19.867 19.6299 19.6299C19.867 19.3927 20.043 18.9914 20.0381 18.3271C20.033 17.6577 19.8407 16.8024 19.4306 15.8066C19.1573 15.1428 18.7959 14.4368 18.3525 13.708ZM12 6.80856C11.0761 7.50207 10.1395 8.31161 9.22556 9.22556C8.31163 10.1395 7.50206 11.0761 6.80856 12C7.50202 12.9238 8.31169 13.8605 9.22556 14.7744C10.1395 15.6883 11.0761 16.4979 12 17.1914C12.9238 16.4979 13.8605 15.6883 14.7744 14.7744C15.6883 13.8604 16.4979 12.9239 17.1914 12C16.4979 11.0761 15.6883 10.1395 14.7744 9.22556C13.8605 8.31169 12.9238 7.50202 12 6.80856ZM12 10.5C12.8283 10.5 13.4999 11.1716 13.5 12C13.5 12.8284 12.8284 13.5 12 13.5C11.1716 13.4999 10.5 12.8283 10.5 12C10.5001 11.1717 11.1717 10.5001 12 10.5ZM5.6738 3.96188C5.0092 3.9569 4.6073 4.13288 4.37009 4.37009C4.13288 4.6073 3.9569 5.0092 3.96188 5.6738C3.96695 6.34316 4.15938 7.19772 4.56931 8.19333C4.84276 8.85744 5.20483 9.56378 5.64841 10.2929C6.30456 9.46414 7.03801 8.63967 7.83884 7.83884C8.63969 7.03799 9.46411 6.30457 10.2929 5.64841C9.56378 5.20482 8.85745 4.84277 8.19333 4.56931C7.19772 4.15938 6.34316 3.96695 5.6738 3.96188ZM18.3271 3.96188C17.6577 3.96691 16.8024 4.15927 15.8066 4.56931C15.1426 4.8427 14.437 5.20496 13.708 5.64841C14.5367 6.30449 15.3614 7.03812 16.1621 7.83884C16.9628 8.63963 17.6964 9.46418 18.3525 10.2929C18.796 9.56391 19.1572 8.85733 19.4306 8.19333C19.8406 7.19765 20.033 6.34318 20.0381 5.6738C20.043 5.00943 19.8669 4.60831 19.6299 4.37106C19.3927 4.13391 18.9915 3.95698 18.3271 3.96188Z" fill="#141414"/>
</svg>
