<svg width="24" height="24" viewBox="0 0 24 24" fill="none" xmlns="http://www.w3.org/2000/svg">
<path d="M14.5 1C19.7467 1 24 5.25329 24 10.5C24 15.3921 20.3022 19.4133 15.5498 19.9365C13.8984 21.2281 11.7849 22 9.5 22C4.31127 22 2.63675e-07 18.0268 0 13C6.36185e-08 11.2806 1.44312 10.0292 3.06348 9.2666C3.51383 9.05467 4.00504 8.86681 4.5293 8.7041L3.34668 6H1V4H4L4.14648 4.01074C4.48383 4.06062 4.77662 4.28099 4.91602 4.59961L5.81348 6.65137C7.2903 3.32221 10.6229 1 14.5 1ZM15.7969 16.7949C14.1138 17.5553 11.8944 18 9.5 18C7.10521 18 4.88536 17.5555 3.20215 16.7949C4.5285 18.711 6.83162 20 9.5 20C11.3793 20 13.077 19.3596 14.3809 18.3125L14.5088 18.2061C14.9475 17.8381 15.3372 17.4231 15.6719 16.9717C15.7148 16.9136 15.7558 16.8542 15.7969 16.7949ZM14.5 3C11.191 3 8.38181 5.1437 7.38672 8.11816C7.53173 8.10171 7.67794 8.0873 7.8252 8.07422C7.88264 8.06907 7.94026 8.0642 7.99805 8.05957C8.10558 8.05104 8.21367 8.04381 8.32227 8.03711C8.35673 8.03495 8.39121 8.03225 8.42578 8.03027L8.58691 8.02148C8.67288 8.01739 8.75916 8.01466 8.8457 8.01172C8.89768 8.00992 8.94976 8.00821 9.00195 8.00684C9.16704 8.00258 9.33309 8 9.5 8C9.65375 8 9.80677 8.00224 9.95898 8.00586C12.0908 8.05648 14.0629 8.45831 15.6113 9.12109C15.7219 9.16841 15.8304 9.21666 15.9365 9.2666C16.0378 9.31429 16.1387 9.36354 16.2383 9.41504C17.682 10.1614 18.9153 11.3084 18.9961 12.8398C18.9989 12.8928 19 12.9462 19 13V13.0264L18.9893 13.4385L18.9883 13.4521V13.4658C18.9865 13.4988 18.9816 13.5316 18.9795 13.5645C18.9711 13.6935 18.9613 13.8218 18.9473 13.9492C18.9445 13.974 18.9405 13.9987 18.9375 14.0234C18.9215 14.1579 18.903 14.2914 18.8809 14.4238C18.8746 14.4608 18.8671 14.4974 18.8604 14.5342C18.6908 15.4737 18.3684 16.3597 17.9189 17.1719C20.3413 15.9291 22 13.4096 22 10.5C22 6.35786 18.6421 3 14.5 3ZM9.5 10C9.31221 10 9.12629 10.0038 8.94238 10.0098C8.70911 10.0174 8.47877 10.0281 8.25195 10.0449C8.21341 10.0478 8.17505 10.0516 8.13672 10.0547C7.86576 10.0767 7.59991 10.1053 7.33984 10.1396L8.17285 12.0439C8.59236 12.0152 9.03806 12 9.5 12C11.9853 12 14 12.4477 14 13C14 13.5523 11.9853 14 9.5 14C7.01472 14 5 13.5523 5 13C5 12.747 5.42301 12.5169 6.12012 12.3408L5.33594 10.5488C4.81294 10.6999 4.3362 10.878 3.91504 11.0762C2.45924 11.7613 2 12.5103 2 13C2 13.4897 2.45924 14.2387 3.91504 14.9238C5.29258 15.5721 7.26629 16 9.5 16C11.7337 16 13.7074 15.5721 15.085 14.9238C16.5148 14.2509 16.9818 13.5163 16.998 13.0264L16.999 12.9912C16.9942 12.563 16.6407 11.9408 15.585 11.3359C15.4331 11.2489 15.2669 11.1618 15.085 11.0762C13.7074 10.4279 11.7337 10 9.5 10ZM16 7C16.5523 7 17 7.44772 17 8C17 8.55228 16.5523 9 16 9C15.4477 9 15 8.55228 15 8C15 7.44772 15.4477 7 16 7ZM19 6C19.5523 6 20 6.44772 20 7C20 7.55228 19.5523 8 19 8C18.4477 8 18 7.55228 18 7C18 6.44772 18.4477 6 19 6ZM15 4C15.5523 4 16 4.44772 16 5C16 5.55228 15.5523 6 15 6C14.4477 6 14 5.55228 14 5C14 4.44772 14.4477 4 15 4Z" fill="#141414"/>
</svg>
