<svg width="24" height="24" viewBox="0 0 24 24" fill="none" xmlns="http://www.w3.org/2000/svg">
<path d="M7.50001 4.13523C7.50022 2.43973 9.4777 1.51363 10.7803 2.59908L14.2188 5.46435C15.1775 6.26395 15.1777 7.73714 14.2188 8.53665L10.0615 12.0006L14.2188 15.4645C15.1775 16.2641 15.1777 17.7373 14.2188 18.5368L10.7803 21.402C9.4778 22.4871 7.50054 21.561 7.50001 19.8659V14.1353L3.14063 17.7692L1.85938 16.232L6.93653 12.0006L1.85938 7.76906L3.14063 6.23193L7.50001 9.86479V4.13523ZM9.50001 19.8659L12.9375 17.0006L9.50001 14.1353V19.8659ZM21.7647 6.6001C23.2529 9.79079 23.4513 13.9982 22.0635 17.401L20.211 16.6451C21.3792 13.7807 21.2145 10.1543 19.9512 7.44581L21.7647 6.6001ZM17.9141 8.32278C18.9765 10.72 19.0431 13.8855 17.9483 16.4684L16.1074 15.6881C16.9855 13.6166 16.9251 11.0269 16.086 9.13333L17.9141 8.32278ZM9.50001 9.86479L12.9375 7.0005L9.50001 4.13523V9.86479Z" fill="#141414"/>
</svg>
