<svg width="24" height="24" viewBox="0 0 24 24" fill="none" xmlns="http://www.w3.org/2000/svg">
<g clip-path="url(#clip0_1460_1089)">
<path d="M12.0004 0C12.5523 1.77563e-05 13.095 0.0383491 13.6264 0.111328C14.729 0.262774 15.5824 1.07473 15.8617 2.10156C16.031 2.72395 16.1825 3.39449 16.3168 4.10449C16.4386 4.17118 16.5588 4.2404 16.6772 4.3125C17.3582 4.07395 18.0139 3.87008 18.6371 3.70508C19.6651 3.43295 20.7944 3.76467 21.477 4.64258C22.142 5.4979 22.6945 6.4461 23.1107 7.46484C23.5316 8.49537 23.2537 9.63943 22.5053 10.3936C22.0499 10.8524 21.5437 11.3195 20.9945 11.792C20.9965 11.8605 21.0004 11.9299 21.0004 12C21.0004 12.0695 20.9964 12.1382 20.9945 12.2061C21.5432 12.6779 22.0489 13.1451 22.5043 13.6035C23.2533 14.3575 23.5316 15.5017 23.1107 16.5322C22.6947 17.5509 22.1426 18.4992 21.4779 19.3545C20.7951 20.2327 19.666 20.5637 18.6381 20.292C18.015 20.1273 17.3595 19.9231 16.6781 19.6846C16.5594 19.7569 16.439 19.8266 16.3168 19.8936C16.1824 20.6039 16.031 21.2748 15.8617 21.8975C15.5824 22.9242 14.7294 23.7356 13.6273 23.8877C13.096 23.961 12.5528 24 12.0004 24C11.447 24 10.9022 23.9611 10.3695 23.8877C9.26761 23.7357 8.41514 22.9242 8.13614 21.8975C7.96703 21.2747 7.81528 20.6037 7.68106 19.8936C7.55886 19.8266 7.43845 19.757 7.31973 19.6846C6.63843 19.923 5.98283 20.1273 5.35977 20.292C4.33165 20.5637 3.20257 20.2323 2.51993 19.3535C1.85559 18.4983 1.30386 17.5507 0.888092 16.5322C0.467571 15.5021 0.745227 14.3585 1.49356 13.6045C1.94915 13.1457 2.45521 12.6774 3.0043 12.2051C3.00262 12.1372 3.0004 12.0688 3.0004 12C3.0004 11.9305 3.0026 11.8615 3.0043 11.793C2.4556 11.321 1.94984 10.854 1.49454 10.3955C0.745761 9.64147 0.467399 8.49724 0.888092 7.4668C1.30413 6.44775 1.85597 5.49924 2.5209 4.64355C3.20343 3.76527 4.33283 3.43333 5.36075 3.70508C5.98392 3.86983 6.63944 4.07402 7.32071 4.3125C7.43877 4.24052 7.55853 4.17111 7.68008 4.10449C7.81426 3.39461 7.96609 2.7242 8.13516 2.10156C8.41405 1.07473 9.26709 0.262627 10.3695 0.111328C10.9026 0.0381958 11.4472 0 12.0004 0ZM12.0004 2C11.5394 2 11.0854 2.03179 10.641 2.09277C10.3813 2.12842 10.1463 2.32594 10.0648 2.62598C9.87562 3.32288 9.70612 4.09779 9.56094 4.93848C9.50564 5.25874 9.29785 5.53243 9.0043 5.67188C8.65958 5.83542 8.32991 6.02674 8.01895 6.24219C7.75118 6.42771 7.40963 6.47089 7.10391 6.3584C6.30341 6.06382 5.5472 5.82325 4.84903 5.63867C4.54863 5.55939 4.26056 5.66448 4.10001 5.87109C3.54557 6.58463 3.08587 7.37465 2.73965 8.22266C2.64116 8.46391 2.69439 8.76569 2.91348 8.98633C3.42323 9.49964 4.01061 10.035 4.66739 10.582C4.91714 10.7901 5.04987 11.1067 5.02383 11.4307C5.00841 11.6226 5.0004 11.8121 5.0004 12C5.0004 12.1873 5.00844 12.3764 5.02383 12.5684C5.04983 12.8923 4.91711 13.209 4.66739 13.417C4.01041 13.9642 3.42333 14.5002 2.91348 15.0137C2.6945 15.2342 2.64121 15.5352 2.73965 15.7764C3.08565 16.6239 3.54495 17.4137 4.09903 18.127C4.25972 18.3337 4.54819 18.4379 4.84903 18.3584C5.54705 18.1738 6.30284 17.9341 7.10294 17.6396L7.21915 17.6045C7.49291 17.54 7.78373 17.5936 8.01798 17.7559C8.25137 17.9176 8.49519 18.0662 8.74844 18.1992L9.0043 18.3271L9.11075 18.3857C9.34801 18.5359 9.51352 18.7802 9.56192 19.0605C9.70705 19.9011 9.87658 20.6761 10.0658 21.373C10.1474 21.6732 10.3827 21.8704 10.643 21.9062C11.087 21.9674 11.5402 22 12.0004 22C12.4591 22 12.9109 21.9673 13.3539 21.9062C13.6144 21.8702 13.8493 21.6726 13.9311 21.3721C14.1206 20.6751 14.2919 19.9008 14.4369 19.0605L14.4643 18.9424C14.5451 18.6735 14.7365 18.4491 14.9936 18.3271C15.339 18.1634 15.6684 17.9717 15.9799 17.7559C16.2476 17.5703 16.5892 17.5272 16.8949 17.6396C17.6948 17.9341 18.4508 18.1738 19.1488 18.3584C19.4496 18.4379 19.738 18.3336 19.8988 18.127C20.4532 17.4136 20.9131 16.6239 21.2592 15.7764C21.3577 15.5352 21.3044 15.2342 21.0854 15.0137C20.5753 14.5003 19.9877 13.9644 19.3305 13.417C19.0808 13.209 18.948 12.8923 18.974 12.5684C18.99 12.3696 19.0004 12.1822 19.0004 12C19.0004 11.8173 18.99 11.6294 18.974 11.4307C18.948 11.1067 19.0808 10.7901 19.3305 10.582C19.9877 10.0346 20.5753 9.49836 21.0854 8.98438C21.3046 8.7634 21.3577 8.46189 21.2592 8.2207C20.9128 7.37294 20.4525 6.58347 19.8979 5.87012C19.7372 5.66355 19.4498 5.55849 19.1498 5.6377C18.4516 5.82253 17.6948 6.06366 16.894 6.3584C16.5885 6.47073 16.2475 6.42738 15.9799 6.24219C15.6689 6.0268 15.3389 5.83558 14.9936 5.67188C14.6997 5.53253 14.4923 5.25898 14.4369 4.93848C14.2918 4.09818 14.1206 3.32385 13.9311 2.62695C13.8493 2.32638 13.6141 2.12851 13.3539 2.09277C12.9111 2.03197 12.4594 2.00002 12.0004 2ZM14.5004 12C14.5004 10.6194 13.3809 9.50021 12.0004 9.5C10.6197 9.5 9.5004 10.6193 9.5004 12C9.5004 13.3807 10.6197 14.5 12.0004 14.5C13.3809 14.4998 14.5004 13.3806 14.5004 12ZM16.5004 12C16.5004 14.4852 14.4855 16.4998 12.0004 16.5C9.51512 16.5 7.5004 14.4853 7.5004 12C7.5004 9.51472 9.51512 7.5 12.0004 7.5C14.4855 7.50021 16.5004 9.51485 16.5004 12Z" fill="#141414"/>
</g>
<defs>
<clipPath id="clip0_1460_1089">
<rect width="24" height="24" fill="white"/>
</clipPath>
</defs>
</svg>
