<svg width="24" height="24" viewBox="0 0 24 24" fill="none" xmlns="http://www.w3.org/2000/svg">
<path d="M8 13V15H4.17969C5.06173 16.0153 5.97399 17.0118 6.97754 17.8604C8.5083 19.1547 10.1355 20 12 20C15.806 20 18.9934 17.3408 19.8018 13.7783L21.752 14.2217C20.7413 18.6749 16.7602 22 12 22C9.48008 22 7.40798 20.8442 5.68555 19.3877C4.71756 18.5692 3.82362 17.6214 3 16.6895V20H1V14C1 13.4477 1.44772 13 2 13H8ZM12 2C14.5196 2.00007 16.5912 3.15603 18.3135 4.6123C19.2815 5.43084 20.1764 6.3786 21 7.31055V4H23V10C23 10.5522 22.5522 10.9999 22 11H16V9H19.8203C18.9382 7.98466 18.0261 6.98827 17.0225 6.13965C15.4917 4.8453 13.8645 4.00007 12 4C8.194 4 5.00662 6.65918 4.19824 10.2217L2.24805 9.77832C3.25877 5.3251 7.23982 2 12 2Z" fill="#141414"/>
</svg>
