<svg width="24" height="24" viewBox="0 0 24 24" fill="none" xmlns="http://www.w3.org/2000/svg">
<path d="M12 1C18.0751 1 23 5.92487 23 12C23 18.0751 18.0751 23 12 23C5.92487 23 1 18.0751 1 12C1 5.92487 5.92487 1 12 1ZM12 3C7.02944 3 3 7.02944 3 12C3 16.9706 7.02944 21 12 21C16.9706 21 21 16.9706 21 12C21 7.02944 16.9706 3 12 3ZM9.66699 14.2227C9.66723 16.1248 11.2092 17.667 13.1113 17.667C14.1985 17.6669 15.1679 17.1644 15.8008 16.375L17.3613 17.625C16.3652 18.8676 14.831 19.6669 13.1113 19.667C10.1046 19.667 7.66723 17.2293 7.66699 14.2227H9.66699ZM18.5 12C19.3284 12 20 12.6716 20 13.5C20 14.3284 19.3284 15 18.5 15C17.6716 15 17 14.3284 17 13.5C17 12.6716 17.6716 12 18.5 12ZM12.5 9C13.3284 9 14 9.67157 14 10.5C14 11.3284 13.3284 12 12.5 12C11.6716 12 11 11.3284 11 10.5C11 9.67157 11.6716 9 12.5 9Z" fill="#141414"/>
</svg>
