<svg width="24" height="24" viewBox="0 0 24 24" fill="none" xmlns="http://www.w3.org/2000/svg">
<path d="M20.4922 20.8422L19.0771 22.2562L15.0078 18.1869L10.709 22.6635C9.7286 23.6831 8.02565 22.7711 8.33203 21.39L9.75195 15.0004H4.38672C3.18137 14.9995 2.53972 13.5756 3.33789 12.6722L6.22656 9.40564L1.39941 4.5785L2.81445 3.16443L20.4922 20.8422ZM10.749 19.7338L13.5928 16.7719L11.8047 14.9838L10.749 19.7338ZM13.3584 1.35389C14.3224 0.432597 15.9601 1.29247 15.6885 2.65076L14.2178 10.0043L19.5684 10.0228C20.7996 10.0272 21.4261 11.5049 20.5732 12.3929L17.7764 15.3031L16.3613 13.8881L18.1592 12.0179L14.4785 12.0053L12.2275 9.75428L13.291 4.43982L10.2969 7.82361L8.87988 6.40662L13.2676 1.44861L13.3584 1.35389ZM5.71777 13.0004H9.82129L7.64258 10.8217L5.71777 13.0004Z" fill="#141414"/>
</svg>
