<svg width="24" height="24" viewBox="0 0 24 24" fill="none" xmlns="http://www.w3.org/2000/svg">
<path d="M18 2C20.2091 2 22 3.79086 22 6V18C22 20.2091 20.2091 22 18 22H6C3.79086 22 2 20.2091 2 18V6C2 3.79086 3.79086 2 6 2H18ZM6 4C4.89543 4 4 4.89543 4 6V18C4 19.1046 4.89543 20 6 20H18C19.1046 20 20 19.1046 20 18V6C20 4.89543 19.1046 4 18 4H6ZM13 6C14.933 6 16.5 7.567 16.5 9.5C16.5 10.2566 16.2597 10.9569 15.8516 11.5293C16.8413 12.1476 17.5 13.247 17.5 14.5C17.5 16.433 15.933 18 14 18H8.5C7.94772 18 7.5 17.5523 7.5 17V7C7.5 6.44772 7.94772 6 8.5 6H13ZM9.5 16H14C14.8284 16 15.5 15.3284 15.5 14.5C15.5 13.6716 14.8284 13 14 13H9.5V16ZM9.5 11H13C13.8284 11 14.5 10.3284 14.5 9.5C14.5 8.67157 13.8284 8 13 8H9.5V11Z" fill="#141414"/>
</svg>
