<svg width="24" height="24" viewBox="0 0 24 24" fill="none" xmlns="http://www.w3.org/2000/svg">
<path fill-rule="evenodd" clip-rule="evenodd" d="M12 1C14.0435 1 15.7002 2.65674 15.7002 4.7002C15.7001 6.39704 14.5576 7.82746 13 8.26367V20.9385C14.7569 20.721 16.4 19.9349 17.6621 18.6924C18.9127 17.461 19.7136 15.7575 19.9365 14H17.4004V12H21C21.5523 12 22 12.4477 22 13C22 15.604 20.954 18.2577 19.0654 20.1172C17.1889 21.9648 14.6471 23 12 23C9.35285 23 6.81107 21.9648 4.93457 20.1172C3.046 18.2577 2 15.604 2 13C2 12.7348 2.10543 12.4805 2.29297 12.293C2.48051 12.1054 2.73478 12 3 12H6.59961V14H4.06348C4.28643 15.7575 5.08729 17.461 6.33789 18.6924C7.60001 19.9349 9.24305 20.721 11 20.9385V8.26367C9.44242 7.82746 8.29989 6.39704 8.2998 4.7002C8.2998 2.65674 9.95655 1 12 1ZM12 3C11.0611 3 10.2998 3.76131 10.2998 4.7002C10.2999 5.63899 11.0612 6.40039 12 6.40039C12.9388 6.40039 13.7001 5.63899 13.7002 4.7002C13.7002 3.76131 12.9389 3 12 3Z" fill="#141414"/>
</svg>
