<svg width="24" height="24" viewBox="0 0 24 24" fill="none" xmlns="http://www.w3.org/2000/svg">
<path d="M19.5 20.5859L21.5859 18.5L23 19.9141L19.207 23.707C18.8166 24.0975 18.1835 24.0974 17.793 23.707L14.0859 20L15.5 18.5859L17.5 20.5859V16H19.5V20.5859ZM12.7578 1C13.8185 1.00012 14.8359 1.42184 15.5859 2.17188L19.8281 6.41406C20.5782 7.1641 20.9999 8.18148 21 9.24219V13H19V9.24219C19 9.16074 18.9932 9.08003 18.9834 9H17C14.7909 9 13 7.20914 13 5V3.01562C12.92 3.00584 12.8392 3.00002 12.7578 3H7C5.89543 3 5 3.89543 5 5V19C5 20.1046 5.89543 21 7 21H12V23H7C4.79086 23 3 21.2091 3 19V5C3 2.79086 4.79086 1 7 1H12.7578ZM15 5C15 6.10457 15.8954 7 17 7H17.5859L15 4.41406V5Z" fill="#141414"/>
</svg>
