<svg width="24" height="24" viewBox="0 0 24 24" fill="none" xmlns="http://www.w3.org/2000/svg">
<path d="M11.9814 1.5C12.9412 1.5 13.8436 1.95918 14.4082 2.73535L17.5088 7H20C21.6568 7 23 8.34315 23 10V19C23 20.6569 21.6568 22 20 22H6.70408C4.09161 21.9999 1.91925 19.9885 1.71873 17.3838L1.16892 10.2305C1.03491 8.48817 2.41272 7.00013 4.16014 7H8.49998V4.5C8.49998 2.84322 9.84323 1.50012 11.5 1.5H11.9814ZM11.5 3.5C10.9478 3.50012 10.5 3.94779 10.5 4.5V8C10.5 8.55229 10.0523 9 9.49998 9H4.16014C3.57774 9.00013 3.1184 9.49644 3.16306 10.0771L3.71287 17.2305C3.83327 18.7932 5.13671 19.9999 6.70408 20H16V8.3252L12.79 3.91211C12.6018 3.65343 12.3013 3.5 11.9814 3.5H11.5ZM18 9V20H20C20.5523 20 21 19.5523 21 19V10C21 9.44772 20.5523 9 20 9H18Z" fill="#141414"/>
</svg>
