<svg width="24" height="24" viewBox="0 0 24 24" fill="none" xmlns="http://www.w3.org/2000/svg">
<path d="M12 1C12.5523 1 13 1.44772 13 2V22C13 22.5523 12.5523 23 12 23C5.92487 23 1 18.0751 1 12C1 5.92487 5.92487 1 12 1ZM17.1865 21.7021C16.5565 22.0396 15.8895 22.3184 15.1934 22.5293L14.6143 20.6152C15.1827 20.443 15.7272 20.2153 16.2422 19.9395L17.1865 21.7021ZM11 3.05664C6.50014 3.55417 3 7.36751 3 12C3 16.6325 6.50019 20.4448 11 20.9424V3.05664ZM20.5029 18.9785C20.0458 19.5349 19.5349 20.0458 18.9785 20.5029L17.709 18.958C18.1647 18.5836 18.5836 18.1647 18.958 17.709L20.5029 18.9785ZM22.5293 15.1934C22.3184 15.8895 22.0396 16.5565 21.7021 17.1865L19.9395 16.2422C20.2153 15.7272 20.443 15.1827 20.6152 14.6143L22.5293 15.1934ZM22.9482 10.9229C22.9827 11.2775 23 11.6369 23 12C23 12.3631 22.9827 12.7225 22.9482 13.0771L20.957 12.8838C20.9853 12.5933 21 12.2985 21 12C21 11.7015 20.9853 11.4067 20.957 11.1162L22.9482 10.9229ZM21.7021 6.81348C22.0396 7.44345 22.3184 8.11048 22.5293 8.80664L20.6152 9.38574C20.443 8.81732 20.2153 8.27281 19.9395 7.75781L21.7021 6.81348ZM18.9785 3.49707C19.5349 3.95421 20.0458 4.4651 20.5029 5.02148L18.958 6.29102C18.5836 5.83527 18.1647 5.41644 17.709 5.04199L18.9785 3.49707ZM15.1934 1.4707C15.8895 1.68162 16.5565 1.96044 17.1865 2.29785L16.2422 4.06055C15.7272 3.78473 15.1827 3.557 14.6143 3.38477L15.1934 1.4707Z" fill="#141414"/>
</svg>
