<svg width="24" height="24" viewBox="0 0 24 24" fill="none" xmlns="http://www.w3.org/2000/svg">
<path d="M12 1C18.0768 1 23 5.93443 23 12.0176C23 15.0499 21.8936 17.6882 19.7793 19.8066C15.7206 23.8731 9.02425 24.0836 4.72266 20.2803C2.4408 18.2627 1.00002 15.3077 1 12.0176C1 8.9757 2.23196 6.21944 4.22168 4.22656C6.21099 2.23414 8.96251 1 12 1ZM11 3.05469C8.91501 3.28542 7.04486 4.22927 5.63672 5.63965C4.00649 7.27249 3 9.52637 3 12.0176C3.00002 14.7113 4.17769 17.1277 6.04785 18.7812C9.55655 21.8835 15.0522 21.7119 18.3643 18.3936C19.8692 16.8856 20.7407 15.0898 20.9502 13.0176H12C11.4477 13.0176 11 12.5698 11 12.0176V3.05469ZM13 11.0176H20.9453C20.4849 6.83583 17.1712 3.51676 13 3.05469V11.0176Z" fill="#141414"/>
</svg>
