<svg width="24" height="24" viewBox="0 0 24 24" fill="none" xmlns="http://www.w3.org/2000/svg">
<path fill-rule="evenodd" clip-rule="evenodd" d="M9.54395 2.14386C10.9884 1.02041 13.0116 1.02041 14.4561 2.14386L20.4561 6.80988C21.4302 7.56761 21.9999 8.73296 22 9.9671V18.0003C21.9999 20.2094 20.2091 22.0003 18 22.0003H6C3.79091 22.0003 2.00008 20.2094 2 18.0003V9.9671C2.00014 8.73296 2.56979 7.56761 3.54395 6.80988L9.54395 2.14386ZM13.2275 3.72199C12.5054 3.16058 11.4946 3.16058 10.7725 3.72199L4.77246 8.38898C4.28545 8.7678 4.00014 9.35012 4 9.9671V18.0003C4.00008 19.1048 4.89548 20.0003 6 20.0003H18C19.1045 20.0003 19.9999 19.1048 20 18.0003V9.9671C19.9999 9.35012 19.7146 8.7678 19.2275 8.38898L13.2275 3.72199Z" fill="#141414"/>
</svg>
