<svg width="24" height="24" viewBox="0 0 24 24" fill="none" xmlns="http://www.w3.org/2000/svg">
<path d="M9.74217 2.31532C11.3211 0.754013 14 1.87215 14 4.09267V6.9999H15C19.4182 6.99995 23 10.5817 23 14.9999V19.039C22.9999 19.4806 22.7101 19.8702 22.2871 19.997C21.864 20.1237 21.4079 19.9577 21.165 19.5888C20.1016 17.9727 18.2959 16.9999 16.3613 16.9999H14V19.9072C13.9999 22.1276 11.3211 23.2457 9.74217 21.6845L1.74606 13.7773C0.756502 12.7988 0.75654 11.2011 1.74606 10.2226L9.74217 2.31532ZM12 4.09267C12 3.64857 11.4642 3.42495 11.1484 3.7372L3.15231 11.6445C2.95445 11.8402 2.95442 12.1597 3.15231 12.3554L11.1484 20.2626C11.4642 20.5748 11.9999 20.3512 12 19.9072V15.9999C12 15.4476 12.4477 14.9999 13 14.9999H16.3613C18.0577 14.9999 19.6786 15.5572 21 16.5449V14.9999C21 11.6862 18.3137 8.99996 15 8.99991H13C12.4477 8.99991 12 8.55214 12 7.99991V4.09267Z" fill="#141414"/>
</svg>
