<svg width="24" height="24" viewBox="0 0 24 24" fill="none" xmlns="http://www.w3.org/2000/svg">
<path d="M18 2C20.2091 2 22 3.79086 22 6V18C22 20.2091 20.2091 22 18 22H6C3.79086 22 2 20.2091 2 18V6C2 3.79086 3.79086 2 6 2H18ZM6 4C4.89543 4 4 4.89543 4 6V14.2559L7.02832 11.2275C7.21583 11.04 7.47017 10.9346 7.73535 10.9346C8.00057 10.9346 8.25485 11.04 8.44238 11.2275L10.6514 13.4365L14.583 9.50488H12.623V7.50488H16.9971C17.5494 7.50488 17.9971 7.9526 17.9971 8.50488V12.6357H15.9971V10.9189L11.3584 15.5576C10.9679 15.948 10.3348 15.9479 9.94434 15.5576L7.73535 13.3486L4 17.084V18C4 19.1046 4.89543 20 6 20H18C19.1046 20 20 19.1046 20 18V6C20 4.89543 19.1046 4 18 4H6Z" fill="#141414"/>
</svg>
