<svg width="24" height="24" viewBox="0 0 24 24" fill="none" xmlns="http://www.w3.org/2000/svg">
<path d="M12 1C18.0751 1 23 5.92487 23 12C23 15.0368 21.7682 17.7879 19.7793 19.7773C17.7897 21.7672 15.0376 23 12 23C9.211 23 6.66213 21.9609 4.72363 20.25C2.44163 18.2359 1 15.2855 1 12C1 8.96238 2.23277 6.21027 4.22266 4.2207C6.21209 2.23176 8.96321 1 12 1ZM13 5.5H11V3.05469C9.26432 3.24639 7.67787 3.93178 6.38281 4.96777L8.20703 6.79199L6.79297 8.20605L4.96875 6.38184C3.9322 7.67713 3.24645 9.26377 3.05469 11H5.38574V13H3.05469C3.27062 14.9548 4.11265 16.7205 5.37695 18.0938L6.5791 16.8926L7.99316 18.3066L6.88965 19.4102C8.08281 20.2348 9.48448 20.7779 11 20.9453V18.5H13V20.9453C14.7362 20.7535 16.3229 20.0678 17.6182 19.0312L16.293 17.7061L17.707 16.292L19.0322 17.6172C20.0682 16.3221 20.7536 14.7357 20.9453 13H18.5V11H20.9453C20.7527 9.25733 20.0621 7.66473 19.0195 6.36719L15.3994 9.9873C15.7489 10.5766 15.9502 11.2654 15.9502 12C15.9502 13.0759 15.5185 14.0532 14.8213 14.7646C14.1055 15.4951 13.105 15.9501 12 15.9502C9.81848 15.9502 8.0498 14.1815 8.0498 12C8.04984 10.895 8.50488 9.89451 9.23535 9.17871C9.94681 8.48155 10.9241 8.0498 12 8.0498C12.7572 8.04984 13.4654 8.26424 14.0664 8.63379L17.6807 5.01855C16.3746 3.95452 14.764 3.24969 13 3.05469V5.5ZM12 9.9502C11.4411 9.9502 10.9361 10.1729 10.5654 10.5361C10.1846 10.9093 9.95023 11.4262 9.9502 12C9.9502 13.1322 10.8678 14.0498 12 14.0498C12.5737 14.0498 13.0907 13.8153 13.4639 13.4346C13.8271 13.0639 14.0498 12.5589 14.0498 12C14.0498 11.4412 13.8271 10.9361 13.4639 10.5654C13.0907 10.1847 12.5737 9.95025 12 9.9502Z" fill="#141414"/>
</svg>
