<svg width="24" height="24" viewBox="0 0 24 24" fill="none" xmlns="http://www.w3.org/2000/svg">
<path d="M10.6846 1C15.7571 1 19.869 5.11205 19.8691 10.1846C19.8691 12.3456 19.123 14.3326 17.874 15.9014L22.5 20.5273L21.0273 22L16.4014 17.374C14.8326 18.623 12.8456 19.3691 10.6846 19.3691C5.61205 19.369 1.5 15.2571 1.5 10.1846C1.50013 5.11213 5.61213 1.00013 10.6846 1ZM10.6846 3.08301C6.76265 3.08314 3.58314 6.26265 3.58301 10.1846C3.58301 14.1066 6.76257 17.286 10.6846 17.2861C14.6067 17.2861 17.7861 14.1067 17.7861 10.1846C17.786 6.26257 14.6066 3.08301 10.6846 3.08301ZM11 4.89258C13.7203 5.05216 15.8897 7.26253 15.9834 10H13.9814C13.8914 8.36742 12.615 7.05149 11 6.89844V4.89258Z" fill="#141414"/>
</svg>
