<svg width="24" height="24" viewBox="0 0 24 24" fill="none" xmlns="http://www.w3.org/2000/svg">
<path d="M14.5 1C14.8343 1.00001 15.1465 1.16712 15.332 1.44531C15.5175 1.72351 15.5514 2.07614 15.4228 2.38477L13.5 7H21C21.4011 7.00001 21.763 7.24017 21.9199 7.60938C22.0767 7.97853 21.9981 8.40563 21.7197 8.69434L8.2197 22.6943C7.89938 23.0264 7.39337 23.0962 6.99509 22.8633C6.59682 22.6303 6.40951 22.1549 6.54197 21.7129L9.15623 13H2.99998C2.6534 13 2.3316 12.8202 2.14939 12.5254C1.9673 12.2306 1.95049 11.8627 2.10545 11.5527L6.10545 1.55273C6.27484 1.21396 6.62121 1 6.99998 1H14.5ZM4.61814 11H11.8437L9.64255 18.3369L18.6465 9H10.5L13 3H7.61814L4.61814 11Z" fill="#141414"/>
</svg>
