<svg width="24" height="24" viewBox="0 0 24 24" fill="none" xmlns="http://www.w3.org/2000/svg">
<path d="M6.82324 3C7.64079 3.00011 8.37589 3.49784 8.67969 4.25684L10.1836 8.0166C10.4806 8.75939 10.3069 9.60815 9.74121 10.1738L8.75488 11.1582C9.79019 12.8118 11.1873 14.2087 12.8408 15.2441L13.8262 14.2588C14.3918 13.6931 15.2406 13.5194 15.9834 13.8164L19.7432 15.3203C20.5022 15.6241 20.9999 16.3592 21 17.1768V20C21 21.6569 19.6569 23 18 23C8.61116 23 1 15.3888 1 6C1 4.34315 2.34315 3 4 3H6.82324ZM4 5C3.44772 5 3 5.44772 3 6C3 14.2843 9.71573 21 18 21C18.5523 21 19 20.5523 19 20V17.1768L15.2412 15.6738L13.8779 17.0361C13.4584 17.4557 12.8091 17.5434 12.2939 17.249C9.98467 15.9294 8.0706 14.0153 6.75098 11.7061C6.45658 11.1909 6.54429 10.5416 6.96387 10.1221L8.32617 8.75879L6.82324 5H4ZM13 6C15.7614 6 18 8.23858 18 11H16C16 9.34315 14.6569 8 13 8V6ZM13 2C17.9706 2 22 6.02944 22 11H20C20 7.13401 16.866 4 13 4V2Z" fill="#141414"/>
</svg>
