<svg width="24" height="24" viewBox="0 0 24 24" fill="none" xmlns="http://www.w3.org/2000/svg">
<path d="M5.29297 2.29297C5.68349 1.90245 6.31651 1.90245 6.70703 2.29297L10 5.58594L8.58594 7.00001L7 5.41407V18.586L8.58594 17L10 18.4141L6.70703 21.7071C6.31652 22.0975 5.68348 22.0975 5.29297 21.7071L2 18.4141L3.41406 17L5 18.586V5.41407L3.41406 7.00001L2 5.58594L5.29297 2.29297ZM22 19H12V17H22V19ZM22 15H12V13H22V15ZM22 11H12V9.00001H22V11ZM22 7.00001H12V5.00001H22V7.00001Z" fill="#141414"/>
</svg>
