<svg width="24" height="24" viewBox="0 0 24 24" fill="none" xmlns="http://www.w3.org/2000/svg">
<path d="M7 1C8.65685 1 10 2.34315 10 4V14C11.2131 14.9112 12 16.3632 12 18C12 20.7615 9.76124 23 7 23C4.23876 23 2 20.7615 2 18C2 16.3632 2.7869 14.9112 4 14V4C4 2.34315 5.34315 1 7 1ZM7 3C6.44772 3 6 3.44772 6 4V15.1123L5.50098 15.4004C4.60156 15.9206 4 16.8908 4 18C4 19.6569 5.34327 21 7 21C8.65673 21 10 19.6569 10 18C10 16.8908 9.39844 15.9206 8.49902 15.4004L8 15.1123V4C8 3.44772 7.55228 3 7 3ZM7 16.5C7.82843 16.5 8.5 17.1716 8.5 18C8.5 18.8284 7.82843 19.5 7 19.5C6.17157 19.5 5.5 18.8284 5.5 18C5.5 17.1716 6.17157 16.5 7 16.5ZM22 12H13V10H22V12ZM22 8H13V6H22V8ZM22 4H13V2H22V4Z" fill="#141414"/>
</svg>
