<svg width="24" height="24" viewBox="0 0 24 24" fill="none" xmlns="http://www.w3.org/2000/svg">
<path d="M12 1C18.0751 1 23 5.92487 23 12C23 18.0751 18.0751 23 12 23C5.92487 23 1 18.0751 1 12C1 5.92487 5.92487 1 12 1ZM13 6.44434H11V3.05469C6.82838 3.51584 3.51584 6.82838 3.05469 11H6.44434V13H3.05469C3.51584 17.1716 6.82838 20.4842 11 20.9453V17.5557H13V20.9453C17.1716 20.4842 20.4842 17.1716 20.9453 13H17.5557V11H20.9453C20.4842 6.82838 17.1716 3.51584 13 3.05469V6.44434Z" fill="#141414"/>
</svg>
