<svg width="24" height="24" viewBox="0 0 24 24" fill="none" xmlns="http://www.w3.org/2000/svg">
<path d="M19 2C20.6569 2 22 3.34315 22 5V19C22 20.6569 20.6569 22 19 22H5C3.34315 22 2 20.6569 2 19V15C2 13.3431 3.34315 12 5 12H7C7.351 12 7.68694 12.0631 8 12.1738V10C8 8.34315 9.34315 7 11 7H13C13.351 7 13.6869 7.06306 14 7.17383V5C14 3.34315 15.3431 2 17 2H19ZM5 14C4.44772 14 4 14.4477 4 15V19C4 19.5523 4.44772 20 5 20H8V15C8 14.4477 7.55228 14 7 14H5ZM11 9C10.4477 9 10 9.44772 10 10V20H14V10C14 9.44772 13.5523 9 13 9H11ZM17 4C16.4477 4 16 4.44772 16 5V20H19C19.5523 20 20 19.5523 20 19V5C20 4.44772 19.5523 4 19 4H17Z" fill="#141414"/>
</svg>
