<svg width="24" height="24" viewBox="0 0 24 24" fill="none" xmlns="http://www.w3.org/2000/svg">
<path d="M12 1C18.0751 1 23 5.92487 23 12C23 18.0751 18.0751 23 12 23C5.92487 23 1 18.0751 1 12C1 5.92487 5.92487 1 12 1ZM6.38184 19.0322C7.92151 20.2639 9.87497 21 12 21C14.125 21 16.0785 20.2639 17.6182 19.0322L12 13.4141L6.38184 19.0322ZM13.4141 12L19.0322 17.6182C20.2639 16.0785 21 14.125 21 12C21 9.87497 20.2639 7.92151 19.0322 6.38184L13.4141 12ZM4.96777 6.38184C3.73615 7.92151 3 9.87499 3 12C3 14.1248 3.73637 16.0776 4.96777 17.6172L10.5859 12L4.96777 6.38184ZM12 3C9.87499 3 7.92151 3.73615 6.38184 4.96777L12 10.5859L17.6172 4.96777C16.0776 3.73637 14.1248 3 12 3Z" fill="#141414"/>
</svg>
