<svg width="24" height="24" viewBox="0 0 24 24" fill="none" xmlns="http://www.w3.org/2000/svg">
<path d="M16.2021 22H14.2021V19.0869H16.2021V22Z" fill="#141414"/>
<path d="M7.65527 12.1543L5.40625 14.4033C4.14046 15.6691 4.14046 17.7215 5.40625 18.9873C6.67207 20.2528 8.72455 20.253 9.99023 18.9873L12.2393 16.7373L13.6533 18.1523L11.4043 20.4014C9.35756 22.4481 6.03905 22.4479 3.99219 20.4014C1.94535 18.3545 1.94535 15.0361 3.99219 12.9893L6.24121 10.7393L7.65527 12.1543Z" fill="#141414"/>
<path d="M20.9795 19.6582L19.5654 21.0723L17.3154 18.8232L18.7305 17.4082L20.9795 19.6582Z" fill="#141414"/>
<path d="M22 16.2021H18.9941V14.2021H22V16.2021Z" fill="#141414"/>
<path d="M12.9893 3.99219C15.0361 1.94538 18.3545 1.94536 20.4014 3.99219C22.4479 6.03904 22.4481 9.35756 20.4014 11.4043L18.1514 13.6533L16.7373 12.2393L18.9873 9.99023C20.253 8.72455 20.2528 6.67205 18.9873 5.40625C17.7215 4.14047 15.6691 4.1405 14.4033 5.40625L12.1533 7.65527L10.7393 6.24121L12.9893 3.99219Z" fill="#141414"/>
<path d="M5.00586 9.79785H2V7.79785H5.00586V9.79785Z" fill="#141414"/>
<path d="M6.68457 5.17773L5.26953 6.5918L3.02051 4.3418L4.43457 2.92773L6.68457 5.17773Z" fill="#141414"/>
<path d="M9.79785 4.91309H7.79785V2H9.79785V4.91309Z" fill="#141414"/>
</svg>
