<svg width="24" height="24" viewBox="0 0 24 24" fill="none" xmlns="http://www.w3.org/2000/svg">
<path d="M7.5 1C9.10381 1 10.5997 1.2344 11.7305 1.64551C12.2917 1.84959 12.8168 2.11651 13.2197 2.46289C13.6194 2.80655 14 3.32275 14 4V11.8037C14.8826 11.293 15.907 11 17 11C20.3137 11 23 13.6863 23 17C23 20.3137 20.3137 23 17 23C14.8888 23 13.0333 21.909 11.9639 20.2607C11.5493 20.4286 11.0927 20.5677 10.6143 20.6758C9.69373 20.8838 8.62764 21 7.5 21C5.89619 21 4.40031 20.7656 3.26953 20.3545C2.7083 20.1504 2.18322 19.8835 1.78027 19.5371C1.38055 19.1935 1 18.6772 1 18V4C1 3.32275 1.38055 2.80655 1.78027 2.46289C2.18322 2.11651 2.7083 1.84959 3.26953 1.64551C4.40031 1.2344 5.89619 1 7.5 1ZM17 13C15.695 13 14.5358 13.6248 13.8057 14.5918L13.7998 14.6006C13.2975 15.2692 13 16.0985 13 17C13 19.2091 14.7909 21 17 21C19.2091 21 21 19.2091 21 17C21 14.7909 19.2091 13 17 13ZM3 17.9355C3.0145 17.9535 3.03972 17.9825 3.08398 18.0205C3.23766 18.1526 3.51918 18.3168 3.95312 18.4746C4.81289 18.7872 6.06673 19 7.5 19C8.496 19 9.41258 18.8964 10.1729 18.7246C10.5635 18.6363 10.8967 18.5327 11.1709 18.4248C11.1669 18.4083 11.164 18.3915 11.1602 18.375C11.1395 18.2871 11.1202 18.1987 11.1035 18.1094C11.0992 18.0864 11.0959 18.0631 11.0918 18.04C11.0767 17.9537 11.0631 17.8669 11.0518 17.7793C11.0476 17.7475 11.0437 17.7156 11.04 17.6836C11.0315 17.6085 11.0243 17.533 11.0186 17.457C11.0155 17.4164 11.012 17.3758 11.0098 17.335C11.0037 17.2241 11 17.1124 11 17C11 16.9028 11.0022 16.8061 11.0068 16.71C11.0076 16.6943 11.0089 16.6787 11.0098 16.6631C11.0231 16.4227 11.0509 16.1862 11.0918 15.9541C10.0623 16.2387 8.81801 16.4004 7.5 16.4004C5.89625 16.4004 4.40029 16.166 3.26953 15.7549C3.17816 15.7217 3.08909 15.6831 3 15.6465V17.9355ZM11.7305 11.0547C10.5997 11.4658 9.10378 11.7002 7.5 11.7002C5.89622 11.7002 4.4003 11.4658 3.26953 11.0547C3.17813 11.0215 3.08911 10.9829 3 10.9463V13.335C3.01441 13.353 3.03934 13.3825 3.08398 13.4209C3.2377 13.553 3.51935 13.7173 3.95312 13.875C4.81288 14.1875 6.0668 14.4004 7.5 14.4004C8.9332 14.4004 10.1871 14.1875 11.0469 13.875C11.4806 13.7173 11.7623 13.553 11.916 13.4209C11.9607 13.3825 11.9856 13.353 12 13.335V10.9463C11.9109 10.9829 11.8219 11.0215 11.7305 11.0547ZM11.7305 6.35449C10.5997 6.7656 9.10381 7 7.5 7C5.89619 7 4.40031 6.7656 3.26953 6.35449C3.17811 6.32125 3.08913 6.28274 3 6.24609V8.63574C3.01448 8.65376 3.03974 8.68267 3.08398 8.7207C3.23768 8.85279 3.51927 9.01704 3.95312 9.1748C4.81289 9.48734 6.06676 9.7002 7.5 9.7002C8.93324 9.7002 10.1871 9.48734 11.0469 9.1748C11.4807 9.01704 11.7623 8.85279 11.916 8.7207C11.9603 8.68267 11.9855 8.65376 12 8.63574V6.24609C11.911 6.28266 11.8217 6.3213 11.7305 6.35449ZM7.5 3C6.06673 3 4.81289 3.21284 3.95312 3.52539C3.51918 3.68319 3.23766 3.84739 3.08398 3.97949C3.0762 3.98619 3.06916 3.9929 3.0625 3.99902C3.06948 4.00539 3.07579 4.01347 3.08398 4.02051C3.23766 4.15261 3.51918 4.31681 3.95312 4.47461C4.81289 4.78716 6.06673 5 7.5 5C8.93327 5 10.1871 4.78716 11.0469 4.47461C11.4808 4.31681 11.7623 4.15261 11.916 4.02051C11.9238 4.01383 11.9298 4.00607 11.9365 4C11.9298 3.99393 11.9238 3.98617 11.916 3.97949C11.7623 3.84739 11.4808 3.68319 11.0469 3.52539C10.1871 3.21284 8.93327 3 7.5 3Z" fill="#141414"/>
</svg>
