<svg width="24" height="24" viewBox="0 0 24 24" fill="none" xmlns="http://www.w3.org/2000/svg">
<path d="M18 3C20.2091 3 22 4.79086 22 7V15.2695C22.5973 15.6155 23 16.2601 23 17C23 19.2091 21.2091 21 19 21H5C2.79086 21 1 19.2091 1 17C1 16.2601 1.40267 15.6155 2 15.2695V7C2 4.79086 3.79086 3 6 3H18ZM3 17C3 18.1046 3.89543 19 5 19H19C20.1046 19 21 18.1046 21 17H15.707C15.5195 17 15.3396 17.0744 15.207 17.207C14.6994 17.7147 14.0109 18 13.293 18H10.707C9.98909 18 9.30063 17.7147 8.79297 17.207C8.66038 17.0744 8.48048 17 8.29297 17H3ZM6 5C4.89543 5 4 5.89543 4 7V15H8.29297C9.01091 15 9.69937 15.2853 10.207 15.793C10.3396 15.9256 10.5195 16 10.707 16H13.293C13.4805 16 13.6604 15.9256 13.793 15.793C14.3006 15.2853 14.9891 15 15.707 15H20V7C20 5.89543 19.1046 5 18 5H6Z" fill="#141414"/>
</svg>
