<svg width="24" height="24" viewBox="0 0 24 24" fill="none" xmlns="http://www.w3.org/2000/svg">
<path d="M13 1C15.2091 1 17 2.79086 17 5V6H19C21.2091 6 23 7.79086 23 10V18C23 20.2091 21.2091 22 19 22H5C2.79086 22 1 20.2091 1 18V10C1 7.79086 2.79086 6 5 6H7V5C7 2.79086 8.79086 1 11 1H13ZM17 20H19C20.1046 20 21 19.1046 21 18V10C21 8.89543 20.1046 8 19 8H17V20ZM9 20H15V8H9V20ZM5 8C3.89543 8 3 8.89543 3 10V18C3 19.1046 3.89543 20 5 20H7V8H5ZM11 3C9.89543 3 9 3.89543 9 5V6H15V5C15 3.89543 14.1046 3 13 3H11Z" fill="#141414"/>
</svg>
