<svg width="24" height="24" viewBox="0 0 24 24" fill="none" xmlns="http://www.w3.org/2000/svg">
<path d="M22 15C22 17.2091 20.2091 19 18 19H5.41406L8 21.5859L6.58594 23L2.29297 18.707C1.90246 18.3165 1.90245 17.6835 2.29297 17.293L6.58594 13L8 14.4141L5.41406 17H18C19.1046 17 20 16.1046 20 15V13H22V15ZM21.707 5.29297C22.0976 5.68349 22.0975 6.31651 21.707 6.70703L17.4141 11L16 9.58594L18.5859 7H6C4.89544 7 4.00002 7.89544 4 9V11H2V9C2.00002 6.79087 3.79087 5 6 5H18.5859L16 2.41406L17.4141 1L21.707 5.29297Z" fill="#141414"/>
</svg>
