<svg width="24" height="24" viewBox="0 0 24 24" fill="none" xmlns="http://www.w3.org/2000/svg">
<path d="M3.61037 3.61037C5.43521 1.78552 8.04435 1.21358 10.6748 1.62892C13.3063 2.04457 16.0395 3.45157 18.294 5.70607C20.5484 7.9606 21.9556 10.6937 22.3711 13.3252C22.7864 15.9556 22.2145 18.5649 20.3897 20.3897C18.5649 22.2145 15.9556 22.7864 13.3252 22.3711C10.6937 21.9556 7.9606 20.5484 5.70607 18.294C3.45157 16.0395 2.04457 13.3063 1.62892 10.6748C1.21358 8.04435 1.78552 5.43521 3.61037 3.61037ZM10.3623 3.60451C8.19022 3.2616 6.2853 3.76356 5.02443 5.02443C3.76356 6.2853 3.2616 8.19022 3.60451 10.3623C3.94735 12.5333 5.13198 14.8918 7.12014 16.8799C9.10833 18.868 11.4668 20.0528 13.6377 20.3956C15.8097 20.7384 17.7148 20.2364 18.9756 18.9756C20.2364 17.7148 20.7384 15.8097 20.3956 13.6377C20.3807 13.5439 20.3617 13.45 20.3438 13.3555C18.9972 13.5594 17.488 14.0861 16.4053 14.8516L15.251 13.2188C16.548 12.3017 18.232 11.6936 19.7696 11.4229C19.461 10.6574 19.0564 9.89177 18.5547 9.14846C16.4607 9.20137 14.2836 9.92246 12.9991 11.2071L11.585 9.79299C12.9929 8.38512 15.0281 7.57661 17.0323 7.27834C16.9814 7.22593 16.9318 7.17206 16.8799 7.12014C16.2328 6.47298 15.5453 5.9121 14.8389 5.43654C12.9076 5.87722 11.0351 6.80774 9.81741 8.02541L8.40334 6.61037C9.4599 5.55387 10.844 4.71516 12.3213 4.12892C11.6614 3.88156 11.0039 3.70583 10.3623 3.60451Z" fill="#141414"/>
</svg>
