<svg width="24" height="24" viewBox="0 0 24 24" fill="none" xmlns="http://www.w3.org/2000/svg">
<path d="M17 1C19.2091 1 21 2.79086 21 5V19C21 21.2091 19.2091 23 17 23H7C4.79086 23 3 21.2091 3 19V5C3 2.79086 4.79086 1 7 1H17ZM7 3C5.89543 3 5 3.89543 5 5V19C5 20.1046 5.89543 21 7 21H17C18.1046 21 19 20.1046 19 19V5C19 3.89543 18.1046 3 17 3V4C17 5.65685 15.6569 7 14 7H10C8.34315 7 7 5.65685 7 4V3ZM16.707 12.207L12.207 16.707C11.8165 17.0975 11.1835 17.0975 10.793 16.707L7.79297 13.707L9.20703 12.293L11.5 14.5859L15.293 10.793L16.707 12.207ZM9 4C9 4.55228 9.44772 5 10 5H14C14.5523 5 15 4.55228 15 4V3H9V4Z" fill="#141414"/>
</svg>
