<svg width="24" height="24" viewBox="0 0 24 24" fill="none" xmlns="http://www.w3.org/2000/svg">
<path d="M18 2C20.2091 2 22 3.79086 22 6V18C22 20.2091 20.2091 22 18 22H6C3.79086 22 2 20.2091 2 18V6C2 3.79086 3.79086 2 6 2H18ZM6 4C4.89543 4 4 4.89543 4 6V18C4 19.1046 4.89543 20 6 20H18C19.1046 20 20 19.1046 20 18V6C20 4.89543 19.1046 4 18 4H6ZM12.0908 5.18262C12.8847 4.16196 14.5205 4.8003 14.4131 6.08887L14.0957 9.88477L16.8867 9.60645L17.0039 9.59961C18.1991 9.57296 18.8908 11.0014 18.0752 11.9258L11.8564 18.9736C11.025 19.916 9.47314 19.2476 9.58691 17.9961L9.89258 14.6289L7.55176 14.8896C6.32155 15.0262 5.53238 13.6159 6.29199 12.6387L12.0908 5.18262ZM8.74316 12.7441L10.8896 12.5059L12.1064 12.3711L11.9961 13.5908L11.7725 16.0449L15.5645 11.748L13.0996 11.9951L11.9033 12.1143L12.0039 10.917L12.2236 8.26855L8.74316 12.7441Z" fill="#141414"/>
</svg>
