<svg width="24" height="24" viewBox="0 0 24 24" fill="none" xmlns="http://www.w3.org/2000/svg">
<path d="M12 1C18.0751 1 23 5.92487 23 12C23 18.0751 18.0751 23 12 23C5.92487 23 1 18.0751 1 12C1 5.92487 5.92487 1 12 1ZM9 17C7.73585 17.0001 6.65384 17.7835 6.21289 18.8916C7.7776 20.2069 9.79594 21 12 21C14.204 21 16.2214 20.2059 17.7861 18.8906C17.3447 17.7832 16.2637 17.0001 15 17H9ZM12 3C7.02944 3 3 7.02944 3 12C3 14.0025 3.65472 15.8516 4.76074 17.3467C5.6447 15.9372 7.21262 15.0001 9 15H15C16.7873 15.0001 18.3544 15.9373 19.2383 17.3467C20.3445 15.8516 21 14.0027 21 12C21 7.02944 16.9706 3 12 3ZM12 5C14.2091 5 16 6.79086 16 9C16 11.2091 14.2091 13 12 13C9.79086 13 8 11.2091 8 9C8 6.79086 9.79086 5 12 5ZM12 7C10.8954 7 10 7.89543 10 9C10 10.1046 10.8954 11 12 11C13.1046 11 14 10.1046 14 9C14 7.89543 13.1046 7 12 7Z" fill="#141414"/>
</svg>
