<svg width="24" height="24" viewBox="0 0 24 24" fill="none" xmlns="http://www.w3.org/2000/svg">
<path d="M3 19C3.55228 19 4 19.4477 4 20C4 20.5523 3.55228 21 3 21C2.44772 21 2 20.5523 2 20C2 19.4477 2.44772 19 3 19ZM2 15C5.31371 15 8 17.6863 8 21H6C6 18.7909 4.20914 17 2 17V15ZM2 11C7.52285 11 12 15.4772 12 21H10C10 16.5817 6.41828 13 2 13V11ZM18 3C20.2091 3 22 4.79086 22 7V17C22 19.2091 20.2091 21 18 21H14V19H18C19.1046 19 20 18.1046 20 17V7C20 5.89543 19.1046 5 18 5H6C4.89543 5 4 5.89543 4 7V9H2V7C2 4.79086 3.79086 3 6 3H18Z" fill="#141414"/>
</svg>
