<svg width="24" height="24" viewBox="0 0 24 24" fill="none" xmlns="http://www.w3.org/2000/svg">
<path d="M12 1C18.0751 1 23 5.92487 23 12C23 18.0751 18.0751 23 12 23C5.92487 23 1 18.0751 1 12C1 5.92487 5.92487 1 12 1ZM12 3C7.02944 3 3 7.02944 3 12C3 16.9706 7.02944 21 12 21C16.9706 21 21 16.9706 21 12C21 7.02944 16.9706 3 12 3ZM14.1211 14.1211C14.7068 13.5354 15.6564 13.5356 16.2422 14.1211C16.828 14.7069 16.828 15.6564 16.2422 16.2422C15.6564 16.828 14.7069 16.828 14.1211 16.2422C13.5356 15.6564 13.5354 14.7068 14.1211 14.1211ZM16.2422 9.17188L9.17188 16.2422L7.75781 14.8281L14.8281 7.75781L16.2422 9.17188ZM7.75781 7.75781C8.3436 7.17203 9.29312 7.17203 9.87891 7.75781C10.4644 8.34363 10.4646 9.29323 9.87891 9.87891C9.29323 10.4646 8.34363 10.4644 7.75781 9.87891C7.17203 9.29312 7.17203 8.3436 7.75781 7.75781Z" fill="#141414"/>
</svg>
