<svg width="24" height="24" viewBox="0 0 24 24" fill="none" xmlns="http://www.w3.org/2000/svg">
<path d="M16 2C16.3146 2.00004 16.611 2.14876 16.7998 2.40039L16.8018 2.40234C16.8027 2.4036 16.8041 2.40605 16.8057 2.4082C16.809 2.41264 16.8144 2.41878 16.8203 2.42676C16.8326 2.44331 16.8502 2.46791 16.8731 2.49902C16.919 2.56158 16.9862 2.65327 17.0703 2.77051C17.2388 3.00517 17.4782 3.34482 17.7647 3.7666C18.3373 4.60965 19.1022 5.78837 19.8682 7.12891C20.6328 8.46699 21.4085 9.98276 21.9951 11.498C22.5767 13.0003 23 14.5714 23 16C23 19.866 19.866 22.9999 16 23C12.1342 22.9997 9.00002 19.8658 9.00002 16C9.00002 14.5715 9.42341 13.0003 10.0049 11.498C10.5915 9.98277 11.3672 8.46699 12.1319 7.12891C12.8979 5.78839 13.6627 4.60967 14.2354 3.7666C14.5218 3.34485 14.7612 3.00519 14.9297 2.77051C15.0139 2.6533 15.081 2.56161 15.127 2.49902C15.1498 2.46793 15.1674 2.44334 15.1797 2.42676C15.1856 2.41879 15.191 2.41265 15.1944 2.4082C15.1959 2.40609 15.1973 2.40366 15.1983 2.40234L15.1992 2.40039C15.388 2.14875 15.6855 2.00015 16 2ZM15.8897 4.88965C15.3374 5.70276 14.602 6.837 13.8682 8.12109C13.1329 9.4078 12.4085 10.83 11.8701 12.2207C11.3268 13.6245 11 14.9287 11 16C11 18.7613 13.2388 20.9997 16 21C18.7614 20.9999 21 18.7614 21 16C21 14.9287 20.6733 13.6246 20.1299 12.2207C19.5915 10.83 18.8671 9.4078 18.1319 8.12109C17.3981 6.83698 16.6627 5.70274 16.1104 4.88965C16.0733 4.83515 16.0353 4.78297 16 4.73145C15.9647 4.78297 15.9267 4.83515 15.8897 4.88965ZM5.00002 1C5.32109 1.00004 5.62259 1.15476 5.81056 1.41504L7.91115 4.32422C9.37171 6.08013 9.36258 8.42783 7.88478 10.1768C7.12139 11.0801 6.08064 11.5713 5.00002 11.5713C3.91942 11.5711 2.8776 11.0801 2.11427 10.1768C0.637031 8.42797 0.628681 6.07991 2.08888 4.32422L4.18947 1.41504C4.37736 1.15473 4.67899 1.00015 5.00002 1ZM3.68947 5.52441C3.67462 5.54497 3.65896 5.56559 3.64259 5.58496C2.78636 6.59863 2.78633 7.87208 3.64259 8.88574C4.05058 9.36858 4.54538 9.57115 5.00002 9.57129C5.45467 9.57125 5.94939 9.36853 6.35744 8.88574C7.21382 7.87203 7.2138 6.59868 6.35744 5.58496C6.34112 5.56563 6.32537 5.54492 6.31056 5.52441L5.00002 3.70898L3.68947 5.52441Z" fill="#141414"/>
</svg>
