<svg width="24" height="24" viewBox="0 0 24 24" fill="none" xmlns="http://www.w3.org/2000/svg">
<path d="M12 1C18.0751 1 23 5.92487 23 12C23 18.0751 18.0751 23 12 23C5.92487 23 1 18.0751 1 12C1 5.92487 5.92487 1 12 1ZM12 3C7.02944 3 3 7.02944 3 12C3 16.9706 7.02944 21 12 21C16.9706 21 21 16.9706 21 12C21 7.02944 16.9706 3 12 3ZM12.0908 5.18262C12.8847 4.16196 14.5205 4.8003 14.4131 6.08887L14.0957 9.88477L16.8867 9.60645L17.0039 9.59961C18.1991 9.57296 18.8908 11.0014 18.0752 11.9258L11.8564 18.9736C11.025 19.916 9.47314 19.2476 9.58691 17.9961L9.89258 14.6289L7.55176 14.8896C6.32155 15.0262 5.53238 13.6159 6.29199 12.6387L12.0908 5.18262ZM8.74316 12.7441L10.8896 12.5059L12.1064 12.3711L11.9961 13.5908L11.7725 16.0449L15.5645 11.748L13.0996 11.9951L11.9033 12.1143L12.0039 10.917L12.2236 8.26855L8.74316 12.7441Z" fill="#141414"/>
</svg>
