<svg width="24" height="24" viewBox="0 0 24 24" fill="none" xmlns="http://www.w3.org/2000/svg">
<path d="M7 2C7.55228 2 8 2.44772 8 3V4H16V3C16 2.44772 16.4477 2 17 2H21C21.5523 2 22 2.44772 22 3V7C22 7.55228 21.5523 8 21 8H20V16H21C21.5523 16 22 16.4477 22 17V21C22 21.5523 21.5523 22 21 22H17C16.4477 22 16 21.5523 16 21V20H8V21C8 21.5523 7.55228 22 7 22H3C2.44772 22 2 21.5523 2 21V17C2 16.4477 2.44772 16 3 16H4V8H3C2.44772 8 2 7.55228 2 7V3C2 2.44772 2.44772 2 3 2H7ZM4 20H6V18H4V20ZM18 20H20V18H18V20ZM8 7C8 7.55228 7.55228 8 7 8H6V16H7C7.55228 16 8 16.4477 8 17V18H16V17C16 16.4477 16.4477 16 17 16H18V8H17C16.4477 8 16 7.55228 16 7V6H8V7ZM4 4V6H6V4H4ZM18 6H20V4H18V6Z" fill="#141414"/>
</svg>
