<svg width="24" height="24" viewBox="0 0 24 24" fill="none" xmlns="http://www.w3.org/2000/svg">
<path d="M20.8389 20.0918L19.4248 21.5059L11.9209 14.002C10.2955 14.023 8.82629 14.6893 7.75781 15.7578L6.34277 14.3428C7.37044 13.3151 8.67706 12.568 10.1387 12.2197L8.53809 10.6191C7.1693 11.1236 5.94063 11.9168 4.92871 12.9287L3.51465 11.5146C4.51837 10.5109 5.69982 9.68621 7.00684 9.08789L5.51074 7.5918C4.24843 8.25348 3.09934 9.10183 2.10059 10.1006L0.686523 8.68652C1.68246 7.69059 2.80953 6.82633 4.03906 6.12012L1.74707 3.82812L3.16113 2.41406L20.8389 20.0918ZM12 16C13.1046 16 14 16.8954 14 18C14 19.1046 13.1046 20 12 20C10.8954 20 10 19.1046 10 18C10 16.8954 10.8954 16 12 16ZM12 8C15.3137 8 18.3138 9.34308 20.4854 11.5146L19.0713 12.9287C17.6476 11.505 15.796 10.5116 13.7266 10.1514L11.583 8.00781C11.7214 8.00309 11.8604 8 12 8ZM12 4C16.4183 4 20.418 5.79109 23.3135 8.68652L21.8994 10.1006C19.3659 7.56708 15.866 6 12 6C11.2357 6 10.4859 6.06184 9.75488 6.17969L8.06348 4.48828C9.32283 4.16963 10.6416 4 12 4Z" fill="#141414"/>
</svg>
