<svg width="24" height="24" viewBox="0 0 24 24" fill="none" xmlns="http://www.w3.org/2000/svg">
<path d="M12 1C18.0751 1 23 5.92487 23 12C23 18.0751 18.0751 23 12 23C8.44004 23 5.2761 21.3084 3.2666 18.6885L4.875 17.5C6.52204 19.6304 9.10174 21 12 21C16.9706 21 21 16.9706 21 12C21 7.02944 16.9706 3 12 3C9.10174 3.00001 6.52204 4.36958 4.875 6.5L3.5 5.01758C5.51649 2.56571 8.57498 1.00001 12 1ZM16.4453 11.2939C16.8342 11.6842 16.8342 12.3158 16.4453 12.7061L11.708 17.4561L10.292 16.0439L13.3271 13H1V11H13.3271L10.292 7.95605L11.708 6.54395L16.4453 11.2939Z" fill="#141414"/>
</svg>
