<svg width="24" height="24" viewBox="0 0 24 24" fill="none" xmlns="http://www.w3.org/2000/svg">
<path fill-rule="evenodd" clip-rule="evenodd" d="M12 7.9999C14.2091 7.9999 15.9999 9.79094 16 11.9999C16 14.209 14.2091 15.9999 12 15.9999C9.79086 15.9999 8 14.209 8 11.9999C8.00015 9.79094 9.79089 7.9999 12 7.9999ZM12 9.9999C10.8956 9.9999 10.0001 10.8954 10 11.9999C10 13.1045 10.8954 13.9999 12 13.9999C13.1046 13.9999 14 13.1045 14 11.9999C13.9999 10.8954 13.1044 9.9999 12 9.9999Z" fill="#141414"/>
<path fill-rule="evenodd" clip-rule="evenodd" d="M9.99609 1.00478C11.2357 0.287226 12.7643 0.287225 14.0039 1.00478L20.5039 4.76747C21.7391 5.48257 22.4999 6.80218 22.5 8.22939V15.7704C22.4999 17.1976 21.7391 18.5172 20.5039 19.2323L14.0039 22.995C12.7643 23.7126 11.2357 23.7126 9.99609 22.995L3.49609 19.2323C2.26094 18.5172 1.50007 17.1976 1.5 15.7704V8.22939C1.50013 6.80218 2.26094 5.48257 3.49609 4.76747L9.99609 1.00478ZM13.002 2.73525C12.3823 2.37662 11.6177 2.37662 10.998 2.73525L4.49805 6.49892C3.88053 6.85644 3.50013 7.51586 3.5 8.22939V15.7704C3.50007 16.484 3.88053 17.1433 4.49805 17.5009L10.998 21.2645C11.6178 21.6232 12.3822 21.6232 13.002 21.2645L19.502 17.5009C20.1195 17.1433 20.4999 16.484 20.5 15.7704V8.22939C20.4999 7.51586 20.1195 6.85644 19.502 6.49892L13.002 2.73525Z" fill="#141414"/>
</svg>
