<svg width="24" height="24" viewBox="0 0 24 24" fill="none" xmlns="http://www.w3.org/2000/svg">
<path d="M5.48395 1.13083C5.79877 0.947412 6.18941 0.957055 6.49469 1.15622L19.6753 9.76751C19.9585 9.95257 20.1264 10.2729 20.1177 10.6132C20.1089 10.9537 19.9248 11.2655 19.6324 11.4355L16.1636 13.4491L20.233 17.7655C20.4378 17.983 20.5317 18.284 20.4888 18.5809C20.4457 18.8777 20.2701 19.1378 20.0123 19.287L13.8218 22.87C13.5652 23.0185 13.2548 23.0413 12.98 22.9305C12.7053 22.8195 12.4951 22.5869 12.4107 22.3006L10.7349 16.6034L7.26129 18.622C6.96945 18.7913 6.61075 18.795 6.315 18.6327C6.01936 18.4701 5.82754 18.1635 5.81012 17.8241L5.00055 2.02829C4.98183 1.6616 5.16899 1.31459 5.48395 1.13083ZM7.66364 16.1308L11.8931 13.6747L13.9185 20.5594L17.9771 18.2098L13.0621 12.996L17.2906 10.539L7.03375 3.83785L7.66364 16.1308Z" fill="#141414"/>
</svg>
