<svg width="24" height="24" viewBox="0 0 24 24" fill="none" xmlns="http://www.w3.org/2000/svg">
<path d="M15 3.5C17.2729 3.5 18.9998 5.45266 19 7.71387V9.69531L21.4697 8.15234C21.7778 7.95977 22.1665 7.94903 22.4844 8.125C22.8023 8.30123 23 8.63647 23 9V15C23 15.3635 22.8023 15.6988 22.4844 15.875C22.1665 16.051 21.7778 16.0402 21.4697 15.8477L19 14.3037V16.2861C18.9998 18.5473 17.2729 20.5 15 20.5H5C2.72714 20.5 1.00021 18.5473 1 16.2861V7.71387C1.00021 5.45266 2.72714 3.5 5 3.5H15ZM5 5.5C3.95941 5.5 3.00021 6.42507 3 7.71387V16.2861C3.00021 17.5749 3.95941 18.5 5 18.5H15C16.0406 18.5 16.9998 17.5749 17 16.2861V7.71387C16.9998 6.42507 16.0406 5.5 15 5.5H5ZM19.0859 12L21 13.1953V10.8037L19.0859 12Z" fill="#141414"/>
</svg>
