<svg width="24" height="24" viewBox="0 0 24 24" fill="none" xmlns="http://www.w3.org/2000/svg">
<path d="M7.5 19.9912C8.0522 19.9912 8.49985 20.4384 8.5 20.9902V21.001C8.49974 21.5528 8.05213 22 7.5 22C6.94787 22 6.50026 21.5528 6.5 21.001V20.9902C6.50015 20.4384 6.9478 19.9912 7.5 19.9912ZM12 19.9912C12.5522 19.9912 12.9999 20.4384 13 20.9902V21.001C12.9997 21.5528 12.5521 22 12 22C11.4479 22 11.0003 21.5528 11 21.001V20.9902C11.0001 20.4384 11.4478 19.9912 12 19.9912ZM16.5 19.9912C17.0522 19.9912 17.4999 20.4384 17.5 20.9902V21.001C17.4997 21.5528 17.0521 22 16.5 22C15.9479 22 15.5003 21.5528 15.5 21.001V20.9902C15.5001 20.4384 15.9478 19.9912 16.5 19.9912ZM21 19.9912C21.5522 19.9912 21.9999 20.4384 22 20.9902V21.001C21.9997 21.5528 21.5521 22 21 22C20.4479 22 20.0003 21.5528 20 21.001V20.9902C20.0001 20.4384 20.4478 19.9912 21 19.9912ZM4 21.9902H2V2H4V21.9902ZM21 15.4932C21.5523 15.4932 22 15.9412 22 16.4932V16.5029C21.9999 17.0549 21.5522 17.502 21 17.502C20.4478 17.502 20.0001 17.0549 20 16.5029V16.4932C20 15.9412 20.4477 15.4932 21 15.4932ZM21 10.9951C21.5523 10.9951 22 11.4431 22 11.9951V12.0049C22 12.5569 21.5523 13.0049 21 13.0049C20.4477 13.0049 20 12.5569 20 12.0049V11.9951C20 11.4431 20.4477 10.9951 21 10.9951ZM21 6.49805C21.5522 6.49805 21.9999 6.94515 22 7.49707V7.50684C22 8.05884 21.5523 8.50684 21 8.50684C20.4477 8.50684 20 8.05884 20 7.50684V7.49707C20.0001 6.94515 20.4478 6.49805 21 6.49805ZM7.5 2C8.05213 2 8.49974 2.44723 8.5 2.99902V3.00977C8.49985 3.56165 8.0522 4.00879 7.5 4.00879C6.9478 4.00879 6.50015 3.56165 6.5 3.00977V2.99902C6.50026 2.44723 6.94787 2 7.5 2ZM12 2C12.5521 2 12.9997 2.44723 13 2.99902V3.00977C12.9999 3.56165 12.5522 4.00879 12 4.00879C11.4478 4.00879 11.0001 3.56165 11 3.00977V2.99902C11.0003 2.44723 11.4479 2 12 2ZM16.5 2C17.0521 2 17.4997 2.44723 17.5 2.99902V3.00977C17.4999 3.56165 17.0522 4.00879 16.5 4.00879C15.9478 4.00879 15.5001 3.56165 15.5 3.00977V2.99902C15.5003 2.44723 15.9479 2 16.5 2ZM21 2C21.5521 2 21.9997 2.44723 22 2.99902V3.00977C21.9999 3.56165 21.5522 4.00879 21 4.00879C20.4478 4.00879 20.0001 3.56165 20 3.00977V2.99902C20.0003 2.44723 20.4479 2 21 2Z" fill="#141414"/>
</svg>
