<svg width="24" height="24" viewBox="0 0 24 24" fill="none" xmlns="http://www.w3.org/2000/svg">
<path d="M3.00977 20C3.56165 20.0001 4.00879 20.4478 4.00879 21C4.00879 21.5522 3.56165 21.9999 3.00977 22H2.99902C2.44723 21.9997 2 21.5521 2 21C2 20.4479 2.44723 20.0003 2.99902 20H3.00977ZM7.50684 20C8.05884 20 8.50684 20.4477 8.50684 21C8.50684 21.5523 8.05884 22 7.50684 22H7.49707C6.94515 21.9999 6.49805 21.5522 6.49805 21C6.49805 20.4478 6.94515 20.0001 7.49707 20H7.50684ZM12.0049 20C12.5569 20 13.0049 20.4477 13.0049 21C13.0049 21.5523 12.5569 22 12.0049 22H11.9951C11.4431 22 10.9951 21.5523 10.9951 21C10.9951 20.4477 11.4431 20 11.9951 20H12.0049ZM16.5029 20C17.0549 20.0001 17.502 20.4478 17.502 21C17.502 21.5522 17.0549 21.9999 16.5029 22H16.4932C15.9412 22 15.4932 21.5523 15.4932 21C15.4932 20.4477 15.9412 20 16.4932 20H16.5029ZM21.001 20C21.5528 20.0003 22 20.4479 22 21C22 21.5521 21.5528 21.9997 21.001 22H20.9902C20.4384 21.9999 19.9912 21.5522 19.9912 21C19.9912 20.4478 20.4384 20.0001 20.9902 20H21.001ZM3.00977 15.5C3.56165 15.5001 4.00879 15.9478 4.00879 16.5C4.00879 17.0522 3.56165 17.4999 3.00977 17.5H2.99902C2.44723 17.4997 2 17.0521 2 16.5C2 15.9479 2.44723 15.5003 2.99902 15.5H3.00977ZM21.001 15.5C21.5528 15.5003 22 15.9479 22 16.5C22 17.0521 21.5528 17.4997 21.001 17.5H20.9902C20.4384 17.4999 19.9912 17.0522 19.9912 16.5C19.9912 15.9478 20.4384 15.5001 20.9902 15.5H21.001ZM3.00977 11C3.56165 11.0001 4.00879 11.4478 4.00879 12C4.00879 12.5522 3.56165 12.9999 3.00977 13H2.99902C2.44723 12.9997 2 12.5521 2 12C2 11.4479 2.44723 11.0003 2.99902 11H3.00977ZM21.001 11C21.5528 11.0003 22 11.4479 22 12C22 12.5521 21.5528 12.9997 21.001 13H20.9902C20.4384 12.9999 19.9912 12.5522 19.9912 12C19.9912 11.4478 20.4384 11.0001 20.9902 11H21.001ZM3.00977 6.5C3.56165 6.50015 4.00879 6.9478 4.00879 7.5C4.00879 8.0522 3.56165 8.49985 3.00977 8.5H2.99902C2.44723 8.49974 2 8.05213 2 7.5C2 6.94787 2.44723 6.50026 2.99902 6.5H3.00977ZM21.001 6.5C21.5528 6.50026 22 6.94787 22 7.5C22 8.05213 21.5528 8.49974 21.001 8.5H20.9902C20.4384 8.49985 19.9912 8.0522 19.9912 7.5C19.9912 6.9478 20.4384 6.50015 20.9902 6.5H21.001ZM21.9902 2V4H2V2H21.9902Z" fill="#141414"/>
</svg>
