<svg width="24" height="24" viewBox="0 0 24 24" fill="none" xmlns="http://www.w3.org/2000/svg">
<path d="M22 23H2V21H22V23ZM8 1C9.65685 1 11 2.34315 11 4V16C11 17.6569 9.65685 19 8 19H6C4.34315 19 3 17.6569 3 16V4C3 2.34315 4.34315 1 6 1H8ZM18 7C19.6569 7 21 8.34315 21 10V16C21 17.6569 19.6569 19 18 19H16C14.3431 19 13 17.6569 13 16V10C13 8.34315 14.3431 7 16 7H18ZM6 3C5.44772 3 5 3.44772 5 4V16C5 16.5523 5.44772 17 6 17H8C8.55228 17 9 16.5523 9 16V4C9 3.44772 8.55228 3 8 3H6ZM16 9C15.4477 9 15 9.44772 15 10V16C15 16.5523 15.4477 17 16 17H18C18.5523 17 19 16.5523 19 16V10C19 9.44771 18.5523 9 18 9H16Z" fill="#141414"/>
</svg>
