<svg width="24" height="24" viewBox="0 0 24 24" fill="none" xmlns="http://www.w3.org/2000/svg">
<path d="M12.6718 3.41385C14.2337 1.85218 16.766 1.85249 18.3281 3.41385L21.0859 6.17169C22.6478 7.73375 22.6478 10.266 21.0859 11.828L12.914 20H20.5V22H6.91392C6.38369 21.9998 5.87477 21.789 5.49984 21.4141L2.91387 18.8281C1.35251 17.266 1.35221 14.7337 2.91387 13.1718L12.6718 3.41385ZM4.32795 14.5859C3.54734 15.3667 3.54764 16.633 4.32795 17.414L6.91392 20H10.0858L16.3359 13.7499L10.7499 8.1639L4.32795 14.5859ZM16.914 4.82793C16.133 4.04762 14.8667 4.04732 14.0859 4.82793L12.164 6.74983L17.75 12.3358L19.6719 10.4139C20.4526 9.63293 20.4526 8.36677 19.6719 7.58577L16.914 4.82793Z" fill="#141414"/>
</svg>
