<svg width="24" height="24" viewBox="0 0 24 24" fill="none" xmlns="http://www.w3.org/2000/svg">
<path d="M11.293 7.29297C11.6835 6.90244 12.3165 6.90244 12.707 7.29297L17.207 11.793L15.793 13.207L13 10.4141V23H11V10.4141L8.20703 13.207L6.79297 11.793L11.293 7.29297ZM12 1C18.0751 1 23 5.92487 23 12C23 15.599 21.2705 18.7946 18.6016 20.7998L17.4004 19.2002C19.588 17.5565 21 14.9433 21 12C21 7.02944 16.9706 3 12 3C7.02944 3 3 7.02944 3 12C3 14.9433 4.41197 17.5565 6.59961 19.2002L5.39844 20.7998C2.72949 18.7946 1 15.599 1 12C1 5.92487 5.92487 1 12 1Z" fill="#141414"/>
</svg>
