<svg width="24" height="24" viewBox="0 0 24 24" fill="none" xmlns="http://www.w3.org/2000/svg">
<path d="M13.6543 2.00391C15.2394 2.08421 16.5 3.39489 16.5 5V7.5H19C20.6569 7.5 22 8.84315 22 10.5V13.5L21.9961 13.6543C21.9184 15.1883 20.6883 16.4184 19.1543 16.4961L19 16.5H16.5V19L16.4961 19.1543C16.4184 20.6883 15.1883 21.9184 13.6543 21.9961L13.5 22H10.5C8.84315 22 7.5 20.6569 7.5 19V16.5H5C3.39489 16.5 2.08422 15.2394 2.00391 13.6543L2 13.5V10.5C2 8.84315 3.34315 7.5 5 7.5H7.5V5C7.5 3.34315 8.84315 2 10.5 2H13.5L13.6543 2.00391ZM10.5 4C9.94772 4 9.5 4.44772 9.5 5V8.5C9.5 9.05228 9.05228 9.5 8.5 9.5H5C4.44772 9.5 4 9.94772 4 10.5V13.5L4.00488 13.6025C4.05622 14.1067 4.48232 14.5 5 14.5H8.5C9.05228 14.5 9.5 14.9477 9.5 15.5V19L9.50488 19.1025C9.55621 19.6067 9.98232 20 10.5 20H13.5L13.6025 19.9951C14.073 19.9472 14.4472 19.573 14.4951 19.1025L14.5 19V15.5C14.5 14.9477 14.9477 14.5 15.5 14.5H19C19.5177 14.5 19.9438 14.1067 19.9951 13.6025L20 13.5V10.5C20 9.98232 19.6067 9.55621 19.1025 9.50488L19 9.5H15.5C14.9477 9.5 14.5 9.05228 14.5 8.5V5L14.4951 4.89746C14.4472 4.42703 14.073 4.05278 13.6025 4.00488L13.5 4H10.5Z" fill="#141414"/>
</svg>
