<svg width="24" height="24" viewBox="0 0 24 24" fill="none" xmlns="http://www.w3.org/2000/svg">
<path d="M14.7637 2C15.8999 2 16.9391 2.64191 17.4473 3.6582L17.8418 4.44727C18.0112 4.78599 18.3576 5 18.7363 5H19C21.2091 5 23 6.79086 23 9V18C23 20.2091 21.2091 22 19 22H5C2.79086 22 1 20.2091 1 18V9C1 6.79086 2.79086 5 5 5H5.26367C5.64241 5 5.98879 4.78599 6.1582 4.44727L6.55273 3.6582C7.06093 2.64191 8.10005 2 9.23633 2H14.7637ZM9.23633 4C8.85759 4 8.51121 4.21401 8.3418 4.55273L7.94727 5.3418C7.43907 6.35809 6.39995 7 5.26367 7H5C3.89543 7 3 7.89543 3 9V18C3 19.1046 3.89543 20 5 20H19C20.1046 20 21 19.1046 21 18V9C21 7.89543 20.1046 7 19 7H18.7363C17.6 7 16.5609 6.35809 16.0527 5.3418L15.6582 4.55273C15.4888 4.21401 15.1424 4 14.7637 4H9.23633ZM12 8C14.7614 8 17 10.2386 17 13C17 15.7614 14.7614 18 12 18C9.23858 18 7 15.7614 7 13C7 10.2386 9.23858 8 12 8ZM12 10C10.3431 10 9 11.3431 9 13C9 14.6569 10.3431 16 12 16C13.6569 16 15 14.6569 15 13C15 11.3431 13.6569 10 12 10Z" fill="#141414"/>
</svg>
