<svg width="24" height="24" viewBox="0 0 24 24" fill="none" xmlns="http://www.w3.org/2000/svg">
<path d="M6.09086 2.93849C7.96275 1.06709 10.9688 0.979025 12.9474 2.73732L19.6857 8.72657C21.7751 10.5838 21.9261 13.7776 20.0665 15.8233L21.4855 17.2432C22.6568 18.4148 22.657 20.3139 21.4855 21.4854C20.3505 22.6203 18.5323 22.6559 17.3546 21.5918L17.2433 21.4854L15.8233 20.0664C13.7777 21.926 10.5839 21.7749 8.72662 19.6856L2.73732 12.9473C0.979022 10.9688 1.06709 7.96271 2.9385 6.09083L6.09086 2.93849ZM17.2433 18.6572L18.6573 20.0713L18.7325 20.1406C19.1253 20.4608 19.7054 20.4374 20.0714 20.0713C20.4619 19.6809 20.4617 19.0478 20.0714 18.6572L18.6573 17.2432L17.2433 18.6572ZM14.8243 7.51466C14.713 8.73656 13.8408 9.75396 12.6505 10.0518C12.2349 10.1558 11.953 10.5432 11.9815 10.9707L12.0792 12.4385C12.1992 14.2399 10.7125 15.7386 8.91022 15.6328L7.73736 15.5635L10.2217 18.3574C11.3686 19.6473 13.3656 19.7058 14.586 18.4854L18.4855 14.5859C19.7059 13.3655 19.6474 11.3685 18.3575 10.2217L14.8604 7.11329L14.8243 7.51466ZM11.6202 4.23243C10.433 3.17717 8.62814 3.23043 7.50493 4.35353L4.35354 7.50489C3.23044 8.62809 3.17718 10.433 4.23245 11.6201L5.85844 13.4492L9.0274 13.6358C9.62812 13.6709 10.124 13.1717 10.0841 12.5713L9.98639 11.1035C9.89377 9.71061 10.8108 8.44994 12.1651 8.11134C12.5305 8.01997 12.7979 7.7081 12.8321 7.33302L13.002 5.46095L11.6202 4.23243Z" fill="#141414"/>
</svg>
