<svg width="24" height="24" viewBox="0 0 24 24" fill="none" xmlns="http://www.w3.org/2000/svg">
<path d="M8 22H5V20H8V22Z" fill="#141414"/>
<path d="M13.5 22H10.5V20H13.5V22Z" fill="#141414"/>
<path d="M19 22H16V20H19V22Z" fill="#141414"/>
<path d="M4 18H2V15H4V18Z" fill="#141414"/>
<path d="M22 18H20V15H22V18Z" fill="#141414"/>
<path fill-rule="evenodd" clip-rule="evenodd" d="M17 2C19.7614 2 22 4.23858 22 7V11H24V13H22H20H4H2H0V11H2V7C2 4.23858 4.23858 2 7 2H17ZM7 4C5.34315 4 4 5.34315 4 7V11H20V7C20 5.34315 18.6569 4 17 4H7Z" fill="#141414"/>
</svg>
