<svg width="24" height="24" viewBox="0 0 24 24" fill="none" xmlns="http://www.w3.org/2000/svg">
<path d="M17 1C19.2091 1 21 2.79086 21 5V22C21 22.388 20.7752 22.7407 20.4238 22.9053C20.0725 23.0698 19.6574 23.0169 19.3594 22.7686L17.0605 20.8525L15.207 22.707C14.8165 23.0976 14.1835 23.0976 13.793 22.707L12 20.9141L10.207 22.707C9.81651 23.0976 9.18349 23.0976 8.79297 22.707L6.93848 20.8525L4.64062 22.7686C4.34258 23.0169 3.92753 23.0698 3.57617 22.9053C3.22479 22.7407 3 22.388 3 22V5C3 2.79086 4.79086 1 7 1H17ZM7 3C5.89543 3 5 3.89543 5 5V19.8643L6.35938 18.7314C6.7567 18.4003 7.34131 18.4273 7.70703 18.793L9.5 20.5859L11.293 18.793L11.3691 18.7246C11.7619 18.4043 12.3409 18.4269 12.707 18.793L14.5 20.5859L16.293 18.793L16.3643 18.7285C16.7312 18.4255 17.2682 18.4211 17.6406 18.7314L19 19.8643V5C19 3.89543 18.1046 3 17 3H7ZM17.207 8.70703L12.207 13.707C11.8165 14.0975 11.1835 14.0975 10.793 13.707L7.79297 10.707L9.20703 9.29297L11.5 11.5859L15.793 7.29297L17.207 8.70703Z" fill="#141414"/>
</svg>
