<svg width="24" height="24" viewBox="0 0 24 24" fill="none" xmlns="http://www.w3.org/2000/svg">
<path d="M13 13.5V15.5H9C6.23858 15.5 4 17.7386 4 20.5V21H20V21.5C20 22.3284 19.3284 23 18.5 23H3.5C2.67157 23 2 22.3284 2 21.5V20.5C2 16.634 5.13401 13.5 9 13.5H13ZM19.4844 14.5156H22V16.4844H19.4844V19H17.5156V16.4844H15V14.5156H17.5156V12H19.4844V14.5156ZM11 2C13.7614 2 16 4.23858 16 7C16 9.76142 13.7614 12 11 12C8.23858 12 6 9.76142 6 7C6 4.23858 8.23858 2 11 2ZM11 4C9.34315 4 8 5.34315 8 7C8 8.65685 9.34315 10 11 10C12.6569 10 14 8.65685 14 7C14 5.34315 12.6569 4 11 4Z" fill="#141414"/>
</svg>
