<svg width="24" height="24" viewBox="0 0 24 24" fill="none" xmlns="http://www.w3.org/2000/svg">
<path d="M17 1C18.6569 1 20 2.34315 20 4V6.36914C20 6.98457 19.8109 7.58564 19.458 8.08984L16.2109 12.7275C17.3149 13.8157 18 15.3275 18 17C18 20.3137 15.3137 23 12 23C8.68629 23 6 20.3137 6 17C6 15.2728 6.73041 13.7168 7.89844 12.6221C7.86131 12.6569 7.82432 12.6918 7.78809 12.7275L4.54199 8.08984C4.18911 7.58564 4 6.98457 4 6.36914V4C4 2.34315 5.34315 1 7 1H17ZM12 13C9.79086 13 8 14.7909 8 17C8 19.2091 9.79086 21 12 21C14.2091 21 16 19.2091 16 17C16 14.7909 14.2091 13 12 13ZM6.01562 3.82715C6.00583 3.88334 6 3.94101 6 4V6.36914C6 6.57431 6.06301 6.77528 6.18066 6.94336L9.4248 11.5781C9.87509 11.3639 10.3568 11.2052 10.8604 11.1084L6.01562 3.82715ZM13.1211 11.1055C13.0955 11.1006 13.0697 11.0963 13.0439 11.0918C13.5817 11.1862 14.095 11.3508 14.5732 11.5781L17.8193 6.94336C17.937 6.77528 18 6.57431 18 6.36914V4C18 3.94029 17.9934 3.88203 17.9834 3.8252L13.1211 11.1055ZM11.9902 9.19629L16.1289 3H7.86621L11.9902 9.19629Z" fill="#141414"/>
</svg>
