<svg width="24" height="24" viewBox="0 0 24 24" fill="none" xmlns="http://www.w3.org/2000/svg">
<path d="M19 1C19.5523 1 20 1.44946 20 2.00391V9.03125C20 9.5857 19.5523 10.0352 19 10.0352H14.4141L19.707 15.3486C19.993 15.6357 20.0786 16.0682 19.9238 16.4434C19.7689 16.8182 19.4043 17.0625 19 17.0625H13V21.9961C13 22.4021 12.7565 22.7684 12.3828 22.9238C12.0092 23.0792 11.579 22.9931 11.293 22.7061L4.29297 16.7686C4.10543 16.5803 4 16.3248 4 16.0586V9.03125C4.00003 8.47684 4.44775 8.02736 5 8.02734H9.58594L4.29297 2.71387C4.00705 2.42683 3.92157 1.99518 4.07617 1.62012C4.23095 1.24499 4.59555 1.00001 5 1H19ZM11 20.0742V17.0625H7.5L11 20.0742ZM6 15.0547H16.5859L11.5859 10.0352H6V15.0547ZM12.4141 8.02734H18V3.00781H7.41406L12.4141 8.02734Z" fill="#141414"/>
</svg>
