<svg width="24" height="24" viewBox="0 0 24 24" fill="none" xmlns="http://www.w3.org/2000/svg">
<path d="M12 1C14.5629 1 16.9251 1.34449 18.6807 1.92969C19.5531 2.22053 20.3315 2.58931 20.9121 3.04688C21.4814 3.4956 22 4.14818 22 5V19C22 19.8494 21.4868 20.5023 20.918 20.9531C20.3391 21.4118 19.5626 21.7805 18.6914 22.0713C16.9387 22.6564 14.5766 23 12 23C9.42339 23 7.06132 22.6564 5.30859 22.0713C4.43745 21.7805 3.66087 21.4118 3.08203 20.9531C2.51316 20.5023 2 19.8494 2 19V5C2 4.14818 2.51859 3.4956 3.08789 3.04688C3.66849 2.58931 4.4469 2.22053 5.31934 1.92969C7.07494 1.34449 9.43715 1 12 1ZM20 14.5322C19.6021 14.7358 19.1603 14.9148 18.6914 15.0713C16.9387 15.6564 14.5766 16 12 16C9.42339 16 7.06132 15.6564 5.30859 15.0713C4.8397 14.9148 4.3979 14.7358 4 14.5322V19C4 19 3.99977 19.0069 4.00293 19.0176C4.00647 19.0293 4.01516 19.0521 4.03516 19.085C4.0773 19.1541 4.16351 19.2584 4.32422 19.3857C4.6516 19.6451 5.18794 19.9223 5.94141 20.1738C7.43865 20.6737 9.57676 21 12 21C14.4232 21 16.5614 20.6737 18.0586 20.1738C18.8121 19.9223 19.3484 19.6451 19.6758 19.3857C19.8365 19.2584 19.9227 19.1541 19.9648 19.085C19.9848 19.0521 19.9935 19.0293 19.9971 19.0176C20.0002 19.0069 20 19 20 19V14.5322ZM20 7.52637C19.5989 7.73149 19.1537 7.91262 18.6807 8.07031C16.9251 8.65551 14.5629 9 12 9C9.43715 9 7.07494 8.65551 5.31934 8.07031C4.84631 7.91262 4.40113 7.73149 4 7.52637V12C4 12 3.99977 12.0069 4.00293 12.0176C4.00647 12.0293 4.01516 12.0521 4.03516 12.085C4.0773 12.1541 4.16351 12.2584 4.32422 12.3857C4.6516 12.6451 5.18794 12.9223 5.94141 13.1738C7.43865 13.6737 9.57676 14 12 14C14.4232 14 16.5614 13.6737 18.0586 13.1738C18.8121 12.9223 19.3484 12.6451 19.6758 12.3857C19.8365 12.2584 19.9227 12.1541 19.9648 12.085C19.9848 12.0521 19.9935 12.0293 19.9971 12.0176C20.0002 12.0069 20 12 20 12V7.52637ZM12 3C9.59229 3 7.45391 3.32656 5.95215 3.82715C5.19606 4.07918 4.65634 4.35796 4.32617 4.61816C4.16419 4.74586 4.07758 4.84984 4.03516 4.91895C4.01518 4.95153 4.00637 4.97318 4.00293 4.98438C3.99986 4.99446 4 5 4 5C4 5 4.00005 5.00618 4.00293 5.01562C4.00637 5.02682 4.01518 5.04847 4.03516 5.08105C4.07758 5.15016 4.16419 5.25414 4.32617 5.38184C4.65634 5.64204 5.19606 5.92082 5.95215 6.17285C7.45391 6.67344 9.59229 7 12 7C14.4077 7 16.5461 6.67344 18.0479 6.17285C18.8039 5.92082 19.3437 5.64204 19.6738 5.38184C19.8358 5.25414 19.9224 5.15016 19.9648 5.08105C19.9848 5.04847 19.9936 5.02682 19.9971 5.01562C20 5.00605 20 5 20 5C20 4.99891 19.9998 4.99348 19.9971 4.98438C19.9936 4.97318 19.9848 4.95153 19.9648 4.91895C19.9224 4.84984 19.8358 4.74586 19.6738 4.61816C19.3437 4.35796 18.8039 4.07918 18.0479 3.82715C16.5461 3.32656 14.4077 3 12 3Z" fill="#141414"/>
</svg>
