<svg width="24" height="24" viewBox="0 0 24 24" fill="none" xmlns="http://www.w3.org/2000/svg">
<path d="M8 5C9.65685 5 11 6.34315 11 8V20C11 21.6569 9.65685 23 8 23H6C4.34315 23 3 21.6569 3 20V8C3 6.34315 4.34315 5 6 5H8ZM6 7C5.44772 7 5 7.44772 5 8V20C5 20.5523 5.44772 21 6 21H8C8.55228 21 9 20.5523 9 20V8C9 7.44772 8.55228 7 8 7H6ZM18 5C19.6569 5 21 6.34315 21 8V14C21 15.6569 19.6569 17 18 17H16C14.3431 17 13 15.6569 13 14V8C13 6.34315 14.3431 5 16 5H18ZM16 7C15.4477 7 15 7.44772 15 8V14C15 14.5523 15.4477 15 16 15H18C18.5523 15 19 14.5523 19 14V8C19 7.44772 18.5523 7 18 7H16ZM22 1V3H2V1H22Z" fill="#141414"/>
</svg>
