<svg width="24" height="24" viewBox="0 0 24 24" fill="none" xmlns="http://www.w3.org/2000/svg">
<path d="M18 2C20.2091 2 22 3.79086 22 6V18C22 20.2091 20.2091 22 18 22H6C3.79086 22 2 20.2091 2 18V6C2 3.79086 3.79086 2 6 2H18ZM6 4C4.89543 4 4 4.89543 4 6V18C4 19.1046 4.89543 20 6 20H18C19.1046 20 20 19.1046 20 18V6C20 4.89543 19.1046 4 18 4H6ZM14.8281 9.46387H10.8789L16.2422 14.8281L14.8281 16.2422L9.46484 10.8789V14.8281H7.46484V8.46387C7.46511 7.91181 7.91272 7.46484 8.46484 7.46484H14.8281V9.46387Z" fill="#141414"/>
</svg>
