<svg width="24" height="24" viewBox="0 0 24 24" fill="none" xmlns="http://www.w3.org/2000/svg">
<path d="M4.22132 4.2215C8.51703 -0.0742123 15.4822 -0.0741069 19.778 4.2215C24.0737 8.51727 24.0737 15.4824 19.778 19.7781C17.2332 22.3229 13.7509 23.3597 10.4459 22.8904L10.7272 20.91C13.4363 21.2946 16.2826 20.4453 18.3639 18.3641C21.8786 14.8494 21.8786 9.15028 18.3639 5.63556C14.8492 2.121 9.15005 2.1209 5.63538 5.63556C3.55407 7.7169 2.70476 10.564 3.08948 13.2733L1.10999 13.5545C0.640657 10.2494 1.67647 6.76636 4.22132 4.2215ZM14.8278 8.1717C15.38 8.1717 15.8278 8.61941 15.8278 9.1717V15.536H13.8278V11.5858L4.92835 20.4852L3.51429 19.0711L12.4137 10.1717H8.46448V8.1717H14.8278Z" fill="#141414"/>
</svg>
