<svg width="24" height="24" viewBox="0 0 24 24" fill="none" xmlns="http://www.w3.org/2000/svg">
<path d="M16.6533 4.47559C19.2549 6.04164 21 8.88738 21 12.1416C20.9999 15.9486 18.6133 19.1954 15.2529 20.4922L16.6465 21.1836L15.8105 23L11.582 21.0039C11.3219 20.8841 11.1257 20.658 11.043 20.3838C10.9604 20.1098 10.9991 19.8138 11.1494 19.5703L13.502 15.7607L15.2041 16.8115L13.9639 18.8184C16.8763 17.9744 18.9999 15.3008 19 12.1416C19 9.62113 17.6501 7.4107 15.6211 6.18945L16.6533 4.47559ZM12.502 3.32324C12.7347 3.45847 12.9038 3.68141 12.9697 3.94238C13.0357 4.20326 12.993 4.47945 12.8525 4.70898L10.5 8.55371L8.79395 7.50977L10.0479 5.46094C7.12901 6.30099 5 8.97784 5 12.1416C5.00008 14.6263 6.31185 16.8095 8.29297 18.041L7.23633 19.7402C4.69592 18.161 3.00008 15.3496 3 12.1416C3 8.20104 5.55637 4.86013 9.10352 3.66113L7.59766 2.72949L8.60254 1L12.502 3.32324Z" fill="#141414"/>
</svg>
