<svg width="24" height="24" viewBox="0 0 24 24" fill="none" xmlns="http://www.w3.org/2000/svg">
<path d="M11.5 6.74405C11.5002 4.61322 13.9955 3.45881 15.6192 4.83875L21.8028 10.0956C22.9772 11.094 22.9772 12.9069 21.8028 13.9052L15.6192 19.1612C13.9956 20.5412 11.5004 19.3876 11.5 17.2568V14.1621L5.61915 19.1612C3.99555 20.5412 1.50037 19.3876 1.5 17.2568V6.74405C1.50021 4.61322 3.9955 3.45881 5.61915 4.83875L11.5 9.83782V6.74405ZM4.32423 6.36221C3.99955 6.08641 3.50022 6.31807 3.50001 6.74405V17.2568C3.50037 17.6827 3.9996 17.9136 4.32423 17.6377L10.5078 12.3808C10.7425 12.1811 10.7426 11.8187 10.5078 11.6191L4.32423 6.36221ZM14.3243 6.36221C13.9996 6.08641 13.5003 6.31807 13.5 6.74405V17.2568C13.5004 17.6827 13.9996 17.9136 14.3243 17.6377L20.5079 12.3808C20.7425 12.1811 20.7426 11.8187 20.5079 11.6191L14.3243 6.36221Z" fill="#141414"/>
</svg>
