<svg width="24" height="24" viewBox="0 0 24 24" fill="none" xmlns="http://www.w3.org/2000/svg">
<path d="M11.4697 1.37693C11.7025 1.07808 12.0899 0.940472 12.4619 1.02439C12.8339 1.10841 13.1227 1.39845 13.2012 1.76755C14.0563 5.7936 18.3303 7.87276 21.6787 6.63181C22.035 6.49972 22.4367 6.58375 22.708 6.84763C22.9792 7.1115 23.0712 7.50702 22.9433 7.8613C22.2333 9.82727 20.5702 11.3478 18.5019 11.8945C20.8155 12.6347 22.5107 14.7201 22.5107 17.2236C22.5107 20.0702 20.2894 22.647 17.372 22.9931L17.3144 23H6.19726L6.13866 22.9931C3.22144 22.6469 1 20.0701 1 17.2236C1.00005 14.3406 3.24902 12.0124 6.10058 11.6543C6.68979 9.60906 8.44735 8.05261 10.6142 7.64255C10.5671 7.47198 10.5215 7.29333 10.4805 7.11423C10.3795 6.67348 10.289 6.15732 10.289 5.73044C10.2891 5.05109 10.3619 4.26434 10.5361 3.51169C10.7071 2.77306 10.9935 1.98829 11.4697 1.37693ZM11.7558 9.4697C9.73144 9.4697 8.10864 10.9066 7.87401 12.6972C7.81053 13.1804 7.39748 13.5409 6.91015 13.539H6.86522C4.67055 13.5399 2.95513 15.2237 2.95507 17.2236C2.95507 19.1025 4.43737 20.8151 6.31737 21.0674H17.1933C19.0734 20.8151 20.5556 19.1025 20.5556 17.2236C20.5556 15.2238 18.841 13.5401 16.6465 13.539H16.6006C16.1132 13.5409 15.7002 13.1804 15.6367 12.6972C15.4021 10.9067 13.7801 9.46985 11.7558 9.4697ZM12.3027 4.75681C12.263 5.09271 12.2441 5.42471 12.2441 5.73044C12.2441 5.93668 12.2961 6.28327 12.3887 6.68747C12.4671 7.03009 12.5625 7.36179 12.6435 7.60056C14.403 7.85716 15.919 8.86481 16.8017 10.2861V10.1816C18.0417 10.1816 19.1646 9.69821 19.9853 8.91599C16.9788 9.04128 13.9337 7.47808 12.3027 4.75681Z" fill="#141414"/>
</svg>
