<svg width="24" height="24" viewBox="0 0 24 24" fill="none" xmlns="http://www.w3.org/2000/svg">
<path d="M10.467 2.74732C11.4113 2.18635 12.5871 2.18653 13.5315 2.74732L22.466 8.05494C22.8444 8.27996 23.0212 8.67491 23.0002 9.0608V17.0002H21.0002V10.8157L19.0002 12.0042V16.9309C19.0001 17.5547 18.7092 18.1435 18.2131 18.5217L15.6379 20.4846C13.4895 22.1225 10.511 22.1223 8.36252 20.4846L5.78733 18.5217C5.29127 18.1435 5.0003 17.5547 5.00022 16.9309V12.0051L1.53342 9.94556C0.816559 9.51924 0.816718 8.4814 1.53342 8.05494L10.467 2.74732ZM13.5315 15.2532C12.5872 15.8138 11.4112 15.8141 10.467 15.2532L7.00022 13.1926V16.9309L9.57541 18.8938C11.0077 19.9855 12.9928 19.9856 14.425 18.8938L17.0002 16.9309V13.1917L13.5315 15.2532ZM12.51 4.46705C12.1952 4.28023 11.8032 4.28009 11.4885 4.46705L3.85666 9.00025L11.4885 13.5335C11.8031 13.7204 12.1953 13.7201 12.51 13.5335L20.1418 9.00025L12.51 4.46705Z" fill="#141414"/>
</svg>
