<svg width="24" height="24" viewBox="0 0 24 24" fill="none" xmlns="http://www.w3.org/2000/svg">
<path d="M16.2169 2.35943C17.6957 0.725594 20.2418 0.662646 21.7999 2.22075C23.358 3.77899 23.2944 6.32499 21.6602 7.80376L18.8419 10.3516L21.004 19.3106C21.0856 19.6491 20.9846 20.0057 20.7383 20.252L18.2637 22.7266C18.0493 22.9411 17.7488 23.0478 17.4473 23.0147C17.146 22.9815 16.8757 22.8124 16.7129 22.5567L12.5626 16.0332L10.7784 17.6475V19.8985C10.7784 20.1637 10.6729 20.418 10.4854 20.6055L8.36431 22.7266C8.14659 22.9443 7.84081 23.0493 7.53521 23.0118C7.22969 22.9741 6.9583 22.7981 6.79986 22.5342L4.80767 19.2129L1.48638 17.2198C1.22248 17.0613 1.04552 16.7909 1.00786 16.4854C0.970258 16.1799 1.07549 15.874 1.29302 15.6563L3.41509 13.5342C3.60252 13.347 3.8572 13.2423 4.12212 13.2422L6.37115 13.2403L7.98443 11.4561L1.46294 7.30767C1.20719 7.14481 1.03901 6.87372 1.00591 6.57232C0.972978 6.27112 1.07888 5.97124 1.29302 5.75689L3.76861 3.2813C4.0149 3.03526 4.37157 2.93501 4.71001 3.01665L13.6661 5.17681L16.2169 2.35943ZM20.3848 3.63482C19.6351 2.88545 18.4103 2.9164 17.6993 3.7022L14.751 6.96001C14.5054 7.23145 14.1304 7.34665 13.7745 7.26079L4.78619 5.09185L3.58892 6.28911L10.0587 10.4053L10.1485 10.4698C10.3468 10.6292 10.4781 10.8594 10.5128 11.1143C10.5522 11.4061 10.4611 11.7015 10.2637 11.92L7.5567 14.9122C7.36719 15.1214 7.09784 15.2412 6.81548 15.2413H4.53716L3.61236 16.1651L6.05084 17.627L6.15142 17.6963C6.24779 17.7716 6.32932 17.8644 6.39263 17.9698L7.85552 20.4073L8.77838 19.4844V17.2041C8.77838 16.9217 8.89811 16.6525 9.10748 16.4629L12.0987 13.7559L12.1846 13.6866C12.3913 13.5373 12.649 13.4714 12.9044 13.5059C13.196 13.5454 13.4562 13.7117 13.6143 13.96L17.7315 20.4307L18.9278 19.2344L16.7579 10.2442C16.672 9.88827 16.7872 9.51331 17.0587 9.26763L20.3184 6.32036C21.1041 5.60916 21.1345 4.38447 20.3848 3.63482Z" fill="#141414"/>
</svg>
