<svg width="24" height="24" viewBox="0 0 24 24" fill="none" xmlns="http://www.w3.org/2000/svg">
<path d="M11.293 12.293C11.6835 11.9025 12.3165 11.9025 12.707 12.293L16.207 15.793L14.793 17.207L13 15.4141V22H11V15.4141L9.20703 17.207L7.79297 15.793L11.293 12.293ZM12 1C14.6782 1.00003 16.9887 2.52632 18.2207 4.75195C20.9477 5.08138 23 7.50661 23 10.3574C22.9999 13.4255 20.6229 15.9998 17.5859 16V14C19.4245 13.9998 20.9999 12.4172 21 10.3574C21 8.29753 19.4246 6.71408 17.5859 6.71387C17.1929 6.71387 16.8356 6.48414 16.6738 6.12598C15.8286 4.25472 14.0368 3.00003 12 3C9.96317 3 8.17144 4.25466 7.32617 6.12598C7.1644 6.48414 6.80707 6.71387 6.41406 6.71387C4.57543 6.71409 3 8.29754 3 10.3574C3.00014 12.4172 4.57551 13.9998 6.41406 14V16C3.37709 15.9998 1.00014 13.4255 1 10.3574C1 7.50661 3.05233 5.08138 5.7793 4.75195C7.01125 2.52632 9.32174 1 12 1Z" fill="#141414"/>
</svg>
