<svg width="24" height="24" viewBox="0 0 24 24" fill="none" xmlns="http://www.w3.org/2000/svg">
<path d="M12 1C15.599 1 18.7946 2.72949 20.7998 5.39844L19.2002 6.59961C17.5565 4.41197 14.9433 3 12 3C7.02944 3 3 7.02944 3 12C3 16.9706 7.02944 21 12 21C14.9433 21 17.5565 19.588 19.2002 17.4004L20.7998 18.6016C18.7946 21.2705 15.599 23 12 23C5.92487 23 1 18.0751 1 12C1 5.92487 5.92487 1 12 1ZM13.207 8.20703L10.4141 11H23V13H10.4141L13.207 15.793L11.793 17.207L7.29297 12.707C6.90244 12.3165 6.90244 11.6835 7.29297 11.293L11.793 6.79297L13.207 8.20703Z" fill="#141414"/>
</svg>
