<svg width="24" height="24" viewBox="0 0 24 24" fill="none" xmlns="http://www.w3.org/2000/svg">
<path d="M16.421 1.0127C16.8389 1.03761 17.2476 1.09965 17.6436 1.19531H17.6446C18.3719 1.37132 18.839 1.92807 18.9737 2.55469C19.1037 3.15988 18.9273 3.81673 18.4708 4.29785H18.4698L16.3956 6.48145L17.9815 8.06739L19.7676 6.1875L19.8614 6.09375C20.3467 5.64519 21.0046 5.47806 21.6065 5.62012C22.2356 5.76877 22.7729 6.25566 22.9209 6.97559L22.9454 7.12305L22.9864 7.5586C22.9955 7.70481 23 7.85201 23 8C23 11.7451 20.0588 14.8035 16.3604 14.9912L16.0001 15C15.2226 15 14.4751 14.8704 13.7764 14.6357L5.91414 22.5C5.18196 23.2322 4.02374 23.2777 3.23837 22.6377L3.08603 22.5L1.50009 20.9141C0.719044 20.133 0.719046 18.867 1.50009 18.0859L9.36238 10.2217C9.12823 9.52342 9.00008 8.77642 9.00008 8C9.00008 4.13401 12.1341 1 16.0001 1L16.421 1.0127ZM16.0001 3C13.2386 3 11.0001 5.23858 11.0001 8C11.0001 8.7337 11.159 9.42845 11.4425 10.0557C11.6138 10.4348 11.5325 10.8806 11.2384 11.1748L2.91415 19.5L4.50009 21.0859L12.8243 12.7607L12.9415 12.6602C13.2291 12.45 13.6118 12.4067 13.9434 12.5566C14.5713 12.8405 15.2664 13 16.0001 13L16.2569 12.9932C18.8989 12.8593 21 10.6752 21 8C21 7.93248 20.9958 7.86549 20.9932 7.79883L19.4307 9.44434C18.6564 10.2593 17.3629 10.2768 16.5674 9.48145L14.9825 7.89649C14.2164 7.13037 14.1988 5.89162 14.9464 5.10449L16.8721 3.07617C16.6857 3.04329 16.4954 3.02032 16.3018 3.00879L16.0001 3Z" fill="#141414"/>
</svg>
