<svg width="24" height="24" viewBox="0 0 24 24" fill="none" xmlns="http://www.w3.org/2000/svg">
<path d="M7.5 1C9.10381 1 10.5997 1.2344 11.7305 1.64551C12.2917 1.84959 12.8168 2.11651 13.2197 2.46289C13.6194 2.80655 14 3.32275 14 4V7.20508C14.7726 7.07342 15.6198 7 16.5 7C18.1038 7 19.5997 7.2344 20.7305 7.64551C21.2917 7.84959 21.8168 8.11651 22.2197 8.46289C22.6194 8.80655 23 9.32275 23 10V19C23 19.6772 22.6194 20.1935 22.2197 20.5371C21.8168 20.8835 21.2917 21.1504 20.7305 21.3545C19.5997 21.7656 18.1038 22 16.5 22C14.8962 22 13.4003 21.7656 12.2695 21.3545C11.7487 21.1651 11.26 20.9203 10.8701 20.6094C9.88918 20.8572 8.72927 21 7.5 21C5.89619 21 4.40031 20.7656 3.26953 20.3545C2.7083 20.1504 2.18322 19.8835 1.78027 19.5371C1.38055 19.1935 1 18.6772 1 18V4C1 3.32275 1.38055 2.80655 1.78027 2.46289C2.18322 2.11651 2.7083 1.84959 3.26953 1.64551C4.40031 1.2344 5.89619 1 7.5 1ZM20.7305 17.0547C19.5997 17.4658 18.1038 17.7002 16.5 17.7002C14.8962 17.7002 13.4003 17.4658 12.2695 17.0547C12.1781 17.0215 12.0891 16.9829 12 16.9463V18.9355C12.0145 18.9535 12.0397 18.9825 12.084 19.0205C12.2377 19.1526 12.5192 19.3168 12.9531 19.4746C13.8129 19.7872 15.0667 20 16.5 20C17.9333 20 19.1871 19.7872 20.0469 19.4746C20.4808 19.3168 20.7623 19.1526 20.916 19.0205C20.9603 18.9825 20.9855 18.9535 21 18.9355V16.9463C20.9109 16.9829 20.8219 17.0215 20.7305 17.0547ZM3 17.9355C3.0145 17.9535 3.03973 17.9825 3.08398 18.0205C3.23766 18.1526 3.51918 18.3168 3.95312 18.4746C4.81289 18.7872 6.06673 19 7.5 19C8.4256 19 9.27835 18.9073 10 18.7578V16.1973C9.22931 16.3285 8.38217 16.4004 7.5 16.4004C5.89624 16.4004 4.40029 16.166 3.26953 15.7549C3.17815 15.7217 3.08909 15.6831 3 15.6465V17.9355ZM20.7305 12.3545C19.5997 12.7656 18.1038 13 16.5 13C14.8962 13 13.4003 12.7656 12.2695 12.3545C12.1781 12.3212 12.0891 12.2827 12 12.2461V14.6357C12.0145 14.6538 12.0397 14.6827 12.084 14.7207C12.2377 14.8528 12.5193 15.017 12.9531 15.1748C13.8129 15.4873 15.0668 15.7002 16.5 15.7002C17.9332 15.7002 19.1871 15.4873 20.0469 15.1748C20.4807 15.017 20.7623 14.8528 20.916 14.7207C20.9603 14.6827 20.9855 14.6538 21 14.6357V12.2461C20.9109 12.2827 20.8219 12.3212 20.7305 12.3545ZM3 13.335C3.0144 13.353 3.03933 13.3825 3.08398 13.4209C3.2377 13.553 3.51934 13.7173 3.95312 13.875C4.81289 14.1875 6.06679 14.4004 7.5 14.4004C8.42493 14.4004 9.27809 14.3105 10 14.1621V11.4971C9.22578 11.629 8.37802 11.7002 7.5 11.7002C5.89622 11.7002 4.4003 11.4658 3.26953 11.0547C3.17813 11.0215 3.08911 10.9829 3 10.9463V13.335ZM16.5 9C15.2461 9 14.1295 9.16302 13.2939 9.41309L13.2881 9.41504C13.1628 9.45267 13.0461 9.49079 12.9385 9.53027C12.5403 9.67632 12.2736 9.82926 12.1162 9.95508C12.0973 9.97022 12.0804 9.98339 12.0664 9.99609C12.0651 9.9974 12.0638 9.99878 12.0625 10C12.0693 10.0062 12.076 10.0137 12.084 10.0205C12.2377 10.1526 12.5192 10.3168 12.9531 10.4746C13.8129 10.7872 15.0667 11 16.5 11C17.9333 11 19.1871 10.7872 20.0469 10.4746C20.4808 10.3168 20.7623 10.1526 20.916 10.0205C20.9238 10.0138 20.9298 10.0061 20.9365 10C20.9298 9.99393 20.9238 9.98617 20.916 9.97949C20.7623 9.84739 20.4808 9.68319 20.0469 9.52539C19.1871 9.21284 17.9333 9 16.5 9ZM11.7305 6.35449C10.5997 6.7656 9.10381 7 7.5 7C5.89619 7 4.40031 6.7656 3.26953 6.35449C3.17811 6.32125 3.08913 6.28274 3 6.24609V8.63574C3.01448 8.65376 3.03973 8.68266 3.08398 8.7207C3.23768 8.85279 3.51926 9.01703 3.95312 9.1748C4.81289 9.48735 6.06676 9.7002 7.5 9.7002C8.46986 9.7002 9.35444 9.60173 10.0898 9.44336C10.1041 9.40049 10.1196 9.35847 10.1367 9.31738C10.141 9.30702 10.1469 9.29736 10.1514 9.28711C10.1993 9.17734 10.2567 9.07431 10.3213 8.97754C10.352 8.93132 10.3845 8.8869 10.418 8.84375C10.4304 8.82777 10.4423 8.81147 10.4551 8.7959C10.4924 8.75021 10.5307 8.70609 10.5703 8.66406C10.5833 8.65028 10.5962 8.63646 10.6094 8.62305C10.6653 8.56616 10.7225 8.5126 10.7803 8.46289C10.8933 8.36577 11.0162 8.27542 11.1465 8.19043C11.1679 8.17648 11.1891 8.16209 11.2109 8.14844C11.2719 8.11031 11.3346 8.07379 11.3984 8.03809C11.4163 8.02809 11.434 8.01764 11.4521 8.00781C11.5325 7.96423 11.6151 7.92281 11.6992 7.88281C11.7093 7.87801 11.7193 7.87292 11.7295 7.86816C11.7929 7.83847 11.8577 7.81095 11.9229 7.7832C11.9485 7.77226 11.974 7.76067 12 7.75V6.24609C11.911 6.28266 11.8217 6.3213 11.7305 6.35449ZM7.5 3C6.06673 3 4.81289 3.21284 3.95312 3.52539C3.51918 3.68319 3.23766 3.84739 3.08398 3.97949C3.0762 3.98619 3.06916 3.9929 3.0625 3.99902C3.06948 4.00539 3.07579 4.01347 3.08398 4.02051C3.23766 4.15261 3.51918 4.31681 3.95312 4.47461C4.81289 4.78716 6.06673 5 7.5 5C8.93327 5 10.1871 4.78716 11.0469 4.47461C11.4808 4.31681 11.7623 4.15261 11.916 4.02051C11.9238 4.01383 11.9298 4.00607 11.9365 4C11.9298 3.99393 11.9238 3.98617 11.916 3.97949C11.7623 3.84739 11.4808 3.68319 11.0469 3.52539C10.1871 3.21284 8.93327 3 7.5 3Z" fill="#141414"/>
</svg>
