<svg width="24" height="24" viewBox="0 0 24 24" fill="none" xmlns="http://www.w3.org/2000/svg">
<path d="M12 1C18.0768 1 23 5.93443 23 12.0176C23 15.0499 21.8936 17.6882 19.7793 19.8066C15.7206 23.8731 9.02425 24.0836 4.72266 20.2803C2.4408 18.2627 1.00002 15.3077 1 12.0176C1 8.9757 2.23196 6.21944 4.22168 4.22656C6.21099 2.23414 8.96251 1 12 1ZM12 3C9.51528 3 7.26659 4.00719 5.63672 5.63965C4.00649 7.27249 3 9.52637 3 12.0176C3.00002 14.7113 4.17769 17.1277 6.04785 18.7812C9.55655 21.8835 15.0522 21.7119 18.3643 18.3936C20.1063 16.648 21 14.5169 21 12.0176C21 7.0357 16.9689 3 12 3ZM12 7C10.6198 7 9.37184 7.55941 8.46582 8.4668C7.55956 9.3745 7 10.6261 7 12.0107C7.00006 13.3934 7.55825 14.6349 8.46582 15.5439L7.0498 16.957C5.78555 15.6907 5.00006 13.9477 5 12.0107C5 10.0756 5.7842 8.32142 7.0498 7.05371C8.31529 5.78622 10.0669 5 12 5V7ZM19 12C19 13.9352 18.2159 15.6893 16.9502 16.957L15.5342 15.5439C16.4404 14.6362 17 13.3846 17 12H19ZM17.1846 8.17188L14.291 11.0654C14.4475 11.4115 14.5342 11.7962 14.5342 12.2002C14.5341 12.9478 14.2352 13.6278 13.752 14.123C13.2557 14.6316 12.5604 14.9502 11.792 14.9502C10.2738 14.9501 9.04991 13.7149 9.0498 12.2002C9.0498 11.4324 9.36487 10.7357 9.87109 10.2373C10.3644 9.75186 11.0439 9.45026 11.792 9.4502C12.209 9.4502 12.6052 9.54398 12.959 9.71094L15.8408 6.82812L17.1846 8.17188ZM11.792 11.3496C11.5636 11.3497 11.3572 11.4411 11.2041 11.5918C11.0468 11.7468 10.9502 11.9609 10.9502 12.2002C10.9503 12.6733 11.3309 13.0497 11.792 13.0498C12.0265 13.0498 12.2382 12.9541 12.3926 12.7959C12.5426 12.642 12.6347 12.4332 12.6348 12.2002C12.6348 11.9669 12.5428 11.7575 12.3926 11.6035C12.2382 11.4454 12.0265 11.3496 11.792 11.3496Z" fill="#141414"/>
</svg>
