<svg width="24" height="24" viewBox="0 0 24 24" fill="none" xmlns="http://www.w3.org/2000/svg">
<path fill-rule="evenodd" clip-rule="evenodd" d="M18 10C18 10.6397 17.6715 11.1478 17.2939 11.5049C16.9185 11.8599 16.4293 12.1339 15.9072 12.3428C14.8574 12.7627 13.4754 13 12 13C10.5246 13 9.14259 12.7627 8.09277 12.3428C7.57074 12.1339 7.08146 11.8599 6.70605 11.5049C6.32847 11.1478 6 10.6397 6 10C6 9.36029 6.32847 8.8522 6.70605 8.49512C7.08146 8.1401 7.57074 7.86606 8.09277 7.65723C9.14259 7.2373 10.5246 7 12 7C13.4754 7 14.8574 7.2373 15.9072 7.65723C16.4293 7.86606 16.9185 8.1401 17.2939 8.49512C17.6715 8.8522 18 9.36029 18 10ZM15.9199 9.94824C15.7894 9.82478 15.5467 9.66771 15.1641 9.51465C14.4042 9.21072 13.2861 9 12 9C10.7139 9 9.59576 9.21072 8.83594 9.51465C8.45329 9.66771 8.21063 9.82478 8.08008 9.94824C8.05941 9.96779 8.04467 9.98582 8.03223 10C8.04467 10.0142 8.05941 10.0322 8.08008 10.0518C8.21063 10.1752 8.45329 10.3323 8.83594 10.4854C9.59576 10.7893 10.7139 11 12 11C13.2861 11 14.4042 10.7893 15.1641 10.4854C15.5467 10.3323 15.7894 10.1752 15.9199 10.0518C15.9408 10.032 15.9562 10.0143 15.9687 10C15.9562 9.98573 15.9408 9.96802 15.9199 9.94824Z" fill="black"/>
<path fill-rule="evenodd" clip-rule="evenodd" d="M23 14C23 16.1461 21.5558 17.9187 19.5859 19.1006C17.5962 20.2944 14.9115 21 12 21C9.08849 21 6.40383 20.2944 4.41406 19.1006C2.44424 17.9187 0.999999 16.1461 1 14L1 10C1 7.85391 2.44424 6.08133 4.41406 4.89941C6.40383 3.70555 9.0885 3 12 3C14.9115 3 17.5962 3.70555 19.5859 4.89941C21.5558 6.08133 23 7.85391 23 10L23 14ZM21 10C21 8.83246 20.2059 7.60487 18.5566 6.61523C16.9271 5.63752 14.6113 5 12 5C9.38866 5 7.07288 5.63752 5.44336 6.61523C3.79408 7.60487 3 8.83246 3 10C3 11.1675 3.79408 12.3951 5.44336 13.3848C7.07288 14.3625 9.38866 15 12 15C14.6113 15 16.9271 14.3625 18.5566 13.3848C20.2059 12.3951 21 11.1675 21 10ZM5.5 15.6699C5.11936 15.4947 4.75603 15.3058 4.41406 15.1006C3.90244 14.7936 3.42755 14.4454 3.00293 14.0625C3.03078 15.2112 3.82351 16.4128 5.44336 17.3848C5.46194 17.3959 5.48124 17.4059 5.5 17.417L5.5 15.6699ZM11 16.9717C9.76831 16.9025 8.58927 16.7058 7.5 16.4004L7.5 18.3096C8.5462 18.6551 9.72923 18.8872 11 18.9678L11 16.9717ZM16.5 16.4004C15.4107 16.7058 14.2317 16.9025 13 16.9717L13 18.9678C14.2708 18.8872 15.4538 18.6551 16.5 18.3096L16.5 16.4004ZM20.998 14.0625C20.5733 14.4456 20.0978 14.7935 19.5859 15.1006C19.244 15.3058 18.8806 15.4947 18.5 15.6699L18.5 17.417C18.5188 17.4059 18.5381 17.3959 18.5566 17.3848C20.1765 16.4128 20.9702 15.2112 20.998 14.0625Z" fill="black"/>
</svg>
