<svg width="24" height="24" viewBox="0 0 24 24" fill="none" xmlns="http://www.w3.org/2000/svg">
<path d="M6.99996 4H5.99995C4.89552 4.00016 3.99994 4.89553 3.99994 6V9.37012C3.99987 9.85969 3.82024 10.3323 3.49506 10.6982L2.33782 12L3.49506 13.3018C3.82024 13.6677 3.99987 14.1403 3.99994 14.6299V18C3.99994 19.1045 4.89552 19.9998 5.99995 20H6.99996V22H5.99995C3.79094 21.9998 1.99993 20.209 1.99993 18V14.6299L0.842699 13.3291C0.169296 12.5714 0.169296 11.4286 0.842699 10.6709L1.99993 9.37012V6C1.99993 3.79096 3.79094 2.00016 5.99995 2H6.99996V4ZM18 2C20.2092 2 22 3.79086 22 6V9.37012L23.1573 10.6709C23.8309 11.4287 23.8309 12.5713 23.1573 13.3291L22 14.6299V18C22 20.2091 20.2092 22 18 22H17V20H18C19.1046 20 20 19.1046 20 18V14.6299C20.0001 14.1404 20.1798 13.6677 20.5049 13.3018L21.6622 12L20.5049 10.6982C20.1798 10.3323 20.0001 9.85963 20 9.37012V6C20 4.89543 19.1046 4 18 4H17V2H18ZM7.49996 10.5C8.32839 10.5 8.99997 11.1716 8.99997 12C8.99997 12.8284 8.32839 13.5 7.49996 13.5C6.67167 13.4998 5.99995 12.8283 5.99995 12C5.99995 11.1717 6.67167 10.5002 7.49996 10.5ZM12 10.5C12.8284 10.5 13.5 11.1716 13.5 12C13.5 12.8284 12.8284 13.5 12 13.5C11.1717 13.4998 10.5 12.8283 10.5 12C10.5 11.1717 11.1717 10.5002 12 10.5ZM16.5 10.5C17.3284 10.5 18 11.1716 18 12C18 12.8284 17.3284 13.5 16.5 13.5C15.6717 13.4998 15 12.8283 15 12C15 11.1717 15.6717 10.5002 16.5 10.5Z" fill="#141414"/>
</svg>
