<svg width="24" height="24" viewBox="0 0 24 24" fill="none" xmlns="http://www.w3.org/2000/svg">
<path d="M17 5C19.2091 5 21 6.79086 21 9V10H23V14H21V15C21 17.2091 19.2091 19 17 19H5C2.79086 19 1 17.2091 1 15V9C1 6.79086 2.79086 5 5 5H17ZM5 7C3.89543 7 3 7.89543 3 9V15C3 16.1046 3.89543 17 5 17H17C18.1046 17 19 16.1046 19 15V9C19 7.89543 18.1046 7 17 7H5ZM11.3779 9.01465L10.6182 11H13.25C13.6245 11 13.9682 11.209 14.1396 11.542C14.3111 11.8751 14.2812 12.2762 14.0635 12.5811L11.3779 16.2676L10.25 15.5L11.3066 13H8.75C8.38121 13 8.04218 12.7968 7.86816 12.4717C7.69426 12.1466 7.71344 11.7521 7.91797 11.4453L10.0859 8.27734L11.3779 9.01465Z" fill="#141414"/>
</svg>
