<svg width="24" height="24" viewBox="0 0 24 24" fill="none" xmlns="http://www.w3.org/2000/svg">
<path d="M12.793 6.79297C13.1835 6.40249 13.8165 6.40246 14.207 6.79297L17.207 9.79298C17.5975 10.1835 17.5975 10.8165 17.207 11.207L5.70702 22.707C5.3165 23.0976 4.68348 23.0975 4.29295 22.707L1.29295 19.707C0.90243 19.3165 0.90243 18.6835 1.29295 18.293L12.793 6.79297ZM3.41405 19L4.99999 20.586L11.5859 14L9.99999 12.4141L3.41405 19ZM21.707 14.293L20.293 15.707L17.793 13.207L19.207 11.793L21.707 14.293ZM11.414 11L13 12.5859L15.0859 10.5L13.5 8.91407L11.414 11ZM23 10H20V8.00001H23V10ZM12.207 4.79297L10.793 6.20704L8.29295 3.70703L9.70702 2.29297L12.207 4.79297ZM21.707 3.70703L19.207 6.20704L17.793 4.79297L20.293 2.29297L21.707 3.70703ZM16 4H14V1H16V4Z" fill="#141414"/>
</svg>
