<svg width="24" height="24" viewBox="0 0 24 24" fill="none" xmlns="http://www.w3.org/2000/svg">
<path d="M12 7.77832C13.6569 7.77832 15 9.12147 15 10.7783C15 12.0841 14.1645 13.1913 13 13.6035V21.7783H11V13.6035C9.83548 13.1913 9 12.0841 9 10.7783C9 9.12147 10.3431 7.77832 12 7.77832ZM5.63574 4.41406C4.80019 5.24968 4.13779 6.24225 3.68555 7.33398C3.23334 8.42582 3 9.59654 3 10.7783C3.00006 11.9599 3.2334 13.13 3.68555 14.2217C4.13779 15.3134 4.80019 16.306 5.63574 17.1416L4.22168 18.5557C3.20036 17.5343 2.38967 16.3218 1.83691 14.9873C1.28424 13.6529 1.00006 12.2226 1 10.7783C1 9.33386 1.28418 7.90287 1.83691 6.56836C2.38967 5.2339 3.20036 4.02138 4.22168 3L5.63574 4.41406ZM19.7783 3C20.7996 4.02138 21.6103 5.2339 22.1631 6.56836C22.7158 7.90287 23 9.33386 23 10.7783C22.9999 12.2226 22.7158 13.6529 22.1631 14.9873C21.6103 16.3218 20.7996 17.5343 19.7783 18.5557L18.3643 17.1416C19.1998 16.306 19.8622 15.3134 20.3145 14.2217C20.7666 13.13 20.9999 11.9599 21 10.7783C21 9.59654 20.7667 8.42582 20.3145 7.33398C19.8622 6.24225 19.1998 5.24968 18.3643 4.41406L19.7783 3ZM8.46484 7.24219C8.00061 7.70642 7.63213 8.25772 7.38086 8.86426C7.12959 9.47088 7.00098 10.1217 7.00098 10.7783C7.00104 11.4348 7.12965 12.0849 7.38086 12.6914C7.63213 13.2979 8.00061 13.8492 8.46484 14.3135L7.0498 15.7275C6.39991 15.0776 5.88494 14.3052 5.5332 13.4561C5.18158 12.607 4.99909 11.6973 4.99902 10.7783C4.99902 9.85919 5.18152 8.94879 5.5332 8.09961C5.88494 7.25044 6.39991 6.47808 7.0498 5.82812L8.46484 7.24219ZM16.9502 5.82812C17.6001 6.47808 18.1151 7.25044 18.4668 8.09961C18.8185 8.94879 19.001 9.85919 19.001 10.7783C19.0009 11.6973 18.8184 12.607 18.4668 13.4561C18.1151 14.3052 17.6001 15.0776 16.9502 15.7275L15.5352 14.3135C15.9994 13.8492 16.3679 13.2979 16.6191 12.6914C16.8704 12.0849 16.999 11.4348 16.999 10.7783C16.999 10.1217 16.8704 9.47088 16.6191 8.86426C16.3679 8.25772 15.9994 7.70642 15.5352 7.24219L16.9502 5.82812ZM12 9.77832C11.4477 9.77832 11 10.226 11 10.7783C11 11.3306 11.4477 11.7783 12 11.7783C12.5523 11.7783 13 11.3306 13 10.7783C13 10.226 12.5523 9.77832 12 9.77832Z" fill="#141414"/>
</svg>
