<svg width="24" height="24" viewBox="0 0 24 24" fill="none" xmlns="http://www.w3.org/2000/svg">
<g clip-path="url(#clip0_1462_1271)">
<path fill-rule="evenodd" clip-rule="evenodd" d="M12 8C14.2091 8 16 9.79086 16 12C16 14.2091 14.2091 16 12 16C9.79086 16 8 14.2091 8 12C8 9.79086 9.79086 8 12 8ZM12 10C10.8954 10 10 10.8954 10 12C10 13.1046 10.8954 14 12 14C13.1046 14 14 13.1046 14 12C14 10.8954 13.1046 10 12 10Z" fill="#141414"/>
<path fill-rule="evenodd" clip-rule="evenodd" d="M13 2.0498C17.7244 2.51889 21.4811 6.27562 21.9502 11H24V13H21.9502C21.4811 17.7243 17.7243 21.4801 13 21.9492V24H11V21.9492C6.27566 21.4801 2.51889 17.7243 2.0498 13H0V11H2.0498C2.51889 6.27562 6.27562 2.51889 11 2.0498V0H13V2.0498ZM12 4C7.58172 4 4 7.58172 4 12C4 16.4183 7.58172 20 12 20C16.4183 20 20 16.4183 20 12C20 7.58172 16.4183 4 12 4Z" fill="#141414"/>
</g>
<defs>
<clipPath id="clip0_1462_1271">
<rect width="24" height="24" fill="white"/>
</clipPath>
</defs>
</svg>
