<svg width="24" height="24" viewBox="0 0 24 24" fill="none" xmlns="http://www.w3.org/2000/svg">
<path d="M16 1C16.4781 1 16.8895 1.33843 16.9814 1.80762L17.9258 6.625C19.2138 8.04442 20 9.93153 20 12C20 14.0685 19.2138 15.9556 17.9258 17.375L16.9814 22.1924C16.8895 22.6616 16.4781 23 16 23H8C7.52189 23 7.11053 22.6616 7.01855 22.1924L6.07422 17.375C4.78624 15.9556 4 14.0685 4 12C4 9.93153 4.78624 8.04442 6.07422 6.625L7.01855 1.80762C7.11053 1.33843 7.52189 1 8 1H16ZM15.5342 19.1787C14.4684 19.7043 13.2684 20 12 20C10.7316 20 9.53157 19.7043 8.46582 19.1787L8.82324 21H15.1768L15.5342 19.1787ZM12 6C10.3209 6 8.80405 6.68826 7.71387 7.80078C6.65249 8.88397 6 10.3649 6 12C6 13.6351 6.65249 15.116 7.71387 16.1992C8.80405 17.3117 10.3209 18 12 18C13.6791 18 15.196 17.3117 16.2861 16.1992C17.3475 15.116 18 13.6351 18 12C18 10.3649 17.3475 8.88397 16.2861 7.80078C15.196 6.68826 13.6791 6 12 6ZM12.6113 11.9746L14.6514 14.0146L13.2373 15.4297L10.9043 13.0957C10.7168 12.9082 10.6113 12.6539 10.6113 12.3887V8.88867H12.6113V11.9746ZM8.46582 4.82129C9.53157 4.29569 10.7316 4 12 4C13.2684 4 14.4684 4.29569 15.5342 4.82129L15.1768 3H8.82324L8.46582 4.82129Z" fill="#141414"/>
</svg>
