<svg width="24" height="24" viewBox="0 0 24 24" fill="none" xmlns="http://www.w3.org/2000/svg">
<path d="M18 3C20.7614 3 23 5.23858 23 8C23 9.6356 22.2142 11.0878 21 12C22.2142 12.9122 23 14.3644 23 16C23 18.7614 20.7614 21 18 21H6C3.23858 21 1 18.7614 1 16C1 14.3644 1.78583 12.9122 3 12C1.78583 11.0878 1 9.6356 1 8C1 5.23858 3.23858 3 6 3H18ZM6 13C4.34315 13 3 14.3431 3 16C3 17.6569 4.34315 19 6 19H18C19.6569 19 21 17.6569 21 16C21 14.3431 19.6569 13 18 13H6ZM7 14.5C7.82843 14.5 8.5 15.1716 8.5 16C8.5 16.8284 7.82843 17.5 7 17.5C6.17157 17.5 5.5 16.8284 5.5 16C5.5 15.1716 6.17157 14.5 7 14.5ZM6 5C4.34315 5 3 6.34315 3 8C3 9.65685 4.34315 11 6 11H18C19.6569 11 21 9.65685 21 8C21 6.34315 19.6569 5 18 5H6ZM7 6.5C7.82843 6.5 8.5 7.17157 8.5 8C8.5 8.82843 7.82843 9.5 7 9.5C6.17157 9.5 5.5 8.82843 5.5 8C5.5 7.17157 6.17157 6.5 7 6.5Z" fill="#141414"/>
</svg>
