<svg width="24" height="24" viewBox="0 0 24 24" fill="none" xmlns="http://www.w3.org/2000/svg">
<path d="M12 13.5C12.8284 13.5 13.5 14.1716 13.5 15C13.5 15.8284 12.8284 16.5 12 16.5C11.1716 16.5 10.5 15.8284 10.5 15C10.5 14.1716 11.1716 13.5 12 13.5ZM13 12H11V8H13V12Z" fill="#141414"/>
<path d="M21 12C21 7.35329 17.0195 3.5 12 3.5C6.98048 3.5 3 7.35329 3 12C3 13.6318 3.48629 15.1561 4.33301 16.4531C4.47751 16.6745 4.52829 16.9443 4.47461 17.2031L3.80566 20.4297L7.2793 19.5322L7.36426 19.5137C7.56555 19.48 7.77342 19.5084 7.95898 19.5967C9.17179 20.1735 10.5435 20.5 12 20.5C17.0195 20.5 21 16.6467 21 12ZM23 12C23 17.8467 18.0262 22.5 12 22.5C10.3748 22.5 8.82885 22.1623 7.43652 21.5557L3.52832 22.5674C2.45279 22.8454 1.45829 21.8983 1.68359 20.8105L2.43457 17.1875C1.52303 15.6588 1 13.8877 1 12C1 6.1533 5.97382 1.5 12 1.5C18.0262 1.5 23 6.1533 23 12Z" fill="#141414"/>
</svg>
