<svg width="24" height="24" viewBox="0 0 24 24" fill="none" xmlns="http://www.w3.org/2000/svg">
<path d="M14.5 2C17.4868 2 20.1691 3.3105 22 5.38477L20.501 6.70898C19.0336 5.04649 16.8892 4 14.5 4C11.1428 4.00011 8.2688 6.06829 7.08203 9H13V11H6.5625C6.52165 11.3276 6.5 11.6613 6.5 12C6.5 12.3387 6.52165 12.6724 6.5625 13H13V15H7.08203C8.2688 17.9317 11.1428 19.9999 14.5 20C16.8892 20 19.0336 18.9535 20.501 17.291L22 18.6152C20.1691 20.6895 17.4868 22 14.5 22C10.0225 21.9999 6.23225 19.057 4.95801 15H2V13H4.5498C4.51715 12.6711 4.5 12.3375 4.5 12C4.5 11.6625 4.51715 11.3289 4.5498 11H2V9H4.95801C6.23225 4.94297 10.0225 2.00011 14.5 2Z" fill="#141414"/>
</svg>
