<svg width="24" height="24" viewBox="0 0 24 24" fill="none" xmlns="http://www.w3.org/2000/svg">
<path d="M4.2215 4.22132C6.76637 1.67647 10.2494 0.640658 13.5545 1.10999L13.2733 3.08948C10.564 2.70476 7.7169 3.55407 5.63556 5.63538C2.1209 9.15005 2.121 14.8492 5.63556 18.3639C9.15028 21.8786 14.8494 21.8786 18.3641 18.3639C20.4453 16.2826 21.2946 13.4363 20.91 10.7272L22.8904 10.4459C23.3597 13.7509 22.3229 17.2332 19.7781 19.778C15.4824 24.0737 8.51727 24.0737 4.2215 19.778C-0.0741069 15.4822 -0.0742123 8.51703 4.2215 4.22132ZM20.4852 4.92835L11.5858 13.8278H15.536V15.8278H9.1717C8.61941 15.8278 8.1717 15.38 8.1717 14.8278V8.46448H10.1717V12.4137L19.0711 3.51429L20.4852 4.92835Z" fill="#141414"/>
</svg>
