<svg width="24" height="24" viewBox="0 0 24 24" fill="none" xmlns="http://www.w3.org/2000/svg">
<path d="M16.3359 3C17.5807 3 18.6964 3.76852 19.1396 4.93164L20.7236 9.09082C22.0306 9.41484 23 10.5929 23 12V17C23 17.5523 22.5523 18 22 18H20V19C20 20.6569 18.6569 22 17 22C15.3431 22 14 20.6569 14 19V18H10V19C10 20.6569 8.65685 22 7 22C5.34315 22 4 20.6569 4 19V18H2C1.44772 18 1 17.5523 1 17V12C1 10.5932 1.96893 9.41516 3.27539 9.09082L4.86035 4.93164C5.30357 3.76852 6.41934 3 7.66406 3H16.3359ZM6 19C6 19.5523 6.44772 20 7 20C7.55228 20 8 19.5523 8 19V18H6V19ZM16 19C16 19.5523 16.4477 20 17 20C17.5523 20 18 19.5523 18 19V18H16V19ZM4 11C3.44772 11 3 11.4477 3 12V16H21V12C21 11.4477 20.5523 11 20 11H4ZM6.5 12C7.32843 12 8 12.6716 8 13.5C8 14.3284 7.32843 15 6.5 15C5.67157 15 5 14.3284 5 13.5C5 12.6716 5.67157 12 6.5 12ZM17.5 12C18.3284 12 19 12.6716 19 13.5C19 14.3284 18.3284 15 17.5 15C16.6716 15 16 14.3284 16 13.5C16 12.6716 16.6716 12 17.5 12ZM7.66406 5C7.24926 5 6.87731 5.25601 6.72949 5.64355L5.45117 9H18.5488L17.2705 5.64355C17.1227 5.25601 16.7507 5 16.3359 5H7.66406Z" fill="#141414"/>
</svg>
