<svg width="24" height="24" viewBox="0 0 24 24" fill="none" xmlns="http://www.w3.org/2000/svg">
<path d="M13 1C15.2091 1 17 2.79086 17 5H19C21.2091 5 23 6.79086 23 9V18C23 20.2091 21.2091 22 19 22H5C2.79086 22 1 20.2091 1 18V9C1 6.79086 2.79086 5 5 5H7C7 2.79086 8.79086 1 11 1H13ZM21 13.4629C20.4115 13.8035 19.7289 14 19 14H15V15C15 16.6569 13.6569 18 12 18C10.3431 18 9 16.6569 9 15V14H5C4.27107 14 3.58854 13.8035 3 13.4629V18C3 19.1046 3.89543 20 5 20H19C20.1046 20 21 19.1046 21 18V13.4629ZM11 15C11 15.5523 11.4477 16 12 16C12.5523 16 13 15.5523 13 15V14H11V15ZM5 7C3.89543 7 3 7.89543 3 9V10C3 11.1046 3.89543 12 5 12H19C20.1046 12 21 11.1046 21 10V9C21 7.89543 20.1046 7 19 7H5ZM11 3C9.89543 3 9 3.89543 9 5H15C15 3.89543 14.1046 3 13 3H11Z" fill="#141414"/>
</svg>
