<svg width="24" height="24" viewBox="0 0 24 24" fill="none" xmlns="http://www.w3.org/2000/svg">
<path d="M9 13.0001C9.0001 14.6568 10.3432 16.0001 12 16.0001C13.6568 16.0001 14.9999 14.6568 15 13.0001H17C16.9999 15.7614 14.7614 18.0001 12 18.0001C9.23864 18.0001 7.0001 15.7614 7 13.0001H9Z" fill="#141414"/>
<path fill-rule="evenodd" clip-rule="evenodd" d="M9.54395 2.64362C10.9884 1.52016 13.0116 1.52016 14.4561 2.64362L20.4561 7.30963C21.4302 8.06737 21.9999 9.23274 22 10.4669V18.0001C21.9999 20.2091 20.2091 22.0001 18 22.0001H6C3.79094 22.0001 2.00013 20.2091 2 18.0001V10.4669C2.00014 9.23274 2.56982 8.06737 3.54395 7.30963L9.54395 2.64362ZM13.2275 4.22174C12.5054 3.66033 11.4946 3.66033 10.7725 4.22174L4.77246 8.88873C4.28548 9.26756 4.00014 9.8499 4 10.4669V18.0001C4.00013 19.1045 4.89551 20.0001 6 20.0001H18C19.1045 20.0001 19.9999 19.1045 20 18.0001V10.4669C19.9999 9.8499 19.7145 9.26756 19.2275 8.88873L13.2275 4.22174Z" fill="#141414"/>
</svg>
