<svg width="24" height="24" viewBox="0 0 24 24" fill="none" xmlns="http://www.w3.org/2000/svg">
<path d="M15 13C19.4183 13 23 16.5817 23 21C23 21.5523 22.5523 22 22 22H2C1.44771 22 1 21.5523 1 21C1 16.5817 4.58172 13 9 13H15ZM9 15C6.02701 15 3.55909 17.1623 3.08301 20H14.917C14.4409 17.1623 11.973 15 9 15ZM14.292 15C15.7173 16.2581 16.6911 18.0164 16.9385 20H20.917C20.4409 17.1623 17.973 15 15 15H14.292ZM15 2C17.6234 2 19.75 4.12665 19.75 6.75C19.75 9.37335 17.6234 11.5 15 11.5C13.8617 11.5 12.8184 11.0973 12.001 10.4307C11.1828 11.0986 10.1385 11.5 9 11.5C6.37665 11.5 4.25 9.37335 4.25 6.75C4.25 4.12665 6.37665 2 9 2C10.138 2 11.182 2.40099 12 3.06836C12.8177 2.40174 13.862 2 15 2ZM9 4C7.48122 4 6.25 5.23122 6.25 6.75C6.25 8.26878 7.48122 9.5 9 9.5C10.5188 9.5 11.75 8.26878 11.75 6.75C11.75 5.23122 10.5188 4 9 4ZM15 4C14.3352 4 13.7251 4.23461 13.249 4.62793C13.4449 5.01928 13.5882 5.441 13.6699 5.88477C13.6729 5.9007 13.6759 5.91663 13.6787 5.93262C13.6907 6.00179 13.701 6.07144 13.71 6.1416C13.713 6.16532 13.716 6.18907 13.7188 6.21289C13.7386 6.38923 13.75 6.56836 13.75 6.75C13.75 6.93131 13.7385 7.1101 13.7188 7.28613C13.716 7.30996 13.713 7.3337 13.71 7.35742C13.7013 7.42497 13.6911 7.49197 13.6797 7.55859C13.6765 7.57717 13.6734 7.59575 13.6699 7.61426C13.5884 8.05778 13.4446 8.47893 13.249 8.87012C13.7252 9.26416 14.3349 9.5 15 9.5C16.5188 9.5 17.75 8.26878 17.75 6.75C17.75 5.23122 16.5188 4 15 4Z" fill="#141414"/>
</svg>
