<svg width="24" height="24" viewBox="0 0 24 24" fill="none" xmlns="http://www.w3.org/2000/svg">
<path d="M21.707 5.29297C22.0976 5.68349 22.0976 6.31651 21.707 6.70703L18.207 10.207L16.793 8.79297L18.5859 7H17.1406C16.1376 7.00004 15.2009 7.50137 14.6445 8.33594L12.2012 12L14.6445 15.6641C15.2009 16.4986 16.1376 17 17.1406 17H18.5859L16.793 15.207L18.207 13.793L21.707 17.293C22.0976 17.6835 22.0976 18.3165 21.707 18.707L18.207 22.207L16.793 20.793L18.5859 19H17.1406C15.4689 19 13.9078 18.1644 12.9805 16.7734L11 13.8027L9.01953 16.7734C8.09222 18.1644 6.5311 19 4.85938 19H2V17H4.85938C5.86239 17 6.79909 16.4986 7.35547 15.6641L9.79785 12L7.35547 8.33594C6.79909 7.50137 5.86239 7.00004 4.85938 7H2V5H4.85938C6.5311 5.00004 8.09222 5.8356 9.01953 7.22656L11 10.1973L12.9805 7.22656C13.9078 5.8356 15.4689 5.00004 17.1406 5H18.5859L16.793 3.20703L18.207 1.79297L21.707 5.29297Z" fill="#141414"/>
</svg>
