<svg width="24" height="24" viewBox="0 0 24 24" fill="none" xmlns="http://www.w3.org/2000/svg">
<path d="M17.707 9.20703L11.207 15.707C10.8165 16.0976 10.1835 16.0976 9.79297 15.707L6.29297 12.207L7.70703 10.793L10.5 13.5859L16.293 7.79297L17.707 9.20703Z" fill="#141414"/>
<path fill-rule="evenodd" clip-rule="evenodd" d="M18 2C20.2091 2 22 3.79086 22 6V18C22 20.2091 20.2091 22 18 22H6C3.79086 22 2 20.2091 2 18V6C2 3.79086 3.79086 2 6 2H18ZM6 4C4.89543 4 4 4.89543 4 6V18C4 19.1046 4.89543 20 6 20H18C19.1046 20 20 19.1046 20 18V6C20 4.89543 19.1046 4 18 4H6Z" fill="#141414"/>
</svg>
