<svg width="24" height="24" viewBox="0 0 24 24" fill="none" xmlns="http://www.w3.org/2000/svg">
<path d="M17.5068 2.40188C19.3354 2.09718 21 3.50805 21 5.36184V16.0005L20.9951 16.2056C20.8881 18.3192 19.1402 20.0005 17 20.0005C14.791 20.0005 13.0003 18.2094 13 16.0005C13 13.7914 14.7909 12.0005 17 12.0005C17.7288 12.0005 18.4115 12.1961 19 12.5366V5.36184C19 4.74398 18.4454 4.27409 17.8359 4.37551L9.83594 5.70852C9.35379 5.78891 9 6.20603 9 6.69485V18.0005L8.99512 18.2056C8.88814 20.3192 7.14021 22.0005 5 22.0005C2.79102 22.0005 1.00025 20.2094 1 18.0005C1 15.7914 2.79086 14.0005 5 14.0005C5.72884 14.0005 6.41151 14.1961 7 14.5366V6.69485C7 5.22836 8.06032 3.97699 9.50684 3.73586L17.5068 2.40188ZM5 16.0005C3.89543 16.0005 3 16.8959 3 18.0005C3.00025 19.1049 3.89559 20.0005 5 20.0005C6.10441 20.0005 6.99975 19.1049 7 18.0005C7 16.8959 6.10457 16.0005 5 16.0005ZM17 14.0005C15.8954 14.0005 15 14.8959 15 16.0005C15.0003 17.1049 15.8956 18.0005 17 18.0005C18.1044 18.0005 18.9997 17.1049 19 16.0005C19 14.8959 18.1046 14.0005 17 14.0005Z" fill="#141414"/>
</svg>
