<svg width="24" height="24" viewBox="0 0 24 24" fill="none" xmlns="http://www.w3.org/2000/svg">
<path d="M6 3C7.65685 3 9 4.34315 9 6V9H15V6C15 4.34315 16.3431 3 18 3H20C21.6569 3 23 4.34315 23 6V18C23 19.6569 21.6569 21 20 21H18C16.3431 21 15 19.6569 15 18V15H9V18C9 19.6569 7.65685 21 6 21H4C2.34315 21 1 19.6569 1 18V6C1 4.34315 2.34315 3 4 3H6ZM4 5C3.44772 5 3 5.44772 3 6V18C3 18.5523 3.44772 19 4 19H6C6.55228 19 7 18.5523 7 18V6C7 5.44772 6.55228 5 6 5H4ZM18 5C17.4477 5 17 5.44772 17 6V18C17 18.5523 17.4477 19 18 19H20C20.5523 19 21 18.5523 21 18V6C21 5.44772 20.5523 5 20 5H18ZM9 13H15V11H9V13Z" fill="#141414"/>
</svg>
