<svg width="24" height="24" viewBox="0 0 24 24" fill="none" xmlns="http://www.w3.org/2000/svg">
<path fill-rule="evenodd" clip-rule="evenodd" d="M9.55469 2.12631C10.9951 1.01356 13.0049 1.01356 14.4453 2.12631L23.6113 9.20932L22.3887 10.7913L22 10.4906V18.0003C21.9998 20.2093 20.209 22.0003 18 22.0003H6C3.79099 22.0003 2.0002 20.2093 2 18.0003V10.4906L1.61133 10.7913L0.388672 9.20932L9.55469 2.12631ZM13.2275 3.72201C12.5054 3.1606 11.4946 3.1606 10.7725 3.72201L4 8.98861V18.0003C4.0002 19.1047 4.89556 20.0003 6 20.0003H8V16.0003C8 13.7912 9.79086 12.0003 12 12.0003C14.2091 12.0003 16 13.7912 16 16.0003V20.0003H18C19.1044 20.0003 19.9998 19.1047 20 18.0003V8.98861L13.2275 3.72201ZM12 14.0003C10.8954 14.0003 10 14.8958 10 16.0003V20.0003H14V16.0003C14 14.8958 13.1046 14.0003 12 14.0003Z" fill="#141414"/>
</svg>
