<svg width="24" height="24" viewBox="0 0 24 24" fill="none" xmlns="http://www.w3.org/2000/svg">
<path d="M14 3C16.7614 3 19 5.23858 19 8H17C17 6.34315 15.6569 5 14 5H9.81934C8.26234 5.00018 7.00017 6.26234 7 7.81934C7 8.16395 7.19469 8.47967 7.50293 8.63379L12.2363 11H22V13H16.2363L17.3916 13.5781C18.3773 14.0711 19 15.0786 19 16.1807C18.9998 18.8422 16.8422 20.9998 14.1807 21H10C7.23858 21 5 18.7614 5 16H7C7 17.6569 8.34315 19 10 19H14.1807C15.7377 18.9998 16.9998 17.7377 17 16.1807C17 15.836 16.8053 15.5203 16.4971 15.3662L11.7637 13H2V11H7.76367L6.6084 10.4219C5.62274 9.92893 5 8.9214 5 7.81934C5.00018 5.15777 7.15777 3.00018 9.81934 3H14Z" fill="#141414"/>
</svg>
