<svg width="24" height="24" viewBox="0 0 24 24" fill="none" xmlns="http://www.w3.org/2000/svg">
<path d="M13 19.5859L15.5254 17.0596L16.9404 18.4746L12.707 22.707C12.3165 23.0976 11.6835 23.0976 11.293 22.707L7.05957 18.4746L8.47461 17.0596L11 19.5859V13H13V19.5859Z" fill="#141414"/>
<path d="M12 1C14.6782 1.00003 16.9887 2.52632 18.2207 4.75195C20.9477 5.08138 23 7.50661 23 10.3574C22.9999 13.4255 20.6229 15.9998 17.5859 16V14C19.4245 13.9998 20.9999 12.4172 21 10.3574C21 8.29753 19.4246 6.71408 17.5859 6.71387C17.1929 6.71387 16.8356 6.48414 16.6738 6.12598C15.8286 4.25472 14.0368 3.00003 12 3C9.96317 3 8.17144 4.25466 7.32617 6.12598C7.1644 6.48414 6.80707 6.71387 6.41406 6.71387C4.57543 6.71409 3 8.29754 3 10.3574C3.00014 12.4172 4.57551 13.9998 6.41406 14V16C3.37709 15.9998 1.00014 13.4255 1 10.3574C1 7.50661 3.05233 5.08138 5.7793 4.75195C7.01125 2.52632 9.32174 1 12 1Z" fill="#141414"/>
</svg>
