<svg width="24" height="24" viewBox="0 0 24 24" fill="none" xmlns="http://www.w3.org/2000/svg">
<path d="M21.749 19.249L20.335 20.6631L16.9512 17.2793C15.836 18.1598 14.4815 18.7507 13 18.9355V21H16V23H8V21H11V18.9355C7.05384 18.4433 4 15.0795 4 11V9H6V11C6 14.3137 8.68629 17 12 17C13.3179 17 14.534 16.5722 15.5234 15.8516L14.084 14.4121C13.4771 14.7841 12.7642 15 12 15C9.79086 15 8 13.2091 8 11V8.32812L2.5 2.82812L3.91406 1.41406L21.749 19.249ZM20 11C20 12.0851 19.7811 13.1183 19.3896 14.0615L17.8145 12.4854C17.9354 12.0103 18 11.5127 18 11V9H20V11ZM10 11C10 12.1046 10.8954 13 12 13C12.2032 13 12.3984 12.9675 12.583 12.9111L10 10.3281V11ZM12 1C14.2091 1 16 2.79086 16 5V10.6709L14 8.6709V5C14 3.89543 13.1046 3 12 3C10.9985 3 10.1715 3.73654 10.0254 4.69727L8.46191 3.13281C9.13269 1.86441 10.4653 1 12 1Z" fill="#141414"/>
</svg>
