<svg width="24" height="24" viewBox="0 0 24 24" fill="none" xmlns="http://www.w3.org/2000/svg">
<path d="M12 3C15.64 3 18.6295 5.77842 18.9668 9.33008C21.3144 10.1444 23 12.3744 23 15C23 18.3137 20.3137 21 17 21H7C3.68629 21 1 18.3137 1 15C1 12.3748 2.68504 10.1447 5.03223 9.33008C5.36948 5.77837 8.35999 3 12 3ZM12 5C9.23858 5 7 7.23858 7 10C7 10.0291 7.00074 10.0085 7.00195 10.083C7.0098 10.5648 6.67248 10.9844 6.2002 11.0801C4.37423 11.4501 3 13.0656 3 15C3 17.2091 4.79086 19 7 19H17C19.2091 19 21 17.2091 21 15C21 13.0653 19.6253 11.4498 17.7988 11.0801C17.3265 10.9845 16.9892 10.5649 16.9971 10.083C16.9973 10.0661 16.9976 10.0509 16.998 10.0391C16.9984 10.0282 16.9998 10.0153 17 10.0098C17.0006 9.99388 17 9.9948 17 10C17 7.23858 14.7614 5 12 5Z" fill="#141414"/>
</svg>
