<svg width="24" height="24" viewBox="0 0 24 24" fill="none" xmlns="http://www.w3.org/2000/svg">
<path d="M19 3C21.2091 3 23 4.79086 23 7V17C23 19.2091 21.2091 21 19 21H5C2.79086 21 1 19.2091 1 17V7C1 4.79086 2.79086 3 5 3H19ZM5 5C3.89543 5 3 5.89543 3 7V17C3 18.1046 3.89543 19 5 19H19C20.1046 19 21 18.1046 21 17V7C21 5.89543 20.1046 5 19 5H5ZM12.9287 7.82129H14.2949V9.62109H11.5215C11.3481 9.62109 11.1746 9.69178 11.042 9.8291C10.9083 9.96752 10.8281 10.1622 10.8281 10.3711C10.8281 10.58 10.9083 10.7747 11.042 10.9131C11.1746 11.0504 11.3481 11.1211 11.5215 11.1211H12.5352C13.2068 11.1211 13.8447 11.3974 14.3096 11.8789C14.7734 12.3593 15.0283 13.0047 15.0283 13.6709C15.0283 14.3371 14.7733 14.9825 14.3096 15.4629C13.9366 15.8492 13.4523 16.1039 12.9287 16.1895V17H11.1279V16.2207H9.29492V14.4209H12.5352C12.7086 14.4209 12.882 14.3502 13.0146 14.2129C13.1482 14.0745 13.2285 13.8797 13.2285 13.6709C13.2285 13.4623 13.148 13.2682 13.0146 13.1299C12.882 12.9925 12.7086 12.9209 12.5352 12.9209H11.5215C10.8499 12.9209 10.212 12.6446 9.74707 12.1631C9.28325 11.6827 9.02832 11.0374 9.02832 10.3711C9.02832 9.70484 9.28325 9.05954 9.74707 8.5791C10.12 8.19281 10.6043 7.93806 11.1279 7.85254V6.96191H12.9287V7.82129ZM7 12.9004H4.5V11.0996H7V12.9004ZM19.5 12.9004H17V11.0996H19.5V12.9004Z" fill="#141414"/>
</svg>
