<svg width="24" height="24" viewBox="0 0 24 24" fill="none" xmlns="http://www.w3.org/2000/svg">
<path d="M9 3H15V1H17V3H18C20.2091 3 22 4.79086 22 7V18C22 20.2091 20.2091 22 18 22H6C3.79086 22 2 20.2091 2 18V7C2 4.79086 3.79086 3 6 3H7V1H9V3ZM4 10V18C4 19.1046 4.89543 20 6 20H18C19.1046 20 20 19.1046 20 18V10H4ZM12 11.5703C13.0719 10.7341 14.6119 10.8164 15.5879 11.8232C16.2242 12.48 16.5126 13.265 16.5 14.0723C16.4877 14.851 16.1976 15.5863 15.7998 16.2129C15.0146 17.4496 13.6594 18.4985 12.3164 18.9463C12.1112 19.0146 11.8888 19.0147 11.6836 18.9463C10.3408 18.4984 8.98533 17.4495 8.2002 16.2129C7.80256 15.5864 7.51229 14.8509 7.5 14.0723C7.48735 13.2651 7.77583 12.4799 8.41211 11.8232C9.38796 10.8161 10.928 10.7343 12 11.5703ZM14.1514 13.2148C13.8708 12.9258 13.4289 12.9256 13.1484 13.2148L12 14.4004L10.8516 13.2148C10.571 12.9258 10.1291 12.9256 9.84863 13.2148C9.58182 13.4902 9.49567 13.7636 9.5 14.041C9.50488 14.347 9.62464 14.7246 9.88867 15.1406C10.365 15.891 11.189 16.5696 12 16.9258C12.8111 16.5697 13.6349 15.8912 14.1113 15.1406C14.3755 14.7244 14.4951 14.3471 14.5 14.041C14.5043 13.7636 14.4182 13.4903 14.1514 13.2148ZM6 5C4.89543 5 4 5.89543 4 7V8H20V7C20 5.89543 19.1046 5 18 5H6Z" fill="#141414"/>
</svg>
