<svg width="24" height="24" viewBox="0 0 24 24" fill="none" xmlns="http://www.w3.org/2000/svg">
<path d="M13 17.5H11V11H13V17.5Z" fill="#141414"/>
<path d="M12 6.5C12.8284 6.5 13.5 7.17157 13.5 8C13.5 8.82843 12.8284 9.5 12 9.5C11.1716 9.5 10.5 8.82843 10.5 8C10.5 7.17157 11.1716 6.5 12 6.5Z" fill="#141414"/>
<path fill-rule="evenodd" clip-rule="evenodd" d="M18 2C20.2091 2 22 3.79086 22 6V18C22 20.2091 20.2091 22 18 22H6C3.79086 22 2 20.2091 2 18V6C2 3.79086 3.79086 2 6 2H18ZM6 4C4.89543 4 4 4.89543 4 6V18C4 19.1046 4.89543 20 6 20H18C19.1046 20 20 19.1046 20 18V6C20 4.89543 19.1046 4 18 4H6Z" fill="#141414"/>
</svg>
