<svg width="24" height="24" viewBox="0 0 24 24" fill="none" xmlns="http://www.w3.org/2000/svg">
<path d="M13 2C14.6569 2 16 3.34315 16 5V7.17383C16.3131 7.06306 16.649 7 17 7H19C20.6569 7 22 8.34315 22 10V19C22 20.6569 20.6569 22 19 22H5C3.34315 22 2 20.6569 2 19V14C2 12.3431 3.34315 11 5 11H7C7.351 11 7.68694 11.0631 8 11.1738V5C8 3.34315 9.34315 2 11 2H13ZM5 13C4.44772 13 4 13.4477 4 14V19C4 19.5523 4.44772 20 5 20H8V14C8 13.4477 7.55228 13 7 13H5ZM11 4C10.4477 4 10 4.44772 10 5V20H14V5C14 4.44772 13.5523 4 13 4H11ZM17 9C16.4477 9 16 9.44772 16 10V20H19C19.5523 20 20 19.5523 20 19V10C20 9.44772 19.5523 9 19 9H17Z" fill="#141414"/>
</svg>
