<svg width="24" height="24" viewBox="0 0 24 24" fill="none" xmlns="http://www.w3.org/2000/svg">
<path d="M4.53098 2.0515L14.7614 2.73411C15.2447 2.76633 15.7011 2.97269 16.0437 3.31517L17.1921 4.4636C19.5196 6.7911 20.6733 10.0318 20.361 13.2907L22.1413 15.071C22.5317 15.4615 22.5318 16.0946 22.1413 16.4851L16.4851 22.1413C16.0946 22.5318 15.4615 22.5317 15.071 22.1413L13.2907 20.362C10.0298 20.6747 6.79003 19.5174 4.4636 17.1911L3.31517 16.0436C2.97269 15.7011 2.76633 15.2447 2.73411 14.7614L2.0515 4.53098C2.03232 4.24326 2.13861 3.96047 2.34251 3.75657L3.75657 2.34251C3.96047 2.13861 4.24326 2.03232 4.53098 2.0515ZM10.2439 8.8298C11.3588 8.29768 12.7326 8.49052 13.656 9.41378C14.8275 10.5854 14.8275 12.4844 13.656 13.656C12.4844 14.8275 10.5854 14.8275 9.41379 13.656C8.49053 12.7326 8.2977 11.3588 8.8298 10.2439L4.12278 5.53684L4.7302 14.6296L5.87766 15.777C7.85983 17.7591 10.6528 18.7042 13.4314 18.3337L13.5241 18.322C13.8327 18.2809 14.1428 18.3861 14.363 18.6061L15.778 20.0202L20.0202 15.778L18.6062 14.363C18.3837 14.1404 18.2794 13.8259 18.3239 13.5144C18.7243 10.7104 17.7807 7.88156 15.778 5.87864L14.6296 4.7302L5.53684 4.12278L10.2439 8.8298ZM12.2419 10.8278C11.8514 10.4374 11.2183 10.4374 10.8278 10.8278C10.4374 11.2183 10.4375 11.8514 10.8278 12.2419C11.2184 12.6324 11.8514 12.6324 12.2419 12.2419C12.6324 11.8514 12.6324 11.2184 12.2419 10.8278Z" fill="#141414"/>
</svg>
