<svg width="24" height="24" viewBox="0 0 24 24" fill="none" xmlns="http://www.w3.org/2000/svg">
<path d="M2.5 16.5C3.32843 16.5 4 17.1716 4 18C4 18.8284 3.32843 19.5 2.5 19.5C1.67157 19.5 1 18.8284 1 18C1 17.1716 1.67157 16.5 2.5 16.5ZM23 19H7V17H23V19ZM2.5 10.5C3.32843 10.5 4 11.1716 4 12C4 12.8284 3.32843 13.5 2.5 13.5C1.67157 13.5 1 12.8284 1 12C1 11.1716 1.67157 10.5 2.5 10.5ZM23 13H7V11H23V13ZM2.5 4.5C3.32843 4.5 4 5.17157 4 6C4 6.82843 3.32843 7.5 2.5 7.5C1.67157 7.5 1 6.82843 1 6C1 5.17157 1.67157 4.5 2.5 4.5ZM23 7H7V5H23V7Z" fill="#141414"/>
</svg>
