<svg width="24" height="24" viewBox="0 0 24 24" fill="none" xmlns="http://www.w3.org/2000/svg">
<path d="M17 1C19.2091 1 21 2.79086 21 5V19C21 21.2091 19.2091 23 17 23H7C4.79086 23 3 21.2091 3 19V5C3 2.79086 4.79086 1 7 1H17ZM7 3C5.89543 3 5 3.89543 5 5V19C5 20.1046 5.89543 21 7 21H17C18.1046 21 19 20.1046 19 19V5C19 3.89543 18.1046 3 17 3H7ZM15 19H9V17H15V19ZM12 6.69922C13.1732 5.69895 14.9156 5.77228 16.0049 6.91992C16.7031 7.65563 17.0137 8.52599 17 9.41699C16.9866 10.2811 16.6712 11.1069 16.2275 11.8203C15.3507 13.2301 13.8295 14.4333 12.3223 14.9463C12.1134 15.0173 11.8866 15.0173 11.6777 14.9463C10.1705 14.4333 8.64933 13.2301 7.77246 11.8203C7.32883 11.1069 7.01343 10.2811 7 9.41699C6.98625 8.52595 7.29691 7.65566 7.99512 6.91992C9.08445 5.77227 10.8268 5.69891 12 6.69922ZM14.5537 8.29688C14.1783 7.90143 13.5922 7.90136 13.2168 8.29688L12 9.5791L10.7832 8.29688C10.4078 7.90136 9.82174 7.90143 9.44629 8.29688C9.11253 8.64857 8.99431 9.01146 9 9.38574C9.00628 9.78711 9.15796 10.2607 9.4707 10.7637C10.0431 11.6839 11.0329 12.507 12 12.9268C12.9671 12.5069 13.957 11.6839 14.5293 10.7637C14.842 10.2607 14.9937 9.7871 15 9.38574C15.0057 9.01149 14.8874 8.64854 14.5537 8.29688Z" fill="#141414"/>
</svg>
