<svg width="24" height="24" viewBox="0 0 24 24" fill="none" xmlns="http://www.w3.org/2000/svg">
<path d="M17.4463 14.1396C17.7017 14.0199 17.9975 14.02 18.2529 14.1396L21.4531 15.6396C21.7868 15.7961 22 16.1315 22 16.5V19.3379C21.9999 20.3716 21.5221 21.3478 20.7061 21.9824L18.4336 23.75C18.0906 24.0168 17.6096 24.0168 17.2666 23.75L14.9932 21.9824C14.1771 21.3478 13.7003 20.3716 13.7002 19.3379V16.5C13.7002 16.1315 13.9134 15.7961 14.2471 15.6396L17.4463 14.1396ZM12.7578 1C13.8185 1.00012 14.8359 1.42184 15.5859 2.17188L19.8281 6.41406C20.5782 7.1641 20.9999 8.18149 21 9.24219V11H19V9.24219C19 9.16074 18.9932 9.08003 18.9834 9H17C14.7909 9 13 7.20914 13 5V3.01562C12.92 3.00584 12.8392 3.00002 12.7578 3H7C5.89543 3 5 3.89543 5 5V19C5 20.1046 5.89543 21 7 21H12V23H7C4.79086 23 3 21.2091 3 19V5C3 2.79086 4.79086 1 7 1H12.7578ZM15.5996 17.1035V19.3379C15.5997 19.7853 15.807 20.2078 16.1602 20.4824L17.8496 21.7969L19.54 20.4824C19.8932 20.2078 20.0995 19.7853 20.0996 19.3379V17.1035L17.8496 16.0488L15.5996 17.1035ZM15 5C15 6.10457 15.8954 7 17 7H17.5859L15 4.41406V5Z" fill="#141414"/>
</svg>
