<svg width="24" height="24" viewBox="0 0 24 24" fill="none" xmlns="http://www.w3.org/2000/svg">
<path d="M7 11.126C8.72523 11.57 10 13.1362 10 15V18C10 20.2091 8.20914 22 6 22C3.79086 22 2 20.2091 2 18V15C2 13.1362 3.27477 11.57 5 11.126V2H7V11.126ZM14 5L14.0039 5.1543C14.0666 6.39269 14.8816 7.42933 16 7.8252V2H18V7.8252C19.1645 7.41299 20 6.30574 20 5V2H22V5C22 7.41892 20.2822 9.4361 18 9.89941V22H16V9.89844C13.7993 9.45154 12.1234 7.56057 12.0068 5.25684L12 5V2H14V5ZM6 13C4.89543 13 4 13.8954 4 15V18C4 19.1046 4.89543 20 6 20C7.10457 20 8 19.1046 8 18V15C8 13.8954 7.10457 13 6 13Z" fill="#141414"/>
</svg>
