<svg width="24" height="24" viewBox="0 0 24 24" fill="none" xmlns="http://www.w3.org/2000/svg">
<path d="M17.1436 21.6553C15.6203 21.8756 13.864 22 12 22V20C13.7787 20 15.4381 19.8809 16.8564 19.6758L17.1436 21.6553ZM19.2383 17.2568C17.3368 17.7229 14.7823 18 12 18H9V16H12C14.6685 16 17.0557 15.7325 18.7617 15.3145L19.2383 17.2568ZM21.4775 12.7402C20.4874 13.2788 19.0629 13.578 17.4883 13.7549C15.8823 13.9353 13.9953 14 12 14C10.0047 14 8.1177 13.9353 6.51172 13.7549C4.93706 13.578 3.51257 13.2788 2.52246 12.7402L3.47754 10.9834C4.1081 11.3265 5.20503 11.5957 6.73535 11.7676C8.23459 11.936 10.0372 12 12 12C13.9628 12 15.7654 11.936 17.2646 11.7676C18.795 11.5957 19.8919 11.3265 20.5225 10.9834L21.4775 12.7402ZM12 2C14.8307 2 17.432 2.34299 19.3584 2.9209C20.3152 3.20794 21.1627 3.56956 21.793 4.0166C22.3972 4.44523 23 5.10107 23 6C23 6.89893 22.3972 7.55477 21.793 7.9834C21.1627 8.43044 20.3152 8.79206 19.3584 9.0791C17.432 9.65701 14.8307 10 12 10C9.1693 10 6.56798 9.65701 4.6416 9.0791C3.68478 8.79206 2.83731 8.43044 2.20703 7.9834C1.60279 7.55477 1 6.89893 1 6C1 5.10107 1.60279 4.44523 2.20703 4.0166C2.83731 3.56956 3.68478 3.20794 4.6416 2.9209C6.56798 2.34299 9.1693 2 12 2ZM12 4C9.30786 4 6.90873 4.32904 5.21582 4.83691C4.36338 5.09269 3.74596 5.37676 3.36426 5.64746C3.10168 5.8337 3.02634 5.95583 3.00586 6C3.02634 6.04417 3.10168 6.1663 3.36426 6.35254C3.74596 6.62324 4.36338 6.90731 5.21582 7.16309C6.90873 7.67096 9.30786 8 12 8C14.6921 8 17.0913 7.67096 18.7842 7.16309C19.6366 6.90731 20.254 6.62324 20.6357 6.35254C20.8983 6.1663 20.9737 6.04417 20.9941 6C20.9737 5.95583 20.8983 5.8337 20.6357 5.64746C20.254 5.37676 19.6366 5.09269 18.7842 4.83691C17.0913 4.32904 14.6921 4 12 4Z" fill="#141414"/>
</svg>
