<svg width="24" height="24" viewBox="0 0 24 24" fill="none" xmlns="http://www.w3.org/2000/svg">
<path d="M16.4676 9.68547L12.2284 14.1855C12.0464 14.3786 11.7944 14.4921 11.5292 14.4999C11.2642 14.5076 11.0072 14.4093 10.8143 14.2275L8.05358 11.623L9.42565 10.1679L11.4589 12.0859L15.0116 8.31437L16.4676 9.68547Z" fill="#141414"/>
<path fill-rule="evenodd" clip-rule="evenodd" d="M12.495 3.88566C14.8153 1.37144 18.6131 1.37151 20.9335 3.88566C23.937 7.14046 23.316 11.2218 21.3016 14.5536C19.294 17.8742 15.7714 20.7399 12.3309 21.9443C12.1171 22.0191 11.8837 22.0191 11.6698 21.9443C8.2293 20.74 4.70674 17.8742 2.69909 14.5536C0.684712 11.2217 0.0636642 7.14048 3.06726 3.88566C5.38765 1.37156 9.18547 1.37134 11.5057 3.88566L11.9999 4.4218L12.495 3.88566ZM19.4637 5.24211C17.9353 3.58604 15.4931 3.58597 13.9647 5.24211L12.7352 6.57512C12.3393 7.00406 11.6615 7.00395 11.2655 6.57512L10.036 5.24211C8.50767 3.58597 6.06539 3.58612 4.53698 5.24211C2.37851 7.58111 2.64172 10.5934 4.41003 13.5185C6.11985 16.3466 9.11254 18.8217 11.9999 19.9345C14.8873 18.8217 17.8798 16.3467 19.5897 13.5185C21.3582 10.5934 21.6223 7.58117 19.4637 5.24211Z" fill="#141414"/>
</svg>
