<svg width="24" height="24" viewBox="0 0 24 24" fill="none" xmlns="http://www.w3.org/2000/svg">
<path d="M13 23H11V19.667H13V23ZM9 21.333H7V18H9V21.333ZM17 21.333H15V18H17V21.333ZM13 18H11V14.667H13V18ZM9 16.333H7V13H9V16.333ZM17 16.333H15V13H17V16.333ZM12 1C14.7349 1 17.0787 2.78346 17.7842 5.26074C20.7004 5.63144 23 8.04048 23 11.0234C23 12.2881 22.7249 13.5087 22.0664 14.4395C21.3774 15.4133 20.3184 15.9915 18.9883 15.9756L19.0117 13.9756C19.6814 13.9837 20.1226 13.7237 20.4336 13.2842C20.7751 12.8014 21 12.0337 21 11.0234C21 8.95414 19.2465 7.21195 17.002 7.21094H16.9648C16.461 7.21268 16.0346 6.83947 15.9697 6.33984C15.7298 4.48707 14.0704 3 12 3C9.92958 3 8.27023 4.48707 8.03027 6.33984C7.9654 6.83947 7.53897 7.21268 7.03516 7.21094H6.99805C4.75351 7.21195 3 8.95414 3 11.0234C3 12.0332 3.22481 12.794 3.56543 13.2734C3.87645 13.7112 4.32139 13.9756 5 13.9756V15.9756C3.67861 15.9756 2.62355 15.4014 1.93457 14.4316C1.27538 13.5036 1 12.2886 1 11.0234C1 8.04048 3.29958 5.63144 6.21582 5.26074C6.92126 2.78346 9.26514 1 12 1Z" fill="#141414"/>
</svg>
