<svg width="24" height="24" viewBox="0 0 24 24" fill="none" xmlns="http://www.w3.org/2000/svg">
<path d="M22 22H2V2H22V22ZM4 20H20V4H4V20ZM8.5 15C9.32843 15 10 15.6716 10 16.5C10 17.3284 9.32843 18 8.5 18C7.67157 18 7 17.3284 7 16.5C7 15.6716 7.67157 15 8.5 15ZM15.5 15C16.3284 15 17 15.6716 17 16.5C17 17.3284 16.3284 18 15.5 18C14.6716 18 14 17.3284 14 16.5C14 15.6716 14.6716 15 15.5 15ZM8.5 10.5C9.32843 10.5 10 11.1716 10 12C10 12.8284 9.32843 13.5 8.5 13.5C7.67157 13.5 7 12.8284 7 12C7 11.1716 7.67157 10.5 8.5 10.5ZM15.5 10.5C16.3284 10.5 17 11.1716 17 12C17 12.8284 16.3284 13.5 15.5 13.5C14.6716 13.5 14 12.8284 14 12C14 11.1716 14.6716 10.5 15.5 10.5ZM8.5 6C9.32843 6 10 6.67157 10 7.5C10 8.32843 9.32843 9 8.5 9C7.67157 9 7 8.32843 7 7.5C7 6.67157 7.67157 6 8.5 6ZM15.5 6C16.3284 6 17 6.67157 17 7.5C17 8.32843 16.3284 9 15.5 9C14.6716 9 14 8.32843 14 7.5C14 6.67157 14.6716 6 15.5 6Z" fill="#141414"/>
</svg>
