<svg width="24" height="24" viewBox="0 0 24 24" fill="none" xmlns="http://www.w3.org/2000/svg">
<path d="M12 1C18.0751 1 23 5.92487 23 12C23 18.0751 18.0751 23 12 23C5.92487 23 1 18.0751 1 12C1 5.92487 5.92487 1 12 1ZM8.89648 20.4502C9.86396 20.8056 10.9093 21 12 21C15.6622 21 18.8106 18.8114 20.2158 15.6719L16.1328 12.8135L8.89648 20.4502ZM12 3C7.02944 3 3 7.02944 3 12C3 15.1356 4.60433 17.8956 7.03613 19.5068L14.6807 11.4385C15.3622 10.7191 16.4685 10.6065 17.2803 11.1748L20.8428 13.6689C20.9442 13.128 21 12.5704 21 12C21 7.02944 16.9706 3 12 3ZM9 6C10.6569 6 12 7.34315 12 9C12 10.6569 10.6569 12 9 12C7.34315 12 6 10.6569 6 9C6 7.34315 7.34315 6 9 6ZM9 8C8.44772 8 8 8.44772 8 9C8 9.55228 8.44772 10 9 10C9.55228 10 10 9.55228 10 9C10 8.44772 9.55228 8 9 8Z" fill="#141414"/>
</svg>
