<svg width="24" height="24" viewBox="0 0 24 24" fill="none" xmlns="http://www.w3.org/2000/svg">
<path d="M12 1C18.0751 1 23 5.92487 23 12C23 18.0751 18.0751 23 12 23C5.92487 23 1 18.0751 1 12C1 5.92487 5.92487 1 12 1ZM12 3C7.02944 3 3 7.02944 3 12C3 16.9706 7.02944 21 12 21C16.9706 21 21 16.9706 21 12C21 7.02944 16.9706 3 12 3ZM15.333 12.667C16.8057 12.667 17.9998 13.8604 18 15.333C18 16.8058 16.8058 18 15.333 18C13.8604 17.9998 12.667 16.8057 12.667 15.333C12.6672 13.8605 13.8605 12.6672 15.333 12.667ZM17.4141 8L8 17.4141L6.58594 16L16 6.58594L17.4141 8ZM15.333 14.667C14.9651 14.6672 14.6672 14.9651 14.667 15.333C14.667 15.7011 14.965 15.9998 15.333 16C15.7012 16 16 15.7012 16 15.333C15.9998 14.965 15.7011 14.667 15.333 14.667ZM8.66699 6C10.1396 6.00018 11.333 7.19434 11.333 8.66699C11.3328 10.1395 10.1395 11.3328 8.66699 11.333C7.19434 11.333 6.00018 10.1396 6 8.66699C6 7.19423 7.19423 6 8.66699 6ZM8.66699 8C8.2988 8 8 8.2988 8 8.66699C8.00018 9.03503 8.29891 9.33301 8.66699 9.33301C9.03492 9.33283 9.33283 9.03492 9.33301 8.66699C9.33301 8.29891 9.03503 8.00018 8.66699 8Z" fill="#141414"/>
</svg>
