<svg width="24" height="24" viewBox="0 0 24 24" fill="none" xmlns="http://www.w3.org/2000/svg">
<path d="M15.9028 2.39089C17.0744 1.21931 18.9744 1.21931 20.1459 2.39089L20.2856 2.53932C20.4686 2.7491 20.6164 2.97922 20.7309 3.21999C21.03 3.36225 21.3117 3.55667 21.56 3.80495C22.7313 4.97649 22.7313 6.87563 21.56 8.04714L21.4086 8.18874C20.7999 8.71962 20.0295 8.95988 19.2749 8.91823L17.9301 10.263L18.1606 13.886C18.5557 20.1087 12.4435 24.6985 6.57759 22.5842C4.15159 21.7095 2.24027 19.7984 1.36567 17.3723C-0.748591 11.5063 3.84209 5.39499 10.0649 5.7903L13.6879 6.01979L15.0327 4.67507C14.9876 3.85658 15.2738 3.02007 15.9028 2.39089ZM9.93794 7.78737C5.15188 7.4834 1.62229 12.183 3.24849 16.6946C3.92128 18.5602 5.39061 20.0298 7.2563 20.7024C11.7677 22.3284 16.4674 18.7988 16.1635 14.013L15.9184 10.1692C15.9052 9.96115 15.9364 9.75543 16.0053 9.56374L14.3852 7.94362C14.1937 8.01237 13.9885 8.04472 13.7807 8.03151L9.93794 7.78737ZM6.70747 15.9495C7.09802 15.5593 7.73114 15.5591 8.12153 15.9495C8.51193 16.3399 8.51167 16.973 8.12153 17.3635C7.73101 17.7541 7.098 17.7541 6.70747 17.3635C6.31696 16.973 6.31695 16.34 6.70747 15.9495ZM10.9497 15.9495C11.3401 15.5592 11.9732 15.5593 12.3637 15.9495C12.7542 16.34 12.7541 16.973 12.3637 17.3635C11.9732 17.7541 11.3402 17.7541 10.9497 17.3635C10.5594 16.973 10.5592 16.3399 10.9497 15.9495ZM6.70747 11.7073C7.09801 11.3169 7.73106 11.3168 8.12153 11.7073C8.51178 12.0978 8.51184 12.7309 8.12153 13.1214C7.73109 13.5118 7.09801 13.5117 6.70747 13.1214C6.31695 12.7308 6.31695 12.0978 6.70747 11.7073ZM18.7319 3.80495C18.3414 3.41442 17.7074 3.41442 17.3168 3.80495C17.0583 4.06371 16.9701 4.43132 17.06 4.76979L17.2084 5.32741L15.9028 6.63307L17.3168 8.04714L18.6235 6.74147L19.1801 6.88991C19.5188 6.97997 19.8871 6.89191 20.1459 6.63307C20.5118 6.26703 20.5344 5.6879 20.2143 5.29518L20.1459 5.21901C20.0182 5.09125 19.8641 5.00557 19.6977 4.9612L19.1381 4.81178L18.9887 4.25319C18.9444 4.08693 18.8595 3.9327 18.7319 3.80495Z" fill="#141414"/>
</svg>
