<svg width="24" height="24" viewBox="0 0 24 24" fill="none" xmlns="http://www.w3.org/2000/svg">
<path d="M7 2C7.55228 2 8 2.44772 8 3V4.63867L16 5.83887V5C16 4.44772 16.4477 4 17 4H21C21.5523 4 22 4.44772 22 5V9C22 9.55228 21.5523 10 21 10H20V14H21C21.5523 14 22 14.4477 22 15V19C22 19.5523 21.5523 20 21 20H17C16.4477 20 16 19.5523 16 19V18.2197L8 19.8193V21C8 21.5523 7.55228 22 7 22H3C2.44772 22 2 21.5523 2 21V17C2 16.4477 2.44772 16 3 16H4V8H3C2.44772 8 2 7.55228 2 7V3C2 2.44772 2.44772 2 3 2H7ZM4 20H6V18H4V20ZM18 18H20V16H18V18ZM8 7C8 7.55228 7.55228 8 7 8H6V16H7C7.55228 16 8 16.4477 8 17V17.7803L16 16.1807V15C16 14.4477 16.4477 14 17 14H18V10H17C16.4477 10 16 9.55228 16 9V7.86133L8 6.66113V7ZM18 8H20V6H18V8ZM4 4V6H6V4H4Z" fill="#141414"/>
</svg>
