<svg width="24" height="24" viewBox="0 0 24 24" fill="none" xmlns="http://www.w3.org/2000/svg">
<path d="M12 1C18.0751 1 23 5.92487 23 12C23 18.0751 18.0751 23 12 23C5.92487 23 1 18.0751 1 12C1 5.92487 5.92487 1 12 1ZM12 3C7.02944 3 3 7.02944 3 12C3 16.9706 7.02944 21 12 21C16.9706 21 21 16.9706 21 12C21 7.02944 16.9706 3 12 3ZM16.8428 14.249C16.2878 16.4053 14.3312 18 12 18C9.66885 18 7.71222 16.4053 7.15723 14.249L9.09473 13.751C9.42791 15.045 10.6036 16 12 16C13.3964 16 14.5721 15.045 14.9053 13.751L16.8428 14.249ZM10 11H6V9H10V11ZM15.5 8C16.3284 8 17 8.67157 17 9.5C17 10.3284 16.3284 11 15.5 11C14.6716 11 14 10.3284 14 9.5C14 8.67157 14.6716 8 15.5 8Z" fill="#141414"/>
</svg>
