<svg width="24" height="24" viewBox="0 0 24 24" fill="none" xmlns="http://www.w3.org/2000/svg">
<path d="M12 1C18.0751 1 23 5.92487 23 12C23 18.0751 18.0751 23 12 23C8.40102 23 5.2054 21.2705 3.2002 18.6016L4.7998 17.4004C6.44352 19.588 9.05666 21 12 21C16.9706 21 21 16.9706 21 12C21 7.02944 16.9706 3 12 3C9.05666 3 6.44352 4.41197 4.7998 6.59961L3.2002 5.39844C5.2054 2.72949 8.40102 1 12 1ZM16.707 11.293C17.0976 11.6835 17.0976 12.3165 16.707 12.707L12.207 17.207L10.793 15.793L13.5859 13H1V11H13.5859L10.793 8.20703L12.207 6.79297L16.707 11.293Z" fill="#141414"/>
</svg>
