<svg width="24" height="24" viewBox="0 0 24 24" fill="none" xmlns="http://www.w3.org/2000/svg">
<path d="M18 2C20.2091 2 22 3.79086 22 6V18C22 20.14 20.3194 21.8879 18.2061 21.9951L18 22H6C3.79086 22 2 20.2091 2 18V6L2.00488 5.79395C2.11211 3.68056 3.85996 2 6 2H18ZM4 18C4 19.1046 4.89543 20 6 20H7V18H4ZM9 18V20H11V18H9ZM13 18V20H15V18H13ZM17 18V20H18L18.2041 19.9893C19.2128 19.887 20 19.0357 20 18H17ZM4 16H11V8H4V16ZM13 16H20V8H13V16ZM6 4C4.96435 4 4.113 4.78722 4.01074 5.7959L4 6H7V4H6ZM9 6H11V4H9V6ZM13 6H15V4H13V6ZM17 6H20C20 4.89543 19.1046 4 18 4H17V6Z" fill="#141414"/>
</svg>
