<svg width="24" height="24" viewBox="0 0 24 24" fill="none" xmlns="http://www.w3.org/2000/svg">
<path d="M12 1C18.0751 1 23 5.92487 23 12C23 18.0751 18.0751 23 12 23C5.92487 23 1 18.0751 1 12C1 5.92487 5.92487 1 12 1ZM12 3C7.02944 3 3 7.02944 3 12C3 16.9706 7.02944 21 12 21C16.9706 21 21 16.9706 21 12C21 7.02944 16.9706 3 12 3ZM12.207 8.20703L9.41406 11H17V13H9.41406L12.207 15.793L10.793 17.207L6.29297 12.707C5.90244 12.3165 5.90244 11.6835 6.29297 11.293L10.793 6.79297L12.207 8.20703Z" fill="#141414"/>
</svg>
