<svg width="24" height="24" viewBox="0 0 24 24" fill="none" xmlns="http://www.w3.org/2000/svg">
<path d="M12 1C14.5629 1 16.9251 1.34449 18.6807 1.92969C19.5531 2.22053 20.3315 2.58931 20.9121 3.04688C21.4814 3.4956 22 4.14818 22 5V19C22 19.8494 21.4868 20.5023 20.918 20.9531C20.3391 21.4118 19.5626 21.7805 18.6914 22.0713C16.9387 22.6564 14.5766 23 12 23C9.42339 23 7.06132 22.6564 5.30859 22.0713C4.43745 21.7805 3.66087 21.4118 3.08203 20.9531C2.51316 20.5023 2 19.8494 2 19V5C2 4.14818 2.51859 3.4956 3.08789 3.04688C3.66849 2.58931 4.4469 2.22053 5.31934 1.92969C7.07494 1.34449 9.43715 1 12 1ZM20 16.9717C19.6021 17.1752 19.1604 17.3542 18.6914 17.5107C16.9387 18.0959 14.5767 18.4404 12 18.4404C9.42331 18.4404 7.06134 18.0959 5.30859 17.5107C4.83963 17.3542 4.39794 17.1752 4 16.9717V19C4 19 3.99977 19.0069 4.00293 19.0176C4.00647 19.0293 4.01516 19.0521 4.03516 19.085C4.0773 19.1541 4.16351 19.2584 4.32422 19.3857C4.6516 19.6451 5.18794 19.9223 5.94141 20.1738C7.43865 20.6737 9.57676 21 12 21C14.4232 21 16.5614 20.6737 18.0586 20.1738C18.8121 19.9223 19.3484 19.6451 19.6758 19.3857C19.8365 19.2584 19.9227 19.1541 19.9648 19.085C19.9848 19.0521 19.9935 19.0293 19.9971 19.0176C20.0002 19.0069 20 19 20 19V16.9717ZM20 12.252C19.6021 12.4555 19.1604 12.6345 18.6914 12.791C16.9387 13.3761 14.5767 13.7207 12 13.7207C9.42332 13.7207 7.06133 13.3761 5.30859 12.791C4.83963 12.6345 4.39794 12.4555 4 12.252V14.4404C4.00008 14.4421 4.00013 14.4487 4.00293 14.458C4.00648 14.4698 4.01502 14.4924 4.03516 14.5254C4.0773 14.5945 4.16354 14.6979 4.32422 14.8252C4.6516 15.0846 5.18769 15.3626 5.94141 15.6143C7.43865 16.1141 9.57676 16.4404 12 16.4404C14.4232 16.4404 16.5614 16.1141 18.0586 15.6143C18.8123 15.3626 19.3484 15.0846 19.6758 14.8252C19.8365 14.6979 19.9227 14.5945 19.9648 14.5254C19.985 14.4924 19.9935 14.4698 19.9971 14.458C19.9999 14.4487 19.9999 14.4421 20 14.4404V12.252ZM20 7.52637C19.5989 7.73149 19.1537 7.91262 18.6807 8.07031C16.9251 8.65551 14.5629 9 12 9C9.43715 9 7.07494 8.65551 5.31934 8.07031C4.84631 7.91262 4.40113 7.73149 4 7.52637V9.7207C4.00008 9.72247 4.00014 9.72903 4.00293 9.73828C4.00648 9.75003 4.01502 9.77263 4.03516 9.80566C4.07731 9.87482 4.16355 9.97815 4.32422 10.1055C4.6516 10.3649 5.18768 10.6429 5.94141 10.8945C7.43865 11.3944 9.57676 11.7207 12 11.7207C14.4232 11.7207 16.5614 11.3944 18.0586 10.8945C18.8123 10.6429 19.3484 10.3649 19.6758 10.1055C19.8364 9.97815 19.9227 9.87482 19.9648 9.80566C19.985 9.77263 19.9935 9.75003 19.9971 9.73828C19.9999 9.72903 19.9999 9.72247 20 9.7207V7.52637ZM12 3C9.59229 3 7.45391 3.32656 5.95215 3.82715C5.19606 4.07918 4.65634 4.35796 4.32617 4.61816C4.16419 4.74586 4.07758 4.84984 4.03516 4.91895C4.01518 4.95153 4.00637 4.97318 4.00293 4.98438C3.99986 4.99446 4 5 4 5C4 5 4.00005 5.00618 4.00293 5.01562C4.00637 5.02682 4.01518 5.04847 4.03516 5.08105C4.07758 5.15016 4.16419 5.25414 4.32617 5.38184C4.65634 5.64204 5.19606 5.92082 5.95215 6.17285C7.45391 6.67344 9.59229 7 12 7C14.4077 7 16.5461 6.67344 18.0479 6.17285C18.8039 5.92082 19.3437 5.64204 19.6738 5.38184C19.8358 5.25414 19.9224 5.15016 19.9648 5.08105C19.9848 5.04847 19.9936 5.02682 19.9971 5.01562C20 5.00605 20 5 20 5C20 4.99891 19.9998 4.99348 19.9971 4.98438C19.9936 4.97318 19.9848 4.95153 19.9648 4.91895C19.9224 4.84984 19.8358 4.74586 19.6738 4.61816C19.3437 4.35796 18.8039 4.07918 18.0479 3.82715C16.5461 3.32656 14.4077 3 12 3Z" fill="#141414"/>
</svg>
