<svg width="24" height="24" viewBox="0 0 24 24" fill="none" xmlns="http://www.w3.org/2000/svg">
<path d="M12 4H6C4.89543 4 4 4.89543 4 6V14.2363C6.19094 14.3608 9.78394 13.6338 12.9629 10H9V8H14.7998C15.4625 8 16 8.53745 16 9.2002V15H14V11.832C10.5582 15.4632 6.662 16.3581 4 16.2383V18C4 19.1046 4.89543 20 6 20H18C19.1046 20 20 19.1046 20 18V12H22V18C22 20.2091 20.2091 22 18 22H6C3.79086 22 2 20.2091 2 18V6C2 3.79086 3.79086 2 6 2H12V4ZM23 10H19.5V8H23V10ZM21.9141 3.5L19.207 6.20703L17.793 4.79297L20.5 2.08594L21.9141 3.5ZM16 4.5H14V1H16V4.5Z" fill="#141414"/>
</svg>
