<svg width="24" height="24" viewBox="0 0 24 24" fill="none" xmlns="http://www.w3.org/2000/svg">
<path d="M15.0781 2C16.2777 2 17.4141 2.53846 18.1738 3.4668L21.0957 7.03809C21.6804 7.75273 22 8.64793 22 9.57129V18C22 20.2091 20.2091 22 18 22H6C3.79086 22 2 20.2091 2 18V6C2 3.79086 3.79086 2 6 2H15.0781ZM15 7C15 8.10457 14.1046 9 13 9H8C6.89543 9 6 8.10457 6 7V4C4.89543 4 4 4.89543 4 6V18C4 19.1046 4.89543 20 6 20V14C6 12.8954 6.89543 12 8 12H16C17.1046 12 18 12.8954 18 14V20C19.1046 20 20 19.1046 20 18V9.57129C20 9.10966 19.8401 8.66199 19.5479 8.30469L16.626 4.7334C16.2461 4.26926 15.6779 4 15.0781 4H15V7ZM8 20H16V14H8V20ZM8 7H13V4H8V7Z" fill="#141414"/>
</svg>
