<svg width="24" height="24" viewBox="0 0 24 24" fill="none" xmlns="http://www.w3.org/2000/svg">
<path d="M4.22152 4.22152C8.51725 -0.0742137 15.4824 -0.0741169 19.7782 4.22152C24.074 8.5173 24.074 15.4824 19.7782 19.7782C15.4824 24.074 8.5173 24.074 4.22152 19.7782C-0.0741169 15.4824 -0.0742137 8.51725 4.22152 4.22152ZM18.3641 5.63559C14.8494 2.121 9.15027 2.1209 5.63559 5.63559C2.1209 9.15027 2.121 14.8494 5.63559 18.3641C9.15032 21.8789 14.8494 21.8789 18.3641 18.3641C21.8789 14.8494 21.8789 9.15032 18.3641 5.63559ZM16.243 9.17173L10.8788 14.536H14.828V16.536H8.4647C7.91256 16.536 7.46494 16.0881 7.46469 15.536V9.17173H9.4647V13.121L14.828 7.75766L16.243 9.17173Z" fill="#141414"/>
</svg>
