<svg width="24" height="24" viewBox="0 0 24 24" fill="none" xmlns="http://www.w3.org/2000/svg">
<path d="M12 1C12.4695 1 12.8757 1.32665 12.9766 1.78516V1.78613C12.9768 1.78739 12.9778 1.7897 12.9785 1.79297C12.98 1.79966 12.982 1.81056 12.9854 1.8252C12.9922 1.85471 13.0031 1.9002 13.0176 1.95898C13.0466 2.07663 13.0912 2.24828 13.1504 2.45898C13.2693 2.88233 13.4468 3.455 13.6816 4.05762C13.918 4.6641 14.2035 5.27694 14.5312 5.79199C14.8671 6.31975 15.1996 6.66933 15.5 6.84277C16.4708 7.40327 18.0836 8.28491 19.4355 9.55957C20.8032 10.8491 22 12.6285 22 15C22 17.5994 20.6383 19.6297 18.7334 20.9736C16.8455 22.3055 14.3876 23 12 23C9.6124 23 7.15449 22.3055 5.2666 20.9736C3.36168 19.6297 2 17.5994 2 15C2 12.6285 3.1968 10.8491 4.56445 9.55957C5.91645 8.28491 7.52918 7.40327 8.5 6.84277C8.80041 6.66933 9.13291 6.31975 9.46875 5.79199C9.79648 5.27694 10.082 4.6641 10.3184 4.05762C10.5532 3.455 10.7307 2.88233 10.8496 2.45898C10.9088 2.24828 10.9534 2.07663 10.9824 1.95898C10.9969 1.9002 11.0078 1.85471 11.0146 1.8252C11.018 1.81056 11.02 1.79966 11.0215 1.79297C11.0222 1.7897 11.0232 1.78739 11.0234 1.78613C11.1242 1.32743 11.5304 1 12 1ZM12 5.22754C11.7671 5.77541 11.4877 6.34535 11.1562 6.86621C10.7421 7.517 10.1996 8.17031 9.5 8.57422C8.47087 9.16839 7.08341 9.93238 5.93555 11.0146C4.8033 12.0823 4 13.3716 4 15C4 16.8188 4.92952 18.2884 6.41992 19.3398C6.92918 19.6991 7.50016 20.0033 8.11035 20.251C7.4161 18.9615 7 17.277 7 15.2939C7.00001 12.7954 7.94418 11.3538 8.85352 10.334L9.59961 11L10.3467 11.666C9.66784 12.4273 9.00001 13.414 9 15.2939C9 17.2575 9.47352 18.7325 10.0996 19.6846C10.7344 20.6499 11.4583 21 12 21C12.5417 21 13.2656 20.6499 13.9004 19.6846C14.5265 18.7325 15 17.2575 15 15.2939C15 13.414 14.3322 12.4273 13.6533 11.666L14.4004 11L15.1465 10.334C16.0558 11.3538 17 12.7954 17 15.2939C17 17.2772 16.5831 18.9615 15.8887 20.251C16.4992 20.0032 17.0706 19.6992 17.5801 19.3398C19.0705 18.2884 20 16.8188 20 15C20 13.3716 19.1967 12.0823 18.0645 11.0146C16.9166 9.93238 15.5291 9.16839 14.5 8.57422C13.8004 8.17031 13.2579 7.517 12.8438 6.86621C12.5123 6.34535 12.2329 5.77541 12 5.22754Z" fill="#141414"/>
</svg>
