<svg width="24" height="24" viewBox="0 0 24 24" fill="none" xmlns="http://www.w3.org/2000/svg">
<path d="M12.7578 1C13.8185 1.00012 14.8359 1.42184 15.5859 2.17188L19.8281 6.41406C20.5782 7.1641 20.9999 8.18149 21 9.24219V11H19V9.24219C19 9.16074 18.9932 9.08003 18.9834 9H17C14.7909 9 13 7.20914 13 5V3.01562C12.92 3.00584 12.8392 3.00002 12.7578 3H7C5.89543 3 5 3.89543 5 5V19C5 20.1046 5.89543 21 7 21H11V23H7C4.79086 23 3 21.2091 3 19V5C3 2.79086 4.79086 1 7 1H12.7578ZM17.5 13.8379C18.7713 12.6663 20.7159 12.7241 21.9199 14.0127C23.5107 15.7154 23.1298 17.8315 22.1533 19.4268C21.1842 21.0099 19.4978 22.3676 17.8271 22.9453C17.6155 23.0185 17.3845 23.0185 17.1729 22.9453C15.5021 22.3676 13.8158 21.0099 12.8467 19.4268C11.8702 17.8314 11.4893 15.7154 13.0801 14.0127C14.2841 12.7241 16.2287 12.6662 17.5 13.8379ZM20.459 15.3779C19.9883 14.8742 19.2549 14.8742 18.7842 15.3779L18.2305 15.9707C17.8353 16.3932 17.1648 16.3932 16.7695 15.9707L16.2158 15.3779C15.7451 14.8742 15.0117 14.8742 14.541 15.3779C13.8092 16.1613 13.8271 17.1974 14.5527 18.3828C15.2207 19.474 16.376 20.4425 17.5 20.9258C18.624 20.4425 19.7793 19.4739 20.4473 18.3828C21.1729 17.1974 21.1907 16.1613 20.459 15.3779ZM15 5C15 6.10457 15.8954 7 17 7H17.5859L15 4.41406V5Z" fill="#141414"/>
</svg>
