<svg width="24" height="24" viewBox="0 0 24 24" fill="none" xmlns="http://www.w3.org/2000/svg">
<path d="M17.6914 15C19.7303 15 21.3836 16.6525 21.3838 18.6914C21.3838 19.3476 21.2123 19.964 20.9121 20.498L23 22.5859L21.5859 24L19.498 21.9121C18.964 22.2123 18.3476 22.3838 17.6914 22.3838C15.6525 22.3836 14 20.7303 14 18.6914C14.0002 16.6526 15.6526 15.0002 17.6914 15ZM12.7578 1C13.8185 1.00012 14.8359 1.42184 15.5859 2.17188L19.8281 6.41406C20.5782 7.1641 20.9999 8.18149 21 9.24219V12H19V9.24219C19 9.16074 18.9932 9.08003 18.9834 9H17C14.7909 9 13 7.20914 13 5V3.01562C12.92 3.00584 12.8392 3.00002 12.7578 3H7C5.89543 3 5 3.89543 5 5V19C5 20.1046 5.89543 21 7 21H12V23H7C4.79086 23 3 21.2091 3 19V5C3 2.79086 4.79086 1 7 1H12.7578ZM17.6914 17C16.7572 17.0002 16.0002 17.7572 16 18.6914C16 19.6257 16.7571 20.3836 17.6914 20.3838C18.6259 20.3838 19.3838 19.6259 19.3838 18.6914C19.3836 17.7571 18.6257 17 17.6914 17ZM15 5C15 6.10457 15.8954 7 17 7H17.5859L15 4.41406V5Z" fill="#141414"/>
</svg>
