<svg width="24" height="24" viewBox="0 0 24 24" fill="none" xmlns="http://www.w3.org/2000/svg">
<path d="M9.4022 2.99994C10.5569 1.00018 13.4428 1.00018 14.5975 2.99994L22.8251 17.2499C23.9797 19.2498 22.5367 21.7497 20.2275 21.7499H3.77228C1.46321 21.7496 0.0201933 19.2498 1.1746 17.2499L9.4022 2.99994ZM12.8661 3.99994C12.4812 3.33327 11.5186 3.33327 11.1337 3.99994L2.90606 18.2499C2.52168 18.9164 3.0029 19.7496 3.77228 19.7499H20.2275C20.997 19.7497 21.4783 18.9165 21.0937 18.2499L12.8661 3.99994ZM11.9999 14.4999C12.8283 14.4999 13.4999 15.1715 13.4999 15.9999C13.4998 16.8283 12.8282 17.4999 11.9999 17.4999C11.1716 17.4999 10.5 16.8282 10.4999 15.9999C10.4999 15.1716 11.1715 14.5 11.9999 14.4999ZM12.9999 12.9999H10.9999V7.49994H12.9999V12.9999Z" fill="#141414"/>
</svg>
