<svg width="24" height="24" viewBox="0 0 24 24" fill="none" xmlns="http://www.w3.org/2000/svg">
<path d="M19.0947 2.0012C20.8009 1.88551 21.9999 3.3164 22 4.84006V16.9045C22 18.1041 20.9856 18.9476 19.9102 18.9524C16.5365 18.9673 13.9027 20.6054 12.8486 21.5715C12.5987 21.8004 12.2917 21.8839 12 21.8547C11.7083 21.8839 11.4013 21.8004 11.1514 21.5715C10.0973 20.6054 7.46348 18.9673 4.08984 18.9524C3.01438 18.9476 2 18.1041 2 16.9045V4.84006C2.00007 3.3164 3.1991 1.88551 4.90527 2.0012C6.98217 2.1422 9.90838 2.75249 12 4.5842C14.0916 2.75249 17.0178 2.1422 19.0947 2.0012ZM4.77051 3.99729C4.40133 3.97223 4.00007 4.2836 4 4.84006V16.9055C4.00082 16.9071 4.00402 16.9129 4.01172 16.9201C4.03092 16.9381 4.06257 16.9522 4.09863 16.9524C6.97193 16.9651 9.38099 17.9645 11 18.9768V6.38889C9.41551 4.77042 6.83335 4.13742 4.77051 3.99729ZM19.2295 3.99729C17.1666 4.13742 14.5845 4.77042 13 6.38889V18.9768C14.619 17.9645 17.0281 16.9651 19.9014 16.9524C19.9374 16.9522 19.9691 16.9381 19.9883 16.9201C19.996 16.9129 19.9992 16.9071 20 16.9055V4.84006C19.9999 4.2836 19.5987 3.97223 19.2295 3.99729Z" fill="#141414"/>
</svg>
