<svg width="24" height="24" viewBox="0 0 24 24" fill="none" xmlns="http://www.w3.org/2000/svg">
<path d="M6 12C7.86384 12 9.42998 13.2748 9.87402 15H21V17H9.87402C9.42998 18.7252 7.86384 20 6 20C3.79086 20 2 18.2091 2 16C2 13.7909 3.79086 12 6 12ZM6 14C4.89543 14 4 14.8954 4 16C4 17.1046 4.89543 18 6 18C7.10457 18 8 17.1046 8 16C8 14.8954 7.10457 14 6 14ZM18 4C20.2091 4 22 5.79086 22 8C22 10.2091 20.2091 12 18 12C16.1362 12 14.57 10.7252 14.126 9H3V7H14.126C14.57 5.27477 16.1362 4 18 4ZM18 6C16.8954 6 16 6.89543 16 8C16 9.10457 16.8954 10 18 10C19.1046 10 20 9.10457 20 8C20 6.89543 19.1046 6 18 6Z" fill="#141414"/>
</svg>
