<svg width="24" height="24" viewBox="0 0 24 24" fill="none" xmlns="http://www.w3.org/2000/svg">
<path d="M3.5 17.5C4.32843 17.5 5 18.1716 5 19C5 19.8284 4.32843 20.5 3.5 20.5C2.67157 20.5 2 19.8284 2 19C2 18.1716 2.67157 17.5 3.5 17.5ZM22 20H7V18H22V20ZM3.5 10.5C4.32843 10.5 5 11.1716 5 12C5 12.8284 4.32843 13.5 3.5 13.5C2.67157 13.5 2 12.8284 2 12C2 11.1716 2.67157 10.5 3.5 10.5ZM22 13H7V11H22V13ZM3.5 3.5C4.32843 3.5 5 4.17157 5 5C5 5.82843 4.32843 6.5 3.5 6.5C2.67157 6.5 2 5.82843 2 5C2 4.17157 2.67157 3.5 3.5 3.5ZM22 6H7V4H22V6Z" fill="#141414"/>
</svg>
