<svg width="24" height="24" viewBox="0 0 24 24" fill="none" xmlns="http://www.w3.org/2000/svg">
<path d="M12 17C13.3059 17 14.4141 17.8353 14.8262 19H22V21H14.8262C14.4141 22.1647 13.3059 23 12 23C10.6941 23 9.58594 22.1647 9.17383 21H2V19H9.17383C9.58594 17.8353 10.6941 17 12 17ZM12 19C11.4477 19 11 19.4477 11 20C11 20.5523 11.4477 21 12 21C12.5523 21 13 20.5523 13 20C13 19.4477 12.5523 19 12 19ZM12 1C16.4183 1 20 4.58172 20 9C20 13.4183 16.4183 17 12 17C7.58172 17 4 13.4183 4 9C4 4.58172 7.58172 1 12 1ZM10.0361 10C10.1457 11.5345 10.4994 12.8415 10.96 13.7627C11.2385 14.3198 11.5187 14.6623 11.7344 14.8447C11.8373 14.9318 11.9116 14.9701 11.9512 14.9863C11.9706 14.9943 11.9834 14.9978 11.9893 14.999C11.9948 15.0001 11.9979 15 12 15C12.0021 15 12.0052 15.0001 12.0107 14.999C12.0166 14.9978 12.0294 14.9943 12.0488 14.9863C12.0884 14.9701 12.1627 14.9318 12.2656 14.8447C12.4813 14.6623 12.7615 14.3198 13.04 13.7627C13.5006 12.8415 13.8543 11.5345 13.9639 10H10.0361ZM6.08496 10C6.38245 11.7726 7.45577 13.2811 8.94531 14.1641C8.45724 13.0103 8.13052 11.5764 8.03223 10H6.08496ZM15.9678 10C15.8695 11.5766 15.5419 13.0102 15.0537 14.1641C16.5436 13.2811 17.6175 11.7729 17.915 10H15.9678ZM8.94531 3.83496C7.45555 4.71793 6.38248 6.22722 6.08496 8H8.03223C8.13055 6.42322 8.45705 4.98888 8.94531 3.83496ZM11.9893 3.00098C11.9834 3.00218 11.9706 3.0057 11.9512 3.01367C11.9116 3.02989 11.8373 3.06817 11.7344 3.15527C11.5187 3.33769 11.2385 3.68016 10.96 4.2373C10.4994 5.15846 10.1457 6.46548 10.0361 8H13.9639C13.8543 6.46548 13.5006 5.15846 13.04 4.2373C12.7615 3.68016 12.4813 3.33769 12.2656 3.15527C12.1627 3.06817 12.0884 3.02989 12.0488 3.01367C12.0294 3.0057 12.0166 3.00218 12.0107 3.00098C12.0052 2.99986 12.0021 3 12 3C11.9979 3 11.9948 2.99986 11.9893 3.00098ZM15.0537 3.83496C15.5421 4.98894 15.8694 6.42306 15.9678 8H17.915C17.6175 6.22694 16.5439 4.71787 15.0537 3.83496Z" fill="#141414"/>
</svg>
