<svg width="24" height="24" viewBox="0 0 24 24" fill="none" xmlns="http://www.w3.org/2000/svg">
<path d="M7 3C9.14293 3 10.6266 3.40658 11.9619 3.78809C13.2801 4.16471 14.4067 4.5 16 4.5C17.6599 4.5 19.1775 4.04502 20.2783 3.62598C21.5564 3.13969 22.9997 4.02959 23 5.47656V18.5859C23 19.0824 22.7958 19.764 22.125 20.1172L21.957 20.2002C21.0711 20.6151 19.4825 21 17 21C14.8571 21 13.3734 20.5934 12.0381 20.2119C10.7199 19.8353 9.59334 19.5 8 19.5C6.3401 19.5 4.82247 19.955 3.72168 20.374C2.44365 20.8603 1.00031 19.9704 1 18.5234V5.41406C1.00004 4.91757 1.20417 4.23596 1.875 3.88281L2.04297 3.7998C2.92888 3.38485 4.51746 3 7 3ZM7 5C4.81853 5 3.57269 5.32327 3 5.5625V18.5078C3.00256 18.5072 3.00637 18.5065 3.01074 18.5049C4.21596 18.0461 5.99337 17.5 8 17.5C9.90647 17.5 11.2802 17.9147 12.5869 18.2881C13.8765 18.6565 15.1431 19 17 19C19.1815 19 20.4273 18.6767 21 18.4375V5.49219C20.9974 5.49276 20.9936 5.49345 20.9893 5.49512C19.784 5.9539 18.0066 6.5 16 6.5C14.0935 6.5 12.7198 6.08527 11.4131 5.71191C10.1235 5.34345 8.85686 5 7 5ZM12 8.55176C13.9328 8.55176 15.4998 10.1231 15.5 12.0615C15.5 14.0002 13.933 15.5723 12 15.5723C10.067 15.5723 8.5 14.0002 8.5 12.0615C8.50024 10.1231 10.0672 8.55176 12 8.55176ZM19 15.5693H17V10.0527H19V15.5693ZM7 14.0703H5V9.05566H7V14.0703ZM12 10.5576C11.1717 10.5576 10.5002 11.2309 10.5 12.0615C10.5 12.8924 11.1716 13.5664 12 13.5664C12.8284 13.5664 13.5 12.8924 13.5 12.0615C13.4998 11.2309 12.8283 10.5576 12 10.5576Z" fill="#141414"/>
</svg>
