<svg width="24" height="24" viewBox="0 0 24 24" fill="none" xmlns="http://www.w3.org/2000/svg">
<path d="M21.8994 20.4848L20.4854 21.8998L17.2578 18.6723L16.9531 19.7934C16.5487 21.2744 14.6951 21.7658 13.6094 20.6801L9.1709 16.2426L4.92871 20.4848L3.51465 19.0707L7.75684 14.8285L3.31934 10.39C2.23436 9.30426 2.72528 7.44967 4.20605 7.04532L5.3252 6.73965L2.10059 3.51504L3.51465 2.10001L21.8994 20.4848ZM4.7334 8.97598L15.0234 19.266L15.6289 17.0434L6.95508 8.36954L4.7334 8.97598ZM11.9521 2.85294C13.4124 0.906265 16.2592 0.704218 17.9805 2.42422L21.5742 6.01797C23.2953 7.73909 23.0934 10.5857 21.1465 12.0463L19.0801 13.5961C18.841 13.7755 18.6481 14.0063 18.5107 14.268L17.0654 12.8227C17.2948 12.5118 17.5667 12.2314 17.8799 11.9965L19.9453 10.4467C20.919 9.71643 21.0207 8.29266 20.1602 7.43204L16.5664 3.83926C15.7058 2.97931 14.2828 3.08074 13.5527 4.05411L12.0029 6.11954C11.7679 6.43282 11.4877 6.70554 11.1768 6.93497L9.73145 5.48965C9.99308 5.35227 10.2239 5.15853 10.4033 4.91934L11.9521 2.85294Z" fill="#141414"/>
</svg>
