<svg width="24" height="24" viewBox="0 0 24 24" fill="none" xmlns="http://www.w3.org/2000/svg">
<path d="M15.5 16C17.433 16 19 17.567 19 19.5C19 21.433 17.433 23 15.5 23C14.2258 23 13.1119 22.3183 12.501 21.3047L14.2139 20.2725C14.4779 20.7106 14.9556 21 15.5 21C16.3284 21 17 20.3284 17 19.5C17 18.6716 16.3284 18 15.5 18H1V16H15.5ZM19.3076 6.11523C21.3468 6.11523 23 7.76845 23 9.80762C23 11.8468 21.3468 13.5 19.3076 13.5H1V11.5H19.3076C20.2423 11.5 21 10.7423 21 9.80762C21 8.87302 20.2422 8.11523 19.3076 8.11523C18.6932 8.11526 18.1541 8.44248 17.8564 8.93652L16.1436 7.9043C16.7881 6.83467 17.9634 6.11526 19.3076 6.11523ZM11.7861 1C13.7189 1.00023 15.2861 2.56714 15.2861 4.5C15.2861 6.43286 13.7189 7.99977 11.7861 8H1V6H11.7861C12.6144 5.99977 13.2861 5.32829 13.2861 4.5C13.2861 3.67171 12.6144 3.00023 11.7861 3C11.2417 3 10.7631 3.28932 10.499 3.72754L8.78613 2.69531C9.39701 1.68152 10.5118 1 11.7861 1Z" fill="#141414"/>
</svg>
