<svg width="24" height="24" viewBox="0 0 24 24" fill="none" xmlns="http://www.w3.org/2000/svg">
<path d="M13 4H14.8379L15.1582 4.0127C16.7467 4.13976 18.1224 5.2041 18.6328 6.73535L18.9482 7.68359L17.0518 8.31641L16.7354 7.36719C16.4801 6.60173 15.7922 6.0704 14.998 6.00684L14.8379 6H13V11H14.5C16.9853 11 19 13.0147 19 15.5C19 17.9853 16.9853 20 14.5 20H13V22H11V20H9.16211C7.44046 19.9999 5.91163 18.898 5.36719 17.2646L5.05176 16.3164L6.94824 15.6836L7.26465 16.6328C7.53693 17.4493 8.3014 17.9999 9.16211 18H11V13H9.5C7.01472 13 5 10.9853 5 8.5C5 6.01472 7.01472 4 9.5 4H11V2H13V4ZM13 18H14.5C15.8807 18 17 16.8807 17 15.5C17 14.1193 15.8807 13 14.5 13H13V18ZM9.5 6C8.11929 6 7 7.11929 7 8.5C7 9.88071 8.11929 11 9.5 11H11V6H9.5Z" fill="#141414"/>
</svg>
