<svg width="24" height="24" viewBox="0 0 24 24" fill="none" xmlns="http://www.w3.org/2000/svg">
<path d="M12 1C18.0751 1 23 5.92487 23 12C23 18.0751 18.0751 23 12 23C5.92487 23 1 18.0751 1 12C1 5.92487 5.92487 1 12 1ZM12 3C7.02944 3 3 7.02944 3 12C3 16.9706 7.02944 21 12 21C16.9706 21 21 16.9706 21 12C21 7.02944 16.9706 3 12 3ZM17.707 11.293C18.0976 11.6835 18.0976 12.3165 17.707 12.707L13.207 17.207L11.793 15.793L14.5859 13H7V11H14.5859L11.793 8.20703L13.207 6.79297L17.707 11.293Z" fill="#141414"/>
</svg>
