<svg width="24" height="24" viewBox="0 0 24 24" fill="none" xmlns="http://www.w3.org/2000/svg">
<path d="M11.1074 1C16.6897 1 21.2156 5.52521 21.2158 11.1074C21.2158 13.5336 20.3604 15.7608 18.9355 17.5029L23 21.5664L21.5664 23L17.5029 18.9355C15.7608 20.3604 13.5336 21.2158 11.1074 21.2158C5.52521 21.2156 1 16.6897 1 11.1074C1.00022 5.52534 5.52534 1.00022 11.1074 1ZM11.1074 3.02734C6.64482 3.02756 3.02756 6.64482 3.02734 11.1074C3.02734 15.5702 6.64468 19.1883 11.1074 19.1885C15.5703 19.1885 19.1885 15.5703 19.1885 11.1074C19.1883 6.64468 15.5702 3.02734 11.1074 3.02734Z" fill="#141414"/>
</svg>
