<svg width="24" height="24" viewBox="0 0 24 24" fill="none" xmlns="http://www.w3.org/2000/svg">
<path d="M18 2C20.2091 2 22 3.79086 22 6V13.7578C21.9999 14.8185 21.5782 15.8359 20.8281 16.5859L16.5859 20.8281C15.8359 21.5782 14.8185 21.9999 13.7578 22H6C3.79086 22 2 20.2091 2 18V6C2 3.79086 3.79086 2 6 2H18ZM6 4C4.89543 4 4 4.89543 4 6V18C4 19.1046 4.89543 20 6 20H13V18H12C9.23858 18 7 15.7614 7 13H9C9 14.6569 10.3431 16 12 16H13.126C13.57 14.2748 15.1362 13 17 13H20V6C20 4.89543 19.1046 4 18 4H6ZM17 15C15.8954 15 15 15.8954 15 17V19.5654C15.0596 19.5181 15.1176 19.4684 15.1719 19.4141L19.4141 15.1719C19.4684 15.1176 19.5181 15.0596 19.5654 15H17ZM8.5 8C9.32843 8 10 8.67157 10 9.5C10 10.3284 9.32843 11 8.5 11C7.67157 11 7 10.3284 7 9.5C7 8.67157 7.67157 8 8.5 8ZM15.5 8C16.3284 8 17 8.67157 17 9.5C17 10.3284 16.3284 11 15.5 11C14.6716 11 14 10.3284 14 9.5C14 8.67157 14.6716 8 15.5 8Z" fill="#141414"/>
</svg>
