<svg width="24" height="24" viewBox="0 0 24 24" fill="none" xmlns="http://www.w3.org/2000/svg">
<path d="M18 2C20.2091 2 22 3.79086 22 6V18C22 20.2091 20.2091 22 18 22H6C3.79086 22 2 20.2091 2 18V6C2 3.79086 3.79086 2 6 2H18ZM6 4C4.89543 4 4 4.89543 4 6V6.91602L8.73535 11.6514L10.9443 9.44238C11.3348 9.05205 11.9679 9.05201 12.3584 9.44238L15.9971 13.0811V11.3643H17.9971V15.4951C17.9971 16.0474 17.5494 16.4951 16.9971 16.4951H12.623V14.4951H14.583L11.6514 11.5635L9.44238 13.7725C9.25485 13.96 9.00057 14.0654 8.73535 14.0654C8.47017 14.0654 8.21583 13.96 8.02832 13.7725L4 9.74414V18C4 19.1046 4.89543 20 6 20H18C19.1046 20 20 19.1046 20 18V6C20 4.89543 19.1046 4 18 4H6Z" fill="#141414"/>
</svg>
