<svg width="24" height="24" viewBox="0 0 24 24" fill="none" xmlns="http://www.w3.org/2000/svg">
<path d="M14 16H8C5.94968 16 4.18757 17.2341 3.41602 19C3.14842 19.6125 3 20.2889 3 21H14V23H3C1.89543 23 1 22.1046 1 21C1 17.134 4.13401 14 8 14H14V16ZM18.293 14.793C18.6835 14.4025 19.3165 14.4025 19.707 14.793L23 18.0859L21.5859 19.5L20 17.9141V22H18V17.9141L16.4141 19.5L15 18.0859L18.293 14.793ZM11 2C13.7614 2 16 4.23858 16 7C16 9.76142 13.7614 12 11 12C8.23858 12 6 9.76142 6 7C6 4.23858 8.23858 2 11 2ZM11 4C9.34315 4 8 5.34315 8 7C8 8.65685 9.34315 10 11 10C12.6569 10 14 8.65685 14 7C14 5.34315 12.6569 4 11 4Z" fill="#141414"/>
</svg>
