<svg width="24" height="24" viewBox="0 0 24 24" fill="none" xmlns="http://www.w3.org/2000/svg">
<path d="M9.6133 2.98227C10.8139 1.40653 13.186 1.40672 14.3868 2.98227L19.5723 9.78798C20.5749 11.1045 19.6355 12.9999 17.9805 12.9999H16.5V19C16.5 20.6568 15.1569 22 13.5 22H10.5C8.84329 21.9998 7.50001 20.6567 7.50001 19V12.9999H6.01953C4.36478 12.9997 3.42516 11.1044 4.42773 9.78798L9.6133 2.98227ZM12.7959 4.19419C12.3956 3.6692 11.6043 3.66901 11.2041 4.19419L6.01953 10.9999H8.50001C9.05222 10.9999 9.49989 11.4477 9.50002 11.9999V19C9.50002 19.5522 9.94787 19.9998 10.5 20H13.5C14.0523 20 14.5 19.5523 14.5 19V11.9999C14.5002 11.4478 14.948 11.0001 15.5 10.9999H17.9805L12.7959 4.19419Z" fill="#141414"/>
</svg>
