<svg width="24" height="24" viewBox="0 0 24 24" fill="none" xmlns="http://www.w3.org/2000/svg">
<path d="M12 2C13.1991 2 14.2307 2.70495 14.7109 3.72168L21.8496 3.00293L22.0498 4.99316L20 5.19922V7.66699L22.7998 11.4004C22.9296 11.5735 23 11.7837 23 12V15C23 16.1046 22.1046 17 21 17H17C15.8954 17 15 16.1046 15 15V12C15 11.7837 15.0704 11.5735 15.2002 11.4004L18 7.66699V5.40039L14.9111 5.71191C14.6708 6.69805 13.9455 7.49053 13 7.8252V20H18V22H6V20H11V7.8252C10.2433 7.55737 9.6276 6.99691 9.28809 6.27734L6 6.6084V8.66699L8.7998 12.4004C8.92955 12.5735 9 12.7837 9 13V16C9 17.1046 8.10457 18 7 18H3C1.89543 18 1 17.1046 1 16V13C1 12.7837 1.07045 12.5735 1.2002 12.4004L4 8.66699V6.81055L2.15039 6.99707L1.9502 5.00684L9.08789 4.28711C9.40806 2.97471 10.589 2 12 2ZM3 13.332V16H7V13.332L5 10.666L3 13.332ZM17 12.332V15H21V12.332L19 9.66602L17 12.332ZM12 4C11.4477 4 11 4.44772 11 5C11 5.55228 11.4477 6 12 6C12.5523 6 13 5.55228 13 5C13 4.44772 12.5523 4 12 4Z" fill="#141414"/>
</svg>
