<svg width="24" height="24" viewBox="0 0 24 24" fill="none" xmlns="http://www.w3.org/2000/svg">
<path d="M10.5176 2.00488C10.9866 1.96062 11.4233 2.24907 11.5654 2.69824C11.7075 3.1476 11.5159 3.63577 11.1064 3.86914C9.10603 5.00947 7.76084 7.15923 7.76074 9.62207C7.76074 13.2766 10.7234 16.2392 14.3779 16.2393C16.8408 16.2393 18.9905 14.894 20.1309 12.8936C20.3643 12.4843 20.8525 12.2934 21.3018 12.4355C21.751 12.5777 22.0395 13.0144 21.9951 13.4834C21.4884 18.8232 16.9935 23 11.5215 23C5.71063 23 1 18.2894 1 12.4785C1.00001 7.00628 5.17736 2.51122 10.5176 2.00488ZM6.91797 5.30566C4.56112 6.82159 3.00001 9.46817 3 12.4785C3 17.1848 6.81519 21 11.5215 21C14.5316 21 17.1774 19.4386 18.6934 17.082C17.4246 17.8176 15.9507 18.2393 14.3779 18.2393C9.6188 18.2392 5.76074 14.3812 5.76074 9.62207C5.76079 8.04907 6.18214 6.57454 6.91797 5.30566ZM17.5 1C17.9589 1 18.3584 1.31265 18.4697 1.75781L18.7881 3.0293C19.0568 4.10401 19.896 4.94317 20.9707 5.21191L22.2422 5.53027C22.6874 5.64157 23 6.04113 23 6.5C23 6.95887 22.6874 7.35843 22.2422 7.46973L20.9707 7.78809C19.896 8.05683 19.0568 8.89599 18.7881 9.9707L18.4697 11.2422C18.3584 11.6874 17.9589 12 17.5 12C17.0411 12 16.6416 11.6874 16.5303 11.2422L16.2119 9.9707C15.9432 8.89599 15.104 8.05683 14.0293 7.78809L12.7578 7.46973C12.3126 7.35843 12 6.95887 12 6.5C12 6.04113 12.3126 5.64157 12.7578 5.53027L14.0293 5.21191C15.104 4.94317 15.9432 4.10401 16.2119 3.0293L16.5303 1.75781C16.6416 1.31265 17.0411 1 17.5 1ZM17.5 5.0166C17.1161 5.60995 16.6099 6.11613 16.0166 6.5C16.61 6.88387 17.1161 7.39005 17.5 7.9834C17.8839 7.39005 18.3901 6.88387 18.9834 6.5C18.3901 6.11613 17.8839 5.60995 17.5 5.0166Z" fill="#141414"/>
</svg>
