<svg width="24" height="24" viewBox="0 0 24 24" fill="none" xmlns="http://www.w3.org/2000/svg">
<path d="M12 1C18.0751 1 23 5.92487 23 12C23 18.0751 18.0751 23 12 23C5.92487 23 1 18.0751 1 12C1 5.92487 5.92487 1 12 1ZM12 3C7.02944 3 3 7.02944 3 12C3 16.9706 7.02944 21 12 21C16.9706 21 21 16.9706 21 12C21 7.02944 16.9706 3 12 3ZM12.6758 6C14.2335 6.00006 15.6495 6.61518 16.6914 7.61328L15.3086 9.05762C14.624 8.40183 13.6976 8.00006 12.6758 8C11.5031 8 10.4541 8.53037 9.75586 9.36426H11.874V11.3643H8.89453C8.87777 11.5092 8.86914 11.6572 8.86914 11.8066C8.86915 11.9559 8.8778 12.1032 8.89453 12.248H11.874V14.248H9.75586C10.4541 15.0821 11.503 15.6133 12.6758 15.6133C13.6976 15.6132 14.624 15.2115 15.3086 14.5557L16.6914 16C15.6495 16.998 14.2334 17.6132 12.6758 17.6133C10.3413 17.6133 8.32848 16.2348 7.40625 14.248H5.5V12.248H6.88574C6.87478 12.1023 6.86915 11.9551 6.86914 11.8066C6.86914 11.658 6.87476 11.5101 6.88574 11.3643H5.5V9.36426H7.40625C8.32853 7.37765 10.3414 6 12.6758 6Z" fill="#141414"/>
</svg>
