<svg width="24" height="24" viewBox="0 0 24 24" fill="none" xmlns="http://www.w3.org/2000/svg">
<path d="M11.0521 1.26125C11.6675 1.05635 12.3333 1.05626 12.9486 1.26125L19.8256 3.55423C21.1379 3.99187 21.9813 5.27035 21.8666 6.64897L21.3295 13.0875C21.0938 15.9158 19.5378 18.4678 17.1312 19.9723L12.5306 22.8473C12.2064 23.0499 11.7944 23.0499 11.4701 22.8473L6.86949 19.9723C4.46266 18.4679 2.90694 15.916 2.67123 13.0875L2.13412 6.64897C2.01945 5.27028 2.86271 3.99183 4.17514 3.55423L11.0521 1.26125ZM12.3168 3.15872C12.1116 3.09034 11.8891 3.09043 11.684 3.15872L4.80796 5.45072C4.37052 5.59653 4.0892 6.02346 4.12729 6.48295L4.6644 12.9214C4.84774 15.1215 6.05796 17.1059 7.93004 18.276L12.0004 20.8199L16.0707 18.276C17.9425 17.1059 19.153 15.1213 19.3363 12.9214L19.8734 6.48295C19.9115 6.02353 19.6301 5.59657 19.1928 5.45072L12.3168 3.15872ZM13.0004 10.5152H15.516V12.4839H13.0004V14.9996H11.0316V12.4839H8.51598V10.5152H11.0316V7.99956H13.0004V10.5152Z" fill="#141414"/>
</svg>
