<svg width="24" height="24" viewBox="0 0 24 24" fill="none" xmlns="http://www.w3.org/2000/svg">
<path d="M12.9062 1.00528C13.2133 0.976351 13.517 1.09028 13.7285 1.31485V1.31583L13.7305 1.31681C13.7315 1.31794 13.7327 1.31992 13.7344 1.32169C13.7383 1.32588 13.7439 1.33269 13.751 1.34024C13.7653 1.35564 13.7868 1.37776 13.8135 1.40665C13.8671 1.46473 13.9448 1.54988 14.043 1.6586C14.2395 1.8763 14.5191 2.19076 14.8535 2.58145C15.5216 3.36212 16.4144 4.45336 17.3096 5.68985C18.2024 6.92315 19.1127 8.32142 19.8027 9.71524C20.4824 11.0883 20.9999 12.5572 21 13.9047C20.9998 18.9165 16.9815 23.0004 12 23.0004C7.01846 23.0004 3.00024 18.9165 3 13.9047C3 12.3776 3.00935 8.65551 6.2002 4.40079L6.26953 4.31778C6.44082 4.13446 6.67585 4.02142 6.92871 4.00333C7.21787 3.98278 7.50205 4.08838 7.70703 4.29337L9.3252 5.91153L12.1562 1.46329L12.2236 1.37052C12.3918 1.16326 12.6374 1.03072 12.9062 1.00528ZM12 14.5746C11.791 14.8433 11.5556 15.1555 11.3232 15.4926C10.9656 16.0114 10.6226 16.5688 10.373 17.0981C10.1145 17.6465 10 18.0742 10 18.3578C10.0003 20.0074 11.0684 21.0004 12 21.0004C12.9316 21.0004 13.9997 20.0074 14 18.3578C14 18.0742 13.8855 17.6465 13.627 17.0981C13.3774 16.5688 13.0344 16.0114 12.6768 15.4926C12.4444 15.1555 12.209 14.8433 12 14.5746ZM10.3438 8.03751C10.1809 8.29309 9.91061 8.4614 9.60938 8.49454C9.30799 8.52761 9.00742 8.42175 8.79297 8.20743L7.1377 6.55216C4.99382 9.8808 5 12.6623 5 13.9047C5.00015 16.4175 6.28734 18.6163 8.22266 19.8764C8.077 19.3903 8.00007 18.8765 8 18.3578C8 17.6357 8.2607 16.8899 8.56445 16.2455C8.87726 15.582 9.28466 14.9256 9.67676 14.3568C10.071 13.785 10.4631 13.2814 10.7559 12.9223C10.9025 12.7424 11.0263 12.5977 11.1133 12.4965C11.1565 12.4462 11.1906 12.4059 11.2148 12.3783C11.2268 12.3647 11.2374 12.3537 11.2441 12.3461C11.2473 12.3426 11.25 12.3395 11.252 12.3373C11.2527 12.3365 11.2534 12.3351 11.2539 12.3344L11.3311 12.2572C11.5138 12.0927 11.7516 12.0004 12 12.0004C12.2484 12.0004 12.4862 12.0927 12.6689 12.2572L12.7461 12.3344C12.7466 12.3351 12.7473 12.3365 12.748 12.3373C12.75 12.3395 12.7527 12.3426 12.7559 12.3461C12.7626 12.3537 12.7732 12.3647 12.7852 12.3783C12.8094 12.4059 12.8435 12.4462 12.8867 12.4965C12.9737 12.5977 13.0975 12.7424 13.2441 12.9223C13.5369 13.2814 13.929 13.785 14.3232 14.3568C14.7153 14.9256 15.1227 15.582 15.4355 16.2455C15.7393 16.8899 16 17.6357 16 18.3578C15.9999 18.8766 15.9221 19.3902 15.7764 19.8764C17.7121 18.6164 18.9998 16.4178 19 13.9047C18.9999 13.0173 18.6421 11.8804 18.0098 10.6029C17.3874 9.34579 16.5474 8.04652 15.6904 6.8627C14.8359 5.68227 13.9783 4.63505 13.334 3.88224C13.2651 3.80176 13.1974 3.72519 13.1338 3.65177L10.3438 8.03751Z" fill="#141414"/>
</svg>
