<svg width="24" height="24" viewBox="0 0 24 24" fill="none" xmlns="http://www.w3.org/2000/svg">
<path d="M12.8348 3.79521C14.5841 1.9949 17.1631 1.54498 19.327 2.46122C19.6303 2.58968 19.8511 2.85946 19.9169 3.18193C19.9826 3.50433 19.8848 3.83875 19.6561 4.07548L17.3173 6.49443L18.6151 7.83036L20.9091 5.45732C21.1448 5.21363 21.4883 5.10582 21.8212 5.17118C22.1541 5.23657 22.4307 5.46673 22.5565 5.78153C23.4329 7.974 23.0119 10.5956 21.2684 12.3899C19.9523 13.7445 18.1657 14.334 16.4403 14.1526L20.2177 17.969C21.3353 19.1195 21.3354 20.9729 20.2177 22.1233C19.0838 23.2902 17.2324 23.2902 16.0985 22.1233L16.0946 22.1184L11.8192 17.6624L7.46375 22.1233L7.46277 22.1243C6.32668 23.2921 4.47344 23.2918 3.33777 22.1233C2.21784 20.9707 2.21786 19.1139 3.33777 17.9612L3.33875 17.9593L8.97645 12.1849L4.70203 7.69657H2.44715C1.95661 7.69647 1.5382 7.34057 1.45984 6.85673L1.01258 4.09501C0.962134 3.7835 1.06227 3.46608 1.28211 3.23954L1.72938 2.7786C1.95905 2.54222 2.29111 2.43397 2.61609 2.48954L5.30067 2.95048C5.78049 3.03288 6.13165 3.44841 6.13172 3.93485V6.29814L10.3739 10.7532L11.3319 9.77177C10.7604 7.72314 11.256 5.42018 12.8348 3.79521ZM16.9481 3.99931C15.9782 4.02546 15.0143 4.42021 14.2694 5.18681C13.1018 6.38866 12.8054 8.16561 13.4032 9.66142C13.5498 10.0281 13.4662 10.447 13.1903 10.7298L4.77234 19.3528L4.77137 19.3538C4.40589 19.7312 4.40632 20.3537 4.77234 20.7308C5.12286 21.0915 5.67866 21.0915 6.02918 20.7308L6.03113 20.7298L14.4501 12.1048C14.7377 11.8101 15.1772 11.7225 15.5565 11.8831C16.9763 12.4841 18.6709 12.1933 19.8329 10.9974C20.5719 10.2368 20.9626 9.24574 20.9979 8.2415L18.618 10.7024L14.5331 6.49735L16.9481 3.99931ZM13.2157 16.2308L17.5341 20.7308L17.535 20.7327C17.8835 21.0894 18.4344 21.0887 18.7821 20.7308C19.1457 20.3565 19.1469 19.739 18.785 19.3636L14.4423 14.9749L13.2157 16.2308ZM3.29871 5.69853H4.13172V4.77763L3.12098 4.6038L3.29871 5.69853Z" fill="#141414"/>
</svg>
