<svg width="24" height="24" viewBox="0 0 24 24" fill="none" xmlns="http://www.w3.org/2000/svg">
<path d="M12 3C9.51528 3 7.26659 4.00719 5.63672 5.63965C4.00648 7.27249 3 9.52636 3 12.0176C3.00001 14.7113 4.17769 17.1277 6.04785 18.7812C9.55655 21.8835 15.0522 21.7119 18.3643 18.3936C20.1063 16.648 21 14.5169 21 12.0176H23C23 15.05 21.8936 17.6882 19.7793 19.8066C15.7206 23.8731 9.02425 24.0836 4.72266 20.2803C2.44079 18.2627 1.00001 15.3077 1 12.0176C1 8.9757 2.23196 6.21944 4.22168 4.22656C6.21099 2.23415 8.96252 1 12 1V3ZM12 8C10.8961 8 9.89789 8.44689 9.17285 9.17285C8.44759 9.89927 8 10.9008 8 12.0088C8 13.2066 8.52327 14.2808 9.35547 15.0166C10.9116 16.3921 13.3589 16.3158 14.8281 14.8438C15.6062 14.0641 16 13.1253 16 12.0088H18C18 13.6582 17.3934 15.1044 16.2432 16.2568C14.0272 18.4767 10.3792 18.5914 8.03027 16.5146C6.78643 15.4149 6 13.8029 6 12.0088C6 10.3502 6.67211 8.84621 7.75684 7.75977C8.84135 6.67358 10.3431 6 12 6V8ZM17.543 1.29297C17.829 1.00698 18.2591 0.921394 18.6328 1.07617C19.0064 1.23098 19.25 1.59559 19.25 2V4.75H22C22.4044 4.75 22.769 4.9936 22.9238 5.36719C23.0786 5.74086 22.993 6.17103 22.707 6.45703L19.582 9.70703C19.3945 9.89457 19.1402 10 18.875 10H15.4141L13.9297 11.4834C13.9738 11.6484 14 11.8211 14 12C14 13.1046 13.1046 14 12 14C10.8954 14 10 13.1046 10 12C10 10.8954 10.8954 10 12 10C12.1785 10 12.351 10.0255 12.5156 10.0693L14 8.58594V5.25C14 4.98479 14.1054 4.7305 14.293 4.54297L17.543 1.29297ZM16 5.66406V8H18.4609L19.5859 6.75H17.25V4.41406L16 5.66406Z" fill="#141414"/>
</svg>
