<svg width="24" height="24" viewBox="0 0 24 24" fill="none" xmlns="http://www.w3.org/2000/svg">
<path d="M13 19.5L12 23L10 22.5L11 19L13 19.5ZM9 18.5L8 22L6 21.5L7 18L9 18.5ZM17 18.5L16 22L14 21.5L15 18L17 18.5ZM12 1C14.7349 1 17.0787 2.78346 17.7842 5.26074C20.7004 5.63144 23 8.04048 23 11.0234C23 13.9688 20.7278 16.635 17.7441 16.9932L17.6846 17H6.31543L6.25586 16.9932C3.27216 16.635 1 13.9688 1 11.0234C1 8.04048 3.29958 5.63144 6.21582 5.26074C6.92126 2.78346 9.26514 1 12 1ZM12 3C9.92959 3 8.27023 4.48707 8.03027 6.33984C7.9654 6.83947 7.53897 7.21268 7.03516 7.21094H6.99805C4.75351 7.21195 3 8.95414 3 11.0234C3 12.9676 4.51568 14.739 6.43848 15H17.5615C19.4843 14.739 21 12.9676 21 11.0234C21 8.95414 19.2465 7.21195 17.002 7.21094H16.9648C16.461 7.21268 16.0346 6.83947 15.9697 6.33984C15.7298 4.48707 14.0704 3 12 3Z" fill="#141414"/>
</svg>
