<svg width="24" height="24" viewBox="0 0 24 24" fill="none" xmlns="http://www.w3.org/2000/svg">
<path d="M12.0479 2C14.7841 2.00006 17.2675 3.08989 19.0791 4.85645L19.0889 4.86621L21 6.83496V3.90039H23V9C23 9.55228 22.5523 10 22 10H17V8H19.5L17.6729 6.2793C16.2215 4.86881 14.2382 4.00006 12.0479 4C7.59829 4 4 7.58669 4 12C4 16.4133 7.59829 20 12.0479 20C14.2431 19.9999 16.2304 19.127 17.6826 17.7109C18.4154 16.9963 19.011 16.1446 19.4268 15.1982L21.2578 16.002C20.7371 17.1874 19.993 18.2523 19.0791 19.1436C17.2675 20.9101 14.7841 21.9999 12.0479 22C6.50369 22 2 17.5278 2 12C2 6.47218 6.50369 2 12.0479 2ZM10.1367 15H9V10.2041H8.96875L7.7373 11.0654V9.94043L9.06836 9H10.1367V15ZM13.3369 9C13.8341 9 14.2622 9.11673 14.6201 9.35059C14.9798 9.5844 15.2558 9.92425 15.4492 10.3691C15.6427 10.8123 15.7392 11.3497 15.7373 11.9814C15.7373 12.617 15.6398 13.1606 15.4463 13.6113C15.2548 14.0617 14.9807 14.406 14.623 14.6436C14.2651 14.8812 13.8361 15 13.3369 15C12.8379 14.9981 12.4086 14.8782 12.0488 14.6406C11.691 14.403 11.4151 14.059 11.2217 13.6084C11.0301 13.1577 10.9346 12.6151 10.9365 11.9814C10.9365 11.3497 11.0331 10.8112 11.2246 10.3662C11.4181 9.92125 11.6939 9.58251 12.0518 9.35059C12.4115 9.1169 12.8399 9.00001 13.3369 9ZM13.3369 10.0039C12.9984 10.0039 12.7275 10.1691 12.5244 10.499C12.3213 10.829 12.2187 11.3233 12.2168 11.9814C12.2168 12.4263 12.2627 12.7978 12.3535 13.0957C12.4464 13.3918 12.5768 13.6147 12.7451 13.7637C12.9134 13.9107 13.1106 13.9844 13.3369 13.9844C13.6774 13.9844 13.9492 13.8172 14.1523 13.4834C14.3554 13.1496 14.456 12.6489 14.4541 11.9814C14.4541 11.5421 14.4083 11.1761 14.3154 10.8838C14.2245 10.5915 14.0941 10.3717 13.9258 10.2246C13.7595 10.0777 13.5631 10.0039 13.3369 10.0039Z" fill="#141414"/>
</svg>
