<svg width="24" height="24" viewBox="0 0 24 24" fill="none" xmlns="http://www.w3.org/2000/svg">
<path d="M9.82031 0.346287C13.0181 -0.522485 16.3148 1.3653 17.1836 4.56308L15.2529 5.0875C14.6738 2.95569 12.4765 1.69689 10.3447 2.27597C8.21287 2.85517 6.95401 5.05329 7.5332 7.18515L7.75488 7.99961H18C20.209 7.99961 21.9998 9.79065 22 11.9996V18.9996C22 21.2087 20.2091 22.9996 18 22.9996H6C3.79086 22.9996 2 21.2087 2 18.9996V11.9996C2.00021 9.89651 3.62356 8.17367 5.68555 8.01328L5.60352 7.70859C4.73497 4.51091 6.62264 1.21504 9.82031 0.346287ZM6 9.99961C4.89556 9.99961 4.00022 10.8952 4 11.9996V18.9996C4 20.1042 4.89543 20.9996 6 20.9996H18C19.1046 20.9996 20 20.1042 20 18.9996V11.9996C19.9998 10.8952 19.1044 9.99961 18 9.99961H6Z" fill="#141414"/>
</svg>
