<svg width="24" height="24" viewBox="0 0 24 24" fill="none" xmlns="http://www.w3.org/2000/svg">
<path d="M14.0654 2.44033C14.9037 1.5066 16.4997 2.08605 16.5 3.3837V9.97845L21.6553 9.997C22.8428 10.0016 23.4856 11.3901 22.7207 12.2988L14.9707 21.5058C14.1296 22.504 12.5003 21.9089 12.5 20.6035V14.9999H7.30859C6.1498 14.9999 5.49277 13.6724 6.19531 12.7509L13.9873 2.53506L14.0654 2.44033ZM8.52051 12.9999H13.5C14.0522 12.9999 14.4999 13.4478 14.5 13.9999V18.9599L20.3633 11.9921L15.4961 11.9755C14.9456 11.9734 14.5004 11.5259 14.5 10.9755V5.16007L8.52051 12.9999ZM7.06934 8.99993H1V6.99992H7.06934V8.99993ZM9.09668 3.99991H1V1.9999H9.09668V3.99991Z" fill="#141414"/>
</svg>
