<svg width="24" height="24" viewBox="0 0 24 24" fill="none" xmlns="http://www.w3.org/2000/svg">
<path d="M18.3809 4.83876C20.0045 3.4588 22.4998 4.61322 22.5 6.74405V17.2568C22.4996 19.3876 20.0045 20.5412 18.3809 19.1612L12.5 14.1621V17.2568C12.4996 19.3876 10.0044 20.5412 8.38082 19.1612L2.19721 13.9052C1.02284 12.9069 1.02278 11.094 2.19721 10.0956L8.38082 4.83876C10.0045 3.4588 12.4998 4.61322 12.5 6.74405V9.83783L18.3809 4.83876ZM10.5 6.74405C10.4998 6.31807 10.0004 6.0864 9.67574 6.36221L3.49213 11.6191C3.25736 11.8187 3.25752 12.1811 3.49213 12.3808L9.67574 17.6377C10.0004 17.9136 10.4996 17.6827 10.5 17.2568V6.74405ZM20.5 6.74405C20.4998 6.31807 20.0005 6.0864 19.6758 6.36221L13.4922 11.6191C13.2574 11.8187 13.2576 12.1811 13.4922 12.3808L19.6758 17.6377C20.0004 17.9136 20.4996 17.6827 20.5 17.2568V6.74405Z" fill="#141414"/>
</svg>
