<svg width="24" height="24" viewBox="0 0 24 24" fill="none" xmlns="http://www.w3.org/2000/svg">
<path d="M14 1C14.2713 1 14.5313 1.11053 14.7197 1.30566L20.376 7.16309C23.8744 10.7858 23.8744 16.6458 20.376 20.2686C16.8587 23.9105 11.1413 23.9105 7.62403 20.2686C5.91624 18.5001 5.04553 16.2009 5.00196 13.8975C4.06688 13.7025 3.17526 13.2302 2.45216 12.4814C0.515932 10.4764 0.515963 7.23948 2.45216 5.23438L5.28028 2.30566C5.46872 2.11053 5.72875 2 6.00001 2C6.27128 2 6.5313 2.11053 6.71974 2.30566L9.51759 5.20215L13.2803 1.30566C13.4687 1.11053 13.7287 1 14 1ZM10.6348 6.9248C11.3639 8.77628 11.0016 10.9761 9.54786 12.4814C8.82575 13.2292 7.93565 13.701 7.00196 13.8965C7.04486 15.7115 7.73508 17.5043 9.06251 18.8789C11.7936 21.707 16.2065 21.707 18.9375 18.8789C21.6875 16.0312 21.6874 11.4004 18.9375 8.55273L14 3.43945L10.6348 6.9248ZM3.89063 6.62402C2.70322 7.85404 2.70319 9.8618 3.89063 11.0918C5.05958 12.3023 6.94044 12.3023 8.10939 11.0918C9.29685 9.86179 9.29682 7.85405 8.10939 6.62402L6.00001 4.43945L3.89063 6.62402Z" fill="#141414"/>
</svg>
