<svg width="24" height="24" viewBox="0 0 24 24" fill="none" xmlns="http://www.w3.org/2000/svg">
<path d="M18.002 7C19.3413 7 20.5914 7.51996 21.541 8.45996C22.4805 9.39994 23 10.6601 23 12C23 13.3399 22.4805 14.5901 21.541 15.54C20.6014 16.48 19.3413 17 18.002 17H17.9922C16.6529 17 15.4036 16.4799 14.4541 15.54C13.5545 14.64 13.0341 13.4497 12.9941 12.1797C12.3446 11.9499 11.6349 11.9497 10.9854 12.1797C10.9454 13.4496 10.4259 14.6401 9.52637 15.54C7.57725 17.49 4.4081 17.49 2.45898 15.54C1.51951 14.6001 1 13.3399 1 12C1 10.6601 1.51951 9.40994 2.45898 8.45996C4.40809 6.50997 7.58702 6.51997 9.53613 8.45996C10.0358 8.95986 10.4154 9.53984 10.6553 10.1797C11.5247 9.93973 12.4545 9.93981 13.334 10.1797C13.5839 9.53974 13.9641 8.95993 14.4639 8.45996C15.4034 7.52004 16.6627 7.00008 18.002 7ZM5.99805 9C5.22847 9 4.45862 9.29 3.87891 9.87988C3.30917 10.4499 2.99902 11.2 2.99902 12C2.99902 12.8 3.30917 13.5501 3.87891 14.1201C5.04839 15.29 6.94777 15.2901 8.11719 14.1201C8.68683 13.5501 8.99609 12.7999 8.99609 12C8.99609 11.2001 8.68683 10.4499 8.11719 9.87988C7.53753 9.29996 6.76759 9.00008 5.99805 9ZM17.9922 9C17.1926 9.00002 16.4428 9.3099 15.873 9.87988C15.3033 10.4499 14.9932 11.2 14.9932 12C14.9932 12.8 15.3033 13.5501 15.873 14.1201C17.0025 15.2501 18.9818 15.2501 20.1113 14.1201C20.6811 13.5501 20.9912 12.8 20.9912 12C20.9912 11.2 20.6811 10.4499 20.1113 9.87988C19.5416 9.30992 18.7918 9 17.9922 9Z" fill="#141414"/>
</svg>
