<svg width="24" height="24" viewBox="0 0 24 24" fill="none" xmlns="http://www.w3.org/2000/svg">
<path d="M9.78798 4.42773C11.1044 3.42516 12.9997 4.36478 12.9999 6.01953V7.50001H19C20.6567 7.50001 21.9998 8.84329 22 10.5V13.5C22 15.1569 20.6568 16.5 19 16.5H12.9999V17.9805C12.9999 19.6355 11.1045 20.5749 9.78798 19.5723L2.98227 14.3868C1.40672 13.186 1.40653 10.8139 2.98227 9.6133L9.78798 4.42773ZM4.19419 11.2041C3.66901 11.6043 3.6692 12.3956 4.19419 12.7959L10.9999 17.9805V15.5C11.0001 14.948 11.4478 14.5002 11.9999 14.5H19C19.5523 14.5 20 14.0523 20 13.5V10.5C19.9998 9.94787 19.5522 9.50001 19 9.50001H11.9999C11.4477 9.49989 10.9999 9.05222 10.9999 8.50001V6.01953L4.19419 11.2041Z" fill="#141414"/>
</svg>
