<svg width="24" height="24" viewBox="0 0 24 24" fill="none" xmlns="http://www.w3.org/2000/svg">
<path d="M13.36 1.35385C14.324 0.432639 15.9617 1.29244 15.6901 2.65073L14.2194 10.0043L19.57 10.0228C20.8009 10.0276 21.4276 11.505 20.5749 12.393L10.7105 22.6635C9.73018 23.6843 8.02678 22.7717 8.33358 21.3901L9.75351 15.0004H4.38823C3.18195 15.0002 2.5401 13.5758 3.3394 12.6723L13.2692 1.44858L13.36 1.35385ZM5.7193 13.0004H11.0006C11.3037 13.0005 11.5912 13.1379 11.7809 13.3744C11.9704 13.6109 12.0429 13.9213 11.9772 14.2172L10.7506 19.7338L18.1608 12.018L12.9977 12.0004C12.6989 11.9994 12.4154 11.8644 12.2262 11.6332C12.0371 11.4017 11.9616 11.0972 12.0201 10.8041L13.2926 4.4398L5.7193 13.0004Z" fill="#141414"/>
</svg>
