<svg width="24" height="24" viewBox="0 0 24 24" fill="none" xmlns="http://www.w3.org/2000/svg">
<path d="M12 2C13.1046 2 14 2.89543 14 4V20C14 21.1046 13.1046 22 12 22H10.9609C10.0497 21.9999 9.18742 21.5856 8.61816 20.874L5.51855 17H4C2.34315 17 1 15.6569 1 14V10C1 8.34315 2.34315 7 4 7H5.51855L8.61816 3.12598C9.18742 2.41441 10.0497 2.00009 10.9609 2H12ZM10.9609 4C10.6574 4.00009 10.3704 4.13806 10.1807 4.375L6.78125 8.625C6.59148 8.86222 6.30378 9 6 9H4C3.44772 9 3 9.44772 3 10V14C3 14.5523 3.44772 15 4 15H6C6.30378 15 6.59148 15.1378 6.78125 15.375L10.1807 19.625C10.3704 19.8619 10.6574 19.9999 10.9609 20H12V4H10.9609ZM20.5 11H23V13H20.5V15.5H18.5V13H16V11H18.5V8.5H20.5V11Z" fill="#141414"/>
</svg>
