<svg width="24" height="24" viewBox="0 0 24 24" fill="none" xmlns="http://www.w3.org/2000/svg">
<path d="M12 1C18.0751 1 23 5.92487 23 12C23 14.2091 21.2091 16 19 16H18.5C18.0042 16 17.8528 16.0027 17.7393 16.0176C16.8418 16.1357 16.1357 16.8418 16.0176 17.7393C16.0027 17.8528 16 18.0041 16 18.5V19C16 21.2091 14.2091 23 12 23C5.92487 23 1 18.0751 1 12C1 5.92487 5.92487 1 12 1ZM12 3C7.02944 3 3 7.02944 3 12C3 16.9706 7.02944 21 12 21C13.1046 21 14 20.1046 14 19V18.4316C13.9999 18.0342 13.9998 17.739 14.0342 17.4775C14.2706 15.6829 15.6829 14.2706 17.4775 14.0342C17.739 13.9998 18.0342 13.9999 18.4316 14H19C20.1046 14 21 13.1046 21 12C21 7.02944 16.9706 3 12 3ZM6.5 10C7.32843 10 8 10.6716 8 11.5C8 12.3284 7.32843 13 6.5 13C5.67157 13 5 12.3284 5 11.5C5 10.6716 5.67157 10 6.5 10ZM16.5 7C17.3284 7 18 7.67157 18 8.5C18 9.32843 17.3284 10 16.5 10C15.6716 10 15 9.32843 15 8.5C15 7.67157 15.6716 7 16.5 7ZM10.5 6C11.3284 6 12 6.67157 12 7.5C12 8.32843 11.3284 9 10.5 9C9.67157 9 9 8.32843 9 7.5C9 6.67157 9.67157 6 10.5 6Z" fill="#141414"/>
</svg>
