<svg width="24" height="24" viewBox="0 0 24 24" fill="none" xmlns="http://www.w3.org/2000/svg">
<path d="M21.8994 21.2136L20.4854 22.6276L17.5889 19.7311C17.4394 19.838 17.2877 19.9427 17.1309 20.0407L12.5303 22.9157C12.2061 23.1183 11.7939 23.1182 11.4697 22.9157L6.86914 20.0407C4.46252 18.5364 2.90667 15.9843 2.6709 13.1559L2.13379 6.71745C2.07521 6.01399 2.26626 5.33671 2.6416 4.78385L0.686523 2.82876L2.10059 1.4147L21.8994 21.2136ZM4.14258 6.28483C4.12641 6.3712 4.1194 6.46058 4.12695 6.55143L4.66406 12.9899C4.84746 15.1898 6.05781 17.1744 7.92969 18.3444L12 20.8884L16.0703 18.3444C16.0972 18.3276 16.1228 18.3088 16.1494 18.2917L4.14258 6.28483ZM11.0518 1.32974C11.6671 1.12478 12.3329 1.1248 12.9482 1.32974L19.8252 3.62271C21.1376 4.06044 21.981 5.33874 21.8662 6.71745L21.3291 13.1559C21.223 14.4288 20.847 15.6445 20.249 16.735L18.7578 15.2438C19.0705 14.5384 19.2702 13.7783 19.3359 12.9899L19.873 6.55143C19.9113 6.09192 19.6298 5.66514 19.1924 5.5192L12.3164 3.2272C12.1113 3.15888 11.8887 3.15885 11.6836 3.2272L7.97656 4.46256L6.39551 2.8815L11.0518 1.32974Z" fill="#141414"/>
</svg>
