<svg width="24" height="24" viewBox="0 0 24 24" fill="none" xmlns="http://www.w3.org/2000/svg">
<path d="M12 1C14.6556 1 17.0914 1.94101 18.9922 3.50781L17.5703 4.92969C16.0381 3.72091 14.1031 3 12 3C7.02944 3 3 7.02944 3 12C3 16.9706 7.02944 21 12 21C16.9706 21 21 16.9706 21 12C21 11.5264 20.9631 11.0613 20.8926 10.6074L22.8789 10.3613C22.9587 10.8959 23 11.4432 23 12C23 18.0751 18.0751 23 12 23C5.92487 23 1 18.0751 1 12C1 5.92487 5.92487 1 12 1Z" fill="#141414"/>
<path d="M22 6.32715L11.6201 16.707C11.2296 17.0976 10.5966 17.0976 10.2061 16.707L5.79297 12.2939L7.20703 10.8799L10.9131 14.5859L20.5859 4.91309L22 6.32715Z" fill="#141414"/>
</svg>
