<svg width="24" height="24" viewBox="0 0 24 24" fill="none" xmlns="http://www.w3.org/2000/svg">
<path d="M22 13C22.5522 13.0001 23 13.4478 23 14V20H21V16.6895C20.1764 17.6214 19.2815 18.5692 18.3135 19.3877C16.5912 20.844 14.5196 21.9999 12 22C7.23982 22 3.25877 18.6749 2.24805 14.2217L4.19824 13.7783C5.00662 17.3408 8.194 20 12 20C13.8645 19.9999 15.4917 19.1547 17.0225 17.8604C18.0261 17.0117 18.9382 16.0153 19.8203 15H16V13H22ZM12 2C16.7602 2 20.7413 5.32507 21.752 9.77832L19.8018 10.2217C18.9934 6.65918 15.806 4 12 4C10.1355 4 8.5083 4.84531 6.97754 6.13965C5.97399 6.98824 5.06173 7.9847 4.17969 9H8V11H2C1.44772 11 1 10.5523 1 10V4H3V7.31055C3.82362 6.37862 4.71756 5.43082 5.68555 4.6123C7.40798 3.15584 9.48008 2 12 2Z" fill="#141414"/>
</svg>
