<svg width="24" height="24" viewBox="0 0 24 24" fill="none" xmlns="http://www.w3.org/2000/svg">
<path d="M3.61037 3.61037C5.43521 1.78552 8.04435 1.21358 10.6748 1.62892C13.3063 2.04457 16.0395 3.45157 18.294 5.70607C20.5484 7.9606 21.9556 10.6937 22.3711 13.3252C22.7864 15.9556 22.2145 18.5649 20.3897 20.3897C18.5649 22.2145 15.9556 22.7864 13.3252 22.3711C10.6937 21.9556 7.9606 20.5484 5.70607 18.294C3.45157 16.0395 2.04457 13.3063 1.62892 10.6748C1.21358 8.04435 1.78552 5.43521 3.61037 3.61037ZM10.3623 3.60451C8.97891 3.38611 7.70407 3.51124 6.63479 3.95607C11.8961 5.48402 16.0727 9.61507 17.6036 14.9727L17.962 16.2256L16.0381 16.7745L15.6807 15.5225C14.1986 10.3351 9.88362 6.46011 4.584 5.52931C3.64981 6.76802 3.30473 8.46342 3.60451 10.3623C3.94735 12.5333 5.13198 14.8918 7.12014 16.8799C9.10833 18.868 11.4668 20.0528 13.6377 20.3956C15.8097 20.7384 17.7148 20.2364 18.9756 18.9756C20.2364 17.7148 20.7384 15.8097 20.3956 13.6377C20.0528 11.4668 18.868 9.10833 16.8799 7.12014C14.8918 5.13198 12.5333 3.94735 10.3623 3.60451Z" fill="#141414"/>
</svg>
