<svg width="24" height="24" viewBox="0 0 24 24" fill="none" xmlns="http://www.w3.org/2000/svg">
<path d="M13 3C16.5264 3 19.4424 5.6078 19.9277 9H22V11H19.9219L19.2354 19.3281C19.0645 21.4029 17.3308 22.9999 15.249 23H8.76074C6.68039 23 4.94718 21.4052 4.77441 19.332L4.08008 11H2V9H4.07227C4.55758 5.6078 7.4736 3 11 3V1H13V3ZM6.76758 19.166C6.85396 20.2026 7.72056 21 8.76074 21H15.249C16.2899 20.9999 17.1568 20.2014 17.2422 19.1641L17.4199 17H6.58691L6.76758 19.166ZM6.41992 15H17.585L17.9141 11H6.08691L6.41992 15ZM11 5C8.58108 5 6.5639 6.71781 6.10059 9H17.8994C17.4361 6.71781 15.4189 5 13 5H11Z" fill="#141414"/>
</svg>
