<svg width="24" height="24" viewBox="0 0 24 24" fill="none" xmlns="http://www.w3.org/2000/svg">
<path d="M19 2.5C21.2091 2.5 23 4.29086 23 6.5V16.5C23 18.7091 21.2091 20.5 19 20.5H6.77148L4.01074 22.1162C2.67745 22.8966 1 21.9346 1 20.3896V6.5C1 4.29086 2.79086 2.5 5 2.5H19ZM5 4.5C3.89543 4.5 3 5.39543 3 6.5V20.3896L5.99512 18.6367L6.11328 18.5781C6.23537 18.5269 6.36673 18.5 6.5 18.5H19C20.1046 18.5 21 17.6046 21 16.5V6.5C21 5.39543 20.1046 4.5 19 4.5H5ZM12 14C12.8284 14 13.5 14.6716 13.5 15.5C13.5 16.3284 12.8284 17 12 17C11.1716 17 10.5 16.3284 10.5 15.5C10.5 14.6716 11.1716 14 12 14ZM12 7C13.6569 7 15 8.34315 15 10C15 11.3071 14.1646 12.4162 13 12.8281V13H11V12.5C11 11.6284 11.6871 11.1116 12.248 10.9688C12.6808 10.8586 13 10.4655 13 10C13 9.44772 12.5523 9 12 9C11.4477 9 11 9.44772 11 10H9C9 8.34315 10.3431 7 12 7Z" fill="#141414"/>
</svg>
