<svg width="24" height="24" viewBox="0 0 24 24" fill="none" xmlns="http://www.w3.org/2000/svg">
<path d="M12 1C18.0751 1 23 5.92487 23 12C23 18.0751 18.0751 23 12 23C5.92487 23 1 18.0751 1 12C1 7.92846 3.21211 4.37364 6.5 2.47168C8.11788 1.53586 9.99655 1 12 1ZM12 3C10.9474 3 9.93693 3.18061 8.99805 3.5127C11.441 5.52932 13 8.58224 13 12C13 15.4178 11.441 18.4707 8.99805 20.4873C9.93693 20.8194 10.9474 21 12 21C16.9706 21 21 16.9706 21 12C21 7.02944 16.9706 3 12 3ZM7 4.51562C4.58805 6.13015 3 8.8796 3 12C3 15.1204 4.58805 17.8698 7 19.4844C9.41368 17.8685 11 15.1191 11 12C11 8.88093 9.41368 6.13146 7 4.51562Z" fill="#141414"/>
</svg>
