<svg width="24" height="24" viewBox="0 0 24 24" fill="none" xmlns="http://www.w3.org/2000/svg">
<path d="M10.4459 1.10995C13.7509 0.64069 17.2331 1.67664 19.7779 4.22128C24.0737 8.51705 24.0737 15.4822 19.7779 19.7779C15.4822 24.0737 8.51705 24.0737 4.22128 19.7779C1.67664 17.2331 0.64069 13.7509 1.10995 10.4459L3.08945 10.7271C2.70483 13.4363 3.55507 16.2826 5.63632 18.3639C9.15106 21.8783 14.8492 21.8785 18.3639 18.3639C21.8785 14.8492 21.8783 9.15106 18.3639 5.63632C16.2826 3.55507 13.4363 2.70483 10.7271 3.08945L10.4459 1.10995ZM13.8287 12.4137V8.46445H15.8287V14.8287C15.8285 15.3807 15.3807 15.8285 14.8287 15.8287H8.46445V13.8287H12.4137L3.51425 4.92831L4.92831 3.51425L13.8287 12.4137Z" fill="#141414"/>
</svg>
