<svg width="24" height="24" viewBox="0 0 24 24" fill="none" xmlns="http://www.w3.org/2000/svg">
<path d="M15 1C15.3788 1 15.7251 1.21395 15.8945 1.55273L17.8428 5.4502C19.1242 6.11679 20 7.45565 20 9V15C20 16.5442 19.124 17.8822 17.8428 18.5488L15.8945 22.4473L15.8232 22.5684C15.6383 22.8363 15.3315 23 15 23H9C8.62123 23 8.27486 22.786 8.10547 22.4473L6.15625 18.5488C4.87542 17.882 4 16.5439 4 15V9C4 7.45596 4.8752 6.11693 6.15625 5.4502L8.10547 1.55273L8.17676 1.43164C8.36169 1.16367 8.66854 1 9 1H15ZM9.61816 21H14.3818L15.3818 19H8.61816L9.61816 21ZM8 7C6.89543 7 6 7.89543 6 9V15C6 16.1046 6.89543 17 8 17H16C17.1046 17 18 16.1046 18 15V9C18 7.89543 17.1046 7 16 7H8ZM13 11.4648L15.5547 13.168L14.4453 14.832L11.4453 12.832C11.1671 12.6466 11 12.3344 11 12V9H13V11.4648ZM8.61816 5H15.3818L14.3818 3H9.61816L8.61816 5Z" fill="#141414"/>
</svg>
