<svg width="24" height="24" viewBox="0 0 24 24" fill="none" xmlns="http://www.w3.org/2000/svg">
<path d="M9.5 6C10.0523 6 10.5 6.44772 10.5 7V13.5127H17C17.5521 13.5127 17.9998 13.9606 18 14.5127C18 16.8535 17.1438 18.8959 15.5117 20.5312C12.3745 23.6745 7.20227 23.8373 3.87695 20.8975C2.11409 19.3388 1 17.0548 1 14.5127C1.00012 12.1626 1.95213 10.0327 3.48926 8.49316C5.02617 6.95386 7.15279 6 9.5 6ZM8.5 8.07617C7.10646 8.29157 5.85952 8.95067 4.90527 9.90625C3.72761 11.0858 3.00012 12.7133 3 14.5127C3 16.4583 3.85016 18.2037 5.20117 19.3984C7.73348 21.6374 11.705 21.5141 14.0957 19.1191C15.1168 18.0961 15.7335 16.8936 15.9307 15.5127H9.5C8.94772 15.5127 8.5 15.065 8.5 14.5127V8.07617ZM13 1C18.5228 1 23 5.47715 23 11C23 11.5523 22.5523 12 22 12H13C12.4477 12 12 11.5523 12 11V2C12 1.44772 12.4477 1 13 1ZM14 10H20.9385C20.4872 6.38128 17.6187 3.51277 14 3.06152V10Z" fill="#141414"/>
</svg>
