<svg width="24" height="24" viewBox="0 0 24 24" fill="none" xmlns="http://www.w3.org/2000/svg">
<path d="M13 14V16H8C5.94968 16 4.18757 17.2341 3.41602 19C3.14842 19.6125 3 20.2889 3 21H13V23H3C1.89543 23 1 22.1046 1 21C1 17.134 4.13401 14 8 14H13ZM23 16.4141L20.707 18.707L23 21L21.5859 22.4141L19.293 20.1211L17 22.4141L15.5859 21L17.8789 18.707L15.5859 16.4141L17 15L19.293 17.293L21.5859 15L23 16.4141ZM11 2C13.7614 2 16 4.23858 16 7C16 9.76142 13.7614 12 11 12C8.23858 12 6 9.76142 6 7C6 4.23858 8.23858 2 11 2ZM11 4C9.34315 4 8 5.34315 8 7C8 8.65685 9.34315 10 11 10C12.6569 10 14 8.65685 14 7C14 5.34315 12.6569 4 11 4Z" fill="#141414"/>
</svg>
