<svg width="24" height="24" viewBox="0 0 24 24" fill="none" xmlns="http://www.w3.org/2000/svg">
<path d="M10 3H14V1H16V3H17C19.2091 3 21 4.79086 21 7V8H23V10H21V14H23V16H21V17C21 19.2091 19.2091 21 17 21H16V23H14V21H10V23H8V21H7C4.79086 21 3 19.2091 3 17V16H1V14H3V10H1V8H3V7C3 4.79086 4.79086 3 7 3H8V1H10V3ZM7 5C5.89543 5 5 5.89543 5 7V17C5 18.1046 5.89543 19 7 19H17C18.1046 19 19 18.1046 19 17V7C19 5.89543 18.1046 5 17 5H7ZM14.2041 8.01074C15.2128 8.113 16 8.96435 16 10V14C16 15.1046 15.1046 16 14 16H10C8.96435 16 8.113 15.2128 8.01074 14.2041L8 14V10C8 8.89543 8.89543 8 10 8H14L14.2041 8.01074ZM10 14H14V10H10V14Z" fill="#141414"/>
</svg>
