<svg width="24" height="24" viewBox="0 0 24 24" fill="none" xmlns="http://www.w3.org/2000/svg">
<path d="M19 3C21.2091 3 23 4.79086 23 7V17C23 19.2091 21.2091 21 19 21H17V23H15V21H9V23H7V21H5C2.79086 21 1 19.2091 1 17V7C1 4.79086 2.79086 3 5 3H19ZM5 5C3.89543 5 3 5.89543 3 7V8H5V10H3V14H5V16H3V17C3 18.1046 3.89543 19 5 19H17V5H5ZM19 19C20.1046 19 21 18.1046 21 17V7C21 5.89543 20.1046 5 19 5V19ZM11 8C13.2091 8 15 9.79086 15 12C15 14.2091 13.2091 16 11 16C8.79086 16 7 14.2091 7 12C7 9.79086 8.79086 8 11 8ZM11 10C9.89543 10 9 10.8954 9 12C9 13.1046 9.89543 14 11 14C12.1046 14 13 13.1046 13 12C13 10.8954 12.1046 10 11 10Z" fill="#141414"/>
</svg>
