<svg width="24" height="24" viewBox="0 0 24 24" fill="none" xmlns="http://www.w3.org/2000/svg">
<path d="M12 16C13.1046 16 14 16.8954 14 18C14 19.1046 13.1046 20 12 20C10.8954 20 10 19.1046 10 18C10 16.8954 10.8954 16 12 16ZM12 12C14.2091 12 16.2095 12.8951 17.6572 14.3428L16.2422 15.7578C15.1564 14.672 13.6569 14 12 14C10.3431 14 8.8436 14.672 7.75781 15.7578L6.34277 14.3428C7.79049 12.8951 9.79086 12 12 12ZM12 8C15.3137 8 18.3138 9.34308 20.4854 11.5146L19.0713 12.9287C17.2616 11.1191 14.7614 10 12 10C9.23858 10 6.73835 11.1191 4.92871 12.9287L3.51465 11.5146C5.68622 9.34308 8.68629 8 12 8ZM12 4C16.4183 4 20.418 5.79109 23.3135 8.68652L21.8994 10.1006C19.3659 7.56708 15.866 6 12 6C8.13401 6 4.63409 7.56708 2.10059 10.1006L0.686523 8.68652C3.58195 5.79109 7.58172 4 12 4Z" fill="#141414"/>
</svg>
