<svg width="24" height="24" viewBox="0 0 24 24" fill="none" xmlns="http://www.w3.org/2000/svg">
<path fill-rule="evenodd" clip-rule="evenodd" d="M12 8C14.2091 8 16 9.79086 16 12C16 14.2091 14.2091 16 12 16C9.79088 16 7.99998 14.2091 7.99998 12C7.99998 9.79089 9.79088 8.00005 12 8ZM12 10C10.8954 10 9.99998 10.8955 9.99998 12C9.99998 13.1045 10.8954 14 12 14C13.1045 14 14 13.1046 14 12C14 10.8954 13.1045 10 12 10Z" fill="#141414"/>
<path fill-rule="evenodd" clip-rule="evenodd" d="M1.07178 11.6291C0.977376 11.8663 0.977238 12.1337 1.07144 12.371C0.976276 12.1329 0.976638 11.8673 1.07178 11.6291Z" fill="#141414"/>
<path fill-rule="evenodd" clip-rule="evenodd" d="M1.07144 12.371C0.976276 12.1329 0.976638 11.8673 1.07178 11.6291C0.977376 11.8663 0.977238 12.1337 1.07144 12.371Z" fill="#141414"/>
<path fill-rule="evenodd" clip-rule="evenodd" d="M1.07178 11.6291C0.977376 11.8663 0.977238 12.1337 1.07144 12.371L1.07615 12.3828C1.07778 12.3871 1.08273 12.4 1.08494 12.4053C1.0909 12.4196 1.09903 12.4385 1.10885 12.4612L1.11717 12.4805C1.14452 12.5439 1.18418 12.6334 1.23631 12.7451C1.34072 12.9689 1.49611 13.2829 1.70408 13.6572C2.11893 14.404 2.75041 15.4029 3.61912 16.4053C5.35201 18.4047 8.10479 20.4999 12 20.5C15.8952 20.5 18.6479 18.4047 20.3808 16.4053C21.2496 15.4029 21.881 14.404 22.2959 13.6572C22.5038 13.2829 22.6592 12.9689 22.7637 12.7451C22.8158 12.6334 22.8554 12.5439 22.8828 12.4805L22.891 12.4614L22.9079 12.4221L22.915 12.4053C22.9172 12.3999 22.9222 12.3871 22.9238 12.3828L22.9287 12.3711C23.0239 12.1329 23.0229 11.8652 22.9277 11.627L22.9238 11.6172C22.9215 11.6116 22.9188 11.6038 22.915 11.5947C22.9091 11.5806 22.9009 11.5616 22.8913 11.5392L22.8828 11.5195C22.8554 11.4561 22.8158 11.3666 22.7637 11.2549C22.6592 11.0312 22.5038 10.7171 22.2959 10.3428C21.881 9.59603 21.2496 8.59709 20.3808 7.59473C18.6479 5.59528 15.8952 3.5 12 3.5C8.10477 3.50007 5.35201 5.59529 3.61912 7.59473C2.75041 8.59709 2.11893 9.59605 1.70408 10.3428C1.49613 10.7171 1.34071 11.0312 1.23631 11.2549C1.18417 11.3666 1.14452 11.4561 1.11717 11.5195L1.10869 11.5392C1.09893 11.5618 1.09087 11.5804 1.08494 11.5947C1.08272 11.6001 1.07778 11.6129 1.07615 11.6172L1.07178 11.6291ZM5.13084 8.90527C6.6479 7.15484 8.89545 5.50007 12 5.5C15.1046 5.5 17.352 7.15483 18.8691 8.90527C19.6252 9.77773 20.1815 10.654 20.5478 11.3135C20.6996 11.5867 20.8158 11.8218 20.9013 12C20.8158 12.1782 20.6996 12.4134 20.5478 12.6865C20.1815 13.346 19.6252 14.2223 18.8691 15.0947C17.352 16.8452 15.1045 18.5 12 18.5C8.89545 18.4999 6.6479 16.8452 5.13084 15.0947C4.37475 14.2223 3.81849 13.346 3.45213 12.6865C3.30027 12.4132 3.18316 12.1782 3.09764 12C3.18316 11.8217 3.30024 11.5869 3.45213 11.3135C3.81848 10.6541 4.37473 9.77774 5.13084 8.90527Z" fill="#141414"/>
</svg>
