<svg width="24" height="24" viewBox="0 0 24 24" fill="none" xmlns="http://www.w3.org/2000/svg">
<path d="M10.4639 15.2812C11.2634 14.3223 12.7366 14.3223 13.5361 15.2812L16.4014 18.7197C17.4868 20.0223 16.5607 21.9998 14.8652 22H9.13477C7.43929 21.9998 6.51319 20.0223 7.59863 18.7197L10.4639 15.2812ZM9.13477 20H14.8652L12 16.5625L9.13477 20ZM19 2C21.2091 2 23 3.79086 23 6V15C23 17.2091 21.2091 19 19 19V17C20.1046 17 21 16.1046 21 15V6C21 4.89543 20.1046 4 19 4H5C3.89543 4 3 4.89543 3 6V15C3 16.1046 3.89543 17 5 17V19C2.79086 19 1 17.2091 1 15V6C1 3.79086 2.79086 2 5 2H19Z" fill="#141414"/>
</svg>
