<svg width="24" height="24" viewBox="0 0 24 24" fill="none" xmlns="http://www.w3.org/2000/svg">
<path d="M15 2C18.866 2 22 5.13401 22 9V10H20V16H22V17C22 19.7614 19.7614 22 17 22H7C4.23858 22 2 19.7614 2 17V16H4V10H2V9C2 5.13401 5.13401 2 9 2H15ZM4.17383 18C4.58594 19.1647 5.69415 20 7 20H17C18.3059 20 19.4141 19.1647 19.8262 18H4.17383ZM6 16H18V14H6V16ZM6 12H18V10H6V12ZM9 4C6.58108 4 4.5639 5.71781 4.10059 8H19.8994C19.4361 5.71781 17.4189 4 15 4H9ZM8 5C8.55228 5 9 5.44772 9 6C9 6.55228 8.55228 7 8 7C7.44772 7 7 6.55228 7 6C7 5.44772 7.44772 5 8 5ZM12 5C12.5523 5 13 5.44772 13 6C13 6.55228 12.5523 7 12 7C11.4477 7 11 6.55228 11 6C11 5.44772 11.4477 5 12 5ZM16 5C16.5523 5 17 5.44772 17 6C17 6.55228 16.5523 7 16 7C15.4477 7 15 6.55228 15 6C15 5.44772 15.4477 5 16 5Z" fill="#141414"/>
</svg>
