<svg width="24" height="24" viewBox="0 0 24 24" fill="none" xmlns="http://www.w3.org/2000/svg">
<path d="M22.6064 21.9199L21.1924 23.334L19.7803 21.9219C19.5279 21.972 19.2672 22 19 22H5C2.79086 22 1 20.2091 1 18V9C1 7.41568 1.92095 6.04621 3.25684 5.39844L0.686523 2.82812L2.10059 1.41406L22.6064 21.9199ZM4.86523 7.00684C3.82358 7.07622 3 7.94077 3 9V18C3 19.1046 3.89543 20 5 20H17.8584L14.917 17.0586C14.0957 17.6499 13.0892 18 12 18C9.23858 18 7 15.7614 7 13C7 11.9108 7.34941 10.9036 7.94043 10.082L4.86523 7.00684ZM14.7637 2C15.8999 2 16.9391 2.64191 17.4473 3.6582L17.8418 4.44727C18.0112 4.78599 18.3576 5 18.7363 5H19C21.2091 5 23 6.79086 23 9V18C23 18.4462 22.9248 18.8746 22.79 19.2754L21 17.4854V9C21 7.89543 20.1046 7 19 7H18.7363C17.6 7 16.5609 6.35809 16.0527 5.3418L15.6582 4.55273C15.4888 4.21401 15.1424 4 14.7637 4H9.23633C8.8576 4 8.51121 4.21401 8.3418 4.55273L8.25 4.73535L6.78516 3.27051C7.34174 2.48159 8.25241 2 9.23633 2H14.7637ZM9.38672 11.5283C9.14099 11.963 9 12.4648 9 13C9 14.6569 10.3431 16 12 16C12.5352 16 13.0363 15.8581 13.4707 15.6123L9.38672 11.5283ZM12 8C14.7614 8 17 10.2386 17 13C17 13.1561 16.9915 13.3104 16.9775 13.4629L11.5361 8.02148C11.6889 8.00743 11.8436 8 12 8Z" fill="#141414"/>
</svg>
