<svg width="24" height="24" viewBox="0 0 24 24" fill="none" xmlns="http://www.w3.org/2000/svg">
<path d="M12 1C13.6569 1 15 2.34315 15 4V14C16.2131 14.9112 17 16.3632 17 18C17 20.7615 14.7612 23 12 23C9.23876 23 7 20.7615 7 18C7 16.3632 7.7869 14.9112 9 14V4C9 2.34315 10.3431 1 12 1ZM12 3C11.4477 3 11 3.44772 11 4V15.1123L10.501 15.4004C9.60156 15.9206 9 16.8908 9 18C9 19.6569 10.3433 21 12 21C13.6567 21 15 19.6569 15 18C15 16.8908 14.3984 15.9206 13.499 15.4004L13 15.1123V4C13 3.44772 12.5523 3 12 3ZM12 16.5C12.8284 16.5 13.5 17.1716 13.5 18C13.5 18.8284 12.8284 19.5 12 19.5C11.1716 19.5 10.5 18.8284 10.5 18C10.5 17.1716 11.1716 16.5 12 16.5Z" fill="#141414"/>
</svg>
