<svg width="24" height="24" viewBox="0 0 24 24" fill="none" xmlns="http://www.w3.org/2000/svg">
<path fill-rule="evenodd" clip-rule="evenodd" d="M12 1C18.0768 1 23 5.93443 23 12.0176C23 15.0499 21.8936 17.6882 19.7793 19.8066C15.7206 23.8731 9.02425 24.0836 4.72266 20.2803C2.4408 18.2627 1.00002 15.3077 1 12.0176C1 8.9757 2.23196 6.21944 4.22168 4.22656C6.21099 2.23414 8.96251 1 12 1ZM15.998 9C16.6271 9.83748 17 10.8788 17 12.0068C17 12.9329 16.7445 13.7801 16.3115 14.501L12.7158 20.9717C14.7916 20.8084 16.8165 19.9443 18.3643 18.3936C20.1063 16.648 21 14.5169 21 12.0176C21 10.9592 20.8176 9.94337 20.4834 9H15.998ZM3.96387 7.95215C3.34708 9.17356 3 10.5546 3 12.0176C3.00002 14.7113 4.17769 17.1277 6.04785 18.7812C7.32836 19.9134 8.87345 20.6097 10.4805 20.876L12.6758 16.9268C11.3315 17.1411 9.8874 16.8192 8.69141 15.7617C8.13004 15.2654 7.68108 14.6434 7.38672 13.9395L3.96387 7.95215ZM12 9C11.1721 9 10.424 9.33504 9.87988 9.87988C9.33565 10.425 9.00004 11.1756 9 12.0068C9 12.4049 9.07648 12.7829 9.21484 13.1279C9.39058 13.5661 9.66745 13.9539 10.0166 14.2627C11.4611 15.5399 13.6601 15.0166 14.5908 13.4814C14.8476 13.058 15 12.5614 15 12.0068C14.9999 10.3445 13.6552 9 12 9ZM12 3C9.51528 3 7.26659 4.00719 5.63672 5.63965C5.48878 5.78782 5.34637 5.9415 5.20898 6.09961L7.42676 9.98047C7.67815 9.41246 8.03173 8.89965 8.46387 8.4668C9.36743 7.5618 10.6191 7 12 7H19.4795C17.864 4.58737 15.1163 3 12 3Z" fill="#141414"/>
</svg>
