<svg width="24" height="24" viewBox="0 0 24 24" fill="none" xmlns="http://www.w3.org/2000/svg">
<path d="M20 17C21.1046 17 22 17.8954 22 19V21C22 22.1046 21.1046 23 20 23H18C16.8954 23 16 22.1046 16 21V19C16 17.8954 16.8954 17 18 17H20ZM7 13H6C4.34315 13 3 14.3431 3 16C3 17.6569 4.34315 19 6 19H14V21H6C3.23858 21 1 18.7614 1 16C1 13.2386 3.23858 11 6 11H7V13ZM18 21H20V19H18V21ZM13 9C14.1046 9 15 9.89543 15 11V13C15 14.1046 14.1046 15 13 15H11C9.89543 15 9 14.1046 9 13V11C9 9.89543 9.89543 9 11 9H13ZM11 13H13V11H11V13ZM18 3C20.7614 3 23 5.23858 23 8C23 10.7614 20.7614 13 18 13H17V11H18C19.6569 11 21 9.65685 21 8C21 6.34315 19.6569 5 18 5H10V3H18ZM6 1C7.10457 1 8 1.89543 8 3V5C8 6.10457 7.10457 7 6 7H4C2.89543 7 2 6.10457 2 5V3C2 1.89543 2.89543 1 4 1H6ZM4 5H6V3H4V5Z" fill="#141414"/>
</svg>
