<svg width="24" height="24" viewBox="0 0 24 24" fill="none" xmlns="http://www.w3.org/2000/svg">
<path d="M12 1.5C14.1156 1.5 16.1006 2.07496 17.7871 3.07227C16.9864 3.23794 16.2856 3.67738 15.7871 4.28809C14.6393 3.78446 13.3582 3.5 12 3.5C6.98048 3.5 3 7.35329 3 12C3 13.6318 3.48629 15.1561 4.33301 16.4531C4.47751 16.6745 4.52829 16.9443 4.47461 17.2031L3.80566 20.4297L7.2793 19.5322L7.36426 19.5137C7.56555 19.48 7.77342 19.5084 7.95898 19.5967C9.17179 20.1735 10.5435 20.5 12 20.5C17.0195 20.5 21 16.6467 21 12C21 11.0729 20.8385 10.1785 20.5449 9.33887C21.1949 8.86984 21.6775 8.18422 21.8857 7.38672C22.5983 8.77546 23 10.3395 23 12C23 17.8467 18.0262 22.5 12 22.5C10.3748 22.5 8.82885 22.1623 7.43652 21.5557L3.52832 22.5674C2.45279 22.8454 1.45829 21.8983 1.68359 20.8105L2.43457 17.1875C1.52303 15.6588 1 13.8877 1 12C1 6.1533 5.97382 1.5 12 1.5Z" fill="#141414"/>
<path d="M21 6.5C21 5.11929 19.8807 4 18.5 4C17.1193 4 16 5.11929 16 6.5C16 7.88071 17.1193 9 18.5 9C19.8807 9 21 7.88071 21 6.5ZM23 6.5C23 8.98528 20.9853 11 18.5 11C16.0147 11 14 8.98528 14 6.5C14 4.01472 16.0147 2 18.5 2C20.9853 2 23 4.01472 23 6.5Z" fill="#141414"/>
</svg>
