<svg width="24" height="24" viewBox="0 0 24 24" fill="none" xmlns="http://www.w3.org/2000/svg">
<path d="M12 1C14.2091 1 16 2.79086 16 5C16 6.86384 14.7252 8.42998 13 8.87402V11.0283C15.235 11.1575 17.2779 11.7167 18.8496 12.5898C20.6192 13.5729 22 15.0912 22 17C22 18.9088 20.6192 20.4271 18.8496 21.4102C17.0462 22.412 14.6224 23 12 23C9.37759 23 6.9538 22.412 5.15039 21.4102C3.38084 20.4271 2 18.9088 2 17C2 15.0912 3.38084 13.5729 5.15039 12.5898C6.72212 11.7167 8.76503 11.1575 11 11.0283V8.87402C9.27477 8.42998 8 6.86384 8 5C8 2.79086 9.79086 1 12 1ZM13 15.2695C13.5973 15.6155 14 16.2601 14 17C14 18.1046 13.1046 19 12 19C10.8954 19 10 18.1046 10 17C10 16.2601 10.4027 15.6155 11 15.2695V13.0332C9.06493 13.16 7.36583 13.6479 6.12207 14.3389C4.63427 15.1654 4 16.1474 4 17C4 17.8526 4.63427 18.8346 6.12207 19.6611C7.57599 20.4688 9.65205 21 12 21C14.3479 21 16.424 20.4688 17.8779 19.6611C19.3657 18.8346 20 17.8526 20 17C20 16.1474 19.3657 15.1654 17.8779 14.3389C16.6342 13.6479 14.9351 13.16 13 13.0332V15.2695ZM12 3C10.8954 3 10 3.89543 10 5C10 6.10457 10.8954 7 12 7C13.1046 7 14 6.10457 14 5C14 3.89543 13.1046 3 12 3Z" fill="#141414"/>
</svg>
