<svg width="24" height="24" viewBox="0 0 24 24" fill="none" xmlns="http://www.w3.org/2000/svg">
<path d="M14 0C15.6569 0 17 1.34315 17 3V4C19.2091 4 21 5.79086 21 8V20C21 22.2091 19.2091 24 17 24H7C4.79086 24 3 22.2091 3 20V8C3 5.79086 4.79086 4 7 4V3C7 1.34315 8.34315 0 10 0H14ZM7 6C5.89543 6 5 6.89543 5 8V20C5 21.1046 5.89543 22 7 22H17C18.1046 22 19 21.1046 19 20V8C19 6.89543 18.1046 6 17 6H7ZM10.5 18H8.5V10H10.5V18ZM15.5 18H13.5V10H15.5V18ZM10 2C9.44772 2 9 2.44772 9 3V4H15V3C15 2.44772 14.5523 2 14 2H10Z" fill="#141414"/>
</svg>
