<svg width="24" height="24" viewBox="0 0 24 24" fill="none" xmlns="http://www.w3.org/2000/svg">
<path d="M9.77837 1.29297C10.1689 0.902478 10.8019 0.902454 11.1924 1.29297L19.6778 9.77834C21.2397 11.3405 21.2389 13.8726 19.6768 15.4346L21.7989 17.5567C22.9703 18.7283 22.9704 20.6273 21.7989 21.7989C20.6274 22.9704 18.7283 22.9703 17.5567 21.7989L15.4346 19.6768V19.6778C13.8726 21.2395 11.3404 21.2396 9.77837 19.6778L1.293 11.1924C0.902485 10.8019 0.902508 10.1689 1.293 9.77834L9.77837 1.29297ZM16.8497 18.2637L18.9708 20.3848C19.3613 20.7752 19.9944 20.7753 20.3848 20.3848C20.7753 19.9943 20.7752 19.3613 20.3848 18.9707L18.2637 16.8496L16.8497 18.2637ZM10.4854 17.5567L11.1924 18.2637C11.9734 19.0445 13.2396 19.0444 14.0206 18.2637L18.2637 14.0205C19.0445 13.2395 19.0445 11.9734 18.2637 11.1924L17.5567 10.4854L10.4854 17.5567ZM3.4141 10.4854L9.07133 16.1426L16.1426 9.0713L10.4854 3.41407L3.4141 10.4854Z" fill="#141414"/>
</svg>
