<svg width="24" height="24" viewBox="0 0 24 24" fill="none" xmlns="http://www.w3.org/2000/svg">
<path d="M18 2C20.2091 2 22 3.79086 22 6V18C22 20.2091 20.2091 22 18 22H6C3.79086 22 2 20.2091 2 18V6C2 3.79086 3.79086 2 6 2H18ZM6 4C4.89543 4 4 4.89543 4 6V18C4 19.1046 4.89543 20 6 20H18C19.1046 20 20 19.1046 20 18V6C20 4.89543 19.1046 4 18 4H6ZM17.707 11.293C18.0975 11.6835 18.0975 12.3165 17.707 12.707L13.207 17.207L11.793 15.793L14.5859 13H7V11H14.5859L11.793 8.20703L13.207 6.79297L17.707 11.293Z" fill="#141414"/>
</svg>
