<svg width="24" height="24" viewBox="0 0 24 24" fill="none" xmlns="http://www.w3.org/2000/svg">
<path d="M16 3C17.6569 3 19 4.34315 19 6V8C19 9.60511 17.7394 10.9158 16.1543 10.9961L16 11H13V13H19C20.6569 13 22 14.3431 22 16V18C22 19.6569 20.6569 21 19 21H13V23H11V21H5C3.34315 21 2 19.6569 2 18V16C2 14.3431 3.34315 13 5 13H11V11H8C6.34315 11 5 9.65685 5 8V6C5 4.34315 6.34315 3 8 3H11V1H13V3H16ZM5 15C4.44772 15 4 15.4477 4 16V18C4 18.5523 4.44772 19 5 19H19C19.5523 19 20 18.5523 20 18V16C20 15.4477 19.5523 15 19 15H5ZM8 5C7.44772 5 7 5.44772 7 6V8C7 8.55228 7.44772 9 8 9H16L16.1025 8.99512C16.6067 8.94379 17 8.51768 17 8V6C17 5.44772 16.5523 5 16 5H8Z" fill="#141414"/>
</svg>
