<svg width="24" height="24" viewBox="0 0 24 24" fill="none" xmlns="http://www.w3.org/2000/svg">
<path d="M12 1C18.0751 1 23 5.92487 23 12C23 18.0751 18.0751 23 12 23C5.92487 23 1 18.0751 1 12C1 5.92487 5.92487 1 12 1ZM12 3C7.02944 3 3 7.02944 3 12C3 16.9706 7.02944 21 12 21C16.9706 21 21 16.9706 21 12C21 7.02944 16.9706 3 12 3ZM16.9775 8.57617C17.8667 9.67503 18.4003 11.0766 18.4004 12.5996C18.4004 16.1342 15.5346 19 12 19C8.4654 19 5.59961 16.1342 5.59961 12.5996C5.5997 11.0766 6.13326 9.67503 7.02246 8.57617L8.57715 9.83496C7.96569 10.5907 7.5997 11.5511 7.59961 12.5996C7.59961 15.0296 9.56997 17 12 17C14.4301 17 16.4004 15.0297 16.4004 12.5996C16.4003 11.5511 16.0343 10.5907 15.4229 9.83496L16.9775 8.57617ZM13 13H11V6H13V13Z" fill="#141414"/>
</svg>
