<svg width="24" height="24" viewBox="0 0 24 24" fill="none" xmlns="http://www.w3.org/2000/svg">
<path d="M19.2764 1C21.5584 3.01413 23 5.96447 23 9.25C22.9999 14.9879 18.6064 19.6999 13 20.2051V21H15.5V23H8.5V21H11V20.2051C8.7134 19.9989 6.62777 19.0924 4.96094 17.7031L2.41406 20.25L1 18.8359L6.39355 13.4414C5.51908 12.2733 5.00006 10.8216 5 9.25C5 5.38402 8.13402 2.25002 12 2.25C15.866 2.25 19 5.38401 19 9.25C18.9999 13.1159 15.8659 16.25 12 16.25C10.4281 16.25 8.97585 15.7311 7.80762 14.8564L6.38184 16.2812C7.92196 17.5135 9.87459 18.25 12 18.25C16.9705 18.25 20.9999 14.2204 21 9.25C21 6.56208 19.8232 4.14961 17.9531 2.49902L19.2764 1ZM12 4.25C9.23859 4.25002 7 6.48859 7 9.25C7.00007 10.6309 7.55898 11.8793 8.46484 12.7852C9.37074 13.691 10.6191 14.25 12 14.25C14.7613 14.25 16.9999 12.0113 17 9.25C17 6.48858 14.7614 4.25 12 4.25Z" fill="#141414"/>
</svg>
