<svg width="24" height="24" viewBox="0 0 24 24" fill="none" xmlns="http://www.w3.org/2000/svg">
<path d="M10 6C10 4.89543 9.10457 4 8 4C6.89543 4 6 4.89543 6 6H10ZM12 15.7324L15.5137 13H8.48633L12 15.7324ZM4 9.51074L5.91504 11H10.4385L12.1699 8H4V9.51074ZM12.748 11H18.085L20 9.51074V8H14.4795L12.748 11ZM16.5 0.5L18.2324 1.5L15.6348 6H21C21.5523 6 22 6.44772 22 7V10C22 10.3084 21.8576 10.5996 21.6143 10.7891L13 17.4883V20H18V22H6V20H11V17.4883L2.38574 10.7891C2.14236 10.5996 2 10.3084 2 10V7C2 6.44772 2.44772 6 3 6H4C4 3.79086 5.79086 2 8 2C10.2091 2 12 3.79086 12 6H13.3242L16.5 0.5Z" fill="#141414"/>
</svg>
