<svg width="24" height="24" viewBox="0 0 24 24" fill="none" xmlns="http://www.w3.org/2000/svg">
<path d="M10 1C12.7614 1 15 3.23858 15 6V15.5C15 17.1569 13.6569 18.5 12 18.5C10.3431 18.5 9 17.1569 9 15.5V6H11V15.5C11 16.0523 11.4477 16.5 12 16.5C12.5523 16.5 13 16.0523 13 15.5V6C13 4.34315 11.6569 3 10 3C8.34315 3 7 4.34315 7 6V16C7 18.7614 9.23858 21 12 21C14.7614 21 17 18.7614 17 16V8.5459H19V16C19 19.866 15.866 23 12 23C8.13401 23 5 19.866 5 16V6C5 3.23858 7.23858 1 10 1Z" fill="#141414"/>
</svg>
