<svg width="24" height="24" viewBox="0 0 24 24" fill="none" xmlns="http://www.w3.org/2000/svg">
<path d="M14.0273 2.16175C15.9743 1.4945 17.9998 2.94148 18 4.99964V5.99964C20.209 5.99964 21.9998 7.79067 22 9.99965V17.9997C22 20.2088 20.2091 21.9997 18 21.9997H3C2.44772 21.9997 2 21.5519 2 20.9997V6.99964C2.00016 6.54827 2.29907 6.16582 2.70996 6.04163L14.0273 2.16175ZM4 19.9997H18C19.1046 19.9997 20 19.1042 20 17.9997V9.99965C19.9998 8.89524 19.1045 7.99964 18 7.99964H4V19.9997ZM16.5 9.99965C17.3283 9.99965 17.9998 10.6714 18 11.4996C18 12.3281 17.3284 12.9996 16.5 12.9996C15.6716 12.9996 15 12.3281 15 11.4996C15.0002 10.6714 15.6717 9.99965 16.5 9.99965ZM16 4.99964C15.9998 4.31367 15.3247 3.83185 14.6758 4.05433L9.00098 5.99964H16V4.99964Z" fill="#141414"/>
</svg>
