<svg width="24" height="24" viewBox="0 0 24 24" fill="none" xmlns="http://www.w3.org/2000/svg">
<path d="M14.0817 1.35806C15.6562 0.651028 17.5014 1.41473 18.1149 3.02798L18.9156 5.13443L21.0221 5.93619C22.6356 6.54961 23.3992 8.39471 22.692 9.96939L21.7692 12.0251L22.693 14.0817C23.4 15.6562 22.6362 17.5013 21.0231 18.1149L18.9156 18.9147L18.1149 21.0221C17.5015 22.6355 15.6563 23.3999 14.0817 22.693L12.025 21.7692L9.96936 22.693C8.39488 23.4 6.54973 22.6362 5.93615 21.0231L5.13537 18.9147L3.02893 18.1149C1.41546 17.5016 0.651095 15.6563 1.35803 14.0817L2.28088 12.0251L1.35803 9.96939C0.650997 8.39486 1.41471 6.54971 3.02795 5.93619L5.13537 5.13443L5.93615 3.02896C6.54949 1.41545 8.3947 0.651033 9.96936 1.35806L12.025 2.28091L14.0817 1.35806ZM16.2457 3.73892C16.0412 3.20114 15.4259 2.94662 14.901 3.18228L12.4352 4.2897C12.1746 4.40667 11.8764 4.40668 11.6158 4.2897L9.15002 3.18228C8.62531 2.94679 8.01086 3.20143 7.80627 3.73892L6.84533 6.26529C6.74387 6.53218 6.53307 6.7438 6.26623 6.84537L3.73889 7.80533C3.20109 8.00981 2.94656 8.62519 3.18225 9.15005L4.28967 11.6159C4.40665 11.8764 4.40669 12.1747 4.28967 12.4352L3.18225 14.901C2.94675 15.4258 3.20134 16.0402 3.73889 16.2448L6.26525 17.2057L6.36291 17.2487C6.5835 17.3607 6.75648 17.5513 6.84533 17.7848L7.80529 20.3122C8.00983 20.8499 8.6252 21.1045 9.15002 20.8688L11.6158 19.7614L11.7154 19.7233C11.9506 19.6466 12.2072 19.659 12.4352 19.7614L14.901 20.8688C15.4257 21.1043 16.0401 20.8496 16.2447 20.3122L17.2057 17.7848C17.3072 17.518 17.518 17.3072 17.7848 17.2057L20.3121 16.2458C20.8498 16.0412 21.1044 15.4258 20.8688 14.901L19.7613 12.4352C19.6444 12.1747 19.6443 11.8764 19.7613 11.6159L20.8688 9.15005C21.1042 8.62539 20.8495 8.01094 20.3121 7.8063L17.7848 6.84537C17.518 6.74388 17.3072 6.53301 17.2057 6.26627L16.2457 3.73892ZM13.9283 13.9284C14.4609 13.3959 15.3245 13.3959 15.8571 13.9284C16.3894 14.4609 16.3895 15.3246 15.8571 15.8571C15.3246 16.3896 14.4609 16.3894 13.9283 15.8571C13.3958 15.3246 13.3958 14.4609 13.9283 13.9284ZM15.9215 9.49283L9.49279 15.9215L8.07873 14.5065L14.5065 8.07877L15.9215 9.49283ZM8.14318 8.14322C8.67572 7.61075 9.53938 7.61071 10.0719 8.14322C10.6041 8.67575 10.6043 9.53949 10.0719 10.0719C9.53946 10.6044 8.67574 10.6042 8.14318 10.0719C7.61065 9.5394 7.61065 8.67575 8.14318 8.14322Z" fill="#141414"/>
</svg>
