<svg width="24" height="24" viewBox="0 0 24 24" fill="none" xmlns="http://www.w3.org/2000/svg">
<path d="M16 1C19.866 1 23 4.13401 23 8C23 11.866 19.866 15 16 15C15.632 15 15.2702 14.9719 14.917 14.917C14.9718 15.27 15 15.6317 15 16C15 19.866 11.866 23 8 23C4.13401 23 1 19.866 1 16C1 12.134 4.13401 9 8 9C8.36833 9 8.73005 9.02819 9.08301 9.08301C9.02808 8.72978 9 8.368 9 8C9 4.13401 12.134 1 16 1ZM22.8682 17.6924C22.0885 19.0544 20.8792 20.1474 19.4229 20.8018L20.0605 21.0879L19.2412 22.9121L15.8467 21.3887C15.5823 21.2699 15.3824 21.0422 15.2988 20.7646C15.2153 20.4869 15.2569 20.1864 15.4121 19.9414L17.3418 16.8936L19.0322 17.9639L18.3135 19.0977C19.519 18.635 20.514 17.7786 21.1318 16.6992L22.8682 17.6924ZM8 11C5.23858 11 3 13.2386 3 16C3 18.7614 5.23858 21 8 21C10.7614 21 13 18.7614 13 16C13 13.2386 10.7614 11 8 11ZM16 3C13.2386 3 11 5.23858 11 8C11 8.65704 11.1267 9.28217 11.3555 9.85449C12.5311 10.4978 13.5022 11.4689 14.1455 12.6445C14.7179 12.8733 15.3431 13 16 13C18.7614 13 21 10.7614 21 8C21 5.23858 18.7614 3 16 3ZM8.35938 2.87988C8.5969 3.01444 8.76904 3.24023 8.83594 3.50488C8.90277 3.76947 8.85884 4.05007 8.71387 4.28125L6.7832 7.35742L5.08887 6.29395L5.82422 5.12305C4.54208 5.61106 3.4968 6.54399 2.8877 7.7168L1.1123 6.79492C1.93577 5.20936 3.32802 3.95778 5.02246 3.28809L4.28516 2.87012L5.27051 1.12988L8.35938 2.87988Z" fill="#141414"/>
</svg>
