<svg width="24" height="24" viewBox="0 0 24 24" fill="none" xmlns="http://www.w3.org/2000/svg">
<path d="M8 2C9.65685 2 11 3.34315 11 5V11H13V8C13 6.34315 14.3431 5 16 5H18C19.6569 5 21 6.34315 21 8V11H23V13H21V16C21 17.6569 19.6569 19 18 19H16C14.3949 19 13.0842 17.7394 13.0039 16.1543L13 16V13H11V19C11 20.6569 9.65685 22 8 22H6C4.34315 22 3 20.6569 3 19V13H1V11H3V5C3 3.34315 4.34315 2 6 2H8ZM6 4C5.44772 4 5 4.44772 5 5V19C5 19.5523 5.44772 20 6 20H8C8.55228 20 9 19.5523 9 19V5C9 4.44772 8.55228 4 8 4H6ZM16 7C15.4477 7 15 7.44772 15 8V16L15.0049 16.1025C15.0562 16.6067 15.4823 17 16 17H18C18.5523 17 19 16.5523 19 16V8C19 7.44772 18.5523 7 18 7H16Z" fill="#141414"/>
</svg>
