<svg width="24" height="24" viewBox="0 0 24 24" fill="none" xmlns="http://www.w3.org/2000/svg">
<path d="M7.5 4.13523C7.50022 2.43973 9.47769 1.51363 10.7803 2.59908L14.2188 5.46435C15.1775 6.26395 15.1776 7.73714 14.2188 8.53665L10.0615 12.0006L14.2188 15.4645C15.1775 16.2641 15.1776 17.7373 14.2188 18.5368L10.7803 21.402C9.47779 22.4871 7.50054 21.561 7.5 19.8659V14.1353L3.14062 17.7692L1.85938 16.232L6.93652 12.0006L1.85938 7.76906L3.14062 6.23193L7.5 9.86479V4.13523ZM9.5 19.8659L12.9375 17.0006L9.5 14.1353V19.8659ZM15.0088 11.0005C15.5604 11.0006 16.0078 11.4483 16.0078 12.0006C16.0076 12.5526 15.5602 13.0005 15.0088 13.0006H14.999C14.4476 13.0006 14.0002 12.5527 14 12.0006C14 11.4483 14.4474 11.0005 14.999 11.0005H15.0088ZM18.0049 11.0005C18.5565 11.0005 19.0039 11.4483 19.0039 12.0006C19.0037 12.5527 18.5563 13.0006 18.0049 13.0006H17.9951C17.4437 13.0006 16.9963 12.5527 16.9961 12.0006C16.9961 11.4483 17.4435 11.0005 17.9951 11.0005H18.0049ZM21.001 11.0005C21.5526 11.0005 22 11.4483 22 12.0006C21.9998 12.5527 21.5524 13.0006 21.001 13.0006H20.9912C20.4398 13.0005 19.9924 12.5526 19.9922 12.0006C19.9922 11.4483 20.4396 11.0006 20.9912 11.0005H21.001ZM9.5 9.86479L12.9375 7.0005L9.5 4.13523V9.86479Z" fill="#141414"/>
</svg>
