<svg width="24" height="24" viewBox="0 0 24 24" fill="none" xmlns="http://www.w3.org/2000/svg">
<path d="M12.7578 1C13.8185 1.00012 14.8359 1.42184 15.5859 2.17188L19.8281 6.41406C20.5782 7.1641 20.9999 8.18149 21 9.24219V19C21 21.2091 19.2091 23 17 23H7C4.79086 23 3 21.2091 3 19V5C3 2.79086 4.79086 1 7 1H12.7578ZM7 3C5.89543 3 5 3.89543 5 5V19C5 20.1046 5.89543 21 7 21H17C18.1046 21 19 20.1046 19 19V9.24219C19 9.16074 18.9932 9.08003 18.9834 9H17C14.7909 9 13 7.20914 13 5V3.01562C12.92 3.00584 12.8392 3.00002 12.7578 3H7ZM12 16C12.8284 16 13.5 16.6716 13.5 17.5C13.5 18.3284 12.8284 19 12 19C11.1716 19 10.5 18.3284 10.5 17.5C10.5 16.6716 11.1716 16 12 16ZM12 9C13.6569 9 15 10.3431 15 12C15 13.3071 14.1646 14.4162 13 14.8281V15H11V14.5C11 13.6284 11.6871 13.1116 12.248 12.9688C12.6808 12.8586 13 12.4655 13 12C13 11.4477 12.5523 11 12 11C11.4477 11 11 11.4477 11 12H9C9 10.3431 10.3431 9 12 9ZM15 5C15 6.10457 15.8954 7 17 7H17.5859L15 4.41406V5Z" fill="#141414"/>
</svg>
