<svg width="24" height="24" viewBox="0 0 24 24" fill="none" xmlns="http://www.w3.org/2000/svg">
<path d="M11 2C15.9706 2 20 6.02944 20 11C20 13.125 19.2639 15.0785 18.0322 16.6182L23 21.5859L21.5859 23L16.6182 18.0322C15.0785 19.2639 13.125 20 11 20C6.02944 20 2 15.9706 2 11C2 6.02944 6.02944 2 11 2ZM11 4C7.13401 4 4 7.13401 4 11C4 14.866 7.13401 18 11 18C12.8859 18 14.5977 17.2538 15.8564 16.041C15.8827 16.0069 15.9121 15.9746 15.9434 15.9434C15.9746 15.9121 16.0069 15.8827 16.041 15.8564C17.2538 14.5977 18 12.8859 18 11C18 7.13401 14.866 4 11 4ZM15 12H7V10H15V12Z" fill="#141414"/>
</svg>
