<svg width="24" height="24" viewBox="0 0 24 24" fill="none" xmlns="http://www.w3.org/2000/svg">
<path d="M12 3C9.51528 3 7.26659 4.00719 5.63672 5.63965C4.00649 7.27249 3 9.52637 3 12.0176C3.00001 12.7551 3.08793 13.4709 3.25391 14.1553C5.29466 14.4968 9.39034 14.0838 12.9629 10H9V8H14.7998C15.4625 8 16 8.53745 16 9.2002V15.2969H14V11.832C10.578 15.4424 6.70665 16.3478 4.0459 16.2402C4.55671 17.2039 5.23707 18.0644 6.04785 18.7812C9.55655 21.8835 15.0522 21.7119 18.3643 18.3936C20.1063 16.648 21 14.5169 21 12.0176H23C23 15.0499 21.8936 17.6882 19.7793 19.8066C15.7206 23.8731 9.02425 24.0836 4.72266 20.2803C3.23313 18.9633 2.10233 17.2468 1.49609 15.2969C1.17366 14.2598 1.00001 13.158 1 12.0176C1 8.9757 2.23196 6.21944 4.22168 4.22656C6.21099 2.23414 8.96251 1 12 1V3ZM23 10H19.5V8H23V10ZM21.707 3.70703L19.207 6.20703L17.793 4.79297L20.293 2.29297L21.707 3.70703ZM16 4.5H14V1H16V4.5Z" fill="#141414"/>
</svg>
