<svg width="24" height="24" viewBox="0 0 24 24" fill="none" xmlns="http://www.w3.org/2000/svg">
<path d="M12 1C18.0751 1 23 5.92487 23 12C23 18.0751 18.0751 23 12 23C5.92487 23 1 18.0751 1 12C1 5.92487 5.92487 1 12 1ZM12 16C10.7718 16 9.60399 16.0966 8.52734 16.2676C8.78381 17.2415 9.12173 18.1035 9.5127 18.8203C10.4506 20.5399 11.4181 21 12 21C12.5819 21 13.5494 20.5399 14.4873 18.8203C14.8782 18.1035 15.2152 17.2414 15.4717 16.2676C14.3953 16.0967 13.2278 16 12 16ZM6.57129 16.6865C5.90369 16.8705 5.29164 17.0857 4.74609 17.3262C5.56854 18.4444 6.64358 19.3638 7.88672 20.0039C7.34289 19.0639 6.8939 17.9405 6.57129 16.6865ZM17.4277 16.6865C17.1051 17.9406 16.6562 19.0639 16.1123 20.0039C17.3556 19.3638 18.4304 18.4444 19.2529 17.3262C18.7073 17.0857 18.0953 16.8705 17.4277 16.6865ZM3.74316 8.41309C3.26509 9.51206 3 10.7251 3 12C3 13.2747 3.26619 14.4871 3.74414 15.5859C4.47725 15.2475 5.29691 14.9545 6.18457 14.7178C6.06408 13.8485 6 12.938 6 12C6 11.0617 6.06399 10.1508 6.18457 9.28125C5.29653 9.04445 4.4765 8.75168 3.74316 8.41309ZM20.2549 8.41309C19.5217 8.75147 18.7022 9.04457 17.8145 9.28125C17.935 10.1508 18 11.0616 18 12C18 12.938 17.935 13.8485 17.8145 14.7178C18.7021 14.9544 19.5217 15.2476 20.2549 15.5859C20.7329 14.487 21 13.2749 21 12C21 10.7248 20.7332 9.51225 20.2549 8.41309ZM15.8516 9.69629C14.6364 9.89303 13.3394 10 12 10C10.6602 10 9.36285 9.89313 8.14746 9.69629C8.05235 10.4275 8 11.1986 8 12C8 12.8011 8.05243 13.5718 8.14746 14.3027C9.36281 14.1059 10.6603 14 12 14C13.3394 14 14.6365 14.106 15.8516 14.3027C15.9466 13.5718 16 12.8011 16 12C16 11.1985 15.9467 10.4275 15.8516 9.69629ZM12 3C11.4181 3 10.4506 3.46013 9.5127 5.17969C9.12185 5.8963 8.78378 6.75792 8.52734 7.73145C9.60403 7.90248 10.7718 8 12 8C13.2279 8 14.3953 7.90239 15.4717 7.73145C15.2152 6.75802 14.8781 5.89624 14.4873 5.17969C13.5494 3.46013 12.5819 3 12 3ZM7.88672 3.99512C6.64388 4.63503 5.5685 5.5541 4.74609 6.67188C5.29176 6.91245 5.9035 7.12846 6.57129 7.3125C6.89397 6.05853 7.34283 4.93505 7.88672 3.99512ZM16.1123 3.99512C16.6563 4.93508 17.105 6.05843 17.4277 7.3125C18.0954 7.12854 18.7073 6.91333 19.2529 6.67285C18.4303 5.55476 17.3555 4.63508 16.1123 3.99512Z" fill="#141414"/>
</svg>
