<svg width="24" height="24" viewBox="0 0 24 24" fill="none" xmlns="http://www.w3.org/2000/svg">
<path fill-rule="evenodd" clip-rule="evenodd" d="M1.10986 12.4616C1.10617 12.4531 1.10267 12.445 1.09946 12.4375L1.10986 12.4616ZM1.08 12.3906C1.07904 12.3881 1.08083 12.3928 1.08 12.3906V12.3906Z" fill="#141414"/>
<path fill-rule="evenodd" clip-rule="evenodd" d="M22.929 12.3709C23.0233 12.1338 23.0234 11.8662 22.9293 11.629C23.0244 11.8671 23.0241 12.1328 22.929 12.3709Z" fill="#141414"/>
<path d="M20.3817 7.59473C18.6488 5.5954 15.8957 3.50025 12.0008 3.5C10.6919 3.50002 9.51143 3.73691 8.45588 4.12695L10.0574 5.72852C10.6637 5.58237 11.3114 5.50001 12.0008 5.5C15.105 5.50024 17.353 7.15496 18.8699 8.90527C19.6259 9.77762 20.1823 10.6541 20.5487 11.3135C20.7004 11.5866 20.8167 11.8218 20.9022 12C20.8167 12.1781 20.7003 12.4135 20.5487 12.6865C20.2245 13.27 19.7503 14.0228 19.1219 14.793L20.5418 16.2129C21.3272 15.2755 21.9082 14.3566 22.2967 13.6572C22.5046 13.283 22.6601 12.9688 22.7645 12.7451C22.8165 12.6335 22.8563 12.5439 22.8836 12.4805L22.8918 12.4615C22.9017 12.4386 22.9099 12.4196 22.9158 12.4053C22.9183 12.3994 22.9203 12.394 22.9221 12.3894C22.9213 12.3913 22.923 12.3869 22.9221 12.3894C22.9231 12.3869 22.929 12.3709 22.929 12.3709C23.0241 12.1328 23.0244 11.8671 22.9293 11.629L22.9246 11.6172C22.9237 11.6149 22.9258 11.6202 22.9246 11.6172C22.923 11.6129 22.918 11.6 22.9158 11.5947C22.9083 11.5765 22.8972 11.551 22.8836 11.5195C22.8563 11.4561 22.8166 11.3665 22.7645 11.2549C22.6601 11.0312 22.5046 10.717 22.2967 10.3428C21.8819 9.59612 21.2502 8.59697 20.3817 7.59473Z" fill="#141414"/>
<path fill-rule="evenodd" clip-rule="evenodd" d="M20.4246 21.7529L21.8387 20.3389L4.16096 2.66113L2.7469 4.0752L4.93538 6.26367C4.44499 6.69579 4.00723 7.1479 3.61995 7.59473C2.75135 8.59696 2.11976 9.59608 1.70491 10.3428C1.49704 10.717 1.34154 11.0312 1.23713 11.2549C1.18507 11.3665 1.14534 11.4561 1.11799 11.5195L1.10988 11.5383C1.09998 11.5613 1.09177 11.5803 1.08577 11.5947C1.08355 11.6001 1.08165 11.6051 1.08 11.6094C1.07895 11.612 1.07307 11.6279 1.07307 11.6279C0.977935 11.8661 0.977908 12.1349 1.07307 12.373L1.08 12.3906C1.08166 12.3949 1.08356 12.4 1.08577 12.4053C1.09175 12.4197 1.1 12.4388 1.10986 12.4616L1.11799 12.4805C1.14534 12.5439 1.18507 12.6336 1.23713 12.7451C1.34154 12.9688 1.49702 13.283 1.70491 13.6572C2.11976 14.4039 2.75135 15.403 3.61995 16.4053C5.35285 18.4046 8.10583 20.4999 12.0008 20.5C14.2099 20.4999 16.0489 19.822 17.5448 18.873L20.4246 21.7529ZM5.13167 8.90527C5.49622 8.48467 5.90369 8.07054 6.35432 7.68262L8.58674 9.91504C8.21518 10.5223 8.00081 11.236 8.00081 12C8.00081 14.2091 9.79171 16 12.0008 16C12.7647 15.9999 13.4772 15.784 14.0838 15.4121L16.0867 17.415C14.9351 18.0673 13.5802 18.4999 12.0008 18.5C8.89648 18.4999 6.64872 16.8451 5.13167 15.0947C4.37568 14.2224 3.81932 13.3459 3.45296 12.6865C3.30117 12.4133 3.18397 12.1782 3.09846 12C3.18398 11.8218 3.30114 11.5867 3.45296 11.3135C3.81931 10.6541 4.37567 9.77761 5.13167 8.90527ZM10.0008 12C10.0008 11.7967 10.0314 11.6008 10.0877 11.416L12.5828 13.9111C12.3985 13.9673 12.2036 13.9999 12.0008 14C10.8963 14 10.0008 13.1045 10.0008 12Z" fill="#141414"/>
</svg>
