<svg width="24" height="24" viewBox="0 0 24 24" fill="none" xmlns="http://www.w3.org/2000/svg">
<path d="M12 1C16.9706 1 21 5.02944 21 10C21 13.1216 19.409 15.8676 17 17.4805V19C17 20.1046 16.1046 21 15 21H14V23H10V21H9C7.89543 21 7 20.1046 7 19V17.4805C4.59102 15.8676 3 13.1216 3 10C3 5.02944 7.02944 1 12 1ZM12 3C8.13401 3 5 6.13401 5 10C5 12.5886 6.40613 14.8492 8.50098 16.0615L9 16.3496V19H15V16.3496L15.499 16.0615C17.5939 14.8492 19 12.5886 19 10C19 6.13401 15.866 3 12 3ZM15 13H13V17H11V13H9V11H15V13Z" fill="#141414"/>
</svg>
