<svg width="24" height="24" viewBox="0 0 24 24" fill="none" xmlns="http://www.w3.org/2000/svg">
<path d="M20 20.6309L18.6973 21.9268L15.1504 18.3975L11.6582 22.6621C11.412 22.9628 11.002 23.0763 10.6348 22.9463C10.2676 22.8163 10.0225 22.4708 10.0225 22.083V16.125H3.1123C2.76619 16.125 2.44945 15.9317 2.29199 15.625C2.13459 15.3183 2.16321 14.9499 2.36621 14.6709L6.16211 9.45511L2 5.31448L3.30273 4.01858L20 20.6309ZM11.8652 19.5069L13.8408 17.0948L11.8652 15.1299V19.5069ZM12.04 1.37893C12.2743 1.05707 12.6903 0.922447 13.0703 1.04495C13.4503 1.16746 13.708 1.51964 13.708 1.91702V8.79202H21.0791C21.4345 8.7922 21.7585 8.9951 21.9111 9.31448C22.0637 9.63406 22.0176 10.0128 21.793 10.2871L17.4404 15.6016L16.1309 14.2989L19.1396 10.625H12.4375L11.8652 10.0557V4.74514L9.62305 7.82522L8.30371 6.51272L12.04 1.37893ZM4.91699 14.291H11.0225L7.48145 10.7686L4.91699 14.291Z" fill="#141414"/>
</svg>
