<svg width="24" height="24" viewBox="0 0 24 24" fill="none" xmlns="http://www.w3.org/2000/svg">
<path d="M12 15C12.8284 15 13.5 15.6716 13.5 16.5C13.5 17.3284 12.8284 18 12 18C11.1716 18 10.5 17.3284 10.5 16.5C10.5 15.6716 11.1716 15 12 15Z" fill="#141414"/>
<path d="M12 6C13.933 6 15.5 7.567 15.5 9.5C15.5 10.951 14.617 12.1939 13.3633 12.7246C13.2187 12.7859 13.1075 12.8677 13.0449 12.9385C12.9928 12.9975 12.9986 13.018 13 13.0049V13.5H11V13C11 11.8475 11.9315 11.159 12.584 10.8828C13.1241 10.6542 13.5 10.1196 13.5 9.5C13.5 8.67157 12.8284 8 12 8C11.1716 8 10.5 8.67157 10.5 9.5H8.5C8.5 7.567 10.067 6 12 6Z" fill="#141414"/>
<path fill-rule="evenodd" clip-rule="evenodd" d="M18 2C20.2091 2 22 3.79086 22 6V18C22 20.2091 20.2091 22 18 22H6C3.79086 22 2 20.2091 2 18V6C2 3.79086 3.79086 2 6 2H18ZM6 4C4.89543 4 4 4.89543 4 6V18C4 19.1046 4.89543 20 6 20H18C19.1046 20 20 19.1046 20 18V6C20 4.89543 19.1046 4 18 4H6Z" fill="#141414"/>
</svg>
