<svg width="24" height="24" viewBox="0 0 24 24" fill="none" xmlns="http://www.w3.org/2000/svg">
<path fill-rule="evenodd" clip-rule="evenodd" d="M15.6817 3.08399C17.1271 1.63867 19.4708 1.63867 20.9161 3.08399C22.3614 4.52931 22.3614 6.87307 20.9161 8.31836L10.4347 18.7998C10.3242 18.9102 10.1892 18.9936 10.0411 19.043L4.32431 20.9482C3.96292 21.0687 3.5644 20.9744 3.29501 20.7051C3.02562 20.4357 2.93137 20.0372 3.05185 19.6758L4.95712 13.959C5.0065 13.8109 5.08987 13.6758 5.20029 13.5654L15.6817 3.08399ZM6.79111 14.8203L5.5958 18.4043L9.17978 17.209L16.4005 9.98926L14.0108 7.59961L6.79111 14.8203ZM19.4933 4.50684C18.8335 3.84711 17.7643 3.84711 17.1046 4.50684L15.4337 6.17774L17.8224 8.56641L19.4933 6.89551C20.153 6.23581 20.1529 5.16657 19.4933 4.50684Z" fill="#141414"/>
</svg>
