<svg width="24" height="24" viewBox="0 0 24 24" fill="none" xmlns="http://www.w3.org/2000/svg">
<path d="M18 2C20.2091 2 22 3.79086 22 6V16C22 17.4802 21.1951 18.7711 20 19.4629V20C20 21.6569 18.6569 23 17 23C15.3431 23 14 21.6569 14 20H10C10 21.6569 8.65685 23 7 23C5.34315 23 4 21.6569 4 20V19.4629C2.80487 18.7711 2 17.4802 2 16V6C2 3.79086 3.79086 2 6 2H18ZM6 20C6 20.5523 6.44772 21 7 21C7.55228 21 8 20.5523 8 20H6ZM16 20C16 20.5523 16.4477 21 17 21C17.5523 21 18 20.5523 18 20H16ZM4 16C4 17.1046 4.89543 18 6 18H18C19.1046 18 20 17.1046 20 16V13H4V16ZM7.5 14C8.32843 14 9 14.6716 9 15.5C9 16.3284 8.32843 17 7.5 17C6.67157 17 6 16.3284 6 15.5C6 14.6716 6.67157 14 7.5 14ZM16.5 14C17.3284 14 18 14.6716 18 15.5C18 16.3284 17.3284 17 16.5 17C15.6716 17 15 16.3284 15 15.5C15 14.6716 15.6716 14 16.5 14ZM6 4C4.89543 4 4 4.89543 4 6V11H20V6C20 4.89543 19.1046 4 18 4H6Z" fill="#141414"/>
</svg>
