<svg width="24" height="24" viewBox="0 0 24 24" fill="none" xmlns="http://www.w3.org/2000/svg">
<path d="M19.6609 8.92478C20.3541 8.23164 21.4515 8.18821 22.1951 8.7949L22.3386 8.92478L22.4255 9.01755C22.8426 9.495 22.9951 10.1532 22.824 10.7695L21.4802 15.6054C20.7589 18.2022 18.3941 19.9998 15.699 19.9999H9.41383L7.41383 21.9999C6.63285 22.7807 5.36672 22.7807 4.58571 21.9999L1.94704 19.3622C1.2083 18.6233 1.16356 17.4398 1.84352 16.6464L6.04274 11.7461C6.99258 10.6379 8.3801 10.0001 9.83961 9.99997H14.9998C15.9773 10 16.8437 10.4696 17.3914 11.1933L19.6609 8.92478ZM17.9666 13.4463C17.751 14.8913 16.5048 15.9998 14.9998 16H10.9998V14H14.9998C15.5519 13.9998 15.9997 13.5521 15.9998 13C15.9997 12.4478 15.5519 12.0001 14.9998 12H9.83961C8.96395 12 8.13117 12.383 7.56129 13.0478L3.36207 17.9472L5.99977 20.5859L7.99976 18.5859C8.37473 18.2109 8.88357 18.0001 9.41383 17.9999H15.699C17.4957 17.9999 19.0726 16.8014 19.5535 15.0703L20.7878 10.625L17.9666 13.4463ZM14.8679 1C16.9925 1 18.7156 2.72046 18.7156 4.84276C18.7156 6.96507 16.9925 8.68552 14.8679 8.68552C12.7434 8.68537 11.0212 6.96498 11.0212 4.84276C11.0213 2.72055 12.7435 1.00015 14.8679 1ZM14.8679 2.92187C13.8058 2.92202 12.9451 3.78171 12.9451 4.84276C12.9451 5.90382 13.8057 6.76448 14.8679 6.76463C15.9302 6.76463 16.7917 5.90392 16.7917 4.84276C16.7917 3.78162 15.9302 2.92187 14.8679 2.92187Z" fill="#141414"/>
</svg>
