<svg width="24" height="24" viewBox="0 0 24 24" fill="none" xmlns="http://www.w3.org/2000/svg">
<path d="M18 2C20.2091 2 22 3.79086 22 6V18C22 20.2091 20.2091 22 18 22H6C3.79086 22 2 20.2091 2 18V7.74414L7.02832 12.7725C7.21583 12.96 7.47017 13.0654 7.73535 13.0654C8.00057 13.0654 8.25485 12.96 8.44238 12.7725L10.6514 10.5635L14.583 14.4951H12.623V16.4951H16.9971C17.5494 16.4951 17.9971 16.0474 17.9971 15.4951V11.3643H15.9971V13.0811L11.3584 8.44238C10.9679 8.05201 10.3348 8.05205 9.94434 8.44238L7.73535 10.6514L2.11719 5.03418C2.54921 3.29161 4.12386 2 6 2H18Z" fill="#141414"/>
</svg>
