<svg width="24" height="24" viewBox="0 0 24 24" fill="none" xmlns="http://www.w3.org/2000/svg">
<path d="M22.4246 17.4702L21.0106 18.8852L18.1239 15.9985L16.4217 21.105C15.8401 22.8495 13.4108 22.9505 12.6864 21.2602L9.63753 14.1469L2.52328 11.0971C0.833279 10.3726 0.934302 7.94351 2.67855 7.36177L7.78402 5.65864L5.45394 3.32856L6.868 1.91449L22.4246 17.4702ZM3.31039 9.25923L10.4256 12.3081C10.8974 12.5104 11.2742 12.887 11.4764 13.3589L14.5252 20.4731L16.5428 14.4174L9.36605 7.24067L3.31039 9.25923ZM19.4989 1.75434C21.0622 1.23329 22.55 2.72124 22.0291 4.28461L19.5379 11.7553L17.9569 10.1753L20.1317 3.65278L13.6082 5.82661L12.0262 4.24458L19.4989 1.75434Z" fill="#141414"/>
</svg>
