<svg width="24" height="24" viewBox="0 0 24 24" fill="none" xmlns="http://www.w3.org/2000/svg">
<path d="M8.88867 10H7C5.89543 10 5 10.8954 5 12V19C5 20.1046 5.89543 21 7 21H17C18.1046 21 19 20.1046 19 19V12C19 10.8954 18.1046 10 17 10H15.1113V8H17C19.2091 8 21 9.79086 21 12V19C21 21.2091 19.2091 23 17 23H7C4.79086 23 3 21.2091 3 19V12C3 9.79086 4.79086 8 7 8H8.88867V10ZM12 1C12.2652 1 12.5195 1.10543 12.707 1.29297L16.207 4.79297L14.793 6.20703L13 4.41406V13H11V4.41406L9.20703 6.20703L7.79297 4.79297L11.293 1.29297L11.3662 1.22656C11.5442 1.08073 11.7679 1 12 1Z" fill="#141414"/>
</svg>
