<svg width="24" height="24" viewBox="0 0 24 24" fill="none" xmlns="http://www.w3.org/2000/svg">
<path d="M11.9521 2C17.4963 2 22 6.47218 22 12C22 17.5278 17.4963 22 11.9521 22C9.21593 21.9999 6.73254 20.9101 4.9209 19.1436C4.00696 18.2523 3.26286 17.1874 2.74219 16.002L4.57324 15.1982C4.98897 16.1446 5.58458 16.9963 6.31738 17.7109C7.76955 19.127 9.75686 19.9999 11.9521 20C16.4017 20 20 16.4133 20 12C20 7.58669 16.4017 4 11.9521 4C9.76178 4.00006 7.77846 4.86881 6.32715 6.2793L4.5 8H7.5V10H2C1.44772 10 1 9.55228 1 9V3.5H3V6.83496L4.91113 4.86621L4.9209 4.85645C6.73254 3.08989 9.21593 2.00006 11.9521 2Z" fill="#141414"/>
</svg>
