<svg width="24" height="24" viewBox="0 0 24 24" fill="none" xmlns="http://www.w3.org/2000/svg">
<path d="M4.22151 4.22174C8.51724 -0.0739561 15.4824 -0.0738684 19.7782 4.22174C22.3231 6.7666 23.3598 10.2496 22.8905 13.5547L20.91 13.2735C21.2948 10.5642 20.4455 7.71713 18.3641 5.6358C14.8494 2.12124 9.15026 2.12115 5.63558 5.6358C2.1209 9.15047 2.121 14.8496 5.63558 18.3643C7.71692 20.4456 10.564 21.2949 13.2733 20.9102L13.5545 22.8907C10.2494 23.36 6.76639 22.3232 4.22151 19.7784C-0.0741128 15.4826 -0.0742143 8.51745 4.22151 4.22174ZM15.536 8.17193V10.1719H11.5858L20.4852 19.0713L19.0712 20.4854L10.1717 11.586V15.5362H8.17172V9.17193C8.17172 8.61965 8.61944 8.17193 9.17172 8.17193H15.536Z" fill="#141414"/>
</svg>
