<svg width="24" height="24" viewBox="0 0 24 24" fill="none" xmlns="http://www.w3.org/2000/svg">
<path d="M12 1C16.9706 1 21 5.02944 21 10C21 14.6325 17.4998 18.4448 13 18.9424V21H18V23H6V21H11V18.9424C6.50019 18.4448 3 14.6325 3 10C3 5.02944 7.02944 1 12 1ZM12 3C8.13401 3 5 6.13401 5 10C5 13.866 8.13401 17 12 17C15.866 17 19 13.866 19 10C19 6.13401 15.866 3 12 3ZM12 13C12.5523 13 13 13.4477 13 14C13 14.5523 12.5523 15 12 15C11.4477 15 11 14.5523 11 14C11 13.4477 11.4477 13 12 13ZM8 11C8.55228 11 9 11.4477 9 12C9 12.5523 8.55228 13 8 13C7.44772 13 7 12.5523 7 12C7 11.4477 7.44772 11 8 11ZM16 11C16.5523 11 17 11.4477 17 12C17 12.5523 16.5523 13 16 13C15.4477 13 15 12.5523 15 12C15 11.4477 15.4477 11 16 11ZM12 9C12.5523 9 13 9.44771 13 10C13 10.5523 12.5523 11 12 11C11.4477 11 11 10.5523 11 10C11 9.44771 11.4477 9 12 9ZM16 7C16.5523 7 17 7.44772 17 8C17 8.55228 16.5523 9 16 9C15.4477 9 15 8.55228 15 8C15 7.44772 15.4477 7 16 7Z" fill="#141414"/>
</svg>
