<svg width="24" height="24" viewBox="0 0 24 24" fill="none" xmlns="http://www.w3.org/2000/svg">
<path d="M10.2051 2.88355C10.9378 1.39385 13.0622 1.39391 13.795 2.88355L16.0636 7.49786L21.1457 8.24006C22.7836 8.47915 23.4382 10.4906 22.255 11.6483L18.5734 15.2499L19.4425 20.332C19.7219 21.9667 18.005 23.2112 16.5382 22.4375L12.0001 20.0429L7.46192 22.4375C5.99514 23.2112 4.27825 21.9667 4.5576 20.332L5.42577 15.2499L1.74507 11.6483C0.562091 10.4906 1.21662 8.47918 2.85445 8.24006L7.93556 7.49786L10.2051 2.88355ZM9.49808 8.85432C9.35264 9.14974 9.071 9.35465 8.74514 9.40218L3.14352 10.2196L7.19922 14.1874C7.43374 14.4168 7.54048 14.7468 7.48536 15.0702L6.5293 20.6689L11.5333 18.0282C11.8252 17.8742 12.1749 17.8743 12.4669 18.0282L17.4708 20.6689L16.5147 15.0702C16.4596 14.7468 16.5664 14.4168 16.8009 14.1874L20.8566 10.2196L15.255 9.40218C14.9292 9.35462 14.6475 9.1497 14.502 8.85432L12.0001 3.76637L9.49808 8.85432Z" fill="#141414"/>
</svg>
