<svg width="24" height="24" viewBox="0 0 24 24" fill="none" xmlns="http://www.w3.org/2000/svg">
<path d="M15 23H9V21H15V23ZM17 2C19.2091 2 21 3.79086 21 6V15C21 16.1699 20.497 17.2217 19.6963 17.9531L20.8682 20.0039L19.1318 20.9961L17.9277 18.8896C17.6298 18.9604 17.3195 19 17 19H7C6.68012 19 6.36946 18.9606 6.07129 18.8896L4.86816 20.9961L3.13184 20.0039L4.30273 17.9531C3.50238 17.2217 3 16.1697 3 15V6C3 3.79086 4.79086 2 7 2H17ZM5 15C5 16.1046 5.89543 17 7 17H17C18.1046 17 19 16.1046 19 15V12H5V15ZM8.5 13C9.32843 13 10 13.6716 10 14.5C10 15.3284 9.32843 16 8.5 16C7.67157 16 7 15.3284 7 14.5C7 13.6716 7.67157 13 8.5 13ZM15.5 13C16.3284 13 17 13.6716 17 14.5C17 15.3284 16.3284 16 15.5 16C14.6716 16 14 15.3284 14 14.5C14 13.6716 14.6716 13 15.5 13ZM7 4C5.89543 4 5 4.89543 5 6V10H19V6C19 4.89543 18.1046 4 17 4H7Z" fill="#141414"/>
</svg>
