<svg width="24" height="24" viewBox="0 0 24 24" fill="none" xmlns="http://www.w3.org/2000/svg">
<path d="M15.07 1.92122C15.4606 1.5307 16.0946 1.5307 16.4851 1.92122L22.1413 7.57838C22.5318 7.9689 22.5318 8.60191 22.1413 8.99242L20.361 10.7727C20.6733 14.0315 19.5195 17.2713 17.1921 19.5987L16.0437 20.7472C15.7011 21.0897 15.2448 21.296 14.7615 21.3282L4.53101 22.0108C4.24329 22.03 3.9605 21.9237 3.7566 21.7198L2.34254 20.3058C2.1387 20.1019 2.03235 19.819 2.05153 19.5314L2.73414 9.30102C2.76635 8.81784 2.97289 8.36228 3.3152 8.01978L4.46363 6.87136C6.79005 4.54517 10.0299 3.38785 13.2908 3.70049L15.07 1.92122ZM14.363 5.45633C14.1428 5.67652 13.8328 5.78159 13.5242 5.74051L13.4314 5.72879C10.6529 5.35833 7.85985 6.30348 5.87769 8.2854L4.73023 9.43383L4.12379 18.5236L8.82983 13.8176C8.29834 12.7028 8.49074 11.3295 9.41381 10.4065C10.5853 9.23505 12.4844 9.23511 13.656 10.4065C14.8275 11.578 14.8275 13.477 13.656 14.6486C12.7326 15.572 11.3589 15.7648 10.2439 15.2326L5.53785 19.9386L14.6296 19.3331L15.7781 18.1847C17.781 16.1817 18.7245 13.3522 18.3239 10.5481C18.2794 10.2365 18.3836 9.92201 18.6062 9.69945L20.0202 8.2854L15.7781 4.04229L14.363 5.45633ZM12.2419 11.8205C11.8514 11.4302 11.2183 11.4301 10.8279 11.8205C10.4374 12.211 10.4375 12.844 10.8279 13.2346C11.2184 13.6251 11.8514 13.6251 12.2419 13.2346C12.6324 12.844 12.6324 12.211 12.2419 11.8205Z" fill="#141414"/>
</svg>
