<svg width="24" height="24" viewBox="0 0 24 24" fill="none" xmlns="http://www.w3.org/2000/svg">
<path d="M16.0595 2C16.8149 1.99999 17.4404 2.00044 17.9521 2.04102C18.4847 2.08328 18.9749 2.17376 19.4414 2.39941C20.1679 2.7509 20.7712 3.31399 21.1718 4.01465C21.4291 4.46466 21.554 4.94792 21.6328 5.47656C21.7084 5.98415 21.7507 6.60794 21.8027 7.36133L22.4619 16.9102C22.808 19.5543 20.6842 22 18 22H5.99995C3.31571 22 1.19193 19.5543 1.53804 16.9102L2.19722 7.36133C2.24917 6.60787 2.29149 5.98419 2.36714 5.47656C2.44595 4.9479 2.57075 4.46467 2.82808 4.01465C3.22872 3.314 3.83199 2.7509 4.55855 2.39941C5.02505 2.17378 5.51517 2.08327 6.0478 2.04102C6.55948 2.00044 7.18498 1.99999 7.94038 2H16.0595ZM5.99995 15C4.74804 15 3.71085 15.9202 3.52827 17.1211C3.42581 18.6068 4.3952 20 5.99995 20H18C19.6047 20 20.5741 18.6068 20.4716 17.1211C20.2891 15.9202 19.2518 15 18 15H5.99995ZM6.50972 16.5C7.062 16.5 7.50972 16.9477 7.50972 17.5C7.50972 18.0523 7.062 18.5 6.50972 18.5H6.49995C5.94767 18.5 5.49995 18.0523 5.49995 17.5C5.49995 16.9477 5.94767 16.5 6.49995 16.5H6.50972ZM18 18.5H11.5V16.5H18V18.5ZM7.98042 4C7.17529 4 6.62931 4.00061 6.20601 4.03418C5.79499 4.06678 5.5809 4.12557 5.42866 4.19922C5.06566 4.37489 4.76469 4.65681 4.5644 5.00684C4.48045 5.15366 4.40646 5.36358 4.34565 5.77148C4.28309 6.19133 4.24476 6.73539 4.1894 7.53809L3.77241 13.5889C4.42917 13.214 5.18962 13 5.99995 13H18C18.8103 13 19.5707 13.214 20.2275 13.5889L19.8105 7.53809C19.7551 6.73539 19.7168 6.19133 19.6542 5.77148C19.5934 5.36358 19.5195 5.15366 19.4355 5.00684C19.2352 4.65672 18.9334 4.37489 18.5703 4.19922C18.4181 4.12568 18.2044 4.06675 17.7939 4.03418C17.3706 4.00061 16.8246 4 16.0195 4H7.98042Z" fill="#141414"/>
</svg>
