<svg width="24" height="24" viewBox="0 0 24 24" fill="none" xmlns="http://www.w3.org/2000/svg">
<path d="M8.74219 2.59958C12.4305 0.158915 17.4432 0.558507 20.6924 3.80759C24.4023 7.51757 24.4023 13.5332 20.6924 17.2431C17.5942 20.3411 12.89 20.8488 9.26172 18.7724L6.19629 21.8388C5.41522 22.6196 4.14913 22.6198 3.36816 21.8388L2.66113 21.1318C1.88017 20.3508 1.88033 19.0848 2.66113 18.3037L5.72656 15.2373C4.89334 13.7797 4.47865 12.1498 4.47949 10.5205C3.00922 9.78015 2.00001 8.25842 2 6.49997C2 4.01469 4.01472 1.99997 6.5 1.99997C7.31681 1.99997 8.08186 2.21916 8.74219 2.59958ZM4.0752 19.7177L4.78223 20.4248L7.61133 17.5957L7.27735 17.2617C7.27098 17.2554 7.26417 17.2495 7.25781 17.2431C7.24693 17.2323 7.23641 17.2209 7.22559 17.2099L6.9043 16.8886L4.0752 19.7177ZM19.2783 5.22165C16.832 2.77537 13.1155 2.37371 10.251 4.0156C10.6555 4.62513 10.915 5.33827 10.9814 6.10739C10.9841 6.13791 10.9862 6.1685 10.9883 6.19919C10.9949 6.29863 11 6.39887 11 6.49997C11 8.98524 8.98527 11 6.5 11L6.49317 10.999C6.60283 12.7498 7.32111 14.467 8.65137 15.8076L8.69043 15.8467C11.6208 18.757 16.3556 18.7515 19.2783 15.8291C22.2072 12.9002 22.2072 8.15058 19.2783 5.22165ZM6.5 3.99997C5.11929 3.99997 4 5.11926 4 6.49997C4.00002 7.88067 5.1193 8.99997 6.5 8.99997C7.79433 8.99997 8.85916 8.01635 8.98731 6.75583L9 6.49997C9 5.11926 7.88071 3.99997 6.5 3.99997Z" fill="#141414"/>
</svg>
