<svg width="24" height="24" viewBox="0 0 24 24" fill="none" xmlns="http://www.w3.org/2000/svg">
<path d="M21 21.5859L19.5859 23L17.0625 20.4766C15.5818 21.4352 13.8394 21.9999 12.001 22C9.79137 22 7.75563 21.2482 6.1377 19.9883L3.12598 23L1.71191 21.5859L4.69629 18.6016C3.29614 16.9404 2.45024 14.7935 2.4502 12.4502C2.4502 10.5722 2.99251 8.82058 3.92871 7.34375L1 4.41406L2.41406 3L21 21.5859ZM5.38867 8.80273C4.791 9.88392 4.4502 11.1274 4.4502 12.4502C4.45024 14.5938 5.34243 16.5278 6.77832 17.9033C8.13534 19.2033 9.97438 20 12.001 20C13.3241 19.9999 14.5674 19.6603 15.6484 19.0625L5.38867 8.80273ZM12.001 2.90039C17.2751 2.90059 21.5508 7.176 21.5508 12.4502C21.5507 14.4676 20.8669 16.3789 19.7227 17.9541L18.332 16.5645C19.103 15.3807 19.5507 13.9681 19.5508 12.4502C19.5508 8.28057 16.1706 4.90059 12.001 4.90039C10.4835 4.90039 9.0702 5.34767 7.88672 6.11816L6.44727 4.67969C8.01202 3.55942 9.92976 2.90039 12.001 2.90039ZM12.5 10.7324L10.5 8.73242V7.5H12.5V10.7324ZM23 5.41016L21.5859 6.82422L17.1758 2.41406L18.5898 1L23 5.41016ZM6.8252 2.41406L5.50391 3.73633L4.08984 2.32129L5.41113 1L6.8252 2.41406Z" fill="#141414"/>
</svg>
