<svg width="24" height="24" viewBox="0 0 24 24" fill="none" xmlns="http://www.w3.org/2000/svg">
<path d="M15 13C16.2355 13 17.4056 13.2802 18.4502 13.7803L17.668 15.625C16.8643 15.2253 15.9585 15 15 15H9C6.02701 15 3.55909 17.1623 3.08301 20H11.5V22H2C1.44771 22 1 21.5523 1 21C1 16.5817 4.58172 13 9 13H15ZM23 16.3281L17.707 21.6211C17.3165 22.0116 16.6835 22.0116 16.293 21.6211L13.293 18.6211L14.707 17.207L17 19.5L21.5859 14.9141L23 16.3281ZM15 2C17.6234 2 19.75 4.12665 19.75 6.75C19.75 9.37335 17.6234 11.5 15 11.5C13.8614 11.5 12.8175 11.0976 12 10.4307C11.1819 11.0983 10.1383 11.5 9 11.5C6.37665 11.5 4.25 9.37335 4.25 6.75C4.25 4.12665 6.37665 2 9 2C10.138 2 11.182 2.40099 12 3.06836C12.8176 2.40166 13.8619 2 15 2ZM9 4C7.48122 4 6.25 5.23122 6.25 6.75C6.25 8.26878 7.48122 9.5 9 9.5C9.96111 9.5 10.8052 9.00574 11.2969 8.25879C11.3308 8.20733 11.3621 8.15435 11.3926 8.10059C11.4024 8.08319 11.4134 8.06646 11.4229 8.04883C11.4617 7.97667 11.4979 7.90298 11.5303 7.82715C11.5363 7.81303 11.5411 7.79842 11.5469 7.78418C11.5726 7.72082 11.5961 7.65644 11.6172 7.59082C11.6246 7.56759 11.6308 7.544 11.6377 7.52051C11.6537 7.46549 11.668 7.40992 11.6807 7.35352C11.6874 7.32366 11.6945 7.29389 11.7002 7.26367C11.7118 7.20222 11.7201 7.14001 11.7275 7.07715C11.7301 7.05536 11.7333 7.03366 11.7354 7.01172C11.7435 6.92555 11.75 6.8384 11.75 6.75C11.75 6.63884 11.7404 6.52958 11.7275 6.42188C11.7201 6.35869 11.7119 6.29613 11.7002 6.23438C11.6947 6.20549 11.688 6.17699 11.6816 6.14844C11.6679 6.08673 11.6526 6.02586 11.6348 5.96582C11.576 5.76799 11.4958 5.57975 11.3965 5.40332C11.3615 5.34128 11.3247 5.28062 11.2852 5.22168C10.7917 4.48536 9.95295 4 9 4ZM15 4C14.335 4 13.7252 4.23535 13.249 4.62891C13.306 4.74277 13.3594 4.85869 13.4072 4.97754C13.4203 5.00993 13.433 5.04246 13.4453 5.0752C13.4553 5.10177 13.4651 5.12847 13.4746 5.15527C13.5153 5.2695 13.551 5.38587 13.583 5.50391C13.5904 5.53124 13.5985 5.55841 13.6055 5.58594C13.6133 5.61699 13.6197 5.6484 13.627 5.67969C13.64 5.7363 13.6521 5.79322 13.6631 5.85059C13.6726 5.9002 13.6825 5.94986 13.6904 6C13.694 6.02271 13.6969 6.04554 13.7002 6.06836C13.7077 6.12018 13.714 6.17227 13.7197 6.22461C13.7223 6.24802 13.7253 6.27141 13.7275 6.29492C13.7318 6.34 13.7353 6.38524 13.7383 6.43066C13.7402 6.46023 13.7427 6.48982 13.7441 6.51953C13.7478 6.59592 13.75 6.67274 13.75 6.75C13.75 6.82398 13.7475 6.89753 13.7441 6.9707C13.7432 6.99092 13.7424 7.0111 13.7412 7.03125C13.7381 7.08392 13.7333 7.13627 13.7285 7.18848C13.7259 7.21721 13.7229 7.24583 13.7197 7.27441C13.7143 7.32409 13.7091 7.37364 13.7021 7.42285C13.6985 7.44833 13.6944 7.47368 13.6904 7.49902C13.6832 7.54454 13.6745 7.58968 13.666 7.63477C13.6606 7.66349 13.6553 7.69217 13.6494 7.7207C13.6412 7.7603 13.6323 7.79964 13.623 7.83887C13.6078 7.90387 13.5911 7.96828 13.5732 8.03223C13.5649 8.06203 13.5558 8.09153 13.5469 8.12109C13.5367 8.15477 13.5265 8.18832 13.5156 8.22168C13.5051 8.25413 13.4937 8.28622 13.4824 8.31836C13.4694 8.35554 13.4573 8.39294 13.4434 8.42969C13.4346 8.45295 13.4252 8.47594 13.416 8.49902C13.3996 8.54034 13.3827 8.58133 13.3652 8.62207C13.3617 8.63024 13.358 8.63833 13.3545 8.64648C13.3215 8.72222 13.2858 8.7965 13.249 8.87012C13.7252 9.26416 14.3349 9.5 15 9.5C16.5188 9.5 17.75 8.26878 17.75 6.75C17.75 5.23122 16.5188 4 15 4Z" fill="#141414"/>
</svg>
