<svg width="24" height="24" viewBox="0 0 24 24" fill="none" xmlns="http://www.w3.org/2000/svg">
<path d="M8.1543 13.0039C9.73945 13.0842 11 14.3949 11 16V19C11 20.6569 9.65685 22 8 22H5C3.39489 22 2.08421 20.7394 2.00391 19.1543L2 19V16C2 14.3431 3.34315 13 5 13H8L8.1543 13.0039ZM15 20H18.5V22H13V16.5H15V20ZM22 22H20V20H22V22ZM5 15C4.44772 15 4 15.4477 4 16V19L4.00488 19.1025C4.05621 19.6067 4.48232 20 5 20H8C8.55228 20 9 19.5523 9 19V16C9 15.4823 8.60667 15.0562 8.10254 15.0049L8 15H5ZM7.5 18.5H5.5V16.5H7.5V18.5ZM18.5 18.5H16.5V16.5H18.5V18.5ZM22 18.5H20V16.5H22V18.5ZM22 15H15V13H22V15ZM13 13H11V11H13V13ZM8.1543 2.00391C9.73945 2.08421 11 3.39489 11 5V8C11 9.65685 9.65685 11 8 11H5C3.39489 11 2.08421 9.73944 2.00391 8.1543L2 8V5C2 3.34315 3.34315 2 5 2H8L8.1543 2.00391ZM19.1543 2.00391C20.7394 2.08421 22 3.39489 22 5V8C22 9.65685 20.6569 11 19 11H16C14.3949 11 13.0842 9.73944 13.0039 8.1543L13 8V5C13 3.34315 14.3431 2 16 2H19L19.1543 2.00391ZM5 4C4.44772 4 4 4.44772 4 5V8L4.00488 8.10254C4.05621 8.60667 4.48232 9 5 9H8C8.55228 9 9 8.55228 9 8V5C9 4.48232 8.60667 4.05621 8.10254 4.00488L8 4H5ZM16 4C15.4477 4 15 4.44772 15 5V8L15.0049 8.10254C15.0562 8.60667 15.4823 9 16 9H19C19.5523 9 20 8.55228 20 8V5C20 4.48232 19.6067 4.05621 19.1025 4.00488L19 4H16ZM7.5 7.5H5.5V5.5H7.5V7.5ZM18.5 7.5H16.5V5.5H18.5V7.5Z" fill="#141414"/>
</svg>
