<svg width="24" height="24" viewBox="0 0 24 24" fill="none" xmlns="http://www.w3.org/2000/svg">
<path d="M13.5801 11L11.5391 15.5938H14C14.3385 15.5938 14.6544 15.765 14.8389 16.0488C15.0233 16.3326 15.0515 16.6907 14.9141 17L12.2471 23L10.4199 22.1875L12.4609 17.5938H10C9.66149 17.5937 9.34559 17.4225 9.16113 17.1387C8.97683 16.8549 8.9485 16.4967 9.08594 16.1875L11.7529 10.1875L13.5801 11ZM12 2C15.64 2 18.6295 4.77842 18.9668 8.33008C21.3144 9.14441 23 11.3744 23 14C23 17.3137 20.3137 20 17 20V18C19.2091 18 21 16.2091 21 14C21 12.0653 19.6253 10.4498 17.7988 10.0801C17.3265 9.98448 16.9892 9.5649 16.9971 9.08301C16.9973 9.06606 16.9976 9.05089 16.998 9.03906C16.9984 9.02818 16.9998 9.01533 17 9.00977C17.0006 8.99388 17 8.9948 17 9C17 6.23858 14.7614 4 12 4C9.23858 4 7 6.23858 7 9C7 9.02911 7.00074 9.00849 7.00195 9.08301C7.0098 9.56482 6.67248 9.98441 6.2002 10.0801C4.37423 10.4501 3 12.0656 3 14C3 16.2091 4.79086 18 7 18V20C3.68629 20 1 17.3137 1 14C1 11.3748 2.68504 9.14471 5.03223 8.33008C5.36948 4.77837 8.35999 2 12 2Z" fill="#141414"/>
</svg>
