<svg width="24" height="24" viewBox="0 0 24 24" fill="none" xmlns="http://www.w3.org/2000/svg">
<path d="M4 2H19C20.6569 2 22 3.34315 22 5V7C22 8.65685 20.6569 10 19 10H16.8262C16.9369 10.3131 17 10.649 17 11V13C17 14.6569 15.6569 16 14 16H11.8262C11.9369 16.3131 12 16.649 12 17V19C12 20.6569 10.6569 22 9 22H4V23H2V1H4V2ZM4 20H9C9.55228 20 10 19.5523 10 19V17C10 16.4477 9.55228 16 9 16H4V20ZM4 14H14C14.5523 14 15 13.5523 15 13V11C15 10.4477 14.5523 10 14 10H4V14ZM4 8H19C19.5523 8 20 7.55228 20 7V5C20 4.44772 19.5523 4 19 4H4V8Z" fill="#141414"/>
</svg>
