<svg width="24" height="24" viewBox="0 0 24 24" fill="none" xmlns="http://www.w3.org/2000/svg">
<path d="M9 1C10.7163 1 12.1794 2.08131 12.7471 3.59961C13.7567 2.66396 15.19 2 17.0117 2V4C14.8055 4 13.5831 5.33512 13.166 6.44922C13.9183 6.15916 14.7406 6.00005 15.5996 6C19.0604 6 22 8.61521 22 12V13C22 17.9706 17.9706 22 13 22H11C6.02944 22 2 17.9706 2 13V12C2 8.9353 4.40991 6.50126 7.43457 6.06836C6.55791 5.33461 6 4.23263 6 3V2C6 1.44772 6.44772 1 7 1H9ZM15.5996 8C14.4503 8.00009 13.4141 8.40044 12.6377 9.04395C12.2677 9.3502 11.7323 9.3502 11.3623 9.04395C10.5859 8.40044 9.5497 8.00009 8.40039 8C5.89647 8 4 9.86194 4 12V13C4 16.866 7.13401 20 11 20H13C16.866 20 20 16.866 20 13V12C20 9.86194 18.1035 8 15.5996 8ZM8 3C8 4.10457 8.89543 5 10 5H11C11 3.89543 10.1046 3 9 3H8Z" fill="#141414"/>
</svg>
