<svg width="24" height="24" viewBox="0 0 24 24" fill="none" xmlns="http://www.w3.org/2000/svg">
<path d="M11 2C13.3729 2 15.3599 3.65287 15.8721 5.87012L18.2617 5.05371C18.5671 4.94936 18.9045 4.99882 19.167 5.18652C19.4295 5.37426 19.585 5.67724 19.585 6V8.26953L20.1855 9.5H22C22.5523 9.5 23 9.94772 23 10.5V15.5C23 16.0523 22.5523 16.5 22 16.5H20.6191C19.9294 17.718 18.8891 18.7069 17.6338 19.3193V21C17.6338 21.5523 17.1861 22 16.6338 22H13.2197C12.7433 22 12.3446 21.6668 12.2441 21.2207C12.1437 21.6667 11.7449 21.9999 11.2686 22H7.85352C7.3013 21.9999 6.85352 21.5522 6.85352 21V18.7383C5.33423 17.6519 4.26989 15.9536 3.99609 14H3.70703C2.18882 13.9998 1 12.7453 1 11.25C1 9.75473 2.18883 8.50016 3.70703 8.5H3.95117V10.5H3.70703C3.33964 10.5002 3 10.8125 3 11.25C3 11.6875 3.33963 11.9998 3.70703 12H3.99609C4.22078 10.397 4.97776 8.96614 6.08105 7.9043C6.02749 7.61105 6 7.30872 6 7C6 4.23858 8.23858 2 11 2ZM15.9814 7.94629C15.9566 7.95475 15.9316 7.96227 15.9062 7.96875C15.4551 10.2665 13.43 12 11 12C9.33331 12 7.85676 11.1844 6.94824 9.93066C6.30883 10.7764 5.92676 11.8405 5.92676 13C5.92676 14.8613 6.91214 16.4763 8.36328 17.3369L8.85352 17.6279V20H10.2686V18.5H14.2197V20H15.6338V17.957L16.2939 17.7188C17.529 17.2712 18.5435 16.3181 19.0928 15.0918L19.3584 14.5H21V11.5H18.9365L17.6865 8.93848C17.6199 8.80192 17.585 8.65193 17.585 8.5V7.39844L15.9814 7.94629ZM11 4C9.34315 4 8 5.34315 8 7C8 8.65685 9.34315 10 11 10C12.6569 10 14 8.65685 14 7C14 5.34315 12.6569 4 11 4Z" fill="#141414"/>
</svg>
