<svg width="24" height="24" viewBox="0 0 24 24" fill="none" xmlns="http://www.w3.org/2000/svg">
<path d="M17 6C17.5523 6 18 6.44772 18 7V12H16V9.41309L12.7041 12.709C12.8913 13.1005 13 13.5371 13 14V19C13 20.6569 11.6569 22 10 22H5C3.34315 22 2 20.6569 2 19V14C2 12.3431 3.34315 11 5 11H10C10.4625 11 10.8988 11.108 11.29 11.2949L14.5859 8H12V6H17ZM18 2C20.2091 2 22 3.79086 22 6V18C22 20.2091 20.2091 22 18 22H16V20H18C19.1046 20 20 19.1046 20 18V6C20 4.89543 19.1046 4 18 4H6C4.89543 4 4 4.89543 4 6V8H2V6C2 3.79086 3.79086 2 6 2H18ZM5 13C4.44772 13 4 13.4477 4 14V19C4 19.5523 4.44772 20 5 20H10C10.5523 20 11 19.5523 11 19V14C11 13.4477 10.5523 13 10 13H5Z" fill="#141414"/>
</svg>
