<svg width="24" height="24" viewBox="0 0 24 24" fill="none" xmlns="http://www.w3.org/2000/svg">
<path d="M19 2.5C21.2091 2.5 23 4.29086 23 6.5V16.5C23 18.7091 21.2091 20.5 19 20.5H6.77148L4.01074 22.1162C2.67745 22.8966 1 21.9346 1 20.3896V6.5C1 4.29086 2.79086 2.5 5 2.5H19ZM5 4.5C3.89543 4.5 3 5.39543 3 6.5V20.3896L5.99512 18.6367L6.11328 18.5781C6.23537 18.5269 6.36673 18.5 6.5 18.5H19C20.1046 18.5 21 17.6046 21 16.5V6.5C21 5.39543 20.1046 4.5 19 4.5H5ZM12 7.69922C13.1732 6.69895 14.9156 6.77228 16.0049 7.91992C16.7031 8.65563 17.0137 9.52599 17 10.417C16.9866 11.2811 16.6712 12.1069 16.2275 12.8203C15.3507 14.2301 13.8295 15.4333 12.3223 15.9463C12.1134 16.0173 11.8866 16.0173 11.6777 15.9463C10.1705 15.4333 8.64933 14.2301 7.77246 12.8203C7.32883 12.1069 7.01343 11.2811 7 10.417C6.98625 9.52595 7.29691 8.65566 7.99512 7.91992C9.08445 6.77227 10.8268 6.69891 12 7.69922ZM14.5537 9.29688C14.1783 8.90143 13.5922 8.90136 13.2168 9.29688L12 10.5791L10.7832 9.29688C10.4078 8.90136 9.82174 8.90143 9.44629 9.29688C9.11252 9.64857 8.99431 10.0115 9 10.3857C9.00628 10.7871 9.15796 11.2607 9.4707 11.7637C10.0431 12.6839 11.0329 13.507 12 13.9268C12.9671 13.5069 13.957 12.6839 14.5293 11.7637C14.842 11.2607 14.9937 10.7871 15 10.3857C15.0057 10.0115 14.8874 9.64854 14.5537 9.29688Z" fill="#141414"/>
</svg>
