<svg width="24" height="24" viewBox="0 0 24 24" fill="none" xmlns="http://www.w3.org/2000/svg">
<path d="M2 4.94755C2 2.30235 4.52162 0.385262 7.07031 1.09305L19.0703 4.42606C20.8016 4.907 22 6.48375 22 8.28056V15.72C21.9999 17.5167 20.8015 19.0936 19.0703 19.5745L7.07031 22.9075C4.52173 23.6152 2.00017 21.6981 2 19.053V4.94755ZM4 13.0003V19.053C4.00017 20.3754 5.26095 21.3345 6.53516 20.9808L9 20.2952V13.0003H4ZM11 13.0003V19.7396L15 18.6282V13.0003H11ZM17 13.0003V18.0726L18.5352 17.6468C19.4007 17.4064 19.9999 16.6183 20 15.72V13.0003H17ZM6.53516 3.01981C5.26084 2.66598 4 3.62498 4 4.94755V11.0003H9V3.70438L6.53516 3.01981ZM11 11.0003H15V5.37138L11 4.26005V11.0003ZM17 11.0003H20V8.28056C20 7.38217 19.4008 6.59428 18.5352 6.3538L17 5.92704V11.0003Z" fill="#141414"/>
</svg>
