<svg width="24" height="24" viewBox="0 0 24 24" fill="none" xmlns="http://www.w3.org/2000/svg">
<path d="M11.0521 1.26125C11.6675 1.05635 12.3333 1.05626 12.9486 1.26125L19.8256 3.55423C21.1379 3.99187 21.9813 5.27035 21.8666 6.64897L21.3295 13.0875C21.0938 15.9158 19.5378 18.4678 17.1312 19.9723L12.5306 22.8473C12.2064 23.0499 11.7944 23.0499 11.4701 22.8473L6.86949 19.9723C4.46266 18.4679 2.90694 15.916 2.67123 13.0875L2.13412 6.64897C2.01945 5.27028 2.86271 3.99183 4.17514 3.55423L11.0521 1.26125ZM12.3168 3.15872C12.1116 3.09034 11.8891 3.09043 11.684 3.15872L4.80796 5.45072C4.37052 5.59653 4.0892 6.02346 4.12729 6.48295L4.6644 12.9214C4.84774 15.1215 6.05796 17.1059 7.93004 18.276L12.0004 20.8199L16.0707 18.276C17.9425 17.1059 19.153 15.1213 19.3363 12.9214L19.8734 6.48295C19.9115 6.02353 19.6301 5.59657 19.1928 5.45072L12.3168 3.15872ZM13.0736 6.53666C14.4259 6.60954 15.5004 7.72967 15.5004 9.10015H13.5004C13.5004 8.78715 13.246 8.53374 12.933 8.53374H11.4877C11.2762 8.53374 11.0663 8.62033 10.9056 8.78667C10.7439 8.95422 10.6468 9.18842 10.6468 9.43999C10.6469 9.69154 10.7439 9.92577 10.9056 10.0933C11.0663 10.2596 11.2762 10.3462 11.4877 10.3462H12.6586C13.4236 10.3462 14.1502 10.6618 14.6801 11.2105C15.2088 11.7581 15.5004 12.4937 15.5004 13.2535C15.5003 14.0132 15.2087 14.7489 14.6801 15.2965C14.2471 15.7448 13.6828 16.0366 13.0736 16.1285V17.4996H11.0736V16.1597H10.9603C9.49128 16.1597 8.30016 14.9686 8.30016 13.4996H10.3002C10.3002 13.864 10.5959 14.1597 10.9603 14.1597H12.6586C12.8701 14.1597 13.081 14.0732 13.2416 13.9068C13.4032 13.7393 13.5003 13.5049 13.5004 13.2535C13.5004 13.0021 13.4032 12.7677 13.2416 12.6002C13.081 12.4338 12.8701 12.3462 12.6586 12.3462H11.4877C10.7227 12.3462 9.99604 12.0317 9.46618 11.483C8.9375 10.9354 8.64685 10.1998 8.64684 9.43999C8.64684 8.68022 8.93751 7.94459 9.46618 7.39702C9.89928 6.94845 10.4642 6.65585 11.0736 6.564V5.49955H13.0736V6.53666Z" fill="#141414"/>
</svg>
