<svg width="24" height="24" viewBox="0 0 24 24" fill="none" xmlns="http://www.w3.org/2000/svg">
<path d="M6.65762 0.00390625C8.2756 0.0860963 9.56289 1.4241 9.5629 3.0625V6.24609L10.8559 8.63281C10.9065 8.7263 10.9527 8.82185 10.9994 8.91699C11.0463 8.8216 11.0942 8.72653 11.1449 8.63281L12.4379 6.24609V3.0625C12.4379 1.37113 13.809 -1.35539e-06 15.5004 0C17.1913 0.000282676 18.5629 1.37112 18.5629 3.0625V6.24609L19.8549 8.63281C20.2753 9.40894 20.5615 10.2448 20.7074 11.1045C22.1203 12.4684 23.0004 14.3811 23.0004 16.5C23.0004 20.642 19.6424 23.9998 15.5004 24C13.2659 24 11.2601 23.022 9.88614 21.4717C9.45817 21.7661 8.95173 21.9532 8.40567 21.9922L8.19083 22H4.81094C3.36632 22 2.14163 20.9738 1.86758 19.582L1.82559 19.2988L1.21915 13.2393C1.05981 11.6457 1.38238 10.0407 2.14493 8.63281L3.4379 6.24512V3.0625C3.4379 1.3712 4.80866 0.000471746 6.49942 0H6.5004L6.65762 0.00390625ZM15.5004 11C14.701 11 13.9416 11.1718 13.2563 11.4785C12.7566 11.7026 12.2961 11.9987 11.8881 12.3545L11.7934 12.4365C11.3727 12.8205 11.0124 13.2693 10.727 13.7666C10.6544 13.8929 10.5863 14.022 10.5238 14.1543C10.4719 14.2643 10.424 14.3764 10.3793 14.4902C10.328 14.6208 10.281 14.7535 10.2397 14.8887C10.1208 15.2771 10.0449 15.6838 10.015 16.1035C10.0057 16.2345 10.0004 16.3666 10.0004 16.5C10.0004 17.0497 10.0817 17.5802 10.2318 18.0811C10.2963 18.2962 10.3731 18.5059 10.4623 18.709C11.3131 20.6465 13.2486 22 15.5004 22C18.5378 21.9998 21.0004 19.5375 21.0004 16.5C21.0004 14.8901 20.3079 13.4423 19.2055 12.4365L19.1117 12.3545C18.7784 12.0638 18.41 11.8128 18.0141 11.6084C18.0005 11.6014 17.9867 11.5948 17.9731 11.5879C17.8478 11.5245 17.7198 11.4659 17.5893 11.4121C17.4538 11.3564 17.3158 11.3057 17.1752 11.2607C17.126 11.245 17.0765 11.2302 17.0268 11.2158C16.542 11.076 16.0301 11 15.5004 11ZM3.90372 9.58594C3.33175 10.6421 3.08898 11.8453 3.2084 13.04L3.81485 19.0996L3.8295 19.1943C3.92099 19.6579 4.3294 20 4.81094 20H8.19083C8.35222 19.9999 8.50449 19.9595 8.64004 19.8896L8.76993 19.8105C8.58742 19.4402 8.43396 19.0531 8.31387 18.6514C8.30903 18.6352 8.30494 18.6188 8.3002 18.6025C8.26683 18.4881 8.23639 18.3725 8.2084 18.2559C8.20178 18.2283 8.19617 18.2005 8.18985 18.1729C8.16738 18.0743 8.14687 17.975 8.12833 17.875C8.12036 17.8321 8.11212 17.7892 8.10489 17.7461C8.08881 17.65 8.0743 17.5534 8.06192 17.4561C8.0569 17.4167 8.05168 17.3774 8.04727 17.3379C8.0363 17.2392 8.02801 17.1399 8.0209 17.04C8.01791 16.9981 8.01441 16.9562 8.01211 16.9141C8.0116 16.9046 8.01064 16.8952 8.01016 16.8857L8.0004 16.5C8.0004 16.3772 8.00333 16.2551 8.00918 16.1338C8.01234 16.0681 8.01802 16.0027 8.02286 15.9375C8.02684 15.884 8.02947 15.8305 8.03458 15.7773C8.04011 15.7195 8.04727 15.662 8.05411 15.6045C8.06109 15.546 8.06825 15.4877 8.07657 15.4297C8.08545 15.3676 8.09547 15.3058 8.10586 15.2441C8.11559 15.1866 8.12608 15.1293 8.13711 15.0723C8.14789 15.0164 8.15929 14.9607 8.17129 14.9053C8.18308 14.851 8.19545 14.797 8.2084 14.7432C8.22497 14.6742 8.2417 14.6054 8.26016 14.5371C8.26877 14.5054 8.27849 14.474 8.28751 14.4424C8.48886 13.7352 8.79109 13.0711 9.17813 12.4658C9.18704 12.4519 9.1955 12.4377 9.2045 12.4238C9.37609 12.1593 9.56341 11.9061 9.76602 11.666C9.67162 10.9403 9.44835 10.2346 9.09708 9.58594L7.69571 7H5.30411L3.90372 9.58594ZM13.0004 16C13.5525 16.0002 14.0004 16.4478 14.0004 17C14.0004 17.5522 13.5525 17.9998 13.0004 18C12.4481 18 12.0004 17.5523 12.0004 17C12.0004 16.4477 12.4481 16 13.0004 16ZM17.0004 14C17.5525 14.0002 18.0004 14.4478 18.0004 15C18.0004 15.5522 17.5525 15.9998 17.0004 16C16.4481 16 16.0004 15.5523 16.0004 15C16.0004 14.4477 16.4481 14 17.0004 14ZM14.0004 13C14.5525 13.0002 15.0004 13.4478 15.0004 14C15.0004 14.5522 14.5525 14.9998 14.0004 15C13.4481 15 13.0004 14.5523 13.0004 14C13.0004 13.4477 13.4481 13 14.0004 13ZM14.3041 7L12.9838 9.43359C13.2568 9.33637 13.5371 9.25489 13.8236 9.18945C13.8526 9.18282 13.8815 9.17622 13.9106 9.16992C13.9911 9.15253 14.0722 9.13685 14.1537 9.12207C14.182 9.11691 14.2103 9.11129 14.2387 9.10645C14.3135 9.09377 14.3887 9.0827 14.4643 9.07227C14.5204 9.06446 14.5767 9.05733 14.6332 9.05078C14.6819 9.04518 14.7307 9.03982 14.7797 9.03516C14.8642 9.02704 14.9492 9.0209 15.0346 9.01562C15.0677 9.01359 15.1009 9.01039 15.1342 9.00879C15.2555 9.00291 15.3776 9 15.5004 9L15.8295 9.00684C15.8416 9.00737 15.8536 9.0082 15.8656 9.00879C15.8973 9.01031 15.9288 9.01274 15.9604 9.01465C16.047 9.01998 16.1333 9.02687 16.2191 9.03516C16.2681 9.03982 16.3169 9.04518 16.3656 9.05078C16.4221 9.05736 16.4785 9.06443 16.5346 9.07227C16.6101 9.08269 16.6853 9.09379 16.7602 9.10645C16.786 9.11086 16.8116 9.11641 16.8373 9.12109C17.2414 9.19384 17.6343 9.2979 18.0131 9.43262L16.6967 7H14.3041ZM15.5004 2C14.9136 2 14.4379 2.4757 14.4379 3.0625V5H16.5629V3.0625C16.5629 2.51259 16.1447 2.06036 15.6088 2.00586L15.5004 2ZM6.5004 2C5.91346 2.0001 5.4379 2.47598 5.4379 3.0625V5H7.5629V3.0625C7.56289 2.47593 7.08687 2.00038 6.5004 2Z" fill="#141414"/>
</svg>
