<svg width="24" height="24" viewBox="0 0 24 24" fill="none" xmlns="http://www.w3.org/2000/svg">
<path d="M15.4083 3.13082C16.9163 1.62307 19.3612 1.62289 20.8692 3.13082C22.3771 4.63875 22.3769 7.08369 20.8692 8.59174L9.7735 19.6874C9.66294 19.7979 9.52821 19.8811 9.37995 19.9306L3.32723 21.9481C2.9649 22.0688 2.56506 21.975 2.29501 21.705C2.02496 21.4349 1.93123 21.0351 2.05185 20.6728L4.06942 14.62C4.11892 14.4718 4.2021 14.3371 4.31258 14.2265L15.4083 3.13082ZM4.6036 19.3964L7.19343 18.5331L5.46688 16.8066L4.6036 19.3964ZM19.4424 4.55757C18.7222 3.83735 17.5542 3.83735 16.834 4.55757L6.45222 14.9394L9.06061 17.5478L19.4424 7.16596C20.1626 6.44574 20.1626 5.27779 19.4424 4.55757Z" fill="#141414"/>
</svg>
