<svg width="24" height="24" viewBox="0 0 24 24" fill="none" xmlns="http://www.w3.org/2000/svg">
<path d="M20 2C21.6568 2 23 3.34315 23 5V14C23 15.6569 21.6568 17 20 17H17.5088L14.4082 21.2646C13.8436 22.0408 12.9412 22.5 11.9814 22.5H11.5C9.84323 22.4999 8.49998 21.1568 8.49998 19.5V17H4.16014C2.41272 16.9999 1.03491 15.5118 1.16892 13.7695L1.71873 6.61621C1.91925 4.01145 4.09161 2.00013 6.70408 2H20ZM6.70408 4C5.13671 4.00013 3.83327 5.2068 3.71287 6.76953L3.16306 13.9229C3.1184 14.5036 3.57774 14.9999 4.16014 15H9.49998C10.0523 15 10.5 15.4477 10.5 16V19.5C10.5 20.0522 10.9478 20.4999 11.5 20.5H11.9814C12.3013 20.5 12.6018 20.3466 12.79 20.0879L16 15.6748V4H6.70408ZM18 15H20C20.5523 15 21 14.5523 21 14V5C21 4.44772 20.5523 4 20 4H18V15Z" fill="#141414"/>
</svg>
