<svg width="24" height="24" viewBox="0 0 24 24" fill="none" xmlns="http://www.w3.org/2000/svg">
<path d="M12 1C18.0751 1 23 5.92487 23 12C23 18.0751 18.0751 23 12 23C5.92487 23 1 18.0751 1 12C1 5.92487 5.92487 1 12 1ZM12 3C7.02944 3 3 7.02944 3 12C3 16.9706 7.02944 21 12 21C16.9706 21 21 16.9706 21 12C21 7.02944 16.9706 3 12 3ZM18 16H13V14H18V16ZM10.707 11.293C11.0976 11.6835 11.0976 12.3165 10.707 12.707L7.70703 15.707L6.29297 14.293L8.58594 12L6.29297 9.70703L7.70703 8.29297L10.707 11.293Z" fill="#141414"/>
</svg>
