<svg width="24" height="24" viewBox="0 0 24 24" fill="none" xmlns="http://www.w3.org/2000/svg">
<path d="M5.25098 1.32881C7.05906 0.876784 8.9531 0.89156 10.7539 1.37177L13.3965 2.07588C14.7924 2.44811 16.2577 2.47908 17.668 2.16572L19.7832 1.69599C20.0793 1.63023 20.3894 1.70251 20.626 1.89228C20.8624 2.08208 21 2.36935 21 2.67256V14.6726C20.9998 15.1411 20.6742 15.5465 20.2168 15.6481L18.1025 16.1179C16.3789 16.5009 14.5879 16.4634 12.8818 16.0085L10.2383 15.3044C8.7649 14.9115 7.21567 14.8984 5.73633 15.2683L5 15.4528V22.9997H3V2.67256C3 2.21369 3.31265 1.81314 3.75781 1.70185L5.25098 1.32881ZM10.2383 3.30439C8.7649 2.91149 7.21567 2.89842 5.73633 3.26826L5 3.45283V13.3913L5.25098 13.3288C7.05906 12.8768 8.9531 12.8916 10.7539 13.3718L13.3965 14.0759C14.7924 14.4481 16.2577 14.4791 17.668 14.1657L19 13.8698V3.91865L18.1025 4.11787C16.3789 4.5009 14.5879 4.46342 12.8818 4.00849L10.2383 3.30439Z" fill="#141414"/>
</svg>
