<svg width="24" height="24" viewBox="0 0 24 24" fill="none" xmlns="http://www.w3.org/2000/svg">
<path d="M4 7H14.126C14.57 5.27477 16.1362 4 18 4C20.2091 4 22 5.79086 22 8C22 10.2091 20.2091 12 18 12C16.1362 12 14.57 10.7252 14.126 9H4V13.2002C4 14.0566 4.00035 14.6388 4.03711 15.0889C4.07293 15.5273 4.13808 15.7518 4.21777 15.9082C4.40951 16.2845 4.71555 16.5905 5.0918 16.7822C5.2482 16.8619 5.47272 16.9271 5.91113 16.9629C6.36117 16.9997 6.94341 17 7.79981 17H14.126C14.57 15.2748 16.1362 14 18 14C20.2091 14 22 15.7909 22 18C22 20.2091 20.2091 22 18 22C16.1362 22 14.57 20.7252 14.126 19H7.75879C6.95383 19 6.28924 19.0003 5.74805 18.9561C5.18599 18.9101 4.6689 18.8117 4.18359 18.5645C3.43109 18.181 2.81902 17.5689 2.43555 16.8164C2.18827 16.3311 2.08987 15.814 2.04395 15.252C1.99973 14.7108 1.99999 14.0462 2 13.2412V2H4V7ZM18 16C16.8954 16 16 16.8954 16 18C16 19.1046 16.8954 20 18 20C19.1046 20 20 19.1046 20 18C20 16.8954 19.1046 16 18 16ZM18 6C16.8954 6 16 6.89543 16 8C16 9.10457 16.8954 10 18 10C19.1046 10 20 9.10457 20 8C20 6.89543 19.1046 6 18 6Z" fill="#141414"/>
</svg>
