<svg width="24" height="24" viewBox="0 0 24 24" fill="none" xmlns="http://www.w3.org/2000/svg">
<path d="M15.5 9H8.5V7H15.5V9Z" fill="#141414"/>
<path fill-rule="evenodd" clip-rule="evenodd" d="M17 1C19.2091 1 21 2.79086 21 5V21H23V23H1V21H3V5C3 2.79086 4.79086 1 7 1H17ZM7 3C5.89543 3 5 3.89543 5 5V21H8V16C8 14.3431 9.34315 13 11 13H13C14.6569 13 16 14.3431 16 16V21H19V5C19 3.89543 18.1046 3 17 3H7ZM11 15C10.4477 15 10 15.4477 10 16V21H14V16C14 15.4477 13.5523 15 13 15H11Z" fill="#141414"/>
</svg>
