<svg width="24" height="24" viewBox="0 0 24 24" fill="none" xmlns="http://www.w3.org/2000/svg">
<path d="M19 3C21.2091 3 23 4.79086 23 7V17C23 19.2091 21.2091 21 19 21H5C2.79086 21 1 19.2091 1 17V7C1 4.79086 2.79086 3 5 3H19ZM3 17C3 18.1046 3.89543 19 5 19H19C20.1046 19 21 18.1046 21 17V13H16.4141L14.707 14.707C14.5195 14.8946 14.2652 15 14 15H10C9.73478 15 9.4805 14.8946 9.29297 14.707L7.58594 13H3V17ZM3 11H8C8.26522 11 8.5195 11.1054 8.70703 11.293L10.4141 13H13.5859L15.293 11.293L15.3662 11.2266C15.5442 11.0807 15.7679 11 16 11H21V9H3V11ZM5 5C3.89543 5 3 5.89543 3 7H21C21 5.89543 20.1046 5 19 5H5Z" fill="#141414"/>
</svg>
