<svg width="24" height="24" viewBox="0 0 24 24" fill="none" xmlns="http://www.w3.org/2000/svg">
<path d="M11.0721 9.1025C11.4128 9.12988 11.7088 9.34857 11.8358 9.66597L13.1619 12.9814L13.7283 12.0371C13.891 11.766 14.1838 11.5996 14.4998 11.5996H16.4998V13.4003H15.0096L13.7713 15.4628C13.5955 15.7559 13.2692 15.9245 12.9285 15.8974C12.5877 15.8701 12.2909 15.6514 12.1639 15.3339L10.8387 12.0185L10.2713 12.9628C10.1087 13.2339 9.81594 13.4003 9.49983 13.4003H7.49983V11.5996H8.99007L10.2283 9.53707C10.4043 9.24387 10.7313 9.07519 11.0721 9.1025Z" fill="#141414"/>
<path fill-rule="evenodd" clip-rule="evenodd" d="M12.495 3.8857C14.8153 1.37146 18.6131 1.3714 20.9334 3.8857C23.937 7.1405 23.316 11.2218 21.3016 14.5537C19.2941 17.8741 15.7712 20.7389 12.3309 21.9433C12.117 22.0182 11.8836 22.0182 11.6698 21.9433C8.22933 20.739 4.70671 17.8742 2.69905 14.5537C0.684697 11.2218 0.0627761 7.14049 3.06624 3.8857C5.38652 1.37135 9.18433 1.37152 11.5047 3.8857L11.9998 4.42183L12.495 3.8857ZM19.4637 5.24215C17.9353 3.58593 15.4931 3.58599 13.9647 5.24215L12.7352 6.57515C12.3393 7.00408 11.6615 7.00385 11.2655 6.57515L10.035 5.24215C8.50657 3.58608 6.06432 3.58596 4.53597 5.24215C2.37766 7.58116 2.64164 10.5935 4.40999 13.5185C6.11985 16.3467 9.11244 18.8217 11.9998 19.9345C14.8872 18.8218 17.8798 16.3468 19.5897 13.5185C21.3581 10.5934 21.6222 7.58121 19.4637 5.24215Z" fill="#141414"/>
</svg>
