<svg width="24" height="24" viewBox="0 0 24 24" fill="none" xmlns="http://www.w3.org/2000/svg">
<path d="M14.9971 2C18.8641 2 22 5.13359 22 9C22 12.8664 18.8641 16 14.9971 16C14.5049 16 14.0235 15.9487 13.5586 15.8516L11.7031 17.707C11.5157 17.8944 11.2611 17.9999 10.9961 18H9.99512V19C9.99512 19.5522 9.54723 19.9998 8.99512 20H7.99414V21C7.99414 21.5522 7.54633 21.9999 6.99414 22H3C2.44772 22 2 21.5523 2 21V17C2 16.7348 2.10543 16.4805 2.29297 16.293L8.14453 10.4443C8.04653 9.97764 7.99512 9.49431 7.99512 9C7.99512 5.13369 11.1302 2.00016 14.9971 2ZM4 17.4141V20H5.99414V18H7.99512V16H10.582L11.5107 15.0713C10.4379 14.4545 9.54366 13.5622 8.92578 12.4902L4 17.4141ZM14.9971 4C12.2339 4.00016 9.99512 6.23909 9.99512 9C9.99512 9.50863 10.0699 9.99801 10.21 10.458C10.6939 12.0478 11.9523 13.304 13.5439 13.7861C14.0026 13.925 14.4902 14 14.9971 14C17.7604 14 20 11.761 20 9C20 6.23899 17.7604 4 14.9971 4ZM15 7.5C15.8284 7.5 16.5 8.17157 16.5 9C16.5 9.82843 15.8284 10.5 15 10.5C14.1716 10.5 13.5 9.82843 13.5 9C13.5 8.17157 14.1716 7.5 15 7.5Z" fill="#141414"/>
</svg>
