<svg width="24" height="24" viewBox="0 0 24 24" fill="none" xmlns="http://www.w3.org/2000/svg">
<path d="M11 6.01946C11.0003 4.36475 12.8955 3.42525 14.212 4.42765L21.0176 9.61324C22.5934 10.8138 22.5933 13.186 21.0176 14.3867L14.212 19.5723C12.8955 20.5749 11 19.6355 11 17.9805V16.5H5.00001C3.34315 16.5 2 15.1569 2 13.5V10.5C2.00016 8.84323 3.34325 7.49994 5.00001 7.49994H11V6.01946ZM13 8.49995C13 9.05224 12.5523 9.49996 12 9.49996H5.00001C4.44782 9.49996 4.00017 9.94781 4.00001 10.5V13.5C4.00001 14.0523 4.44772 14.5 5.00001 14.5H12C12.5522 14.5 12.9999 14.9479 13 15.5V17.9805L19.8057 12.7959C20.3309 12.3956 20.331 11.6043 19.8057 11.2041L13 6.01946V8.49995Z" fill="#141414"/>
</svg>
