<svg width="24" height="24" viewBox="0 0 24 24" fill="none" xmlns="http://www.w3.org/2000/svg">
<path d="M3 22H1V2H3V22ZM14 13C15.6569 13 17 14.3431 17 16V18C17 19.6569 15.6569 21 14 21H8C6.34315 21 5 19.6569 5 18V16C5 14.3431 6.34315 13 8 13H14ZM8 15C7.44772 15 7 15.4477 7 16V18C7 18.5523 7.44772 19 8 19H14C14.5523 19 15 18.5523 15 18V16C15 15.4477 14.5523 15 14 15H8ZM20 3C21.6569 3 23 4.34315 23 6V8C23 9.65685 21.6569 11 20 11H8C6.34315 11 5 9.65685 5 8V6C5 4.34315 6.34315 3 8 3H20ZM8 5C7.44772 5 7 5.44772 7 6V8C7 8.55228 7.44772 9 8 9H20C20.5523 9 21 8.55228 21 8V6C21 5.44772 20.5523 5 20 5H8Z" fill="#141414"/>
</svg>
