<svg width="24" height="24" viewBox="0 0 24 24" fill="none" xmlns="http://www.w3.org/2000/svg">
<path d="M18 1C18.5523 1 19 1.44772 19 2V3.5C20.6569 3.5 22 4.84315 22 6.5V9C22 10.6569 20.6569 12 19 12H14C12.8954 12 12 12.8954 12 14H13C13.5523 14 14 14.4477 14 15V22C14 22.5523 13.5523 23 13 23H9C8.44772 23 8 22.5523 8 22V15C8 14.4477 8.44772 14 9 14H10C10 11.7909 11.7909 10 14 10H19C19.5523 10 20 9.55228 20 9V6.5C20 5.94772 19.5523 5.5 19 5.5V7C19 7.55228 18.5523 8 18 8H3C2.44772 8 2 7.55228 2 7V2C2 1.44772 2.44772 1 3 1H18ZM10 21H12V16H10V21ZM4 6H17V3H4V6Z" fill="#141414"/>
</svg>
