<svg width="24" height="24" viewBox="0 0 24 24" fill="none" xmlns="http://www.w3.org/2000/svg">
<path d="M12 1C16.4183 1 20 4.58172 20 9C20 11.4946 18.8572 13.7226 17.0703 15.1885L17.9902 21.8633C18.0409 22.2308 17.8844 22.5963 17.583 22.8125C17.2815 23.0287 16.8846 23.0605 16.5527 22.8945L12 20.6182L7.44727 22.8945C7.11538 23.0605 6.71855 23.0287 6.41699 22.8125C6.11562 22.5963 5.95911 22.2308 6.00977 21.8633L6.92969 15.1885C5.14277 13.7226 4 11.4946 4 9C4 4.58172 7.58172 1 12 1ZM15.209 16.3301C14.2262 16.7609 13.1403 17 12 17C10.8597 17 9.77382 16.7609 8.79102 16.3301L8.25 20.2568L11.5527 18.6055C11.8343 18.4647 12.1657 18.4647 12.4473 18.6055L15.75 20.2568L15.209 16.3301ZM12 3C8.68629 3 6 5.68629 6 9C6 11.0381 7.01543 12.8389 8.57227 13.9248C9.54372 14.6024 10.7239 15 12 15C13.2761 15 14.4563 14.6024 15.4277 13.9248C16.9846 12.8389 18 11.0381 18 9C18 5.68629 15.3137 3 12 3Z" fill="#141414"/>
</svg>
