<svg width="24" height="24" viewBox="0 0 24 24" fill="none" xmlns="http://www.w3.org/2000/svg">
<path d="M17.6914 15C19.7303 15 21.3836 16.6525 21.3838 18.6914C21.3838 19.3476 21.2123 19.964 20.9121 20.498L23 22.5859L21.5859 24L19.498 21.9121C18.964 22.2123 18.3476 22.3838 17.6914 22.3838C15.6525 22.3836 14 20.7303 14 18.6914C14.0002 16.6526 15.6526 15.0002 17.6914 15ZM12.7578 1C13.8185 1.00012 14.8359 1.42184 15.5859 2.17188L19.8281 6.41406C20.5782 7.1641 20.9999 8.18148 21 9.24219V13H16C13.2386 13 11 15.2386 11 18V23H7C4.79086 23 3 21.2091 3 19V5C3 2.79086 4.79086 1 7 1H12.7578ZM17.6914 17C16.7572 17.0002 16.0002 17.7572 16 18.6914C16 19.6257 16.7571 20.3836 17.6914 20.3838C18.6259 20.3838 19.3838 19.6259 19.3838 18.6914C19.3836 17.7571 18.6257 17 17.6914 17ZM14 6C14 7.10457 14.8954 8 16 8H18.5654C18.5181 7.94042 18.4684 7.88243 18.4141 7.82812L14.1719 3.58594C14.1174 3.53148 14.0598 3.48098 14 3.43359V6Z" fill="#141414"/>
</svg>
