<svg width="24" height="24" viewBox="0 0 24 24" fill="none" xmlns="http://www.w3.org/2000/svg">
<path d="M6.86718 1C7.63995 1.00001 8.34387 1.44525 8.67479 2.14355L11.0039 7.06348C11.3303 7.02292 11.6626 7.00001 12 7C12.3366 7 12.6684 7.02213 12.9941 7.0625L15.3252 2.14355C15.656 1.44529 16.3602 1.00018 17.1328 1H20.3223C21.837 1 22.8023 2.61862 22.082 3.95117L18.5723 10.4414C19.4712 11.735 20 13.3053 20 15C20 19.4183 16.4183 23 12 23C7.5818 22.9999 3.99998 19.4182 3.99998 15C3.99998 13.3061 4.52752 11.7357 5.42577 10.4424L1.91795 3.95117C1.19788 2.61877 2.16324 1.00029 3.67772 1H6.86718ZM13.5 13.002C13.4996 12.1106 12.4216 11.6643 11.791 12.2949L8.79296 15.293L10.207 16.707L11.5 15.4141V18H13.5V13.002ZM6.8535 8.87598C7.50006 8.33205 8.23404 7.88917 9.03124 7.57031L6.86718 3H3.67772L6.8535 8.87598ZM14.9668 7.57031C15.7644 7.8891 16.4986 8.33189 17.1455 8.87598L20.3223 3H17.1328L14.9668 7.57031Z" fill="#141414"/>
</svg>
