<svg width="24" height="24" viewBox="0 0 24 24" fill="none" xmlns="http://www.w3.org/2000/svg">
<path d="M12 1C18.0751 1 23 5.92487 23 12C23 18.0751 18.0751 23 12 23C5.92487 23 1 18.0751 1 12C1 5.92487 5.92487 1 12 1ZM9 7H7V9H9V15H7V17H9V19H11V17H12V19H14V17C15.6569 17 17 15.6569 17 14C17 13.2305 16.7077 12.531 16.2314 12C16.7077 11.469 17 10.7695 17 10C17 8.34315 15.6569 7 14 7V5H12V7H11V5H9V7ZM14 13C14.5523 13 15 13.4477 15 14C15 14.5523 14.5523 15 14 15H11V13H14ZM14 9C14.5523 9 15 9.44771 15 10C15 10.5523 14.5523 11 14 11H11V9H14Z" fill="#141414"/>
</svg>
