<svg width="24" height="24" viewBox="0 0 24 24" fill="none" xmlns="http://www.w3.org/2000/svg">
<path d="M11.5 1C13.6552 1 15.516 2.23971 16.418 4.04199C16.6084 4.01432 16.8028 4 17 4C19.2091 4 21 5.79086 21 8C21 8.74222 20.7966 9.43649 20.4443 10.0322C21.8905 10.2469 23 11.4941 23 13V15C23 16.6569 21.6569 18 20 18H19V19.2002C18.9999 19.9503 18.6155 20.5638 18.1367 21.0166C17.6601 21.4673 17.0242 21.8272 16.3213 22.1084C14.9095 22.6731 13.0276 23 11 23C8.97235 23 7.09046 22.6731 5.67871 22.1084C4.97577 21.8272 4.3399 21.4673 3.86328 21.0166C3.38453 20.5638 3.00007 19.9503 3 19.2002V11.2412C1.79428 10.4339 1 9.06001 1 7.5C1 5.01472 3.01472 3 5.5 3C6.04275 3 6.56317 3.09864 7.0459 3.27539C8.0448 1.89827 9.66643 1 11.5 1ZM8 18H10V14H8V18ZM12 18H14V14H12V18ZM19 16H20C20.5523 16 21 15.5523 21 15V13C21 12.4477 20.5523 12 20 12H19V16ZM11.5 3C10.1026 3 8.89445 3.81895 8.33301 5.00684C8.20902 5.26897 7.97656 5.46398 7.69727 5.54199C7.41799 5.61988 7.11876 5.57307 6.87695 5.41309C6.4824 5.15203 6.0104 5 5.5 5C4.11929 5 3 6.11929 3 7.5C3 8.88071 4.11929 10 5.5 10C6.30506 10 7.02102 9.61949 7.48047 9.02344L7.55078 8.94141C7.72475 8.76005 7.96229 8.65022 8.21582 8.63574C8.50537 8.61931 8.78818 8.72944 8.99023 8.9375C9.62797 9.59399 10.5157 10 11.5 10C12.4279 10 13.2698 9.63838 13.8984 9.0459L13.9795 8.97656C14.1771 8.82664 14.4252 8.7547 14.6748 8.77734C14.9597 8.80332 15.2201 8.9502 15.3896 9.18066C15.7568 9.67999 16.3413 10 17 10C18.1046 10 19 9.10457 19 8C19 6.89543 18.1046 6 17 6C16.7172 6 16.4516 6.05694 16.2129 6.15918C15.9499 6.27183 15.6513 6.26665 15.3926 6.14453C15.1337 6.02222 14.9394 5.79443 14.8594 5.51953C14.435 4.06246 13.0905 3 11.5 3Z" fill="#141414"/>
</svg>
