<svg width="24" height="24" viewBox="0 0 24 24" fill="none" xmlns="http://www.w3.org/2000/svg">
<path d="M19 3C21.2091 3 23 4.79086 23 7V17C23 19.2091 21.2091 21 19 21H17V23H15V21H9V23H7V21H5C2.79086 21 1 19.2091 1 17V7C1 4.79086 2.79086 3 5 3H19ZM18 19H19C20.1046 19 21 18.1046 21 17V7C21 5.89543 20.1046 5 19 5H18V19ZM3 16H5V14H3V16ZM11 8C8.79086 8 7 9.79086 7 12C7 14.2091 8.79086 16 11 16C13.2091 16 15 14.2091 15 12C15 9.79086 13.2091 8 11 8ZM11 10C12.1046 10 13 10.8954 13 12C13 13.1046 12.1046 14 11 14C9.89543 14 9 13.1046 9 12C9 10.8954 9.89543 10 11 10ZM3 10H5V8H3V10Z" fill="#141414"/>
</svg>
