<svg width="24" height="24" viewBox="0 0 24 24" fill="none" xmlns="http://www.w3.org/2000/svg">
<path fill-rule="evenodd" clip-rule="evenodd" d="M12 1.5C13.6183 1.5 15.1595 1.83786 16.5498 2.44238C17.1397 2.15834 17.8015 2 18.5 2C20.9853 2 23 4.01472 23 6.5C23 7.28992 22.795 8.03149 22.4375 8.67676C22.8012 9.71909 23 10.8356 23 12C23 17.8467 18.0262 22.5 12 22.5C10.3748 22.5 8.82885 22.1623 7.43652 21.5557L3.52832 22.5674C2.45279 22.8454 1.45829 21.8983 1.68359 20.8105L2.43457 17.1875C1.52303 15.6588 1 13.8877 1 12C1 6.1533 5.97382 1.5 12 1.5ZM18.5 4C17.1193 4 16 5.11929 16 6.5C16 7.88071 17.1193 9 18.5 9C19.8807 9 21 7.88071 21 6.5C21 5.11929 19.8807 4 18.5 4Z" fill="#141414"/>
</svg>
