<svg width="24" height="24" viewBox="0 0 24 24" fill="none" xmlns="http://www.w3.org/2000/svg">
<path d="M18.5 1.5C20.7091 1.5 22.5 3.29086 22.5 5.5V17.5C22.5 19.7091 20.7091 21.5 18.5 21.5H6.5C4.29086 21.5 2.5 19.7091 2.5 17.5V5.5C2.5 3.29086 4.29086 1.5 6.5 1.5H18.5ZM4.5 17.5C4.5 18.6046 5.39543 19.5 6.5 19.5H7.5V16.5H4.5V17.5ZM9.5 19.5H11.5V16.5H9.5V19.5ZM13.5 19.5H15.5V16.5H13.5V19.5ZM17.5 19.5H18.5C19.6046 19.5 20.5 18.6046 20.5 17.5V16.5H17.5V19.5ZM11.5 14.5H13.5V8.5H11.5V14.5ZM6.5 3.5C5.39543 3.5 4.5 4.39543 4.5 5.5V6.5H7.5V3.5H6.5ZM9.5 6.5H11.5V3.5H9.5V6.5ZM13.5 6.5H15.5V3.5H13.5V6.5ZM17.5 6.5H20.5V5.5C20.5 4.39543 19.6046 3.5 18.5 3.5H17.5V6.5Z" fill="#141414"/>
</svg>
