<svg width="24" height="24" viewBox="0 0 24 24" fill="none" xmlns="http://www.w3.org/2000/svg">
<path d="M19 2.5C21.2091 2.5 23 4.29086 23 6.5V16.5C23 18.7091 21.2091 20.5 19 20.5H6.77148L4.01074 22.1162C2.67745 22.8966 1 21.9346 1 20.3896V6.5C1 4.29086 2.79086 2.5 5 2.5H19ZM7.25 10.1035C6.42162 10.1036 5.75002 10.7751 5.75 11.6035C5.75 12.4319 6.42161 13.1035 7.25 13.1035C8.07843 13.1035 8.75 12.4319 8.75 11.6035C8.74998 10.7751 8.07841 10.1035 7.25 10.1035ZM12.25 10.1035C11.4216 10.1036 10.75 10.7751 10.75 11.6035C10.75 12.4319 11.4216 13.1035 12.25 13.1035C13.0784 13.1035 13.75 12.4319 13.75 11.6035C13.75 10.7751 13.0784 10.1035 12.25 10.1035ZM17.25 10.1035C16.4216 10.1036 15.75 10.7751 15.75 11.6035C15.75 12.4319 16.4216 13.1035 17.25 13.1035C18.0784 13.1035 18.75 12.4319 18.75 11.6035C18.75 10.7751 18.0784 10.1035 17.25 10.1035Z" fill="#141414"/>
</svg>
