<svg width="24" height="24" viewBox="0 0 24 24" fill="none" xmlns="http://www.w3.org/2000/svg">
<path d="M16.333 3C19.3703 3.00026 21.833 5.4626 21.833 8.5C21.833 9.645 21.4816 10.7106 20.8818 11.5918C22.1729 12.6521 23 14.2346 23 16.0234C23 18.9688 20.7278 21.635 17.7441 21.9932L17.6846 22H6.31543L6.25586 21.9932C3.27216 21.635 1 18.9688 1 16.0234C1 13.0405 3.29958 10.6314 6.21582 10.2607C6.87073 7.9609 8.93795 6.2593 11.4189 6.02734C12.3238 4.23278 14.1836 3 16.333 3ZM16.333 5C15.2677 5 14.3114 5.47623 13.6689 6.22852C15.6516 6.78447 17.2278 8.30688 17.7842 10.2607C18.254 10.3205 18.7079 10.4324 19.1387 10.5918C19.5746 10.0082 19.833 9.28566 19.833 8.5C19.833 6.56717 18.2658 5.00026 16.333 5Z" fill="#141414"/>
</svg>
