<svg width="24" height="24" viewBox="0 0 24 24" fill="none" xmlns="http://www.w3.org/2000/svg">
<path d="M17.5 13.7949C19.1567 13.7951 20.5 15.1381 20.5 16.7949V18H21C21.5522 18.0001 22 18.4478 22 19V23C22 23.5522 21.5522 23.9999 21 24H14C13.7348 24 13.4805 23.8945 13.293 23.707C13.1054 23.5195 13 23.2652 13 23V19C13 18.4477 13.4477 18 14 18H14.5V16.7949C14.5 15.1381 15.8431 13.7949 17.5 13.7949ZM12.7578 1C13.8185 1.00012 14.8359 1.42184 15.5859 2.17188L19.8281 6.41406C20.5782 7.1641 20.9999 8.18148 21 9.24219V12H16C13.2386 12 11 14.2386 11 17V23H7C4.79086 23 3 21.2091 3 19V5C3 2.79086 4.79086 1 7 1H12.7578ZM15 22H20V20H15V22ZM17.5 15.7949C16.9477 15.7949 16.5 16.2426 16.5 16.7949V18H18.5V16.7949C18.5 16.2427 18.0522 15.7951 17.5 15.7949ZM14 6C14 7.10457 14.8954 8 16 8H18.5654C18.5181 7.94042 18.4684 7.88243 18.4141 7.82812L14.1719 3.58594C14.1174 3.53148 14.0598 3.48098 14 3.43359V6Z" fill="#141414"/>
</svg>
