<svg width="24" height="24" viewBox="0 0 24 24" fill="none" xmlns="http://www.w3.org/2000/svg">
<path d="M12 1C18.0751 1 23 5.92487 23 12C23 18.0751 18.0751 23 12 23C5.92487 23 1 18.0751 1 12C1 5.92487 5.92487 1 12 1ZM12 13C9.66885 13 7.71222 14.5947 7.15723 16.751L9.09473 17.249C9.42791 15.955 10.6036 15 12 15C13.3964 15 14.5721 15.955 14.9053 17.249L16.8428 16.751C16.2878 14.5947 14.3312 13 12 13ZM6.05859 8.92773L6.6084 10.8506L10.4971 9.73926L9.94727 7.81641L6.05859 8.92773ZM13.5029 9.73926L17.3916 10.8506L17.9414 8.92773L14.0527 7.81641L13.5029 9.73926Z" fill="#141414"/>
</svg>
