<svg width="24" height="24" viewBox="0 0 24 24" fill="none" xmlns="http://www.w3.org/2000/svg">
<g clip-path="url(#clip0_1460_1105)">
<path d="M12 0C12.4668 0 12.9268 0.0276447 13.3779 0.0800781C14.1516 0.170114 14.7668 0.714098 14.9873 1.42383L15.0264 1.56836L15.1602 2.19434C15.2551 2.6631 15.3417 3.15915 15.4219 3.67871C16.1682 3.98593 16.8632 4.38948 17.4922 4.875C18.2078 4.59704 18.8881 4.35756 19.5225 4.16211L19.666 4.12402C20.3414 3.97135 21.0638 4.18755 21.5352 4.72461L21.6328 4.84473L21.834 5.12305C22.2939 5.7791 22.6896 6.48428 23.0127 7.22852C23.344 7.99197 23.1353 8.85622 22.5508 9.39941C22.0645 9.85131 21.5169 10.3204 20.918 10.8018C20.9702 11.1944 21 11.5942 21 12C21 12.4053 20.9701 12.8044 20.918 13.1963C21.5169 13.6774 22.0649 14.1467 22.5518 14.5986C23.1366 15.1418 23.345 16.0062 23.0137 16.7695C22.6441 17.6208 22.1793 18.4203 21.6328 19.1543C21.1369 19.8204 20.285 20.0708 19.5225 19.8359C18.8881 19.6405 18.2079 19.401 17.4922 19.123C16.8632 19.6087 16.1682 20.0121 15.4219 20.3193C15.3049 21.0769 15.174 21.7844 15.0264 22.4307C14.8483 23.2101 14.2027 23.8225 13.3779 23.9189C12.9272 23.9716 12.4673 24 12 24C11.5314 24 11.0706 23.971 10.6191 23.918C9.79515 23.821 9.15053 23.2093 8.97266 22.4297C8.82521 21.7834 8.69288 21.0764 8.57617 20.3193C7.82999 20.012 7.13484 19.6088 6.50586 19.123C5.79022 19.4008 5.11056 19.6408 4.47656 19.8359C3.71416 20.0704 2.86211 19.8194 2.36621 19.1533C1.81984 18.4194 1.35392 17.62 0.984375 16.7686C0.653336 16.0054 0.862381 15.1407 1.44727 14.5977L1.92383 14.167C2.28319 13.8499 2.67037 13.526 3.08105 13.1963C3.02917 12.8039 3 12.4047 3 12C3 11.5951 3.02817 11.1955 3.08008 10.8027C2.48137 10.3218 1.93391 9.85221 1.44727 9.40039C0.862467 8.85723 0.654117 7.99273 0.985352 7.22949L1.12793 6.91211C1.47201 6.179 1.88816 5.4869 2.36621 4.84473C2.862 4.17874 3.71408 3.92745 4.47656 4.16211C5.11067 4.35748 5.79054 4.5972 6.50586 4.875C7.13477 4.38941 7.83004 3.98599 8.57617 3.67871C8.69284 2.92202 8.82527 2.21532 8.97266 1.56934L9.01074 1.4248C9.23111 0.71506 9.84628 0.17165 10.6191 0.0810547L10.96 0.0458984C11.302 0.0156589 11.649 6.58719e-06 12 0ZM12 7C9.2386 7.00002 7 9.23859 7 12C7 14.7614 9.2386 17 12 17C14.7614 17 17 14.7614 17 12C17 9.23858 14.7614 7 12 7ZM12 9C13.6569 9 15 10.3431 15 12C15 13.6569 13.6569 15 12 15C10.3432 15 9 13.6568 9 12C9 10.3432 10.3432 9.00002 12 9Z" fill="#141414"/>
</g>
<defs>
<clipPath id="clip0_1460_1105">
<rect width="24" height="24" fill="white"/>
</clipPath>
</defs>
</svg>
