<svg width="24" height="24" viewBox="0 0 24 24" fill="none" xmlns="http://www.w3.org/2000/svg">
<path d="M9 22H2C1.44772 22 1.00001 21.5523 1 21C1 16.5817 4.58172 13 9 13H13L9 22ZM18.6504 12C19.6454 11.0181 21.2589 11.0181 22.2539 12C23.2488 12.9819 23.2487 14.5738 22.2539 15.5557L17.0947 20.6357C16.9838 20.7452 16.8481 20.827 16.6992 20.876L13.4385 21.9492C13.0754 22.0684 12.6749 21.975 12.4043 21.708C12.1336 21.4408 12.0391 21.045 12.1602 20.6865L13.2471 17.4697C13.2967 17.3228 13.3802 17.1886 13.4912 17.0791L18.6504 12ZM20.8242 13.4111C20.6188 13.2084 20.2855 13.2084 20.0801 13.4111L15.0898 18.3232L14.7178 19.4248L15.834 19.0576L20.8242 14.1455C21.0296 13.9428 21.0295 13.6139 20.8242 13.4111ZM9 2C11.6234 2 13.75 4.12665 13.75 6.75C13.75 9.37335 11.6234 11.5 9 11.5C6.37665 11.5 4.25 9.37335 4.25 6.75C4.25 4.12665 6.37665 2 9 2ZM15 2C17.6234 2 19.75 4.12665 19.75 6.75C19.75 9.37335 17.6234 11.5 15 11.5C14.554 11.5 14.1231 11.4363 13.7139 11.3213C14.8219 10.1188 15.5 8.51407 15.5 6.75C15.5 4.98567 14.8221 3.38032 13.7139 2.17773C14.1231 2.06285 14.5542 2 15 2Z" fill="#141414"/>
</svg>
