<svg width="24" height="24" viewBox="0 0 24 24" fill="none" xmlns="http://www.w3.org/2000/svg">
<path fill-rule="evenodd" clip-rule="evenodd" d="M18 2C20.2091 2 22 3.79086 22 6V18C22 20.2091 20.2091 22 18 22H6C3.79086 22 2 20.2091 2 18V6C2 3.79086 3.79086 2 6 2H18ZM12 15C11.1716 15 10.5 15.6716 10.5 16.5C10.5 17.3284 11.1716 18 12 18C12.8284 18 13.5 17.3284 13.5 16.5C13.5 15.6716 12.8284 15 12 15ZM12 6C10.067 6 8.5 7.567 8.5 9.5H10.5C10.5 8.67157 11.1716 8 12 8C12.8284 8 13.5 8.67157 13.5 9.5C13.5 10.1196 13.1241 10.6542 12.584 10.8828C11.9315 11.159 11 11.8475 11 13V13.5H13V13.0049C12.9986 13.018 12.9928 12.9975 13.0449 12.9385C13.1075 12.8677 13.2187 12.7859 13.3633 12.7246C14.617 12.1939 15.5 10.951 15.5 9.5C15.5 7.567 13.933 6 12 6Z" fill="#141414"/>
</svg>
