<svg width="24" height="24" viewBox="0 0 24 24" fill="none" xmlns="http://www.w3.org/2000/svg">
<path d="M14.5 1C19.1944 1 23 4.80558 23 9.5C23 13.1516 20.6972 16.26 17.4678 17.4639C16.2647 20.6967 13.1518 23 9.5 23C4.80558 23 1 19.1944 1 14.5C1 10.8488 3.30227 7.73572 6.53418 6.53223C7.73812 3.30235 10.8485 1 14.5 1ZM14.5 3C12.1934 3 10.1656 4.20179 9.01172 6.01465C9.17333 6.00549 9.3361 6 9.5 6C14.1944 6 18 9.80558 18 14.5C18 14.6626 17.9944 14.824 17.9854 14.9844C19.7976 13.8306 21 11.8058 21 9.5C21 5.91015 18.0899 3 14.5 3Z" fill="#141414"/>
</svg>
