<svg width="24" height="24" viewBox="0 0 24 24" fill="none" xmlns="http://www.w3.org/2000/svg">
<path d="M17.0861 2.09939C18.3679 0.689842 20.568 0.638002 21.9153 1.98513C23.2627 3.3325 23.211 5.53347 21.801 6.81524L18.4114 9.89435L20.7229 19.4716C20.8045 19.81 20.7044 20.1667 20.4583 20.413L19.2424 21.6288C18.7962 22.0749 18.0534 22.0013 17.7033 21.4765L13.1633 14.6659L9.82826 17.6981L9.57044 21.0624C9.55206 21.3002 9.44805 21.5236 9.27942 21.6923L8.46398 22.5077C7.96371 23.0075 7.11666 22.8443 6.83799 22.1942L5.29793 18.6024L1.7061 17.0624C1.05614 16.7837 0.892817 15.9366 1.39262 15.4364L2.20806 14.6209C2.37675 14.4523 2.60111 14.3493 2.83892 14.3309L6.20224 14.0721L9.23352 10.7362L2.42388 6.19707C1.89926 5.84691 1.82551 5.10409 2.27153 4.658L3.48737 3.44217C3.73358 3.1961 4.09037 3.096 4.42878 3.17752L14.0051 5.48808L17.0861 2.09939Z" fill="#141414"/>
</svg>
