<svg width="24" height="24" viewBox="0 0 24 24" fill="none" xmlns="http://www.w3.org/2000/svg">
<path d="M21.8994 21.2136L20.4854 22.6276L17.5889 19.7311C17.4395 19.8379 17.2876 19.9427 17.1309 20.0407L12.5303 22.9157C12.2062 23.1181 11.7938 23.1181 11.4697 22.9157L6.86914 20.0407C4.46254 18.5365 2.90677 15.9842 2.6709 13.1559L2.13379 6.71744C2.07519 6.01407 2.26642 5.33663 2.6416 4.78384L0.686523 2.82876L2.10059 1.41469L21.8994 21.2136ZM11.0518 1.32973C11.6671 1.12479 12.3329 1.12479 12.9482 1.32973L19.8252 3.62271C21.1375 4.06048 21.9811 5.33872 21.8662 6.71744L21.3291 13.1559C21.223 14.4287 20.847 15.6445 20.249 16.735L6.39551 2.8815L11.0518 1.32973Z" fill="#141414"/>
</svg>
