<svg width="24" height="24" viewBox="0 0 24 24" fill="none" xmlns="http://www.w3.org/2000/svg">
<path d="M12 1C12.879 1 13.7333 1.106 14.5527 1.30078C14.5641 1.30348 14.5756 1.30586 14.5869 1.30859C14.7247 1.34181 14.8614 1.37766 14.9971 1.41602C15.0111 1.41996 15.0251 1.42373 15.0391 1.42773C15.1763 1.46711 15.3123 1.50919 15.4473 1.55371C15.457 1.55693 15.4668 1.56023 15.4766 1.56348C16.0197 1.74431 16.5432 1.96703 17.0449 2.22656C17.0767 2.24301 17.109 2.25864 17.1406 2.27539C17.244 2.33016 17.3459 2.38738 17.4473 2.44531C17.4812 2.4647 17.5151 2.48417 17.5488 2.50391C17.6514 2.56398 17.7531 2.62521 17.8535 2.68848C17.8866 2.70932 17.9193 2.73077 17.9521 2.75195C18.0503 2.81528 18.1481 2.87898 18.2441 2.94531C18.2754 2.96693 18.3059 2.98979 18.3369 3.01172C21.0474 4.92618 22.8524 8.03279 22.9883 11.5703C22.9947 11.7129 23 11.856 23 12C23 12.3619 22.9805 12.7194 22.9463 13.0723C22.9436 13.1 22.9414 13.1276 22.9385 13.1553C22.9215 13.3178 22.9009 13.4793 22.877 13.6396C22.8735 13.6628 22.8698 13.6859 22.8662 13.709C22.8419 13.8644 22.8149 14.0187 22.7842 14.1719C22.779 14.1976 22.7739 14.2233 22.7686 14.249C22.7349 14.4108 22.6979 14.5714 22.6572 14.7305C22.6532 14.7462 22.6486 14.7617 22.6445 14.7773C22.6055 14.9273 22.5647 15.0763 22.5195 15.2236C22.5042 15.2738 22.4867 15.3232 22.4707 15.373C22.437 15.4776 22.4019 15.5814 22.3652 15.6846C22.3482 15.7324 22.3321 15.7806 22.3145 15.8281C22.2668 15.9563 22.2163 16.0831 22.1641 16.209C22.1507 16.2412 22.1377 16.2736 22.124 16.3057C22.0751 16.4206 22.0225 16.5336 21.9697 16.6465C21.9166 16.7602 21.8615 16.8728 21.8047 16.9844C21.7795 17.0337 21.7544 17.0829 21.7285 17.1318C21.6621 17.2575 21.5926 17.3812 21.5215 17.5039C21.5002 17.5406 21.4797 17.5778 21.458 17.6143C21.3769 17.7507 21.2929 17.8851 21.2061 18.0176C21.1921 18.0388 21.1781 18.0599 21.1641 18.0811C19.1934 21.0449 15.8261 23 12 23C11.7263 23 11.4552 22.9855 11.1865 22.9658C11.1494 22.9631 11.1122 22.9611 11.0752 22.958C10.5425 22.9137 10.0211 22.8314 9.5127 22.7139C9.47458 22.7051 9.4364 22.6967 9.39844 22.6875C9.2893 22.661 9.18108 22.6322 9.07324 22.6025C9.03864 22.593 9.00419 22.5831 8.96973 22.5732C8.61464 22.4717 8.26714 22.3532 7.92773 22.2178C7.89363 22.2042 7.85913 22.1917 7.8252 22.1777C7.72659 22.1372 7.62937 22.094 7.53223 22.0508C7.48986 22.0319 7.44735 22.0135 7.40527 21.9941C7.31178 21.9511 7.21901 21.9069 7.12695 21.8613C7.07211 21.8342 7.01819 21.8054 6.96387 21.7773C6.84683 21.7169 6.73076 21.6553 6.61621 21.5908C6.5278 21.5411 6.43941 21.4915 6.35254 21.4395C6.27912 21.3954 6.20706 21.3494 6.13477 21.3037C6.07916 21.2686 6.02368 21.2334 5.96875 21.1973C5.89324 21.1476 5.81834 21.0973 5.74414 21.0459C5.68635 21.0059 5.62924 20.9649 5.57227 20.9238C5.50253 20.8735 5.43275 20.8234 5.36426 20.7715C5.36203 20.7698 5.35965 20.7683 5.35742 20.7666V20.7656C4.14229 19.8434 3.12513 18.6752 2.37988 17.334C2.37443 17.3242 2.36871 17.3145 2.36328 17.3047C2.30509 17.1992 2.25011 17.0919 2.19531 16.9844C2.17106 16.9368 2.14565 16.8898 2.12207 16.8418C2.07839 16.7528 2.03743 16.6626 1.99609 16.5723C1.96692 16.5086 1.93716 16.4452 1.90918 16.3809C1.8686 16.2875 1.83003 16.1933 1.79199 16.0986C1.76577 16.0335 1.73984 15.9681 1.71484 15.9023C1.6791 15.8082 1.64454 15.7135 1.61133 15.6182C1.58814 15.5516 1.56491 15.4851 1.54297 15.418C1.51315 15.3267 1.48451 15.2349 1.45703 15.1426C1.43176 15.0578 1.40803 14.9724 1.38477 14.8867C1.36348 14.8083 1.34283 14.7295 1.32324 14.6504C1.30072 14.5595 1.28098 14.4678 1.26074 14.376C1.24159 14.289 1.22216 14.202 1.20508 14.1143C1.18739 14.0235 1.17169 13.9323 1.15625 13.8408C1.14409 13.7687 1.13086 13.6966 1.12012 13.624C1.10424 13.5168 1.09186 13.4089 1.0791 13.3008C1.07033 13.2264 1.06001 13.152 1.05273 13.0771C1.03903 12.9363 1.02982 12.7947 1.02148 12.6523C1.01933 12.6156 1.01546 12.5789 1.01367 12.542C1.00495 12.3624 1 12.1817 1 12C1 11.8294 1.00474 11.6598 1.0127 11.4912C1.01402 11.4622 1.01506 11.4332 1.0166 11.4043C1.02433 11.2639 1.03501 11.1243 1.04785 10.9854C1.05364 10.922 1.05955 10.8589 1.06641 10.7959C1.06701 10.7904 1.06775 10.7848 1.06836 10.7793C1.29192 8.75462 2.06521 6.89658 3.23535 5.35547C3.25402 5.33089 3.27312 5.30665 3.29199 5.28223C3.84233 4.56989 4.47772 3.92738 5.18359 3.36914C5.20014 3.35605 5.21677 3.34307 5.2334 3.33008C5.49404 3.12637 5.76426 2.93484 6.04297 2.75488C6.07262 2.73573 6.10199 2.71614 6.13184 2.69727C6.40241 2.52623 6.68095 2.36713 6.9668 2.21973C7.01193 2.19644 7.05704 2.17307 7.10254 2.15039C7.19148 2.10608 7.28081 2.06246 7.37109 2.02051C7.40992 2.00246 7.44921 1.98538 7.48828 1.96777C7.79434 1.82992 8.10756 1.70561 8.42773 1.5957C8.45275 1.58711 8.47784 1.57873 8.50293 1.57031C8.80624 1.46866 9.11523 1.37998 9.42969 1.30469C9.503 1.28713 9.57651 1.26999 9.65039 1.25391C9.73211 1.23612 9.81409 1.21908 9.89648 1.20312C9.97297 1.18831 10.0499 1.17533 10.127 1.16211C10.2687 1.13779 10.4111 1.11552 10.5547 1.09668C10.608 1.08968 10.6613 1.0824 10.7148 1.07617H10.7139C11.1358 1.02703 11.5649 1 12 1ZM12 3C11.3639 3 10.7433 3.06592 10.1445 3.19141C9.82301 3.98583 9.38535 4.74436 8.82715 5.43848C8.33432 5.08117 7.8396 4.75147 7.34277 4.45508C7.2995 4.42927 7.25527 4.40525 7.21191 4.37988C6.60046 4.7649 6.03862 5.22095 5.53809 5.7373C5.79574 5.87168 6.05615 6.01643 6.31836 6.17285C6.67408 6.38507 7.03006 6.61778 7.38672 6.86719C6.26971 7.75221 4.99099 8.33027 3.66211 8.6084C3.38943 9.27808 3.19547 9.98779 3.09082 10.7266C5.21706 10.4782 7.28498 9.61325 9.00195 8.125C9.55532 8.59996 10.1037 9.1174 10.6426 9.6748C10.4787 9.83224 10.3143 9.99041 10.1523 10.1523C7.88992 12.4148 6.0672 14.8764 4.74902 17.3301C5.16955 17.9012 5.65624 18.42 6.19727 18.877C7.42585 16.4253 9.23373 13.8991 11.5664 11.5664C11.7032 11.4296 11.8424 11.2963 11.9805 11.1631C12.5415 11.836 13.0859 12.5541 13.6094 13.3125C11.8285 15.5287 11.0334 18.2741 11.2217 20.9639C11.4783 20.9859 11.7377 21 12 21C12.4145 21 12.8221 20.9693 13.2217 20.915C13.0613 18.9034 13.5749 16.848 14.7617 15.1152C14.8305 15.2309 14.902 15.3457 14.9697 15.4629C15.75 16.8144 16.4019 18.1788 16.9346 19.5244C17.5234 19.1375 18.0633 18.6834 18.5449 18.1729C18.0239 16.9336 17.4106 15.6901 16.7021 14.4629C16.5197 14.1469 16.3316 13.8364 16.1416 13.5303C17.5314 12.266 19.2214 11.5175 20.9678 11.2793C20.9139 10.5993 20.7875 9.94055 20.5908 9.31152C18.5886 9.60521 16.6517 10.4514 15.0264 11.8506C14.5231 11.1401 14.0012 10.4615 13.4629 9.81934C15.2367 8.31369 17.0756 7.09716 18.875 6.19434C18.4178 5.65349 17.8984 5.16738 17.3271 4.74707C15.572 5.69105 13.8132 6.89403 12.126 8.33105C11.5593 7.7421 10.9801 7.19171 10.3926 6.68262C11.2881 5.56711 11.9309 4.3168 12.3271 3.00781C12.2186 3.00393 12.1095 3 12 3Z" fill="#141414"/>
</svg>
