<svg width="24" height="24" viewBox="0 0 24 24" fill="none" xmlns="http://www.w3.org/2000/svg">
<path d="M10.205 2.8838C10.9377 1.3941 13.0622 1.39414 13.7949 2.8838L16.0634 7.49805L21.1455 8.24023C22.7833 8.47938 23.438 10.4908 22.2549 11.6484L18.5732 15.25L19.4424 20.332C19.7216 21.9666 18.0048 23.211 16.5381 22.4375L12 20.0429L7.46188 22.4375C5.99515 23.2112 4.27835 21.9666 4.55758 20.332L5.42575 15.25L1.74508 11.6484C0.562083 10.4908 1.21662 8.47934 2.85446 8.24023L7.93551 7.49805L10.205 2.8838ZM12 17.9131C12.1603 17.9131 12.3208 17.9513 12.4668 18.0283L17.4707 20.6689L16.5146 15.0703C16.4595 14.7469 16.5663 14.4169 16.8008 14.1875L20.8564 10.2197L15.2549 9.40234C14.9291 9.35479 14.6474 9.14981 14.5019 8.85449L12 3.76661V17.9131Z" fill="#141414"/>
</svg>
