<svg width="24" height="24" viewBox="0 0 24 24" fill="none" xmlns="http://www.w3.org/2000/svg">
<path d="M12 1C16.9706 1 21 5.02944 21 10C21 14.6326 17.5 18.4479 13 18.9453V21H17V23H7V21H11V18.9453C6.50005 18.4479 3 14.6326 3 10C3 5.02944 7.02944 1 12 1ZM12 6C9.79086 6 8 7.79086 8 10C8 12.2091 9.79086 14 12 14C14.2091 14 16 12.2091 16 10C16 7.79086 14.2091 6 12 6ZM12 8C13.1046 8 14 8.89543 14 10C14 11.1046 13.1046 12 12 12C10.8954 12 10 11.1046 10 10C10 8.89543 10.8954 8 12 8Z" fill="#141414"/>
</svg>
