<svg width="24" height="24" viewBox="0 0 24 24" fill="none" xmlns="http://www.w3.org/2000/svg">
<path d="M22 22H2V20H22V22ZM3.5 18H1V16H3.5V18ZM12 12C15.3173 12 18 14.7172 18 18H6C6 14.7172 8.68274 12 12 12ZM23 16V18H20.5V16H23ZM6.70703 10.293L5.29297 11.7071L3.29297 9.70708L4.70703 8.29302L6.70703 10.293ZM20.707 9.70708L18.707 11.7071L17.293 10.293L19.293 8.29302L20.707 9.70708ZM11.293 2.29302C11.6835 1.90249 12.3165 1.90249 12.707 2.29302L16.707 6.29302L15.293 7.70708L13 5.41411V9.00005H11V5.41411L8.70703 7.70708L7.29297 6.29302L11.293 2.29302Z" fill="#141414"/>
</svg>
