<svg width="24" height="24" viewBox="0 0 24 24" fill="none" xmlns="http://www.w3.org/2000/svg">
<path d="M6.71875 3C7.63637 3 8.43648 3.6245 8.65918 4.51465L9.29883 7.07422C9.50362 7.89395 9.17164 8.75381 8.46875 9.22266L6.68652 10.4102C7.8411 13.6257 10.3735 16.1576 13.5889 17.3125L14.7773 15.5312C15.2462 14.8284 16.106 14.4964 16.9258 14.7012L19.4854 15.3408C20.3755 15.5635 21 16.3636 21 17.2812V20C21 21.6569 19.6569 23 18 23C8.61116 23 1 15.3888 1 6C1 4.34315 2.34315 3 4 3H6.71875ZM13 6C15.7614 6 18 8.23858 18 11H16C16 9.34315 14.6569 8 13 8V6ZM13 2C17.9706 2 22 6.02944 22 11H20C20 7.13401 16.866 4 13 4V2Z" fill="#141414"/>
</svg>
