<svg width="24" height="24" viewBox="0 0 24 24" fill="none" xmlns="http://www.w3.org/2000/svg">
<path d="M12 2C13.1046 2 14 2.89543 14 4V20C14 21.1046 13.1046 22 12 22H11.0703C10.0673 22 9.13061 21.4986 8.57422 20.6641L5.46484 16H3.5C2.11929 16 1 14.8807 1 13.5V10.5C1 9.11929 2.11929 8 3.5 8H5.46484L8.57422 3.33594C9.13061 2.50136 10.0673 2.00002 11.0703 2H12ZM19.5527 5.42285C21.6353 6.86715 23 9.27366 23 12C23 14.7261 21.6351 17.1318 19.5527 18.5762L18.4141 16.9316C19.9759 15.8484 21 14.0446 21 12C21 9.95515 19.9761 8.15059 18.4141 7.06738L19.5527 5.42285ZM17.2754 8.71191C18.3169 9.43403 19 10.6366 19 12C19 13.3632 18.3167 14.565 17.2754 15.2871L16.1377 13.6426C16.6581 13.2815 17 12.6814 17 12C17 11.3184 16.6583 10.7175 16.1377 10.3564L17.2754 8.71191Z" fill="#141414"/>
</svg>
