<svg width="24" height="24" viewBox="0 0 24 24" fill="none" xmlns="http://www.w3.org/2000/svg">
<path d="M8.74219 2.59955C12.4305 0.158939 17.4432 0.558499 20.6924 3.80756C24.4023 7.51755 24.4023 13.5332 20.6924 17.2431C17.5942 20.341 12.89 20.8487 9.26172 18.7724L6.19629 21.8388C5.41522 22.6196 4.14913 22.6198 3.36817 21.8388L2.66113 21.1318C1.88017 20.3508 1.88035 19.0847 2.66113 18.3037L5.72657 15.2373C4.89338 13.7797 4.47865 12.1498 4.47949 10.5205C3.00922 9.78013 2.00002 8.25839 2 6.49995C2 4.01466 4.01472 1.99994 6.5 1.99994C7.31681 1.99994 8.08186 2.21913 8.74219 2.59955ZM4.0752 19.7177L4.78223 20.4248L7.61133 17.5957L7.27735 17.2617C7.27098 17.2553 7.26417 17.2495 7.25782 17.2431C7.2469 17.2322 7.23644 17.2209 7.22559 17.2099L6.9043 16.8886L4.0752 19.7177ZM6.5 3.99995C5.11929 3.99995 4 5.11923 4 6.49995C4.00003 7.88063 5.11931 8.99995 6.5 8.99995C6.58637 8.99995 6.67175 8.9958 6.75586 8.98725C7.00774 8.96165 7.24854 8.8984 7.47266 8.80366C7.62225 8.74042 7.76442 8.66305 7.89747 8.57319C8.1637 8.39339 8.39344 8.16364 8.57325 7.89741C8.6631 7.76437 8.74047 7.62219 8.80372 7.4726C8.89847 7.24848 8.9617 7.00768 8.98731 6.75581C8.99587 6.67169 9 6.58632 9 6.49995C9 6.41985 8.99467 6.3408 8.98731 6.26264C8.86774 4.99328 7.80065 3.99995 6.5 3.99995Z" fill="#141414"/>
</svg>
