<svg width="24" height="24" viewBox="0 0 24 24" fill="none" xmlns="http://www.w3.org/2000/svg">
<path d="M12 0.999878C13.0464 0.999878 14.0604 1.1468 15.0215 1.42078C16.8526 0.60631 19.0592 0.975129 20.5498 2.52821C21.7704 3.80018 22.221 5.56507 21.9004 7.20011C22.6052 8.65137 23 10.2807 23 12C23 18.0751 18.0751 23 12 23C10.2808 23 8.65114 22.6048 7.19922 21.8994C3.53181 20.1178 1 16.3555 1 12C1.00001 11.052 1.12026 10.1306 1.34668 9.25091C2.56774 4.50672 6.87307 0.999878 12 0.999878ZM3.10938 10.5908C3.03731 11.0494 3.00001 11.5201 3 12C3 15.2528 4.72534 18.1047 7.31445 19.6865L8.79102 17.4912C9.08948 17.0476 9.23897 16.8255 9.27051 16.5957C9.29818 16.3935 9.26358 16.1876 9.1709 16.0058C9.06554 15.7992 8.85147 15.6391 8.42383 15.3183L8.40039 15.2998C8.2639 15.1974 8.15523 15.0621 8.08594 14.9062L6.69531 11.7763C6.55888 11.4693 6.49042 11.3158 6.38477 11.1982C6.29118 11.094 6.17666 11.0102 6.04883 10.9531C5.90443 10.8886 5.73728 10.8705 5.40332 10.8349L3.10938 10.5908ZM19.1064 3.91298C17.938 2.6959 16.062 2.6959 14.8936 3.91298C13.7028 5.15384 13.7028 7.1829 14.8936 8.42375C14.9147 8.44579 14.9351 8.46921 14.9541 8.49309L17 11.0615L19.0459 8.49309C19.0649 8.46921 19.0853 8.44579 19.1064 8.42375C20.2972 7.1829 20.2972 5.15384 19.1064 3.91298ZM17 4.66689C17.7363 4.66689 18.3329 5.26363 18.333 5.99991C18.333 6.7363 17.7364 7.3339 17 7.3339C16.2637 7.33386 15.667 6.73627 15.667 5.99991C15.6671 5.26366 16.2637 4.66694 17 4.66689Z" fill="#141414"/>
</svg>
