<svg width="24" height="24" viewBox="0 0 24 24" fill="none" xmlns="http://www.w3.org/2000/svg">
<path d="M12 1C15.866 1 19 4.13401 19 8C19 8.54722 18.9371 9.07975 18.8184 9.59082C21.2803 10.675 23 13.1357 23 16C23 19.866 19.866 23 16 23C14.5135 23 13.1337 22.5356 12 21.7451C10.8661 22.536 9.48729 23 8 23C4.13401 23 1 19.866 1 16C1 13.1357 2.7197 10.675 5.18164 9.59082C5.06287 9.07975 5 8.54722 5 8C5 4.13401 8.13401 1 12 1ZM5.91113 11.4561C4.19247 12.2474 3 13.9853 3 16C3 18.7614 5.23858 21 8 21C9.2766 21 10.4416 20.5217 11.3252 19.7344C11.3309 19.7292 11.337 19.7238 11.3428 19.7188C12.3603 18.8035 13 17.4764 13 16C13 15.6372 12.9616 15.2841 12.8887 14.9443C12.5977 14.9812 12.301 15 12 15C9.39089 15 7.11508 13.5726 5.91113 11.4561ZM7.03027 7.44434C7.0101 7.62677 7 7.81219 7 8C7 10.7614 9.23858 13 12 13C12.1875 13 12.3725 12.9889 12.5547 12.9688L7.03027 7.44434ZM9.34766 3.76172C8.7067 4.16368 8.16368 4.7067 7.76172 5.34766L14.6514 12.2373C15.2925 11.8353 15.8353 11.2925 16.2373 10.6514L9.34766 3.76172ZM12 3C11.8122 3 11.6268 3.0101 11.4443 3.03027L16.9688 8.55469C16.9889 8.37253 17 8.18752 17 8C17 5.23858 14.7614 3 12 3Z" fill="#141414"/>
</svg>
