<svg width="24" height="24" viewBox="0 0 24 24" fill="none" xmlns="http://www.w3.org/2000/svg">
<path d="M5.99805 2C8.20613 2 9.99609 3.79086 9.99609 6C9.99609 6.7254 9.8013 7.40461 9.46387 7.99121L13.0518 9.82227L20.5273 5.62305L21.499 7.37305L13.377 12L21.5469 16.6523L20.6533 18.4404L13.0537 14.1768L9.46387 16.0078C9.80156 16.5946 9.99609 17.2743 9.99609 18C9.99609 20.2091 8.20613 22 5.99805 22C3.78998 22 2 20.2091 2 18C2 16.5389 2.78298 15.2605 3.95215 14.5625C4.06976 14.4859 4.20196 14.4225 4.33301 14.3623L8.9707 12L4.33301 9.6377C4.20196 9.57754 4.06975 9.51409 3.95215 9.4375C2.78298 8.73946 2 7.46115 2 6C2 3.79088 3.78998 2.00003 5.99805 2ZM5.99805 16C5.71019 16 5.43673 16.0613 5.18945 16.1709L4.99805 16.2676C4.40075 16.6134 3.99902 17.2599 3.99902 18C3.99902 19.1046 4.89403 20 5.99805 20C7.10209 20 7.99707 19.1046 7.99707 18C7.99707 16.8954 7.10209 16 5.99805 16ZM18 11C18.552 11 19 11.4477 19 12C19 12.5523 18.552 13 18 13H17.9902C17.4382 13 16.9902 12.5523 16.9902 12C16.9902 11.4477 17.4382 11 17.9902 11H18ZM22 11C22.552 11 23 11.4477 23 12C23 12.5523 22.552 13 22 13H21.9902C21.4383 12.9999 20.9912 12.5522 20.9912 12C20.9912 11.4478 21.4383 11.0001 21.9902 11H22ZM5.99805 4C4.89403 4.00003 3.99902 4.89545 3.99902 6C3.99902 6.74012 4.40075 7.38656 4.99805 7.73242L5.18945 7.8291C5.43673 7.93869 5.71019 7.99999 5.99805 8C7.10209 8 7.99707 7.10457 7.99707 6C7.99707 4.89543 7.10209 4 5.99805 4Z" fill="#141414"/>
</svg>
