<svg width="24" height="24" viewBox="0 0 24 24" fill="none" xmlns="http://www.w3.org/2000/svg">
<path d="M14.3936 14C12.3603 15.2248 11 17.4533 11 20C11 21.0738 11.2427 22.0906 11.6748 23H4C2.89543 23 2 22.1046 2 21C2 17.134 5.13401 14 9 14H14.3936ZM18.293 14.793C18.6835 14.4025 19.3165 14.4025 19.707 14.793L23 18.0859L21.5859 19.5L20 17.9141V22H18V17.9141L16.4141 19.5L15 18.0859L18.293 14.793ZM12 2C14.7614 2 17 4.23858 17 7C17 9.76142 14.7614 12 12 12C9.23858 12 7 9.76142 7 7C7 4.23858 9.23858 2 12 2Z" fill="#141414"/>
</svg>
