<svg width="24" height="24" viewBox="0 0 24 24" fill="none" xmlns="http://www.w3.org/2000/svg">
<path d="M9.00781 12.7695C13.6353 12.7695 16.4511 16.2927 17.0039 20.4658C17.1154 21.3078 16.4252 21.9998 15.5869 22H2.42969C1.5913 22 0.900261 21.3079 1.01172 20.4658C1.56454 16.2928 4.38053 12.7697 9.00781 12.7695ZM15.0537 12.7705C19.6444 12.8018 22.4379 16.3113 22.9883 20.4658C23.0997 21.3077 22.4085 21.9998 21.5703 22H18.7637C18.9967 21.4715 19.0982 20.8615 19.0098 20.1934C18.6296 17.3235 17.2884 14.5638 15.0537 12.7705ZM9 2C11.6234 2 13.75 4.12665 13.75 6.75C13.75 9.37335 11.6234 11.5 9 11.5C6.3767 11.4999 4.25 9.37331 4.25 6.75C4.25 4.12669 6.3767 2.00007 9 2ZM15 2C17.6233 2 19.75 4.12665 19.75 6.75C19.75 9.37335 17.6233 11.5 15 11.5C14.5541 11.5 14.123 11.4362 13.7139 11.3213C14.8219 10.1188 15.5 8.51407 15.5 6.75C15.5 4.98567 14.8221 3.38032 13.7139 2.17773C14.123 2.06286 14.5542 2.00001 15 2Z" fill="#141414"/>
</svg>
