<svg width="24" height="24" viewBox="0 0 24 24" fill="none" xmlns="http://www.w3.org/2000/svg">
<path d="M12 2C13.1046 2 14 2.89543 14 4V20C14 21.1046 13.1046 22 12 22H11.0703C10.0673 22 9.13061 21.4986 8.57422 20.6641L5.46484 16H3.5C2.11929 16 1 14.8807 1 13.5V10.5C1 9.11929 2.11929 8 3.5 8H5.46484L8.57422 3.33594C9.13061 2.50136 10.0673 2.00002 11.0703 2H12ZM23 9.87891L20.707 12.1719L23 14.4648L21.5859 15.8789L19.293 13.5859L17 15.8789L15.5859 14.4648L17.8789 12.1719L15.5859 9.87891L17 8.46484L19.293 10.7578L21.5859 8.46484L23 9.87891Z" fill="#141414"/>
</svg>
