<svg width="24" height="24" viewBox="0 0 24 24" fill="none" xmlns="http://www.w3.org/2000/svg">
<path d="M20 3H14C13.4477 3 13 3.44772 13 4V5H22V7H20.9395L20.1738 19.25C20.0418 21.3579 18.2937 23 16.1816 23H7.81836C5.70627 23 3.95817 21.3579 3.82617 19.25L3.06055 7H2V5H11V4C11 2.34315 12.3431 1 14 1H20V3ZM14.5 16C13.6716 16 13 16.6716 13 17.5C13 18.3284 13.6716 19 14.5 19C15.3284 19 16 18.3284 16 17.5C16 16.6716 15.3284 16 14.5 16ZM9.5 15C8.67157 15 8 15.6716 8 16.5C8 17.3284 8.67157 18 9.5 18C10.3284 18 11 17.3284 11 16.5C11 15.6716 10.3284 15 9.5 15ZM13 11.5283C15.7274 12.3719 17.94 11.0897 18.7256 10.3545L18.9355 7H13V11.5283ZM5.29785 10.7451C6.64505 10.3653 8.69097 9.88879 11 10.7021V7H5.06445L5.29785 10.7451Z" fill="#141414"/>
</svg>
