<svg width="24" height="24" viewBox="0 0 24 24" fill="none" xmlns="http://www.w3.org/2000/svg">
<path d="M17 1C19.2091 1 21 2.79086 21 5V19C21 21.2091 19.2091 23 17 23H7C4.79086 23 3 21.2091 3 19V5C3 2.79086 4.79086 1 7 1H17ZM9 19H15V17H9V19ZM15.2041 6.50977C14.3328 5.61712 12.9385 6.01596 12 6.79395C11.0615 6.01593 9.66725 5.61711 8.7959 6.50977C8.23756 7.08199 7.989 7.75917 8 8.45215C8.01076 9.12425 8.2633 9.76639 8.61816 10.3213C9.31958 11.418 10.5365 12.3539 11.7422 12.7529C11.9093 12.8082 12.0907 12.8082 12.2578 12.7529C13.4635 12.3539 14.6804 11.418 15.3818 10.3213C15.7367 9.7664 15.9892 9.12425 16 8.45215C16.011 7.75918 15.7624 7.08198 15.2041 6.50977Z" fill="#141414"/>
</svg>
