<svg width="24" height="24" viewBox="0 0 24 24" fill="none" xmlns="http://www.w3.org/2000/svg">
<path d="M12.7578 1C13.8185 1.00012 14.8359 1.42184 15.5859 2.17188L19.8281 6.41406C20.5782 7.1641 20.9999 8.18148 21 9.24219V19C21 21.2091 19.2091 23 17 23H7C4.79086 23 3 21.2091 3 19V5C3 2.79086 4.79086 1 7 1H12.7578ZM7 19H8.95508V13H7V19ZM10.9336 19H12.8887V11H10.9336V19ZM15.0449 19H17V15H15.0449V19ZM14 6C14 7.10457 14.8954 8 16 8H18.5654C18.5181 7.94042 18.4684 7.88243 18.4141 7.82812L14.1719 3.58594C14.1174 3.53148 14.0598 3.48098 14 3.43359V6Z" fill="#141414"/>
</svg>
