<svg width="24" height="24" viewBox="0 0 24 24" fill="none" xmlns="http://www.w3.org/2000/svg">
<path d="M12 1C12.4695 1 12.8757 1.32665 12.9766 1.78516V1.78613C12.9768 1.78739 12.9778 1.7897 12.9785 1.79297C12.98 1.79966 12.982 1.81056 12.9854 1.8252C12.9922 1.85471 13.0031 1.9002 13.0176 1.95898C13.0466 2.07663 13.0912 2.24828 13.1504 2.45898C13.2693 2.88233 13.4468 3.455 13.6816 4.05762C13.918 4.6641 14.2035 5.27694 14.5312 5.79199C14.8671 6.31975 15.1996 6.66933 15.5 6.84277C16.4708 7.40327 18.0836 8.28491 19.4355 9.55957C20.8032 10.8491 22 12.6285 22 15C22 17.5994 20.6383 19.6297 18.7334 20.9736C18.5437 21.1074 18.347 21.2327 18.1465 21.3535C16.351 22.4359 14.1477 23 12 23C9.6124 23 7.15449 22.3055 5.2666 20.9736C3.36168 19.6297 2 17.5994 2 15C2 12.6285 3.1968 10.8491 4.56445 9.55957C5.91645 8.28491 7.52918 7.40327 8.5 6.84277C8.80041 6.66933 9.13291 6.31975 9.46875 5.79199C9.79648 5.27694 10.082 4.6641 10.3184 4.05762C10.5532 3.455 10.7307 2.88233 10.8496 2.45898C10.9088 2.24828 10.9534 2.07663 10.9824 1.95898C10.9969 1.9002 11.0078 1.85471 11.0146 1.8252C11.018 1.81056 11.02 1.79966 11.0215 1.79297C11.0222 1.7897 11.0232 1.78739 11.0234 1.78613C11.1242 1.32743 11.5304 1 12 1ZM8.80176 10.3975C7.9041 11.5872 7.0001 13.2285 7 16.0742C7 17.5157 7.1617 18.8162 7.44824 19.9512C8.17713 20.3175 8.98159 20.5939 9.82031 20.7705C9.33447 19.6209 9 18.0444 9 16.0742C9.0001 13.7459 9.708 12.5176 10.3984 11.6025L9.59961 11L8.80176 10.3975ZM14.4004 11L13.6016 11.6025C14.292 12.5176 14.9999 13.7459 15 16.0742C15 18.0446 14.6646 19.6209 14.1787 20.7705C15.0175 20.594 15.8218 20.3174 16.5508 19.9512C16.8374 18.8162 17 17.5158 17 16.0742C16.9999 13.2285 16.0959 11.5872 15.1982 10.3975L14.4004 11Z" fill="#141414"/>
</svg>
