<svg width="24" height="24" viewBox="0 0 24 24" fill="none" xmlns="http://www.w3.org/2000/svg">
<path d="M9 3H15V1H17V3H18C20.2091 3 22 4.79086 22 7V18C22 20.2091 20.2091 22 18 22H6C3.79086 22 2 20.2091 2 18V7C2 4.79086 3.79086 3 6 3H7V1H9V3ZM15.2041 12.1094C14.3327 11.2167 12.9385 11.6165 12 12.3945C11.0615 11.6165 9.66729 11.2167 8.7959 12.1094C8.23743 12.6816 7.98904 13.3587 8 14.0518C8.01069 14.7238 8.26336 15.366 8.61816 15.9209C9.31956 17.0175 10.5365 17.9535 11.7422 18.3525C11.9093 18.4078 12.0907 18.4078 12.2578 18.3525C13.4635 17.9535 14.6804 17.0175 15.3818 15.9209C15.7366 15.366 15.9893 14.7238 16 14.0518C16.011 13.3587 15.7626 12.6816 15.2041 12.1094ZM6 5C4.89543 5 4 5.89543 4 7V9H20V7C20 5.89543 19.1046 5 18 5H6Z" fill="#141414"/>
</svg>
