<svg width="24" height="24" viewBox="0 0 24 24" fill="none" xmlns="http://www.w3.org/2000/svg">
<path d="M18 2C20.2091 2 22 3.79086 22 6V18C22 20.2091 20.2091 22 18 22H6C3.79086 22 2 20.2091 2 18V6C2 3.79086 3.79086 2 6 2H18ZM7.5 15C6.67157 15 6 15.6716 6 16.5C6 17.3284 6.67157 18 7.5 18C8.32843 18 9 17.3284 9 16.5C9 15.6716 8.32843 15 7.5 15ZM7 13C9.20914 13 11 14.7909 11 17H13C13 13.6863 10.3137 11 7 11V13ZM7 9C11.4183 9 15 12.5817 15 17H17C17 11.4772 12.5228 7 7 7V9Z" fill="#141414"/>
</svg>
