<svg width="24" height="24" viewBox="0 0 24 24" fill="none" xmlns="http://www.w3.org/2000/svg">
<path d="M13 1C15.2091 1 17 2.79086 17 5H17.8515C19.8688 5.00002 21.5701 6.50222 21.8203 8.50391L23.0703 18.5039C23.3687 20.8913 21.5075 23 19.1015 23H4.89842C2.49255 22.9999 0.631271 20.8912 0.929669 18.5039L2.17967 8.50391C2.42988 6.50228 4.13123 5.00012 6.14842 5H6.99998C6.99998 2.79094 8.79095 1.00012 11 1H13ZM6.99998 9H8.99998V7H6.99998V9ZM15 9H17V7H15V9ZM11 3C9.89551 3.00012 8.99998 3.89551 8.99998 5H15C15 3.89543 14.1045 3 13 3H11Z" fill="#141414"/>
</svg>
