<svg width="24" height="24" viewBox="0 0 24 24" fill="none" xmlns="http://www.w3.org/2000/svg">
<path d="M9 1C12.8003 1 15.9813 3.65029 16.7969 7.20312C20.3497 8.01872 23 11.1997 23 15C23 19.4183 19.4183 23 15 23C11.1997 23 8.01872 20.3497 7.20312 16.7969C3.65029 15.9813 1 12.8003 1 9C1 4.58172 4.58172 1 9 1ZM16.9932 9.33887C16.8203 13.4876 13.4876 16.8203 9.33887 16.9932C10.1606 19.3271 12.385 21 15 21C18.3137 21 21 18.3137 21 15C21 12.385 19.3271 10.1606 16.9932 9.33887ZM9 3C5.68629 3 3 5.68629 3 9C3 11.615 4.67286 13.8394 7.00684 14.6611C7.17974 10.5124 10.5124 7.17974 14.6611 7.00684C13.8394 4.67286 11.615 3 9 3Z" fill="#141414"/>
</svg>
