<svg width="24" height="24" viewBox="0 0 24 24" fill="none" xmlns="http://www.w3.org/2000/svg">
<path d="M12 1C18.0751 1 23 5.92487 23 12C23 18.0751 18.0751 23 12 23C5.92487 23 1 18.0751 1 12C1 5.92487 5.92487 1 12 1ZM8 15C6.51304 15 5.21575 15.8115 4.52637 17.0156C6.14231 19.4187 8.88639 21 12 21C15.1134 21 17.8567 19.4185 19.4727 17.0156C18.7832 15.8117 17.4868 15 16 15H8ZM12 6C10.3431 6 9 7.34315 9 9C9 10.6569 10.3431 12 12 12C13.6569 12 15 10.6569 15 9C15 7.34315 13.6569 6 12 6Z" fill="#141414"/>
</svg>
