<svg width="24" height="24" viewBox="0 0 24 24" fill="none" xmlns="http://www.w3.org/2000/svg">
<path d="M17 1C19.2091 1 21 2.79086 21 5V19C21 21.2091 19.2091 23 17 23H7C4.79086 23 3 21.2091 3 19V5C3 2.79086 4.79086 1 7 1H17ZM13.5 9C12.1193 9 11 10.1193 11 11.5V15H13V11.5C13 11.2239 13.2239 11 13.5 11C13.7761 11 14 11.2239 14 11.5V15C14 16.1046 13.1046 17 12 17C10.8954 17 10 16.1046 10 15V11H8V15C8 17.2091 9.79086 19 12 19C14.2091 19 16 17.2091 16 15V11.5C16 10.1193 14.8807 9 13.5 9ZM8 4C8 5.10457 8.89543 6 10 6H13.9824C15.0798 5.99976 15.9716 5.11495 15.9814 4.01758L15.9912 3H8V4Z" fill="#141414"/>
</svg>
