<svg width="24" height="24" viewBox="0 0 24 24" fill="none" xmlns="http://www.w3.org/2000/svg">
<path d="M12 1C17.5451 1 21.9999 5.63121 22 11.1816V12C22 12.2652 21.8946 12.5195 21.707 12.707C21.5195 12.8946 21.2652 13 21 13H13V19.5752C13.0001 20.362 13.638 20.9999 14.4248 21C15.2117 21 15.8495 20.3621 15.8496 19.5752V18.3633H17.8496V19.5752C17.8495 21.4667 16.3163 23 14.4248 23C12.5334 22.9999 11.0001 21.4666 11 19.5752V13H3C2.44772 13 2 12.5523 2 12V11.1816C2.00009 5.63121 6.45494 1 12 1Z" fill="#141414"/>
</svg>
