<svg width="24" height="24" viewBox="0 0 24 24" fill="none" xmlns="http://www.w3.org/2000/svg">
<path d="M9.99609 1.00486C11.2357 0.287281 12.7643 0.28728 14.0039 1.00486L20.5039 4.76756C21.7391 5.48267 22.4999 6.80224 22.5 8.22948V12H20.5V8.23436L17.501 9.97167L14.0039 11.9961C13.6853 12.1805 13.347 12.3157 13 12.4053V21.2656L13.002 21.2647L16.249 19.3848L17.251 21.1152L14.0039 22.9951C12.7643 23.7127 11.2357 23.7127 9.99609 22.9951L3.49609 19.2324C2.26091 18.5173 1.50006 17.1978 1.5 15.7705V8.22948C1.5001 6.80224 2.26091 5.48267 3.49609 4.76756L9.99609 1.00486ZM24 17H17V15H24V17ZM4.49805 6.49901L4.49512 6.49998L10.998 10.2646C11.6178 10.6234 12.3822 10.6234 13.002 10.2646L15.002 9.10643L7.48633 4.76756L4.49805 6.49901ZM13.002 2.73533C12.3822 2.37667 11.6178 2.37667 10.998 2.73533L9.4834 3.61131L16.998 7.95018L19.5029 6.49998L19.502 6.49901L13.002 2.73533Z" fill="#141414"/>
</svg>
