<svg width="24" height="24" viewBox="0 0 24 24" fill="none" xmlns="http://www.w3.org/2000/svg">
<path d="M12 1C18.0751 1 23 5.92487 23 12C23 18.0751 18.0751 23 12 23C5.92487 23 1 18.0751 1 12C1 5.92487 5.92487 1 12 1ZM7.66699 14.2227C7.66726 17.2293 10.1046 19.667 13.1113 19.667C14.831 19.6669 16.3652 18.8676 17.3613 17.625L15.8008 16.374C15.1679 17.1635 14.1985 17.6669 13.1113 17.667C11.2092 17.667 9.66726 16.1247 9.66699 14.2227H7.66699ZM18.5 12C17.6716 12 17 12.6716 17 13.5C17 14.3284 17.6716 15 18.5 15C19.3284 15 20 14.3284 20 13.5C20 12.6716 19.3284 12 18.5 12ZM12.5 9C11.6716 9 11 9.67157 11 10.5C11 11.3284 11.6716 12 12.5 12C13.3284 12 14 11.3284 14 10.5C14 9.67157 13.3284 9 12.5 9Z" fill="#141414"/>
</svg>
