<svg width="24" height="24" viewBox="0 0 24 24" fill="none" xmlns="http://www.w3.org/2000/svg">
<path d="M11 22H6C3.79086 22 2 20.2091 2 18V15H11V22ZM22 18C22 20.2091 20.2091 22 18 22H13V15H22V18ZM14.5 2C16.433 2 18 3.567 18 5.5C18 6.03681 17.8791 6.54536 17.6631 7H18C20.2091 7 22 8.79086 22 11V13H13V7H11V13H2V11C2 8.79086 3.79086 7 6 7H6.33691C6.12093 6.54536 6 6.03681 6 5.5C6 3.567 7.567 2 9.5 2C10.4797 2 11.3647 2.40311 12 3.05176C12.6353 2.40311 13.5203 2 14.5 2ZM9.5 4C8.67157 4 8 4.67157 8 5.5C8 6.32843 8.67157 7 9.5 7H11V5.5C11 4.67157 10.3284 4 9.5 4ZM14.5 4C13.6716 4 13 4.67157 13 5.5V7H14.5C15.3284 7 16 6.32843 16 5.5C16 4.67157 15.3284 4 14.5 4Z" fill="#141414"/>
</svg>
