<svg width="24" height="24" viewBox="0 0 24 24" fill="none" xmlns="http://www.w3.org/2000/svg">
<path d="M6.16699 3C9.02013 3.00018 11.333 5.31361 11.333 8.16699V18.333C11.333 19.8057 10.1395 20.9998 8.66699 21C7.19432 21 6 19.8058 6 18.333V13.3311C3.22394 13.2431 1.00017 10.9646 1 8.16699C1 5.31351 3.31371 3 6.16699 3ZM17.833 3C20.6863 3 23 5.31351 23 8.16699C22.9998 10.9646 20.7761 13.2431 18 13.3311V18.333C18 19.8058 16.8057 21 15.333 21C13.8605 20.9998 12.667 19.8057 12.667 18.333V8.16699C12.667 5.31361 14.9799 3.00018 17.833 3Z" fill="#141414"/>
</svg>
