<svg width="24" height="24" viewBox="0 0 24 24" fill="none" xmlns="http://www.w3.org/2000/svg">
<path fill-rule="evenodd" clip-rule="evenodd" d="M17.5 2C20.5375 2.00005 23 4.46247 23 7.5V8C23 8.55225 22.5522 8.99995 22 9H17.3867L17.7373 10.0537C17.9866 10.0191 18.2411 10 18.5 10C21.5376 10 24 12.4624 24 15.5C24 18.5376 21.5376 21 18.5 21C15.4624 21 13 18.5376 13 15.5C13 15.3314 13.0086 15.1647 13.0234 15H10.9766C10.9914 15.1647 11 15.3314 11 15.5C11 18.5376 8.53757 21 5.5 21C2.46243 21 0 18.5376 0 15.5C0 12.4624 2.46243 10 5.5 10C5.64562 10 5.78985 10.0065 5.93262 10.0176L6.1416 9.24121C6.15703 9.18362 6.17682 9.1284 6.20117 9.07617C6.19149 9.05101 6.18285 9.02549 6.17383 9H4C1.79086 9 0 7.20914 0 5H2C2 6.10457 2.89543 7 4 7H6.17383C6.58594 5.83532 7.69415 5 9 5H13C14.3116 5 15.4233 5.84288 15.8311 7.01562C15.8864 7.00614 15.9429 7 16 7H16.5V3C16.5 2.44772 16.9477 2 17.5 2ZM5.40137 12.002C3.51399 12.0542 2 13.6 2 15.5C2 17.433 3.567 19 5.5 19C7.433 19 9 17.433 9 15.5C9 14.2392 8.33303 13.1347 7.33301 12.5186L6.46582 15.7588C6.32289 16.2922 5.77465 16.6087 5.24121 16.4658C4.70775 16.3229 4.39124 15.7747 4.53418 15.2412L5.40137 12.002ZM18.3877 12.0029L19.4482 15.1836C19.6228 15.7074 19.3401 16.2735 18.8164 16.4482C18.2926 16.6229 17.7265 16.3401 17.5518 15.8164L16.4902 12.6338C15.5889 13.267 15 14.3148 15 15.5C15 17.433 16.567 19 18.5 19C20.433 19 22 17.433 22 15.5C22 13.567 20.433 12 18.5 12C18.4624 12 18.425 12.0018 18.3877 12.0029ZM15.498 9.6582C14.9605 10.4663 14.0433 11 13 11H9C8.87328 11 8.74856 10.9908 8.62598 10.9756C9.37165 11.4918 9.9828 12.1872 10.3984 13H13.6016C14.1011 12.0232 14.8828 11.2148 15.8408 10.6846L15.498 9.6582Z" fill="black"/>
</svg>
