<svg width="24" height="24" viewBox="0 0 24 24" fill="none" xmlns="http://www.w3.org/2000/svg">
<path d="M6 22H0V20H6V22ZM17.6973 0.62793C17.9624 0.627979 18.2168 0.734454 18.4043 0.921875L23.1367 5.6543C23.5269 6.04481 23.5271 6.67792 23.1367 7.06836L21.7021 8.50195C21.943 11.2509 20.9596 13.9778 18.9961 15.9414L18.0352 16.9023C17.7207 17.2166 17.302 17.4069 16.8584 17.4365L8.2998 18.0068C8.05304 18.0233 7.81002 17.9465 7.61719 17.7959L12.4834 12.9297C12.6484 12.9737 12.8212 13 13 13C14.1045 12.9999 15 12.1045 15 11C15 9.89549 14.1045 9.0001 13 9C11.8955 9.0001 11 9.89549 11 11C11 11.1785 11.0255 11.351 11.0693 11.5156L6.21289 16.3721C6.09542 16.1922 6.03744 15.9777 6.05176 15.7598L6.62305 7.2002L6.6416 7.03516C6.70196 6.65358 6.8812 6.29868 7.15625 6.02344L8.11719 5.0625C10.0794 3.10053 12.8048 2.11596 15.5547 2.35645L16.9902 0.921875C17.1777 0.734476 17.4322 0.62802 17.6973 0.62793Z" fill="#141414"/>
</svg>
