<svg width="24" height="24" viewBox="0 0 24 24" fill="none" xmlns="http://www.w3.org/2000/svg">
<path d="M9.77851 1.29297C10.169 0.902478 10.802 0.902454 11.1926 1.29297L20.3849 10.4854C21.5562 11.6569 21.5562 13.556 20.3849 14.7276L19.6769 15.4346L21.7989 17.5567C22.9703 18.7283 22.9704 20.6273 21.7989 21.7989C20.6274 22.9704 18.7283 22.9703 17.5568 21.7989L15.4347 19.6768L14.7277 20.3848C13.5927 21.5196 11.7744 21.5553 10.5969 20.4913L10.4855 20.3848L1.29323 11.1924L1.22389 11.1162C0.903838 10.7235 0.92725 10.1444 1.29323 9.77834L9.77851 1.29297ZM3.4143 10.4854L7.64083 14.7119L14.7121 7.64064L10.4855 3.41407L3.4143 10.4854Z" fill="#141414"/>
</svg>
