<svg width="24" height="24" viewBox="0 0 24 24" fill="none" xmlns="http://www.w3.org/2000/svg">
<g clip-path="url(#clip0_1486_3218)">
<path d="M9 19C10.1046 19 11 19.8954 11 21C11 22.1046 10.1046 23 9 23C7.89543 23 7 22.1046 7 21C7 19.8954 7.89543 19 9 19ZM17 19C18.1046 19 19 19.8954 19 21C19 22.1046 18.1046 23 17 23C15.8954 23 15 22.1046 15 21C15 19.8954 15.8954 19 17 19ZM2.71973 1C3.63714 1.00022 4.43651 1.62465 4.65918 2.51465L5.28027 5H23C23.3161 5 23.614 5.14971 23.8027 5.40332C23.9912 5.6568 24.0487 5.98456 23.958 6.28711L21.5996 14.1494C21.092 15.8414 19.534 17 17.7676 17H9.34277C7.5073 17 5.90708 15.7504 5.46191 13.9697L2.71973 3H0V1H2.71973Z" fill="#141414"/>
</g>
<defs>
<clipPath id="clip0_1486_3218">
<rect width="24" height="24" fill="white"/>
</clipPath>
</defs>
</svg>
