<svg width="24" height="24" viewBox="0 0 24 24" fill="none" xmlns="http://www.w3.org/2000/svg">
<path d="M16.1514 1.00586C16.8944 1.0648 17.4467 1.55453 17.6534 2.18066C17.8631 2.81642 17.7092 3.54605 17.209 4.07324L16.0665 5.27539C15.693 5.66862 15.7015 6.28847 16.085 6.67188L17.2559 7.8418C17.6534 8.23915 18.3003 8.23141 18.6876 7.82422L19.8204 6.63184L19.918 6.53516C20.4203 6.0729 21.1031 5.9112 21.7178 6.08008C22.3646 6.25788 22.8883 6.79629 22.9805 7.54981L22.9932 7.7041L23 8C23 11.7451 20.0587 14.8035 16.3604 14.9912L16.0001 15C15.2227 15 14.475 14.8704 13.7764 14.6357L5.91414 22.5C5.18198 23.2322 4.02374 23.2776 3.23837 22.6377L3.08603 22.5L1.50009 20.9141C0.719044 20.133 0.719046 18.867 1.50009 18.0859L9.36238 10.2217C9.12823 9.52342 9.00008 8.77642 9.00008 8C9.00008 4.13401 12.1341 1 16.0001 1L16.1514 1.00586Z" fill="#141414"/>
</svg>
