<svg width="24" height="24" viewBox="0 0 24 24" fill="none" xmlns="http://www.w3.org/2000/svg">
<g clip-path="url(#clip0_1486_1970)">
<path d="M10.2767 0.956294C11.0502 -0.357177 12.9504 -0.357175 13.7239 0.956294L16.0892 4.97488L20.7796 4.99344C22.3157 4.99998 23.2719 6.66434 22.5032 7.99444L20.1868 12.0003L22.5032 16.0062C23.2716 17.3363 22.3156 19.0007 20.7796 19.0072L16.0892 19.0248L13.7239 23.0444C12.9505 24.3576 11.0502 24.3575 10.2767 23.0444L7.91044 19.0248L3.22098 19.0072C1.68482 19.0008 0.728725 17.3364 1.49735 16.0062L3.81278 12.0003L1.49735 7.99444C0.728622 6.66428 1.68478 4.99983 3.22098 4.99344L7.91044 4.97488L10.2767 0.956294Z" fill="#141414"/>
</g>
<defs>
<clipPath id="clip0_1486_1970">
<rect width="24" height="24" fill="white"/>
</clipPath>
</defs>
</svg>
