<svg width="24" height="24" viewBox="0 0 24 24" fill="none" xmlns="http://www.w3.org/2000/svg">
<path d="M13.1543 2.00391C14.7394 2.08421 16 3.39489 16 5V8H19L19.1543 8.00391C20.7394 8.08421 22 9.39489 22 11V19C22 20.6569 20.6569 22 19 22H11C9.3949 22 8.08421 20.7394 8.00391 19.1543L8 19V16H5C3.39489 16 2.08421 14.7394 2.00391 13.1543L2 13V5C2 3.34315 3.34315 2 5 2H13L13.1543 2.00391ZM16 13C16 14.6569 14.6569 16 13 16H10V19L10.0049 19.1025C10.0562 19.6067 10.4823 20 11 20H19C19.5523 20 20 19.5523 20 19V11C20 10.4823 19.6067 10.0562 19.1025 10.0049L19 10H16V13ZM5 4C4.44772 4 4 4.44772 4 5V13L4.00488 13.1025C4.05621 13.6067 4.48232 14 5 14H8V11C8 9.34315 9.34315 8 11 8H14V5C14 4.48232 13.6067 4.05621 13.1025 4.00488L13 4H5Z" fill="#141414"/>
</svg>
