<svg width="24" height="24" viewBox="0 0 24 24" fill="none" xmlns="http://www.w3.org/2000/svg">
<path d="M15.0701 2.0256C15.4606 1.63508 16.0946 1.63508 16.4851 2.0256L22.1413 7.68279C22.5318 8.07332 22.5318 8.70635 22.1413 9.09684L20.3611 10.8771C20.6733 14.1359 19.5195 17.3758 17.1921 19.7032L16.0437 20.8516C15.7011 21.1942 15.2448 21.4005 14.7615 21.4327L4.53102 22.1153C4.27929 22.1321 4.03118 22.0531 3.83668 21.8966L3.7566 21.8243L10.6218 14.9591C11.5189 15.3105 12.5777 15.1243 13.3025 14.3995C14.2788 13.4232 14.2788 11.8407 13.3025 10.8644C12.3262 9.88823 10.7436 9.88815 9.76733 10.8644C9.04257 11.5892 8.85641 12.648 9.20777 13.5451L2.34254 20.4102C2.13866 20.2063 2.03235 19.9235 2.05153 19.6358L2.73414 9.40543C2.76637 8.92207 2.97265 8.46577 3.3152 8.12322L4.46363 6.97576C6.79005 4.64952 10.0299 3.49224 13.2908 3.80489L15.0701 2.0256Z" fill="#141414"/>
</svg>
