<svg width="24" height="24" viewBox="0 0 24 24" fill="none" xmlns="http://www.w3.org/2000/svg">
<path d="M11.0521 1.26137C11.6675 1.05648 12.3332 1.05638 12.9486 1.26137L19.8255 3.55433C21.1378 3.99199 21.9812 5.27045 21.8665 6.64904L21.3294 13.0875C21.0937 15.9158 19.5377 18.4678 17.1312 19.9722L12.5306 22.8472C12.2064 23.0498 11.7943 23.0498 11.4701 22.8472L6.86947 19.9722C4.46268 18.4679 2.90697 15.9159 2.67123 13.0875L2.13412 6.64904C2.01945 5.27036 2.86271 3.99193 4.17514 3.55433L11.0521 1.26137ZM12.0003 20.6997L16.0706 18.2759C17.9424 17.1059 19.1529 15.1213 19.3363 12.9215L19.8734 6.48302C19.9114 6.02363 19.63 5.59667 19.1927 5.4508L12.0003 3.19984V20.6997Z" fill="#141414"/>
</svg>
