<svg width="24" height="24" viewBox="0 0 24 24" fill="none" xmlns="http://www.w3.org/2000/svg">
<path d="M17.5 2C19.9853 2 22 4.01472 22 6.5C22 8.06112 21.2042 9.4338 20 10.2402V14C20 16.0502 18.7657 17.8114 17 18.583V22C17 22.5523 16.5523 23 16 23H6C5.44772 23 5 22.5523 5 22V18.582C3.30879 17.8427 2.10498 16.1963 2.00684 14.2568L2 14V9H8C8.55228 9 9 9.44772 9 10V11C9 11.5523 8.55228 12 8 12H6V14H8C9.65685 14 11 12.6569 11 11H16V9H10.8262C10.4141 7.83532 9.30585 7 8 7H2C2 6.9105 2.00423 6.82262 2.00879 6.73633C2.00471 6.66257 2 6.58324 2 6.5C2 4.01472 4.01472 2 6.5 2H17.5ZM7 21H15V19H7V21Z" fill="#141414"/>
</svg>
