<svg width="24" height="24" viewBox="0 0 24 24" fill="none" xmlns="http://www.w3.org/2000/svg">
<path d="M12.3936 14C10.3603 15.2248 9 17.4533 9 20C9 21.0738 9.24273 22.0906 9.6748 23H4C2.89543 23 2 22.1046 2 21C2 17.134 5.13401 14 9 14H12.3936ZM18.6504 12C19.6454 11.0181 21.2589 11.0181 22.2539 12C23.2488 12.9819 23.2487 14.5738 22.2539 15.5557L16.0947 21.6357C15.9838 21.7452 15.8481 21.827 15.6992 21.876L12.4385 22.9492C12.0754 23.0684 11.6749 22.975 11.4043 22.708C11.1336 22.4408 11.0391 22.045 11.1602 21.6865L12.2471 18.4697C12.2967 18.3228 12.3802 18.1886 12.4912 18.0791L18.6504 12ZM20.8242 13.4111C20.6188 13.2084 20.2855 13.2084 20.0801 13.4111L14.0898 19.3232L13.7178 20.4248L14.834 20.0576L20.8242 14.1455C21.0296 13.9428 21.0295 13.6139 20.8242 13.4111ZM12 2C14.7614 2 17 4.23858 17 7C17 9.76142 14.7614 12 12 12C9.23858 12 7 9.76142 7 7C7 4.23858 9.23858 2 12 2Z" fill="#141414"/>
</svg>
