<svg width="24" height="24" viewBox="0 0 24 24" fill="none" xmlns="http://www.w3.org/2000/svg">
<path d="M11 3C12.8638 3 14.43 4.27477 14.874 6H17.5C18.759 6 19.9448 6.59336 20.7002 7.60059L22 9.33398C22.6488 10.1993 22.9999 11.2515 23 12.333V16.5C23 17.6046 22.1046 18.5 21 18.5H20.8545C20.4242 19.9457 19.0855 21 17.5 21C15.9145 21 14.5758 19.9457 14.1455 18.5H10.8545C10.4242 19.9457 9.08545 21 7.5 21C5.91455 21 4.57583 19.9457 4.14551 18.5H2.75C1.7835 18.5 1 17.7165 1 16.75V7C1 4.79086 2.79086 3 5 3H11ZM7.5 16C6.67157 16 6 16.6716 6 17.5C6 18.3284 6.67157 19 7.5 19C8.32843 19 9 18.3284 9 17.5C9 16.6716 8.32843 16 7.5 16ZM17.5 16C16.6716 16 16 16.6716 16 17.5C16 18.3284 16.6716 19 17.5 19C18.3284 19 19 18.3284 19 17.5C19 16.6716 18.3284 16 17.5 16ZM15 10H20.001L19.1006 8.7998C18.7229 8.29629 18.1294 8 17.5 8H15V10Z" fill="#141414"/>
</svg>
