<svg width="24" height="24" viewBox="0 0 24 24" fill="none" xmlns="http://www.w3.org/2000/svg">
<path d="M12 1C12.6124 1 13.2127 1.05222 13.7979 1.14844H13.7988C13.8501 1.15688 13.9011 1.16664 13.9521 1.17578C14.1043 1.20304 14.2553 1.23315 14.4053 1.2666C14.4742 1.28198 14.5429 1.29779 14.6113 1.31445C14.6963 1.33515 14.781 1.35625 14.8652 1.37891C14.9029 1.38903 14.9401 1.40062 14.9775 1.41113C15.1685 1.46471 15.3574 1.52247 15.5439 1.58594C15.571 1.59512 15.5981 1.60389 15.625 1.61328C15.7253 1.64829 15.8249 1.68485 15.9238 1.72266C15.9595 1.73627 15.9948 1.75067 16.0303 1.76465C16.1795 1.82346 16.3267 1.88611 16.4727 1.95117C16.535 1.97895 16.5975 2.00626 16.6592 2.03516C16.731 2.06878 16.8021 2.10355 16.873 2.13867C16.9521 2.17778 17.0305 2.21786 17.1084 2.25879C17.209 2.31164 17.3085 2.36603 17.4072 2.42188C17.473 2.45909 17.5386 2.49663 17.6035 2.53516C17.6787 2.57978 17.7531 2.62553 17.8271 2.67188C17.8849 2.70801 17.942 2.74505 17.999 2.78223C18.0639 2.82452 18.1295 2.86557 18.1934 2.90918C18.3014 2.9829 18.4075 3.05929 18.5127 3.13672C18.5649 3.17517 18.6164 3.21455 18.668 3.25391C18.7327 3.30331 18.7968 3.3535 18.8604 3.4043C18.9192 3.45129 18.9783 3.49774 19.0361 3.5459C19.0791 3.58165 19.1207 3.61888 19.1631 3.65527C19.2815 3.75703 19.3977 3.86114 19.5117 3.96777C19.5645 4.01717 19.6171 4.06677 19.6689 4.11719C19.7267 4.17338 19.7843 4.22967 19.8408 4.28711C19.8715 4.31829 19.9013 4.35029 19.9316 4.38184C20.0416 4.49632 20.1489 4.61327 20.2539 4.73242C20.3044 4.78972 20.355 4.84693 20.4043 4.90527C20.4477 4.95666 20.4907 5.00836 20.5332 5.06055C20.6074 5.15167 20.6797 5.24438 20.751 5.33789C20.7914 5.39095 20.8316 5.44423 20.8711 5.49805C20.937 5.58778 21.0013 5.67873 21.0645 5.77051C21.0995 5.82144 21.1347 5.87228 21.1689 5.92383C21.2207 6.00173 21.2705 6.08088 21.3203 6.16016C21.3713 6.24141 21.4208 6.32359 21.4697 6.40625C21.5202 6.49154 21.5699 6.57731 21.6182 6.66406C21.6511 6.72338 21.6839 6.78279 21.7158 6.84277C21.7679 6.94076 21.818 7.03992 21.8672 7.13965C21.8843 7.17436 21.9031 7.20824 21.9199 7.24316C21.9799 7.36801 22.0365 7.49466 22.0918 7.62207C22.1237 7.69549 22.1542 7.76951 22.1846 7.84375C22.2106 7.90756 22.2358 7.97173 22.2607 8.03613C22.5456 8.77289 22.7551 9.54702 22.876 10.3506C22.8984 10.4997 22.9171 10.6498 22.9336 10.8008C22.94 10.8599 22.9457 10.9191 22.9512 10.9785C22.9627 11.1023 22.9711 11.2266 22.9785 11.3516C22.981 11.3948 22.9843 11.4381 22.9863 11.4814C22.9945 11.6533 23 11.8261 23 12C23 12.3672 22.9805 12.73 22.9453 13.0879C22.9383 13.1594 22.9293 13.2306 22.9209 13.3018C22.9079 13.412 22.8942 13.5217 22.8779 13.6309C22.8678 13.6989 22.8551 13.7664 22.8438 13.834C22.8251 13.9448 22.8071 14.0554 22.7852 14.165C22.7708 14.2367 22.754 14.3077 22.7383 14.3789C22.7163 14.4786 22.6946 14.5781 22.6699 14.6768C22.6513 14.7514 22.6305 14.8254 22.6104 14.8994C22.5848 14.9932 22.5592 15.0869 22.5312 15.1797C22.5041 15.2698 22.4747 15.3591 22.4453 15.4482C22.4221 15.5185 22.3986 15.5886 22.374 15.6582C22.3389 15.7579 22.3016 15.8567 22.2637 15.9551C22.2398 16.0171 22.2164 16.0792 22.1914 16.1406C22.1542 16.2322 22.1148 16.3227 22.0752 16.4131C22.0411 16.4907 22.0065 16.5679 21.9707 16.6445C21.9357 16.7196 21.8999 16.7941 21.8633 16.8682C21.8206 16.9545 21.7764 17.0399 21.7314 17.125C21.6973 17.1897 21.6633 17.2544 21.6279 17.3184C21.5815 17.4023 21.533 17.4848 21.4844 17.5674C21.4407 17.6417 21.397 17.7159 21.3516 17.7891C21.3122 17.8524 21.272 17.9151 21.2314 17.9775C21.1798 18.0572 21.1279 18.1366 21.0742 18.2148C21.0256 18.2857 20.9751 18.3552 20.9248 18.4248C20.8766 18.4916 20.8299 18.5593 20.7803 18.625C20.7386 18.6801 20.695 18.7338 20.6523 18.7881C20.5862 18.8722 20.5197 18.9559 20.4512 19.0381C20.4186 19.0771 20.3846 19.1148 20.3516 19.1533C19.6402 19.983 18.8085 20.7052 17.8818 21.293C17.854 21.3106 17.8268 21.3293 17.7988 21.3467C17.6862 21.4167 17.5713 21.4828 17.4561 21.5488C17.4199 21.5695 17.3841 21.591 17.3477 21.6113C17.2391 21.6719 17.1293 21.7302 17.0186 21.7871C16.977 21.8084 16.9354 21.8298 16.8936 21.8506C16.7782 21.908 16.6616 21.9631 16.5439 22.0166C16.5096 22.0322 16.475 22.0472 16.4404 22.0625C16.3089 22.1206 16.1762 22.1764 16.042 22.2295C16.025 22.2362 16.0082 22.2434 15.9912 22.25C15.6926 22.3664 15.3878 22.4692 15.0771 22.5596C15.0534 22.5665 15.0297 22.5733 15.0059 22.5801C14.8615 22.621 14.7161 22.6592 14.5693 22.6943C14.5544 22.6979 14.5394 22.7016 14.5244 22.7051C14.368 22.7418 14.2106 22.7757 14.0518 22.8057C14.0472 22.8065 14.0426 22.8068 14.0381 22.8076C13.3774 22.9314 12.6966 23 12 23C11.1198 23 10.2647 22.8925 9.44434 22.6973C9.39981 22.6867 9.35486 22.6781 9.31055 22.667C9.17923 22.634 9.04932 22.5972 8.91992 22.5596C8.88706 22.55 8.85403 22.5411 8.82129 22.5312C8.6883 22.4912 8.5566 22.4483 8.42578 22.4033C8.39422 22.3925 8.36249 22.3822 8.33105 22.3711C8.22101 22.3322 8.11231 22.2903 8.00391 22.248C7.94162 22.2237 7.87911 22.2002 7.81738 22.1748C7.733 22.1401 7.64972 22.1032 7.56641 22.0664C7.48687 22.0313 7.40764 21.9959 7.3291 21.959C7.25206 21.9228 7.17566 21.8856 7.09961 21.8477C7.02253 21.8092 6.94616 21.7697 6.87012 21.7295C6.79573 21.6902 6.7218 21.6503 6.64844 21.6094C6.57045 21.5659 6.49282 21.5219 6.41602 21.4766C6.34024 21.4318 6.26502 21.3863 6.19043 21.3398C6.12103 21.2966 6.05273 21.2518 5.98438 21.207C5.9109 21.1589 5.83786 21.1103 5.76562 21.0605C5.6985 21.0143 5.63244 20.9667 5.56641 20.9189C5.49575 20.8679 5.42485 20.8173 5.35547 20.7646C5.29081 20.7156 5.22759 20.6647 5.16406 20.6143C5.09171 20.5568 5.0191 20.4997 4.94824 20.4404C4.8905 20.3921 4.83407 20.3424 4.77734 20.293C4.705 20.2299 4.63218 20.1674 4.56152 20.1025C4.49453 20.041 4.42971 19.9772 4.36426 19.9141C4.30809 19.8599 4.25129 19.8064 4.19629 19.751C4.13218 19.6865 4.07031 19.6198 4.00781 19.5537C3.74303 19.2737 3.49227 18.9805 3.25781 18.6738C3.23993 18.6504 3.22082 18.628 3.20312 18.6045C3.1636 18.5519 3.12649 18.4976 3.08789 18.4443C3.02506 18.3576 2.9617 18.2712 2.90137 18.1826C2.86113 18.1235 2.82328 18.0628 2.78418 18.0029C2.73099 17.9214 2.67803 17.8398 2.62695 17.7568C2.58465 17.6881 2.54375 17.6185 2.50293 17.5488C2.45653 17.4696 2.41067 17.39 2.36621 17.3096C2.33017 17.2443 2.29548 17.1784 2.26074 17.1123C2.2136 17.0227 2.16679 16.9328 2.12207 16.8418C2.0916 16.7797 2.06254 16.717 2.0332 16.6543C1.98978 16.5615 1.94714 16.4682 1.90625 16.374C1.8727 16.2967 1.8404 16.2188 1.80859 16.1406C1.77646 16.0616 1.74518 15.9822 1.71484 15.9023C1.68421 15.8216 1.65378 15.7408 1.625 15.6592C1.59545 15.5754 1.56761 15.491 1.54004 15.4062C1.51471 15.3284 1.48945 15.2505 1.46582 15.1719C1.4377 15.0784 1.41142 14.9842 1.38574 14.8896C1.36584 14.8164 1.34655 14.7428 1.32812 14.6689C1.3044 14.5738 1.28295 14.478 1.26172 14.3818C1.24479 14.3052 1.22723 14.2286 1.21191 14.1514C1.19105 14.0462 1.17311 13.9402 1.15527 13.834C1.14375 13.7654 1.13036 13.697 1.12012 13.6279C1.10407 13.5198 1.09197 13.4109 1.0791 13.3018C1.07067 13.2303 1.06076 13.1588 1.05371 13.0869C1.03876 12.9345 1.0282 12.7811 1.01953 12.627C1.01814 12.6022 1.0149 12.5775 1.01367 12.5527C1.00461 12.3696 1 12.1854 1 12C1 11.8853 1.0053 11.7711 1.00879 11.6572C1.02962 10.977 1.11107 10.3127 1.25 9.66895H1.24902C1.26203 9.60867 1.278 9.54916 1.29199 9.48926C1.41336 8.96962 1.56958 8.464 1.76172 7.97559C1.77799 7.93422 1.79379 7.89268 1.81055 7.85156C1.85326 7.74675 1.89851 7.64321 1.94434 7.54004C1.96422 7.49528 1.98442 7.4507 2.00488 7.40625C2.05128 7.30546 2.09911 7.20556 2.14844 7.10645C2.17369 7.05571 2.19958 7.00536 2.22559 6.95508C2.27166 6.866 2.3178 6.77709 2.36621 6.68945C2.39987 6.62852 2.43593 6.56901 2.4707 6.50879C2.65622 6.18755 2.85724 5.87682 3.07324 5.57715C3.09305 5.54967 3.11178 5.52143 3.13184 5.49414C3.19171 5.41267 3.25339 5.33267 3.31543 5.25293C3.35447 5.20276 3.39273 5.15201 3.43262 5.10254C3.50372 5.01433 3.57665 4.92773 3.65039 4.8418C3.67219 4.8164 3.69379 4.79082 3.71582 4.76562C3.79639 4.67344 3.87836 4.58259 3.96191 4.49316C3.98738 4.46591 4.01332 4.4391 4.03906 4.41211C4.41116 4.02183 4.81172 3.65947 5.2373 3.32715C5.27641 3.29662 5.31496 3.26536 5.35449 3.23535C5.43947 3.17082 5.5264 3.10896 5.61328 3.04688C5.65429 3.01758 5.6949 2.98772 5.73633 2.95898C5.82997 2.89398 5.92478 2.83069 6.02051 2.76855C6.05527 2.746 6.08997 2.72334 6.125 2.70117C6.2242 2.63837 6.32447 2.57726 6.42578 2.51758C6.46296 2.49568 6.50062 2.47459 6.53809 2.45312C6.63953 2.39496 6.74128 2.33722 6.84473 2.28223C6.8721 2.26768 6.90022 2.25455 6.92773 2.24023C7.57134 1.90506 8.25156 1.63149 8.96191 1.42773C8.9834 1.42158 9.00483 1.41521 9.02637 1.40918C9.15913 1.37198 9.29299 1.33796 9.42773 1.30566C9.44171 1.30232 9.45573 1.29919 9.46973 1.2959C10.2823 1.10454 11.129 1 12 1ZM20.1768 8.24121C17.709 8.46797 15.3034 9.52472 13.4141 11.4141C10.8455 13.9826 9.81478 17.505 10.3184 20.8408C10.8633 20.9438 11.4251 21 12 21C12.125 21 12.2493 20.9953 12.373 20.9902C11.7928 18.1315 12.611 15.0453 14.8281 12.8281C16.4906 11.1656 18.6418 10.2898 20.8193 10.2002C20.6803 9.51541 20.4616 8.85992 20.1768 8.24121ZM12 3C11.8425 3 11.6858 3.00372 11.5303 3.01172C11.148 4.53591 10.3639 5.97981 9.17188 7.17188C7.53292 8.81083 5.41917 9.68161 3.27344 9.79102C3.11059 10.4364 3.01985 11.1094 3.00488 11.8018C5.75397 11.7537 8.48811 10.6838 10.5859 8.58594C12.138 7.03385 13.1262 5.13297 13.5557 3.13574C13.0502 3.04766 12.5306 3 12 3Z" fill="#141414"/>
</svg>
