<svg width="24" height="24" viewBox="0 0 24 24" fill="none" xmlns="http://www.w3.org/2000/svg">
<path d="M7.54885 6.13487L17.8653 16.4513L21.8995 20.4854L20.4854 21.8995L17.2588 18.6729L16.9542 19.794C16.5497 21.2749 14.6961 21.766 13.6104 20.6807L9.1719 16.2433L4.9297 20.4854L3.51465 19.0714L7.75783 14.8292L3.31934 10.3907C2.23405 9.3049 2.72598 7.45121 4.20704 7.04698L5.32618 6.74034L2.10059 3.51476L3.51465 2.10069L7.54885 6.13487ZM11.9532 2.85362C13.4137 0.906576 16.2603 0.704947 17.9815 2.42589L21.5753 6.01866C23.2959 7.73972 23.0941 10.5864 21.1475 12.047L19.0811 13.5968C18.8419 13.7762 18.6482 14.0069 18.5108 14.2686L9.73147 5.48936C9.99316 5.35196 10.2249 5.15928 10.4043 4.92003L11.9532 2.85362Z" fill="#141414"/>
</svg>
