<svg width="24" height="24" viewBox="0 0 24 24" fill="none" xmlns="http://www.w3.org/2000/svg">
<path d="M14.3936 14C12.3603 15.2248 11 17.4533 11 20C11 21.0738 11.2427 22.0906 11.6748 23H4C2.89543 23 2 22.1046 2 21C2 17.134 5.13401 14 9 14H14.3936ZM19.5 16V19.5859L21.5859 17.5L23 18.9141L19.207 22.707C18.8165 23.0975 18.1835 23.0975 17.793 22.707L14 18.9141L15.4141 17.5L17.5 19.5859V16H19.5ZM12 2C14.7614 2 17 4.23858 17 7C17 9.76142 14.7614 12 12 12C9.23858 12 7 9.76142 7 7C7 4.23858 9.23858 2 12 2Z" fill="#141414"/>
</svg>
