<svg width="24" height="24" viewBox="0 0 24 24" fill="none" xmlns="http://www.w3.org/2000/svg">
<path d="M12.6709 3.41402C14.2327 1.85241 16.7651 1.8528 18.3271 3.41402L21.085 6.17183C22.6467 7.73387 22.6467 10.266 21.085 11.8281L12.9131 20H20.499V22H6.91308C6.38303 21.9997 5.87383 21.7888 5.49901 21.414L2.91308 18.8281C1.35197 17.2661 1.35182 14.7337 2.91308 13.1718L12.6709 3.41402ZM16.9131 4.82808C16.132 4.04791 14.8657 4.04752 14.085 4.82808L12.1631 6.74898L17.749 12.3349L19.6709 10.414C20.4516 9.63303 20.4516 8.36688 19.6709 7.58589L16.9131 4.82808Z" fill="#141414"/>
</svg>
