<svg width="24" height="24" viewBox="0 0 24 24" fill="none" xmlns="http://www.w3.org/2000/svg">
<path d="M19 1C20.6569 1 22 2.34315 22 4C22 5.65685 20.6569 7 19 7C17.6938 7 16.5828 6.16516 16.1709 5H13V11H16.1709C16.5828 9.83484 17.6938 9 19 9C20.6569 9 22 10.3431 22 12C22 13.6569 20.6569 15 19 15C17.6938 15 16.5828 14.1652 16.1709 13H13V15.2002C13 16.0566 13.0003 16.6388 13.0371 17.0889C13.0729 17.5273 13.1381 17.7518 13.2178 17.9082C13.4095 18.2845 13.7155 18.5905 14.0918 18.7822C14.2482 18.8619 14.4727 18.9271 14.9111 18.9629C15.2412 18.9899 15.6425 18.9969 16.1709 18.999C16.583 17.8343 17.6941 17 19 17C20.6569 17 22 18.3431 22 20C22 21.6569 20.6569 23 19 23C17.6935 23 16.5825 22.1646 16.1709 20.999C15.6236 20.9969 15.1513 20.989 14.748 20.9561C14.186 20.9101 13.6689 20.8117 13.1836 20.5645C12.4311 20.181 11.819 19.5689 11.4355 18.8164C11.1883 18.3311 11.0899 17.814 11.0439 17.252C10.9997 16.7108 11 16.0462 11 15.2412V5H7.8291C7.41725 6.16516 6.3062 7 5 7C3.34315 7 2 5.65685 2 4C2 2.34315 3.34315 1 5 1C6.3062 1 7.41725 1.83484 7.8291 3H16.1709C16.5828 1.83484 17.6938 1 19 1ZM19 19C18.4477 19 18 19.4477 18 20C18 20.5523 18.4477 21 19 21C19.5523 21 20 20.5523 20 20C20 19.4477 19.5523 19 19 19ZM19 3C18.4477 3 18 3.44772 18 4C18 4.55228 18.4477 5 19 5C19.5523 5 20 4.55228 20 4C20 3.44772 19.5523 3 19 3Z" fill="#141414"/>
</svg>
