<svg width="24" height="24" viewBox="0 0 24 24" fill="none" xmlns="http://www.w3.org/2000/svg">
<path d="M12.0146 17C13.3143 17 14.4173 17.8358 14.8271 19.001H22V21.001H14.8262C14.4158 22.1651 13.3136 23 12.0146 23H11.9854C10.6864 23 9.58421 22.1651 9.17383 21.001H2V19.001H9.17285C9.58266 17.8358 10.6857 17 11.9854 17H12.0146ZM12 1C12.1356 1 12.2704 1.0031 12.4043 1.00977C12.4301 1.01105 12.4557 1.0141 12.4814 1.01562C12.5825 1.02163 12.6832 1.02836 12.7832 1.03809C12.8561 1.04517 12.9286 1.05444 13.001 1.06348C13.0525 1.06991 13.104 1.0756 13.1553 1.08301C13.2253 1.09314 13.2948 1.10526 13.3643 1.11719C13.4254 1.12769 13.4863 1.13851 13.5469 1.15039C13.6133 1.16341 13.6793 1.17774 13.7451 1.19238C13.8036 1.20541 13.8619 1.2191 13.9199 1.2334C13.9775 1.24759 14.0347 1.26289 14.0918 1.27832C14.1588 1.29643 14.2257 1.31419 14.292 1.33398C14.3545 1.35266 14.4166 1.37243 14.4785 1.39258C14.5299 1.4093 14.5809 1.4266 14.6318 1.44434C14.7 1.46808 14.7676 1.49303 14.835 1.51855C14.8876 1.53854 14.94 1.55902 14.9922 1.58008C15.0524 1.60436 15.1124 1.6286 15.1719 1.6543C15.2267 1.67804 15.2807 1.70359 15.335 1.72852C15.3984 1.75767 15.4619 1.78663 15.5244 1.81738C15.5611 1.83545 15.5974 1.85443 15.6338 1.87305C15.7086 1.91125 15.7831 1.94977 15.8564 1.99023C15.8775 2.00186 15.898 2.01456 15.9189 2.02637C16.2794 2.22937 16.6223 2.45937 16.9453 2.71387C16.9828 2.74343 17.0207 2.77252 17.0576 2.80273C17.1188 2.85273 17.1786 2.9043 17.2383 2.95605C17.2672 2.98117 17.2966 3.00573 17.3252 3.03125C17.4826 3.17178 17.6335 3.31925 17.7793 3.47168C17.8024 3.49581 17.8259 3.51953 17.8486 3.54395C17.9065 3.60597 17.9626 3.66955 18.0186 3.7334C18.0421 3.76032 18.0657 3.78722 18.0889 3.81445C18.1445 3.87973 18.1994 3.94563 18.2529 4.0127C18.2727 4.03753 18.292 4.06281 18.3115 4.08789C19.3684 5.44388 20 7.14762 20 9C20 10.8521 19.3681 12.5552 18.3115 13.9111C18.292 13.9362 18.2727 13.9615 18.2529 13.9863C18.1994 14.0534 18.1445 14.1193 18.0889 14.1846C18.0657 14.2118 18.0421 14.2387 18.0186 14.2656C17.966 14.3257 17.9137 14.3859 17.8594 14.4443C17.8332 14.4725 17.8059 14.4996 17.7793 14.5273C17.6344 14.6788 17.4844 14.8251 17.3281 14.9648C17.3151 14.9765 17.3022 14.9884 17.2891 15C17.2132 15.0669 17.136 15.1322 17.0576 15.1963C17.0207 15.2265 16.9828 15.2556 16.9453 15.2852C16.6222 15.5397 16.2794 15.7696 15.9189 15.9727C15.898 15.9845 15.8775 15.9972 15.8564 16.0088C15.783 16.0493 15.7086 16.0878 15.6338 16.126C15.5974 16.1446 15.5611 16.1636 15.5244 16.1816C15.4619 16.2124 15.3984 16.2413 15.335 16.2705C15.2807 16.2954 15.2268 16.321 15.1719 16.3447C15.1124 16.3704 15.0524 16.3947 14.9922 16.4189C14.94 16.44 14.8876 16.4605 14.835 16.4805C14.7676 16.506 14.7 16.5309 14.6318 16.5547C14.5809 16.5724 14.5299 16.5897 14.4785 16.6064C14.4166 16.6266 14.3545 16.6464 14.292 16.665C14.2257 16.6848 14.1588 16.7026 14.0918 16.7207C14.0347 16.7361 13.9775 16.7514 13.9199 16.7656C13.8619 16.7799 13.8036 16.7936 13.7451 16.8066C13.6793 16.8213 13.6133 16.8356 13.5469 16.8486C13.4863 16.8605 13.4254 16.8713 13.3643 16.8818C13.2948 16.8938 13.2253 16.9059 13.1553 16.916C13.104 16.9234 13.0525 16.9291 13.001 16.9355C12.9286 16.9446 12.8561 16.9538 12.7832 16.9609C12.6832 16.9707 12.5825 16.9774 12.4814 16.9834C12.4557 16.9849 12.4301 16.988 12.4043 16.9893C12.2704 16.9959 12.1356 17 12 17C11.8641 17 11.729 16.996 11.5947 16.9893C11.5689 16.988 11.5433 16.9849 11.5176 16.9834C11.4165 16.9774 11.3159 16.9707 11.2158 16.9609C11.1429 16.9538 11.0704 16.9446 10.998 16.9355C10.9465 16.9291 10.895 16.9234 10.8438 16.916C10.7737 16.9059 10.7042 16.8938 10.6348 16.8818C10.5737 16.8713 10.5128 16.8605 10.4521 16.8486C10.3857 16.8356 10.3197 16.8213 10.2539 16.8066C10.1954 16.7936 10.1371 16.7799 10.0791 16.7656C10.0215 16.7514 9.96433 16.7361 9.90723 16.7207C9.84024 16.7026 9.77331 16.6848 9.70703 16.665C9.64448 16.6464 9.5824 16.6266 9.52051 16.6064C9.46915 16.5897 9.41808 16.5724 9.36719 16.5547C9.299 16.5309 9.23139 16.506 9.16406 16.4805C9.11138 16.4605 9.05898 16.44 9.00684 16.4189C8.94667 16.3946 8.88658 16.3704 8.82715 16.3447C8.77227 16.321 8.71829 16.2954 8.66406 16.2705C8.6006 16.2413 8.53716 16.2124 8.47461 16.1816C8.43788 16.1636 8.40164 16.1446 8.36523 16.126C8.29046 16.0878 8.21597 16.0493 8.14258 16.0088C8.1215 15.9972 8.10104 15.9845 8.08008 15.9727C7.71964 15.7696 7.37673 15.5397 7.05371 15.2852C7.01622 15.2556 6.97835 15.2265 6.94141 15.1963C6.86323 15.1324 6.78661 15.0668 6.71094 15C6.69762 14.9882 6.68414 14.9767 6.6709 14.9648C6.51462 14.8251 6.36459 14.6788 6.21973 14.5273C6.19332 14.4997 6.16664 14.4723 6.14062 14.4443C6.08615 14.3857 6.03318 14.3258 5.98047 14.2656C5.95692 14.2387 5.93335 14.2118 5.91016 14.1846C5.85452 14.1193 5.79964 14.0534 5.74609 13.9863C5.72628 13.9615 5.70702 13.9362 5.6875 13.9111C4.63116 12.5553 4 10.8519 4 9C4 7.14783 4.63088 5.4438 5.6875 4.08789C5.70703 4.06282 5.72628 4.03753 5.74609 4.0127C5.79964 3.94563 5.85452 3.87973 5.91016 3.81445C5.93335 3.78722 5.95692 3.76032 5.98047 3.7334C6.03637 3.66955 6.09251 3.60597 6.15039 3.54395C6.17316 3.51953 6.19666 3.49581 6.21973 3.47168C6.36572 3.31908 6.51723 3.17193 6.6748 3.03125C6.70319 3.00589 6.732 2.98101 6.76074 2.95605C6.8204 2.9043 6.88022 2.85274 6.94141 2.80273C6.97835 2.77252 7.01622 2.74343 7.05371 2.71387C7.37672 2.45935 7.71966 2.2294 8.08008 2.02637C8.10104 2.01455 8.1215 2.00186 8.14258 1.99023C8.21596 1.94977 8.29047 1.91126 8.36523 1.87305C8.39387 1.8584 8.42234 1.84341 8.45117 1.8291L8.53125 1.78906C8.57505 1.76795 8.61982 1.74885 8.66406 1.72852C8.71829 1.70359 8.77228 1.67804 8.82715 1.6543C8.88657 1.62859 8.94667 1.60437 9.00684 1.58008C9.05897 1.55902 9.11138 1.53854 9.16406 1.51855C9.23139 1.49302 9.29901 1.46809 9.36719 1.44434C9.41807 1.4266 9.46916 1.40931 9.52051 1.39258C9.5824 1.37242 9.64449 1.35266 9.70703 1.33398C9.7733 1.31418 9.84025 1.29644 9.90723 1.27832C9.96432 1.26288 10.0215 1.24759 10.0791 1.2334C10.1371 1.21909 10.1954 1.20542 10.2539 1.19238C10.3197 1.17773 10.3857 1.16341 10.4521 1.15039C10.5128 1.1385 10.5737 1.1277 10.6348 1.11719C10.7042 1.10525 10.7737 1.09314 10.8438 1.08301C10.895 1.07559 10.9465 1.06992 10.998 1.06348C11.0704 1.05444 11.1429 1.04518 11.2158 1.03809C11.3159 1.02835 11.4165 1.02164 11.5176 1.01562C11.5433 1.0141 11.5689 1.01105 11.5947 1.00977C11.729 1.00307 11.8641 1 12 1ZM12.0107 3.00098C12.0166 3.00218 12.0294 3.0057 12.0488 3.01367C12.0884 3.02989 12.1627 3.06817 12.2656 3.15527C12.4813 3.33769 12.7615 3.68016 13.04 4.2373C13.5006 5.15846 13.8543 6.46548 13.9639 8H10.0361C10.1457 6.46548 10.4994 5.15846 10.96 4.2373C11.2385 3.68016 11.5187 3.33769 11.7344 3.15527C11.8373 3.06817 11.9116 3.02989 11.9512 3.01367C11.9706 3.0057 11.9834 3.00218 11.9893 3.00098C11.9948 2.99986 11.9979 3 12 3C10.8849 3 9.84082 3.30407 8.94629 3.83398C8.45805 4.98807 8.13057 6.4228 8.03223 8H6.08496C6.03037 8.32531 6 8.65917 6 9C6 9.34083 6.03037 9.67469 6.08496 10H8.03223C8.13055 11.5768 8.45825 13.0111 8.94629 14.165C9.84092 14.6951 10.8847 15 12 15C13.115 15 14.1583 14.6948 15.0527 14.165C15.5409 13.011 15.8694 11.577 15.9678 10H17.915C17.9696 9.67469 18 9.34083 18 9C18 8.65917 17.9696 8.32531 17.915 8H15.9678C15.8694 6.42264 15.5411 4.98813 15.0527 3.83398C14.1584 3.30433 13.1148 3 12 3C12.0021 3 12.0052 2.99986 12.0107 3.00098ZM13.9639 10C13.8543 11.5345 13.5006 12.8415 13.04 13.7627C12.7615 14.3198 12.4813 14.6623 12.2656 14.8447C12.1627 14.9318 12.0884 14.9701 12.0488 14.9863C12.0294 14.9943 12.0166 14.9978 12.0107 14.999C12.0052 15.0001 12.0021 15 12 15C11.9979 15 11.9948 15.0001 11.9893 14.999C11.9834 14.9978 11.9706 14.9943 11.9512 14.9863C11.9116 14.9701 11.8373 14.9318 11.7344 14.8447C11.5187 14.6623 11.2385 14.3198 10.96 13.7627C10.4994 12.8415 10.1457 11.5345 10.0361 10H13.9639Z" fill="#141414"/>
</svg>
