<svg width="24" height="24" viewBox="0 0 24 24" fill="none" xmlns="http://www.w3.org/2000/svg">
<path d="M14.0817 1.35798C15.6562 0.650997 17.5013 1.41486 18.1149 3.02789L18.9157 5.13432L21.0221 5.93607C22.6354 6.54949 23.3999 8.39471 22.693 9.96924L21.7692 12.0249L22.693 14.0815C23.3998 15.6559 22.6362 17.5012 21.0231 18.1147L18.9157 18.9145L18.1149 21.0219C17.5015 22.6351 15.6562 23.3995 14.0817 22.6928L12.0251 21.7689L9.96942 22.6928C8.39508 23.3995 6.54987 22.6357 5.93623 21.0229L5.13545 18.9145L3.029 18.1147C1.41587 17.5012 0.651397 15.656 1.35811 14.0815L2.28096 12.0249L1.35811 9.96924C0.651362 8.39488 1.41509 6.54965 3.02803 5.93607L5.13545 5.13432L5.93623 3.02886C6.54954 1.41555 8.39488 0.65128 9.96942 1.35798L12.0251 2.28082L14.0817 1.35798ZM11.0134 6.9302L7.61298 15.9301L7.51142 16.2006H9.54267L10.3425 13.9008H13.7087L14.5085 16.2006H16.4899L16.3874 15.9301L12.988 6.9302L12.9391 6.80032H11.0622L11.0134 6.9302ZM13.07 12.2007H10.9313L11.9997 9.1167L13.07 12.2007Z" fill="#141414"/>
</svg>
