<svg width="24" height="24" viewBox="0 0 24 24" fill="none" xmlns="http://www.w3.org/2000/svg">
<path d="M14 1C15.1046 1 16 1.89543 16 3V5.85742L20.0576 9.67969C20.6592 10.2465 20.9999 11.0367 21 11.8633V20C21 21.6569 19.6569 23 18 23H6C4.34315 23 3 21.6569 3 20V11.8848C3 11.0395 3.357 10.2336 3.98242 9.66504L8.5 5.55664V3C8.5 1.89543 9.39543 1 10.5 1H14ZM16 20C16 20.2509 15.9653 20.4936 15.9072 20.7266C15.9024 20.7455 15.8977 20.7644 15.8926 20.7832C15.8728 20.8566 15.8513 20.9289 15.8262 21H18C18.5523 21 19 20.5523 19 20V12H16V20ZM10.2432 13.3643C9.86605 12.8785 9.13395 12.8785 8.75684 13.3643L7.52832 14.9473L7.39355 15.1387C6.76698 16.1216 6.89584 17.4247 7.73242 18.2646C8.70878 19.2448 10.2912 19.2448 11.2676 18.2646C12.1597 17.3689 12.2472 15.9464 11.4717 14.9473L10.2432 13.3643ZM15.0176 9.66504C15.132 9.76906 15.2371 9.8813 15.333 10H17.4805L14.2969 7H12.0869L15.0176 9.66504ZM10.5 5H14V3H10.5V5Z" fill="#141414"/>
</svg>
