<svg width="24" height="24" viewBox="0 0 24 24" fill="none" xmlns="http://www.w3.org/2000/svg">
<path d="M10.3675 1.50165C10.5066 1.50269 10.6456 1.50558 10.7845 1.51142C10.8493 1.51414 10.9141 1.5184 10.9789 1.52216C11.072 1.52758 11.1651 1.53411 11.2581 1.54169C13.1527 1.696 15.016 2.29941 16.679 3.35027C16.7102 3.36991 16.7417 3.38891 16.7728 3.40886C17.1863 3.67558 17.5877 3.969 17.973 4.29167C17.982 4.29923 17.9913 4.30653 18.0003 4.31413C18.2621 4.53472 18.5174 4.76778 18.764 5.01432C18.9153 5.16568 19.0609 5.32094 19.2024 5.47818C19.2313 5.51027 19.2599 5.54253 19.2884 5.57486C19.3313 5.62358 19.3743 5.6721 19.4163 5.72134C19.4397 5.7488 19.4625 5.77673 19.4856 5.80435C19.5364 5.86492 19.5867 5.92564 19.636 5.98696C19.6571 6.01318 19.6777 6.03972 19.6985 6.06607C19.7438 6.12331 19.7882 6.18105 19.8323 6.23892C19.8481 6.25965 19.8636 6.2806 19.8792 6.30141C20.049 6.52728 20.2089 6.75818 20.3606 6.99282C20.4362 7.10983 20.5103 7.22732 20.5813 7.34633C20.6162 7.40462 20.6501 7.46336 20.6839 7.52211C20.7277 7.59842 20.7698 7.67552 20.8118 7.75257C20.8853 7.88722 20.9557 8.02301 21.0237 8.1598C21.0378 8.18824 21.0528 8.21623 21.0667 8.24476C22.7866 11.7753 22.6709 15.9718 20.72 19.4126C20.1984 20.3329 19.5483 21.2005 18.764 21.9849C18.3736 22.3753 17.7405 22.375 17.3499 21.9849H17.3489V21.9839H17.348L17.347 21.9819C17.3453 21.9803 17.3423 21.9782 17.3392 21.9751C17.3325 21.9684 17.323 21.9579 17.3099 21.9448L12.1947 16.8306C11.6592 16.2952 11.89 15.3823 12.6156 15.1656L20.2561 12.8824C20.2149 12.2118 20.1067 11.5451 19.9309 10.8922L11.7337 13.3414C10.9275 13.5823 10.2022 12.7806 10.5228 12.0025L13.7669 4.12858C13.1312 3.89238 12.4771 3.72134 11.8138 3.61882L8.64098 11.3189C8.36911 11.9786 7.51361 12.1497 7.00915 11.6451L1.8334 6.46841C1.82032 6.45533 1.80981 6.44578 1.80313 6.43911C1.79999 6.43598 1.79795 6.433 1.79629 6.4313L1.79434 6.42934L1.79336 6.42837H1.79238C1.40239 6.0378 1.40301 5.40466 1.79336 5.01432C1.89897 4.90872 2.00614 4.80559 2.11465 4.70475C2.16876 4.65446 2.22293 4.60444 2.27773 4.55534C2.29681 4.53824 2.31619 4.52151 2.33535 4.50456C2.40291 4.44479 2.47088 4.38579 2.53945 4.3278C2.55534 4.31436 2.57136 4.3011 2.5873 4.28776C2.65415 4.23182 2.72168 4.17698 2.78945 4.12272C2.8157 4.10171 2.84216 4.08099 2.86855 4.06022C2.92021 4.01957 2.97166 3.97882 3.02382 3.93913C3.06252 3.9097 3.10106 3.88014 3.14003 3.85124C3.19817 3.80812 3.25708 3.76623 3.31581 3.72429C3.33516 3.71048 3.35402 3.69598 3.37343 3.6823C3.43055 3.64203 3.48862 3.60329 3.54628 3.56414C3.74907 3.42643 3.95444 3.29449 4.16346 3.17058C4.17124 3.16597 4.17911 3.16151 4.1869 3.15691C4.33947 3.06694 4.49422 2.98174 4.64979 2.8991C4.67938 2.88338 4.70896 2.86769 4.73866 2.85223C4.88583 2.77563 5.03438 2.70259 5.18396 2.6325C5.21655 2.61723 5.24893 2.60157 5.28162 2.5866C5.42868 2.51932 5.57684 2.45525 5.72595 2.39422C5.75881 2.38077 5.79164 2.36733 5.82459 2.35419C5.96633 2.29765 6.10894 2.24397 6.25232 2.19305C6.27095 2.18643 6.28932 2.17907 6.30798 2.17255L6.59802 2.07587C6.65549 2.05741 6.71318 2.03972 6.77087 2.02216C6.8167 2.0082 6.8626 1.99454 6.90856 1.98114C7.05763 1.93771 7.20745 1.89759 7.35778 1.86005C7.39356 1.85111 7.42935 1.84229 7.4652 1.83368C7.6151 1.79771 7.76545 1.7642 7.91637 1.73407C7.96904 1.72355 8.02179 1.71361 8.07457 1.7038C8.22489 1.67588 8.37562 1.65076 8.52672 1.62861C8.56152 1.6235 8.59637 1.61876 8.63121 1.61396C8.75666 1.59669 8.88232 1.58136 9.00816 1.56806C9.08849 1.55956 9.16892 1.55248 9.24937 1.5456C9.35997 1.53615 9.47062 1.52758 9.5814 1.52118C9.64357 1.51759 9.70572 1.51405 9.76792 1.51142C9.8997 1.50586 10.0316 1.5029 10.1634 1.50165C10.2315 1.50101 10.2995 1.50115 10.3675 1.50165ZM4.00038 21.9995H2.00039V18.9995H4.00038V21.9995ZM9.00035 18.9995H7.00036V15.9996H9.00035V18.9995ZM4.00038 14.9996H2.00039V11.9996H4.00038V14.9996Z" fill="#141414"/>
</svg>
