<svg width="24" height="24" viewBox="0 0 24 24" fill="none" xmlns="http://www.w3.org/2000/svg">
<path d="M18 10C18 10.6397 17.6715 11.1478 17.2939 11.5049C16.9185 11.8599 16.4293 12.1339 15.9072 12.3428C14.8574 12.7627 13.4754 13 12 13C10.5246 13 9.14259 12.7627 8.09277 12.3428C7.57074 12.1339 7.08146 11.8599 6.70605 11.5049C6.32847 11.1478 6 10.6397 6 10C6 9.36029 6.32847 8.8522 6.70605 8.49512C7.08146 8.1401 7.57074 7.86606 8.09277 7.65723C9.14259 7.2373 10.5246 7 12 7C13.4754 7 14.8574 7.2373 15.9072 7.65723C16.4293 7.86606 16.9185 8.1401 17.2939 8.49512C17.6715 8.8522 18 9.36029 18 10Z" fill="black"/>
<path fill-rule="evenodd" clip-rule="evenodd" d="M23 14C23 16.1461 21.5558 17.9187 19.5859 19.1006C17.5962 20.2944 14.9115 21 12 21C9.08849 21 6.40383 20.2944 4.41406 19.1006C2.44424 17.9187 0.999999 16.1461 1 14L1 10C1 7.85391 2.44424 6.08133 4.41406 4.89941C6.40383 3.70555 9.0885 3 12 3C14.9115 3 17.5962 3.70555 19.5859 4.89941C21.5558 6.08133 23 7.85391 23 10L23 14ZM21 10C21 8.83246 20.2059 7.60487 18.5566 6.61523C16.9271 5.63752 14.6113 5 12 5C9.38866 5 7.07288 5.63752 5.44336 6.61523C3.79408 7.60487 3 8.83246 3 10C3 11.1675 3.79408 12.3951 5.44336 13.3848C7.07288 14.3625 9.38866 15 12 15C14.6113 15 16.9271 14.3625 18.5566 13.3848C20.2059 12.3951 21 11.1675 21 10ZM4.41406 15.1006C3.90244 14.7936 3.42755 14.4454 3.00293 14.0625C3.02469 14.9601 3.51393 15.8884 4.5 16.7158L4.5 15.1494C4.47153 15.1327 4.44225 15.1175 4.41406 15.1006ZM10 16.8857C9.48757 16.8271 8.98664 16.7463 8.5 16.6445L8.5 18.5937C8.97922 18.7097 9.48042 18.8025 10 18.8701L10 16.8857ZM15.5 16.6445C15.0134 16.7463 14.5124 16.8271 14 16.8857L14 18.8701C14.5196 18.8025 15.0208 18.7097 15.5 18.5937L15.5 16.6445ZM20.998 14.0625C20.5733 14.4456 20.0978 14.7935 19.5859 15.1006C19.5577 15.1175 19.5285 15.1327 19.5 15.1494L19.5 16.7158C20.4861 15.8884 20.9763 14.9601 20.998 14.0625Z" fill="black"/>
</svg>
