<svg width="24" height="24" viewBox="0 0 24 24" fill="none" xmlns="http://www.w3.org/2000/svg">
<path d="M7.74413 1.08888C8.12324 0.917587 8.56909 0.998802 8.86327 1.29298C9.15728 1.58723 9.23876 2.03308 9.06737 2.41212C8.5308 3.5986 8.23143 4.91636 8.23143 6.30665C8.23154 11.5324 12.4676 15.7685 17.6933 15.7686C19.0836 15.7686 20.4014 15.4692 21.5879 14.9326C21.9669 14.7612 22.4128 14.8426 22.707 15.1367C23.0012 15.4309 23.0824 15.8767 22.9111 16.2559C21.1136 20.2306 17.112 23 12.4619 23C6.13163 22.9998 1 17.8674 1 11.5371C1.00019 6.88725 3.76949 2.88636 7.74413 1.08888Z" fill="#141414"/>
</svg>
