<svg width="24" height="24" viewBox="0 0 24 24" fill="none" xmlns="http://www.w3.org/2000/svg">
<path d="M14.7578 1.5C15.8185 1.50012 16.8359 1.92184 17.5859 2.67188L21.3281 6.41406C22.0782 7.1641 22.4999 8.18149 22.5 9.24219V14.7578C22.4999 15.8185 22.0782 16.8359 21.3281 17.5859L17.5859 21.3281C16.8359 22.0782 15.8185 22.4999 14.7578 22.5H9.66699C8.66623 22.5 7.70159 22.1245 6.96387 21.4482L2.79688 17.6289C1.97053 16.8714 1.5001 15.8017 1.5 14.6807V9.24219C1.50012 8.18149 1.92184 7.1641 2.67188 6.41406L6.41406 2.67188C7.1641 1.92184 8.18149 1.50012 9.24219 1.5H14.7578Z" fill="#141414"/>
</svg>
