<svg width="24" height="24" viewBox="0 0 24 24" fill="none" xmlns="http://www.w3.org/2000/svg">
<path d="M12 1C18.0751 1 23 5.92487 23 12C23 18.0751 18.0751 23 12 23C5.92487 23 1 18.0751 1 12C1 5.92487 5.92487 1 12 1ZM12.3838 6.38867C12.4102 6.06704 11.9801 5.93646 11.8232 6.21875L7.87598 13.3223C7.71819 13.6063 7.9476 13.9499 8.27051 13.9141L12 13.5L11.6104 17.7891C11.5823 18.1009 11.991 18.2415 12.1611 17.9785L16.5479 11.1982C16.73 10.9168 16.5064 10.5498 16.1729 10.583L12 11L12.3838 6.38867Z" fill="#141414"/>
</svg>
