<svg width="24" height="24" viewBox="0 0 24 24" fill="none" xmlns="http://www.w3.org/2000/svg">
<path d="M12 1.5C18.0262 1.5 23 6.1533 23 12C23 17.8467 18.0262 22.5 12 22.5C10.3748 22.5 8.82885 22.1623 7.43652 21.5557L3.52832 22.5674C2.45279 22.8454 1.45829 21.8983 1.68359 20.8105L2.43457 17.1875C1.52303 15.6588 1 13.8877 1 12C1 6.1533 5.97382 1.5 12 1.5ZM7 10.5C6.17157 10.5 5.5 11.1716 5.5 12C5.5 12.8284 6.17157 13.5 7 13.5C7.82843 13.5 8.5 12.8284 8.5 12C8.5 11.1716 7.82843 10.5 7 10.5ZM12 10.5C11.1716 10.5 10.5 11.1716 10.5 12C10.5 12.8284 11.1716 13.5 12 13.5C12.8284 13.5 13.5 12.8284 13.5 12C13.5 11.1716 12.8284 10.5 12 10.5ZM17 10.5C16.1716 10.5 15.5 11.1716 15.5 12C15.5 12.8284 16.1716 13.5 17 13.5C17.8284 13.5 18.5 12.8284 18.5 12C18.5 11.1716 17.8284 10.5 17 10.5Z" fill="#141414"/>
</svg>
