<svg width="24" height="24" viewBox="0 0 24 24" fill="none" xmlns="http://www.w3.org/2000/svg">
<path d="M11.0511 1.32971C11.6664 1.12474 12.3322 1.12485 12.9476 1.32971L19.8245 3.62268C21.1371 4.06032 21.9804 5.33858 21.8655 6.7174L21.3284 13.1559C21.0926 15.9842 19.5369 18.5363 17.1302 20.0406L12.5296 22.9156C12.2054 23.1179 11.7931 23.1181 11.469 22.9156L6.86846 20.0406C4.46193 18.5363 2.90599 15.9841 2.67021 13.1559L2.1331 6.7174C2.0183 5.33884 2.86197 4.06052 4.17412 3.62268L11.0511 1.32971ZM11.0306 10.5152H8.51494V12.484H11.0306V14.9996H12.9993V12.484H15.5149V10.5152H12.9993V7.99962H11.0306V10.5152Z" fill="#141414"/>
</svg>
