<svg width="24" height="24" viewBox="0 0 24 24" fill="none" xmlns="http://www.w3.org/2000/svg">
<path d="M15.9583 3.03661C17.3404 1.65463 19.581 1.65462 20.9632 3.03661C22.3453 4.41873 22.3452 6.6593 20.9632 8.04149L17.2405 11.7651L18.7474 13.272L17.3304 14.6899L15.8226 13.1821L9.09306 19.9126C8.98302 20.0226 8.84812 20.1056 8.70048 20.1548L3.31962 21.9487C2.95942 22.0688 2.56174 21.975 2.29326 21.7065C2.02507 21.4381 1.93122 21.0411 2.05107 20.6811L3.84502 15.2993C3.8942 15.1518 3.97726 15.0177 4.0872 14.9077L10.8177 8.17723L9.31084 6.6704L10.7278 5.25243L12.2356 6.75927L15.9583 3.03661ZM5.67216 16.1577L4.5872 19.4126L7.84209 18.3276L14.4056 11.7651L12.2356 9.5952L5.67216 16.1577Z" fill="#141414"/>
</svg>
