<svg width="24" height="24" viewBox="0 0 24 24" fill="none" xmlns="http://www.w3.org/2000/svg">
<path d="M12.7578 1C13.8185 1.00012 14.8359 1.42184 15.5859 2.17188L19.8281 6.41406C20.5782 7.1641 20.9999 8.18148 21 9.24219V11H14C11.7909 11 10 12.7909 10 15V23H7C4.79086 23 3 21.2091 3 19V5C3 2.79086 4.79086 1 7 1H12.7578ZM17.5 13.8379C18.7713 12.6663 20.7159 12.7241 21.9199 14.0127C23.5106 15.7153 23.1298 17.8315 22.1533 19.4268C21.1843 21.0098 19.4978 22.3676 17.8271 22.9453C17.6155 23.0185 17.3845 23.0184 17.1729 22.9453C15.5022 22.3676 13.8158 21.0099 12.8467 19.4268C11.8702 17.8314 11.4893 15.7154 13.0801 14.0127C14.2841 12.7242 16.2287 12.6662 17.5 13.8379ZM20.459 15.3779C19.9883 14.8742 19.2549 14.8743 18.7842 15.3779L18.2305 15.9707C17.8353 16.3932 17.1648 16.3931 16.7695 15.9707L16.2158 15.3779C15.7452 14.8742 15.0117 14.8743 14.541 15.3779C13.8092 16.1613 13.8271 17.1974 14.5527 18.3828C15.2207 19.4739 16.376 20.4425 17.5 20.9258C18.624 20.4425 19.7793 19.4739 20.4473 18.3828C21.1728 17.1975 21.1907 16.1613 20.459 15.3779ZM14 6C14 7.10457 14.8954 8 16 8H18.5654C18.5181 7.94042 18.4684 7.88243 18.4141 7.82812L14.1719 3.58594C14.1174 3.53148 14.0598 3.48098 14 3.43359V6Z" fill="#141414"/>
</svg>
