<svg width="24" height="24" viewBox="0 0 24 24" fill="none" xmlns="http://www.w3.org/2000/svg">
<path d="M20.8985 10.0303C21.2365 9.45095 21.9665 9.23355 22.5665 9.5332C23.1089 9.80447 23.3852 10.4217 23.2257 11.0068L21.505 17.3154C20.9116 19.4906 18.9354 21 16.6807 21H8.35068C8.12364 21 7.90298 21.0769 7.72568 21.2187L6.23643 22.4111C5.82283 22.7416 5.22252 22.6923 4.86827 22.2988L1.63487 18.7051C1.2791 18.3098 1.29499 17.7052 1.67101 17.3291L6.82823 12.1719C7.57826 11.4218 8.59565 11.0001 9.65635 11H15.5001C16.3284 11.0001 17 11.6717 17.0001 12.5C17 13.3283 16.3284 13.9999 15.5001 14H12.5001C12.224 14 12.0001 14.2239 12.0001 14.5C12.0002 14.7761 12.224 15 12.5001 15H17.4259C17.7813 14.9999 18.11 14.8109 18.2891 14.5039L20.8985 10.0303ZM14.8683 1C16.9928 1.00009 18.7149 2.72052 18.7149 4.84277C18.7149 6.96503 16.9928 8.68546 14.8683 8.68554C12.7436 8.68554 11.0216 6.96509 11.0216 4.84277C11.0216 2.72047 12.7437 1 14.8683 1ZM14.8683 2.92187C13.806 2.92187 12.9444 3.78162 12.9444 4.84277C12.9444 5.90393 13.806 6.76465 14.8683 6.76465C15.9305 6.76456 16.7911 5.90388 16.7911 4.84277C16.7911 3.78168 15.9305 2.92196 14.8683 2.92187Z" fill="#141414"/>
</svg>
