<svg width="24" height="24" viewBox="0 0 24 24" fill="none" xmlns="http://www.w3.org/2000/svg">
<path d="M14.7637 2C15.8999 2 16.9391 2.64191 17.4473 3.6582L17.8418 4.44727C18.0112 4.78599 18.3576 5 18.7363 5H19C21.2091 5 23 6.79086 23 9V18C23 20.2091 21.2091 22 19 22H5C2.79086 22 1 20.2091 1 18V9C1 6.79086 2.79086 5 5 5H5.26367C5.64241 5 5.98879 4.78599 6.1582 4.44727L6.55273 3.6582C7.06093 2.64191 8.10005 2 9.23633 2H14.7637ZM12 8C9.23858 8 7 10.2386 7 13C7 15.7614 9.23858 18 12 18C14.7614 18 17 15.7614 17 13C17 10.2386 14.7614 8 12 8ZM12 10C13.6569 10 15 11.3431 15 13C15 14.6569 13.6569 16 12 16C10.3431 16 9 14.6569 9 13C9 11.3431 10.3431 10 12 10Z" fill="#141414"/>
</svg>
