<svg width="24" height="24" viewBox="0 0 24 24" fill="none" xmlns="http://www.w3.org/2000/svg">
<path d="M21.4922 19.8418L20.0781 21.2559L15.8223 17H13V23H11V17H4.72363C3.18852 16.9996 2.22505 15.3409 2.98633 14.0078L5.62109 9.39746C5.84169 9.01135 5.92714 8.56229 5.86426 8.12207L5.68359 6.8623L2.40039 3.5791L3.81445 2.16406L21.4922 19.8418ZM14.541 1C16.975 1.00011 18.845 3.15588 18.501 5.56543L18.1357 8.12207C18.0729 8.56219 18.1584 9.01141 18.3789 9.39746L21.0137 14.0078C21.466 14.7997 21.3103 15.7067 20.7871 16.3125L6.63867 2.16406C7.35742 1.44834 8.3496 1.00017 9.45898 1H14.541Z" fill="#141414"/>
</svg>
