<svg width="24" height="24" viewBox="0 0 24 24" fill="none" xmlns="http://www.w3.org/2000/svg">
<path d="M9.5 2C10.759 2 11.9448 2.59248 12.7002 3.59961L13.9004 5.2002C14.2781 5.70362 14.8706 6 15.5 6H19C21.2091 6 23 7.79086 23 10V18C23 20.2091 21.2091 22 19 22H5C2.79086 22 1 20.2091 1 18V6C1 3.79086 2.79086 2 5 2H9.5ZM6.79297 13.293C6.40244 13.6835 6.40244 14.3165 6.79297 14.707L9.79297 17.707L11.207 16.293L8.91406 14L11.207 11.707L9.79297 10.293L6.79297 13.293ZM12.793 11.707L15.0859 14L12.793 16.293L14.207 17.707L17.207 14.707C17.5976 14.3165 17.5976 13.6835 17.207 13.293L14.207 10.293L12.793 11.707ZM5 4C3.89543 4 3 4.89543 3 6H12L11.0996 4.7998C10.7219 4.29638 10.1294 4 9.5 4H5Z" fill="#141414"/>
</svg>
