<svg width="24" height="24" viewBox="0 0 24 24" fill="none" xmlns="http://www.w3.org/2000/svg">
<path d="M11.0511 1.32973C11.6664 1.12474 12.3322 1.12484 12.9476 1.32973L19.8245 3.6227C21.1371 4.06035 21.9804 5.33859 21.8655 6.71743L21.3284 13.1559C21.0926 15.9842 19.5369 18.5364 17.1302 20.0407L12.5296 22.9157C12.2055 23.118 11.7931 23.1182 11.4691 22.9157L6.86851 20.0407C4.46196 18.5364 2.90608 15.9842 2.67028 13.1559L2.13317 6.71743C2.01831 5.33883 2.86202 4.06057 4.17418 3.6227L11.0511 1.32973ZM9.29233 7.17837L12.1644 10.0504L9.42612 11.9665C9.18414 12.136 9.02904 12.4045 9.00327 12.6989C8.97765 12.9931 9.08359 13.2839 9.29233 13.4928L13.0072 17.2077L14.4212 15.7926L11.5492 12.9215L14.2874 11.0055C14.5295 10.8361 14.6844 10.5675 14.7103 10.2731C14.736 9.97875 14.6301 9.68815 14.4212 9.47916L10.7064 5.76431L9.29233 7.17837Z" fill="#141414"/>
</svg>
