<svg width="24" height="24" viewBox="0 0 24 24" fill="none" xmlns="http://www.w3.org/2000/svg">
<path d="M5.63574 5.63379C4.80024 6.46935 4.13779 7.46206 3.68555 8.55371C3.23337 9.64547 3.00003 10.8163 3 11.998C3.00006 13.1796 3.23346 14.3498 3.68555 15.4414C4.13777 16.5331 4.80024 17.5257 5.63574 18.3613L4.22168 19.7754C3.20042 18.754 2.38965 17.5414 1.83691 16.207C1.28429 14.8727 1.00006 13.4423 1 11.998C1.00003 10.5537 1.28421 9.12253 1.83691 7.78809C2.38967 6.45371 3.20042 5.24105 4.22168 4.21973L5.63574 5.63379ZM19.7783 4.21973C20.7996 5.24105 21.6103 6.45371 22.1631 7.78809C22.7158 9.12253 23 10.5537 23 11.998C22.9999 13.4423 22.7157 14.8727 22.1631 16.207C21.6104 17.5414 20.7996 18.754 19.7783 19.7754L18.3643 18.3613C19.1998 17.5257 19.8622 16.5331 20.3145 15.4414C20.7665 14.3498 20.9999 13.1796 21 11.998C21 10.8163 20.7666 9.64547 20.3145 8.55371C19.8622 7.46206 19.1998 6.46935 18.3643 5.63379L19.7783 4.21973ZM8.46484 8.46191C8.00066 8.9261 7.63213 9.47753 7.38086 10.084C7.12962 10.6905 7.00101 11.3415 7.00098 11.998C7.00104 12.6544 7.1297 13.3047 7.38086 13.9111C7.63211 14.5176 8.00067 15.069 8.46484 15.5332L7.0498 16.9473C6.39997 16.2973 5.88492 15.5249 5.5332 14.6758C5.18163 13.8268 4.99909 12.9169 4.99902 11.998C4.99906 11.079 5.18155 10.1684 5.5332 9.31934C5.88494 8.47024 6.39996 7.69776 7.0498 7.04785L8.46484 8.46191ZM16.9502 7.04785C17.6 7.69776 18.1151 8.47024 18.4668 9.31934C18.8185 10.1684 19.0009 11.079 19.001 11.998C19.0009 12.9169 18.8184 13.8268 18.4668 14.6758C18.1151 15.5249 17.6 16.2973 16.9502 16.9473L15.5352 15.5332C15.9993 15.069 16.3679 14.5176 16.6191 13.9111C16.8703 13.3047 16.999 12.6544 16.999 11.998C16.999 11.3415 16.8704 10.6905 16.6191 10.084C16.3679 9.47753 15.9993 8.9261 15.5352 8.46191L16.9502 7.04785ZM12 8.99805C13.6568 8.99805 14.9999 10.3413 15 11.998C15 13.6549 13.6569 14.998 12 14.998C10.3431 14.998 9 13.6549 9 11.998C9.00013 10.3413 10.3432 8.99805 12 8.99805Z" fill="#141414"/>
</svg>
