<svg width="24" height="24" viewBox="0 0 24 24" fill="none" xmlns="http://www.w3.org/2000/svg">
<path d="M18 2C20.2091 2 22 3.79086 22 6V13.7578C21.9999 14.3843 21.8512 14.9948 21.5762 15.5449C21.5653 15.5668 21.5543 15.5887 21.543 15.6104C21.5303 15.6345 21.518 15.6587 21.5049 15.6826C21.4903 15.7092 21.4751 15.7355 21.46 15.7617C21.4392 15.7976 21.4174 15.8329 21.3955 15.8682C21.3806 15.8922 21.365 15.9157 21.3496 15.9395C21.3371 15.9586 21.3253 15.9781 21.3125 15.9971C21.2918 16.0277 21.2706 16.0578 21.249 16.0879C21.1942 16.1643 21.1365 16.2388 21.0762 16.3115C21.0576 16.3339 21.0386 16.3559 21.0195 16.3779C20.9978 16.403 20.9765 16.4285 20.9541 16.4531C20.9131 16.4981 20.8714 16.5427 20.8281 16.5859L16.5859 20.8281C16.5306 20.8835 16.4732 20.9365 16.415 20.9883C16.3811 21.0184 16.3463 21.0473 16.3115 21.0762C16.2783 21.1037 16.2449 21.1308 16.2109 21.1572C16.199 21.1665 16.1868 21.1754 16.1748 21.1846C16.146 21.2064 16.1172 21.228 16.0879 21.249C16.0578 21.2706 16.0277 21.2918 15.9971 21.3125C15.9781 21.3253 15.9586 21.3371 15.9395 21.3496C15.9192 21.3628 15.8994 21.3768 15.8789 21.3896C15.8403 21.4138 15.8011 21.4371 15.7617 21.46C15.7439 21.4703 15.726 21.4802 15.708 21.4902C15.6757 21.5083 15.6431 21.5258 15.6104 21.543C15.5887 21.5543 15.5668 21.5653 15.5449 21.5762C15.251 21.7231 14.94 21.8333 14.6182 21.9043C14.611 21.9059 14.6039 21.9076 14.5967 21.9092C14.3229 21.968 14.0421 22 13.7578 22H6C3.79086 22 2 20.2091 2 18V6C2 3.79086 3.79086 2 6 2H18ZM17 15C15.8954 15 15 15.8954 15 17V19.5654C15.0596 19.5182 15.1176 19.4683 15.1719 19.4141L19.4141 15.1719C19.4682 15.1177 19.5173 15.0595 19.5645 15H17ZM7 13C7 15.7614 9.23858 18 12 18H13V16H12C10.3431 16 9 14.6569 9 13H7ZM8.5 8C7.67157 8 7 8.67157 7 9.5C7 10.3284 7.67157 11 8.5 11C9.32843 11 10 10.3284 10 9.5C10 8.67157 9.32843 8 8.5 8ZM15.5 8C14.6716 8 14 8.67157 14 9.5C14 10.3284 14.6716 11 15.5 11C16.3284 11 17 10.3284 17 9.5C17 8.67157 16.3284 8 15.5 8Z" fill="#141414"/>
</svg>
