<svg width="24" height="24" viewBox="0 0 24 24" fill="none" xmlns="http://www.w3.org/2000/svg">
<path d="M9.5 2C10.759 2 11.9448 2.59248 12.7002 3.59961L13.9004 5.2002C14.2781 5.70362 14.8706 6 15.5 6H19C21.2091 6 23 7.79086 23 10V18C23 20.2091 21.2091 22 19 22H5C2.79086 22 1 20.2091 1 18V6C1 3.79086 2.79086 2 5 2H9.5ZM12 9.5498C10.7879 9.54982 9.68736 10.0358 8.88574 10.8213C8.06264 11.6279 7.54981 12.755 7.5498 14C7.5498 16.4577 9.54235 18.4502 12 18.4502C13.245 18.4502 14.3721 17.9374 15.1787 17.1143C15.9642 16.3126 16.4502 15.2121 16.4502 14C16.4502 11.5423 14.4577 9.5498 12 9.5498ZM13.0371 16.3301C12.7203 16.4713 12.3696 16.5498 12 16.5498C10.5917 16.5498 9.4502 15.4083 9.4502 14C9.4502 13.6304 9.52868 13.2797 9.66992 12.9629L13.0371 16.3301ZM12 11.4502C13.4083 11.4502 14.5498 12.5917 14.5498 14C14.5498 14.3424 14.4825 14.6688 14.3604 14.9668L11.0332 11.6396C11.3312 11.5175 11.6576 11.4502 12 11.4502ZM5 4C3.89543 4 3 4.89543 3 6H12L11.0996 4.7998C10.7219 4.29638 10.1294 4 9.5 4H5Z" fill="#141414"/>
</svg>
