<svg width="24" height="24" viewBox="0 0 24 24" fill="none" xmlns="http://www.w3.org/2000/svg">
<path d="M12.5146 1.0127C12.5724 1.01536 12.63 1.01989 12.6875 1.02344C12.8003 1.0304 12.9126 1.03849 13.0244 1.04883C13.0949 1.05534 13.1652 1.06247 13.2354 1.07031C13.3377 1.08176 13.4395 1.09513 13.541 1.10938C13.606 1.11848 13.6708 1.12746 13.7354 1.1377C13.8822 1.16098 14.028 1.18678 14.1729 1.21582C14.1874 1.21874 14.2022 1.22065 14.2168 1.22363L14.2314 1.22656C14.3939 1.26007 14.5551 1.2973 14.7148 1.33789C14.7656 1.35079 14.8157 1.36628 14.8662 1.37988C14.9663 1.40685 15.0661 1.43417 15.165 1.46387C15.2413 1.48674 15.317 1.51069 15.3926 1.53516C15.4738 1.56148 15.5544 1.58904 15.6348 1.61719C15.7115 1.64406 15.7883 1.6707 15.8643 1.69922C15.9637 1.73657 16.0621 1.77628 16.1602 1.81641C16.2003 1.83284 16.2413 1.84736 16.2812 1.86426L16.3086 1.87598C16.4522 1.93722 16.5939 2.00224 16.7344 2.06934C16.775 2.08873 16.8151 2.10903 16.8555 2.12891C16.9652 2.18298 17.0741 2.23831 17.1816 2.2959C17.2302 2.3219 17.278 2.34927 17.3262 2.37598C17.4174 2.4266 17.508 2.47813 17.5977 2.53125C17.6555 2.5655 17.7134 2.59949 17.7705 2.63477C17.8572 2.68828 17.9423 2.74398 18.0273 2.7998C18.0763 2.83197 18.1264 2.86258 18.1748 2.89551C18.2961 2.97797 18.4154 3.06328 18.5332 3.15039V3.15137C21.2424 5.15498 23 8.37171 23 12C23 17.9273 18.3118 22.7565 12.4414 22.9883C12.295 22.9952 12.1479 23 12 23C11.8176 23 11.6363 22.9942 11.4561 22.9854C11.4215 22.9837 11.387 22.9805 11.3525 22.9785C11.2168 22.9706 11.0817 22.961 10.9473 22.9482C10.8852 22.9424 10.8234 22.9356 10.7617 22.9287C10.6495 22.9161 10.5379 22.9017 10.4268 22.8857C10.3644 22.8768 10.3022 22.8674 10.2402 22.8574C10.1349 22.8404 10.0301 22.8217 9.92578 22.8018C9.85788 22.7888 9.79011 22.7759 9.72266 22.7617C9.62145 22.7403 9.52106 22.7165 9.4209 22.6924C9.08919 22.6127 8.76358 22.5182 8.44434 22.4092C8.40691 22.3964 8.36927 22.3843 8.33203 22.3711C8.21575 22.33 8.10078 22.2861 7.98633 22.2412C7.95667 22.2295 7.927 22.218 7.89746 22.2061C7.77923 22.1585 7.66205 22.1091 7.5459 22.0576C7.52139 22.0467 7.49707 22.0355 7.47266 22.0244C7.35531 21.9713 7.23913 21.9164 7.12402 21.8594C7.10642 21.8506 7.08884 21.8418 7.07129 21.833C3.4717 20.0252 1 16.3026 1 12C1 11.6901 1.01589 11.3835 1.04102 11.0801C1.04155 11.0736 1.04145 11.067 1.04199 11.0605C1.0563 10.8914 1.07577 10.7236 1.09766 10.5566C1.09803 10.5538 1.09728 10.5507 1.09766 10.5479C1.11785 10.3948 1.14154 10.2428 1.16797 10.0918C1.1707 10.0762 1.17298 10.0605 1.17578 10.0449L1.17676 10.0439C1.37763 8.92506 1.74695 7.86562 2.25879 6.8916C2.25784 6.89211 2.25681 6.89304 2.25586 6.89355C2.26609 6.87407 2.27774 6.85535 2.28809 6.83594C2.34592 6.7274 2.40547 6.62001 2.4668 6.51367C2.48641 6.47966 2.5064 6.44589 2.52637 6.41211C2.59517 6.29571 2.66633 6.18098 2.73926 6.06738C2.76092 6.03363 2.78169 5.99932 2.80371 5.96582C2.8695 5.86577 2.93791 5.76766 3.00684 5.66992C3.04167 5.62051 3.07668 5.57127 3.1123 5.52246C3.17719 5.43359 3.24309 5.34562 3.31055 5.25879C3.34355 5.2163 3.37655 5.17383 3.41016 5.13184C3.4914 5.03036 3.57446 4.93052 3.65918 4.83203C3.6816 4.80595 3.7039 4.77977 3.72656 4.75391C3.81531 4.65266 3.9057 4.55299 3.99805 4.45508C4.02585 4.42559 4.05391 4.39637 4.08203 4.36719C4.17025 4.2757 4.26025 4.18605 4.35156 4.09766C4.3853 4.06498 4.41897 4.03225 4.45312 4C4.54244 3.91571 4.63251 3.83227 4.72461 3.75098C4.76423 3.71599 4.8046 3.68188 4.84473 3.64746C4.93123 3.57329 5.01862 3.50021 5.10742 3.42871C5.16051 3.38595 5.21466 3.34452 5.26855 3.30273C5.34753 3.24152 5.42714 3.18116 5.50781 3.12207C5.56595 3.07947 5.6246 3.03757 5.68359 2.99609C5.76845 2.93646 5.85384 2.87759 5.94043 2.82031C5.99878 2.78171 6.05807 2.74455 6.11719 2.70703C6.19915 2.65504 6.28085 2.6026 6.36426 2.55273C6.43769 2.50882 6.51239 2.46704 6.58691 2.4248C6.66725 2.37929 6.74752 2.33358 6.8291 2.29004C6.89226 2.25633 6.95662 2.22489 7.02051 2.19238C7.11062 2.14654 7.20047 2.10005 7.29199 2.05664C7.35618 2.02619 7.42146 1.99799 7.48633 1.96875C7.58537 1.92412 7.68458 1.87965 7.78516 1.83789C7.82751 1.8203 7.87047 1.80418 7.91309 1.78711C9.17685 1.28093 10.5554 1 12 1C12.1725 1 12.3441 1.00483 12.5146 1.0127ZM7.35547 14.9453C7.72543 17.2002 8.74462 19.2193 10.2031 20.8203C10.7838 20.938 11.3846 21 12 21C12.5407 21 13.0696 20.9488 13.584 20.8574C12.2146 19.9355 11.0492 18.8178 10.2588 17.2168C9.04935 16.8133 8.02715 16.0023 7.35547 14.9453ZM20.4004 15.2285C18.9289 15.9068 17.3749 16.2834 15.6367 16.124C14.7532 16.9037 13.6182 17.4037 12.3682 17.4863C14.4329 18.2844 16.6072 18.445 18.6592 18.0537C19.4033 17.2356 19.9963 16.2792 20.4004 15.2285ZM7.31641 9.11621C5.41152 10.4734 4.06735 12.3803 3.35742 14.5137C3.69169 15.6649 4.24985 16.7201 4.98145 17.6309C5.03397 15.929 5.47171 14.3005 6.55762 12.793C6.52022 12.534 6.5 12.2693 6.5 12C6.5 10.9424 6.79901 9.95473 7.31641 9.11621ZM18.8096 6.11816C18.8193 7.88585 18.4765 9.58348 17.4424 11.2148C17.4791 11.4714 17.5 11.7333 17.5 12C17.5 13.3173 17.0359 14.5256 16.2637 15.4727C18.4213 13.9081 19.896 11.7005 20.5781 9.27148C20.205 8.09724 19.5966 7.02852 18.8096 6.11816ZM12 9.5C10.6193 9.5 9.5 10.6193 9.5 12C9.5 13.3807 10.6193 14.5 12 14.5C13.3807 14.5 14.5 13.3807 14.5 12C14.5 10.6193 13.3807 9.5 12 9.5ZM12 3C11.5704 3 11.148 3.03163 10.7344 3.08984C12.2033 4.08941 13.4722 5.29451 14.2695 6.99023C15.6534 7.61814 16.7297 8.80173 17.2158 10.2568C17.0573 7.59521 15.9962 5.17834 14.334 3.30664C13.5896 3.10728 12.8073 3 12 3ZM12.3809 6.51367C10.1736 5.53164 7.79187 5.29801 5.54785 5.72754C4.74127 6.55708 4.09383 7.54125 3.65332 8.63184C5.18747 7.9084 6.79533 7.48786 8.62109 7.66113C9.55354 6.93395 10.7259 6.5 12 6.5C12.128 6.5 12.255 6.50506 12.3809 6.51367Z" fill="#141414"/>
</svg>
