<svg width="24" height="24" viewBox="0 0 24 24" fill="none" xmlns="http://www.w3.org/2000/svg">
<path d="M18 1C20.2091 1 22 2.79086 22 5C22 7.20914 20.2091 9 18 9C16.8885 9 15.8831 8.54628 15.1582 7.81445L9.85059 10.9121C9.94808 11.2579 10 11.623 10 12C10 12.3767 9.94794 12.7413 9.85059 13.0869L15.1611 16.1816C15.8858 15.4517 16.8902 15 18 15C20.2091 15 22 16.7909 22 19C22 21.2091 20.2091 23 18 23C15.7909 23 14 21.2091 14 19C14 18.6214 14.0531 18.2553 14.1514 17.9082L8.84277 14.8145C8.11784 15.5465 7.11167 16 6 16C3.79086 16 2 14.2091 2 12C2 9.79086 3.79086 8 6 8C7.11146 8 8.1169 8.45372 8.8418 9.18555L14.1494 6.08789C14.0519 5.74206 14 5.37702 14 5C14 2.79086 15.7909 1 18 1Z" fill="#141414"/>
</svg>
