<svg width="24" height="24" viewBox="0 0 24 24" fill="none" xmlns="http://www.w3.org/2000/svg">
<path d="M22.6064 21.9199L21.1924 23.334L19.7803 21.9219C19.5279 21.972 19.2672 22 19 22H5C2.79086 22 1 20.2091 1 18V9C1 7.41568 1.92095 6.04621 3.25684 5.39844L0.686523 2.82812L2.10059 1.41406L22.6064 21.9199ZM14.7637 2C15.8999 2 16.9391 2.64191 17.4473 3.6582L17.8418 4.44727C18.0112 4.78599 18.3576 5 18.7363 5H19C21.2091 5 23 6.79086 23 9V18C23 18.4462 22.9248 18.8746 22.79 19.2754L16.9775 13.4629C16.9915 13.3104 17 13.1561 17 13C17 10.2386 14.7614 8 12 8C11.8436 8 11.6889 8.00743 11.5361 8.02148L6.78516 3.27051C7.34174 2.48159 8.25241 2 9.23633 2H14.7637ZM7.94043 10.082C7.34941 10.9036 7 11.9108 7 13C7 15.7614 9.23858 18 12 18C13.0892 18 14.0957 17.6499 14.917 17.0586L13.4707 15.6123C13.0363 15.8581 12.5352 16 12 16C10.3431 16 9 14.6569 9 13C9 12.4648 9.14099 11.963 9.38672 11.5283L7.94043 10.082Z" fill="#141414"/>
</svg>
