<svg width="24" height="24" viewBox="0 0 24 24" fill="none" xmlns="http://www.w3.org/2000/svg">
<path d="M5 10C6.65685 10 8 11.3431 8 13C8 14.3062 7.16516 15.4172 6 15.8291V22H4V15.8291C2.83484 15.4172 2 14.3062 2 13C2 11.3431 3.34315 10 5 10ZM13 22H11V14H13V22ZM19 12C20.6569 12 22 13.3431 22 15C22 16.3062 21.1652 17.4172 20 17.8291V22H18V17.8291C16.8348 17.4172 16 16.3062 16 15C16 13.3431 17.3431 12 19 12ZM13 6.1709C14.1652 6.58275 15 7.6938 15 9C15 10.6569 13.6569 12 12 12C10.3431 12 9 10.6569 9 9C9 7.6938 9.83484 6.58275 11 6.1709V2H13V6.1709ZM20 10H18V2H20V10ZM6 8H4V2H6V8Z" fill="#141414"/>
</svg>
