<svg width="24" height="24" viewBox="0 0 24 24" fill="none" xmlns="http://www.w3.org/2000/svg">
<path d="M13.7578 2C14.042 2.00003 14.323 2.03106 14.5967 2.08984C14.6039 2.09138 14.611 2.09315 14.6182 2.09473C14.9399 2.16569 15.2511 2.27599 15.5449 2.42285C15.5668 2.43377 15.5887 2.44474 15.6104 2.45605C15.6431 2.47319 15.6757 2.49073 15.708 2.50879C15.726 2.5188 15.7439 2.52877 15.7617 2.53906C15.7976 2.55984 15.8329 2.5816 15.8682 2.60352C15.8922 2.61841 15.9157 2.63399 15.9395 2.64941C15.9586 2.66188 15.9781 2.67372 15.9971 2.68652C16.0277 2.70718 16.0578 2.72847 16.0879 2.75C16.1172 2.77101 16.146 2.79263 16.1748 2.81445C16.1868 2.82358 16.199 2.83253 16.2109 2.8418C16.2449 2.86819 16.2783 2.89531 16.3115 2.92285C16.3339 2.94141 16.3559 2.96041 16.3779 2.97949C16.403 3.00124 16.4285 3.0225 16.4531 3.04492C16.4983 3.0861 16.5425 3.12846 16.5859 3.17188L20.8281 7.41406C20.8896 7.47551 20.9479 7.53958 21.0049 7.60449C21.029 7.63195 21.0529 7.65946 21.0762 7.6875C21.1365 7.76018 21.1942 7.83472 21.249 7.91113C21.27 7.94045 21.2904 7.97018 21.3105 8C21.3239 8.01967 21.3366 8.03968 21.3496 8.05957C21.3623 8.07911 21.3753 8.09842 21.3877 8.11816C21.4124 8.15755 21.4367 8.19713 21.46 8.2373C21.4703 8.2551 21.4802 8.27307 21.4902 8.29102C21.5083 8.32333 21.5258 8.35589 21.543 8.38867C21.5474 8.39719 21.5523 8.40551 21.5566 8.41406C21.8448 8.97458 21.9999 9.60029 22 10.2422V18C22 20.2091 20.2091 22 18 22H6C3.79086 22 2 20.2091 2 18V6C2 3.79086 3.79086 2 6 2H13.7578ZM15 7C15 8.10457 15.8954 9 17 9H19.5645C19.5173 8.94053 19.4682 8.88227 19.4141 8.82812L15.1719 4.58594C15.1176 4.53165 15.0596 4.48181 15 4.43457V7Z" fill="#141414"/>
</svg>
