<svg width="24" height="24" viewBox="0 0 24 24" fill="none" xmlns="http://www.w3.org/2000/svg">
<path d="M23.0004 15.5079L13.7513 20.0098C12.6464 20.5477 11.3553 20.5475 10.2503 20.0098L1.00021 15.5079V13.2832L11.1253 18.212C11.6776 18.4807 12.323 18.4807 12.8753 18.212L23.0004 13.2832V15.5079ZM10.2503 3.99021C11.3553 3.45256 12.6464 3.4524 13.7513 3.99021L21.891 7.95215C23.3898 8.68225 23.3898 10.8177 21.891 11.5479L13.7513 15.5098C12.6464 16.0476 11.3553 16.0475 10.2503 15.5098L2.11057 11.5479C0.61093 10.818 0.610928 8.68206 2.11057 7.95215L10.2503 3.99021Z" fill="#141414"/>
</svg>
