<svg width="24" height="24" viewBox="0 0 24 24" fill="none" xmlns="http://www.w3.org/2000/svg">
<path d="M15.4873 2.26764C16.5387 2.2 17.5037 2.85012 17.8369 3.84967L21.8486 15.8838C21.883 15.9872 21.8974 16.0943 21.8975 16.2003H21.8994V18.835C21.8992 20.6907 20.2313 22.1022 18.4014 21.794L4.58691 19.4669C3.14285 19.2236 2.08514 17.9732 2.08496 16.5088V12.5284C2.08496 12.4469 2.08811 12.3652 2.09473 12.2842C2.09381 12.044 2.13282 11.7985 2.21777 11.5567C2.29396 11.3399 2.37674 11.1262 2.46289 10.9151L2.47461 10.8809H2.47656C4.47719 6.01494 9.08396 2.6819 14.376 2.3399L15.4873 2.26764ZM4.08496 16.5088C4.08514 16.9968 4.43773 17.4141 4.91895 17.4952L18.7334 19.8213C19.3433 19.924 19.8992 19.4535 19.8994 18.835V17.0479L4.08496 14.4415V16.5088ZM16 11.0001C15.4477 11.0001 15 11.4478 15 12.0001C15.0001 12.5523 15.4478 13.0001 16 13.0001C16.5522 13.0001 16.9999 12.5523 17 12.0001C17 11.4478 16.5523 11.0001 16 11.0001ZM10.5 9.00006C9.67157 9.00006 9 9.67163 9 10.5001C9.00007 11.3284 9.67162 12.0001 10.5 12.0001C11.3284 12.0001 11.9999 11.3284 12 10.5001C12 9.67163 11.3284 9.00006 10.5 9.00006ZM14 6.00006C13.4477 6.00006 13 6.44777 13 7.00006C13.0001 7.55228 13.4478 8.00006 14 8.00006C14.5522 8.00006 14.9999 7.55228 15 7.00006C15 6.44777 14.5523 6.00006 14 6.00006Z" fill="#141414"/>
</svg>
