<svg width="24" height="24" viewBox="0 0 24 24" fill="none" xmlns="http://www.w3.org/2000/svg">
<path d="M3.61037 3.61036C5.43521 1.78552 8.04434 1.21358 10.6748 1.62892C10.8181 1.65156 10.9617 1.67754 11.1055 1.70607C11.139 1.7127 11.1726 1.71865 11.2061 1.7256C11.2622 1.73725 11.3179 1.75114 11.374 1.76368C11.4993 1.7916 11.6246 1.82124 11.75 1.85353C11.8107 1.86918 11.871 1.88666 11.9317 1.90333C12.0677 1.94064 12.2038 1.98007 12.3399 2.02247C12.3789 2.03467 12.418 2.04696 12.4571 2.05958C12.6014 2.10614 12.7456 2.15578 12.8897 2.20802C12.9339 2.2241 12.9783 2.24023 13.0225 2.25685C13.1898 2.31957 13.3569 2.38577 13.5235 2.45607C13.5315 2.45948 13.5398 2.4624 13.5479 2.46583C15.0117 3.08687 16.4411 3.99913 17.7373 5.17775L17.7393 5.17872C17.7531 5.19127 17.7665 5.20421 17.7803 5.21681C17.8376 5.26929 17.8944 5.32247 17.9512 5.37599C18.0663 5.48404 18.1814 5.59351 18.294 5.70607C18.4242 5.83628 18.5515 5.96811 18.6758 6.10158C18.7196 6.14847 18.7616 6.19689 18.8047 6.24415C18.8697 6.31564 18.9347 6.3867 18.9981 6.459C19.0847 6.55747 19.1694 6.65696 19.253 6.75685C19.2709 6.77834 19.2889 6.79975 19.3067 6.8213C20.0013 7.66052 20.5884 8.54693 21.0625 9.45607L21.0645 9.45705C21.0683 9.4644 21.0714 9.47215 21.0752 9.47951C21.7302 10.7411 22.1689 12.0449 22.3711 13.3252C22.5534 14.4801 22.545 15.6308 22.3243 16.7129C22.1221 17.7045 21.741 18.6383 21.1641 19.4649C21.0263 19.6623 20.8773 19.8536 20.7168 20.0381C20.6125 20.1581 20.5037 20.2756 20.3897 20.3897C20.1616 20.6178 19.9211 20.8262 19.67 21.0156C19.5444 21.1104 19.4159 21.1999 19.2852 21.2852C19.1544 21.3705 19.0214 21.4514 18.8858 21.5274C18.7501 21.6034 18.6119 21.6744 18.4717 21.7412C16.9315 22.4751 15.1334 22.6565 13.3252 22.3711C12.174 22.1893 11.0029 21.8179 9.86135 21.2686C9.53498 21.1115 9.21111 20.9397 8.89064 20.7539C7.76991 20.1041 6.69224 19.2801 5.70607 18.294C5.56509 18.153 5.4273 18.0098 5.29298 17.8653C5.02453 17.5763 4.76975 17.2802 4.52834 16.9785C3.5625 15.7717 2.81529 14.4726 2.3047 13.1533C2.17713 12.8237 2.06358 12.4931 1.96583 12.1621C1.81912 11.6654 1.70687 11.1682 1.62892 10.6748C1.21358 8.04434 1.78552 5.4352 3.61037 3.61036ZM19.4737 11.4785C18.0372 11.7685 16.4767 12.3522 15.251 13.2188L16.4053 14.8516C17.3509 14.183 18.6344 13.6877 19.8692 13.4385C20.032 13.4056 20.1904 13.3786 20.3438 13.3555C20.223 12.72 20.0314 12.0712 19.7696 11.4219C19.6705 11.4393 19.5719 11.4587 19.4737 11.4785ZM17.0313 7.27736C15.0463 7.57266 13.0009 8.37703 11.585 9.79298L13 11.207C14.0687 10.1384 15.7617 9.45077 17.5401 9.22462C17.8843 9.18088 18.2238 9.15587 18.5547 9.14748C18.1191 8.50205 17.6104 7.8745 17.0313 7.27736ZM12.3203 4.12892C10.8462 4.71358 9.4616 5.55213 8.40334 6.61036L9.8174 8.0254C10.9378 6.90496 12.6158 6.02243 14.3936 5.54493C14.5414 5.50524 14.6889 5.46816 14.836 5.43458C14.0142 4.88166 13.1658 4.44578 12.3203 4.12892Z" fill="#141414"/>
</svg>
