<svg width="24" height="24" viewBox="0 0 24 24" fill="none" xmlns="http://www.w3.org/2000/svg">
<path d="M15.5004 0C17.1914 0.000274432 18.5629 1.37112 18.5629 3.0625V6.24609L19.8549 8.63281C20.2753 9.40894 20.5615 10.2448 20.7074 11.1045C22.1203 12.4684 23.0004 14.3811 23.0004 16.5C23.0004 20.642 19.6424 23.9998 15.5004 24C13.2659 24 11.2602 23.022 9.88615 21.4717C9.4021 21.8045 8.81745 21.9999 8.18986 22H4.809C3.26865 21.9995 1.97812 20.8323 1.82462 19.2988L1.21915 13.2393C1.05981 11.6456 1.38233 10.0407 2.14493 8.63281L3.4379 6.24512V3.0625C3.43791 1.37121 4.80914 0.000127819 6.5004 0L6.65763 0.00390625C8.27563 0.0860163 9.5629 1.42398 9.5629 3.0625V6.24609L10.8549 8.63281C10.9057 8.72652 10.9516 8.82259 10.9985 8.91797C11.0455 8.82217 11.094 8.72691 11.1449 8.63281L12.4379 6.24609V3.0625C12.4379 1.37113 13.809 -1.35539e-06 15.5004 0ZM3.90372 9.58594C3.33173 10.6421 3.08898 11.8453 3.20841 13.04L3.81388 19.0996C3.86499 19.6103 4.29609 19.9998 4.80997 20H8.18986C8.4054 19.9999 8.60515 19.9286 8.76993 19.8105C8.58743 19.4402 8.43397 19.0531 8.31388 18.6514C8.30903 18.6352 8.30495 18.6188 8.30021 18.6025C8.26684 18.4881 8.2364 18.3725 8.20841 18.2559C8.20218 18.2299 8.1968 18.2038 8.19083 18.1777C8.1658 18.0682 8.14266 17.958 8.12247 17.8467C8.11799 17.822 8.11402 17.7972 8.10978 17.7725C8.09137 17.6648 8.07472 17.5565 8.06095 17.4473C8.05647 17.4118 8.05126 17.3764 8.04728 17.3408C8.03616 17.2412 8.02809 17.1408 8.02091 17.04C8.01792 16.9981 8.01442 16.9562 8.01212 16.9141C8.00466 16.777 8.0004 16.639 8.0004 16.5C8.0004 16.4324 8.00351 16.365 8.00529 16.2979C8.00672 16.2437 8.00661 16.1896 8.00919 16.1357C8.01248 16.0671 8.01775 15.9988 8.02286 15.9307C8.02618 15.8866 8.02953 15.8427 8.03361 15.7988C8.04217 15.7065 8.05298 15.6148 8.06486 15.5234C8.0677 15.5016 8.06964 15.4797 8.07267 15.458C8.08337 15.381 8.09676 15.3047 8.10978 15.2285C8.11821 15.1793 8.12578 15.13 8.13517 15.0811C8.14859 15.011 8.16376 14.9414 8.17911 14.8721C8.18658 14.8384 8.19464 14.805 8.20255 14.7715C8.22131 14.692 8.23988 14.6127 8.26115 14.5342C8.26949 14.5034 8.27879 14.473 8.28751 14.4424C8.45708 13.8469 8.69826 13.282 9.00138 12.7568C9.014 12.735 9.02663 12.7131 9.03947 12.6914C9.08418 12.6157 9.12989 12.5407 9.17716 12.4668C9.18631 12.4525 9.19526 12.4381 9.2045 12.4238C9.37585 12.1597 9.56278 11.9068 9.76505 11.667C9.67072 10.9408 9.44761 10.2349 9.09611 9.58594L7.69572 7H5.30411L3.90372 9.58594ZM12.0004 15C11.4481 15 11.0004 15.4477 11.0004 16C11.0004 16.5523 11.4481 17 12.0004 17C12.5525 16.9998 13.0004 16.5522 13.0004 16C13.0004 15.4478 12.5525 15.0002 12.0004 15ZM16.0004 13C15.4481 13 15.0004 13.4477 15.0004 14C15.0004 14.5523 15.4481 15 16.0004 15C16.5525 14.9998 17.0004 14.5522 17.0004 14C17.0004 13.4478 16.5525 13.0002 16.0004 13ZM13.0004 12C12.4481 12 12.0004 12.4477 12.0004 13C12.0004 13.5523 12.4481 14 13.0004 14C13.5525 13.9998 14.0004 13.5522 14.0004 13C14.0004 12.4478 13.5525 12.0002 13.0004 12ZM14.3041 7L12.9838 9.43359C13.2568 9.33637 13.5371 9.25489 13.8236 9.18945C13.8526 9.18282 13.8815 9.17622 13.9106 9.16992C13.9911 9.15253 14.0722 9.13685 14.1537 9.12207C14.182 9.11691 14.2103 9.11129 14.2387 9.10645C14.3135 9.09377 14.3887 9.0827 14.4643 9.07227C14.5204 9.06446 14.5767 9.05733 14.6332 9.05078C14.6819 9.04518 14.7307 9.03982 14.7797 9.03516C14.8643 9.02704 14.9492 9.0209 15.0346 9.01562C15.0678 9.01359 15.1009 9.01039 15.1342 9.00879C15.2555 9.00291 15.3776 9 15.5004 9L15.8295 9.00684C15.8416 9.00737 15.8536 9.0082 15.8656 9.00879C15.8973 9.01031 15.9288 9.01274 15.9604 9.01465C16.047 9.01998 16.1333 9.02687 16.2192 9.03516C16.2681 9.03982 16.3169 9.04518 16.3656 9.05078C16.4221 9.05736 16.4785 9.06443 16.5346 9.07227C16.6101 9.08269 16.6854 9.09379 16.7602 9.10645C16.786 9.11086 16.8116 9.11641 16.8373 9.12109C17.2414 9.19384 17.6343 9.2979 18.0131 9.43262L16.6967 7H14.3041ZM15.5004 2C14.9136 2 14.4379 2.4757 14.4379 3.0625V5H16.5629V3.0625C16.5629 2.51259 16.1447 2.06035 15.6088 2.00586L15.5004 2ZM6.49943 2C5.91298 2.00042 5.4379 2.47595 5.4379 3.0625V5H7.5629V3.0625C7.5629 2.47578 7.08627 2.00003 6.49943 2Z" fill="#141414"/>
</svg>
