<svg width="24" height="24" viewBox="0 0 24 24" fill="none" xmlns="http://www.w3.org/2000/svg">
<path d="M12 1C18.0751 1 23 5.92487 23 12C23 18.0751 18.0751 23 12 23C5.92487 23 1 18.0751 1 12C1 5.92487 5.92487 1 12 1ZM15.4229 9.83496C16.0343 10.5907 16.4003 11.5511 16.4004 12.5996C16.4004 15.0297 14.4301 17 12 17C9.56996 17 7.59961 15.0297 7.59961 12.5996C7.5997 11.5511 7.96569 10.5907 8.57715 9.83496L7.02246 8.57617C6.13327 9.67503 5.5997 11.0766 5.59961 12.5996C5.59961 16.1342 8.46539 19 12 19C15.5346 19 18.4004 16.1342 18.4004 12.5996C18.4003 11.0766 17.8667 9.67503 16.9775 8.57617L15.4229 9.83496ZM11 6V13H13V6H11Z" fill="#141414"/>
</svg>
