<svg width="24" height="24" viewBox="0 0 24 24" fill="none" xmlns="http://www.w3.org/2000/svg">
<path d="M13 3.05469C17.1716 3.51584 20.4842 6.82838 20.9453 11H23V13H20.9453C20.4842 17.1716 17.1716 20.4842 13 20.9453V23H11V20.9453C6.82838 20.4842 3.51584 17.1716 3.05469 13H1V11H3.05469C3.51584 6.82838 6.82838 3.51584 11 3.05469V1H13V3.05469ZM12 5C8.19564 5 5 8.11998 5 12C5 15.88 8.19564 19 12 19C15.8044 19 19 15.88 19 12C19 8.19564 15.88 5 12 5ZM12 8C14.2091 8 16 9.79086 16 12C16 14.2091 14.2091 16 12 16C9.79086 16 8 14.2091 8 12C8 9.79086 9.79086 8 12 8Z" fill="#141414"/>
</svg>
