<svg width="24" height="24" viewBox="0 0 24 24" fill="none" xmlns="http://www.w3.org/2000/svg">
<path d="M10.9707 1.00435C11.4406 0.95998 11.8781 1.24965 12.0205 1.69966C12.1629 2.1498 11.9715 2.63857 11.5615 2.87251C9.44104 4.08113 8.0148 6.36031 8.01465 8.97115C8.01465 12.8449 11.1546 15.9856 15.0283 15.9858C17.639 15.9858 19.9181 14.56 21.127 12.4399C21.3608 12.0297 21.8496 11.8386 22.2998 11.9809C22.7501 12.1233 23.0397 12.5606 22.9951 13.0307C22.4642 18.6247 17.755 23.0004 12.0225 23.0004C5.93491 23.0004 1 18.0646 1 11.977C1.00024 6.24438 5.37634 1.53478 10.9707 1.00435Z" fill="#141414"/>
</svg>
