<svg width="24" height="24" viewBox="0 0 24 24" fill="none" xmlns="http://www.w3.org/2000/svg">
<g clip-path="url(#clip0_1487_5614)">
<path d="M2.8076 1.39354C3.97297 0.228169 5.96807 0.893856 6.20116 2.52537L6.37889 3.77147C9.98894 1.50812 15.0174 2.28888 18.3642 5.63572C21.711 8.98252 22.4907 14.0101 20.2275 17.6201L21.4746 17.7988C23.1061 18.0319 23.7718 20.027 22.6064 21.1924L21.1924 22.6064C20.027 23.7718 18.0319 23.1061 17.7988 21.4746L17.6211 20.2265C14.011 22.4904 8.98276 21.7112 5.63573 18.3642C2.28864 15.0171 1.50848 9.98802 3.77245 6.37791L2.52538 6.20115C0.893858 5.96807 0.228166 3.97297 1.39354 2.8076L2.8076 1.39354ZM19.7783 21.1924L21.1924 19.7783L19.543 19.543L19.7783 21.1924ZM5.88768 15.5263C6.21682 16.0235 6.60276 16.5021 7.04979 16.9492C7.497 17.3964 7.97631 17.783 8.47362 18.1123L18.1123 8.47264C17.7831 7.97546 17.3973 7.49689 16.9502 7.04979C16.5031 6.60269 16.0245 6.21687 15.5273 5.88768L5.88768 15.5263ZM2.8076 4.22166L4.45702 4.45701L4.22166 2.8076L2.8076 4.22166Z" fill="#141414"/>
</g>
<defs>
<clipPath id="clip0_1487_5614">
<rect width="24" height="24" fill="white"/>
</clipPath>
</defs>
</svg>
