<svg width="24" height="24" viewBox="0 0 24 24" fill="none" xmlns="http://www.w3.org/2000/svg">
<path d="M18 3C20.2091 3 22 4.79086 22 7V16.1699C22.5909 16.4509 23 17.0521 23 17.75C23 19.5449 21.5449 21 19.75 21H4.25C2.45507 21 1 19.5449 1 17.75C1 17.0521 1.40908 16.4509 2 16.1699V7C2 4.79086 3.79086 3 6 3H18ZM6 5C4.89543 5 4 5.89543 4 7V16H8.29297C9.01091 16 9.69937 16.2853 10.207 16.793C10.3396 16.9256 10.5195 17 10.707 17H13.293C13.4805 17 13.6604 16.9256 13.793 16.793C14.3006 16.2853 14.9891 16 15.707 16H20V7C20 5.89543 19.1046 5 18 5H6Z" fill="#141414"/>
</svg>
