<svg width="24" height="24" viewBox="0 0 24 24" fill="none" xmlns="http://www.w3.org/2000/svg">
<path d="M19 2.5C21.2091 2.5 23 4.29086 23 6.5V16.5C23 18.7091 21.2091 20.5 19 20.5H6.77148L4.01074 22.1162C2.67745 22.8966 1 21.9346 1 20.3896V6.5C1 4.29086 2.79086 2.5 5 2.5H19ZM12 14C11.1716 14 10.5 14.6716 10.5 15.5C10.5 16.3284 11.1716 17 12 17C12.8284 17 13.5 16.3284 13.5 15.5C13.5 14.6716 12.8284 14 12 14ZM12 7C10.3431 7 9 8.34315 9 10H11C11 9.44772 11.4477 9 12 9C12.5523 9 13 9.44772 13 10C13 10.4655 12.6808 10.8586 12.248 10.9688C11.6871 11.1116 11 11.6284 11 12.5V13H13V12.8281C14.1646 12.4162 15 11.3071 15 10C15 8.34315 13.6569 7 12 7Z" fill="#141414"/>
</svg>
