<svg width="24" height="24" viewBox="0 0 24 24" fill="none" xmlns="http://www.w3.org/2000/svg">
<path d="M15 23H9V21H15V23ZM17 2C19.2091 2 21 3.79086 21 6V15C21 16.1046 20.552 17.1043 19.8281 17.8281C19.7853 17.871 19.741 17.9123 19.6963 17.9531L20.8682 20.0039L19.1318 20.9961L17.9277 18.8896C17.8871 18.8993 17.8468 18.9105 17.8057 18.9189C17.5454 18.9722 17.276 19 17 19H7C6.72403 19 6.45457 18.9722 6.19434 18.9189C6.15293 18.9105 6.11222 18.8994 6.07129 18.8896L4.86816 20.9961L3.13184 20.0039L4.30273 17.9531C4.25819 17.9124 4.21454 17.8708 4.17188 17.8281C3.44802 17.1043 3 16.1046 3 15V6C3 3.79086 4.79086 2 7 2H17ZM8.5 13C7.67157 13 7 13.6716 7 14.5C7 15.3284 7.67157 16 8.5 16C9.32843 16 10 15.3284 10 14.5C10 13.6716 9.32843 13 8.5 13ZM15.5 13C14.6716 13 14 13.6716 14 14.5C14 15.3284 14.6716 16 15.5 16C16.3284 16 17 15.3284 17 14.5C17 13.6716 16.3284 13 15.5 13ZM7 4C5.89543 4 5 4.89543 5 6V10H19V6C19 4.89543 18.1046 4 17 4H7Z" fill="#141414"/>
</svg>
