<svg width="24" height="24" viewBox="0 0 24 24" fill="none" xmlns="http://www.w3.org/2000/svg">
<path d="M22.582 9C22.8519 9.95397 23 10.9596 23 12C23 18.0751 18.0751 23 12 23C11.8031 23 11.6075 22.9936 11.4131 22.9834L16.1133 14.8418C16.5451 14.218 16.8382 13.4915 16.9492 12.7061C16.9522 12.6856 16.9543 12.6651 16.957 12.6445C16.9671 12.5666 16.975 12.4882 16.9814 12.4092C16.9844 12.3732 16.9871 12.3371 16.9893 12.3008C16.9952 12.2012 17 12.101 17 12C17 11.9945 16.999 11.9889 16.999 11.9834C16.9987 11.9075 16.9969 11.8319 16.9932 11.7568C16.9918 11.7278 16.9892 11.6989 16.9873 11.6699C16.9846 11.6294 16.9822 11.589 16.9785 11.5488C16.9746 11.5053 16.9698 11.4621 16.9648 11.4189C16.9613 11.3886 16.9572 11.3583 16.9531 11.3281C16.8368 10.4622 16.5007 9.66648 16 9H22.582Z" fill="#141414"/>
<path d="M7.39258 13.9512C7.68703 14.6502 8.13321 15.2682 8.69141 15.7617C9.50879 16.4844 10.442 16.8612 11.3799 16.96C11.5831 16.9851 11.7899 17 12 17C12.1956 17 12.3884 16.9877 12.5781 16.9658L9.28906 22.6621C4.52504 21.4545 1 17.1395 1 12C1 9.77888 1.65985 7.71254 2.79199 5.9834L7.39258 13.9512Z" fill="#141414"/>
<path d="M12 9C13.6569 9 15 10.3431 15 12C15 13.6569 13.6569 15 12 15C10.3431 15 9 13.6569 9 12C9 10.3431 10.3431 9 12 9Z" fill="#141414"/>
<path d="M12 1C16.2741 1 19.9759 3.43914 21.7969 7H12L11.7422 7.00684C11.7076 7.0086 11.6731 7.01121 11.6387 7.01367C11.4614 7.02633 11.2869 7.04845 11.1152 7.0791C11.0833 7.08481 11.0512 7.08939 11.0195 7.0957C10.8859 7.12227 10.7545 7.1554 10.625 7.19238C10.6055 7.19797 10.5858 7.20317 10.5664 7.20898C10.5182 7.22339 10.4705 7.23907 10.4229 7.25488C10.3905 7.26565 10.3582 7.27668 10.3262 7.28809C10.1266 7.35899 9.9331 7.44248 9.74609 7.53711C9.73804 7.54119 9.72971 7.54471 9.72168 7.54883C9.66341 7.57871 9.60574 7.60953 9.54883 7.6416C9.53828 7.64755 9.52808 7.65413 9.51758 7.66016C8.59062 8.19153 7.8497 9.01032 7.41797 9.99609L4.13574 4.31055C6.13283 2.26835 8.91797 1 12 1Z" fill="#141414"/>
</svg>
