<svg width="24" height="24" viewBox="0 0 24 24" fill="none" xmlns="http://www.w3.org/2000/svg">
<path d="M12 2C14.9729 2 17.4388 4.16245 17.915 7H18C20.7614 7 23 9.23858 23 12C23 14.5251 21.128 16.6113 18.6963 16.9502L16.9287 21.3711C16.7768 21.7508 16.4089 22 16 22H8C7.5911 22 7.22315 21.7508 7.07129 21.3711L5.30273 16.9502C2.87148 16.6109 1 14.5247 1 12C1 9.23858 3.23858 7 6 7H6.08496C6.56117 4.16245 9.02712 2 12 2ZM8.67676 20H15.3232L16.5225 17H7.47754L8.67676 20ZM16 8C16 10.2091 14.2091 12 12 12V14C15.3137 14 18 11.3137 18 8H16Z" fill="#141414"/>
</svg>
