<svg width="24" height="24" viewBox="0 0 24 24" fill="none" xmlns="http://www.w3.org/2000/svg">
<path d="M10 6C10.6397 6 11.1478 6.32847 11.5049 6.70605C11.8599 7.08147 12.1339 7.57074 12.3428 8.09277C12.7627 9.14259 13 10.5246 13 12C13 13.4754 12.7627 14.8574 12.3428 15.9072C12.1339 16.4293 11.8599 16.9185 11.5049 17.2939C11.1478 17.6715 10.6397 18 10 18C9.36029 18 8.8522 17.6715 8.49512 17.2939C8.1401 16.9185 7.86606 16.4293 7.65723 15.9072C7.2373 14.8574 7 13.4754 7 12C7 10.5246 7.2373 9.14259 7.65723 8.09277C7.86606 7.57074 8.1401 7.08147 8.49512 6.70605C8.8522 6.32847 9.36029 6 10 6Z" fill="black"/>
<path fill-rule="evenodd" clip-rule="evenodd" d="M14 1C16.1461 1 17.9187 2.44424 19.1006 4.41406C20.2944 6.40383 21 9.0885 21 12C21 14.9115 20.2944 17.5962 19.1006 19.5859C17.9187 21.5558 16.1461 23 14 23H10C7.85391 23 6.08133 21.5558 4.89941 19.5859C3.70555 17.5962 3 14.9115 3 12C3 9.0885 3.70555 6.40383 4.89941 4.41406C6.08133 2.44424 7.85391 1 10 1H14ZM10 3C8.83246 3 7.60487 3.79408 6.61523 5.44336C5.63752 7.07288 5 9.38866 5 12C5 14.6113 5.63752 16.9271 6.61523 18.5566C7.60487 20.2059 8.83246 21 10 21C11.1675 21 12.3951 20.2059 13.3848 18.5566C14.3625 16.9271 15 14.6113 15 12C15 9.38866 14.3625 7.07288 13.3848 5.44336C12.3951 3.79408 11.1675 3 10 3ZM15.1006 19.5859C14.7936 20.0976 14.4454 20.5725 14.0625 20.9971C14.9601 20.9753 15.8884 20.4861 16.7158 19.5H15.1494C15.1327 19.5285 15.1175 19.5577 15.1006 19.5859ZM16.8857 14C16.8271 14.5124 16.7463 15.0134 16.6445 15.5H18.5938C18.7097 15.0208 18.8025 14.5196 18.8701 14H16.8857ZM16.6445 8.5C16.7463 8.98664 16.8271 9.48757 16.8857 10H18.8701C18.8025 9.48042 18.7097 8.97922 18.5938 8.5H16.6445ZM14.0625 3.00195C14.4456 3.4267 14.7935 3.90222 15.1006 4.41406C15.1175 4.44225 15.1327 4.47153 15.1494 4.5H16.7158C15.8884 3.51392 14.9601 3.02371 14.0625 3.00195Z" fill="black"/>
</svg>
