<svg width="24" height="24" viewBox="0 0 24 24" fill="none" xmlns="http://www.w3.org/2000/svg">
<path d="M16.5869 3C19.6125 3.00031 22.1647 5.25351 22.54 8.25586L23.7119 17.6279C23.9356 19.4184 22.5387 20.9999 20.7344 21H20C19.056 20.9998 18.167 20.555 17.6006 19.7998L15.8008 17.4004C15.6119 17.1487 15.3146 17 15 17H8.99997C8.68551 17.0002 8.38889 17.1488 8.20017 17.4004L6.40036 19.7998C5.83383 20.5551 4.94412 21 3.99997 21H3.2656C1.46144 20.9996 0.0652927 19.4182 0.289035 17.6279L1.46091 8.25586C1.83622 5.25348 4.38834 3.00027 7.41404 3H16.5869ZM6.99997 9H4.99997V11H6.99997V13H8.99997V11H11V9H8.99997V7H6.99997V9ZM17.5 10C16.6717 10.0002 16 10.6717 16 11.5C16 12.3283 16.6717 12.9998 17.5 13C18.3284 13 19 12.3284 19 11.5C19 10.6716 18.3284 10 17.5 10ZM14.5 7C13.6717 7.00016 13 7.67167 13 8.5C13 9.32833 13.6717 9.99984 14.5 10C15.3284 10 16 9.32843 16 8.5C16 7.67157 15.3284 7 14.5 7Z" fill="#141414"/>
</svg>
