<svg width="24" height="24" viewBox="0 0 24 24" fill="none" xmlns="http://www.w3.org/2000/svg">
<path fill-rule="evenodd" clip-rule="evenodd" d="M1.07143 12.371C0.977241 12.1338 0.977379 11.8663 1.07176 11.6291C0.976641 11.8673 0.976279 12.1329 1.07143 12.371Z" fill="#141414"/>
<path fill-rule="evenodd" clip-rule="evenodd" d="M22.9282 12.3709C23.0234 12.1327 23.0229 11.8652 22.9277 11.627C23.0219 11.8643 23.0226 12.1336 22.9282 12.3709Z" fill="#141414"/>
<path fill-rule="evenodd" clip-rule="evenodd" d="M1.07176 11.6291C0.976641 11.8673 0.976279 12.1329 1.07143 12.371C0.977241 12.1338 0.977379 11.8663 1.07176 11.6291Z" fill="#141414"/>
<path fill-rule="evenodd" clip-rule="evenodd" d="M22.9277 11.627L22.9238 11.6172C22.9229 11.6149 22.9249 11.6201 22.9238 11.6172C22.9222 11.6129 22.9172 11.6001 22.915 11.5947C22.909 11.5803 22.9009 11.5614 22.891 11.5386L22.8828 11.5195C22.8554 11.4561 22.8158 11.3666 22.7636 11.2549C22.6592 11.0312 22.5038 10.7171 22.2959 10.3428C21.881 9.59604 21.2495 8.59707 20.3808 7.59473C18.6479 5.5953 15.8952 3.5 12 3.5C8.1048 3.5001 5.35199 5.5953 3.61911 7.59473C2.75042 8.59708 2.11892 9.59606 1.70407 10.3428C1.49613 10.7171 1.3407 11.0312 1.2363 11.2549C1.18417 11.3666 1.1445 11.4561 1.11716 11.5195L1.10851 11.5396C1.09884 11.562 1.09082 11.5805 1.08493 11.5947C1.08273 11.6 1.08084 11.605 1.07923 11.6092L1.07176 11.6291C0.977379 11.8663 0.977241 12.1338 1.07143 12.371L1.07614 12.3828C1.07777 12.3871 1.08273 12.4 1.08493 12.4053C1.09088 12.4196 1.09901 12.4384 1.10882 12.4612L1.11716 12.4805C1.14451 12.5439 1.18417 12.6334 1.2363 12.7451C1.34071 12.9689 1.49611 13.2829 1.70407 13.6572C2.11892 14.404 2.75042 15.4029 3.61911 16.4053C5.35199 18.4047 8.10482 20.4999 12 20.5C15.8952 20.5 18.6479 18.4047 20.3808 16.4053C21.2495 15.4029 21.881 14.404 22.2959 13.6572C22.5038 13.2829 22.6592 12.9689 22.7636 12.7451C22.8158 12.6334 22.8554 12.5439 22.8828 12.4805L22.891 12.4614C22.9009 12.4386 22.909 12.4197 22.915 12.4053L22.9194 12.3941L22.9282 12.3709C23.0234 12.1327 23.0229 11.8652 22.9277 11.627ZM12 9C10.3432 9.00014 8.99997 10.3432 8.99997 12C8.99997 13.6568 10.3432 14.9999 12 15C13.6568 15 15 13.6569 15 12C15 10.3431 13.6568 9 12 9Z" fill="#141414"/>
</svg>
