<svg width="24" height="24" viewBox="0 0 24 24" fill="none" xmlns="http://www.w3.org/2000/svg">
<path d="M12 1C18.0751 1 23 5.92487 23 12C23 18.0751 18.0751 23 12 23C5.92487 23 1 18.0751 1 12C1 5.92487 5.92487 1 12 1ZM6.29297 11.293C5.90244 11.6835 5.90244 12.3165 6.29297 12.707L9.29297 15.707L10.707 14.293L8.41406 12L10.707 9.70703L9.29297 8.29297L6.29297 11.293ZM13.293 9.70703L15.5859 12L13.293 14.293L14.707 15.707L17.707 12.707C18.0976 12.3165 18.0976 11.6835 17.707 11.293L14.707 8.29297L13.293 9.70703Z" fill="#141414"/>
</svg>
