<svg width="24" height="24" viewBox="0 0 24 24" fill="none" xmlns="http://www.w3.org/2000/svg">
<path d="M12 1C14.273 1 16.3676 1.25493 17.9248 1.6875C18.6962 1.90179 19.3927 2.17531 19.9199 2.52148C20.4065 2.84103 21 3.39501 21 4.22266V19.7783L20.9932 19.9307C20.9259 20.6743 20.376 21.1801 19.9199 21.4795C19.3927 21.8256 18.6952 22.0983 17.9238 22.3125C16.3667 22.7449 14.2727 23 12 23C9.72733 23 7.63335 22.7449 6.07617 22.3125C5.30481 22.0983 4.60732 21.8256 4.08008 21.4795C3.59358 21.1601 3.00033 20.6057 3 19.7783V4.22266L3.00684 4.07031C3.07376 3.32632 3.62391 2.82107 4.08008 2.52148C4.60726 2.17531 5.30382 1.90179 6.0752 1.6875C7.63244 1.25493 9.72702 1 12 1ZM18.7842 15.1631C17.0913 15.671 14.6921 16 12 16C9.30786 16 6.90873 15.671 5.21582 15.1631C5.14197 15.1409 5.07029 15.1173 5 15.0947V17.1807C6.88487 17.6963 9.3411 18 12 18C14.6589 18 17.1151 17.6963 19 17.1807V15.0947C18.9297 15.1173 18.858 15.1409 18.7842 15.1631ZM18.6992 8.90039C17.0346 9.56612 14.6665 10 12 10C9.33352 10 6.9654 9.56612 5.30078 8.90039C5.19681 8.8588 5.09697 8.81518 5 8.77246V10.9229C6.9009 11.6028 9.35394 12 12 12C14.6461 12 17.0991 11.6028 19 10.9229V8.77246C18.903 8.81518 18.8032 8.8588 18.6992 8.90039ZM12 3C9.8547 3 7.94853 3.24254 6.61035 3.61426C5.93443 3.80204 5.46005 4.00795 5.17773 4.19336C5.16275 4.2032 5.14877 4.21263 5.13574 4.22168C5.1489 4.23083 5.16258 4.24102 5.17773 4.25098C5.23916 4.29132 5.30994 4.33214 5.38965 4.37402C5.61429 4.492 5.9125 4.61228 6.28516 4.73047C6.38811 4.76312 6.49589 4.79828 6.61035 4.83008C7.94853 5.2018 9.8547 5.44434 12 5.44434C14.1453 5.44434 16.0515 5.2018 17.3896 4.83008C17.5041 4.79828 17.6119 4.76312 17.7148 4.73047C18.0875 4.61228 18.3857 4.492 18.6104 4.37402C18.6901 4.33214 18.7608 4.29132 18.8223 4.25098C18.8372 4.24119 18.8503 4.23069 18.8633 4.22168C18.8504 4.21276 18.837 4.20303 18.8223 4.19336C18.5399 4.00795 18.0656 3.80204 17.3896 3.61426C16.0515 3.24254 14.1453 3 12 3Z" fill="#141414"/>
</svg>
