<svg width="24" height="24" viewBox="0 0 24 24" fill="none" xmlns="http://www.w3.org/2000/svg">
<path fill-rule="evenodd" clip-rule="evenodd" d="M12.495 3.88566C14.8153 1.37144 18.6131 1.37151 20.9335 3.88566C23.937 7.14046 23.316 11.2218 21.3016 14.5536C19.294 17.8742 15.7714 20.7399 12.3309 21.9443C12.1171 22.0191 11.8837 22.0191 11.6698 21.9443C8.2293 20.74 4.70674 17.8742 2.69909 14.5536C0.684712 11.2217 0.0636642 7.14048 3.06726 3.88566C5.38765 1.37156 9.18547 1.37134 11.5057 3.88566L11.9999 4.4218L12.495 3.88566ZM11.4589 12.0859L9.42565 10.1679L8.05358 11.623L10.8143 14.2275C11.0072 14.4093 11.2642 14.5076 11.5292 14.4999C11.7944 14.4921 12.0464 14.3786 12.2284 14.1855L16.4676 9.68547L15.0116 8.31437L11.4589 12.0859Z" fill="#141414"/>
</svg>
