<svg width="24" height="24" viewBox="0 0 24 24" fill="none" xmlns="http://www.w3.org/2000/svg">
<path d="M15.9027 2.39111C17.0743 1.21971 18.9734 1.21974 20.1449 2.39111C20.3932 2.63941 20.5876 2.9211 20.7299 3.22021C21.0289 3.36243 21.3107 3.55694 21.559 3.80516L21.6654 3.91747C22.7291 5.09508 22.6937 6.91247 21.559 8.04732C20.9297 8.67624 20.0923 8.96359 19.2738 8.91841L17.9301 10.2631L18.1596 13.8862C18.5545 20.1086 12.4433 24.6985 6.57756 22.5843C4.15167 21.7097 2.24033 19.7983 1.36567 17.3725C-0.748424 11.5067 3.8414 5.39557 10.0639 5.7905L13.6869 6.01999L15.0316 4.67625C14.9865 3.85776 15.2738 3.02035 15.9027 2.39111ZM8.1215 15.9496C7.73099 15.5591 7.09698 15.5591 6.70647 15.9496C6.31622 16.3401 6.31607 16.9742 6.70647 17.3646C7.09692 17.7549 7.73102 17.7548 8.1215 17.3646C8.51194 16.9742 8.51183 16.3401 8.1215 15.9496ZM12.3637 15.9496C11.9732 15.5594 11.3401 15.5595 10.9496 15.9496C10.5594 16.3402 10.5592 16.9742 10.9496 17.3646C11.34 17.7546 11.9733 17.7546 12.3637 17.3646C12.7541 16.9742 12.754 16.3402 12.3637 15.9496ZM8.1215 11.7075C7.73098 11.3169 7.09699 11.3169 6.70647 11.7075C6.31651 12.0979 6.3164 12.7311 6.70647 13.1215C7.09692 13.5118 7.73102 13.5117 8.1215 13.1215C8.51162 12.7311 8.51155 12.0979 8.1215 11.7075ZM18.7308 3.80516C18.3403 3.41484 17.7073 3.41481 17.3168 3.80516C17.0584 4.06399 16.97 4.43252 17.06 4.77098L17.2084 5.32761L15.9018 6.63327L17.3158 8.04732L18.6224 6.74167L19.1801 6.8901C19.5184 6.97994 19.8862 6.89159 20.1449 6.63327C20.5107 6.26733 20.5341 5.68811 20.2142 5.29539L20.1449 5.21922C20.0172 5.09158 19.863 5.00574 19.6967 4.96141L19.1371 4.81297L18.9887 4.2534C18.9443 4.08707 18.8585 3.93294 18.7308 3.80516Z" fill="#141414"/>
</svg>
