<svg width="24" height="24" viewBox="0 0 24 24" fill="none" xmlns="http://www.w3.org/2000/svg">
<path fill-rule="evenodd" clip-rule="evenodd" d="M17 1C19.2091 1 21 2.79086 21 5V20.6602C21 22.5316 19.0193 23.7396 17.3555 22.8828L12 20.125L6.64453 22.8828C5.03279 23.7128 3.12378 22.6053 3.00586 20.834L3 20.6602V5C3 2.79086 4.79086 1 7 1H17ZM12 9.58594L9.95703 7.54297L8.54297 8.95703L10.5859 11L8.54297 13.043L9.95703 14.457L12 12.4141L14.043 14.457L15.457 13.043L13.4141 11L15.457 8.95703L14.043 7.54297L12 9.58594Z" fill="#141414"/>
</svg>
