<svg width="24" height="24" viewBox="0 0 24 24" fill="none" xmlns="http://www.w3.org/2000/svg">
<path d="M12 1.5C18.0262 1.5 23 6.1533 23 12C23 17.8467 18.0262 22.5 12 22.5C10.3748 22.5 8.82885 22.1623 7.43652 21.5557L3.52832 22.5674C2.45279 22.8454 1.45829 21.8983 1.68359 20.8105L2.43457 17.1875C1.52303 15.6588 1 13.8877 1 12C1 6.1533 5.97382 1.5 12 1.5ZM15.2041 9.10938C14.3327 8.21677 12.9385 8.61653 12 9.39453C11.0615 8.61649 9.66728 8.21677 8.7959 9.10938C8.23747 9.6816 7.98904 10.3588 8 11.0518C8.01069 11.7238 8.26336 12.366 8.61816 12.9209C9.31956 14.0175 10.5365 14.9535 11.7422 15.3525C11.9093 15.4078 12.0907 15.4078 12.2578 15.3525C13.4635 14.9535 14.6804 14.0175 15.3818 12.9209C15.7366 12.366 15.9893 11.7238 16 11.0518C16.0109 10.3588 15.7625 9.68159 15.2041 9.10938Z" fill="#141414"/>
</svg>
