<svg width="24" height="24" viewBox="0 0 24 24" fill="none" xmlns="http://www.w3.org/2000/svg">
<path d="M10.468 2.74739C11.4123 2.1866 12.5882 2.18656 13.5324 2.74739L22.467 8.05504C22.8475 8.28162 23.024 8.68057 23.0002 9.06871V17.0004H21.0002V10.8158L19.0002 12.0043V16.9311C19.0001 17.5548 18.709 18.1436 18.2131 18.5219L15.6379 20.4848C13.4895 22.1225 10.5109 22.1224 8.36251 20.4848L5.78732 18.5219C5.29126 18.1436 5.0003 17.5549 5.00021 16.9311V12.0043L1.53439 9.94567C0.817232 9.51932 0.81723 8.48138 1.53439 8.05504L10.468 2.74739ZM13.5324 15.2533C12.5882 15.8141 11.4122 15.814 10.468 15.2533L7.00021 13.1928V16.9311L9.5754 18.894C11.0076 19.9856 12.9928 19.9856 14.425 18.894L17.0002 16.9311V13.1928L13.5324 15.2533Z" fill="#141414"/>
</svg>
