<svg width="24" height="24" viewBox="0 0 24 24" fill="none" xmlns="http://www.w3.org/2000/svg">
<path d="M13 23H11V21H13V23ZM6.34277 19.0713L4.92871 20.4854L3.51465 19.0713L4.92871 17.6572L6.34277 19.0713ZM20.4854 19.0713L19.0713 20.4854L17.6562 19.0713L19.0713 17.6572L20.4854 19.0713ZM12 5C15.866 5 19 8.13401 19 12C19 15.866 15.866 19 12 19C8.13401 19 5 15.866 5 12C5 8.13401 8.13401 5 12 5ZM3 13H1V11H3V13ZM23 13H21V11H23V13ZM20.4854 4.92871L19.0713 6.34375L17.6572 4.92871L19.0713 3.51465L20.4854 4.92871ZM6.34277 4.92871L4.92871 6.34277L3.51465 4.92871L4.92871 3.51465L6.34277 4.92871ZM13 3H11V1H13V3Z" fill="#141414"/>
</svg>
