<svg width="24" height="24" viewBox="0 0 24 24" fill="none" xmlns="http://www.w3.org/2000/svg">
<path d="M19 2.5C21.2091 2.5 23 4.29086 23 6.5V16.5C23 18.7091 21.2091 20.5 19 20.5H6.77148L4.01074 22.1162C2.67745 22.8966 1 21.9346 1 20.3896V6.5C1 4.29086 2.79086 2.5 5 2.5H19ZM15.2041 8.71484C14.3327 7.82217 12.9385 8.22195 12 9C11.0615 8.22192 9.66729 7.82215 8.7959 8.71484C8.23741 9.28704 7.9891 9.96424 8 10.6572C8.01069 11.3294 8.26325 11.9724 8.61816 12.5273C9.3196 13.6239 10.5365 14.56 11.7422 14.959C11.9092 15.0142 12.0908 15.0142 12.2578 14.959C13.4635 14.56 14.6804 13.6239 15.3818 12.5273C15.7368 11.9724 15.9893 11.3294 16 10.6572C16.0109 9.96425 15.7626 9.28703 15.2041 8.71484Z" fill="#141414"/>
</svg>
