<svg width="24" height="24" viewBox="0 0 24 24" fill="none" xmlns="http://www.w3.org/2000/svg">
<path d="M18 2C20.2091 2 22 3.79086 22 6V18C22 20.14 20.3194 21.8879 18.2061 21.9951L18 22H6C3.79086 22 2 20.2091 2 18V6L2.00488 5.79395C2.11211 3.68056 3.85996 2 6 2H18ZM9.90527 10.9854C9.83634 11.0361 9.77408 11.0959 9.71973 11.1631C9.77409 11.0959 9.83633 11.0361 9.90527 10.9854ZM10.249 10.8203V10.8213V10.8203ZM10.5049 10.7881C10.5859 10.7883 10.6677 10.7991 10.749 10.8203C10.6677 10.7991 10.5859 10.7883 10.5049 10.7881ZM10 7H14V4H10V7ZM16 7H20V6C20 4.89543 19.1046 4 18 4H16V7ZM6 4C4.96435 4 4.113 4.78722 4.01074 5.7959L4 6V7H8V4H6Z" fill="#141414"/>
</svg>
