<svg width="24" height="24" viewBox="0 0 24 24" fill="none" xmlns="http://www.w3.org/2000/svg">
<path d="M12 1C18.0751 1 23 5.92487 23 12C23 18.0751 18.0751 23 12 23C5.92487 23 1 18.0751 1 12C1 5.92487 5.92487 1 12 1ZM12 3C7.02944 3 3 7.02944 3 12C3 15.1356 4.60433 17.8956 7.03613 19.5068L14.6807 11.4385C15.3622 10.7191 16.4685 10.6065 17.2803 11.1748L20.8428 13.6689C20.9442 13.128 21 12.5704 21 12C21 7.02944 16.9706 3 12 3ZM8.5 7C9.88071 7 11 8.11929 11 9.5C11 10.8807 9.88071 12 8.5 12C7.11929 12 6 10.8807 6 9.5C6 8.11929 7.11929 7 8.5 7Z" fill="#141414"/>
</svg>
