<svg width="24" height="24" viewBox="0 0 24 24" fill="none" xmlns="http://www.w3.org/2000/svg">
<path d="M19.0004 3C21.2093 3.0003 23.0004 4.79104 23.0004 7V17C23.0004 19.209 21.2093 20.9997 19.0004 21H9.50047C8.24163 21 7.05573 20.4074 6.3003 19.4004L1.65091 13.2002C1.11758 12.4891 1.11758 11.5109 1.65091 10.7998L6.3003 4.59961C7.05573 3.59264 8.24163 3 9.50047 3H19.0004ZM13.7075 10.5859L11.4145 8.29297L10.0005 9.70703L12.2934 12L10.0005 14.293L11.4145 15.707L13.7075 13.4141L16.0004 15.707L17.4145 14.293L15.1215 12L17.4145 9.70703L16.0004 8.29297L13.7075 10.5859Z" fill="#141414"/>
</svg>
