<svg width="24" height="24" viewBox="0 0 24 24" fill="none" xmlns="http://www.w3.org/2000/svg">
<path d="M15.7901 1.5C16.5058 1.49999 17.0994 1.50035 17.5869 1.53809C18.0957 1.57746 18.5643 1.66192 19.0147 1.87109C19.7178 2.1977 20.3111 2.72205 20.7217 3.38086C20.9847 3.80283 21.1265 4.25871 21.2286 4.75977C21.6039 6.60216 21.7344 8.51228 21.9668 10.376C22.1585 11.9125 21.5021 13.5304 20.3067 14.5C21.3238 15.325 21.9746 16.5864 21.9746 18C21.9746 20.4853 19.964 22.5 17.4844 22.5H6.51467C4.0351 22.5 2.0254 20.4853 2.0254 18C2.0254 16.5864 2.67528 15.325 3.6924 14.5C2.49697 13.5304 1.8416 11.9125 2.03322 10.376C2.26564 8.51228 2.39615 6.60215 2.7715 4.75977C2.87357 4.25876 3.01446 3.80279 3.27736 3.38086C3.68785 2.7221 4.28136 2.19773 4.98439 1.87109C5.43462 1.66198 5.90359 1.57748 6.41213 1.53809C6.89978 1.50034 7.4941 1.49999 8.20998 1.5H15.7901ZM6.51467 15.5C5.13714 15.5 4.02052 16.6193 4.02052 18C4.02052 19.3807 5.13714 20.5 6.51467 20.5H17.4844C18.862 20.5 19.9795 19.3807 19.9795 18C19.9795 16.6193 18.862 15.5 17.4844 15.5H6.51467ZM7.02346 17C7.57447 17 8.0215 17.4477 8.0215 18C8.0215 18.5523 7.57447 19 7.02346 19H7.01369C6.46267 19 6.01564 18.5523 6.01564 18C6.01564 17.4477 6.46267 17 7.01369 17H7.02346ZM16.9864 19H11.002V17H16.9864V19ZM6.51467 8.5C5.13714 8.50002 4.02052 9.6193 4.02052 11C4.02052 12.3807 5.13714 13.5 6.51467 13.5H17.4844C18.862 13.5 19.9795 12.3807 19.9795 11C19.9795 9.61929 18.862 8.5 17.4844 8.5H6.51467ZM7.02346 10C7.57447 10 8.0215 10.4477 8.0215 11C8.0215 11.5523 7.57447 12 7.02346 12H7.01369C6.46267 12 6.01564 11.5523 6.01564 11C6.01564 10.4477 6.46267 10 7.01369 10H7.02346ZM16.9864 12H11.002V10H16.9864V12Z" fill="#141414"/>
</svg>
