<svg width="24" height="24" viewBox="0 0 24 24" fill="none" xmlns="http://www.w3.org/2000/svg">
<path d="M18.3115 1.99997C19.3189 1.99241 20.2962 2.2632 21.0166 2.98337C21.737 3.70378 22.0075 4.68094 22 5.68845C21.9925 6.69104 21.7136 7.80258 21.2451 8.9404C20.842 9.91925 20.2841 10.9525 19.5918 12C20.2841 13.0475 20.842 14.0807 21.2451 15.0595C21.7136 16.1973 21.9923 17.3089 22 18.3115C22.0075 19.319 21.737 20.2961 21.0166 21.0166C20.2961 21.737 19.319 22.0075 18.3115 22C17.3089 21.9924 16.1973 21.7136 15.0595 21.2451C14.0807 20.842 13.0475 20.2841 12 19.5918C10.9524 20.2842 9.9193 20.842 8.9404 21.2451C7.80257 21.7136 6.69106 21.9924 5.68845 22C4.68093 22.0075 3.70378 21.737 2.98337 21.0166C2.26329 20.2962 1.99248 19.3197 1.99997 18.3125C2.00751 17.3098 2.28728 16.1974 2.75583 15.0595C3.15892 14.0807 3.71682 13.0474 4.40915 12C3.71674 10.9524 3.15892 9.91932 2.75583 8.9404C2.28732 7.80256 2.00752 6.69107 1.99997 5.68845C1.99244 4.68093 2.26295 3.70378 2.98337 2.98337C3.70378 2.26295 4.68093 1.99244 5.68845 1.99997C6.69107 2.00752 7.80256 2.28732 8.9404 2.75583C9.91933 3.15892 10.9524 3.71673 12 4.40915C13.0474 3.71683 14.0807 3.1589 15.0595 2.75583C16.1973 2.28735 17.3089 2.0076 18.3115 1.99997ZM5.64841 13.708C5.20496 14.4369 4.84271 15.1427 4.56931 15.8066C4.15929 16.8024 3.96693 17.6577 3.96188 18.3271C3.95696 18.9914 4.13395 19.3927 4.37106 19.6299C4.60829 19.8669 5.0095 20.043 5.6738 20.0381C6.34318 20.033 7.19768 19.8406 8.19333 19.4306C8.85737 19.1572 9.56386 18.796 10.2929 18.3525C9.46421 17.6964 8.6396 16.9628 7.83884 16.1621C7.03817 15.3614 6.30446 14.5366 5.64841 13.708ZM18.3525 13.708C17.6964 14.5368 16.9629 15.3612 16.1621 16.1621C15.3613 16.9629 14.5368 17.6964 13.708 18.3525C14.4368 18.7958 15.1428 19.1573 15.8066 19.4306C16.8024 19.8407 17.6577 20.033 18.3271 20.0381C18.9914 20.043 19.3927 19.867 19.6299 19.6299C19.867 19.3927 20.043 18.9914 20.0381 18.3271C20.033 17.6577 19.8407 16.8024 19.4306 15.8066C19.1573 15.1428 18.7958 14.4368 18.3525 13.708ZM12 9.99997C10.8956 10.0001 10.0001 10.8956 9.99997 12C9.99997 13.1045 10.8955 13.9998 12 14C13.1045 14 14 13.1045 14 12C13.9998 10.8955 13.1045 9.99997 12 9.99997ZM5.6738 3.96188C5.00928 3.95692 4.60728 4.13289 4.37009 4.37009C4.13289 4.60728 3.95692 5.00928 3.96188 5.6738C3.96695 6.34313 4.15942 7.19779 4.56931 8.19333C4.84274 8.85739 5.20487 9.56384 5.64841 10.2929C6.30456 9.46414 7.03801 8.63966 7.83884 7.83884C8.63969 7.03799 9.46411 6.30457 10.2929 5.64841C9.56383 5.20486 8.8574 4.84275 8.19333 4.56931C7.19779 4.15942 6.34312 3.96695 5.6738 3.96188ZM18.3271 3.96188C17.6577 3.96693 16.8024 4.1593 15.8066 4.56931C15.1427 4.8427 14.4369 5.20498 13.708 5.64841C14.5366 6.30446 15.3614 7.03817 16.1621 7.83884C16.9628 8.63959 17.6964 9.46422 18.3525 10.2929C18.796 9.56392 19.1572 8.85732 19.4306 8.19333C19.8406 7.19768 20.033 6.34316 20.0381 5.6738C20.043 5.00951 19.8669 4.60829 19.6299 4.37106C19.3927 4.13397 18.9913 3.95698 18.3271 3.96188Z" fill="#141414"/>
</svg>
