<svg width="24" height="24" viewBox="0 0 24 24" fill="none" xmlns="http://www.w3.org/2000/svg">
<path d="M12 2C13.3059 2 14.4141 2.83532 14.8262 4H22V6H20V8.66699L22.7998 12.4004C22.9296 12.5735 23 12.7837 23 13V16C23 17.1046 22.1046 18 21 18H17C15.8954 18 15 17.1046 15 16V13C15 12.7837 15.0704 12.5735 15.2002 12.4004L18 8.66699V6H14.8262C14.5249 6.85152 13.8515 7.5238 13 7.8252V20H18V22H6V20H11V7.8252C10.1485 7.5238 9.47513 6.85152 9.17383 6H6V8.66699L8.7998 12.4004C8.92955 12.5735 9 12.7837 9 13V16C9 17.1046 8.10457 18 7 18H3C1.89543 18 1 17.1046 1 16V13C1 12.7837 1.07045 12.5735 1.2002 12.4004L4 8.66699V6H2V4H9.17383C9.58594 2.83532 10.6941 2 12 2ZM12 4C11.4477 4 11 4.44772 11 5C11 5.55228 11.4477 6 12 6C12.5523 6 13 5.55228 13 5C13 4.44772 12.5523 4 12 4Z" fill="#141414"/>
</svg>
