<svg width="24" height="24" viewBox="0 0 24 24" fill="none" xmlns="http://www.w3.org/2000/svg">
<path d="M21.9999 17.7002L13.4199 21.7861C12.3321 22.304 11.0683 22.304 9.98044 21.7861L2.00001 17.9853V15.7695L10.8398 19.9804C11.3836 20.2393 12.0157 20.2392 12.5595 19.9804L21.9999 15.4834V17.7002ZM21.9999 13.2002L13.4199 17.2861C12.3321 17.804 11.0683 17.804 9.98044 17.2861L2.00001 13.4853V11.2695L10.8398 15.4804C11.3836 15.7394 12.0157 15.7392 12.5595 15.4804L21.9999 10.9834V13.2002ZM10.2802 2.20802C11.3681 1.69008 12.6319 1.69012 13.7197 2.20802L21.0341 5.69141C22.5539 6.41536 22.5539 8.57872 21.0341 9.30273L13.7197 12.7861C12.6319 13.3039 11.368 13.3041 10.2802 12.7861L2.96582 9.30273C1.44618 8.57879 1.4464 6.41555 2.96582 5.69141L10.2802 2.20802Z" fill="#141414"/>
</svg>
