<svg width="24" height="24" viewBox="0 0 24 24" fill="none" xmlns="http://www.w3.org/2000/svg">
<path d="M14 3.5C16.2091 3.5 18 5.29086 18 7.5V16.5C18 18.7091 16.2091 20.5 14 20.5H5C2.79086 20.5 1 18.7091 1 16.5V7.5C1 5.29086 2.79086 3.5 5 3.5H14Z" fill="#141414"/>
<path d="M21.4004 8.20015C21.7034 7.97299 22.1085 7.93606 22.4473 8.10542C22.786 8.27481 23 8.62118 23 8.99995V15C23 15.3787 22.786 15.7251 22.4473 15.8945C22.1085 16.0638 21.7034 16.0269 21.4004 15.7998L17.4004 12.7998C17.1486 12.6109 17 12.3147 17 12C17 11.6852 17.1486 11.389 17.4004 11.2001L21.4004 8.20015ZM19.666 12L21 13V10.999L19.666 12Z" fill="#141414"/>
</svg>
