<svg width="24" height="24" viewBox="0 0 24 24" fill="none" xmlns="http://www.w3.org/2000/svg">
<path d="M15.3057 3H13V4.30762C17.7654 4.80013 21.5 8.77256 21.5 13.6279C21.5 18.8182 17.2323 23 12 23C6.76768 23 2.50001 18.8182 2.5 13.6279C2.5 8.7726 6.23468 4.80019 11 4.30762V3H8.69434V1H15.3057V3ZM10.5 14.2324L14.5 16.709L15.5205 15L12.5186 13.2373V9.21777H10.5V14.2324ZM6.20703 4.20703L2.41406 8L1 6.58594L4.79297 2.79297L6.20703 4.20703ZM23 6.08594L21.5859 7.5L18.293 4.20703L19.707 2.79297L23 6.08594Z" fill="#141414"/>
</svg>
