<svg width="24" height="24" viewBox="0 0 24 24" fill="none" xmlns="http://www.w3.org/2000/svg">
<path d="M18 2C20.2091 2 22 3.79086 22 6V18C22 20.2091 20.2091 22 18 22H6C3.79086 22 2 20.2091 2 18V6C2 3.79086 3.79086 2 6 2H18ZM4 18C4 19.1046 4.89543 20 6 20H7V17H4V18ZM17 20H18C19.1046 20 20 19.1046 20 18V17H17V20ZM4 15H7V13H4V15ZM17 15H20V13H17V15ZM9 13H15V11H9V13ZM4 11H7V9H4V11ZM17 11H20V9H17V11ZM6 4C4.89543 4 4 4.89543 4 6V7H7V4H6ZM17 7H20V6C20 4.89543 19.1046 4 18 4H17V7Z" fill="#141414"/>
</svg>
