<svg width="24" height="24" viewBox="0 0 24 24" fill="none" xmlns="http://www.w3.org/2000/svg">
<path d="M12 1C18.0751 1 23 5.92487 23 12C23 18.0751 18.0751 23 12 23C5.92487 23 1 18.0751 1 12C1 5.92487 5.92487 1 12 1ZM14.9053 13.751C14.5721 15.045 13.3964 16 12 16C10.6036 16 9.42791 15.045 9.09473 13.751L7.15723 14.249C7.71222 16.4053 9.66885 18 12 18C14.3312 18 16.2878 16.4053 16.8428 14.249L14.9053 13.751ZM6 11H10V9H6V11ZM15.5 8C14.6716 8 14 8.67157 14 9.5C14 10.3284 14.6716 11 15.5 11C16.3284 11 17 10.3284 17 9.5C17 8.67157 16.3284 8 15.5 8Z" fill="#141414"/>
</svg>
