<svg width="24" height="24" viewBox="0 0 24 24" fill="none" xmlns="http://www.w3.org/2000/svg">
<path d="M7 14.126C8.38992 14.4837 9.4872 15.5699 9.86133 16.9531C11.6662 16.7576 13.3615 15.953 14.6572 14.6572C15.953 13.3615 16.7576 11.6662 16.9531 9.86133C15.2518 9.40117 14 7.84689 14 6C14 3.79086 15.7909 2 18 2C20.2091 2 22 3.79086 22 6C22 7.87788 20.7059 9.45348 18.9609 9.88379C18.7544 12.212 17.7372 14.4054 16.0713 16.0713C14.4054 17.7372 12.212 18.7544 9.88379 18.9609C9.45348 20.7059 7.87788 22 6 22C3.79086 22 2 20.2091 2 18C2 16.1362 3.27477 14.57 5 14.126V2H7V14.126ZM6 17C5.44772 17 5 17.4477 5 18C5 18.5523 5.44772 19 6 19C6.55228 19 7 18.5523 7 18C7 17.4477 6.55228 17 6 17ZM18 5C17.4477 5 17 5.44772 17 6C17 6.55228 17.4477 7 18 7C18.5523 7 19 6.55228 19 6C19 5.44772 18.5523 5 18 5Z" fill="#141414"/>
</svg>
