<svg width="24" height="24" viewBox="0 0 24 24" fill="none" xmlns="http://www.w3.org/2000/svg">
<path d="M9 13C9 14.1046 9.89543 15 11 15H13C14.1046 15 15 14.1046 15 13V8H17C19.2091 8 21 9.79086 21 12V19C21 21.2091 19.2091 23 17 23H7C4.79086 23 3 21.2091 3 19V12C3 9.79086 4.79086 8 7 8H9V13ZM12 1C12.2652 1 12.5195 1.10543 12.707 1.29297L16.207 4.79297L14.793 6.20703L13 4.41406V13H11V4.41406L9.20703 6.20703L7.79297 4.79297L11.293 1.29297L11.3662 1.22656C11.5442 1.08073 11.7679 1 12 1Z" fill="#141414"/>
</svg>
