<svg width="24" height="24" viewBox="0 0 24 24" fill="none" xmlns="http://www.w3.org/2000/svg">
<path d="M6.2002 15.458C6.2176 15.3924 6.23631 15.3274 6.25586 15.2627L6.29688 15.1357C6.30517 15.1104 6.31267 15.0848 6.32129 15.0596C6.32305 15.0544 6.32439 15.0491 6.32617 15.0439C6.40721 14.8091 6.50295 14.581 6.61133 14.3604C6.62564 14.3312 6.6405 14.3023 6.65527 14.2734C6.70412 14.178 6.75487 14.0837 6.80859 13.9912C6.81681 13.9771 6.82565 13.9633 6.83398 13.9492C6.84767 13.9261 6.86101 13.9028 6.875 13.8799C6.91532 13.8138 6.95724 13.7489 7 13.6846C7.0187 13.6564 7.03748 13.6284 7.05664 13.6006C7.07336 13.5763 7.09036 13.5523 7.10742 13.5283C7.15051 13.4677 7.19401 13.4075 7.23926 13.3486C7.25084 13.3336 7.26269 13.3187 7.27441 13.3037C7.29057 13.2831 7.30683 13.2626 7.32324 13.2422C7.33093 13.2326 7.33894 13.2234 7.34668 13.2139C7.39325 13.1567 7.44065 13.1003 7.48926 13.0449C7.51389 13.0169 7.53931 12.9895 7.56445 12.9619C7.57284 12.9527 7.58042 12.9428 7.58887 12.9336C7.6026 12.9187 7.61697 12.9044 7.63086 12.8896C7.66668 12.8516 7.70246 12.8135 7.73926 12.7764L7.78809 12.7275L4.54199 8.08984C4.18911 7.58564 4 6.98457 4 6.36914V4C4 2.34315 5.34315 1 7 1H17C18.6569 1 20 2.34315 20 4V6.36914C20 6.98457 19.8109 7.58564 19.458 8.08984L16.2109 12.7275C17.3149 13.8157 18 15.3275 18 17C18 20.3137 15.3137 23 12 23C8.68629 23 6 20.3137 6 17C6 16.8563 6.0047 16.7134 6.01465 16.5723C6.01893 16.5115 6.02419 16.4509 6.03027 16.3906C6.03472 16.3465 6.03952 16.3026 6.04492 16.2588C6.05412 16.1843 6.06525 16.1098 6.07715 16.0361L6.0791 16.0254C6.08534 15.9872 6.09168 15.949 6.09863 15.9111C6.11279 15.834 6.12842 15.7568 6.14551 15.6807C6.1623 15.6059 6.18064 15.5317 6.2002 15.458ZM6.30273 15.1162C6.3069 15.1036 6.3102 15.0907 6.31445 15.0781L6.32129 15.0596C6.31486 15.0784 6.30898 15.0973 6.30273 15.1162ZM6.43555 14.7529C6.44611 14.7268 6.45685 14.7008 6.46777 14.6748C6.45685 14.7008 6.44612 14.7268 6.43555 14.7529ZM6.01562 3.82715C6.00583 3.88334 6 3.94101 6 4V6.36914C6 6.57431 6.06301 6.77528 6.18066 6.94336L9.4248 11.5781C9.87509 11.3639 10.3568 11.2052 10.8604 11.1084L6.01562 3.82715ZM13.2539 11.1328C13.5627 11.1983 13.863 11.2866 14.1523 11.3975C14.1931 11.4131 14.2341 11.4298 14.2744 11.4463C14.3092 11.4605 14.3445 11.4754 14.3789 11.4902C14.4443 11.5185 14.5091 11.5476 14.5732 11.5781L17.8193 6.94336C17.937 6.77528 18 6.57431 18 6.36914V4C18 3.94029 17.9934 3.88203 17.9834 3.8252L13.1211 11.1055C13.1656 11.1139 13.2098 11.1234 13.2539 11.1328ZM13.6348 11.2266C13.6629 11.2345 13.6908 11.2427 13.7188 11.251C13.6908 11.2427 13.6629 11.2345 13.6348 11.2266ZM11.9902 9.19629L16.1289 3H7.86621L11.9902 9.19629Z" fill="#141414"/>
</svg>
