<svg width="24" height="24" viewBox="0 0 24 24" fill="none" xmlns="http://www.w3.org/2000/svg">
<path d="M12 1C18.0751 1 23 5.92487 23 12C23 18.0751 18.0751 23 12 23C5.92487 23 1 18.0751 1 12C1 5.92487 5.92487 1 12 1ZM12 7C10.067 7 8.5 8.567 8.5 10.5C8.5 11.9493 9.38119 13.192 10.6367 13.7236L9.36133 16.2764C9.19533 16.6087 9.43721 16.9997 9.80859 17H14.1914C14.5628 16.9997 14.8047 16.6087 14.6387 16.2764L13.3623 13.7236C14.6183 13.1922 15.5 11.9496 15.5 10.5C15.5 8.567 13.933 7 12 7Z" fill="#141414"/>
</svg>
