<svg width="24" height="24" viewBox="0 0 24 24" fill="none" xmlns="http://www.w3.org/2000/svg">
<path fill-rule="evenodd" clip-rule="evenodd" d="M12.4952 3.8859C14.8155 1.37185 18.6134 1.37165 20.9336 3.8859C23.9369 7.14064 23.3161 11.2221 21.3018 14.5539C19.2942 17.8744 15.7705 20.7392 12.3301 21.9435C12.1166 22.0182 11.8835 22.0191 11.67 21.9445C8.2297 20.7402 4.70696 17.8742 2.69927 14.5539C0.684937 11.222 0.063041 7.14068 3.06646 3.8859C5.38675 1.37165 9.18458 1.37174 11.5049 3.8859L12.0001 4.42203L12.4952 3.8859ZM11.0801 9.00309C10.7489 8.97658 10.4293 9.11686 10.2237 9.37028L10.1426 9.48551L8.93364 11.5002H7.00005V13.5002H9.50005C9.85111 13.5 10.1768 13.3158 10.3575 13.0148L10.8194 12.2433L12.0713 15.3713C12.2125 15.7238 12.5415 15.9668 12.92 15.9972C13.2985 16.0274 13.6621 15.8404 13.8575 15.5148L15.0665 13.5002H17.0001V11.5002H14.5001C14.1929 11.5002 13.905 11.6412 13.7168 11.8781L13.6426 11.9855L13.1797 12.756L11.9288 9.62907C11.7877 9.27662 11.4585 9.03363 11.0801 9.00309Z" fill="#141414"/>
</svg>
