<svg width="24" height="24" viewBox="0 0 24 24" fill="none" xmlns="http://www.w3.org/2000/svg">
<path d="M13 1C15.2091 1 17 2.79086 17 5H19C21.2091 5 23 6.79086 23 9V18C23 20.2091 21.2091 22 19 22H5C2.79086 22 1 20.2091 1 18V9C1 6.79086 2.79086 5 5 5H7C7 2.79086 8.79086 1 11 1H13ZM10 15C10 16.1046 10.8954 17 12 17C13.1046 17 14 16.1046 14 15V14H10V15ZM5 7C3.89543 7 3 7.89543 3 9V10C3 11.1046 3.89543 12 5 12H19C20.1046 12 21 11.1046 21 10V9C21 7.89543 20.1046 7 19 7H5ZM11 3C9.89543 3 9 3.89543 9 5H15C15 3.89543 14.1046 3 13 3H11Z" fill="#141414"/>
</svg>
