<svg width="24" height="24" viewBox="0 0 24 24" fill="none" xmlns="http://www.w3.org/2000/svg">
<path d="M12.9062 1.0054C13.2133 0.976473 13.517 1.0904 13.7285 1.31498V1.31595L13.7305 1.31693C13.7315 1.31807 13.7327 1.32005 13.7344 1.32181C13.7383 1.326 13.7439 1.33282 13.751 1.34037C13.7653 1.35576 13.7868 1.37789 13.8135 1.40677C13.8671 1.46486 13.9448 1.55001 14.043 1.65872C14.2395 1.87642 14.5192 2.1909 14.8535 2.58158C15.5216 3.36224 16.4144 4.45349 17.3096 5.68997C18.2024 6.92326 19.1127 8.32155 19.8027 9.71536C20.4824 11.0884 20.9999 12.5573 21 13.9048C20.9997 18.9166 16.9815 23.0005 12 23.0005C7.01847 23.0005 3.00026 18.9166 3 13.9048C3 12.3778 3.00937 8.65562 6.2002 4.40091L6.26953 4.3179C6.44082 4.13459 6.67585 4.02154 6.92871 4.00345C7.21787 3.9829 7.50205 4.08851 7.70703 4.29349L9.3252 5.91165L12.1562 1.46341L12.2236 1.37064C12.3918 1.16339 12.6374 1.03085 12.9062 1.0054ZM12.7119 12.8579C12.3438 12.3902 11.6562 12.3902 11.2881 12.8579C10.401 13.985 9.00021 15.9822 9 17.357C9.00004 19.3688 10.3432 21.0005 12 21.0005C13.6568 21.0005 15 19.3688 15 17.357C14.9998 15.9822 13.599 13.985 12.7119 12.8579Z" fill="#141414"/>
</svg>
