<svg width="24" height="24" viewBox="0 0 24 24" fill="none" xmlns="http://www.w3.org/2000/svg">
<path d="M6 11C7.10457 11 8 11.8954 8 13V20C8 21.1046 7.10457 22 6 22H4C2.89543 22 2 21.1046 2 20V13C2 11.8954 2.89543 11 4 11H6ZM13 2C14.1046 2 15 2.89543 15 4V20C15 21.1046 14.1046 22 13 22H12C10.8954 22 10 21.1046 10 20V4C10 2.89543 10.8954 2 12 2H13ZM20 7C21.1046 7 22 7.89543 22 9V20C22 21.1046 21.1046 22 20 22H19C17.8954 22 17 21.1046 17 20V9C17 7.89543 17.8954 7 19 7H20Z" fill="#141414"/>
</svg>
