<svg width="24" height="24" viewBox="0 0 24 24" fill="none" xmlns="http://www.w3.org/2000/svg">
<path d="M14.5 1C19.7467 1 24 5.25329 24 10.5C24 15.3921 20.3022 19.4133 15.5498 19.9365C13.8984 21.2281 11.7849 22 9.5 22C4.31127 22 2.63675e-07 18.0268 0 13C4.32359e-08 11.2806 1.44312 10.0292 3.06348 9.2666C3.51383 9.05467 4.00504 8.86681 4.5293 8.7041L3.34668 6H1V4H4L4.14648 4.01074C4.48383 4.06062 4.77662 4.28099 4.91602 4.59961L5.81348 6.65137C7.2903 3.32221 10.6229 1 14.5 1ZM9.5 10C9.31221 10 9.12629 10.0038 8.94238 10.0098C8.70911 10.0174 8.47877 10.0281 8.25195 10.0449C8.21341 10.0478 8.17505 10.0516 8.13672 10.0547C7.86576 10.0767 7.59991 10.1053 7.33984 10.1396L8.17285 12.0439C8.59236 12.0152 9.03806 12 9.5 12C11.9853 12 14 12.4477 14 13C14 13.5523 11.9853 14 9.5 14C7.01472 14 5 13.5523 5 13C5 12.747 5.42301 12.5169 6.12012 12.3408L5.33594 10.5488C4.81294 10.6999 4.3362 10.878 3.91504 11.0762C2.45924 11.7613 2 12.5103 2 13C2 13.4897 2.45924 14.2387 3.91504 14.9238C5.29258 15.5721 7.26629 16 9.5 16C11.7337 16 13.7074 15.5721 15.085 14.9238C16.5101 14.2531 16.9789 13.5212 16.998 13.0312L16.999 12.9912C16.9942 12.563 16.6407 11.9408 15.585 11.3359C15.4331 11.2489 15.2669 11.1618 15.085 11.0762C13.7074 10.4279 11.7337 10 9.5 10ZM16 7C15.4477 7 15 7.44772 15 8C15 8.55228 15.4477 9 16 9C16.5523 9 17 8.55228 17 8C17 7.44772 16.5523 7 16 7ZM19 6C18.4477 6 18 6.44772 18 7C18 7.55228 18.4477 8 19 8C19.5523 8 20 7.55228 20 7C20 6.44772 19.5523 6 19 6ZM15 4C14.4477 4 14 4.44772 14 5C14 5.55228 14.4477 6 15 6C15.5523 6 16 5.55228 16 5C16 4.44772 15.5523 4 15 4Z" fill="#141414"/>
</svg>
