<svg width="24" height="24" viewBox="0 0 24 24" fill="none" xmlns="http://www.w3.org/2000/svg">
<path d="M16 1C16.4781 1 16.8895 1.33843 16.9814 1.80762L17.9258 6.625C19.2138 8.04442 20 9.93153 20 12C20 14.0685 19.2138 15.9556 17.9258 17.375L16.9814 22.1924C16.8895 22.6616 16.4781 23 16 23H8C7.52189 23 7.11053 22.6616 7.01855 22.1924L6.07422 17.375C4.78624 15.9556 4 14.0685 4 12C4 9.93153 4.78624 8.04442 6.07422 6.625L7.01855 1.80762C7.11053 1.33843 7.52189 1 8 1H16ZM15.5342 19.1787C14.4684 19.7043 13.2684 20 12 20C10.7316 20 9.53157 19.7043 8.46582 19.1787L8.82324 21H15.1768L15.5342 19.1787ZM10.6113 12.3887C10.6113 12.6539 10.7168 12.9082 10.9043 13.0957L13.2373 15.4297L14.6514 14.0156L12.6113 11.9746V8.88867H10.6113V12.3887ZM8.46582 4.82129C9.53157 4.29569 10.7316 4 12 4C13.2684 4 14.4684 4.29569 15.5342 4.82129L15.1768 3H8.82324L8.46582 4.82129Z" fill="#141414"/>
</svg>
