<svg width="24" height="24" viewBox="0 0 24 24" fill="none" xmlns="http://www.w3.org/2000/svg">
<path d="M16.7783 19.0225C18.186 18.3303 19.8433 18.3303 21.251 19.0225L23 20.0107L22.1055 21.7705L20.3564 20.7812C19.5119 20.3659 18.5174 20.366 17.6729 20.7812L16.251 21.4805C14.8433 22.1727 13.186 22.1727 11.7783 21.4805L10.3564 20.7812C9.51189 20.3659 8.51742 20.366 7.67285 20.7812L6.42578 21.3945C4.89676 22.1464 3.08307 22.0779 1.61719 21.2129L1 20.8486L2.0293 19.1621L2.64648 19.5264C3.52594 20.0452 4.61394 20.0868 5.53125 19.6357L6.77832 19.0225C8.18596 18.3303 9.84334 18.3303 11.251 19.0225L12.6729 19.7217C13.5174 20.137 14.5119 20.137 15.3564 19.7217L16.7783 19.0225ZM16.7783 14.7852C18.186 14.093 19.8433 14.093 21.251 14.7852L23 15.7744L22.1055 17.5332L20.3564 16.5449C19.5119 16.1296 18.5174 16.1296 17.6729 16.5449L16.251 17.2441C14.8433 17.9363 13.186 17.9363 11.7783 17.2441L10.3564 16.5449C9.51186 16.1296 8.51743 16.1296 7.67285 16.5449L6.42578 17.1582C4.89682 17.9101 3.08303 17.8415 1.61719 16.9766L1 16.6123L2.0293 14.9258L2.64648 15.29C3.52593 15.8088 4.614 15.8495 5.53125 15.3984L6.77832 14.7852C8.18596 14.093 9.84334 14.093 11.251 14.7852L12.6729 15.4844C13.5174 15.8997 14.5119 15.8997 15.3564 15.4844L16.7783 14.7852ZM3 13H1V11H3V13ZM12 6C15.866 6 19 9.13401 19 13H5C5 9.13401 8.13401 6 12 6ZM23 13H21V11H23V13ZM20.4854 5.92871L19.0713 7.34375L17.6572 5.92871L19.0713 4.51465L20.4854 5.92871ZM6.34277 5.92871L4.92871 7.34277L3.51465 5.92871L4.92871 4.51465L6.34277 5.92871ZM13 4H11V2H13V4Z" fill="#141414"/>
</svg>
