<svg width="24" height="24" viewBox="0 0 24 24" fill="none" xmlns="http://www.w3.org/2000/svg">
<path d="M18 2C20.2091 2 22 3.79086 22 6V18C22 20.2091 20.2091 22 18 22H6C3.79086 22 2 20.2091 2 18V6C2 3.79086 3.79086 2 6 2H18ZM13.793 11.707L16.0859 14L13.793 16.293L15.207 17.707L18.207 14.707C18.5975 14.3165 18.5975 13.6835 18.207 13.293L15.207 10.293L13.793 11.707ZM5.79297 9.29297C5.40246 9.68348 5.40248 10.3165 5.79297 10.707L8.79297 13.707L10.207 12.293L7.91406 10L10.207 7.70703L8.79297 6.29297L5.79297 9.29297Z" fill="#141414"/>
</svg>
