<svg width="24" height="24" viewBox="0 0 24 24" fill="none" xmlns="http://www.w3.org/2000/svg">
<path d="M12 1V4C7.58172 4 4 7.58172 4 12C4 16.4183 7.58172 20 12 20C16.4183 20 20 16.4183 20 12H23C23 12.0059 23 12.0117 23 12.0176C23 15.05 21.8936 17.6882 19.7793 19.8066C18.2293 21.3596 16.294 22.3472 14.2549 22.7666C14.2072 22.7765 14.1593 22.7856 14.1113 22.7949C13.9937 22.8175 13.876 22.8386 13.7578 22.8574C13.6761 22.8706 13.594 22.8822 13.5117 22.8936C13.4294 22.9048 13.3471 22.9154 13.2646 22.9248C13.1657 22.9361 13.0665 22.9464 12.9668 22.9551C12.8835 22.9623 12.8002 22.9682 12.7168 22.9736C12.6275 22.9794 12.5381 22.9847 12.4482 22.9883C12.3516 22.9922 12.2549 22.9937 12.1582 22.9951C12.1055 22.9959 12.0528 23 12 23C11.9756 23 11.9512 22.9982 11.9268 22.998C11.7883 22.9973 11.65 22.9932 11.5117 22.9873C11.4785 22.9859 11.4453 22.9851 11.4121 22.9834C9.00403 22.8602 6.62829 21.9652 4.72266 20.2803C2.44079 18.2627 1.00001 15.3077 1 12.0176C1 11.9458 1.00449 11.8742 1.00586 11.8027C1.10448 6.19686 5.39252 1.61357 10.875 1.05664C11.2449 1.01899 11.6202 1 12 1Z" fill="#141414"/>
<path d="M12 8C10.8961 8 9.89789 8.44689 9.17285 9.17285C8.44759 9.89927 8 10.9008 8 12.0088C8 13.2066 8.52327 14.2808 9.35547 15.0166C10.9116 16.3921 13.3589 16.3158 14.8281 14.8438C15.6062 14.0641 16 13.1253 16 12.0088H18C18 13.6582 17.3934 15.1044 16.2432 16.2568C14.0272 18.4767 10.3792 18.5914 8.03027 16.5146C6.78643 15.4149 6 13.8029 6 12.0088C6 10.3502 6.67211 8.84621 7.75684 7.75977C8.84135 6.67358 10.3431 6 12 6V8Z" fill="#141414"/>
<path d="M17.543 1.29297C17.829 1.00698 18.2591 0.921394 18.6328 1.07617C19.0064 1.23098 19.25 1.59559 19.25 2V4.75H22C22.4044 4.75 22.769 4.9936 22.9238 5.36719C23.0786 5.74086 22.993 6.17103 22.707 6.45703L19.582 9.70703C19.3945 9.89457 19.1402 10 18.875 10H15.4141L13.9297 11.4834C13.9738 11.6484 14 11.8211 14 12C14 13.1046 13.1046 14 12 14C10.8954 14 10 13.1046 10 12C10 10.8954 10.8954 10 12 10C12.1785 10 12.351 10.0255 12.5156 10.0693L14 8.58594V5.25C14 4.98479 14.1054 4.7305 14.293 4.54297L17.543 1.29297Z" fill="#141414"/>
</svg>
