<svg width="24" height="24" viewBox="0 0 24 24" fill="none" xmlns="http://www.w3.org/2000/svg">
<path d="M7.5 1C9.10381 1 10.5997 1.2344 11.7305 1.64551C12.2917 1.84959 12.8168 2.11651 13.2197 2.46289C13.6194 2.80655 14 3.32275 14 4V11.8037C14.8826 11.293 15.907 11 17 11C20.3137 11 23 13.6863 23 17C23 20.3137 20.3137 23 17 23C14.8888 23 13.0333 21.909 11.9639 20.2607C11.5493 20.4287 11.0927 20.5677 10.6143 20.6758C9.69375 20.8838 8.62761 21 7.5 21C5.89624 21 4.40029 20.7656 3.26953 20.3545C2.70842 20.1504 2.18317 19.8834 1.78027 19.5371C1.38069 19.1935 1.00013 18.677 1 18V4C1 3.32275 1.38055 2.80655 1.78027 2.46289C2.18322 2.11651 2.7083 1.84959 3.26953 1.64551C4.40031 1.2344 5.89619 1 7.5 1ZM17 13C15.695 13 14.5358 13.6248 13.8057 14.5918L13.7998 14.6006C13.7444 14.6744 13.6919 14.7505 13.6416 14.8281C13.4596 15.109 13.3117 15.4138 13.2041 15.7373C13.1474 15.9078 13.1038 16.0837 13.0703 16.2637C13.0254 16.5023 13 16.7481 13 17C13 17.2046 13.0155 17.4057 13.0449 17.6016C13.3351 19.5253 14.9953 21 17 21C19.2091 21 21 19.2091 21 17C21 14.7909 19.2091 13 17 13ZM3 16.4404C4.30842 16.7992 5.85855 17 7.5 17C8.74403 17 9.93524 16.8833 11.0088 16.6709C11.0094 16.6598 11.0101 16.6488 11.0107 16.6377C11.0272 16.3625 11.0628 16.0922 11.1152 15.8281C11.1229 15.7895 11.1313 15.7512 11.1396 15.7129C11.1474 15.6777 11.1547 15.6424 11.1631 15.6074C11.2052 15.4304 11.2551 15.2565 11.3125 15.0859C11.3222 15.0571 11.3326 15.0286 11.3428 15C11.3598 14.9519 11.3773 14.904 11.3955 14.8564C11.4074 14.8253 11.4202 14.7945 11.4326 14.7637C11.47 14.6708 11.509 14.5788 11.5508 14.4883C10.4354 14.8037 9.0385 15 7.5 15C5.7472 15 4.17825 14.7453 3 14.3496V16.4404ZM12 8.34961C10.8217 8.74529 9.2528 9 7.5 9C5.7472 9 4.17825 8.74529 3 8.34961V10.4404C4.30842 10.7992 5.85855 11 7.5 11C9.14145 11 10.6916 10.7992 12 10.4404V8.34961ZM7.5 3C6.06673 3 4.81289 3.21284 3.95312 3.52539C3.51918 3.68319 3.23766 3.84739 3.08398 3.97949C3.0762 3.98619 3.06916 3.9929 3.0625 3.99902C3.06948 4.00539 3.07579 4.01346 3.08398 4.02051C3.23766 4.15261 3.51918 4.31681 3.95312 4.47461C4.81289 4.78716 6.06673 5 7.5 5C8.93327 5 10.1871 4.78716 11.0469 4.47461C11.4808 4.31681 11.7623 4.15261 11.916 4.02051C11.9238 4.01383 11.9298 4.00607 11.9365 4C11.9298 3.99393 11.9238 3.98617 11.916 3.97949C11.7623 3.84739 11.4808 3.68319 11.0469 3.52539C10.1871 3.21284 8.93327 3 7.5 3Z" fill="#141414"/>
</svg>
