<svg width="24" height="24" viewBox="0 0 24 24" fill="none" xmlns="http://www.w3.org/2000/svg">
<path d="M14 1C14.2713 1 14.5313 1.11053 14.7197 1.30566L20.376 7.16309C23.8744 10.7858 23.8744 16.6458 20.376 20.2686C16.8587 23.9105 11.1413 23.9105 7.62403 20.2686C5.91624 18.5001 5.04553 16.2009 5.00196 13.8975C4.06688 13.7025 3.17526 13.2302 2.45216 12.4814C0.515932 10.4764 0.515963 7.23948 2.45216 5.23438L5.28028 2.30566C5.46872 2.11053 5.72875 2 6.00001 2C6.27128 2 6.5313 2.11053 6.71974 2.30566L9.51759 5.20215L13.2803 1.30566C13.4687 1.11053 13.7287 1 14 1ZM3.89063 6.62402C2.70322 7.85404 2.70319 9.8618 3.89063 11.0918C5.05958 12.3023 6.94044 12.3023 8.10939 11.0918C9.29685 9.86179 9.29682 7.85405 8.10939 6.62402L6.00001 4.43945L3.89063 6.62402Z" fill="#141414"/>
</svg>
