<svg width="24" height="24" viewBox="0 0 24 24" fill="none" xmlns="http://www.w3.org/2000/svg">
<path d="M12 3C13.6569 3 15 4.34315 15 6V6.45801C18.7513 7.63624 21.5496 10.9653 21.9502 15H22C22.5523 15 23 15.4477 23 16V20C23 20.5523 22.5523 21 22 21H2C1.44772 21 1 20.5523 1 20V16C1 15.4477 1.44772 15 2 15H2.0498C2.45041 10.9653 5.24874 7.63624 9 6.45801V6C9 4.34315 10.3431 3 12 3ZM3 19H21V17H3V19ZM12 5C11.4477 5 11 5.44772 11 6V6.0498C11.3289 6.01715 11.6625 6 12 6C12.3375 6 12.6711 6.01715 13 6.0498V6C13 5.44772 12.5523 5 12 5Z" fill="#141414"/>
</svg>
