<svg width="24" height="24" viewBox="0 0 24 24" fill="none" xmlns="http://www.w3.org/2000/svg">
<path d="M8.91602 1C12.5349 1 15.5052 3.77978 15.8076 7.32031C16.7462 8.06677 17.4496 9.0858 17.7842 10.2607C20.7004 10.6314 23 13.0405 23 16.0234C23 18.9688 20.7278 21.635 17.7441 21.9932L17.6846 22H6.31543L6.25586 21.9932C3.27216 21.635 1 18.9688 1 16.0234C1 14.2533 1.81024 12.685 3.07812 11.625C2.39595 10.5529 2 9.27953 2 7.91602C2.00015 4.09647 5.09647 1.00015 8.91602 1ZM8.91602 3C6.20104 3.00015 4.00015 5.20104 4 7.91602C4 8.91306 4.29564 9.83917 4.80469 10.6133C5.25216 10.4426 5.72547 10.3231 6.21582 10.2607C6.92126 7.78346 9.26514 6 12 6C12.5241 6 13.0339 6.06517 13.5205 6.18848C12.8211 4.32564 11.0232 3 8.91602 3Z" fill="#141414"/>
</svg>
