<svg width="24" height="24" viewBox="0 0 24 24" fill="none" xmlns="http://www.w3.org/2000/svg">
<path d="M11 5C14.2002 5 16.8149 7.50569 16.9902 10.6621C17.5848 11.2687 18.035 12.0122 18.2832 12.8438C20.9236 13.2107 23 15.4047 23 18.1211C23 20.9941 20.7295 22.6873 18.1816 22.9932L18.1221 23H7.87793L7.81836 22.9932C5.27047 22.6873 3 20.9941 3 18.1211C3 16.1961 4.04267 14.5336 5.58984 13.5977C5.21173 12.8113 5 11.9296 5 11C5 7.68629 7.68629 5 11 5ZM11 7C8.79086 7 7 8.79086 7 11C7 11.682 7.1696 12.3228 7.46973 12.8838C7.55132 12.8687 7.63405 12.8552 7.7168 12.8438C8.38562 10.6032 10.5186 9 13 9C13.5498 9 14.0825 9.0787 14.5859 9.22559C13.932 7.90668 12.5719 7 11 7ZM3 12H1V10H3V12ZM21 12H19V10H21V12ZM18.8281 4.58594L17.4141 6L16 4.58594L17.4141 3.17188L18.8281 4.58594ZM5.91406 4.5L4.5 5.91406L3 4.41406L4.41406 3L5.91406 4.5ZM12 2.92871H10V1H12V2.92871Z" fill="#141414"/>
</svg>
