<svg width="24" height="24" viewBox="0 0 24 24" fill="none" xmlns="http://www.w3.org/2000/svg">
<path d="M7.5 1C9.10381 1 10.5997 1.2344 11.7305 1.64551C12.2917 1.84959 12.8168 2.11651 13.2197 2.46289C13.6194 2.80655 14 3.32275 14 4V7.20508C14.7726 7.07342 15.6198 7 16.5 7C18.1038 7 19.5997 7.2344 20.7305 7.64551C21.2917 7.84959 21.8168 8.11651 22.2197 8.46289C22.6194 8.80655 23 9.32275 23 10V19C23 19.6772 22.6194 20.1935 22.2197 20.5371C21.8168 20.8835 21.2917 21.1504 20.7305 21.3545C19.5997 21.7656 18.1038 22 16.5 22C14.8962 22 13.4003 21.7656 12.2695 21.3545C11.7487 21.1651 11.26 20.9203 10.8701 20.6094C9.88919 20.8572 8.72927 21 7.5 21C5.89619 21 4.40031 20.7656 3.26953 20.3545C2.7083 20.1504 2.18322 19.8835 1.78027 19.5371C1.38055 19.1935 1 18.6772 1 18V4C1 3.32275 1.38055 2.80655 1.78027 2.46289C2.18322 2.11651 2.7083 1.84959 3.26953 1.64551C4.40031 1.2344 5.89619 1 7.5 1ZM21 15.3496C19.8218 15.7453 18.2528 16 16.5 16C14.7472 16 13.1782 15.7453 12 15.3496V17.4375C13.3084 17.7968 14.8582 18 16.5 18C18.1418 18 19.6916 17.7968 21 17.4375V15.3496ZM3 16.4375C4.30844 16.7968 5.85819 17 7.5 17C8.36632 17 9.20675 16.941 10 16.835V14.8145C9.23201 14.9314 8.38995 15 7.5 15C5.7472 15 4.17823 14.7453 3 14.3496V16.4375ZM3 10.4375C4.30844 10.7968 5.85819 11 7.5 11C8.36632 11 9.20675 10.941 10 10.835V10C10 9.99314 10.0009 9.98631 10.001 9.97949C10.0019 9.8994 10.0076 9.82162 10.0186 9.74609C10.0226 9.71774 10.0278 9.68981 10.0332 9.66211C10.0358 9.64903 10.0382 9.63598 10.041 9.62305C10.0458 9.60102 10.0511 9.57923 10.0566 9.55762C10.0613 9.53958 10.0661 9.52165 10.0713 9.50391C10.0901 9.43944 10.1125 9.37699 10.1377 9.31641C10.1414 9.30751 10.1456 9.29885 10.1494 9.29004C10.1976 9.17909 10.2561 9.07525 10.3213 8.97754C10.352 8.93132 10.3845 8.8869 10.418 8.84375C10.4304 8.82777 10.4423 8.81147 10.4551 8.7959C10.4739 8.77287 10.4923 8.74964 10.5117 8.72754C9.61228 8.89754 8.59214 9 7.5 9C5.7472 9 4.17823 8.74528 3 8.34961V10.4375ZM16.5 9C15.249 9 14.1347 9.16206 13.2998 9.41113L13.2881 9.41504C12.7618 9.57308 12.3933 9.75335 12.1719 9.91309C12.152 9.92742 12.1334 9.94131 12.1162 9.95508C12.0956 9.97153 12.0773 9.98546 12.0625 9.99902C12.0695 10.0054 12.0758 10.0135 12.084 10.0205C12.2377 10.1526 12.5192 10.3168 12.9531 10.4746C13.8129 10.7872 15.0667 11 16.5 11C17.9333 11 19.1871 10.7872 20.0469 10.4746C20.4808 10.3168 20.7623 10.1526 20.916 10.0205C20.9238 10.0138 20.9298 10.0061 20.9365 10C20.9298 9.99393 20.9238 9.98617 20.916 9.97949C20.7623 9.84739 20.4808 9.68319 20.0469 9.52539C19.1871 9.21284 17.9333 9 16.5 9ZM7.5 3C6.06673 3 4.81289 3.21284 3.95312 3.52539C3.51918 3.68319 3.23766 3.84739 3.08398 3.97949C3.0762 3.98619 3.06916 3.9929 3.0625 3.99902C3.06948 4.00539 3.07579 4.01347 3.08398 4.02051C3.23766 4.15261 3.51918 4.31681 3.95312 4.47461C4.81289 4.78716 6.06673 5 7.5 5C8.93327 5 10.1871 4.78716 11.0469 4.47461C11.4808 4.31681 11.7623 4.15261 11.916 4.02051C11.9238 4.01383 11.9298 4.00607 11.9365 4C11.9298 3.99393 11.9238 3.98617 11.916 3.97949C11.7623 3.84739 11.4808 3.68319 11.0469 3.52539C10.1871 3.21284 8.93327 3 7.5 3Z" fill="#141414"/>
</svg>
