<svg width="24" height="24" viewBox="0 0 24 24" fill="none" xmlns="http://www.w3.org/2000/svg">
<path d="M18 7C20.7614 7 23 9.23858 23 12C23 14.7614 20.7614 17 18 17H6C3.23858 17 1 14.7614 1 12C1 9.23858 3.23858 7 6 7C8.76142 7 11 9.23858 11 12C11 13.1256 10.6277 14.1643 10 15H14C13.3723 14.1643 13 13.1256 13 12C13 9.23858 15.2386 7 18 7ZM6 10.5C5.17157 10.5 4.5 11.1716 4.5 12C4.5 12.8284 5.17157 13.5 6 13.5C6.82843 13.5 7.5 12.8284 7.5 12C7.5 11.1716 6.82843 10.5 6 10.5ZM18 10.5C17.1716 10.5 16.5 11.1716 16.5 12C16.5 12.8284 17.1716 13.5 18 13.5C18.8284 13.5 19.5 12.8284 19.5 12C19.5 11.1716 18.8284 10.5 18 10.5Z" fill="#141414"/>
</svg>
