<svg width="24" height="24" viewBox="0 0 24 24" fill="none" xmlns="http://www.w3.org/2000/svg">
<path d="M12.7578 1C13.8185 1.00012 14.8359 1.42184 15.5859 2.17188L19.8281 6.41406C20.5782 7.1641 20.9999 8.18148 21 9.24219V19C21 21.2091 19.2091 23 17 23H7C4.79086 23 3 21.2091 3 19V5C3 2.79086 4.79086 1 7 1H12.7578ZM13.5 9C12.1193 9 11 10.1193 11 11.5V15H13V11.5C13 11.2239 13.2239 11 13.5 11C13.7761 11 14 11.2239 14 11.5V15C14 16.1046 13.1046 17 12 17C10.8954 17 10 16.1046 10 15V11H8V15C8 17.2091 9.79086 19 12 19C14.2091 19 16 17.2091 16 15V11.5C16 10.1193 14.8807 9 13.5 9ZM14 6C14 7.10457 14.8954 8 16 8H18.5654C18.5181 7.94042 18.4684 7.88243 18.4141 7.82812L14.1719 3.58594C14.1174 3.53148 14.0598 3.48098 14 3.43359V6Z" fill="#141414"/>
</svg>
