<svg width="24" height="24" viewBox="0 0 24 24" fill="none" xmlns="http://www.w3.org/2000/svg">
<path d="M12 1C13.7264 1 15.3629 1.39857 16.8193 2.10938C17.2444 2.31707 17.4656 2.79422 17.3496 3.25293C17.2335 3.71181 16.8118 4.02647 16.3389 4.00684C16.2266 4.00217 16.1136 4 16 4C11.5817 4 8 7.58172 8 12C8 16.4183 11.5817 20 16 20C16.1135 20 16.2266 19.9978 16.3389 19.9932C16.8118 19.9735 17.2335 20.2882 17.3496 20.7471C17.4656 21.2058 17.2444 21.6829 16.8193 21.8906C15.3629 22.6014 13.7264 23 12 23C5.92487 23 1 18.0751 1 12C1 5.92487 5.92487 1 12 1ZM19.7002 4.14453C21.7354 6.13978 23 8.92313 23 12C23 14.789 21.9609 17.3379 20.25 19.2764L18.75 17.9531C20.1509 16.366 21 14.2832 21 12C21 9.48214 19.9672 7.20686 18.2998 5.57227L19.7002 4.14453Z" fill="#141414"/>
</svg>
