<svg width="24" height="24" viewBox="0 0 24 24" fill="none" xmlns="http://www.w3.org/2000/svg">
<path d="M12 1.5C18.0262 1.5 23 6.1533 23 12C23 17.8467 18.0262 22.5 12 22.5C10.3748 22.5 8.82885 22.1623 7.43652 21.5557L3.52832 22.5674C2.45279 22.8454 1.45829 21.8983 1.68359 20.8105L2.43457 17.1875C1.52303 15.6588 1 13.8877 1 12C1 6.1533 5.97382 1.5 12 1.5ZM12 13.5C11.1716 13.5 10.5 14.1716 10.5 15C10.5 15.8284 11.1716 16.5 12 16.5C12.8284 16.5 13.5 15.8284 13.5 15C13.5 14.1716 12.8284 13.5 12 13.5ZM11 8V12H13V8H11Z" fill="#141414"/>
</svg>
