<svg width="24" height="24" viewBox="0 0 24 24" fill="none" xmlns="http://www.w3.org/2000/svg">
<path d="M22.707 21.293L21.293 22.707L18.7568 20.1709C19.3179 19.7993 19.7993 19.3179 20.1709 18.7568L22.707 21.293ZM7.5 2C8.82987 2 10.0483 2.47437 10.998 3.25879C11.4682 3.09204 11.9737 3 12.5 3C14.4818 3 16.1623 4.28086 16.7627 6.05957C17.0031 6.02008 17.2495 6 17.5 6C19.9853 6 22 8.01472 22 10.5C22 11.8287 21.4218 13.0186 20.5088 13.8408C20.8227 14.4944 21 15.2267 21 16C21 17.0191 20.6944 17.9664 20.1709 18.7568L16.4961 15.082L16.9951 10.0996L15.0049 9.90039L14.6689 13.2549L8.70703 7.29297L7.29297 8.70703L10.0439 11.458L7.75781 12.0303L8.24219 13.9697L11.6924 13.1064L18.7568 20.1709C17.9664 20.6944 17.0191 21 16 21C15.2267 21 14.4944 20.8227 13.8408 20.5088C13.0186 21.4218 11.8287 22 10.5 22C8.01472 22 6 19.9853 6 17.5C6 17.2495 6.02008 17.0031 6.05957 16.7627C4.28086 16.1623 3 14.4818 3 12.5C3 11.9737 3.09204 11.4682 3.25879 10.998C2.47437 10.0483 2 8.82987 2 7.5C2 4.46243 4.46243 2 7.5 2Z" fill="#141414"/>
</svg>
