<svg width="24" height="24" viewBox="0 0 24 24" fill="none" xmlns="http://www.w3.org/2000/svg">
<path d="M9 22H6V20H9V22ZM20 2C21.6569 2 23 3.34315 23 5V19C23 20.6569 21.6569 22 20 22H14C12.3431 22 11 20.6569 11 19V5C11 3.34315 12.3431 2 14 2H20ZM9 13H3V14C3 15.1046 3.89543 16 5 16H9V18H5C2.79086 18 1 16.2091 1 14V8C1 5.79086 2.79086 4 5 4H9V13ZM17 14C15.8954 14 15 14.8954 15 16C15 17.1046 15.8954 18 17 18C18.1046 18 19 17.1046 19 16C19 14.8954 18.1046 14 17 14ZM17 7C16.4477 7 16 7.44772 16 8C16 8.55228 16.4477 9 17 9C17.5523 9 18 8.55228 18 8C18 7.44772 17.5523 7 17 7Z" fill="#141414"/>
</svg>
