<svg width="24" height="24" viewBox="0 0 24 24" fill="none" xmlns="http://www.w3.org/2000/svg">
<path d="M17 1C19.2091 1 21 2.79086 21 5V19C21 21.2091 19.2091 23 17 23H7C4.79086 23 3 21.2091 3 19V5C3 2.79086 4.79086 1 7 1H17ZM12.0254 12.0605L10.0508 10.0859L8.63672 11.5L10.6113 13.4746L8.63672 15.5L10.0508 16.9141L12.0254 14.8887L14 16.9141L15.4141 15.5L13.4395 13.4746L15.4141 11.5L14 10.0859L12.0254 12.0605ZM8 4C8 5.10457 8.89543 6 10 6H13.9824C15.0798 5.99976 15.9716 5.11495 15.9814 4.01758L15.9912 3H8V4Z" fill="#141414"/>
</svg>
