<svg width="24" height="24" viewBox="0 0 24 24" fill="none" xmlns="http://www.w3.org/2000/svg">
<path d="M12 1C12.948 1 13.8693 1.12027 14.749 1.34668C19.4932 2.56774 23 6.87307 23 12C23 18.0751 18.0751 23 12 23C5.92487 23 1 18.0751 1 12C1 10.2808 1.39529 8.65113 2.10059 7.19922C3.88222 3.53181 7.64449 1 12 1ZM12.8545 13.3418C12.3716 13.1486 11.8215 13.3581 11.5889 13.8232L11.1855 14.6299C11.0671 14.8669 11.0472 15.1411 11.1309 15.3926L11.7725 17.3164C11.9086 17.7246 12.2904 18 12.7207 18H14.4648C14.7992 18 15.1114 17.8329 15.2969 17.5547L16.3164 16.0254C16.6687 15.4969 16.4452 14.7779 15.8555 14.542L12.8545 13.3418ZM12 3C8.74733 3 5.89628 4.72554 4.31445 7.31445L6.98145 9.10938C7.42314 9.40656 8.02041 9.30575 8.33984 8.87988L8.7002 8.40039C8.80256 8.2639 8.93784 8.15523 9.09375 8.08594L12.54 6.55469C12.8661 6.40971 13.09 6.10187 13.1279 5.74707L13.4092 3.10938C12.9505 3.03732 12.4799 3 12 3Z" fill="#141414"/>
</svg>
