<svg width="24" height="24" viewBox="0 0 24 24" fill="none" xmlns="http://www.w3.org/2000/svg">
<path d="M8 9C11.866 9 15 12.134 15 16C15 19.866 11.866 23 8 23C4.13401 23 1 19.866 1 16C1 12.134 4.13401 9 8 9ZM22.8682 17.6924C22.0885 19.0544 20.8792 20.1474 19.4229 20.8018L20.0605 21.0879L19.2412 22.9121L15.8467 21.3887C15.5823 21.2699 15.3824 21.0422 15.2988 20.7646C15.2153 20.4869 15.2569 20.1864 15.4121 19.9414L17.3418 16.8936L19.0322 17.9639L18.3135 19.0977C19.519 18.635 20.514 17.7786 21.1318 16.6992L22.8682 17.6924ZM16 1C19.866 1 23 4.13401 23 8C23 11.549 20.3585 14.4786 16.9346 14.9355C16.449 10.8157 13.1835 7.54958 9.06348 7.06445C9.52083 3.64089 12.4513 1 16 1ZM8.35938 2.87988C8.59688 3.01443 8.76903 3.24025 8.83594 3.50488C8.90277 3.76946 8.85883 4.05007 8.71387 4.28125L6.7832 7.35742L5.08887 6.29395L5.82422 5.12305C4.54207 5.61105 3.4968 6.54398 2.8877 7.7168L1.1123 6.79492C1.93577 5.20935 3.32802 3.95778 5.02246 3.28809L4.28516 2.87012L5.27051 1.12988L8.35938 2.87988Z" fill="#141414"/>
</svg>
