<svg width="24" height="24" viewBox="0 0 24 24" fill="none" xmlns="http://www.w3.org/2000/svg">
<path fill-rule="evenodd" clip-rule="evenodd" d="M15.0781 2C16.2777 2 17.4141 2.53846 18.1738 3.4668L21.0957 7.03809C21.6804 7.75273 22 8.64793 22 9.57129V18C22 20.2091 20.2091 22 18 22H6C3.79086 22 2 20.2091 2 18V6C2 3.79086 3.79086 2 6 2H15.0781ZM9 13C7.89543 13 7 13.8954 7 15V20H17V15C17 13.8954 16.1046 13 15 13H9ZM13 4V7H8V4H6V7C6 8.10457 6.89543 9 8 9H13C14.1046 9 15 8.10457 15 7V4H13Z" fill="#141414"/>
</svg>
