<svg width="24" height="24" viewBox="0 0 24 24" fill="none" xmlns="http://www.w3.org/2000/svg">
<path d="M19 15C21.2091 15 23 16.7909 23 19C23 21.2091 21.2091 23 19 23C16.7909 23 15 21.2091 15 19C15 16.7909 16.7909 15 19 15ZM15.0576 4C17.7539 4.00019 19.0812 7.28111 17.1436 9.15625L8.74707 17.2812C8.10122 17.9063 8.54372 18.9998 9.44238 19H13V21H9.44238C6.74605 20.9998 5.4188 17.7189 7.35645 15.8438L15.7529 7.71875C16.3988 7.09374 15.9563 6.00019 15.0576 6H11V4H15.0576ZM5 1C7.20914 1 9 2.79086 9 5C9 7.20914 7.20914 9 5 9C2.79086 9 1 7.20914 1 5C1 2.79086 2.79086 1 5 1Z" fill="#141414"/>
</svg>
