<svg width="24" height="24" viewBox="0 0 24 24" fill="none" xmlns="http://www.w3.org/2000/svg">
<path d="M12 1C18.0751 1 23 5.92487 23 12C23 18.0751 18.0751 23 12 23C5.92487 23 1 18.0751 1 12C1 5.92487 5.92487 1 12 1ZM13.793 11.707L16.0859 14L13.793 16.293L15.207 17.707L18.207 14.707C18.5976 14.3165 18.5976 13.6835 18.207 13.293L15.207 10.293L13.793 11.707ZM5.79297 9.29297C5.40244 9.68349 5.40244 10.3165 5.79297 10.707L8.79297 13.707L10.207 12.293L7.91406 10L10.207 7.70703L8.79297 6.29297L5.79297 9.29297Z" fill="#141414"/>
</svg>
