<svg width="24" height="24" viewBox="0 0 24 24" fill="none" xmlns="http://www.w3.org/2000/svg">
<path d="M6.5 12C6.95887 12 7.35843 12.3126 7.46973 12.7578L7.78809 14.0293C8.05683 15.104 8.89599 15.9432 9.9707 16.2119L11.2422 16.5303C11.6874 16.6416 12 17.0411 12 17.5C12 17.9589 11.6874 18.3584 11.2422 18.4697L9.9707 18.7881C8.89599 19.0568 8.05683 19.896 7.78809 20.9707L7.46973 22.2422C7.35844 22.6874 6.95887 23 6.5 23C6.04113 23 5.64157 22.6874 5.53027 22.2422L5.21191 20.9707C4.94317 19.896 4.10401 19.0568 3.0293 18.7881L1.75781 18.4697C1.31265 18.3584 1 17.9589 1 17.5C1 17.0411 1.31265 16.6416 1.75781 16.5303L3.0293 16.2119C4.10401 15.9432 4.94317 15.104 5.21191 14.0293L5.53027 12.7578C5.64157 12.3126 6.04113 12 6.5 12ZM14 1C14.4589 1 14.8584 1.31265 14.9697 1.75781L15.9883 5.8291C16.257 6.90393 17.0961 7.743 18.1709 8.01172L22.2422 9.03027C22.6874 9.14157 23 9.54113 23 10C23 10.4589 22.6874 10.8584 22.2422 10.9697L18.1709 11.9883C17.0961 12.257 16.257 13.0961 15.9883 14.1709L14.9697 18.2422C14.8584 18.6874 14.4589 19 14 19C13.5411 19 13.1416 18.6874 13.0303 18.2422L12.0117 14.1709C11.743 13.0961 10.9039 12.257 9.8291 11.9883L5.75781 10.9697C5.31265 10.8584 5 10.4589 5 10C5 9.54113 5.31265 9.14157 5.75781 9.03027L9.8291 8.01172C10.9039 7.743 11.743 6.90393 12.0117 5.8291L13.0303 1.75781C13.1416 1.31265 13.5411 1 14 1Z" fill="#141414"/>
</svg>
