<svg width="24" height="24" viewBox="0 0 24 24" fill="none" xmlns="http://www.w3.org/2000/svg">
<path d="M19 3C21.2091 3 23 4.79086 23 7V17C23 19.2091 21.2091 21 19 21H5C2.79086 21 1 19.2091 1 17V7C1 4.79086 2.79086 3 5 3H19ZM11.1279 7.85254C10.6043 7.93806 10.12 8.19281 9.74707 8.5791C9.28325 9.05954 9.02832 9.70484 9.02832 10.3711C9.02832 11.0374 9.28325 11.6827 9.74707 12.1631C10.212 12.6446 10.8499 12.9209 11.5215 12.9209H12.5352C12.7086 12.9209 12.882 12.9925 13.0146 13.1299C13.148 13.2682 13.2285 13.4623 13.2285 13.6709C13.2285 13.8797 13.1482 14.0745 13.0146 14.2129C12.882 14.3502 12.7086 14.4209 12.5352 14.4209H9.29492V16.2207H11.1279V17H12.9287V16.1895C13.4523 16.1039 13.9366 15.8492 14.3096 15.4629C14.7733 14.9825 15.0283 14.3371 15.0283 13.6709C15.0283 13.0047 14.7734 12.3593 14.3096 11.8789C13.8447 11.3974 13.2068 11.1211 12.5352 11.1211H11.5215C11.3481 11.1211 11.1746 11.0504 11.042 10.9131C10.9083 10.7747 10.8281 10.58 10.8281 10.3711C10.8281 10.1622 10.9083 9.96752 11.042 9.8291C11.1746 9.69178 11.3481 9.62109 11.5215 9.62109H14.2949V7.82129H12.9287V6.96191H11.1279V7.85254ZM4.5 12.9004H7V11.0996H4.5V12.9004ZM17 12.9004H19.5V11.0996H17V12.9004Z" fill="#141414"/>
</svg>
