<svg width="24" height="24" viewBox="0 0 24 24" fill="none" xmlns="http://www.w3.org/2000/svg">
<path d="M8.96106 1C10.2169 1.00004 11.3496 1.6487 12.0001 2.66211C12.6505 1.64868 13.7834 1.00017 15.0392 1H15.1925C17.3913 1.00016 18.9644 2.96133 18.671 5H19.382C20.8687 5 21.8359 6.56473 21.171 7.89453L20.1398 9.95605L22.1876 13.3691C22.7572 14.3185 22.9078 15.4618 22.6036 16.5264L21.3761 20.8242C21.0541 21.9511 20.1123 22.7715 18.9845 22.959C18.8235 22.9857 18.6586 23 18.4913 23H5.50891C5.17417 23 4.84943 22.9441 4.54504 22.8408C4.39289 22.7892 4.24539 22.726 4.10461 22.6514C4.03409 22.614 3.96477 22.574 3.89758 22.5312C3.69621 22.403 3.51061 22.2506 3.34484 22.0781C3.23442 21.9632 3.13259 21.8392 3.04113 21.707C2.85828 21.4429 2.71607 21.1459 2.62414 20.8242L1.3966 16.5264C1.26354 16.0606 1.21694 15.5796 1.255 15.1064C1.27129 14.9039 1.30383 14.7028 1.3507 14.5049C1.38198 14.3728 1.41927 14.2419 1.46398 14.1133C1.53101 13.9205 1.61326 13.732 1.71008 13.5498C1.74246 13.4889 1.77694 13.4286 1.81262 13.3691L3.85949 9.95605L2.82922 7.89453C2.78763 7.81132 2.75186 7.72719 2.72277 7.64258C2.66476 7.4738 2.63173 7.30287 2.62023 7.13379C2.59148 6.71029 2.70159 6.29674 2.91711 5.94824C3.04622 5.73946 3.213 5.55361 3.41027 5.40332C3.47611 5.35318 3.54594 5.3075 3.61828 5.26562C3.7991 5.16098 3.99945 5.08341 4.21496 5.04004C4.34409 5.01407 4.47913 5.00003 4.61828 5H5.32922C5.03589 2.96146 6.60918 1.00037 8.80774 1H8.96106ZM5.89465 9.55273C6.04755 9.85854 6.03345 10.2215 5.85754 10.5146L4.96594 12H19.0343L18.1427 10.5146C17.9669 10.2215 17.9528 9.85848 18.1056 9.55273L18.382 9H5.61828L5.89465 9.55273ZM8.80774 3C7.76154 3.00041 7.04652 4.0321 7.38098 5H10.7198L10.5245 4.2207C10.3451 3.50336 9.70051 3.00006 8.96106 3H8.80774ZM15.0392 3C14.2999 3.00022 13.6551 3.50344 13.4757 4.2207L13.2804 5H16.6193C16.9539 4.03195 16.2389 3.00018 15.1925 3H15.0392Z" fill="#141414"/>
</svg>
