<svg width="24" height="24" viewBox="0 0 24 24" fill="none" xmlns="http://www.w3.org/2000/svg">
<path d="M21.8994 21.2129L20.4854 22.627L18.6318 20.7734C18.1131 20.9203 17.566 21 17 21H7C3.68632 21 1.00005 18.3137 1 15C1.00005 12.3749 2.68509 10.1447 5.03223 9.33008C5.09032 8.71839 5.2273 8.12974 5.43262 7.57422L2.68652 4.82812L4.10059 3.41406L21.8994 21.2129ZM12 3C15.6399 3 18.6294 5.77848 18.9668 9.33008C21.3144 10.1444 22.9999 12.3745 23 15C23 16.2698 22.6037 17.4463 21.9307 18.416L7.86621 4.35156C9.02458 3.50225 10.4535 3 12 3Z" fill="#141414"/>
</svg>
