<svg width="24" height="24" viewBox="0 0 24 24" fill="none" xmlns="http://www.w3.org/2000/svg">
<path d="M9.99609 1.00476C11.2357 0.28715 12.7643 0.287149 14.0039 1.00476L20.5039 4.76746C21.7391 5.48258 22.4999 6.80209 22.5 8.22937V15.7704C22.4999 17.1977 21.7391 18.5172 20.5039 19.2323L14.0039 22.995C12.7643 23.7126 11.2357 23.7126 9.99609 22.995L3.49609 19.2323C2.26088 18.5172 1.50006 17.1977 1.5 15.7704V8.22937C1.50006 6.80209 2.26088 5.48258 3.49609 4.76746L9.99609 1.00476ZM11 10.9999V17.4999H13V10.9999H11ZM12 6.49988C11.1717 6.49988 10.5001 7.17157 10.5 7.99988C10.5 8.82831 11.1716 9.49988 12 9.49988C12.8284 9.49988 13.5 8.82831 13.5 7.99988C13.4999 7.17157 12.8283 6.49988 12 6.49988Z" fill="#141414"/>
</svg>
