<svg width="24" height="24" viewBox="0 0 24 24" fill="none" xmlns="http://www.w3.org/2000/svg">
<path d="M16.7832 1.01465C17.1739 1.08237 17.4943 1.37846 17.5859 1.77539L18.2148 4.5L21.9746 20.7754C22.052 21.1113 21.9508 21.4633 21.707 21.707C21.5547 21.8594 21.3599 21.9561 21.1533 21.9883C21.0709 22.0011 20.9866 22.0034 20.9023 21.9951C20.8599 21.991 20.8175 21.9843 20.7754 21.9746L3.56738 18L1.77539 17.5859C1.32187 17.4812 1.00018 17.0777 1 16.6123C1 7.99009 7.99009 1 16.6123 1L16.7832 1.01465ZM17.5 15C16.6716 15 16 15.6716 16 16.5C16 17.3284 16.6716 18 17.5 18C18.2567 18 18.8808 17.4394 18.9834 16.7109L18.7393 15.6543C18.4691 15.2592 18.0148 15 17.5 15ZM12.5 14C11.6716 14 11 14.6716 11 15.5C11 16.3284 11.6716 17 12.5 17C13.3284 17 14 16.3284 14 15.5C14 14.6716 13.3284 14 12.5 14ZM16.1904 4.62012C10.1821 5.42501 5.42501 10.1821 4.62012 16.1904L7.56152 16.8691C8.08582 11.9736 11.9736 8.08582 16.8691 7.56152L16.1904 4.62012ZM15.5 10C14.6716 10 14 10.6716 14 11.5C14 12.3284 14.6716 13 15.5 13C16.3284 13 17 12.3284 17 11.5C17 10.6716 16.3284 10 15.5 10Z" fill="#141414"/>
</svg>
