<svg width="24" height="24" viewBox="0 0 24 24" fill="none" xmlns="http://www.w3.org/2000/svg">
<path d="M9.99609 1.00486C11.2357 0.287281 12.7643 0.28728 14.0039 1.00486L20.5039 4.76756C21.7391 5.48267 22.4999 6.80224 22.5 8.22948V15.7705C22.4999 17.1978 21.7391 18.5173 20.5039 19.2324L14.0039 22.9951C12.7643 23.7127 11.2357 23.7127 9.99609 22.9951L3.49609 19.2324C2.26091 18.5173 1.50006 17.1978 1.5 15.7705V8.22948C1.5001 6.80224 2.26091 5.48267 3.49609 4.76756L9.99609 1.00486ZM17.501 9.97069L14.0039 11.9951C13.6852 12.1796 13.3471 12.3156 13 12.4053V21.2656L13.002 21.2647L19.502 17.501C20.1195 17.1434 20.4999 16.4841 20.5 15.7705V8.23338L17.501 9.97069ZM4.49805 6.49901H4.49609L10.998 10.2637C11.6179 10.6225 12.3821 10.6225 13.002 10.2637L15.002 9.10545L7.4873 4.76756L4.49805 6.49901ZM13.002 2.73533C12.3822 2.37668 11.6178 2.37667 10.998 2.73533L9.48438 3.61131L16.998 7.9492L19.502 6.49901L13.002 2.73533Z" fill="#141414"/>
</svg>
