<svg width="24" height="24" viewBox="0 0 24 24" fill="none" xmlns="http://www.w3.org/2000/svg">
<path d="M11.293 12.293C11.6835 11.9025 12.3165 11.9025 12.707 12.293L16.207 15.793L14.793 17.207L13 15.4141V22H11V15.4141L9.20703 17.207L7.79297 15.793L11.293 12.293ZM12 1C14.6782 1.00003 16.9887 2.52632 18.2207 4.75195C20.9477 5.08138 23 7.50661 23 10.3574C22.9999 12.9857 21.2551 15.25 18.8457 15.8457L13.4141 10.4141C12.6331 9.63321 11.3669 9.63321 10.5859 10.4141L5.15332 15.8457C2.74443 15.2496 1.00012 12.9854 1 10.3574C1 7.50661 3.05233 5.08138 5.7793 4.75195C7.01125 2.52632 9.32174 1 12 1Z" fill="#141414"/>
</svg>
