<svg width="24" height="24" viewBox="0 0 24 24" fill="none" xmlns="http://www.w3.org/2000/svg">
<g clip-path="url(#clip0_1487_3749)">
<path d="M4 20H6V22H4V24H2V22H0V20H2V18H4V20ZM17.6973 0.628906C17.9623 0.629003 18.2169 0.734497 18.4043 0.921875L23.1367 5.6543C23.5269 6.04478 23.527 6.67791 23.1367 7.06836L21.7021 8.50195C21.943 11.2509 20.9595 13.9779 18.9961 15.9414L18.0352 16.9023C17.7207 17.2165 17.3019 17.4069 16.8584 17.4365L8.2998 18.0068C8.0531 18.0232 7.80997 17.9464 7.61719 17.7959L12.4834 12.9297C12.6483 12.9737 12.8212 13 13 13C14.1044 12.9998 15 12.1044 15 11C15 9.89555 14.1044 9.0002 13 9C11.8956 9.0002 11 9.89555 11 11C11 11.1785 11.0255 11.351 11.0693 11.5156L6.21289 16.3721C6.09546 16.1922 6.03745 15.9776 6.05176 15.7598L6.62305 7.2002L6.6416 7.03516C6.70196 6.65363 6.88125 6.29866 7.15625 6.02344L8.11719 5.0625C10.0793 3.10063 12.8049 2.11602 15.5547 2.35645L16.9902 0.921875C17.1776 0.734577 17.4323 0.629046 17.6973 0.628906Z" fill="#141414"/>
</g>
<defs>
<clipPath id="clip0_1487_3749">
<rect width="24" height="24" fill="white"/>
</clipPath>
</defs>
</svg>
