<svg width="24" height="24" viewBox="0 0 24 24" fill="none" xmlns="http://www.w3.org/2000/svg">
<path d="M18.002 7C19.3413 7 20.5914 7.51996 21.541 8.45996C22.4805 9.39994 23 10.6601 23 12C23 13.3399 22.4805 14.5901 21.541 15.54C20.6014 16.48 19.3413 17 18.002 17H17.9922C16.6529 17 15.4036 16.4799 14.4541 15.54C13.5545 14.64 13.0341 13.4497 12.9941 12.1797C12.3446 11.9499 11.6349 11.9497 10.9854 12.1797C10.9454 13.4496 10.4259 14.6401 9.52637 15.54C7.57725 17.49 4.4081 17.49 2.45898 15.54C1.51951 14.6001 1 13.3399 1 12C1 10.6601 1.51951 9.40994 2.45898 8.45996C4.40809 6.50997 7.58702 6.51997 9.53613 8.45996C10.0358 8.95986 10.4154 9.53984 10.6553 10.1797C11.5247 9.93973 12.4545 9.93981 13.334 10.1797C13.5839 9.53974 13.9641 8.95993 14.4639 8.45996C15.4034 7.52004 16.6627 7.00008 18.002 7Z" fill="#141414"/>
</svg>
