<svg width="24" height="24" viewBox="0 0 24 24" fill="none" xmlns="http://www.w3.org/2000/svg">
<path fill-rule="evenodd" clip-rule="evenodd" d="M12 1C18.0751 1 23 5.92487 23 12C23 18.0751 18.0751 23 12 23C5.92487 23 1 18.0751 1 12C1 5.92487 5.92487 1 12 1ZM4.96875 6.38281C3.73712 7.92249 3 9.87498 3 12C3 14.1247 3.7374 16.0766 4.96875 17.6162L7.46875 15.1162C6.85833 14.2303 6.5 13.1572 6.5 12C6.5 10.8425 6.85805 9.76885 7.46875 8.88281L4.96875 6.38281ZM16.5303 8.88281C17.1412 9.76894 17.5 10.8423 17.5 12C17.5 13.1574 17.1409 14.2302 16.5303 15.1162L19.0303 17.6162C20.2619 16.0766 21 14.125 21 12C21 9.87476 20.2621 7.92256 19.0303 6.38281L16.5303 8.88281ZM12 8.5C10.067 8.5 8.5 10.067 8.5 12C8.5 13.933 10.067 15.5 12 15.5C13.933 15.5 15.5 13.933 15.5 12C15.5 10.067 13.933 8.5 12 8.5Z" fill="#141414"/>
</svg>
