<svg width="24" height="24" viewBox="0 0 24 24" fill="none" xmlns="http://www.w3.org/2000/svg">
<path d="M21 3H19V4.6582C19 6.43885 18.2088 8.12763 16.8408 9.26758L13.5625 12L16.8408 14.7324C18.2088 15.8724 19 17.5611 19 19.3418V21H21V23H3V21H5V19.3418C5.00002 17.5611 5.79124 15.8724 7.15918 14.7324L10.4375 12L7.15918 9.26758C5.79124 8.12763 5.00002 6.43885 5 4.6582V3H3V1H21V3ZM7 4.6582C7.00002 5.84529 7.5275 6.97149 8.43945 7.73145L12 10.6982L15.5605 7.73145C16.4725 6.97149 17 5.84529 17 4.6582V3H7V4.6582ZM15 5.53125C15 5.82791 14.8684 6.10981 14.6406 6.2998L12 8.5L9.35938 6.2998C9.13155 6.10981 9 5.82791 9 5.53125V5H15V5.53125Z" fill="#141414"/>
</svg>
