<svg width="24" height="24" viewBox="0 0 24 24" fill="none" xmlns="http://www.w3.org/2000/svg">
<path d="M14.2041 2.01074C15.2128 2.113 16 2.96435 16 4V8H20C21.1046 8 22 8.89543 22 10V14L21.9893 14.2041C21.8938 15.1457 21.1457 15.8938 20.2041 15.9893L20 16H16V20L15.9893 20.2041C15.8938 21.1457 15.1457 21.8938 14.2041 21.9893L14 22H10C8.89543 22 8 21.1046 8 20V16H4C2.96435 16 2.11301 15.2128 2.01074 14.2041L2 14V10C2 8.89543 2.89543 8 4 8H8V4C8 2.89543 8.89543 2 10 2H14L14.2041 2.01074Z" fill="#141414"/>
</svg>
