<svg width="24" height="24" viewBox="0 0 24 24" fill="none" xmlns="http://www.w3.org/2000/svg">
<path d="M11.0511 1.33072C11.6664 1.12572 12.3322 1.1258 12.9476 1.33072L19.8245 3.62369C21.1371 4.06134 21.9804 5.33958 21.8655 6.71843L21.3284 13.1569C21.0924 15.9851 19.5367 18.5375 17.1302 20.0417L12.5296 22.9167C12.2054 23.1188 11.793 23.1192 11.469 22.9167L6.86846 20.0417C4.46192 18.5375 2.90615 15.9851 2.67022 13.1569L2.13311 6.71843C2.01825 5.33988 2.86204 4.06161 4.17412 3.62369L11.0511 1.33072ZM11.4993 12.0866L9.20634 9.79363L7.79228 11.2077L10.7923 14.2077C11.1826 14.5979 11.8158 14.5975 12.2063 14.2077L16.7063 9.70769L15.2923 8.29363L11.4993 12.0866Z" fill="#141414"/>
</svg>
