<svg width="24" height="24" viewBox="0 0 24 24" fill="none" xmlns="http://www.w3.org/2000/svg">
<path d="M4 7H14.126C14.57 5.27477 16.1362 4 18 4C20.2091 4 22 5.79086 22 8C22 10.2091 20.2091 12 18 12C16.1362 12 14.57 10.7252 14.126 9H4V13.2002C4 14.0566 4.00035 14.6388 4.03711 15.0889C4.07293 15.5273 4.13808 15.7518 4.21777 15.9082C4.40951 16.2845 4.71555 16.5905 5.0918 16.7822C5.2482 16.8619 5.47272 16.9271 5.91113 16.9629C6.36117 16.9997 6.94342 17 7.79981 17H14.126C14.57 15.2748 16.1362 14 18 14C20.2091 14 22 15.7909 22 18C22 20.2091 20.2091 22 18 22C16.1362 22 14.57 20.7252 14.126 19H7.75879C6.95383 19 6.28924 19.0003 5.74805 18.9561C5.18599 18.9101 4.6689 18.8117 4.18359 18.5645C3.43109 18.181 2.81902 17.5689 2.43555 16.8164C2.18827 16.3311 2.08987 15.814 2.04395 15.252C1.99973 14.7108 1.99999 14.0462 2 13.2412V2H4V7ZM18 17C17.4477 17 17 17.4477 17 18C17 18.5523 17.4477 19 18 19C18.5523 19 19 18.5523 19 18C19 17.4477 18.5523 17 18 17ZM18 7C17.4477 7 17 7.44772 17 8C17 8.55228 17.4477 9 18 9C18.5523 9 19 8.55228 19 8C19 7.44772 18.5523 7 18 7Z" fill="#141414"/>
</svg>
