<svg width="24" height="24" viewBox="0 0 24 24" fill="none" xmlns="http://www.w3.org/2000/svg">
<path d="M6.09083 2.93849C7.96272 1.0671 10.9688 0.979014 12.9473 2.73732L19.6856 8.72658C21.7751 10.584 21.9255 13.7776 20.0654 15.8233L21.4854 17.2422C22.6569 18.4138 22.6569 20.3138 21.4854 21.4854C20.3505 22.6202 18.5322 22.6557 17.3545 21.5918L17.2422 21.4854L15.8233 20.0655C13.7776 21.9255 10.5839 21.7751 8.72658 19.6856L2.73732 12.9473C0.979009 10.9688 1.06711 7.96273 2.93849 6.09084L6.09083 2.93849ZM17.2422 18.6563L18.6563 20.0713L18.7324 20.1397C19.1252 20.4598 19.7053 20.4373 20.0713 20.0713C20.4618 19.6808 20.4618 19.0468 20.0713 18.6563L18.6563 17.2422L17.2422 18.6563ZM11.6192 4.23244C10.4321 3.17747 8.62806 3.22989 7.5049 4.35255L4.35255 7.5049C3.2299 8.62807 3.17747 10.4321 4.23243 11.6192L5.85939 13.4492L9.02736 13.6358C9.62794 13.6709 10.1239 13.1716 10.084 12.5713L9.98537 11.1026C9.89302 9.7099 10.8109 8.44995 12.1651 8.11135C12.5303 8.01996 12.7978 7.708 12.832 7.33303L13.002 5.46095L11.6192 4.23244Z" fill="#141414"/>
</svg>
