<svg width="24" height="24" viewBox="0 0 24 24" fill="none" xmlns="http://www.w3.org/2000/svg">
<path d="M12 1C18.0174 1 22.9027 5.83175 22.9951 11.8271C22.996 11.8847 23 11.9423 23 12C23 12.1788 22.9938 12.3565 22.9854 12.5332C22.9829 12.5851 22.9788 12.6368 22.9756 12.6885C22.9687 12.8 22.9604 12.9109 22.9502 13.0215C22.9426 13.1041 22.9342 13.1865 22.9248 13.2686C22.9142 13.3604 22.9025 13.4518 22.8896 13.543C22.8795 13.6155 22.869 13.6877 22.8574 13.7598C22.84 13.8678 22.8204 13.9751 22.7998 14.082C22.7891 14.1377 22.7801 14.1936 22.7686 14.249C22.7413 14.3796 22.7105 14.5089 22.6787 14.6377C22.6039 14.9415 22.5164 15.24 22.417 15.5332C22.4048 15.5691 22.3924 15.6049 22.3799 15.6406C22.3391 15.7568 22.2965 15.872 22.252 15.9863C22.2411 16.0141 22.2298 16.0417 22.2188 16.0693C21.8953 16.8808 21.4782 17.6437 20.9805 18.3467C20.9731 18.3571 20.9655 18.3675 20.958 18.3779C19.5391 20.3673 17.4768 21.8633 15.0723 22.5615C15.0586 22.5655 15.0449 22.5693 15.0312 22.5732C14.8898 22.6137 14.7473 22.6516 14.6035 22.6865C14.5659 22.6957 14.528 22.7041 14.4902 22.7129C14.3618 22.7426 14.2327 22.7707 14.1025 22.7959C14.0542 22.8053 14.0056 22.8135 13.957 22.8223C13.8377 22.8437 13.7182 22.8653 13.5977 22.8828C13.5309 22.8926 13.4636 22.8996 13.3965 22.9082C13.2891 22.9218 13.1816 22.9358 13.0732 22.9463C12.9731 22.9561 12.8724 22.9627 12.7715 22.9697C12.6971 22.9749 12.6227 22.9817 12.5479 22.9854C12.3664 22.9944 12.1837 23 12 23C11.8156 23 11.6323 22.9944 11.4502 22.9854C11.3813 22.982 11.3127 22.9754 11.2441 22.9707C11.1367 22.9633 11.0295 22.9567 10.9229 22.9463C10.8171 22.936 10.7122 22.9215 10.6074 22.9082C10.5386 22.8994 10.4697 22.8928 10.4014 22.8828C10.2808 22.8653 10.1613 22.8437 10.042 22.8223C9.99343 22.8135 9.94483 22.8053 9.89648 22.7959C9.76993 22.7714 9.6445 22.7437 9.51953 22.7148C9.47556 22.7047 9.43146 22.6953 9.3877 22.6846C9.25152 22.6514 9.11656 22.6153 8.98242 22.5771C8.96092 22.571 8.93942 22.5649 8.91797 22.5586C6.53006 21.8627 4.47977 20.3805 3.06348 18.4092C3.04144 18.3785 3.0188 18.3483 2.99707 18.3174C2.60302 17.7569 2.26087 17.158 1.97559 16.5273C1.95732 16.487 1.93869 16.4468 1.9209 16.4062C1.87285 16.2965 1.82676 16.1858 1.78223 16.0742C1.77052 16.0449 1.75854 16.0157 1.74707 15.9863C1.70258 15.872 1.65988 15.7568 1.61914 15.6406C1.60659 15.6049 1.59422 15.5691 1.58203 15.5332C1.47966 15.2312 1.39067 14.9234 1.31445 14.6104C1.28522 14.4906 1.25671 14.3703 1.23145 14.249C1.21939 14.191 1.20938 14.1326 1.19824 14.0742C1.17827 13.9698 1.1586 13.8652 1.1416 13.7598C1.13002 13.6877 1.11955 13.6155 1.10938 13.543C1.09655 13.4518 1.08479 13.3604 1.07422 13.2686C1.06479 13.1865 1.05644 13.1041 1.04883 13.0215C1.03862 12.9109 1.03034 12.8 1.02344 12.6885C1.02024 12.6368 1.01615 12.5851 1.01367 12.5332C1.00522 12.3565 1 12.1788 1 12C1 11.9423 1.00302 11.8847 1.00391 11.8271C1.03642 9.71712 1.6628 7.75268 2.72363 6.09082C2.72796 6.08404 2.73199 6.07708 2.73633 6.07031C4.17693 3.82439 6.41034 2.13745 9.04297 1.4043C9.04844 1.40277 9.0541 1.40191 9.05957 1.40039H9.05859C9.99506 1.14109 10.981 1 12 1ZM6 17C5.54136 17 5.10703 17.1029 4.71875 17.2871C5.77219 18.7354 7.24576 19.8572 8.96191 20.4727C8.98643 20.3187 9 20.1609 9 20C9 18.3431 7.65685 17 6 17ZM18 17C16.3431 17 15 18.3431 15 20C15 20.1609 15.0126 20.3187 15.0371 20.4727C16.7534 19.8573 18.2267 18.7354 19.2803 17.2871C18.8923 17.103 18.4584 17 18 17ZM12 9C10.3431 9 9 10.3431 9 12C9 13.6569 10.3431 15 12 15C13.6569 15 15 13.6569 15 12C15 10.3431 13.6569 9 12 9ZM4.3916 7.19434C3.54063 8.53879 3.0365 10.1232 3.00391 11.8242C4.16645 11.411 5 10.3043 5 9C5 8.32084 4.77223 7.6965 4.3916 7.19434ZM19.6074 7.19336C19.2268 7.69559 19 8.3208 19 9C19 10.304 19.833 11.4107 20.9951 11.8242C20.9625 10.1227 20.4588 8.53805 19.6074 7.19336ZM12 3C11.0765 3 10.1854 3.13907 9.34668 3.39746C9.84938 4.34996 10.8481 5 12 5C13.1517 5 14.1496 4.34974 14.6523 3.39746C13.8139 3.13924 12.9232 3 12 3Z" fill="#141414"/>
</svg>
