<svg width="24" height="24" viewBox="0 0 24 24" fill="none" xmlns="http://www.w3.org/2000/svg">
<path d="M17.3881 2C19.3845 2.00019 21.0754 3.47278 21.35 5.4502L23.017 17.4502C23.3506 19.8547 21.4826 21.9997 19.0551 22H4.94573C2.51787 21.9999 0.649799 19.854 0.983815 17.4492L2.65081 5.44922C2.92571 3.47197 4.6164 2 6.61272 2H17.3881ZM7.00042 7C7.00042 9.76142 9.23899 12 12.0004 12C14.7617 11.9998 17.0004 9.76129 17.0004 7H15.0004C15.0004 8.65672 13.6571 9.99979 12.0004 10C10.3436 10 9.00041 8.65685 9.00041 7H7.00042Z" fill="#141414"/>
</svg>
