<svg width="24" height="24" viewBox="0 0 24 24" fill="none" xmlns="http://www.w3.org/2000/svg">
<path d="M18 2C20.2091 2 22 3.79086 22 6V18C22 20.2091 20.2091 22 18 22H6C3.79086 22 2 20.2091 2 18V6C2 3.79086 3.79086 2 6 2H18ZM15 9.64355C14.267 10.4747 13.1953 11 12 11C10.8047 11 9.73297 10.4747 9 9.64355C8.26703 10.4747 7.1953 11 6 11C5.27107 11 4.58854 10.8035 4 10.4629V18C4 19.1046 4.89543 20 6 20H9V17C9 15.8954 9.89543 15 11 15H13C14.1046 15 15 15.8954 15 17V20H18C19.1046 20 20 19.1046 20 18V10.4629C19.4115 10.8035 18.7289 11 18 11C16.8047 11 15.733 10.4747 15 9.64355Z" fill="#141414"/>
</svg>
