<svg width="24" height="24" viewBox="0 0 24 24" fill="none" xmlns="http://www.w3.org/2000/svg">
<path d="M9.82031 0.346287C13.0181 -0.522485 16.3148 1.3653 17.1836 4.56308L15.2529 5.0875C14.6738 2.95569 12.4765 1.69689 10.3447 2.27597C8.21287 2.85517 6.95401 5.05329 7.5332 7.18515L7.75488 7.99961H18C20.209 7.99961 21.9998 9.79065 22 11.9996V18.9996C22 21.2087 20.2091 22.9996 18 22.9996H6C3.79086 22.9996 2 21.2087 2 18.9996V11.9996C2.00021 9.89651 3.62356 8.17367 5.68555 8.01328L5.60352 7.70859C4.73497 4.51091 6.62264 1.21504 9.82031 0.346287ZM12 13.9996C10.8956 13.9996 10.0002 14.8952 10 15.9996C10 17.1042 10.8954 17.9996 12 17.9996C13.1046 17.9996 14 17.1042 14 15.9996C13.9998 14.8952 13.1044 13.9996 12 13.9996Z" fill="#141414"/>
</svg>
