<svg width="24" height="24" viewBox="0 0 24 24" fill="none" xmlns="http://www.w3.org/2000/svg">
<path d="M9.99609 1.00478C11.2357 0.287226 12.7643 0.287225 14.0039 1.00478L20.5039 4.76747C21.7391 5.48257 22.4999 6.80218 22.5 8.22939V15.7704C22.4999 17.1977 21.7391 18.5172 20.5039 19.2323L14.0039 22.995C12.7643 23.7126 11.2357 23.7126 9.99609 22.995L3.49609 19.2323C2.26093 18.5172 1.50006 17.1977 1.5 15.7704V8.22939C1.50013 6.80218 2.26093 5.48257 3.49609 4.76747L9.99609 1.00478ZM12 8.9999C10.3432 8.9999 9.00013 10.3432 9 11.9999C9 13.6568 10.3431 14.9999 12 14.9999C13.6569 14.9999 15 13.6568 15 11.9999C14.9999 10.3432 13.6568 8.9999 12 8.9999Z" fill="#141414"/>
</svg>
