<svg width="24" height="24" viewBox="0 0 24 24" fill="none" xmlns="http://www.w3.org/2000/svg">
<path d="M20.9004 19.0996H23V20.9004H20.9004V23H19.0996V20.9004H17V19.0996H19.0996V17H20.9004V19.0996ZM10.1621 4.75098C10.8548 3.13476 13.1452 3.13477 13.8379 4.75098L15.4609 8.53809L19.249 10.1621C20.8652 10.8548 20.8652 13.1452 19.249 13.8379L15.4609 15.4609L13.8379 19.249C13.1452 20.8652 10.8548 20.8652 10.1621 19.249L8.53809 15.4609L4.75098 13.8379C3.13476 13.1452 3.13477 10.8548 4.75098 10.1621L8.53809 8.53809L10.1621 4.75098ZM4.90039 3.09961H7V4.90039H4.90039V7H3.09961V4.90039H1V3.09961H3.09961V1H4.90039V3.09961Z" fill="#141414"/>
</svg>
