<svg width="24" height="24" viewBox="0 0 24 24" fill="none" xmlns="http://www.w3.org/2000/svg">
<path d="M12 4.00003H6C4.89543 4.00003 4 4.89546 4 6.00003V18C4.00006 19.1045 4.89547 20 6 20H6.57031L14.6807 11.4385C15.3622 10.7191 16.4685 10.6066 17.2803 11.1748L21.5732 14.1807C21.8405 14.3678 22 14.6737 22 15V18C21.9999 20.14 20.3194 21.8879 18.2061 21.9951L18 22H6C3.7909 22 2.00006 20.2091 2 18V6.00003C2 3.79089 3.79086 2.00003 6 2.00003H12V4.00003ZM8.5 6.00003C9.88071 6.00003 11 7.11932 11 8.50003C10.9999 9.88069 9.88068 11 8.5 11C7.11932 11 6.00006 9.88069 6 8.50003C6 7.11932 7.11929 6.00003 8.5 6.00003ZM17.793 1.293C18.1835 0.902489 18.8165 0.902501 19.207 1.293L23 5.08597L21.5859 6.50003L19.5 4.41409V9.00003H17.5V4.41409L15.4141 6.50003L14 5.08597L17.793 1.293Z" fill="#141414"/>
</svg>
