<svg width="24" height="24" viewBox="0 0 24 24" fill="none" xmlns="http://www.w3.org/2000/svg">
<path d="M12.6455 1C15.0065 1 17.3355 1.5496 19.4473 2.60547L18.5527 4.39453C17.5695 3.90291 16.5318 3.53879 15.4648 3.30566L14.6182 5H17C19.2091 5 21 6.79086 21 9V17C21 18.1046 20.552 19.1043 19.8281 19.8281C19.7853 19.871 19.741 19.9123 19.6963 19.9531L20.8682 22.0039L19.1318 22.9961L17.9277 20.8896C17.8871 20.8993 17.8468 20.9105 17.8057 20.9189C17.5454 20.9722 17.276 21 17 21H7C6.72403 21 6.45457 20.9722 6.19434 20.9189C6.15293 20.9105 6.11222 20.8994 6.07129 20.8896L4.86816 22.9961L3.13184 22.0039L4.30273 19.9531C4.25819 19.9124 4.21454 19.8708 4.17188 19.8281C3.44802 19.1043 3 18.1046 3 17V9C3 6.79086 4.79086 5 7 5H9.38184L8.53418 3.30566C7.4676 3.5388 6.43023 3.90305 5.44727 4.39453L4.55273 2.60547C6.66448 1.5496 8.99349 1 11.3545 1H12.6455ZM8.5 15C7.67157 15 7 15.6716 7 16.5C7 17.3284 7.67157 18 8.5 18C9.32843 18 10 17.3284 10 16.5C10 15.6716 9.32843 15 8.5 15ZM15.5 15C14.6716 15 14 15.6716 14 16.5C14 17.3284 14.6716 18 15.5 18C16.3284 18 17 17.3284 17 16.5C17 15.6716 16.3284 15 15.5 15ZM7 7C5.89543 7 5 7.89543 5 9V12H19V9C19 7.89543 18.1046 7 17 7H7ZM11.3545 3C11.1118 3 10.8696 3.00719 10.6279 3.02051L11.6182 5H12.3818L13.3711 3.02051C13.1298 3.00723 12.8879 3 12.6455 3H11.3545Z" fill="#141414"/>
</svg>
