<svg width="24" height="24" viewBox="0 0 24 24" fill="none" xmlns="http://www.w3.org/2000/svg">
<path d="M9.99609 1.00486C11.2357 0.287281 12.7643 0.28728 14.0039 1.00486L20.5039 4.76756C21.7391 5.48267 22.4999 6.80224 22.5 8.22948V9.99999H20.5V8.23436L17.501 9.97167L14.0039 11.9961C13.6853 12.1805 13.347 12.3157 13 12.4053V21.2656L13.002 21.2647L14.1895 20.5772L15.1914 22.3076L14.0039 22.9951C12.7643 23.7127 11.2357 23.7127 9.99609 22.9951L3.49609 19.2324C2.26091 18.5173 1.50006 17.1978 1.5 15.7705V8.22948C1.5001 6.80224 2.26091 5.48267 3.49609 4.76756L9.99609 1.00486ZM18.8828 13C21.0211 13.0002 22.7645 14.7251 22.7646 16.8652C22.7646 17.5802 22.569 18.2502 22.2295 18.8242L24 20.5859L22.5898 22.0039L20.8027 20.2256C20.2363 20.5469 19.5803 20.7304 18.8828 20.7305C16.7442 20.7305 15 19.0056 15 16.8652C15.0001 14.725 16.7443 13 18.8828 13ZM18.8828 15C17.8377 15 17.0001 15.8407 17 16.8652C17 17.8898 17.8376 18.7305 18.8828 18.7305C19.3977 18.7303 19.8622 18.5274 20.2021 18.1963C20.5514 17.856 20.7646 17.3854 20.7646 16.8652C20.7645 15.8409 19.9277 15.0002 18.8828 15ZM4.49805 6.49901L4.49512 6.49998L10.998 10.2646C11.6178 10.6234 12.3822 10.6234 13.002 10.2646L15.002 9.10643L7.48633 4.76756L4.49805 6.49901ZM13.002 2.73533C12.3822 2.37667 11.6178 2.37667 10.998 2.73533L9.4834 3.61131L16.998 7.95018L19.5029 6.49998L19.502 6.49901L13.002 2.73533Z" fill="#141414"/>
</svg>
