<svg width="24" height="24" viewBox="0 0 24 24" fill="none" xmlns="http://www.w3.org/2000/svg">
<path d="M9.1335 1.38516C9.8126 1.02376 10.6673 1.21521 11.1237 1.85391C12.4237 3.67367 14.2678 5.03519 16.3894 5.7426L16.9509 5.9301C17.4902 6.11008 17.8963 6.55601 18.0271 7.10393L18.0495 7.21526L18.2351 8.32952L13.7409 9.5346L14.2585 11.4662L18.5651 10.3119L18.8356 11.937L14.7409 13.0346L15.2585 14.9663L19.1657 13.9184L19.3532 15.0434C21.4143 15.3366 22.9997 17.1084 22.9997 19.2505V21.5005C22.9994 22.3285 22.3277 23.0002 21.4997 23.0005H14.4021C14.3949 23.0005 14.3877 22.9996 14.3806 22.9995H1.49971V20.9995H11.5134L1.39326 11.2846C0.710772 10.6292 0.581429 9.58422 1.08271 8.78167L2.73017 6.14397L9.29268 12.7065L10.7067 11.2924L4.12666 4.71232L9.00068 1.46426L9.1335 1.38516Z" fill="#141414"/>
</svg>
