<svg width="24" height="24" viewBox="0 0 24 24" fill="none" xmlns="http://www.w3.org/2000/svg">
<path d="M18 2C20.2091 2 22 3.79086 22 6V18C22 20.2091 20.2091 22 18 22H6C3.79086 22 2 20.2091 2 18V6C2 3.79086 3.79086 2 6 2H18ZM12.3838 6.38867C12.4102 6.06704 11.9801 5.93646 11.8232 6.21875L7.87598 13.3223C7.71819 13.6063 7.9476 13.9499 8.27051 13.9141L12 13.5L11.6104 17.7891C11.5823 18.1009 11.991 18.2415 12.1611 17.9785L16.5479 11.1982C16.73 10.9168 16.5064 10.5498 16.1729 10.583L12 11L12.3838 6.38867Z" fill="#141414"/>
</svg>
