<svg width="24" height="24" viewBox="0 0 24 24" fill="none" xmlns="http://www.w3.org/2000/svg">
<path d="M12 1C18.0751 1 23 5.92487 23 12C23 18.0751 18.0751 23 12 23C5.92487 23 1 18.0751 1 12C1 5.92487 5.92487 1 12 1ZM9.53516 17.2373L11.4648 17.7627L14.4648 6.7627L12.5352 6.2373L9.53516 17.2373ZM4.79297 11.293C4.40245 11.6835 4.40245 12.3165 4.79297 12.707L7.79297 15.707L9.20703 14.293L6.91406 12L9.20703 9.70703L7.79297 8.29297L4.79297 11.293ZM14.793 9.70703L17.0859 12L14.793 14.293L16.207 15.707L19.207 12.707C19.5976 12.3165 19.5976 11.6835 19.207 11.293L16.207 8.29297L14.793 9.70703Z" fill="#141414"/>
</svg>
