<svg width="24" height="24" viewBox="0 0 24 24" fill="none" xmlns="http://www.w3.org/2000/svg">
<path d="M13 19.5859L15.5254 17.0596L16.9404 18.4746L12.707 22.707C12.3165 23.0976 11.6835 23.0976 11.293 22.707L7.06055 18.4746L8.47461 17.0596L11 19.5859V13H13V19.5859Z" fill="#141414"/>
<path d="M12 1C14.6782 1.00003 16.9887 2.52632 18.2207 4.75195C20.9477 5.08138 23 7.50661 23 10.3574C22.9999 13.4255 20.6229 15.9998 17.5859 16H15V13C15 11.8954 14.1046 11 13 11H11C9.89543 11 9 11.8954 9 13V16H6.41406C3.37709 15.9998 1.00014 13.4255 1 10.3574C1 7.50661 3.05233 5.08138 5.7793 4.75195C7.01125 2.52632 9.32174 1 12 1Z" fill="#141414"/>
</svg>
