<svg width="24" height="24" viewBox="0 0 24 24" fill="none" xmlns="http://www.w3.org/2000/svg">
<path d="M6 2C8.20914 2 10 3.79086 10 6C10 7.86384 8.72523 9.42998 7 9.87402V22H5V9.87402C3.27477 9.42998 2 7.86384 2 6C2 3.79086 3.79086 2 6 2ZM15 5C17.2091 5 19 6.79086 19 9V14.126C20.7252 14.57 22 16.1362 22 18C22 20.2091 20.2091 22 18 22C15.7909 22 14 20.2091 14 18C14 16.1362 15.2748 14.57 17 14.126V9C17 7.89543 16.1046 7 15 7H12V5H15ZM18 17C17.4477 17 17 17.4477 17 18C17 18.5523 17.4477 19 18 19C18.5523 19 19 18.5523 19 18C19 17.4477 18.5523 17 18 17ZM6 5C5.44772 5 5 5.44772 5 6C5 6.55228 5.44772 7 6 7C6.55228 7 7 6.55228 7 6C7 5.44772 6.55228 5 6 5Z" fill="#141414"/>
</svg>
