<svg width="24" height="24" viewBox="0 0 24 24" fill="none" xmlns="http://www.w3.org/2000/svg">
<path d="M7.73155 5.40171C9.94069 1.57542 14.8339 0.264883 18.6603 2.47398C22.4865 4.68313 23.7971 9.57541 21.588 13.4017L19.4903 17.0365L19.6983 20.2679C19.8006 21.8615 18.0854 22.9265 16.7022 22.1283L14.8556 21.0619C13.7511 22.9749 11.3058 23.6309 9.39268 22.5267C7.47951 21.4221 6.82327 18.975 7.92784 17.0619H7.92686L2.61827 13.9964C1.2353 13.1977 1.3 11.1801 2.73155 10.472L5.63389 9.03648L7.73155 5.40171ZM9.65928 18.0619C9.10707 19.0184 9.43612 20.242 10.3927 20.7943C11.3492 21.3463 12.5709 21.0182 13.1231 20.0619L9.65928 18.0619Z" fill="#141414"/>
</svg>
