<svg width="24" height="24" viewBox="0 0 24 24" fill="none" xmlns="http://www.w3.org/2000/svg">
<path fill-rule="evenodd" clip-rule="evenodd" d="M1.07714 11.6172C1.07658 11.6186 1.07794 11.6149 1.07714 11.6172V11.6172Z" fill="#141414"/>
<path fill-rule="evenodd" clip-rule="evenodd" d="M1.07276 11.6291C0.978349 11.8663 0.97821 12.1337 1.07243 12.371C0.977248 12.1328 0.97761 11.8673 1.07276 11.6291Z" fill="#141414"/>
<path fill-rule="evenodd" clip-rule="evenodd" d="M20.4248 21.7529L21.8389 20.3389L4.16112 2.66113L2.74706 4.0752L4.93554 6.26367C4.44508 6.69569 4.00741 7.14788 3.62011 7.59473C2.75151 8.59695 2.11993 9.59607 1.70507 10.3428C1.4972 10.7169 1.3417 11.0312 1.2373 11.2549C1.18523 11.3665 1.1455 11.4561 1.11816 11.5195L1.11002 11.5384C1.10013 11.5613 1.09192 11.5803 1.08593 11.5947C1.0837 11.6001 1.0788 11.6128 1.07714 11.6172L1.07276 11.6291C0.97761 11.8673 0.977248 12.1328 1.07243 12.371L1.07714 12.3828C1.0788 12.3872 1.08372 12.3999 1.08593 12.4053C1.09193 12.4197 1.10016 12.4388 1.11006 12.4617L1.11816 12.4805C1.14551 12.5439 1.18524 12.6336 1.2373 12.7451C1.34171 12.9688 1.49718 13.283 1.70507 13.6572C2.11993 14.4039 2.75151 15.403 3.62011 16.4053C5.35303 18.4046 8.10599 20.5 12.001 20.5C14.2101 20.4998 16.049 19.822 17.5449 18.873L20.4248 21.7529ZM9.00097 12C9.00097 11.5141 9.11712 11.056 9.32226 10.6504L13.3486 14.6768C12.9435 14.882 12.4865 14.9999 12.001 15C10.3442 14.9999 9.00097 13.6568 9.00097 12Z" fill="#141414"/>
<path d="M20.3818 7.59473C18.649 5.59541 15.8958 3.50029 12.001 3.5C10.6921 3.50001 9.51157 3.73694 8.45605 4.12695L20.542 16.2129C21.3274 15.2755 21.9084 14.3565 22.2969 13.6572C22.5048 13.283 22.6603 12.9688 22.7646 12.7451C22.8167 12.6335 22.8564 12.5439 22.8838 12.4805L22.892 12.4613C22.9018 12.4388 22.9101 12.4195 22.916 12.4053C22.9197 12.3964 22.9225 12.3883 22.9248 12.3828C22.9258 12.3803 22.928 12.3738 22.9287 12.3721C23.0238 12.134 23.0237 11.865 22.9287 11.627L22.9248 11.6172C22.9239 11.6149 22.9259 11.6202 22.9248 11.6172C22.9232 11.6129 22.9182 11.6 22.916 11.5947C22.9101 11.5804 22.9019 11.5615 22.8921 11.5388L22.8838 11.5195C22.8565 11.4561 22.8167 11.3665 22.7646 11.2549C22.6603 11.0312 22.5047 10.717 22.2969 10.3428C21.8821 9.59613 21.2504 8.59697 20.3818 7.59473Z" fill="#141414"/>
</svg>
