<svg width="24" height="24" viewBox="0 0 24 24" fill="none" xmlns="http://www.w3.org/2000/svg">
<path d="M16.5 1C17.759 1 18.9448 1.59248 19.7002 2.59961L21.2002 4.59961C21.7195 5.29199 22 6.13452 22 7V19C22 21.2091 20.2091 23 18 23H6C3.79086 23 2 21.2091 2 19V7C2 6.13452 2.28052 5.29199 2.7998 4.59961L4.2998 2.59961C5.05523 1.59248 6.24104 1 7.5 1H16.5ZM7 10C7 12.7614 9.23858 15 12 15C14.7614 15 17 12.7614 17 10H15C15 11.6569 13.6569 13 12 13C10.3431 13 9 11.6569 9 10H7ZM7.5 3C6.87062 3 6.27811 3.29638 5.90039 3.7998L5 5H19L18.0996 3.7998C17.7219 3.29638 17.1294 3 16.5 3H7.5Z" fill="#141414"/>
</svg>
