<svg width="24" height="24" viewBox="0 0 24 24" fill="none" xmlns="http://www.w3.org/2000/svg">
<path d="M20 3C21.6569 3 23 4.34315 23 6V9C23 9.55228 22.5523 10 22 10H21C19.8954 10 19 10.8954 19 12C19 13.1046 19.8954 14 21 14H22C22.5523 14 23 14.4477 23 15V18C23 19.6569 21.6569 21 20 21H4C2.34315 21 1 19.6569 1 18V15C1 14.4477 1.44772 14 2 14H3C4.10457 14 5 13.1046 5 12C5 10.8954 4.10457 10 3 10H2C1.44772 10 1 9.55228 1 9V6C1 4.34315 2.34315 3 4 3H20ZM9 19H11V17H9V19ZM9 15H11V13H9V15ZM9 11H11V9H9V11ZM9 7H11V5H9V7Z" fill="#141414"/>
</svg>
