<svg width="24" height="24" viewBox="0 0 24 24" fill="none" xmlns="http://www.w3.org/2000/svg">
<path d="M6.65625 3.04888C10.1836 2.34341 13.8164 2.34341 17.3438 3.04888C20.6326 3.70687 23 6.59521 23 9.94927V14.0508C22.9997 17.4047 20.6325 20.2933 17.3438 20.9512C13.8165 21.6567 10.1835 21.6567 6.65625 20.9512C3.36755 20.2933 1.00029 17.4047 1 14.0508V9.94927C1 6.59521 3.36741 3.70687 6.65625 3.04888ZM11.0244 8.93755C10.3583 8.52761 9.5003 9.00703 9.5 9.78911V14.21C9.50029 14.992 10.3583 15.4713 11.0244 15.0616L14.6162 12.8516C15.2505 12.4612 15.2503 11.5391 14.6162 11.1485L11.0244 8.93755Z" fill="#141414"/>
</svg>
