<svg width="24" height="24" viewBox="0 0 24 24" fill="none" xmlns="http://www.w3.org/2000/svg">
<path d="M16.1641 2C17.2979 2.00004 18.3782 2.48149 19.1367 3.32422L21.9736 6.47559C22.6345 7.21004 23 8.16336 23 9.15137V14C23 15.6569 21.6569 17 20 17H18V19C18 20.6569 16.6569 22 15 22H9C7.34315 22 6 20.6569 6 19V17H4C2.34315 17 1 15.6569 1 14V9.15137C1 8.16336 1.36552 7.21004 2.02637 6.47559L4.86328 3.32422C5.62181 2.48149 6.70211 2.00004 7.83594 2H16.1641ZM8 19C8 19.5523 8.44772 20 9 20H15C15.5523 20 16 19.5523 16 19V13H8V19ZM7.83594 4C7.26903 4.00004 6.72886 4.24074 6.34961 4.66211L4.24609 7H19.7539L17.6504 4.66211C17.2711 4.24074 16.731 4.00004 16.1641 4H7.83594Z" fill="#141414"/>
</svg>
