<svg width="24" height="24" viewBox="0 0 24 24" fill="none" xmlns="http://www.w3.org/2000/svg">
<path d="M12 1C18.0751 1 23 5.92487 23 12C23 18.0751 18.0751 23 12 23C5.92487 23 1 18.0751 1 12C1 5.92487 5.92487 1 12 1ZM16.2432 14.1211C15.6574 13.5353 14.7069 13.5353 14.1211 14.1211C13.5355 14.7068 13.5357 15.6564 14.1211 16.2422C14.7069 16.828 15.6574 16.828 16.2432 16.2422C16.8285 15.6564 16.8287 14.7067 16.2432 14.1211ZM7.75781 14.8281L9.17188 16.2422L16.2432 9.17188L14.8281 7.75781L7.75781 14.8281ZM9.87891 7.75781C9.29312 7.17203 8.3436 7.17203 7.75781 7.75781C7.17209 8.3436 7.17205 9.29314 7.75781 9.87891C8.3436 10.4644 9.29322 10.4645 9.87891 9.87891C10.4646 9.29322 10.4644 8.34362 9.87891 7.75781Z" fill="#141414"/>
</svg>
