<svg width="24" height="24" viewBox="0 0 24 24" fill="none" xmlns="http://www.w3.org/2000/svg">
<path d="M12 1C12.909 1 13.6221 1.70768 13.6221 2.55078V10.7402C13.6223 10.9279 13.7779 11.0801 13.9697 11.0801C14.1614 11.0799 14.3171 10.9278 14.3174 10.7402V3.80957C14.3177 2.96668 15.0306 2.25977 15.9395 2.25977C16.8481 2.26004 17.5603 2.96685 17.5605 3.80957V10.7402C17.5608 10.9278 17.7166 11.0798 17.9082 11.0801C18.0999 11.0799 18.2566 10.9278 18.2568 10.7402V7.58984C18.2571 6.74699 18.9692 6.04016 19.8779 6.04004C20.7867 6.04019 21.4998 6.74701 21.5 7.58984V13.8906C21.4996 18.9146 17.2535 23 12 23C6.7465 23 2.50035 18.9146 2.5 13.8906V11.3701C2.50007 10.5272 3.21323 9.82047 4.12207 9.82031C5.03095 9.82043 5.74309 10.5271 5.74316 11.3701V14.041H6.43945V3.80957C6.43973 2.96685 7.15194 2.26004 8.06055 2.25977C8.9694 2.25977 9.68234 2.96668 9.68262 3.80957V10.7402C9.68288 10.9278 9.83861 11.0799 10.0303 11.0801C10.2221 11.0801 10.3777 10.9279 10.3779 10.7402V2.55078C10.3779 1.70768 11.091 1 12 1Z" fill="#141414"/>
</svg>
