<svg width="24" height="24" viewBox="0 0 24 24" fill="none" xmlns="http://www.w3.org/2000/svg">
<path d="M17 5C19.2091 5 21 6.79086 21 9V10H23V14H21V15C21 17.2091 19.2091 19 17 19H5C2.79086 19 1 17.2091 1 15V9C1 6.79086 2.79086 5 5 5H17ZM7.91797 11.4453C7.71344 11.7521 7.69426 12.1466 7.86816 12.4717C8.04218 12.7968 8.38121 13 8.75 13H11.3066L10.25 15.5L11.3779 16.2676L14.0635 12.5811C14.2812 12.2762 14.3111 11.8751 14.1396 11.542C13.9682 11.209 13.6245 11 13.25 11H10.6182L11.3779 9.01465L10.0859 8.27734L7.91797 11.4453Z" fill="#141414"/>
</svg>
