<svg width="24" height="24" viewBox="0 0 24 24" fill="none" xmlns="http://www.w3.org/2000/svg">
<path d="M7.92871 1.27637C8.60556 0.870276 9.45882 0.899905 10.1055 1.35254L14.9941 4.7754L19.0469 1.88086C20.7015 0.698992 23 1.88165 23 3.91504V16.3018C22.9999 17.7067 22.2623 19.0086 21.0576 19.7315L16.0771 22.7197C15.3941 23.1295 14.5328 23.0951 13.8848 22.6318L9.00488 19.1436L4.96973 22.0772C3.31729 23.2781 1 22.0976 1 20.0547V7.69825C1.00013 6.29334 1.73767 4.99139 2.94238 4.26856L7.92871 1.27637ZM9.00488 16.6895L14.9941 21V7.25391L9.00488 3.00001V16.6895Z" fill="#141414"/>
</svg>
