<svg width="24" height="24" viewBox="0 0 24 24" fill="none" xmlns="http://www.w3.org/2000/svg">
<path d="M14.0817 1.35797C15.656 0.651237 17.5013 1.41493 18.1149 3.02789L18.9156 5.13432L21.0221 5.93608C22.6353 6.54951 23.3997 8.39478 22.693 9.96927L21.7691 12.0249L22.693 14.0816C23.3997 15.6559 22.636 17.5012 21.023 18.1147L18.9156 18.9146L18.1149 21.022C17.5015 22.6353 15.6562 23.3996 14.0817 22.6929L12.025 21.769L9.96938 22.6929C8.39495 23.3998 6.54982 22.636 5.9362 21.0229L5.13542 18.9146L3.02899 18.1147C1.41553 17.5013 0.651949 15.6562 1.35907 14.0816L2.28094 12.0249L1.3581 9.96927C0.651141 8.39471 1.41567 6.5495 3.02899 5.93608L5.13542 5.13432L5.9362 3.02886C6.54959 1.41558 8.39485 0.65114 9.96938 1.35797L12.025 2.28082L14.0817 1.35797ZM15.8571 13.9282C15.3246 13.3958 14.4609 13.3959 13.9283 13.9282C13.3958 14.4608 13.3958 15.3244 13.9283 15.8569C14.4609 16.3892 15.3246 16.3894 15.8571 15.8569C16.3893 15.3245 16.3893 14.4607 15.8571 13.9282ZM8.07877 14.5073L9.49282 15.9214L15.9215 9.49271L14.5074 8.07865L8.07877 14.5073ZM10.0719 8.1431C9.53945 7.61063 8.67577 7.61076 8.14322 8.1431C7.61069 8.67563 7.61069 9.53928 8.14322 10.0718C8.67578 10.604 9.5395 10.6042 10.0719 10.0718C10.6042 9.53937 10.6041 8.6756 10.0719 8.1431Z" fill="#141414"/>
</svg>
