<svg width="24" height="24" viewBox="0 0 24 24" fill="none" xmlns="http://www.w3.org/2000/svg">
<path d="M6 12C7.10457 12 8 12.8954 8 14V20C8 21.1046 7.10457 22 6 22H4C2.89543 22 2 21.1046 2 20V14C2 12.8954 2.89543 12 4 12H6ZM13 7C14.1046 7 15 7.89543 15 9V20C15 21.1046 14.1046 22 13 22H12C10.8954 22 10 21.1046 10 20V9C10 7.89543 10.8954 7 12 7H13ZM20 2C21.1046 2 22 2.89543 22 4V20C22 21.1046 21.1046 22 20 22H19C17.8954 22 17 21.1046 17 20V4C17 2.89543 17.8954 2 19 2H20Z" fill="#141414"/>
</svg>
