<svg width="24" height="24" viewBox="0 0 24 24" fill="none" xmlns="http://www.w3.org/2000/svg">
<path d="M19 2.5C21.2091 2.5 23 4.29086 23 6.5V16.5C23 18.7091 21.2091 20.5 19 20.5H6.77148L4.01074 22.1162C2.67745 22.8966 1 21.9346 1 20.3896V6.5C1 4.29086 2.79086 2.5 5 2.5H19ZM11 15.8525H13V11.8525H11V15.8525ZM12 7.35254C11.1717 7.35254 10.5002 8.02428 10.5 8.85254C10.5 9.68097 11.1716 10.3525 12 10.3525C12.8284 10.3525 13.5 9.68097 13.5 8.85254C13.4998 8.02428 12.8283 7.35254 12 7.35254Z" fill="#141414"/>
</svg>
