<svg width="24" height="24" viewBox="0 0 24 24" fill="none" xmlns="http://www.w3.org/2000/svg">
<path d="M12 1C18.0751 1 23 5.92487 23 12C23 18.0751 18.0751 23 12 23C5.92487 23 1 18.0751 1 12C1 5.92487 5.92487 1 12 1ZM12 16.9014L6.91406 14.5898L6.08594 16.4102L11.5859 18.9102C11.8489 19.0297 12.1511 19.0297 12.4141 18.9102L17.9141 16.4102L17.0859 14.5898L12 16.9014ZM12.7637 5.90234C12.3642 5.43027 11.6358 5.43027 11.2363 5.90234L7.35352 10.4912C6.92571 10.9974 7.09985 11.7723 7.70312 12.0469L11.5859 13.8115C11.8489 13.931 12.1511 13.931 12.4141 13.8115L16.2969 12.0469C16.9002 11.7723 17.0743 10.9974 16.6465 10.4912L12.7637 5.90234Z" fill="#141414"/>
</svg>
