<svg width="24" height="24" viewBox="0 0 24 24" fill="none" xmlns="http://www.w3.org/2000/svg">
<path d="M20 22H4V20H20V22ZM22 18H2V16H22V18ZM3 14H1V12H3V14ZM12 6C15.866 6 19 9.13401 19 13C19 13.3396 18.9745 13.6733 18.9277 14H5.07227C5.02553 13.6733 5 13.3396 5 13C5 9.13401 8.13401 6 12 6ZM23 14H21V12H23V14ZM20.4854 5.92871L19.0713 7.34375L17.6572 5.92871L19.0713 4.51465L20.4854 5.92871ZM6.34277 5.92871L4.92871 7.34277L3.51465 5.92871L4.92871 4.51465L6.34277 5.92871ZM13 4H11V2H13V4Z" fill="#141414"/>
</svg>
