<svg width="24" height="24" viewBox="0 0 24 24" fill="none" xmlns="http://www.w3.org/2000/svg">
<path d="M12.3067 2.99943C13.7673 1.05241 16.6138 0.850597 18.335 2.5717L21.9287 6.16545C23.6495 7.88666 23.447 10.7333 21.5 12.1938L19.4346 13.7426C19.0788 14.0094 18.8212 14.3878 18.7041 14.8168L17.3076 19.9399C16.9034 21.4211 15.0487 21.9132 13.9629 20.8276L9.52444 16.3891L5.28225 20.6313L3.86819 19.2172L8.11037 14.975L3.67287 10.5365C2.58718 9.45072 3.07927 7.59698 4.56057 7.19279L9.68362 5.79533C10.1124 5.67827 10.4901 5.4214 10.7569 5.06584L12.3067 2.99943Z" fill="#141414"/>
</svg>
