<svg width="24" height="24" viewBox="0 0 24 24" fill="none" xmlns="http://www.w3.org/2000/svg">
<path d="M16.0595 2C16.8149 1.99999 17.4404 2.00044 17.9521 2.04102C18.4847 2.08328 18.9749 2.17376 19.4414 2.39941C20.1679 2.7509 20.7712 3.31399 21.1718 4.01465C21.4291 4.46466 21.554 4.94792 21.6328 5.47656C21.7084 5.98415 21.7507 6.60794 21.8027 7.36133L22.4619 16.9102C22.808 19.5543 20.6842 22 18 22H5.99995C3.31571 22 1.19193 19.5543 1.53804 16.9102L2.19722 7.36133C2.24917 6.60787 2.29149 5.98419 2.36714 5.47656C2.44595 4.9479 2.57075 4.46467 2.82808 4.01465C3.22872 3.314 3.83199 2.7509 4.55855 2.39941C5.02505 2.17378 5.51517 2.08327 6.0478 2.04102C6.55948 2.00044 7.18498 1.99999 7.94038 2H16.0595ZM5.99995 15C4.74804 15 3.71085 15.9202 3.52827 17.1211C3.42581 18.6068 4.3952 20 5.99995 20H18C19.6047 20 20.5741 18.6068 20.4716 17.1211C20.2891 15.9202 19.2518 15 18 15H5.99995ZM6.50972 16.5C7.062 16.5 7.50972 16.9477 7.50972 17.5C7.50972 18.0523 7.062 18.5 6.50972 18.5H6.49995C5.94767 18.5 5.49995 18.0523 5.49995 17.5C5.49995 16.9477 5.94767 16.5 6.49995 16.5H6.50972ZM18 18.5H11.5V16.5H18V18.5Z" fill="#141414"/>
</svg>
