<svg width="24" height="24" viewBox="0 0 24 24" fill="none" xmlns="http://www.w3.org/2000/svg">
<path d="M3.51465 3.51465C5.35858 1.67072 7.99604 1.0928 10.6562 1.51269C12.2337 1.76181 13.8471 2.3648 15.375 3.28808C15.3793 3.29062 15.3844 3.29331 15.3887 3.2959C15.3996 3.30251 15.411 3.30975 15.4219 3.3164C15.8807 3.59599 16.3318 3.90524 16.7715 4.24218C16.8272 4.28484 16.884 4.32752 16.9395 4.37109C17.0173 4.43239 17.0948 4.49551 17.1719 4.55859C17.2449 4.61828 17.3183 4.67893 17.3906 4.74023C17.4486 4.78943 17.507 4.83943 17.5645 4.88965C17.6607 4.97362 17.7557 5.06058 17.8506 5.14746C17.885 5.17903 17.9208 5.21025 17.9551 5.24218C18.0622 5.34209 18.1682 5.44519 18.2734 5.54883C18.3032 5.57809 18.3347 5.60716 18.3643 5.63672C20.5416 7.81426 21.9342 10.4339 22.4219 12.9824C22.4266 13.007 22.431 13.0321 22.4355 13.0566C22.4532 13.1525 22.4732 13.2482 22.4883 13.3437C22.4987 13.4098 22.5055 13.477 22.5146 13.543C22.5171 13.5603 22.5192 13.5783 22.5215 13.5957C22.5426 13.7527 22.5602 13.9099 22.5742 14.0664C22.5766 14.0933 22.5789 14.1206 22.5811 14.1475C22.5928 14.2915 22.6018 14.4357 22.6074 14.5791C22.6093 14.6268 22.6111 14.675 22.6123 14.7227C22.614 14.792 22.615 14.8616 22.6152 14.9307C22.6157 15.0337 22.6151 15.1369 22.6123 15.2393C22.6106 15.3004 22.6074 15.3619 22.6045 15.4228C22.599 15.5403 22.5929 15.6579 22.583 15.7744C22.5802 15.8075 22.5764 15.841 22.5732 15.874C22.5618 15.993 22.5474 16.1118 22.5312 16.2295C22.5265 16.2639 22.5217 16.2987 22.5166 16.333C22.4746 16.6143 22.4182 16.8917 22.3486 17.1641C22.3401 17.1972 22.3312 17.2306 22.3223 17.2637C22.2869 17.3949 22.249 17.5255 22.207 17.6543C22.203 17.6666 22.1984 17.6791 22.1943 17.6914C22.0349 18.1719 21.8292 18.634 21.5742 19.0713C21.5471 19.1177 21.5194 19.1641 21.4912 19.21C21.4763 19.2342 21.4605 19.2581 21.4453 19.2822C21.4166 19.3277 21.3873 19.3731 21.3574 19.418C21.3437 19.4387 21.3304 19.4599 21.3164 19.4805C21.2846 19.5273 21.2508 19.573 21.2178 19.6191C21.193 19.6537 21.1681 19.6884 21.1426 19.7227C21.1229 19.7491 21.1031 19.7756 21.083 19.8018C21.0506 19.844 21.0179 19.8861 20.9844 19.9277C20.9614 19.9563 20.9376 19.9844 20.9141 20.0127C20.8921 20.0391 20.8711 20.0666 20.8486 20.0928C20.7334 20.2272 20.6125 20.3582 20.4853 20.4853C20.362 20.6087 20.2347 20.7258 20.1045 20.8379C20.0743 20.8639 20.0432 20.8887 20.0127 20.9141C19.9837 20.9382 19.9551 20.9628 19.9258 20.9863C19.8919 21.0135 19.8575 21.0399 19.8232 21.0664C19.7841 21.0967 19.7448 21.1269 19.7051 21.1562C19.681 21.1741 19.6571 21.1925 19.6328 21.21C19.5906 21.2403 19.5476 21.2695 19.5049 21.2988C19.4761 21.3186 19.447 21.3381 19.418 21.3574C19.373 21.3873 19.3277 21.4166 19.2822 21.4453C19.2591 21.4599 19.2361 21.475 19.2129 21.4893C19.1638 21.5195 19.1142 21.5492 19.0645 21.5781C19.0428 21.5907 19.0208 21.6029 18.999 21.6152C18.9532 21.6412 18.9067 21.6664 18.8603 21.6914C18.6313 21.8147 18.3961 21.9256 18.1553 22.0234C18.141 22.0292 18.1266 22.0353 18.1123 22.041C17.9752 22.0957 17.8358 22.1457 17.6953 22.1924C17.682 22.1968 17.6686 22.2017 17.6553 22.2061C17.5254 22.2484 17.3941 22.2876 17.2617 22.3232C17.231 22.3315 17.1998 22.3397 17.1689 22.3477C17.0447 22.3795 16.9192 22.4085 16.793 22.4346C16.7529 22.4429 16.7122 22.4503 16.6719 22.458C16.5826 22.475 16.4925 22.4907 16.4023 22.5049C16.3198 22.518 16.2365 22.5293 16.1533 22.54C16.0788 22.5496 16.0037 22.5587 15.9287 22.5664C15.8558 22.5739 15.7823 22.5811 15.709 22.5869C15.6141 22.5943 15.5184 22.6 15.4228 22.6045C15.3626 22.6074 15.3017 22.6106 15.2412 22.6123C15.1385 22.6151 15.035 22.6157 14.9316 22.6152C14.8486 22.6149 14.765 22.6137 14.6816 22.6113C14.6743 22.6111 14.6665 22.6106 14.6592 22.6103C14.3059 22.5993 13.9496 22.5695 13.5928 22.5215C13.577 22.5194 13.5607 22.5168 13.5449 22.5146C13.4783 22.5054 13.4104 22.4988 13.3437 22.4883C10.6826 22.0679 7.91749 20.6449 5.63672 18.3643C5.50228 18.2298 5.37043 18.0927 5.24219 17.9551C5.21025 17.9208 5.17903 17.885 5.14746 17.8506C5.06216 17.7574 4.97701 17.6638 4.89453 17.5693C4.83618 17.5026 4.77865 17.4345 4.72168 17.3672C4.67598 17.313 4.62975 17.2586 4.58496 17.2041C2.91702 15.1778 1.86405 12.881 1.51269 10.6562C1.0928 7.99604 1.67072 5.35858 3.51465 3.51465ZM20.5381 13.8486C18.964 14.2184 17.471 15.0153 16.2432 16.2432C15.0157 17.4706 14.2203 18.9634 13.8506 20.5371C15.1713 20.7176 16.392 20.585 17.4248 20.1592C17.5399 20.1116 17.6524 20.0597 17.7627 20.0049C17.9474 19.9132 18.1255 19.812 18.2959 19.7002C18.4804 19.5788 18.6568 19.4465 18.8232 19.3018C18.9083 19.2278 18.9913 19.1513 19.0713 19.0713C19.1513 18.9913 19.2278 18.9083 19.3018 18.8232C19.4448 18.6588 19.5761 18.4849 19.6963 18.3027C19.9233 17.9582 20.1081 17.5826 20.252 17.1816C20.2622 17.1531 20.2734 17.1245 20.2832 17.0957C20.3865 16.7924 20.466 16.4745 20.5215 16.1445C20.564 15.8915 20.5925 15.631 20.6064 15.3643C20.6121 15.2564 20.6153 15.147 20.6162 15.0371C20.6163 15.023 20.6162 15.0083 20.6162 14.9941C20.6168 14.7655 20.6069 14.5323 20.5869 14.2959C20.5745 14.1484 20.5586 13.9989 20.5381 13.8486ZM8.46582 9.87988L12.708 14.1221L14.1221 12.708L9.87988 8.46582L8.46582 9.87988ZM10.3437 3.48828C8.14206 3.1409 6.20864 3.64878 4.92871 4.92871C3.64879 6.20864 3.1409 8.14206 3.48828 10.3437C3.51814 10.5328 3.5562 10.7235 3.59863 10.915C4.10613 9.2424 5.02104 7.66645 6.34375 6.34375C7.66599 5.02151 9.24101 4.10547 10.9131 3.59765C10.7222 3.55542 10.5322 3.51803 10.3437 3.48828Z" fill="#141414"/>
</svg>
