<svg width="24" height="24" viewBox="0 0 24 24" fill="none" xmlns="http://www.w3.org/2000/svg">
<path d="M7.71875 2C8.63637 2 9.43648 2.6245 9.65918 3.51465L10.2988 6.07422C10.5036 6.89395 10.1716 7.75381 9.46875 8.22266L7.68652 9.41016C8.8411 12.6257 11.3735 15.1576 14.5889 16.3125L15.7773 14.5312C16.2462 13.8284 17.106 13.4964 17.9258 13.7012L20.4854 14.3408C21.3755 14.5635 22 15.3636 22 16.2812V19C22 20.6569 20.6569 22 19 22C9.61116 22 2 14.3888 2 5C2 3.34315 3.34315 2 5 2H7.71875ZM21.999 3.41406L17.9746 7.43945H21.0596V9.43945H15.5596C15.0076 9.43923 14.5597 8.99149 14.5596 8.43945V2.93945H16.5596V6.02539L20.585 2L21.999 3.41406Z" fill="#141414"/>
</svg>
