<svg width="24" height="24" viewBox="0 0 24 24" fill="none" xmlns="http://www.w3.org/2000/svg">
<path d="M6 2C8.20914 2 10 3.79086 10 6C10 6.80315 9.76195 7.55014 9.35449 8.17676L12.9043 9.95215L21.0928 5.5625L22 7.34473L13.3828 12L22 16.6553L21.0928 18.4375L12.9043 14.0469L9.35449 15.8223C9.76222 16.449 10 17.1966 10 18C10 20.2091 8.20914 22 6 22C3.79086 22 2 20.2091 2 18C2 16.5388 2.78338 15.2605 3.95312 14.5625C3.98226 14.5435 4.01329 14.5259 4.04492 14.5098C4.13897 14.457 4.23543 14.4075 4.33398 14.3623L8.97461 12L4.33398 9.6377C4.23543 9.59248 4.13897 9.54303 4.04492 9.49023C4.01329 9.47405 3.98226 9.45647 3.95312 9.4375C2.78338 8.73947 2 7.46116 2 6C2 3.79086 3.79086 2 6 2ZM6 16C5.7119 16 5.4379 16.0612 5.19043 16.1709L5 16.2676C4.40235 16.6134 4 17.2598 4 18C4 19.1046 4.89543 20 6 20C7.10457 20 8 19.1046 8 18C8 16.8954 7.10457 16 6 16ZM6 4C4.89543 4 4 4.89543 4 6C4 6.74017 4.40235 7.38657 5 7.73242L5.19043 7.8291C5.4379 7.93876 5.7119 8 6 8C7.10457 8 8 7.10457 8 6C8 4.89543 7.10457 4 6 4Z" fill="#141414"/>
</svg>
