<svg width="24" height="24" viewBox="0 0 24 24" fill="none" xmlns="http://www.w3.org/2000/svg">
<path d="M12 1C18.0751 1 23 5.92487 23 12C23 18.0751 18.0751 23 12 23C5.92487 23 1 18.0751 1 12C1 5.92487 5.92487 1 12 1ZM12.6758 6C10.3414 6 8.32853 7.37765 7.40625 9.36426H5.5V11.3643H6.88574C6.87476 11.5101 6.86914 11.658 6.86914 11.8066C6.86915 11.9551 6.87478 12.1023 6.88574 12.248H5.5V14.248H7.40625C8.32848 16.2348 10.3413 17.6133 12.6758 17.6133C14.2334 17.6132 15.6495 16.998 16.6914 16L15.3086 14.5557C14.624 15.2115 13.6976 15.6132 12.6758 15.6133C11.503 15.6133 10.4541 15.0821 9.75586 14.248H11.874V12.248H8.89453C8.8778 12.1032 8.86915 11.9559 8.86914 11.8066C8.86914 11.6572 8.87777 11.5092 8.89453 11.3643H11.874V9.36426H9.75586C10.4541 8.53037 11.5031 8 12.6758 8C13.6976 8.00006 14.624 8.40183 15.3086 9.05762L16.6914 7.61328C15.6495 6.61518 14.2335 6.00006 12.6758 6Z" fill="#141414"/>
</svg>
