<svg width="24" height="24" viewBox="0 0 24 24" fill="none" xmlns="http://www.w3.org/2000/svg">
<path d="M18.0918 2C20.4868 4.09271 22 7.1577 22 10.5713C22 16.8831 16.8316 21.9998 10.4561 22C7.26859 22 4.38105 20.7194 2.29308 18.6523C1.90257 18.2657 1.90261 17.6396 2.29308 17.2529L4.61631 14.9521C3.68371 13.7353 3.12901 12.2168 3.12901 10.5713C3.12901 6.56544 6.40983 3.31836 10.4561 3.31836C14.5022 3.31858 17.7823 6.56558 17.7823 10.5713C17.7823 14.577 14.5022 17.824 10.4561 17.8242C8.79398 17.8242 7.25949 17.2758 6.03036 16.3525L4.45127 17.916C6.09171 19.2323 8.18045 20.0195 10.4561 20.0195C15.727 20.0193 20 15.7895 20 10.5713C20 7.74936 18.7516 5.21717 16.7686 3.48438L18.0918 2Z" fill="#141414"/>
</svg>
