<svg width="24" height="24" viewBox="0 0 24 24" fill="none" xmlns="http://www.w3.org/2000/svg">
<path d="M12 1C12.1771 1 12.3532 1.00538 12.5283 1.01367C12.5514 1.01477 12.5746 1.01537 12.5977 1.0166C12.7597 1.02529 12.9209 1.03709 13.0811 1.05273C13.1225 1.05678 13.1638 1.06191 13.2051 1.06641C13.3445 1.08162 13.4833 1.09875 13.6211 1.11914C13.6446 1.12261 13.668 1.12627 13.6914 1.12988C13.8478 1.15406 14.003 1.18219 14.1572 1.21289C14.1931 1.22002 14.2289 1.2269 14.2646 1.23438C14.4241 1.26779 14.5825 1.30351 14.7393 1.34375C14.751 1.34677 14.7626 1.35046 14.7744 1.35352C14.908 1.38827 15.0403 1.42621 15.1719 1.46582C15.2237 1.4814 15.2757 1.49637 15.3271 1.5127C15.4495 1.55154 15.5709 1.59276 15.6914 1.63574C15.7552 1.65847 15.8186 1.68219 15.8818 1.70605C15.973 1.7405 16.0633 1.7767 16.1533 1.81348C16.2428 1.85001 16.3316 1.88795 16.4199 1.92676C16.4956 1.96006 16.5707 1.99435 16.6455 2.0293C16.7082 2.05857 16.7709 2.08774 16.833 2.11816C16.9487 2.17492 17.0634 2.23328 17.1768 2.29395C17.2371 2.32618 17.2968 2.35926 17.3564 2.39258C17.4149 2.42528 17.4725 2.45943 17.5303 2.49316C17.6445 2.55974 17.7576 2.62772 17.8691 2.69824C17.9207 2.73091 17.9724 2.76338 18.0234 2.79688C18.2687 2.95774 18.5062 3.12917 18.7373 3.30859C18.7567 3.3237 18.7766 3.33829 18.7959 3.35352C20.5934 4.76826 21.9374 6.73002 22.5791 8.98926C22.5872 9.0175 22.5947 9.04589 22.6025 9.07422C22.6249 9.15543 22.6484 9.23641 22.6689 9.31836C22.6973 9.43115 22.7222 9.54504 22.7471 9.65918C22.7626 9.7306 22.7779 9.8021 22.792 9.87402C22.8166 9.99894 22.839 10.1246 22.8594 10.251C22.8666 10.2965 22.8741 10.342 22.8809 10.3877C22.9028 10.5362 22.9216 10.6856 22.9375 10.8359C22.9413 10.8717 22.9448 10.9075 22.9482 10.9434C22.9816 11.2911 23 11.6435 23 12C23 12.3555 22.9815 12.7069 22.9482 13.0537C22.9447 13.0912 22.9414 13.1286 22.9375 13.166C22.9214 13.318 22.9022 13.4691 22.8799 13.6191C22.8747 13.6541 22.8688 13.6888 22.8633 13.7236C22.8406 13.8668 22.8162 14.0091 22.7881 14.1504C22.7781 14.201 22.7676 14.2514 22.7568 14.3018C22.731 14.4223 22.7026 14.542 22.6729 14.6611C22.6537 14.7384 22.6331 14.815 22.6123 14.8916C22.5974 14.9461 22.5821 15.0005 22.5664 15.0547C21.8264 17.6189 20.1802 19.796 17.9951 21.2197C17.9839 21.227 17.9731 21.2349 17.9619 21.2422C17.8204 21.3337 17.6761 21.4208 17.5303 21.5059C17.4751 21.5381 17.42 21.5703 17.3643 21.6016C17.2942 21.6408 17.2243 21.6801 17.1533 21.7178C17.0475 21.7741 16.9408 21.8289 16.833 21.8818C16.7755 21.91 16.7173 21.9367 16.6592 21.9639C16.5751 22.0033 16.4905 22.0417 16.4053 22.0791C16.326 22.1138 16.2463 22.1478 16.166 22.1807C16.0684 22.2207 15.9701 22.2596 15.8711 22.2969C15.812 22.3191 15.7529 22.3411 15.6934 22.3623C15.5696 22.4065 15.4451 22.4494 15.3193 22.4893C15.2656 22.5063 15.2113 22.5219 15.1572 22.5381C15.0534 22.5692 14.9488 22.5979 14.8438 22.626C14.8001 22.6376 14.7567 22.65 14.7129 22.6611C14.5647 22.6988 14.4152 22.7331 14.2646 22.7646C14.2289 22.7721 14.1931 22.779 14.1572 22.7861C14.003 22.8168 13.8479 22.845 13.6914 22.8691C13.668 22.8728 13.6446 22.8764 13.6211 22.8799C13.4823 22.9004 13.3426 22.9173 13.2021 22.9326C13.1628 22.9369 13.1235 22.9424 13.084 22.9463C12.9229 22.9621 12.7607 22.9737 12.5977 22.9824C12.5746 22.9837 12.5514 22.9843 12.5283 22.9854C12.3532 22.9936 12.1772 23 12 23C11.8225 23 11.6461 22.9937 11.4707 22.9854C11.4476 22.9843 11.4245 22.9837 11.4014 22.9824C11.2383 22.9737 11.0761 22.9621 10.915 22.9463C10.8755 22.9424 10.8363 22.9369 10.7969 22.9326C10.6564 22.9173 10.5167 22.9004 10.3779 22.8799C10.3545 22.8764 10.331 22.8728 10.3076 22.8691C10.1482 22.8445 9.99004 22.8166 9.83301 22.7852C9.80237 22.779 9.77175 22.773 9.74121 22.7666C9.5883 22.7346 9.43663 22.6994 9.28613 22.6611C9.24231 22.65 9.19888 22.6376 9.15527 22.626C9.05052 22.598 8.94626 22.5691 8.84277 22.5381C8.78835 22.5218 8.73375 22.5064 8.67969 22.4893C8.55391 22.4494 8.42944 22.4065 8.30566 22.3623C8.24614 22.3411 8.18698 22.3191 8.12793 22.2969C8.0289 22.2596 7.93065 22.2207 7.83301 22.1807C7.75273 22.1478 7.67306 22.1138 7.59375 22.0791C7.50558 22.0405 7.41799 22.0008 7.33105 21.96C7.27988 21.9359 7.22848 21.9125 7.17773 21.8877C7.06094 21.8306 6.94548 21.7711 6.83105 21.71C6.77176 21.6783 6.71294 21.646 6.6543 21.6133C6.5772 21.5703 6.50075 21.5263 6.4248 21.4814C6.32576 21.4231 6.22788 21.3631 6.13086 21.3018C6.08048 21.2699 6.03029 21.2378 5.98047 21.2051C5.89234 21.1473 5.80509 21.0885 5.71875 21.0283C5.68948 21.0079 5.6609 20.9865 5.63184 20.9658C5.51454 20.8824 5.39897 20.7969 5.28516 20.709C5.25027 20.682 5.21521 20.6553 5.18066 20.6279C3.82942 19.5585 2.73611 18.1795 2.00684 16.5967V16.5977C1.9958 16.5737 1.98548 16.5494 1.97461 16.5254C1.90664 16.375 1.84159 16.2232 1.78027 16.0693C1.77107 16.0463 1.76198 16.0231 1.75293 16C1.69838 15.8604 1.64659 15.7195 1.59766 15.5771C1.58355 15.5362 1.5693 15.4953 1.55566 15.4541C1.51583 15.3336 1.47813 15.2122 1.44238 15.0898C1.42149 15.0185 1.40132 14.9469 1.38184 14.875C1.36612 14.8168 1.34974 14.7588 1.33496 14.7002C1.30158 14.5684 1.27174 14.4354 1.24316 14.3018C1.23243 14.2513 1.22098 14.2011 1.21094 14.1504C1.18283 14.0091 1.15838 13.8668 1.13574 13.7236C1.13026 13.6888 1.12429 13.6541 1.11914 13.6191C1.09689 13.4691 1.07763 13.318 1.06152 13.166C1.05759 13.1287 1.05434 13.0912 1.05078 13.0537C1.01764 12.7069 1 12.3555 1 12C1 11.6435 1.01745 11.2911 1.05078 10.9434C1.0542 10.9075 1.05776 10.8717 1.06152 10.8359C1.07784 10.6816 1.09746 10.5283 1.12012 10.376C1.12625 10.3345 1.13305 10.2932 1.13965 10.252C1.16252 10.1094 1.18752 9.96777 1.21582 9.82715C1.22418 9.78542 1.23238 9.74371 1.24121 9.70215C1.26869 9.5734 1.29814 9.4454 1.33008 9.31836C1.34656 9.25255 1.36515 9.1874 1.38281 9.12207C1.40251 9.04947 1.4232 8.97727 1.44434 8.90527C1.4845 8.76807 1.52696 8.632 1.57227 8.49707C1.57949 8.4756 1.5864 8.45403 1.59375 8.43262C1.65192 8.26289 1.71512 8.09555 1.78125 7.92969C1.78629 7.91705 1.79081 7.90421 1.7959 7.8916C1.84927 7.75917 1.90457 7.62787 1.96289 7.49805C1.97758 7.46535 1.99282 7.43292 2.00781 7.40039C2.29119 6.78581 2.6295 6.20236 3.0166 5.65527C3.02537 5.64289 3.03415 5.63051 3.04297 5.61816C3.33918 5.20318 3.66304 4.80974 4.0127 4.44043C4.03169 4.42036 4.05019 4.39981 4.06934 4.37988C4.41334 4.02194 4.78149 3.68779 5.1709 3.37891C5.2092 3.3485 5.24742 3.31799 5.28613 3.28809C5.37508 3.21944 5.46557 3.15287 5.55664 3.08691C5.62559 3.03694 5.69451 2.98687 5.76465 2.93848C5.82759 2.89508 5.89119 2.85266 5.95508 2.81055C6.02665 2.76332 6.09915 2.71746 6.17188 2.67188C6.25172 2.62188 6.33189 2.57239 6.41309 2.52441C6.50088 2.47249 6.58937 2.4216 6.67871 2.37207C6.72127 2.3485 6.76374 2.32478 6.80664 2.30176C6.92898 2.23604 7.05268 2.17249 7.17773 2.11133C7.22848 2.08654 7.27988 2.06309 7.33105 2.03906C7.42984 1.99263 7.52951 1.94785 7.62988 1.9043C7.66932 1.8872 7.70837 1.86918 7.74805 1.85254C7.87341 1.79989 8.00025 1.75023 8.12793 1.70215C8.18698 1.67994 8.24614 1.65794 8.30566 1.63672C8.42943 1.59255 8.55392 1.54958 8.67969 1.50977C8.726 1.49512 8.77276 1.48182 8.81934 1.46777C8.9534 1.4273 9.08844 1.38895 9.22461 1.35352C9.23638 1.35046 9.24798 1.34677 9.25977 1.34375C9.41655 1.30351 9.57496 1.26779 9.73438 1.23438C9.77009 1.2269 9.80595 1.22002 9.8418 1.21289C9.99598 1.18218 10.1512 1.15407 10.3076 1.12988C10.331 1.12627 10.3545 1.12261 10.3779 1.11914C10.5167 1.09861 10.6564 1.0817 10.7969 1.06641C10.8363 1.06212 10.8755 1.0566 10.915 1.05273C11.0761 1.03695 11.2383 1.02536 11.4014 1.0166C11.4245 1.01536 11.4476 1.01477 11.4707 1.01367C11.6461 1.00535 11.8225 1 12 1ZM12 3C12.5819 3 13.5494 3.46013 14.4873 5.17969C14.8781 5.89624 15.2152 6.75802 15.4717 7.73145C14.3953 7.90239 13.2279 8 12 8C10.7718 8 9.60403 7.90248 8.52734 7.73145C8.78378 6.75792 9.12185 5.8963 9.5127 5.17969C10.4506 3.46013 11.4181 3 12 3C10.517 3 9.11822 3.35973 7.88477 3.99512C7.34125 4.93488 6.89385 6.05896 6.57129 7.3125C5.90369 7.12851 5.2918 6.91275 4.74609 6.67285C4.35041 7.21074 4.0137 7.79431 3.74414 8.41406C4.47723 8.75222 5.29701 9.04458 6.18457 9.28125C6.06399 10.1508 6 11.0617 6 12C6 12.9383 6.06399 13.8492 6.18457 14.7188C5.32155 14.9488 4.52288 15.2286 3.80762 15.5537C3.786 15.5635 3.76471 15.574 3.74316 15.584C4.01295 16.2047 4.35082 16.7886 4.74707 17.3271C5.29347 17.0862 5.90429 16.8682 6.57031 16.6846C6.89277 17.9387 7.34116 19.0627 7.88477 20.0029C9.11841 20.6386 10.5166 21 12 21C13.4823 21 14.8793 20.6387 16.1123 20.0039C16.6562 19.0633 17.106 17.9394 17.4287 16.6846C18.0948 16.8681 18.7055 17.0862 19.252 17.3271C19.6483 16.7885 19.986 16.2047 20.2559 15.584C20.2346 15.5742 20.2137 15.5634 20.1924 15.5537C19.4769 15.2285 18.6778 14.9488 17.8145 14.7188C17.935 13.8492 18 12.9384 18 12C18 11.0616 17.935 10.1508 17.8145 9.28125C18.702 9.04462 19.5217 8.7521 20.2549 8.41406C19.9853 7.79426 19.6487 7.21076 19.2529 6.67285C18.7072 6.91264 18.0953 7.12855 17.4277 7.3125C17.105 6.05857 16.6559 4.93508 16.1123 3.99512C14.8794 3.36047 13.4821 3 12 3ZM12 16C13.2251 16 14.3931 16.0953 15.4717 16.2666C15.2152 17.2408 14.8784 18.1033 14.4873 18.8203C13.5494 20.5399 12.5819 21 12 21C11.4181 21 10.4506 20.5399 9.5127 18.8203C9.12161 18.1032 8.78384 17.2409 8.52734 16.2666C9.60619 16.0952 10.7745 16 12 16ZM15.8516 9.69629C15.9467 10.4275 16 11.1985 16 12C16 12.8008 15.9465 13.5711 15.8516 14.3018C14.6389 14.1055 13.3421 14 12 14C10.6575 14 9.36041 14.1054 8.14746 14.3018C8.05251 13.5712 8 12.8007 8 12C8 11.1986 8.05235 10.4275 8.14746 9.69629C9.36285 9.89313 10.6602 10 12 10C13.3394 10 14.6364 9.89303 15.8516 9.69629Z" fill="#141414"/>
</svg>
