<svg width="24" height="24" viewBox="0 0 24 24" fill="none" xmlns="http://www.w3.org/2000/svg">
<path d="M12 1C14.5629 1 16.9251 1.34449 18.6807 1.92969C19.5531 2.22053 20.3315 2.58931 20.9121 3.04688C21.4814 3.4956 22 4.14818 22 5V19C22 19.8494 21.4868 20.5023 20.918 20.9531C20.3391 21.4118 19.5626 21.7805 18.6914 22.0713C16.9387 22.6564 14.5766 23 12 23C9.42339 23 7.06132 22.6564 5.30859 22.0713C4.43745 21.7805 3.66087 21.4118 3.08203 20.9531C2.51316 20.5023 2 19.8494 2 19V5C2 4.14818 2.51859 3.4956 3.08789 3.04688C3.66849 2.58931 4.4469 2.22053 5.31934 1.92969C7.07494 1.34449 9.43715 1 12 1ZM4 17.8291C6.12723 18.7538 8.94584 19.2998 12 19.2998C15.0542 19.2998 17.8728 18.7538 20 17.8291V15.6064C19.8045 15.7136 19.5933 15.8207 19.3643 15.9248C17.5311 16.7581 14.9284 17.2998 12 17.2998C9.07159 17.2998 6.46893 16.7581 4.63574 15.9248C4.40672 15.8207 4.19553 15.7136 4 15.6064V17.8291ZM4 12.0293C6.12723 12.954 8.94584 13.5 12 13.5C15.0542 13.5 17.8728 12.954 20 12.0293V9.80664C19.8045 9.91375 19.5933 10.0209 19.3643 10.125C17.5311 10.9583 14.9284 11.5 12 11.5C9.07159 11.5 6.46893 10.9583 4.63574 10.125C4.40672 10.0209 4.19553 9.91375 4 9.80664V12.0293ZM12 3C9.59229 3 7.45391 3.32656 5.95215 3.82715C5.19606 4.07918 4.65634 4.35796 4.32617 4.61816C4.16419 4.74586 4.07758 4.84984 4.03516 4.91895C4.01518 4.95153 4.00637 4.97318 4.00293 4.98438C3.99986 4.99446 4 5 4 5C4 5 4.00005 5.00618 4.00293 5.01562C4.00637 5.02682 4.01518 5.04847 4.03516 5.08105C4.07758 5.15016 4.16419 5.25414 4.32617 5.38184C4.65634 5.64204 5.19606 5.92082 5.95215 6.17285C7.45391 6.67344 9.59229 7 12 7C14.4077 7 16.5461 6.67344 18.0479 6.17285C18.8039 5.92082 19.3437 5.64204 19.6738 5.38184C19.8358 5.25414 19.9224 5.15016 19.9648 5.08105C19.9848 5.04847 19.9936 5.02682 19.9971 5.01562C20 5.00605 20 5 20 5C20 4.99891 19.9998 4.99348 19.9971 4.98438C19.9936 4.97318 19.9848 4.95153 19.9648 4.91895C19.9224 4.84984 19.8358 4.74586 19.6738 4.61816C19.3437 4.35796 18.8039 4.07918 18.0479 3.82715C16.5461 3.32656 14.4077 3 12 3Z" fill="#141414"/>
</svg>
