<svg width="24" height="24" viewBox="0 0 24 24" fill="none" xmlns="http://www.w3.org/2000/svg">
<path d="M21.9999 2.99999H18.9999C18.4477 3.0001 17.9999 3.44777 17.9999 3.99999V4.208C20.3084 4.86096 21.9999 6.98246 21.9999 9.49998V11.0576C21.9999 20.3537 11.8208 26.0622 3.8886 21.2148L2.47844 20.3535C2.16139 20.1596 1.97769 19.8053 2.00188 19.4345C2.02618 19.0638 2.25422 18.7368 2.59368 18.5859L7.81438 16.2656C9.75141 15.4046 10.9999 13.484 10.9999 11.3642V9.49998C10.9999 6.63106 13.1968 4.27617 15.9999 4.02343V3.99999C15.9999 2.3432 17.3432 1.0001 18.9999 1H21.9999V2.99999ZM16.4999 5.99999C15.5466 6.00004 14.6829 6.38175 14.0517 6.99998H18.9482C18.317 6.38181 17.4532 5.99999 16.4999 5.99999Z" fill="#141414"/>
</svg>
