<svg width="24" height="24" viewBox="0 0 24 24" fill="none" xmlns="http://www.w3.org/2000/svg">
<path d="M14.1943 3.0127C15.7589 3.13595 17.1195 4.16835 17.6494 5.66602L18.8291 9H20C22.2091 9 24 10.7909 24 13V17C24 18.1046 23.1046 19 22 19H20.9639C20.7212 20.6961 19.2632 22 17.5 22C15.7368 22 14.2788 20.6961 14.0361 19H9.96387C9.72121 20.6961 8.2632 22 6.5 22C4.7368 22 3.27879 20.6961 3.03613 19H3C1.34315 19 0 17.6569 0 16V7C0 4.79086 1.79086 3 4 3H13.8789L14.1943 3.0127ZM6.5 17C5.82411 17 5.25116 17.4481 5.06445 18.0635C5.02251 18.2016 5 18.3482 5 18.5C5 19.3284 5.67157 20 6.5 20C7.32843 20 8 19.3284 8 18.5C8 18.3481 7.97657 18.2017 7.93457 18.0635C7.74777 17.4482 7.17579 17 6.5 17ZM17.5 17C16.8241 17 16.2512 17.4481 16.0645 18.0635C16.0225 18.2016 16 18.3482 16 18.5C16 19.3284 16.6716 20 17.5 20C18.3284 20 19 19.3284 19 18.5C19 18.3481 18.9766 18.2017 18.9346 18.0635C18.7478 17.4482 18.1758 17 17.5 17ZM4 5C2.89543 5 2 5.89543 2 7V9H5V5H4ZM7 9H16.708L15.7646 6.33398C15.4996 5.58473 14.8185 5.06731 14.0361 5.00586L13.8789 5H7V9Z" fill="#141414"/>
</svg>
