<svg width="24" height="24" viewBox="0 0 24 24" fill="none" xmlns="http://www.w3.org/2000/svg">
<path d="M9.5 2C10.759 2 11.9448 2.59248 12.7002 3.59961L13.9004 5.2002C14.2781 5.70362 14.8706 6 15.5 6H19C21.2091 6 23 7.79086 23 10V18C23 20.2091 21.2091 22 19 22H5C2.79086 22 1 20.2091 1 18V6C1 3.79086 2.79086 2 5 2H9.5ZM9 12.5V14.3945C9.00003 15.3976 9.50136 16.3342 10.3359 16.8906L11.4453 17.6299C11.7812 17.8538 12.2188 17.8538 12.5547 17.6299L13.6641 16.8906C14.4986 16.3342 15 15.3976 15 14.3945V12.5L12 11L9 12.5ZM5 4C3.89543 4 3 4.89543 3 6H12L11.0996 4.7998C10.7219 4.29638 10.1294 4 9.5 4H5Z" fill="#141414"/>
</svg>
