<svg width="24" height="24" viewBox="0 0 24 24" fill="none" xmlns="http://www.w3.org/2000/svg">
<path d="M10 22H2C1.44772 22 1.00001 21.5523 1 21C1 16.5817 4.58172 13 9 13H13L10 22ZM23 16.3281L17.707 21.6211C17.3165 22.0116 16.6835 22.0116 16.293 21.6211L13.293 18.6211L14.707 17.207L17 19.5L21.5859 14.9141L23 16.3281ZM9 2C11.6234 2 13.75 4.12665 13.75 6.75C13.75 9.37335 11.6234 11.5 9 11.5C6.37665 11.5 4.25 9.37335 4.25 6.75C4.25 4.12665 6.37665 2 9 2ZM15 2C17.6234 2 19.75 4.12665 19.75 6.75C19.75 9.37335 17.6234 11.5 15 11.5C14.554 11.5 14.1231 11.4363 13.7139 11.3213C14.8219 10.1188 15.5 8.51407 15.5 6.75C15.5 4.98567 14.8221 3.38032 13.7139 2.17773C14.1231 2.06285 14.5542 2 15 2Z" fill="#141414"/>
</svg>
