<svg width="24" height="24" viewBox="0 0 24 24" fill="none" xmlns="http://www.w3.org/2000/svg">
<path d="M19 13C21.2091 13 23 14.7909 23 17C23 19.2091 21.2091 21 19 21H5C2.79086 21 1 19.2091 1 17C1 14.7909 2.79086 13 5 13H19ZM6 15.5C5.17157 15.5 4.5 16.1716 4.5 17C4.5 17.8284 5.17157 18.5 6 18.5C6.82843 18.5 7.5 17.8284 7.5 17C7.5 16.1716 6.82843 15.5 6 15.5ZM19 3C21.2091 3 23 4.79086 23 7C23 9.20914 21.2091 11 19 11H5C2.79086 11 1 9.20914 1 7C1 4.79086 2.79086 3 5 3H19ZM6 5.5C5.17157 5.5 4.5 6.17157 4.5 7C4.5 7.82843 5.17157 8.5 6 8.5C6.82843 8.5 7.5 7.82843 7.5 7C7.5 6.17157 6.82843 5.5 6 5.5Z" fill="#141414"/>
</svg>
