<svg width="24" height="24" viewBox="0 0 24 24" fill="none" xmlns="http://www.w3.org/2000/svg">
<path d="M18.5625 1C19.1148 1 19.5625 1.44772 19.5625 2V7.62891L21.0674 9.38086C22.3142 10.8319 23 12.6816 23 14.5947V20C23 21.6569 21.6569 23 20 23H2V21H6V19.5742L3.98242 18.4014C2.13577 17.3269 1 15.351 1 13.2148V11C1 10.4477 1.44772 10 2 10H11.4521C11.6017 9.78684 11.7616 9.57988 11.9326 9.38086L13.4375 7.62891V2C13.4375 1.73478 13.5429 1.48051 13.7305 1.29297C13.918 1.10543 14.1723 1 14.4375 1H18.5625ZM8 19.5742V21H10.1738C10.0631 20.6869 10 20.351 10 20V18.4111L8 19.5742ZM3 13.2148C3 14.6393 3.75739 15.9567 4.98828 16.6729L7 17.8428L9.01172 16.6729C9.38828 16.4538 9.71955 16.1766 10 15.8574V14.5947C10 14.4796 10.0019 14.3646 10.0068 14.25C10.0096 14.1864 10.0153 14.123 10.0195 14.0596C10.0303 13.8994 10.0441 13.7397 10.0645 13.5811C10.0737 13.5088 10.0855 13.4371 10.0967 13.3652C10.1033 13.3229 10.1089 13.2805 10.1162 13.2383C10.1304 13.1559 10.1473 13.074 10.1641 12.9922C10.1694 12.9662 10.1741 12.94 10.1797 12.9141C10.195 12.8428 10.2113 12.7719 10.2285 12.7012C10.2392 12.6574 10.2503 12.6138 10.2617 12.5703C10.2764 12.5141 10.2917 12.4582 10.3076 12.4023C10.3242 12.3442 10.3415 12.2863 10.3594 12.2285C10.3768 12.1723 10.3945 12.1163 10.4131 12.0605C10.4198 12.0403 10.4267 12.0202 10.4336 12H3V13.2148Z" fill="#141414"/>
</svg>
