<svg width="24" height="24" viewBox="0 0 24 24" fill="none" xmlns="http://www.w3.org/2000/svg">
<path d="M19.0947 2.03549C20.8007 1.91991 21.9997 3.35088 22 4.87436V16.9388C21.9996 18.1383 20.9848 18.9817 19.9102 18.9867C16.3551 19.0026 13.6281 20.8206 12.707 21.7416C12.3166 22.1316 11.6834 22.1316 11.293 21.7416C10.3719 20.8206 7.64487 19.0026 4.08984 18.9867C3.08238 18.982 2.1275 18.2404 2.01172 17.1595L2 16.9388V4.87436C2.00029 3.35088 3.19934 1.91991 4.90527 2.03549C6.98218 2.17652 9.90849 2.78684 12 4.6185C14.0915 2.78684 17.0178 2.17652 19.0947 2.03549ZM11 18.0003H13V6.50033H11V18.0003Z" fill="#141414"/>
</svg>
