<svg width="24" height="24" viewBox="0 0 24 24" fill="none" xmlns="http://www.w3.org/2000/svg">
<path d="M19.5 13C21.1569 13 22.5 14.3431 22.5 16V17.2061H23C23.5523 17.2061 24 17.6538 24 18.2061V22C24 22.5523 23.5523 23 23 23H16C15.7348 23 15.4805 22.8946 15.293 22.707C15.1054 22.5195 15 22.2652 15 22V18.2061C15 17.6538 15.4477 17.2061 16 17.2061H16.5V16C16.5 14.3431 17.8431 13 19.5 13ZM19 3C21.2091 3 23 4.79086 23 7V11H17C14.7909 11 13 12.7909 13 15V21H5C2.79086 21 1 19.2091 1 17V7C1 4.79086 2.79086 3 5 3H19ZM19.5 15C18.9477 15 18.5 15.4477 18.5 16V17.2061H20.5V16C20.5 15.4477 20.0523 15 19.5 15ZM5 17H9V15H5V17ZM5 5C3.89543 5 3 5.89543 3 7V9H21V7C21 5.89543 20.1046 5 19 5H5Z" fill="#141414"/>
</svg>
