<svg width="24" height="24" viewBox="0 0 24 24" fill="none" xmlns="http://www.w3.org/2000/svg">
<path d="M19 5C21.2091 5 23 6.79086 23 9V17C23 19.2091 21.2091 21 19 21H5C2.79086 21 1 19.2091 1 17V9C1 6.79086 2.79086 5 5 5H11C11 2.79086 12.7909 1 15 1H18V3H15C13.8954 3 13 3.89543 13 5H19ZM14.5 14C13.6716 14 13 14.6716 13 15.5C13 16.3284 13.6716 17 14.5 17C15.3284 17 16 16.3284 16 15.5C16 14.6716 15.3284 14 14.5 14ZM7 12H5V14H7V16H9V14H11V12H9V10H7V12ZM17.5 9C16.6716 9 16 9.67157 16 10.5C16 11.3284 16.6716 12 17.5 12C18.3284 12 19 11.3284 19 10.5C19 9.67157 18.3284 9 17.5 9Z" fill="#141414"/>
</svg>
