<svg width="24" height="24" viewBox="0 0 24 24" fill="none" xmlns="http://www.w3.org/2000/svg">
<g clip-path="url(#clip0_1487_5578)">
<path d="M18.1582 1.80176C18.8736 0.716471 20.1029 3.72529e-08 21.5 0H23.5V2H21.5C20.7601 2 20.1155 2.40267 19.7695 3H22V5H20.4854C22.0561 6.9019 23 9.34067 23 12C23 18.0751 18.0751 23 12 23C5.92487 23 1 18.0751 1 12C1 5.92487 5.92487 1 12 1C13.2416 1 14.4345 1.20771 15.5479 1.58691L16.7695 3.29785L12.8213 4.0166L13.1787 5.9834L16.1035 5.45117L14.2109 7.88574L15.7891 9.11426L17.7324 6.61426L18.0039 9.59082L19.9961 9.40918L19.5957 5H18.5C18.177 5 17.8742 4.84385 17.6865 4.58105L15.1865 1.08105L16.8135 -0.0810547L18.1582 1.80176Z" fill="#141414"/>
</g>
<defs>
<clipPath id="clip0_1487_5578">
<rect width="24" height="24" fill="white"/>
</clipPath>
</defs>
</svg>
