<svg width="24" height="24" viewBox="0 0 24 24" fill="none" xmlns="http://www.w3.org/2000/svg">
<path d="M4.53098 2.0515L14.7614 2.73411C15.2447 2.76633 15.7011 2.9727 16.0437 3.31517L17.1921 4.4636C19.5196 6.7911 20.6733 10.0318 20.361 13.2907L22.1413 15.071C22.5317 15.4615 22.5318 16.0946 22.1413 16.4851L16.4851 22.1413C16.0946 22.5318 15.4615 22.5317 15.071 22.1413L13.2907 20.362C10.0298 20.6747 6.79003 19.5175 4.4636 17.1911L3.31517 16.0437C2.9727 15.7011 2.76633 15.2447 2.73411 14.7614L2.0515 4.53099C2.03232 4.24327 2.13861 3.96047 2.34251 3.75657L9.20773 10.6218C8.8564 11.5188 9.04264 12.5777 9.7673 13.3025C10.7436 14.2788 12.3261 14.2787 13.3024 13.3025C14.2788 12.3261 14.2788 10.7436 13.3024 9.76731C12.5776 9.04264 11.5188 8.85638 10.6218 9.20774L3.75657 2.34251L3.83665 2.27122C4.03114 2.11465 4.27926 2.03472 4.53098 2.0515Z" fill="#141414"/>
</svg>
