<svg width="24" height="24" viewBox="0 0 24 24" fill="none" xmlns="http://www.w3.org/2000/svg">
<path d="M12 1.5C18.0262 1.5 23 6.1533 23 12C23 17.8467 18.0262 22.5 12 22.5C10.3748 22.5 8.82885 22.1623 7.43652 21.5557L3.52832 22.5674C2.45279 22.8454 1.45829 21.8983 1.68359 20.8105L2.43457 17.1875C1.52303 15.6588 1 13.8877 1 12C1 6.1533 5.97382 1.5 12 1.5ZM12.0068 10.543L9.96387 8.5L8.5498 9.91406L10.5928 11.957L8.5498 14L9.96387 15.4141L12.0068 13.3711L14.0498 15.4141L15.4639 14L13.4209 11.957L15.4639 9.91406L14.0498 8.5L12.0068 10.543Z" fill="#141414"/>
</svg>
