<svg width="24" height="24" viewBox="0 0 24 24" fill="none" xmlns="http://www.w3.org/2000/svg">
<path d="M12 1C18.0768 1 23 5.93443 23 12.0176C23 15.0499 21.8936 17.6882 19.7793 19.8066C15.7206 23.8731 9.02425 24.0836 4.72266 20.2803C2.4408 18.2627 1.00002 15.3077 1 12.0176C1 8.9757 2.23196 6.21944 4.22168 4.22656C6.21099 2.23414 8.96251 1 12 1ZM12.959 9.71094C12.6052 9.54398 12.209 9.4502 11.792 9.4502C11.0439 9.45026 10.3644 9.75186 9.87109 10.2373C9.36487 10.7357 9.0498 11.4324 9.0498 12.2002C9.04991 13.7149 10.2738 14.9501 11.792 14.9502C12.5604 14.9502 13.2557 14.6316 13.752 14.123C14.2352 13.6278 14.5341 12.9478 14.5342 12.2002C14.5342 11.7962 14.4475 11.4115 14.291 11.0654L17.1846 8.17188L15.8408 6.82812L12.959 9.71094ZM11.792 11.3496C12.0265 11.3496 12.2382 11.4454 12.3926 11.6035C12.5428 11.7575 12.6348 11.9669 12.6348 12.2002C12.6347 12.4332 12.5426 12.642 12.3926 12.7959C12.2382 12.9541 12.0265 13.0498 11.792 13.0498C11.3309 13.0497 10.9503 12.6733 10.9502 12.2002C10.9502 11.9609 11.0468 11.7468 11.2041 11.5918C11.3572 11.4411 11.5636 11.3497 11.792 11.3496ZM12 5C10.0669 5 8.31529 5.78622 7.0498 7.05371C5.7842 8.32142 5 10.0756 5 12.0107H7C7 10.6261 7.55956 9.3745 8.46582 8.4668C9.37184 7.55941 10.6198 7 12 7V5Z" fill="#141414"/>
</svg>
