<svg width="24" height="24" viewBox="0 0 24 24" fill="none" xmlns="http://www.w3.org/2000/svg">
<path d="M15 2C18.866 2 22 5.13401 22 9C22 9.55228 21.5523 10 21 10H20V16H21C21.5523 16 22 16.4477 22 17C22 19.7614 19.7614 22 17 22H7C4.23858 22 2 19.7614 2 17C2 16.4477 2.44772 16 3 16H4V10H3C2.44772 10 2 9.55228 2 9C2 5.13401 5.13401 2 9 2H15ZM6 16H18V14H6V16ZM6 10V12H18V10H6ZM8 5C7.44772 5 7 5.44772 7 6C7 6.55228 7.44772 7 8 7C8.55228 7 9 6.55228 9 6C9 5.44772 8.55228 5 8 5ZM12 5C11.4477 5 11 5.44772 11 6C11 6.55228 11.4477 7 12 7C12.5523 7 13 6.55228 13 6C13 5.44772 12.5523 5 12 5ZM16 5C15.4477 5 15 5.44772 15 6C15 6.55228 15.4477 7 16 7C16.5523 7 17 6.55228 17 6C17 5.44772 16.5523 5 16 5Z" fill="#141414"/>
</svg>
