<svg width="24" height="24" viewBox="0 0 24 24" fill="none" xmlns="http://www.w3.org/2000/svg">
<path d="M9.00009 2C12.3963 2 15.2948 4.11584 16.4561 7.09961C16.7075 7.0512 16.9648 7.01972 17.2267 7.00684L17.5001 7C20.3691 7 22.724 9.1968 22.9767 12H23.0001V17.0332C23.0001 19.7615 20.7215 21.8647 18.1222 21.9912C18.0821 21.9961 18.0414 22 18.0001 22H8.00009C4.13414 22 1.0001 18.866 1.00009 15C1.00009 14.9316 1.00832 14.8647 1.02157 14.7998C1.01589 14.3619 1.00872 13.4852 1.00595 12.6689C1.00212 11.5446 1.00009 10.4184 1.00009 10.333H1.0079L1.00009 10C1.00009 9.99187 0.99989 9.98371 1.00009 9.97559L1.00888 9.61523C1.00909 9.60649 1.00941 9.59761 1.00985 9.58887C1.2176 5.49312 4.50478 2.21073 8.60165 2.00977L9.00009 2ZM8.70126 4.00781C5.63154 4.15845 3.1683 6.61591 3.00888 9.68262L3.00106 10.0117C3.00719 13.2162 5.52514 15.8316 8.69052 15.9922L9.00009 16H17.7667C17.8068 15.9904 17.8478 15.9822 17.8897 15.9775C19.6389 15.7841 21.0001 14.3006 21.0001 12.5C21.0001 10.567 19.4331 9 17.5001 9C17.0304 9.00001 16.584 9.0924 16.1768 9.25879C15.9076 9.36868 15.6039 9.35573 15.3448 9.22363C15.0856 9.09142 14.8963 8.85298 14.8272 8.57031C14.186 5.9463 11.8196 4 9.00009 4L8.70126 4.00781ZM9.50009 7C10.8808 7 12.0001 8.11929 12.0001 9.5C12.0001 10.8807 10.8808 12 9.50009 12C8.11944 11.9999 7.00009 10.8807 7.00009 9.5C7.00009 8.11933 8.11944 7.00007 9.50009 7Z" fill="#141414"/>
</svg>
