<svg width="24" height="24" viewBox="0 0 24 24" fill="none" xmlns="http://www.w3.org/2000/svg">
<path d="M21 4.5L4.40723 21L3 19.5859L19.5928 3.08594L21 4.5ZM17.0234 12.6797C19.1723 12.6799 20.9139 14.4307 20.9141 16.5898C20.9141 18.7491 19.1724 20.4997 17.0234 20.5C14.8743 20.5 13.1318 18.7492 13.1318 16.5898C13.132 14.4306 14.8744 12.6797 17.0234 12.6797ZM7.42871 3C9.57787 3 11.3203 4.75077 11.3203 6.91016C11.3202 9.06944 9.5778 10.8203 7.42871 10.8203C5.27973 10.8202 3.53724 9.06936 3.53711 6.91016C3.53711 4.75084 5.27965 3.00012 7.42871 3Z" fill="#141414"/>
</svg>
