<svg width="24" height="24" viewBox="0 0 24 24" fill="none" xmlns="http://www.w3.org/2000/svg">
<path d="M6 2C8.20914 2 10 3.79086 10 6C10 7.84689 8.74823 9.40117 7.04688 9.86133C7.24237 11.6662 8.047 13.3615 9.34277 14.6572C10.6385 15.953 12.3338 16.7576 14.1387 16.9531C14.5988 15.2518 16.1531 14 18 14C20.2091 14 22 15.7909 22 18C22 20.2091 20.2091 22 18 22C16.1221 22 14.5465 20.7059 14.1162 18.9609C11.788 18.7544 9.59461 17.7372 7.92871 16.0713C7.59215 15.7347 7.28228 15.3764 7 15V22H5V9.87402C3.27477 9.42998 2 7.86384 2 6C2 3.79086 3.79086 2 6 2ZM18 17C17.4477 17 17 17.4477 17 18C17 18.5523 17.4477 19 18 19C18.5523 19 19 18.5523 19 18C19 17.4477 18.5523 17 18 17ZM6 5C5.44772 5 5 5.44772 5 6C5 6.55228 5.44772 7 6 7C6.55228 7 7 6.55228 7 6C7 5.44772 6.55228 5 6 5Z" fill="#141414"/>
</svg>
