<svg width="24" height="24" viewBox="0 0 24 24" fill="none" xmlns="http://www.w3.org/2000/svg">
<path fill-rule="evenodd" clip-rule="evenodd" d="M20 13L4 13L4 11L20 11V13Z" fill="#141414"/>
<path fill-rule="evenodd" clip-rule="evenodd" d="M12 2C10.3431 2 9 3.34315 9 5C9 6.65685 10.3431 8 12 8C13.6569 8 15 6.65685 15 5C15 3.34315 13.6569 2 12 2Z" fill="#141414"/>
<path fill-rule="evenodd" clip-rule="evenodd" d="M12 16C10.3431 16 9 17.3431 9 19C9 20.6569 10.3431 22 12 22C13.6569 22 15 20.6569 15 19C15 17.3431 13.6569 16 12 16Z" fill="#141414"/>
</svg>
