<svg width="24" height="24" viewBox="0 0 24 24" fill="none" xmlns="http://www.w3.org/2000/svg">
<path d="M17 5C19.2091 5 21 6.79086 21 9V10H23V14H21V15C21 17.2091 19.2091 19 17 19H5C2.79086 19 1 17.2091 1 15V9C1 6.79086 2.79086 5 5 5H17ZM5 7C3.89543 7 3 7.89543 3 9V15C3 16.1046 3.89543 17 5 17H17C18.1046 17 19 16.1046 19 15V9C19 7.89543 18.1046 7 17 7H5ZM7.5 9C7.77614 9 8 9.22386 8 9.5V14.5C8 14.7761 7.77614 15 7.5 15H5.5C5.22386 15 5 14.7761 5 14.5V9.5C5 9.22386 5.22386 9 5.5 9H7.5Z" fill="#141414"/>
</svg>
