<svg width="24" height="24" viewBox="0 0 24 24" fill="none" xmlns="http://www.w3.org/2000/svg">
<path d="M11.2355 1.57827C11.7007 1.11333 12.3649 0.906315 13.0118 1.02554L15.4083 1.46694C16.0963 1.59386 16.6683 2.07251 16.9161 2.72671L20.7979 12.9767C20.8407 13.0897 20.8711 13.2053 20.8927 13.3214L21.5059 13.9347C23.068 15.4968 23.068 18.0298 21.5059 19.5919L20.0919 21.0059C18.5298 22.568 15.9968 22.568 14.4347 21.0059L13.8214 20.3927C13.7053 20.3711 13.5897 20.3407 13.4767 20.2979L3.22671 16.4161C2.57251 16.1683 2.09386 15.5963 1.96694 14.9083L1.52554 12.5118C1.40631 11.8649 1.61332 11.2007 2.07827 10.7355L3.21499 9.59875C3.36504 9.44872 3.5347 9.32821 3.71499 9.23547C3.72307 9.0538 3.75506 8.87117 3.81459 8.6925L4.84291 5.60755C5.04201 5.01058 5.51058 4.542 6.10755 4.34291L9.1925 3.31459C9.37117 3.25506 9.5538 3.22307 9.73547 3.21498C9.82821 3.0347 9.94872 2.86503 10.0988 2.71499L11.2355 1.57827ZM12.1329 17.6505L14.1847 18.4278L14.3263 18.2862L12.7101 17.0733L12.1329 17.6505ZM3.49233 12.1495L3.93471 14.545L10.0821 16.8731L11.0939 15.8614L4.62904 11.0128L3.49233 12.1495ZM14.1388 15.6446L15.5265 16.6856C15.5281 16.6869 15.5297 16.6883 15.5313 16.6895L15.754 16.8565L17.3565 15.254L17.1856 15.0265L16.1446 13.6388L14.1388 15.6446ZM6.74036 6.24036L5.71205 9.32531L5.81556 9.40246C5.82006 9.40578 5.82476 9.40887 5.82924 9.41223L12.5226 14.4327L14.9327 12.0226L9.91223 5.32924C9.90887 5.32476 9.90577 5.32006 9.90246 5.31556L9.82531 5.21205L6.74036 6.24036ZM17.5733 12.2101L18.7862 13.8263L18.9278 13.6847L18.1505 11.6329L17.5733 12.2101ZM11.5128 4.12904L16.3614 10.5939L17.3731 9.58215L15.045 3.43471L12.6495 2.99233L11.5128 4.12904Z" fill="#141414"/>
</svg>
