<svg width="24" height="24" viewBox="0 0 24 24" fill="none" xmlns="http://www.w3.org/2000/svg">
<path d="M13.4144 2.10083C14.5859 0.929272 16.485 0.929287 17.6566 2.10083L21.8998 6.34304C23.0711 7.51464 23.0713 9.41474 21.8998 10.5862L10.5862 21.8998C9.41474 23.0713 7.51465 23.0711 6.34305 21.8998L2.10084 17.6566C0.929289 16.485 0.929268 14.5859 2.10084 13.4144L13.4144 2.10083ZM4.92898 13.4144L7.75712 16.2425L9.17119 14.8284L6.34305 12.0003L4.92898 13.4144ZM8.46415 9.8792L11.2933 12.7073L12.7073 11.2933L9.8792 8.46415L8.46415 9.8792ZM12.0003 6.34304L14.8284 9.17216L16.2425 7.75711L13.4144 4.92897L12.0003 6.34304Z" fill="#141414"/>
</svg>
