<svg width="24" height="24" viewBox="0 0 24 24" fill="none" xmlns="http://www.w3.org/2000/svg">
<path d="M12 1.5C18.0262 1.5 23 6.1533 23 12C23 17.8467 18.0262 22.5 12 22.5C10.3748 22.5 8.82885 22.1623 7.43652 21.5557L3.52832 22.5674C2.45279 22.8454 1.45829 21.8983 1.68359 20.8105L2.43457 17.1875C1.52303 15.6588 1 13.8877 1 12C1 6.1533 5.97382 1.5 12 1.5ZM8 13.5C8 15.7091 9.79086 17.5 12 17.5C14.2091 17.5 16 15.7091 16 13.5H14C14 14.6046 13.1046 15.5 12 15.5C10.8954 15.5 10 14.6046 10 13.5H8ZM8.5 8.5C7.67157 8.5 7 9.17157 7 10C7 10.8284 7.67157 11.5 8.5 11.5C9.32843 11.5 10 10.8284 10 10C10 9.17157 9.32843 8.5 8.5 8.5ZM15.5 8.5C14.6716 8.5 14 9.17157 14 10C14 10.8284 14.6716 11.5 15.5 11.5C16.3284 11.5 17 10.8284 17 10C17 9.17157 16.3284 8.5 15.5 8.5Z" fill="#141414"/>
</svg>
