<svg width="24" height="24" viewBox="0 0 24 24" fill="none" xmlns="http://www.w3.org/2000/svg">
<path d="M20.8986 10.0301C21.2365 9.4508 21.9666 9.23339 22.5665 9.53304C23.109 9.80429 23.3853 10.4215 23.2257 11.0067L21.505 17.3153C20.9118 19.4906 18.9356 20.9998 16.6808 20.9998H8.35073C8.12368 20.9999 7.90302 21.0768 7.72573 21.2186L6.23647 22.411C5.82283 22.7415 5.22256 22.6923 4.8683 22.2987L1.63491 18.7049C1.27911 18.3096 1.29496 17.705 1.67104 17.3289L6.82827 12.1717C7.5783 11.4217 8.59569 11 9.65639 10.9998H15.5001C16.3285 10.9999 17.0001 11.6715 17.0001 12.4998C17.0001 13.3282 16.3285 13.9998 15.5001 13.9998H12.5001C12.224 13.9998 12.0002 14.2237 12.0001 14.4998C12.0001 14.776 12.224 14.9998 12.5001 14.9998H17.4259C17.7815 14.9997 18.11 14.8109 18.2892 14.5037L20.8986 10.0301Z" fill="#141414"/>
<path fill-rule="evenodd" clip-rule="evenodd" d="M13.5001 1.57015C14.5721 0.734167 16.1122 0.816086 17.088 1.82308C17.7243 2.47975 18.0127 3.26492 18.0001 4.07211C17.9879 4.8507 17.6976 5.58624 17.2999 6.21273C16.5148 7.4494 15.1594 8.49829 13.8165 8.94613C13.6113 9.01456 13.389 9.01454 13.1837 8.94613C11.8408 8.49834 10.4856 7.44948 9.70034 6.21273C9.30264 5.5862 9.01243 4.85077 9.00014 4.07211C8.98752 3.26491 9.27595 2.47976 9.91225 1.82308C10.8882 0.816166 12.4282 0.734004 13.5001 1.57015ZM15.6515 3.21468C15.371 2.92553 14.9291 2.92563 14.6486 3.21468L13.5001 4.40023L12.3517 3.21468C12.0712 2.92548 11.6293 2.92563 11.3488 3.21468C11.0819 3.49006 10.9958 3.76348 11.0001 4.04086C11.005 4.34691 11.1247 4.72436 11.3888 5.14046C11.8653 5.89099 12.689 6.56951 13.5001 6.92562C14.3112 6.56947 15.1351 5.89091 15.6115 5.14046C15.8755 4.72442 15.9953 4.34686 16.0001 4.04086C16.0044 3.76349 15.9183 3.49006 15.6515 3.21468Z" fill="#141414"/>
</svg>
