<svg width="24" height="24" viewBox="0 0 24 24" fill="none" xmlns="http://www.w3.org/2000/svg">
<path d="M9.99609 1.00483C11.2357 0.28729 12.7643 0.287289 14.0039 1.00483L20.5039 4.76752C21.7391 5.48261 22.4999 6.80224 22.5 8.22944V15.7705C22.4999 17.1977 21.7391 18.5172 20.5039 19.2324L14.0039 22.9951C12.7643 23.7127 11.2357 23.7127 9.99609 22.9951L3.49609 19.2324C2.26093 18.5172 1.50006 17.1977 1.5 15.7705V8.22944C1.50014 6.80224 2.26094 5.48261 3.49609 4.76752L9.99609 1.00483ZM12 14.4999C11.1716 14.4999 10.5001 15.1716 10.5 15.9999C10.5 16.8284 11.1716 17.4999 12 17.4999C12.8284 17.4999 13.5 16.8284 13.5 15.9999C13.4999 15.1716 12.8284 14.4999 12 14.4999ZM11 12.9999H13V6.49995H11V12.9999Z" fill="#141414"/>
</svg>
