<svg width="24" height="24" viewBox="0 0 24 24" fill="none" xmlns="http://www.w3.org/2000/svg">
<path d="M7 3C9.14293 3 10.6266 3.40658 11.9619 3.78809C13.2801 4.16471 14.4067 4.5 16 4.5C17.6599 4.5 19.1775 4.04502 20.2783 3.62598C21.5564 3.13969 22.9997 4.02959 23 5.47656V18.5859C23 19.0824 22.7958 19.764 22.125 20.1172L21.957 20.2002C21.0711 20.6151 19.4825 21 17 21C14.8571 21 13.3734 20.5934 12.0381 20.2119C10.7199 19.8353 9.59334 19.5 8 19.5C6.3401 19.5 4.82247 19.955 3.72168 20.374C2.44365 20.8603 1.00031 19.9704 1 18.5234V5.41406C1.00004 4.91757 1.20417 4.23596 1.875 3.88281L2.04297 3.7998C2.92888 3.38485 4.51746 3 7 3ZM12 8.55176C10.0672 8.55176 8.50024 10.1231 8.5 12.0615C8.5 14.0002 10.067 15.5723 12 15.5723C13.933 15.5723 15.5 14.0002 15.5 12.0615C15.4998 10.1231 13.9328 8.55176 12 8.55176ZM17 15.5693H19V10.0527H17V15.5693ZM5 14.0703H7V9.05566H5V14.0703ZM12 10.5576C12.8283 10.5576 13.4998 11.2309 13.5 12.0615C13.5 12.8924 12.8284 13.5664 12 13.5664C11.1716 13.5664 10.5 12.8924 10.5 12.0615C10.5002 11.2309 11.1717 10.5576 12 10.5576Z" fill="#141414"/>
</svg>
