<svg width="24" height="24" viewBox="0 0 24 24" fill="none" xmlns="http://www.w3.org/2000/svg">
<path d="M12 4H6C4.89543 4 4 4.89543 4 6V18C4 19.1046 4.89543 20 6 20H6.57031L14.6807 11.4385C15.3622 10.7191 16.4685 10.6065 17.2803 11.1748L21.5732 14.1807C21.8406 14.3678 22 14.6737 22 15V18C22 20.14 20.3194 21.8879 18.2061 21.9951L18 22H6C3.79086 22 2 20.2091 2 18V6C2 3.79086 3.79086 2 6 2H12V4ZM8.5 6C9.88071 6 11 7.11929 11 8.5C11 9.88071 9.88071 11 8.5 11C7.11929 11 6 9.88071 6 8.5C6 7.11929 7.11929 6 8.5 6ZM21 2.41406L18.9141 4.5H23V6.5H18.9141L21 8.58594L19.5859 10L15.793 6.20703C15.4025 5.81652 15.4025 5.18348 15.793 4.79297L19.5859 1L21 2.41406Z" fill="#141414"/>
</svg>
