<svg width="24" height="24" viewBox="0 0 24 24" fill="none" xmlns="http://www.w3.org/2000/svg">
<path d="M22 22H2V20H22V22ZM3.5 18H1V16H3.5V18ZM12 12C15.3173 12 18 14.7172 18 18H6C6 14.7172 8.68274 12 12 12ZM23 18H20.5V16H23V18ZM6.70703 10.293L5.29297 11.707L3.29297 9.70703L4.70703 8.29297L6.70703 10.293ZM20.707 9.70703L18.707 11.707L17.293 10.293L19.293 8.29297L20.707 9.70703ZM13 2V6.58594L15.293 4.29297L16.707 5.70703L12.707 9.70703C12.3165 10.0975 11.6835 10.0975 11.293 9.70703L7.29297 5.70703L8.70703 4.29297L11 6.58594V2H13Z" fill="#141414"/>
</svg>
