<svg width="24" height="24" viewBox="0 0 24 24" fill="none" xmlns="http://www.w3.org/2000/svg">
<path d="M18 2C20.2091 2 22 3.79086 22 6V18C22 20.2091 20.2091 22 18 22H6C3.79086 22 2 20.2091 2 18V6C2 3.79086 3.79086 2 6 2H18ZM6.29297 13.793C5.90244 14.1835 5.90244 14.8165 6.29297 15.207L9.29297 18.207L10.707 16.793L8.41406 14.5L10.707 12.207L9.29297 10.793L6.29297 13.793ZM13.293 12.207L15.5859 14.5L13.293 16.793L14.707 18.207L17.707 15.207C18.0976 14.8165 18.0976 14.1835 17.707 13.793L14.707 10.793L13.293 12.207ZM6 4C4.89543 4 4 4.89543 4 6V8H20V6C20 4.89543 19.1046 4 18 4H6Z" fill="#141414"/>
</svg>
