<svg width="24" height="24" viewBox="0 0 24 24" fill="none" xmlns="http://www.w3.org/2000/svg">
<path d="M12 11.0003C13.1046 11.0003 14 11.8957 14 13.0003C13.9998 14.1047 13.1044 15.0003 12 15.0003C10.8956 15.0003 10.0002 14.1047 10 13.0003C10 11.8957 10.8954 11.0003 12 11.0003Z" fill="#141414"/>
<path fill-rule="evenodd" clip-rule="evenodd" d="M9.54395 2.14386C10.9884 1.02041 13.0116 1.02041 14.4561 2.14386L20.4561 6.80988C21.4302 7.56761 21.9999 8.73299 22 9.9671V18.0003C21.9998 20.2093 20.209 22.0003 18 22.0003H6C3.79096 22.0003 2.00017 20.2093 2 18.0003V9.9671C2.00014 8.73299 2.56984 7.56761 3.54395 6.80988L9.54395 2.14386ZM12 9.00031C9.79086 9.00031 8 10.7912 8 13.0003C8.0002 15.2093 9.79098 17.0003 12 17.0003C14.209 17.0003 15.9998 15.2093 16 13.0003C16 10.7912 14.2091 9.00031 12 9.00031Z" fill="#141414"/>
</svg>
