<svg width="24" height="24" viewBox="0 0 24 24" fill="none" xmlns="http://www.w3.org/2000/svg">
<path fill-rule="evenodd" clip-rule="evenodd" d="M14.0815 1.35773C15.656 0.65077 17.5011 1.41457 18.1147 3.02765L18.9155 5.1341L21.022 5.93586C22.6353 6.5492 23.3997 8.39449 22.6929 9.96906L21.769 12.0247L22.6929 14.0814C23.3999 15.6558 22.6361 17.501 21.0229 18.1146L18.9155 18.9144L18.1147 21.0218C17.5013 22.6351 15.6561 23.3995 14.0815 22.6927L12.0249 21.7689L9.96922 22.6927C8.3948 23.3995 6.54955 22.6358 5.93602 21.0228L5.13523 18.9144L3.02879 18.1146C1.41562 17.5011 0.651142 15.6558 1.35789 14.0814L2.28074 12.0247L1.35789 9.96906C0.651083 8.39468 1.41487 6.54946 3.02781 5.93586L5.13523 5.1341L5.93602 3.02863C6.54937 1.41536 8.3947 0.650998 9.96922 1.35773L12.0249 2.28058L14.0815 1.35773ZM10.9682 13.0902L8.70457 10.8411L7.29539 12.2601L10.2632 15.2093C10.653 15.5965 11.2824 15.5964 11.6723 15.2093L16.7046 10.2093L15.2954 8.79035L10.9682 13.0902Z" fill="#141414"/>
</svg>
