<svg width="24" height="24" viewBox="0 0 24 24" fill="none" xmlns="http://www.w3.org/2000/svg">
<path d="M12 22H2C1.44772 22 1.00001 21.5523 1 21C1 16.5817 4.58172 13 9 13H14L12 22ZM23 15.4141L20.707 17.707L23 20L21.5859 21.4141L19.293 19.1211L17 21.4141L15.5859 20L17.8789 17.707L15.5859 15.4141L17 14L19.293 16.293L21.5859 14L23 15.4141ZM9 2C11.6234 2 13.75 4.12665 13.75 6.75C13.75 9.37335 11.6234 11.5 9 11.5C6.37665 11.5 4.25 9.37335 4.25 6.75C4.25 4.12665 6.37665 2 9 2ZM15 2C17.6234 2 19.75 4.12665 19.75 6.75C19.75 9.37335 17.6234 11.5 15 11.5C14.554 11.5 14.1231 11.4363 13.7139 11.3213C14.8219 10.1188 15.5 8.51407 15.5 6.75C15.5 4.98567 14.8221 3.38032 13.7139 2.17773C14.1231 2.06285 14.5542 2 15 2Z" fill="#141414"/>
</svg>
