<svg width="24" height="24" viewBox="0 0 24 24" fill="none" xmlns="http://www.w3.org/2000/svg">
<path d="M18 2C20.2091 2 22 3.79086 22 6V18C22 20.2091 20.2091 22 18 22H6C3.79086 22 2 20.2091 2 18V6C2 3.79086 3.79086 2 6 2H18ZM12 7C10.067 7 8.5 8.567 8.5 10.5C8.5 11.9493 9.38119 13.192 10.6367 13.7236L9.36133 16.2764C9.19533 16.6087 9.43721 16.9997 9.80859 17H14.1914C14.5628 16.9997 14.8047 16.6087 14.6387 16.2764L13.3623 13.7236C14.6183 13.1922 15.5 11.9496 15.5 10.5C15.5 8.567 13.933 7 12 7Z" fill="#141414"/>
</svg>
