<svg width="24" height="24" viewBox="0 0 24 24" fill="none" xmlns="http://www.w3.org/2000/svg">
<path d="M11.0511 1.32976C11.6664 1.12479 12.3323 1.12493 12.9476 1.32976L19.8245 3.62273C21.137 4.06034 21.9802 5.33879 21.8655 6.71747L21.3284 13.156C21.0927 15.9844 19.5369 18.5364 17.1302 20.0407L12.5296 22.9157C12.2054 23.1182 11.7933 23.1183 11.4691 22.9157L6.86853 20.0407C4.46208 18.5364 2.90605 15.9842 2.6703 13.156L2.13319 6.71747C2.01857 5.33897 2.86207 4.06048 4.1742 3.62273L11.0511 1.32976ZM11.0726 6.56415C10.4635 6.65607 9.89912 6.94882 9.46618 7.39716C8.93764 7.9447 8.64588 8.68047 8.64587 9.44013C8.64593 10.1998 8.93754 10.9356 9.46618 11.4831C9.99596 12.0317 10.7228 12.3463 11.4877 12.3464H12.6585C12.87 12.3464 13.08 12.4339 13.2406 12.6003C13.4024 12.7678 13.4994 13.002 13.4994 13.2536C13.4993 13.5051 13.4023 13.7395 13.2406 13.9069C13.08 14.0731 12.8699 14.1599 12.6585 14.1599H10.9593C10.5953 14.1596 10.2995 13.8647 10.2992 13.5007H8.29919C8.29955 14.9693 9.49074 16.1596 10.9593 16.1599H11.0726V17.5007H13.0726V16.1296C13.6819 16.0378 14.247 15.745 14.68 15.2966C15.2086 14.7491 15.4993 14.0133 15.4994 13.2536C15.4994 12.4939 15.2087 11.7582 14.68 11.2106C14.1502 10.6619 13.4235 10.3464 12.6585 10.3464H11.4877C11.2763 10.3463 11.0652 10.2597 10.9046 10.0934C10.7431 9.92597 10.6459 9.69146 10.6459 9.44013C10.6459 9.18883 10.7432 8.95432 10.9046 8.78681C11.0652 8.62051 11.2763 8.53395 11.4877 8.53388H12.933C13.2459 8.53393 13.4994 8.78732 13.4994 9.10028H15.4994C15.4994 7.72971 14.425 6.60953 13.0726 6.5368V5.50067H11.0726V6.56415Z" fill="#141414"/>
</svg>
