<svg width="24" height="24" viewBox="0 0 24 24" fill="none" xmlns="http://www.w3.org/2000/svg">
<path d="M12 7C12.8284 7 13.5 7.67157 13.5 8.5C13.5 8.94357 13.3061 9.34061 13 9.61523V14H20C21.6569 14 23 15.3431 23 17V20C23 21.6569 21.6569 23 20 23H4C2.3949 23 1.08421 21.7394 1.00391 20.1543L1 20V17C1 15.3431 2.34315 14 4 14H11V9.61523C10.6939 9.34061 10.5 8.94357 10.5 8.5C10.5 7.67157 11.1716 7 12 7ZM4.04883 2.8457C2.78553 5.55411 2.62091 9.18052 3.78906 12.0449L1.9375 12.8008C0.549689 9.39792 0.74804 5.19068 2.23633 2L4.04883 2.8457ZM21.7637 2C23.252 5.19068 23.4503 9.39792 22.0625 12.8008L20.2109 12.0449C21.3791 9.18052 21.2145 5.55411 19.9512 2.8457L21.7637 2ZM7.91406 4.5332C7.07495 6.42671 7.01456 9.01645 7.89258 11.0879L6.05176 11.8682C4.95696 9.28531 5.02353 6.11981 6.08594 3.72266L7.91406 4.5332ZM17.9141 3.72266C18.9765 6.11982 19.043 9.28531 17.9482 11.8682L16.1074 11.0879C16.9854 9.01645 16.9251 6.42671 16.0859 4.5332L17.9141 3.72266Z" fill="#141414"/>
</svg>
