<svg width="24" height="24" viewBox="0 0 24 24" fill="none" xmlns="http://www.w3.org/2000/svg">
<path d="M20 15V19.5859L21.5859 18L23 19.4141L19.707 22.707C19.3165 23.0974 18.6835 23.0975 18.293 22.707L15 19.4141L16.4141 18L18 19.5859V15H20ZM18 2C20.2091 2 22 3.79086 22 6V12H19C16.6217 12 14.5219 13.1871 13.2568 15H10C7.23858 15 5 17.2386 5 20H12V22H6C3.79086 22 2 20.2091 2 18V6C2 3.79086 3.79086 2 6 2H18ZM12 6C10.3431 6 9 7.34315 9 9C9 10.6569 10.3431 12 12 12C13.6569 12 15 10.6569 15 9C15 7.34315 13.6569 6 12 6Z" fill="#141414"/>
</svg>
