<svg width="24" height="24" viewBox="0 0 24 24" fill="none" xmlns="http://www.w3.org/2000/svg">
<path d="M8.71778 1.50685C9.03919 1.495 9.3639 1.49902 9.69044 1.51955C10.0172 1.54009 10.3459 1.57699 10.6748 1.62892C13.3063 2.04457 16.0395 3.45157 18.294 5.70607C19.4211 6.83325 20.336 8.08017 21.0215 9.37404C21.1072 9.53589 21.19 9.69816 21.2686 9.86134C21.8178 11.0029 22.1893 12.1739 22.3711 13.3252C22.4749 13.9829 22.5169 14.6392 22.4932 15.2822C22.4813 15.6038 22.4526 15.922 22.4072 16.2354C22.294 17.0186 22.0747 17.7717 21.7412 18.4717C21.6744 18.6119 21.6034 18.75 21.5274 18.8858C21.4514 19.0214 21.3705 19.1544 21.2852 19.2852C21.1999 19.4159 21.1104 19.5444 21.0156 19.6699C20.8262 19.9211 20.6178 20.1616 20.3897 20.3897C20.1616 20.6178 19.9211 20.8262 19.6699 21.0156C19.5444 21.1104 19.4159 21.1999 19.2852 21.2852C19.1544 21.3705 19.0214 21.4514 18.8858 21.5274C18.75 21.6034 18.6119 21.6744 18.4717 21.7412C17.7717 22.0747 17.0186 22.294 16.2354 22.4072C15.6083 22.4979 14.9621 22.5206 14.3086 22.4795C13.9821 22.459 13.6538 22.423 13.3252 22.3711C12.1739 22.1893 11.0029 21.8178 9.86134 21.2686C9.69452 21.1883 9.52872 21.1035 9.36329 21.0156C8.07329 20.3308 6.8301 19.418 5.70607 18.294C3.45157 16.0395 2.04456 13.3063 1.62892 10.6748C1.21358 8.04434 1.78552 5.43521 3.61036 3.61037C4.97902 2.24171 6.78865 1.57801 8.71778 1.50685ZM6.63478 3.95607C6.02518 4.20967 5.48224 4.56661 5.02443 5.02443C4.86584 5.18302 4.7184 5.3511 4.584 5.52931C9.8835 6.46018 14.1986 10.3352 15.6807 15.5225L16.0381 16.7744L17.9619 16.2256L17.6035 14.9727C16.0727 9.61514 11.896 5.48408 6.63478 3.95607Z" fill="#141414"/>
</svg>
