<svg width="24" height="24" viewBox="0 0 24 24" fill="none" xmlns="http://www.w3.org/2000/svg">
<path d="M12 1C16.9706 1 21 5.02944 21 10C21 13.6784 18.9392 15.686 17.0176 17.2979C15.0175 18.9755 13.3951 20.1232 12.9805 22.1963C12.8869 22.6636 12.4766 23 12 23C11.5234 23 11.1131 22.6636 11.0195 22.1963C10.6049 20.1232 8.98247 18.9755 6.98242 17.2979C5.06077 15.686 3 13.6784 3 10C3 5.02944 7.02944 1 12 1ZM12 7C10.3431 7 9 8.34315 9 10C9 11.6569 10.3431 13 12 13C13.6569 13 15 11.6569 15 10C15 8.34315 13.6569 7 12 7Z" fill="#141414"/>
</svg>
