<svg width="24" height="24" viewBox="0 0 24 24" fill="none" xmlns="http://www.w3.org/2000/svg">
<path d="M18 2C20.2091 2 22 3.79086 22 6V18C22 20.2091 20.2091 22 18 22H6C3.79086 22 2 20.2091 2 18V6C2 3.79086 3.79086 2 6 2H18ZM6.29297 11.293C5.90244 11.6835 5.90244 12.3165 6.29297 12.707L9.29297 15.707L10.707 14.293L8.41406 12L10.707 9.70703L9.29297 8.29297L6.29297 11.293ZM13.293 9.70703L15.5859 12L13.293 14.293L14.707 15.707L17.707 12.707C18.0975 12.3165 18.0975 11.6835 17.707 11.293L14.707 8.29297L13.293 9.70703Z" fill="#141414"/>
</svg>
