<svg width="24" height="24" viewBox="0 0 24 24" fill="none" xmlns="http://www.w3.org/2000/svg">
<path d="M17.5068 2.40188C19.3354 2.09718 21 3.50805 21 5.36184V16.0005C20.9997 18.2094 19.209 20.0005 17 20.0005C14.791 20.0005 13.0003 18.2094 13 16.0005C13 13.7914 14.7909 12.0005 17 12.0005C17.7288 12.0005 18.4116 12.1961 19 12.5366V5.36184C19 4.74398 18.4454 4.27409 17.8359 4.37551L9.83594 5.70852C9.35379 5.78891 9 6.20603 9 6.69485V18.0005C8.99975 20.2094 7.20898 22.0005 5 22.0005C2.79102 22.0005 1.00025 20.2094 1 18.0005C1 15.7914 2.79086 14.0005 5 14.0005C5.72875 14.0005 6.41155 14.1961 7 14.5366V6.69485C7 5.22836 8.06032 3.97699 9.50684 3.73586L17.5068 2.40188Z" fill="#141414"/>
</svg>
