<svg width="24" height="24" viewBox="0 0 24 24" fill="none" xmlns="http://www.w3.org/2000/svg">
<path d="M9.82031 1.72506C11.1459 0.863458 12.8541 0.863457 14.1797 1.72506L21.1797 6.27485C22.3147 7.0127 23 8.27458 23 9.62835V19.0004C22.9998 21.2093 21.209 23.0004 19 23.0004H5C2.79101 23.0004 1.00024 21.2093 1 19.0004V9.62835C1.00004 8.27458 1.6853 7.0127 2.82031 6.27485L9.82031 1.72506ZM13.0898 3.40181C12.4271 2.971 11.573 2.971 10.9102 3.40181L3.91016 7.9516C3.82167 8.00913 3.73823 8.07258 3.66113 8.14203L10.7607 13.7475C11.4873 14.3209 12.5127 14.3209 13.2393 13.7475L20.3379 8.14203C20.2609 8.07277 20.1781 8.00899 20.0898 7.9516L13.0898 3.40181Z" fill="#141414"/>
</svg>
