<svg width="24" height="24" viewBox="0 0 24 24" fill="none" xmlns="http://www.w3.org/2000/svg">
<path d="M10.5 4.51657C10.5 3.08073 11.9683 2.11307 13.2881 2.67868L15.8633 3.78219C18.0693 4.72766 19.5 6.89673 19.5 9.29684V10.8281C19.4999 12.4653 18.9259 14.0508 17.8779 15.3086L16.7686 16.6406L15.2314 15.3593L16.3408 14.0283C17.0895 13.1299 17.4999 11.9975 17.5 10.8281V9.29684C17.5 7.69679 16.5459 6.2504 15.0752 5.62008L12.5 4.51657V18C12.4999 20.209 10.7091 22 8.5 22C6.29091 22 4.50009 20.209 4.5 18C4.5 15.7908 6.29086 14 8.5 14C9.22875 14 9.91155 14.1956 10.5 14.5361V4.51657Z" fill="#141414"/>
</svg>
