<svg width="24" height="24" viewBox="0 0 24 24" fill="none" xmlns="http://www.w3.org/2000/svg">
<path d="M12 1C12.2356 1 12.4693 1.00982 12.7012 1.02441C12.7103 1.02499 12.7194 1.02577 12.7285 1.02637C12.9045 1.03788 13.0793 1.05258 13.2529 1.07227C13.2699 1.07419 13.2868 1.0771 13.3037 1.0791C13.4769 1.09956 13.6487 1.12394 13.8193 1.15234C13.8232 1.15299 13.8271 1.15364 13.8311 1.1543C14.008 1.18396 14.1834 1.21786 14.3574 1.25586C14.3725 1.25915 14.3873 1.26325 14.4023 1.2666C15.1078 1.42381 15.7874 1.64806 16.4346 1.93359C16.4515 1.94107 16.4685 1.9485 16.4854 1.95605C16.6337 2.02241 16.78 2.09239 16.9248 2.16504C16.9309 2.16811 16.9373 2.17075 16.9434 2.17383C17.7491 2.57997 18.4977 3.08165 19.1748 3.66504C19.1827 3.67182 19.1904 3.67875 19.1982 3.68555C19.4691 3.92023 19.7279 4.168 19.9746 4.42773C19.9908 4.44476 20.0074 4.46139 20.0234 4.47852C20.2095 4.67694 20.3885 4.88194 20.5596 5.09375C20.6136 5.16063 20.6662 5.22871 20.7188 5.29688C20.778 5.37389 20.8363 5.45167 20.8936 5.53027C20.9453 5.60119 20.9959 5.67293 21.0459 5.74512C21.0985 5.82103 21.1505 5.89733 21.2012 5.97461C21.2442 6.04018 21.2864 6.10632 21.3281 6.17285C21.3741 6.24627 21.4196 6.31996 21.4639 6.39453C21.5154 6.48123 21.5651 6.56902 21.6143 6.65723C21.6406 6.70445 21.6677 6.75118 21.6934 6.79883C21.7593 6.92138 21.8224 7.04562 21.8838 7.1709C21.899 7.20188 21.9148 7.23253 21.9297 7.26367C21.9891 7.38796 22.0457 7.51381 22.1006 7.64062C22.1242 7.69537 22.1471 7.75046 22.1699 7.80566C22.2174 7.92041 22.264 8.03568 22.3076 8.15234C22.3259 8.20122 22.3428 8.2506 22.3604 8.2998C22.3981 8.4055 22.4341 8.51198 22.4688 8.61914C22.4924 8.69236 22.515 8.76596 22.5371 8.83984C22.6261 9.13661 22.7036 9.43837 22.7676 9.74512C22.7716 9.7643 22.7754 9.78352 22.7793 9.80273C22.8103 9.95525 22.8377 10.1089 22.8623 10.2637C22.8677 10.2975 22.8729 10.3313 22.8779 10.3652C22.9009 10.5195 22.921 10.6748 22.9375 10.8311C22.9413 10.8675 22.9448 10.9039 22.9482 10.9404C22.9634 11.0983 22.975 11.2572 22.9834 11.417C22.9842 11.4316 22.9846 11.4463 22.9854 11.4609C22.994 11.6396 23 11.8192 23 12C23 12.1693 22.9939 12.3375 22.9863 12.5049C22.9847 12.5411 22.9834 12.5772 22.9814 12.6133C22.9727 12.7718 22.9607 12.9293 22.9453 13.0859C22.9415 13.1244 22.9378 13.1628 22.9336 13.2012C22.9186 13.339 22.9009 13.476 22.8809 13.6123C22.8765 13.6419 22.8728 13.6716 22.8682 13.7012C22.8439 13.8573 22.816 14.0122 22.7852 14.166C22.7796 14.1937 22.7743 14.2214 22.7686 14.249C22.7067 14.546 22.6321 14.8383 22.5469 15.126C22.523 15.2068 22.4984 15.2872 22.4727 15.3672C22.458 15.4126 22.4429 15.4578 22.4277 15.5029C22.3826 15.6372 22.3352 15.7704 22.2852 15.9023C22.2562 15.9787 22.226 16.0544 22.1953 16.1299C22.1595 16.2183 22.123 16.3063 22.085 16.3936C22.0425 16.4907 21.9982 16.5869 21.9531 16.6826C21.9252 16.7418 21.8971 16.8008 21.8682 16.8594C21.8213 16.9544 21.7722 17.0482 21.7227 17.1416C20.2483 19.9238 17.6176 21.9954 14.4688 22.7178C14.4222 22.7285 14.3758 22.7399 14.3291 22.75C14.2355 22.7702 14.1414 22.7888 14.0469 22.8066C13.9862 22.8181 13.9253 22.8284 13.8643 22.8389C13.7763 22.8539 13.6883 22.8689 13.5996 22.8818C13.4627 22.902 13.325 22.9195 13.1865 22.9346C13.12 22.9417 13.0532 22.9472 12.9863 22.9531C12.8777 22.9629 12.7687 22.971 12.6592 22.9775C12.6046 22.9808 12.5499 22.9839 12.4951 22.9863C12.331 22.9937 12.166 23 12 23C11.8252 23 11.6513 22.9944 11.4785 22.9863C11.4541 22.9852 11.4297 22.9837 11.4053 22.9824C11.2412 22.9737 11.0781 22.9622 10.916 22.9463C10.8863 22.9434 10.8568 22.9397 10.8271 22.9365C10.6662 22.9194 10.5064 22.899 10.3477 22.875C10.3215 22.8711 10.2956 22.8664 10.2695 22.8623C10.1148 22.8378 9.96108 22.8111 9.80859 22.7803C9.79727 22.778 9.78573 22.7767 9.77441 22.7744C9.61254 22.7411 9.45216 22.7034 9.29297 22.6631C9.26555 22.6561 9.23827 22.6487 9.21094 22.6416C9.07381 22.6057 8.93772 22.5674 8.80273 22.5264C8.73733 22.5065 8.6723 22.4859 8.60742 22.4648C8.51249 22.434 8.418 22.4024 8.32422 22.3691C8.24986 22.3428 8.17615 22.315 8.10254 22.2871C8.01171 22.2526 7.92169 22.2165 7.83203 22.1797C7.77661 22.157 7.72098 22.1349 7.66602 22.1113C7.54698 22.0602 7.42932 22.0064 7.3125 21.9512C7.25794 21.9254 7.20348 21.8997 7.14941 21.873C7.05045 21.8243 6.95273 21.7733 6.85547 21.7217C6.78011 21.6817 6.70516 21.6413 6.63086 21.5996C6.5722 21.5667 6.51404 21.533 6.45605 21.499C6.32368 21.4216 6.19322 21.3415 6.06445 21.2588C6.04402 21.2456 6.02327 21.233 6.00293 21.2197C3.43585 19.5465 1.60937 16.8327 1.12695 13.6748C1.10116 13.5065 1.07952 13.3368 1.06152 13.166V13.165C1.02122 12.7822 1 12.3935 1 12C1 11.5015 1.03635 11.0112 1.10059 10.5303L1.09961 10.5312C1.10253 10.5094 1.10633 10.4876 1.10938 10.4658C1.12517 10.3526 1.14192 10.24 1.16113 10.1279C1.16836 10.0858 1.17687 10.0439 1.18457 10.002C1.20589 9.88578 1.22799 9.77014 1.25293 9.65527C1.26365 9.60591 1.27573 9.55692 1.28711 9.50781C1.44814 8.81284 1.67413 8.14343 1.95996 7.50586C1.97296 7.47686 1.98578 7.44781 1.99902 7.41895C2.05199 7.30351 2.10726 7.18942 2.16406 7.07617C2.17927 7.04584 2.19448 7.01552 2.20996 6.98535C2.46193 6.49442 2.75013 6.02569 3.07031 5.58105C3.08657 5.55848 3.10174 5.53514 3.11816 5.5127C3.18914 5.41569 3.2619 5.32015 3.33594 5.22559C3.36064 5.19404 3.3861 5.16311 3.41113 5.13184C3.4452 5.08929 3.47703 5.04496 3.51172 5.00293L3.6582 4.83203C3.67158 4.81648 3.68576 4.80161 3.69922 4.78613C4.15489 4.26225 4.65895 3.78227 5.20508 3.35254C5.23804 3.32661 5.27045 3.29997 5.30371 3.27441C5.38892 3.20892 5.47534 3.14505 5.5625 3.08203C5.60524 3.05113 5.64821 3.02053 5.69141 2.99023C5.78229 2.92648 5.87392 2.86378 5.9668 2.80273C5.9975 2.78255 6.02865 2.76304 6.05957 2.74316C6.52061 2.44669 7.005 2.18406 7.50977 1.95801C7.53742 1.94563 7.565 1.93306 7.59277 1.9209C7.63493 1.90244 7.67632 1.8822 7.71875 1.86426L7.9873 1.75684C8.00188 1.75112 8.01664 1.74589 8.03125 1.74023C8.1539 1.69276 8.27761 1.64765 8.40234 1.60449C8.41217 1.60109 8.4218 1.59712 8.43164 1.59375C8.98261 1.40486 9.55311 1.25911 10.1396 1.15918C10.1608 1.15558 10.1819 1.15192 10.2031 1.14844C10.3313 1.12737 10.4602 1.10937 10.5898 1.09277C10.611 1.09006 10.6321 1.08657 10.6533 1.08398C11.0948 1.03009 11.544 1 12 1ZM12 3C11.6908 3 11.3852 3.01545 11.084 3.0459C11.1829 3.60889 11.2634 4.17451 11.3223 4.74219C8.59332 5.42504 6.02841 6.64617 3.7793 8.33496C3.3383 9.32262 3.06787 10.4037 3.01074 11.541L4.22266 10.5322C6.33564 8.77147 8.80128 7.49326 11.4463 6.77637C11.4694 8.03002 11.3955 9.28615 11.2217 10.5332C11.1922 10.7444 11.1601 10.9554 11.125 11.166L11.1064 11.2803L10.9111 11.3584C8.31447 12.3971 5.90471 13.8471 3.77344 15.6504C4.05125 16.2755 4.39634 16.8639 4.80273 17.4043C5.45837 16.8326 6.1425 16.2964 6.85449 15.8008C8.40925 17.8273 10.2849 19.5785 12.4023 20.9893C13.4132 20.9448 14.3799 20.733 15.2773 20.3818C12.664 18.9859 10.3728 17.0584 8.55078 14.7246C9.54584 14.1491 10.5828 13.6444 11.6543 13.2158L11.8301 13.1445C11.8311 13.1454 11.8319 13.1466 11.833 13.1475L14.3076 15.126C15.68 16.2238 17.1608 17.1784 18.7256 17.9775C19.173 17.4745 19.565 16.9216 19.8916 16.3271L19.8164 16.29C19.1846 15.9741 18.5686 15.6287 17.9678 15.2588C18.9366 12.5645 19.4174 9.72909 19.4023 6.88281C18.8239 6.04766 18.108 5.31588 17.2871 4.71875C17.6129 7.88232 17.262 11.08 16.2539 14.0986C16.0188 13.9243 15.7854 13.7474 15.5566 13.5645L13.083 11.5859L13.0977 11.4951C13.5633 8.70118 13.5657 5.85607 13.1152 3.07129C12.7497 3.0261 12.3777 3 12 3Z" fill="#141414"/>
</svg>
