<svg width="24" height="24" viewBox="0 0 24 24" fill="none" xmlns="http://www.w3.org/2000/svg">
<path fill-rule="evenodd" clip-rule="evenodd" d="M9.54395 2.14386C10.9884 1.02041 13.0116 1.02041 14.4561 2.14386L20.4561 6.80988C21.4302 7.56761 21.9999 8.733 22 9.9671V18.0003C21.9998 20.2093 20.209 22.0003 18 22.0003H6C3.79097 22.0003 2.00018 20.2093 2 18.0003V9.9671C2.00014 8.733 2.56984 7.56761 3.54395 6.80988L9.54395 2.14386ZM7 13.0003C7.00021 15.7616 9.23871 18.0003 12 18.0003C14.7613 18.0003 16.9998 15.7616 17 13.0003H15C14.9998 14.657 13.6567 16.0003 12 16.0003C10.3433 16.0003 9.00021 14.657 9 13.0003H7Z" fill="#141414"/>
</svg>
