<svg width="24" height="24" viewBox="0 0 24 24" fill="none" xmlns="http://www.w3.org/2000/svg">
<path d="M22.7129 21.2129L21.2988 22.627L17.6719 19H16C16 21.2091 14.2091 23 12 23C9.79086 23 8 21.2091 8 19H3.86816C2.27137 18.9994 1.31857 17.2195 2.2041 15.8906L4 13.1963V9C4 7.91473 4.21737 6.8808 4.60938 5.9375L1.5 2.82812L2.91406 1.41406L22.7129 21.2129ZM10 19C10 20.1046 10.8954 21 12 21C13.1046 21 14 20.1046 14 19H10ZM12 1C16.4181 1.00022 20 4.58186 20 9V13.1963L21.7959 15.8906C22.1785 16.4647 22.2171 17.123 22.0098 17.6855L7.04492 2.7207C8.40763 1.644 10.1285 1.0001 12 1Z" fill="#141414"/>
</svg>
