<svg width="24" height="24" viewBox="0 0 24 24" fill="none" xmlns="http://www.w3.org/2000/svg">
<path d="M9 12C10.6569 12 12 13.3431 12 15V19C12 20.6569 10.6569 22 9 22H5C3.34315 22 2 20.6569 2 19V15C2 13.3431 3.34315 12 5 12H9ZM18 2C20.2091 2 22 3.79086 22 6V18C22 20.2091 20.2091 22 18 22H15V20H18C19.1046 20 20 19.1046 20 18V6C20 5.8211 19.9738 5.64841 19.9297 5.4834L15.4141 10H18V12H13C12.4477 12 12 11.5523 12 11V6H14V8.58496L18.5156 4.06934C18.351 4.02547 18.1785 4 18 4H6C4.89543 4 4 4.89543 4 6V9H2V6C2 3.79086 3.79086 2 6 2H18Z" fill="#141414"/>
</svg>
