<svg width="24" height="24" viewBox="0 0 24 24" fill="none" xmlns="http://www.w3.org/2000/svg">
<path d="M12 1C18.0751 1 23 5.92487 23 12C23 18.0751 18.0751 23 12 23C5.92487 23 1 18.0751 1 12C1 5.92487 5.92487 1 12 1ZM12 14C10.8954 14 10 14.8954 10 16C10 17.1046 10.8954 18 12 18C13.1046 18 14 17.1046 14 16C14 14.8954 13.1046 14 12 14ZM6.05859 9.92773L6.6084 11.8506L10.4971 10.7393L9.94727 8.81641L6.05859 9.92773ZM13.5029 10.7393L17.3916 11.8506L17.9414 9.92773L14.0527 8.81641L13.5029 10.7393Z" fill="#141414"/>
</svg>
