<svg width="24" height="24" viewBox="0 0 24 24" fill="none" xmlns="http://www.w3.org/2000/svg">
<path d="M6.5 13C8.06001 13 9.43391 13.7943 10.2412 15H19.5C20.8807 15 22 16.1193 22 17.5C22 18.8807 20.8807 20 19.5 20H10.2412C9.43391 21.2057 8.06001 22 6.5 22C4.01472 22 2 19.9853 2 17.5C2 15.0147 4.01472 13 6.5 13ZM6.5 15C5.11929 15 4 16.1193 4 17.5C4 18.8807 5.11929 20 6.5 20C7.88071 20 9 18.8807 9 17.5C9 16.1193 7.88071 15 6.5 15ZM17.5 2C19.9853 2 22 4.01472 22 6.5C22 8.98528 19.9853 11 17.5 11C15.94 11 14.5661 10.2057 13.7588 9H4.5C3.11929 9 2 7.88071 2 6.5C2 5.11929 3.11929 4 4.5 4H13.7588C14.5661 2.79428 15.94 2 17.5 2ZM17.5 4C16.1193 4 15 5.11929 15 6.5C15 7.88071 16.1193 9 17.5 9C18.8807 9 20 7.88071 20 6.5C20 5.11929 18.8807 4 17.5 4Z" fill="#141414"/>
</svg>
