<svg width="24" height="24" viewBox="0 0 24 24" fill="none" xmlns="http://www.w3.org/2000/svg">
<path d="M18 2C20.2091 2 22 3.79086 22 6V18C22 20.2091 20.2091 22 18 22H6C3.79086 22 2 20.2091 2 18V6C2 3.79086 3.79086 2 6 2H18ZM8.5 6C7.94772 6 7.5 6.44772 7.5 7V17C7.5 17.5523 7.94772 18 8.5 18H14C15.933 18 17.5 16.433 17.5 14.5C17.5 13.247 16.8413 12.1476 15.8516 11.5293C16.2597 10.9569 16.5 10.2566 16.5 9.5C16.5 7.567 14.933 6 13 6H8.5ZM14 13C14.8284 13 15.5 13.6716 15.5 14.5C15.5 15.3284 14.8284 16 14 16H9.5V13H14ZM13 8C13.8284 8 14.5 8.67157 14.5 9.5C14.5 10.3284 13.8284 11 13 11H9.5V8H13Z" fill="#141414"/>
</svg>
