<svg width="24" height="24" viewBox="0 0 24 24" fill="none" xmlns="http://www.w3.org/2000/svg">
<path d="M19.6074 1.97341C19.7573 1.97972 19.8766 1.98688 19.96 1.99294C20.0015 1.99596 20.0342 1.99872 20.0576 2.00075C20.0693 2.00177 20.0789 2.00303 20.0859 2.00368C20.0894 2.004 20.0925 2.00444 20.0947 2.00466H20.0986C20.099 2.00585 20.096 2.03938 20 2.99977L20.0996 2.00466C20.4528 2.04001 20.7611 2.26025 20.9092 2.58278C21.0386 2.86509 21.0286 3.18935 20.8877 3.46071L20.8193 3.57302L20.8184 3.57399C20.8174 3.57542 20.8159 3.5783 20.8135 3.58181C20.8082 3.58944 20.7994 3.60227 20.7881 3.61891C20.7652 3.65263 20.7304 3.70495 20.6855 3.77321C20.5957 3.90985 20.4649 4.11256 20.3076 4.37087C19.9923 4.88884 19.5708 5.62605 19.1504 6.49684C18.4891 7.86656 17.8633 9.5033 17.6143 11.1121C20.1176 11.6272 21.9999 13.844 22 16.4998C22 19.5373 19.5376 21.9998 16.5 21.9998C13.4624 21.9998 11 19.5373 11 16.4998C11.0001 13.7697 12.9895 11.5045 15.5977 11.074C15.863 9.07528 16.6249 7.12889 17.3496 5.6277C17.6506 5.00431 17.9519 4.44541 18.2197 3.97634C17.3207 4.01664 16.1603 4.14162 14.9453 4.46559C12.8697 5.01909 10.71 6.12386 9.34863 8.32106C10.4695 8.72205 11.4221 9.47508 12.0723 10.447C10.21 11.8116 9.00009 14.0142 9 16.4998C9 17.2603 9.11373 17.9946 9.32422 18.6863C8.75331 18.8875 8.13995 18.9998 7.5 18.9998C4.46251 18.9998 2.00012 16.5372 2 13.4998C2.00014 10.5517 4.31974 8.14568 7.2334 8.00661C8.88854 4.74856 11.8411 3.22429 14.4297 2.53395C15.9297 2.13396 17.3376 2.00145 18.3662 1.96852C18.8823 1.95201 19.3078 1.96079 19.6074 1.97341Z" fill="#141414"/>
</svg>
