<svg width="24" height="24" viewBox="0 0 24 24" fill="none" xmlns="http://www.w3.org/2000/svg">
<path d="M21.749 19.249L20.335 20.6631L16.9502 17.2783C15.8353 18.1591 14.4815 18.7507 13 18.9355V21H16V23H8V21H11V18.9355C7.05399 18.4432 4.00005 15.0794 4 11V9H6V11C6.00005 14.3136 8.68643 16.9999 12 17C13.3179 16.9999 14.5343 16.5724 15.5234 15.8516L14.084 14.4121C13.4773 14.7843 12.7642 15 12 15C9.791 14.9999 8.00005 13.209 8 11V8.32812L2.5 2.82812L3.91406 1.41406L21.749 19.249ZM20 11C20 12.085 19.781 13.1183 19.3896 14.0615L17.8135 12.4854C17.9345 12.0103 18 11.5127 18 11V9H20V11ZM12 1C14.209 1.00013 15.9999 2.791 16 5V10.6719L8.46191 3.13379C9.13252 1.86506 10.4651 1.00009 12 1Z" fill="#141414"/>
</svg>
