<svg width="24" height="24" viewBox="0 0 24 24" fill="none" xmlns="http://www.w3.org/2000/svg">
<path d="M14.3936 14C12.3603 15.2248 11 17.4533 11 20C11 21.0738 11.2427 22.0906 11.6748 23H4C2.89543 23 2 22.1046 2 21C2 17.134 5.13401 14 9 14H14.3936ZM22.707 17.293C23.0975 17.6835 23.0975 18.3165 22.707 18.707L19.207 22.207L17.793 20.793L19.5859 19H15V17H19.5859L17.793 15.207L19.207 13.793L22.707 17.293ZM12 2C14.7614 2 17 4.23858 17 7C17 9.76142 14.7614 12 12 12C9.23858 12 7 9.76142 7 7C7 4.23858 9.23858 2 12 2Z" fill="#141414"/>
</svg>
