<svg width="24" height="24" viewBox="0 0 24 24" fill="none" xmlns="http://www.w3.org/2000/svg">
<path d="M12.001 2.90039C17.2752 2.90048 21.5508 7.17593 21.5508 12.4502C21.5507 14.7934 20.7057 16.9404 19.3057 18.6016L22.2891 21.5859L20.875 23L17.8643 19.9883C16.2464 21.2481 14.2105 22 12.001 22C9.79137 22 7.75563 21.2482 6.1377 19.9883L3.12598 23L1.71191 21.5859L4.69629 18.6016C3.29616 16.9404 2.45121 14.7935 2.45117 12.4502C2.45117 7.17588 6.72666 2.90039 12.001 2.90039ZM10.501 8.5V13C10.501 13.2652 10.6064 13.5195 10.7939 13.707L13.7939 16.707L15.208 15.293L12.501 12.5859V8.5H10.501ZM6.82617 2.41406L2.41406 6.8252L1 5.41113L5.41211 1L6.82617 2.41406ZM23 5.41016L21.5859 6.82422L17.1758 2.41406L18.5898 1L23 5.41016Z" fill="#141414"/>
</svg>
