<svg width="24" height="24" viewBox="0 0 24 24" fill="none" xmlns="http://www.w3.org/2000/svg">
<path d="M14.5 1C16.433 1 18 2.567 18 4.5C18 5.03681 17.8791 5.54536 17.6631 6H21C22.1046 6 23 6.89543 23 8V11C23 12.1046 22.1046 13 21 13V19C21 21.2091 19.2091 23 17 23H13V13H11V23H7C4.79086 23 3 21.2091 3 19V13C1.89543 13 1 12.1046 1 11V8C1 6.89543 1.89543 6 3 6H6.33691C6.12093 5.54536 6 5.03681 6 4.5C6 2.567 7.567 1 9.5 1C10.4797 1 11.3647 1.40311 12 2.05176C12.6353 1.40311 13.5203 1 14.5 1ZM3 11H11V8H3V11ZM13 11H21V8H13V11ZM9.5 3C8.67157 3 8 3.67157 8 4.5C8 5.32843 8.67157 6 9.5 6H11V4.5C11 3.67157 10.3284 3 9.5 3ZM14.5 3C13.6716 3 13 3.67157 13 4.5V6H14.5C15.3284 6 16 5.32843 16 4.5C16 3.67157 15.3284 3 14.5 3Z" fill="#141414"/>
</svg>
