<svg width="24" height="24" viewBox="0 0 24 24" fill="none" xmlns="http://www.w3.org/2000/svg">
<path d="M10 3H14V1H16V3H17C19.2091 3 21 4.79086 21 7V8H23V10H21V14H23V16H21V17C21 19.2091 19.2091 21 17 21H16V23H14V21H10V23H8V21H7C4.79086 21 3 19.2091 3 17V16H1V14H3V10H1V8H3V7C3 4.79086 4.79086 3 7 3H8V1H10V3ZM9 7C7.89543 7 7 7.89543 7 9V15C7 16.1046 7.89543 17 9 17H15C16.1046 17 17 16.1046 17 15V9C17 7.89543 16.1046 7 15 7H9ZM14 9C14.5523 9 15 9.44772 15 10V14C15 14.5523 14.5523 15 14 15H10C9.44772 15 9 14.5523 9 14V10C9 9.44772 9.44772 9 10 9H14Z" fill="#141414"/>
</svg>
