<svg width="24" height="24" viewBox="0 0 24 24" fill="none" xmlns="http://www.w3.org/2000/svg">
<path d="M12 1C14.5629 1 16.9251 1.34449 18.6807 1.92969C19.5531 2.22053 20.3315 2.58931 20.9121 3.04688C21.4814 3.4956 22 4.14818 22 5V11C22 11.8494 21.4868 12.5023 20.918 12.9531C20.3391 13.4118 19.5626 13.7805 18.6914 14.0713C17.1681 14.5798 15.1846 14.9057 13 14.9824V17.1709C13.8524 17.4722 14.5278 18.1476 14.8291 19H22V21H14.8291C14.4172 22.1652 13.3062 23 12 23C10.6938 23 9.58275 22.1652 9.1709 21H2V19H9.1709C9.47219 18.1476 10.1476 17.4722 11 17.1709V14.9824C8.8154 14.9057 6.83187 14.5798 5.30859 14.0713C4.43745 13.7805 3.66087 13.4118 3.08203 12.9531C2.51316 12.5023 2 11.8494 2 11V5C2 4.14818 2.51859 3.4956 3.08789 3.04688C3.66849 2.58931 4.4469 2.22053 5.31934 1.92969C7.07494 1.34449 9.43715 1 12 1ZM12 19C11.4477 19 11 19.4477 11 20C11 20.5523 11.4477 21 12 21C12.5523 21 13 20.5523 13 20C13 19.4477 12.5523 19 12 19ZM12 3C9.59229 3 7.45391 3.32656 5.95215 3.82715C5.19606 4.07918 4.65634 4.35796 4.32617 4.61816C4.32122 4.62206 4.3153 4.62663 4.30859 4.63184C4.21506 4.70445 3.9668 4.89704 4.00293 5.01562C4.01373 5.05059 4.0875 5.19367 4.32617 5.38184C4.65634 5.64204 5.19606 5.92082 5.95215 6.17285C7.45391 6.67344 9.59229 7 12 7C14.4077 7 16.5461 6.67344 18.0479 6.17285C18.1178 6.14955 18.2085 6.12305 18.3125 6.09277C18.9249 5.91454 19.998 5.60179 20 5C19.9997 4.39855 18.9236 4.08541 18.3115 3.90723C18.2078 3.87702 18.1174 3.85034 18.0479 3.82715C16.5461 3.32656 14.4077 3 12 3Z" fill="#141414"/>
</svg>
