<svg width="24" height="24" viewBox="0 0 24 24" fill="none" xmlns="http://www.w3.org/2000/svg">
<path d="M12 1.5C18.0262 1.5 23 6.1533 23 12C23 17.8467 18.0262 22.5 12 22.5C10.3748 22.5 8.82885 22.1623 7.43652 21.5557L3.52832 22.5674C2.45279 22.8454 1.45829 21.8983 1.68359 20.8105L2.43457 17.1875C1.52303 15.6588 1 13.8877 1 12C1 6.1533 5.97382 1.5 12 1.5ZM12 14C11.1716 14 10.5 14.6716 10.5 15.5C10.5 16.3284 11.1716 17 12 17C12.8284 17 13.5 16.3284 13.5 15.5C13.5 14.6716 12.8284 14 12 14ZM12 7C10.3431 7 9 8.34315 9 10H11C11 9.44772 11.4477 9 12 9C12.5523 9 13 9.44772 13 10C13 10.4655 12.6808 10.8586 12.248 10.9688C11.6871 11.1116 11 11.6284 11 12.5V13H13V12.8281C14.1646 12.4162 15 11.3071 15 10C15 8.34315 13.6569 7 12 7Z" fill="#141414"/>
</svg>
