<svg width="24" height="24" viewBox="0 0 24 24" fill="none" xmlns="http://www.w3.org/2000/svg">
<path d="M7 6H6.54102C5.56358 6.00018 4.72917 6.70677 4.56836 7.6709L4.11816 10.3662C4.69904 10.1301 5.33433 10 6 10C8.12045 10 9.93118 11.3205 10.6582 13.1836C11.089 13.0636 11.5365 13.001 11.9893 13C12.449 12.999 12.9034 13.0619 13.3408 13.1836C14.0678 11.3203 15.8794 10 18 10C18.6654 10 19.3002 10.1303 19.8809 10.3662L19.4316 7.6709C19.2708 6.70677 18.4364 6.00018 17.459 6H17V4H17.459C19.4142 4.00018 21.0829 5.41414 21.4043 7.34277L22.2383 12.3477C22.7205 13.1165 23 14.0255 23 15C23 17.7614 20.7614 20 18 20C15.2971 20 13.096 17.8553 13.0039 15.1748C12.6812 15.0603 12.3399 14.9993 11.9932 15C11.6508 15.0008 11.3136 15.0606 10.9951 15.1738C10.9035 17.8547 8.70322 20 6 20C3.23858 20 1 17.7614 1 15C1 14.0257 1.27873 13.1164 1.76074 12.3477L2.5957 7.34277C2.91714 5.41414 4.58582 4.00018 6.54102 4H7V6Z" fill="#141414"/>
</svg>
