<svg width="24" height="24" viewBox="0 0 24 24" fill="none" xmlns="http://www.w3.org/2000/svg">
<path d="M12 1C18.0751 1 23 5.92487 23 12C23 18.0751 18.0751 23 12 23C5.92487 23 1 18.0751 1 12C1 5.92487 5.92487 1 12 1ZM11 7H10C8.34315 7 7 8.34315 7 10C7 11.6569 8.34315 13 10 13H11V15H10C9.44772 15 9 14.5523 9 14H7C7 15.6569 8.34315 17 10 17H11V19H13V17H14C15.6569 17 17 15.6569 17 14C17 12.3431 15.6569 11 14 11H13V9H14C14.5523 9 15 9.44772 15 10H17C17 8.34315 15.6569 7 14 7H13V5H11V7ZM14 13C14.5523 13 15 13.4477 15 14C15 14.5523 14.5523 15 14 15H13V13H14ZM11 11H10C9.44772 11 9 10.5523 9 10C9 9.44772 9.44772 9 10 9H11V11Z" fill="#141414"/>
</svg>
