<svg width="24" height="24" viewBox="0 0 24 24" fill="none" xmlns="http://www.w3.org/2000/svg">
<path d="M12.5 4.51657C12.5 3.08073 13.9683 2.11307 15.2881 2.67868L17.8633 3.78219C20.0693 4.72766 21.5 6.89673 21.5 9.29684V10.8281C21.4999 12.4653 20.9259 14.0508 19.8779 15.3086L18.7686 16.6406L17.2314 15.3593L18.3408 14.0283C19.0895 13.1299 19.4999 11.9975 19.5 10.8281V9.29684C19.5 7.69679 18.5459 6.2504 17.0752 5.62008L14.5 4.51657V18C14.4999 20.209 12.7091 22 10.5 22C8.29091 22 6.50009 20.209 6.5 18C6.5 15.7908 8.29086 14 10.5 14C11.2288 14 11.9116 14.1956 12.5 14.5361V4.51657ZM7.47852 6.49996H9.96582V8.49996H7.47852V11H5.48828V8.49996H3V6.49996H5.48828V3.99996H7.47852V6.49996Z" fill="#141414"/>
</svg>
