<svg width="24" height="24" viewBox="0 0 24 24" fill="none" xmlns="http://www.w3.org/2000/svg">
<path d="M21.7988 4.92871L11.8457 14.8809C12.6828 15.4739 13.6033 15.9585 14.5889 16.3125L15.7773 14.5312C16.2462 13.8284 17.106 13.4964 17.9258 13.7012L20.4854 14.3408C21.3755 14.5635 22 15.3636 22 16.2812V19C22 20.6569 20.6569 22 19 22C15.0002 22 11.3241 20.6176 8.4209 18.3057L4.82812 21.8994L3.41406 20.4854L6.92969 16.9688L10.3154 13.583L20.3848 3.51465L21.7988 4.92871ZM7.71875 2C8.63637 2 9.43648 2.6245 9.65918 3.51465L10.2988 6.07422C10.5036 6.89395 10.1716 7.75381 9.46875 8.22266L7.68652 9.41016C8.02383 10.3496 8.47999 11.2297 9.03516 12.0352L5.60352 15.4668C3.34582 12.5812 2 8.94783 2 5C2 3.34315 3.34315 2 5 2H7.71875Z" fill="#141414"/>
</svg>
