<svg width="24" height="24" viewBox="0 0 24 24" fill="none" xmlns="http://www.w3.org/2000/svg">
<path d="M13 19.5859L15 17.5859L16.4141 19L12.707 22.707C12.3165 23.0976 11.6835 23.0976 11.293 22.707L7.58594 19L9 17.5859L11 19.5859V13H13V19.5859ZM9 1C11.9969 1 14.6071 2.64884 15.9775 5.08789C16.3099 5.03082 16.6514 5 17 5C20.3137 5 23 7.68629 23 11C23 14.3137 20.3137 17 17 17C16.2985 17 15.6255 16.8789 15 16.6572V13C15 11.8954 14.1046 11 13 11H11C9.89543 11 9 11.8954 9 13V17C4.58172 17 1 13.4183 1 9C1 4.58172 4.58172 1 9 1Z" fill="#141414"/>
</svg>
