<svg width="24" height="24" viewBox="0 0 24 24" fill="none" xmlns="http://www.w3.org/2000/svg">
<path d="M13.5 1C18.662 1 23 4.85199 23 9.78418C22.9999 11.2431 22.6136 12.6171 21.9365 13.8242L22.4668 15.8428C22.8828 17.4249 21.327 18.8101 19.8037 18.2139L18.0146 17.5127C17.2579 17.8911 16.4402 18.1754 15.5801 18.3535C14.543 21.0596 11.7041 22.9258 8.5 22.9258C7.28457 22.9258 6.13201 22.6608 5.11035 22.1885L4.22461 22.667C2.62249 23.5308 0.792321 21.9795 1.38281 20.2578L1.77441 19.1162C1.28115 18.2063 1.00001 17.1781 1 16.0879C1 13.7866 2.22084 11.8065 4.05859 10.5781C4.05274 10.582 4.04686 10.5859 4.04102 10.5898C4.01519 10.3248 4.00001 10.0562 4 9.78418C4 4.85199 8.33797 1 13.5 1ZM8.5 11.25C5.35867 11.25 3 13.5144 3 16.0879C3.00001 16.948 3.25498 17.7583 3.70996 18.4648C3.87568 18.7221 3.91469 19.0416 3.81543 19.3311L3.27539 20.9072L4.62109 20.1816L4.73535 20.1289C5.0093 20.0232 5.31841 20.0424 5.5791 20.1865C6.42103 20.6524 7.42091 20.9258 8.5 20.9258C11.6413 20.9258 14 18.6614 14 16.0879C14 13.5144 11.6413 11.25 8.5 11.25ZM4.59375 10.252C4.52797 10.2884 4.46291 10.326 4.39844 10.3643C4.46289 10.3259 4.528 10.2885 4.59375 10.252ZM4.90137 10.0908C4.837 10.1228 4.77322 10.1558 4.70996 10.1895C4.77319 10.1557 4.83703 10.1229 4.90137 10.0908ZM5.2373 9.93164C5.15408 9.96824 5.07181 10.0066 4.99023 10.0459C5.07139 10.0067 5.15353 9.96914 5.23633 9.93262L5.2373 9.93164Z" fill="#141414"/>
</svg>
