<svg width="32" height="40" viewBox="0 0 32 40" fill="none" xmlns="http://www.w3.org/2000/svg">
<path fill-rule="evenodd" clip-rule="evenodd" d="M4.26667 0C1.91025 0 0 1.92518 0 4.3V35.7C0 38.0748 1.91025 40 4.26667 40H27.7333C30.0898 40 32 38.0748 32 35.7V13.3599C32 12.3673 31.6592 11.4053 31.0356 10.637L23.6803 1.57708C22.87 0.578895 21.6578 0 20.3781 0H4.26667ZM13.8711 15.2833C13.6058 15.1051 13.3672 14.9447 13.1648 14.8342C12.9623 14.7235 12.6842 14.5971 12.3597 14.6166C11.9446 14.6416 11.5611 14.8485 11.3102 15.1827C11.1141 15.444 11.0642 15.7473 11.0432 15.9785C11.0222 16.2096 11.0222 16.4986 11.0222 16.8199V26.9301C11.0222 27.2514 11.0222 27.5404 11.0432 27.7715C11.0642 28.0027 11.1141 28.306 11.3102 28.5673C11.5611 28.9015 11.9446 29.1084 12.3597 29.1333C12.6842 29.1529 12.9623 29.0265 13.1648 28.9158C13.3673 28.8053 13.6058 28.6449 13.8711 28.4667L21.3981 23.4095C21.6151 23.2637 21.8163 23.1285 21.9709 23.0029C22.1322 22.8718 22.3223 22.69 22.4318 22.4241C22.5764 22.0725 22.5764 21.6775 22.4318 21.3259C22.3223 21.06 22.1322 20.8782 21.9709 20.7471C21.8163 20.6215 21.6151 20.4863 21.3981 20.3405L13.8711 15.2833Z" fill="black" fill-opacity="0.2667"/>
</svg>
