<svg width="32" height="40" viewBox="0 0 32 40" fill="none" xmlns="http://www.w3.org/2000/svg">
<path d="M14.8384 13.2117C14.8872 13.0994 14.9521 13.0159 15.166 12.9705C15.327 12.957 15.3562 12.9976 15.3953 13.0522L15.3979 13.0559C15.4999 13.1978 15.624 13.5291 15.6591 14.1494C15.6959 14.804 15.627 15.6274 15.4645 16.5642C15.1241 15.7368 14.8944 14.9885 14.7982 14.3657C14.7053 13.7646 14.7563 13.4001 14.8384 13.2117Z" fill="#D73D1D"/>
<path d="M14.9788 24.5627C15.3739 23.6702 15.7412 22.7454 16.0687 21.8206C16.6111 22.6545 17.1945 23.4749 17.797 24.2493C16.863 24.3171 15.9122 24.4226 14.9788 24.5627Z" fill="#D73D1D"/>
<path d="M23.823 27.2944C23.3723 27.0718 22.8557 26.7095 22.298 26.2295C23.1285 26.3154 23.8234 26.4556 24.3351 26.6448C24.8279 26.8269 24.9921 26.9976 25.0277 27.0547" fill="#D73D1D"/>
<path d="M23.823 27.2944C24.2715 27.5161 24.5442 27.5439 24.6765 27.5244L23.823 27.2944Z" fill="#D73D1D"/>
<path d="M24.6765 27.5244C24.7085 27.5195 24.7466 27.5122 24.7904 27.4819L24.6765 27.5244Z" fill="#D73D1D"/>
<path d="M24.7904 27.4819C24.8386 27.4485 24.8938 27.3875 24.9558 27.272L24.7904 27.4819Z" fill="#D73D1D"/>
<path d="M24.9558 27.272C24.9753 27.2356 24.9899 27.2041 25.0006 27.1775L24.9558 27.272Z" fill="#D73D1D"/>
<path d="M25.0006 27.1775C25.0291 27.1077 25.0315 27.071 25.0316 27.063L25.0006 27.1775Z" fill="#D73D1D"/>
<path d="M8.70288 28.5154C9.30664 28.1108 10.1902 27.7297 11.265 27.3953C10.6686 28.3247 10.0792 29.0579 9.53809 29.5249C9.09338 29.9087 8.78894 30.0188 8.62512 30.03C8.53699 30.0361 8.39197 30.0291 8.16577 29.7463C7.92468 29.4451 7.9646 29.3103 7.9845 29.2498C8.03076 29.1091 8.20715 28.8474 8.70288 28.5154Z" fill="#D73D1D"/>
<path fill-rule="evenodd" clip-rule="evenodd" d="M4 0C1.79089 0 0 1.79077 0 4V36C0 38.2092 1.79089 40 4 40H28C30.2091 40 32 38.2092 32 36V12.9958C32 12.0312 31.6514 11.0991 31.0184 10.3711L23.1959 1.37524C22.4362 0.501709 21.3352 0 20.1775 0H4ZM17.624 14.0386C17.7058 15.4875 17.3875 17.3801 16.8514 19.3359C17.8265 21.0212 19.0359 22.7312 20.2659 24.1604C22.0969 24.167 23.8097 24.3516 25.0175 24.7981C25.6587 25.0352 26.3195 25.4041 26.6995 26.0156C27.135 26.7168 27.0668 27.5015 26.6897 28.2036C26.3168 28.8982 25.7258 29.3594 24.9646 29.4719C24.2686 29.575 23.5691 29.365 22.9512 29.0596C21.8116 28.4963 20.5725 27.4187 19.3927 26.1396C17.6235 26.1877 15.6987 26.3975 13.9224 26.7405C12.9821 28.5063 11.9144 30.0742 10.8239 31.0154C10.2385 31.5205 9.53857 31.9402 8.7616 31.9941C7.90906 32.0535 7.17725 31.6616 6.62903 30.9766C6.07288 30.2812 5.84167 29.4661 6.11475 28.6348C6.36169 27.8838 6.96277 27.3118 7.60754 26.8796C8.81421 26.0713 10.6362 25.4487 12.5997 25.0059C13.4352 23.3115 14.1835 21.4031 14.7328 19.5813C13.7926 17.8467 13.075 16.1023 12.8531 14.6663C12.7354 13.9041 12.7373 13.1077 13.0336 12.4265C13.3604 11.6748 13.9949 11.1821 14.8455 11.0273L14.8773 11.0215L14.9097 11.0178C15.7683 10.9192 16.5117 11.2327 16.9961 11.9067C17.4214 12.4985 17.5811 13.2769 17.624 14.0386Z" fill="#D73D1D"/>
</svg>
