<svg preserveAspectRatio="none" width="100%" height="100%" overflow="visible" style="display: block;" viewBox="0 0 40 28" fill="none" xmlns="http://www.w3.org/2000/svg">
<g id="Layer_1" clip-path="url(#clip0_0_4)">
<path id="Vector" d="M28.9861 20.6939C29.2347 20.4401 29.5351 20.3119 29.8887 20.3119H33.7128V19.0446H29.8887C29.1815 19.0446 28.5794 19.2943 28.0836 19.7938C27.5865 20.2932 27.3392 20.8928 27.3392 21.5926V25.436C27.3392 26.1464 27.5878 26.7514 28.0836 27.2495C28.5807 27.7489 29.1815 27.9987 29.8887 27.9987H33.7128V26.718H29.8887C29.5351 26.718 29.2347 26.5938 28.9861 26.3441C28.7376 26.0943 28.614 25.7925 28.614 25.4373V24.1566H32.4381V22.876H28.614V21.5953C28.614 21.2494 28.7376 20.9503 28.9861 20.6952V20.6939Z" fill="var(--fill-0, white)"/>
<path id="Vector_2" d="M39.2477 23.6238C38.7465 23.1243 38.1471 22.8746 37.4506 22.8746H36.1759C35.8223 22.8746 35.5219 22.7504 35.2733 22.502C35.0248 22.2536 34.9011 21.9532 34.9011 21.6006C34.9011 21.2481 35.0248 20.9583 35.2733 20.7059C35.5219 20.4535 35.8223 20.3266 36.1759 20.3266H39.6704V19.0459H36.1759C35.4687 19.0459 34.8666 19.2957 34.3708 19.7951C33.8737 20.2946 33.6264 20.8942 33.6264 21.5939C33.6264 22.2937 33.875 22.9093 34.3708 23.4074C34.8679 23.9069 35.4687 24.1566 36.1759 24.1566H37.4506C37.8041 24.1566 38.1045 24.2808 38.3531 24.5305C38.6017 24.7803 38.7253 25.0834 38.7253 25.4373C38.7253 25.7912 38.6017 26.0957 38.3531 26.3441C38.1045 26.5938 37.8041 26.718 37.4506 26.718H33.669V27.9987H37.4506C38.1471 27.9987 38.7465 27.7489 39.2477 27.2495C39.7488 26.75 40 26.1451 40 25.436C40 24.7269 39.7501 24.1206 39.2477 23.6225V23.6238Z" fill="var(--fill-0, white)"/>
<path id="Vector_3" fill-rule="evenodd" clip-rule="evenodd" d="M25.3295 19.7951C24.8324 19.2957 24.2315 19.0459 23.5244 19.0459H22.8944C22.1301 19.0459 21.4947 19.333 20.9896 19.91C20.4739 19.3344 19.8345 19.0459 19.0702 19.0459H18.4402C17.733 19.0459 17.1309 19.2957 16.6351 19.7951C16.138 20.2946 15.8907 20.8942 15.8907 21.5939V28H17.1655V21.606C17.1655 21.2614 17.2891 20.9623 17.5376 20.7072C17.7862 20.4535 18.0866 20.3266 18.4402 20.3266H19.0702C19.4238 20.3266 19.7242 20.4535 19.9728 20.7072C20.2213 20.9609 20.3449 21.2614 20.3449 21.606V28H21.6196V21.606C21.6196 21.2614 21.7433 20.9623 21.9918 20.7072C22.2404 20.4535 22.5408 20.3266 22.8944 20.3266H23.5244C23.878 20.3266 24.1784 20.4535 24.4269 20.7072C24.6755 20.9609 24.7991 21.2614 24.7991 21.606V28H26.0738V21.5939C26.0752 20.8942 25.8266 20.2932 25.3308 19.7951H25.3295ZM13.0994 24.1566H9.27525V21.5939C9.27525 21.2481 9.39886 20.9489 9.64743 20.6939C9.89599 20.4401 10.1964 20.3119 10.55 20.3119H11.8247C12.1782 20.3119 12.4786 20.4388 12.7272 20.6939C12.9758 20.9476 13.0994 21.2481 13.0994 21.5939V24.1566ZM11.8247 19.0459H10.55C9.84282 19.0459 9.24069 19.2957 8.74489 19.7951C8.24777 20.2946 8.00053 20.8942 8.00053 21.5939V28H9.27525V25.4373H13.0994V28H14.3741V21.5939C14.3741 20.8942 14.1229 20.2932 13.6218 19.7951C13.1207 19.2957 12.5212 19.0459 11.8247 19.0459ZM0.745688 19.7951C0.248563 20.2946 0.00132921 20.8942 0.00132921 21.5939V25.4373C0.00132921 26.1478 0.249892 26.7527 0.745688 27.2508C1.24281 27.7503 1.84362 28 2.55076 28H4.09796C4.79447 28 5.39395 27.7503 5.89506 27.2508C6.39617 26.7514 6.64739 26.1464 6.64739 25.4373V22.8746H2.82325V24.1553H5.37268V25.436C5.37268 25.7912 5.24906 26.0943 5.0005 26.3427C4.75194 26.5925 4.45153 26.7166 4.09796 26.7166H2.55076C2.19719 26.7166 1.89679 26.5925 1.64822 26.3427C1.39966 26.0943 1.27604 25.7912 1.27604 25.4373V21.6019C1.27604 21.2574 1.39966 20.9583 1.64822 20.7045C1.89679 20.4508 2.19719 20.3239 2.55076 20.3239H6.64739V19.0419H2.55076C1.84229 19.0419 1.24148 19.2916 0.744359 19.7911L0.745688 19.7951Z" fill="var(--fill-0, white)"/>
<path id="Vector_4" d="M12.0387 0.0133543V7.02704C12.0387 9.68722 10.8942 12.079 9.07055 13.7322C7.47682 15.1772 5.36603 16.0559 3.05187 16.0559H0.0531685V0.0133543H3.05054V13.0792C6.37623 13.0792 9.07188 10.371 9.07188 7.02971V0.0133543H12.04H12.0387Z" fill="var(--fill-0, #F05A22)"/>
<path id="Vector_5" d="M26.0207 4.51777V16.0599H23.0206V4.5151C23.0206 3.68446 22.3507 3.01006 21.5226 3.01006H17.0272V16.0599H14.0338V0H21.5239C22.049 0 22.5528 0.0908094 23.0206 0.256403C24.298 0.709114 25.3109 1.72671 25.7628 3.01006C25.929 3.48147 26.0193 3.98894 26.0193 4.51777H26.0207Z" fill="var(--fill-0, #F05A22)"/>
<path id="Vector_6" d="M33.007 9.54033H37.0013C37.0013 9.54033 37.0053 11.4834 37.0053 11.5488C37.0053 12.3795 36.33 13.0512 35.5033 13.0512H32.5139C31.6977 13.0512 31.0358 12.3968 31.0145 11.5835C31.0145 11.5729 31.0145 11.5622 31.0145 11.5515V4.53513C31.0145 3.70449 31.6844 3.03009 32.5112 3.03009H38.0035V0.018696H32.5099C31.9862 0.018696 31.4824 0.109505 31.0145 0.275099C29.7358 0.72781 28.723 1.74541 28.271 3.02876C28.1049 3.50017 28.0145 4.00763 28.0145 4.53513V11.5475C28.0145 12.075 28.1049 12.5798 28.2697 13.0498C28.7216 14.3359 29.7345 15.3548 31.0145 15.8075C31.4824 15.9731 31.9862 16.0639 32.5099 16.0639H35.5073C36.031 16.0639 36.5334 15.9744 37.0013 15.8075C38.2813 15.3548 39.2955 14.3359 39.7461 13.0498C39.9109 12.5811 40 12.075 40 11.5488V6.53427H33.0057V9.53899L33.007 9.54033Z" fill="var(--fill-0, #F05A22)"/>
</g>
<defs>
<clipPath id="clip0_0_4">
<rect width="40" height="28" fill="white"/>
</clipPath>
</defs>
</svg>
